<?xml version="1.0" encoding="UTF-8"?>
<svg width="24px" height="23px" viewBox="0 0 24 23" version="1.1" xmlns="http://www.w3.org/2000/svg" xmlns:xlink="http://www.w3.org/1999/xlink">
    <!-- Generator: sketchtool 50 (54983) - http://www.bohemiancoding.com/sketch -->
    <title>0F3C1065-512D-4E21-B713-A508EB8A79F1</title>
    <desc>Created with sketchtool.</desc>
    <defs></defs>
    <g id="The-golden-fleece" stroke="none" stroke-width="1" fill="none" fill-rule="evenodd" opacity="0.5">
        <g id="All-Universes---Main" transform="translate(-165.000000, -25.000000)" fill="#FFFFFF" fill-rule="nonzero">
            <g id="Group-8" transform="translate(165.000000, 25.000000)">
                <g id="wallet">
                    <path d="M17.6046013,17.0960523 C16.4557386,17.096 15.5210458,16.1613595 15.5210458,15.0124967 L15.5210458,11.5523137 C15.5210458,10.403451 16.4557386,9.46881046 17.6046013,9.46881046 L23.0336209,9.46881046 C23.0665098,9.46881046 23.0991895,9.46980392 23.1317124,9.47126797 L23.1317124,6.02436601 C23.1317124,5.13709804 22.4124444,4.41783007 21.5251765,4.41783007 L1.60658824,4.41783007 C0.719267974,4.41777778 0,5.13704575 0,6.02431373 L0,20.5404444 C0,21.4277124 0.719267974,22.1470327 1.60658824,22.1470327 L21.5251765,22.1470327 C22.4124444,22.1470327 23.1317124,21.4277647 23.1317124,20.5404444 L23.1317124,17.0935425 C23.0991895,17.0950588 23.0665098,17.0960523 23.0336209,17.0960523 L17.6046013,17.0960523 Z" id="Shape"></path>
                    <path d="M23.0336209,10.6104575 L17.6046013,10.6104575 C17.0844444,10.6104575 16.6627451,11.0321569 16.6627451,11.5523137 L16.6627451,15.0124967 C16.6627451,15.5326536 17.0844444,15.9543529 17.6046013,15.9543529 L23.0336209,15.9543529 C23.5537778,15.9543529 23.9754771,15.5327059 23.9754771,15.0124967 L23.9754771,11.5523137 C23.9754771,11.0321046 23.5537778,10.6104575 23.0336209,10.6104575 Z M19.4753464,14.6417778 C18.724549,14.6417778 18.1159216,14.0331503 18.1159216,13.2823529 C18.1159216,12.5315556 18.724549,11.9229281 19.4753464,11.9229281 C20.2261438,11.9229281 20.8347712,12.5315556 20.8347712,13.2823529 C20.8347712,14.0331503 20.2261438,14.6417778 19.4753464,14.6417778 Z" id="Shape"></path>
                    <path d="M18.7277908,1.47498039 C18.368366,0.387084967 17.195085,-0.20345098 16.1072418,0.155973856 L7.94551634,2.85239216 L19.1828497,2.85239216 L18.7277908,1.47498039 Z" id="Shape"></path>
                </g>
            </g>
        </g>
    </g>
</svg>