<?xml version="1.0" encoding="UTF-8"?>
<svg width="26px" height="25px" viewBox="0 0 26 25" version="1.1" xmlns="http://www.w3.org/2000/svg" xmlns:xlink="http://www.w3.org/1999/xlink">
    <!-- Generator: sketchtool 50 (54983) - http://www.bohemiancoding.com/sketch -->
    <title>999954A7-A014-4D47-9A21-32AB78B05375</title>
    <desc>Created with sketchtool.</desc>
    <defs></defs>
    <g id="The-golden-fleece" stroke="none" stroke-width="1" fill="none" fill-rule="evenodd" opacity="0.5">
        <g id="All-Universes---Main" transform="translate(-573.000000, -24.000000)" fill="#FFFFFF" fill-rule="nonzero">
            <g id="startup" transform="translate(573.000000, 24.000000)">
                <circle id="Oval" cx="0.493137255" cy="24.4826471" r="1"></circle>
                <circle id="Oval" cx="13.0884804" cy="11.9758824" r="1"></circle>
                <path d="M19.5332843,5.73686275 C19.1376471,5.34117647 18.6116176,5.12333333 18.0521078,5.12333333 C17.492598,5.12333333 16.9665196,5.34127451 16.5709314,5.73686275 C15.7542157,6.55362745 15.7542157,7.88254902 16.5709314,8.69926471 C16.9793627,9.10764706 17.5156373,9.31176471 18.0521078,9.31176471 C18.5884314,9.31176471 19.124951,9.10754902 19.5332843,8.69926471 C20.35,7.8825 20.35,6.55357843 19.5332843,5.73686275 Z M18.8373529,8.00323529 C18.4043627,8.43617647 17.6998039,8.43617647 17.2669118,8.00323529 C16.8339216,7.57029412 16.8339216,6.86578431 17.2669118,6.43279412 C17.4766667,6.22303922 17.7554902,6.10754902 18.0521078,6.10754902 C18.3487255,6.10754902 18.627549,6.22303922 18.8373039,6.43279412 C19.2702941,6.86578431 19.2702941,7.57029412 18.8373529,8.00323529 Z" id="Shape"></path>
                <path d="M6.1475,20.120098 C5.90416667,19.9989216 5.60877451,20.0979902 5.48759804,20.3412745 L4.90142157,21.5184804 C4.64651961,22.0302941 4.13387255,22.372549 3.56338235,22.4115686 L2.88161765,22.4582353 C2.76637255,22.4659314 2.69058824,22.4085294 2.65553922,22.3734804 C2.6204902,22.3384314 2.56294118,22.2625 2.57078431,22.1473529 L2.61745098,21.4656373 C2.65651961,20.8951961 2.99877451,20.3825 3.51053922,20.127598 L4.68769608,19.5414216 C4.93102941,19.4202451 5.03004902,19.1248039 4.90887255,18.8815196 C4.7877451,18.6382353 4.49230392,18.5391667 4.24897059,18.6603431 L3.07181373,19.2465196 C2.24867647,19.6564216 1.69828431,20.4809314 1.63544118,21.3983824 L1.58877451,22.080098 C1.56357843,22.4480882 1.69867647,22.8086765 1.95946078,23.0694608 C2.19955882,23.3095588 2.52431373,23.4431863 2.86156863,23.4431863 C2.89053922,23.4431863 2.91970588,23.4422059 2.94882353,23.4401961 L3.63058824,23.3935294 C4.54803922,23.3307353 5.37254902,22.7803922 5.78245098,21.9571569 L6.36862745,20.78 C6.48980392,20.5366667 6.39078431,20.2412745 6.1475,20.120098 Z" id="Shape"></path>
                <path d="M24.7583333,0.351960784 C24.527402,0.124460784 24.2092647,0.00549019608 23.8861275,0.0265196078 L23.4278922,0.0557352941 C19.3191176,0.318039216 15.4738725,2.30132353 12.8781373,5.49710784 L11.7995098,6.825 L8.97681373,6.74210784 C8.9720098,6.74196078 8.96715686,6.74191176 8.96240196,6.74191176 C6.72377451,6.74191176 4.61911765,7.61367647 3.03612745,9.19661765 L0.14504902,12.0877451 C0.00754901961,12.2252451 -0.036127451,12.4308824 0.0336764706,12.6123529 C0.103480392,12.7938725 0.273578431,12.9173039 0.467794118,12.9272059 L6.58759804,13.2416176 L6.33808824,13.5488235 C6.21235294,13.7036765 6.19245098,13.9190686 6.28779412,14.0942647 C6.38367647,14.2705392 6.48416667,14.4440196 6.58897059,14.6147059 L5.13769608,16.337598 C5.01362745,16.484902 4.98691176,16.6910784 5.06921569,16.8651961 C5.38622549,17.535049 5.80696078,18.1369118 6.31990196,18.6540686 C6.84529412,19.1838725 7.45965686,19.6171078 8.14583333,19.9418627 C8.21289216,19.9736275 8.28480392,19.9891667 8.35627451,19.9891667 C8.46710784,19.9891667 8.5770098,19.9517157 8.66642157,19.8792157 C8.97906863,19.6255882 9.3395098,19.3247549 9.68813725,19.0338725 C9.93661765,18.8265196 10.1908333,18.6144118 10.4284314,18.4188235 C10.5702451,18.5041667 10.7138235,18.5869118 10.8595588,18.6661765 C10.9332843,18.7062745 11.0141176,18.7260294 11.0946569,18.7260294 C11.2018137,18.7260294 11.3082843,18.6911275 11.3964216,18.6226961 L11.7318627,18.362402 L12.0476471,24.5079902 C12.0576471,24.7022059 12.1810294,24.8723039 12.3625,24.9421078 C12.419951,24.9641667 12.4796569,24.974951 12.5389706,24.974951 C12.6671569,24.974951 12.7930392,24.9248039 12.8870588,24.8307353 L15.7781863,21.9396078 C17.3611765,20.3566176 18.2328922,18.2520098 18.2328922,16.0133333 L18.2328922,13.3175 L19.3734314,12.432451 C22.7915196,9.78 24.8732353,5.78029412 25.0848039,1.45882353 L25.0965196,1.21931373 C25.1125,0.895588235 24.9891667,0.579509804 24.7583333,0.351960784 Z M1.62367647,12.0010784 L3.73210784,9.89264706 C5.12745098,8.49730392 6.9822549,7.72808824 8.95529412,7.72617647 L11.0182843,7.78676471 L7.35602941,12.2955882 L1.62367647,12.0010784 Z M9.05754902,18.2781373 C8.80063725,18.492451 8.5372549,18.7122549 8.29284314,18.9132843 C7.82009804,18.6572549 7.39245098,18.3377941 7.01872549,17.9609314 C6.65676471,17.5959804 6.34867647,17.1804412 6.1002451,16.7226961 L7.16279412,15.4612745 C7.48406863,15.8923039 7.83573529,16.3005882 8.21563725,16.6830882 C8.21593137,16.6833824 8.21622549,16.6836275 8.21651961,16.6839216 C8.21661765,16.6840196 8.21671569,16.6841667 8.21681373,16.6842647 C8.21696078,16.6844118 8.21710784,16.6845098 8.2172549,16.6846569 C8.63848039,17.1085784 9.09156863,17.497598 9.57220588,17.8494118 C9.4025,17.9902941 9.22862745,18.1353922 9.05754902,18.2781373 Z M17.2487745,16.0133333 C17.2487745,17.9890686 16.4794118,19.8465196 15.0823039,21.2436275 L12.9738725,23.3520588 L12.6796569,17.6269608 L17.2487255,14.0813725 L17.2487255,16.0133333 L17.2487745,16.0133333 Z M24.1018627,1.41073529 C23.9043627,5.44490196 21.9610294,9.17872549 18.7701471,11.6548529 L11.0515196,17.6445098 C10.4114216,17.2704902 9.81480392,16.8288725 9.26877451,16.3285294 L11.8710294,13.7262745 C12.0631863,13.5341176 12.0631863,13.222451 11.8710294,13.0302451 C11.6788235,12.8380392 11.3672059,12.8380392 11.175,13.0302451 L8.57519608,15.630049 C8.09720588,15.1008824 7.67387255,14.525098 7.31343137,13.9092647 L13.6421569,6.11764706 C16.0652941,3.13436275 19.654902,1.28289216 23.4905392,1.03808824 L23.9487745,1.00887255 C24.0088235,1.00514706 24.0490196,1.03495098 24.067549,1.05318627 C24.0860294,1.07137255 24.1165686,1.11093137 24.1136275,1.17127451 L24.1018627,1.41073529 Z" id="Shape"></path>
            </g>
        </g>
    </g>
</svg>