<?xml version="1.0" encoding="UTF-8"?>
<svg width="18px" height="13px" viewBox="0 0 18 13" version="1.1" xmlns="http://www.w3.org/2000/svg" xmlns:xlink="http://www.w3.org/1999/xlink">
    <!-- Generator: sketchtool 50 (54983) - http://www.bohemiancoding.com/sketch -->
    <title>10281543-2D40-421B-BB06-9D7CD112A15D</title>
    <desc>Created with sketchtool.</desc>
    <defs></defs>
    <g id="The-golden-fleece" stroke="none" stroke-width="1" fill="none" fill-rule="evenodd" opacity="1">
        <g id="All-Universes---Main" transform="translate(-130.000000, -3231.000000)" fill="#FFFFFF" fill-rule="nonzero">
            <g id="footer" transform="translate(130.000000, 3149.000000)">
                <g id="Новости">
                    <g id="youtube" transform="translate(0.000000, 82.000000)">
                        <path d="M16.6577247,1.0984301 C16.0320473,0.354662365 14.8768645,0.0512731183 12.6707226,0.0512731183 L4.66244301,0.0512731183 C2.40581075,0.0512731183 1.23105806,0.374232258 0.607729032,1.16608602 C0,1.93814624 0,3.07571613 0,4.65014194 L0,7.65098925 C0,10.7011527 0.721066667,12.2498022 4.66244301,12.2498022 L12.6707785,12.2498022 C14.5839312,12.2498022 15.6440602,11.982086 16.329901,11.3257118 C17.033243,10.6526194 17.3333333,9.55363015 17.3333333,7.65098925 L17.3333333,4.65014194 C17.3333333,2.98977635 17.2863096,1.84549677 16.6577247,1.0984301 Z M11.1280559,6.56486022 L7.49152258,8.46543226 C7.41022365,8.50792688 7.32132043,8.52900645 7.23252904,8.52900645 C7.1319957,8.52900645 7.03168602,8.50194408 6.94283871,8.44815484 C6.77554408,8.3467828 6.67338925,8.16545376 6.67338925,7.96986667 L6.67338925,4.18091183 C6.67338925,3.98566022 6.77526451,3.80449892 6.94222365,3.70307096 C7.10923871,3.60164301 7.31695914,3.59470968 7.49023656,3.68473118 L11.1267699,5.57305806 C11.3117892,5.66911828 11.4279785,5.86012043 11.4282581,6.06851183 C11.4284817,6.27707096 11.3127957,6.46835269 11.1280559,6.56486022 Z" id="XMLID_823_"></path>
                    </g>
                </g>
            </g>
        </g>
    </g>
</svg>