<?xml version="1.0" encoding="UTF-8"?>
<svg width="25px" height="25px" viewBox="0 0 25 25" version="1.1" xmlns="http://www.w3.org/2000/svg" xmlns:xlink="http://www.w3.org/1999/xlink">
    <!-- Generator: sketchtool 50 (54983) - http://www.bohemiancoding.com/sketch -->
    <title>14C54A34-60F1-44AD-A5B7-1C76BB5FE4EC</title>
    <desc>Created with sketchtool.</desc>
    <defs></defs>
    <g id="The-golden-fleece" stroke="none" stroke-width="1" fill="none" fill-rule="evenodd" opacity="0.5">
        <g id="All-Universes---Main" transform="translate(-292.000000, -24.000000)" fill="#FFFFFF" fill-rule="nonzero">
            <g id="profits" transform="translate(292.000000, 24.000000)">
                <polygon id="Shape" points="5.72602539 15.7389648 5.72602539 24.9915039 7.67783203 24.9915039 7.6777832 13.7494141"></polygon>
                <polygon id="Shape" points="9.53203125 24.9915039 11.4837891 24.9915039 11.4837891 15.0057617 9.53203125 13.0540039"></polygon>
                <polygon id="Shape" points="1.87119141 24.9915039 3.82299805 24.9915039 3.82299805 17.6789063 1.87119141 19.6685547"></polygon>
                <polygon id="Shape" points="19.1445801 0.00844726563 19.1445801 1.96025391 21.7168457 1.96025391 12.8378418 10.8393066 8.8996582 6.90112305 0 16.0652832 1.40019531 17.4250488 8.92006836 9.68173828 12.8378418 13.5995605 23.0481934 3.38920898 23.0481934 5.81508789 25 5.81508789 25 0.00844726563"></polygon>
                <polygon id="Shape" points="21.0476074 8.15004883 21.0476074 24.9915527 22.9994141 24.9915527 22.9994141 7.86445313 21.3332031 7.86445313"></polygon>
                <polygon id="Shape" points="13.3379883 24.9915039 15.2897949 24.9915039 15.2897949 13.9078613 13.3379883 15.859668"></polygon>
                <polygon id="Shape" points="17.1928223 24.9915527 19.1445801 24.9915527 19.1445801 10.0530762 17.1928223 12.004834"></polygon>
            </g>
        </g>
    </g>
</svg>