<?xml version="1.0" encoding="UTF-8"?>
<svg width="165px" height="30px" viewBox="0 0 165 30" version="1.1" xmlns="http://www.w3.org/2000/svg" xmlns:xlink="http://www.w3.org/1999/xlink">
    <!-- Generator: sketchtool 50 (54983) - http://www.bohemiancoding.com/sketch -->
    <title>9C277F1F-CA80-4AF0-9788-42AABBFBCF26</title>
    <desc>Created with sketchtool.</desc>
    <defs></defs>
    <g id="The-golden-fleece" stroke="none" stroke-width="1" fill="none" fill-rule="evenodd">
        <g id="All-Universes---Main" transform="translate(-812.000000, -1396.000000)" fill="#558DFF">
            <g id="apple" transform="translate(812.000000, 1396.000000)">
                <g id="Group-4">
                    <path d="M20.4344531,15.9401953 C20.3966016,12.140918 23.5328906,10.3188281 23.6729883,10.2283008 C21.9107813,7.64958984 19.1656641,7.29632813 18.1874414,7.25548828 C15.85125,7.01894531 13.6289648,8.63091797 12.4433203,8.63091797 C11.2606641,8.63091797 9.43107422,7.29046875 7.49355469,7.32568359 C4.9471875,7.36353516 2.59927734,8.80628906 1.288125,11.0868164 C-1.3575,15.6776367 0.610605469,22.4786133 3.18919922,26.2018359 C4.44919922,28.0243359 5.95166016,30.07125 7.92433594,29.998125 C9.82400391,29.9223047 10.5423633,28.7688867 12.8390625,28.7688867 C15.1357031,28.7688867 15.7813477,29.998125 17.7916406,29.9603906 C19.8358594,29.9224219 21.130957,28.1030273 22.3822852,26.2749609 C23.8291992,24.1606641 24.4249805,22.1136914 24.4601367,22.0086328 C24.4147266,21.9878906 20.4739453,20.4782227 20.4344531,15.9401953 Z M16.6570312,4.79068359 C17.704043,3.52042969 18.4107422,1.75810547 18.2179687,0 C16.7098242,0.06140625 14.8817578,1.00458984 13.799707,2.27197266 C12.8288086,3.39626953 11.9789062,5.19070312 12.2066602,6.91365234 C13.890293,7.04501953 15.6089062,6.05806641 16.6570312,4.79068359 Z" id="apple" fill-rule="nonzero"></path>
                    <text id="All-Universe-для-iOS" font-family="Roboto-Regular, Roboto" font-size="14" font-weight="normal">
                        <tspan x="36" y="19">All-Universe для </tspan>
                        <tspan x="140.630859" y="19" font-family="Roboto-Bold, Roboto" font-size="16" font-weight="bold">iOS</tspan>
                    </text>
                </g>
            </g>
        </g>
    </g>
</svg>