<?xml version="1.0" encoding="UTF-8"?>
<svg width="25px" height="25px" viewBox="0 0 25 25" version="1.1" xmlns="http://www.w3.org/2000/svg" xmlns:xlink="http://www.w3.org/1999/xlink">
    <!-- Generator: sketchtool 50 (54983) - http://www.bohemiancoding.com/sketch -->
    <title>234E116A-1511-4FFD-9406-B28D51A563E9</title>
    <desc>Created with sketchtool.</desc>
    <defs></defs>
    <g id="The-golden-fleece" stroke="none" stroke-width="1" fill="none" fill-rule="evenodd" opacity="0.5">
        <g id="All-Universes---Main" transform="translate(-1280.000000, -24.000000)" fill="#FFFFFF" fill-rule="nonzero">
            <g id="worldwide" transform="translate(1280.000000, 24.000000)">
                <path d="M12.4810291,0.0025987526 C7.48882536,0.00187110187 2.97697505,2.97759875 1.01205821,7.56683992 L0.856548857,7.61839917 L0.916839917,7.79927235 C-1.67027027,14.1800416 1.40504158,21.449948 7.78581081,24.0370582 C9.27609148,24.6413202 10.8691788,24.9515073 12.4773389,24.9506237 C19.3665281,24.9516632 24.952183,19.3676715 24.9532225,12.4784823 C24.954262,5.58929314 19.3702703,0.00358627859 12.4810291,0.0025987526 Z M22.2654886,18.7658004 L21.624948,18.1256757 L21.624948,16.6346154 C21.6256757,16.5702703 21.6114345,16.5066528 21.583368,16.4487526 L19.9617464,13.2100832 L19.9617464,11.6450104 C19.9617464,11.5060291 19.8923597,11.3761954 19.7767152,11.2990644 L18.5293139,10.4674636 C18.4315489,10.402183 18.3107069,10.381341 18.1966736,10.4100832 L16.6690229,10.7917879 L14.1031185,9.69074844 L13.750104,7.21756757 L14.7284823,6.23960499 L16.8286902,6.23960499 L17.5355509,7.30197505 C17.5993763,7.3975052 17.699948,7.46242204 17.8133056,7.48118503 L20.3081081,7.89698545 C20.374948,7.90821206 20.4434511,7.90275468 20.5076923,7.88118503 L22.8054054,7.11528067 C24.7325884,10.8135655 24.5264553,15.2616424 22.2654886,18.7658004 Z M20.5505198,4.09989605 L19.8744283,4.5506237 L17.989605,4.17349272 L16.766736,3.76642412 C16.6918919,3.74100832 16.6113306,3.73778586 16.5347193,3.75727651 L14.9887734,4.14355509 L14.3110187,3.91777547 L14.8133056,2.91320166 L16.2195426,2.91320166 C16.2840437,2.91325364 16.3476611,2.8983368 16.4054054,2.86954262 L17.8440748,2.1502079 C18.8348233,2.66735967 19.7462578,3.32390852 20.5505198,4.09989605 Z M7.92307692,1.76268191 L8.92099792,2.42796258 C8.97006237,2.46060291 9.02546778,2.48243243 9.08357588,2.49199584 L11.0985447,2.82796258 L10.9018711,3.41632017 L9.85197505,3.76683992 C9.75795218,3.7981289 9.67817048,3.86195426 9.62702703,3.9468815 L8.43284823,5.93690229 L6.51476091,7.08783784 L3.68731809,7.49158004 C3.48238046,7.52053015 3.3299896,7.695842 3.32972973,7.90280665 L3.32972973,9.1502079 C3.32972973,9.26049896 3.37359667,9.36621622 3.45155925,9.44417879 L4.16133056,10.1539501 L4.16133056,10.8682952 L2.43160083,9.71486486 L1.804158,7.83253638 C2.997921,5.10488565 5.18591476,2.93440748 7.92307692,1.76268191 Z M6.73929314,15.3955301 L4.85987526,15.0192308 L4.16133056,13.6258836 L4.16133056,12.6487526 L5.71060291,11.0994802 L6.28399168,12.2466736 C6.35441788,12.3876299 6.4985447,12.4766632 6.65613306,12.4766112 L9.33139293,12.4766112 L10.4577963,14.3539501 C10.5329522,14.4790541 10.6681913,14.5555613 10.8141372,14.5556133 L11.9700624,14.5556133 L11.6790021,16.0138254 L10.1047817,17.5880457 C10.0266632,17.6659563 9.98269231,17.7716736 9.98253638,17.8820166 L9.98253638,18.9215177 L8.48565489,20.0441788 C8.38097713,20.1227131 8.31933472,20.2459459 8.31933472,20.3768191 L8.31933472,21.8786902 L7.802079,21.7073805 L7.07193347,19.881185 L7.07193347,15.8030146 C7.07198545,15.6054054 6.93290021,15.4350312 6.73929314,15.3955301 Z M5.48939709,21.787474 C1.56897089,18.8462578 -0.088981289,13.7643451 1.34261954,9.07702703 L1.68814969,10.1132017 C1.71725572,10.2008836 1.77474012,10.2764033 1.85155925,10.3277547 L3.92432432,11.7094595 L3.45155925,12.1826403 C3.37359667,12.2606029 3.32972973,12.3663202 3.32972973,12.4766112 L3.32972973,13.7240125 C3.32967775,13.7885135 3.34459459,13.852131 3.37338877,13.9098753 L4.2049896,15.5730769 C4.26257796,15.6879418 4.3700104,15.7697505 4.4960499,15.7946985 L6.24241164,16.1435551 L6.24241164,19.9610187 C6.24235967,20.0138254 6.25239085,20.0662162 6.27193347,20.1152807 L7.1035343,22.1942827 C7.14906445,22.3078482 7.24230769,22.3956341 7.35841996,22.4341996 L8.60582121,22.85 C8.6475052,22.8641372 8.69116424,22.8714137 8.73513514,22.8716216 C8.96476091,22.8716216 9.15093555,22.685447 9.15093555,22.4558212 L9.15093555,20.5847193 L10.647817,19.4620582 C10.7524948,19.3835239 10.8141372,19.2602911 10.8141372,19.1294179 L10.8141372,18.054158 L12.3555094,16.5127859 C12.4134615,16.4547297 12.4529626,16.3807692 12.4690229,16.3003119 L12.8848233,14.2213098 C12.9298337,13.9961019 12.7837838,13.777079 12.5585759,13.7320686 C12.5318087,13.7267152 12.5046258,13.7240125 12.4773389,13.7240125 L11.0494802,13.7240125 L9.92307692,11.8466736 C9.847921,11.7215696 9.71268191,11.6450624 9.56673597,11.6450104 L6.91309771,11.6450104 L6.1987526,10.2117464 C6.13892931,10.0920998 6.0252079,10.0085239 5.89313929,9.98721414 C5.76112266,9.96439709 5.62635135,10.0079522 5.53264033,10.1036383 L4.99293139,10.6412682 L4.99293139,9.98180873 C4.99293139,9.87151767 4.94906445,9.76580042 4.87110187,9.68783784 L4.16133056,8.97806653 L4.16133056,8.26330561 L6.71517672,7.89864865 C6.7700104,7.89069647 6.82276507,7.8718815 6.87027027,7.84334719 L8.94927235,6.59594595 C9.00758836,6.56091476 9.05644491,6.51205821 9.09147609,6.4537422 L10.2598753,4.50654886 L11.3613306,4.13898129 C11.4857069,4.09818087 11.583316,4.0006237 11.6241164,3.87619543 L12.0399168,2.62879418 C12.1119543,2.41075884 11.9936071,2.17557173 11.7755717,2.1035343 C11.7554574,2.0968815 11.7348233,2.09178794 11.7139293,2.08825364 L9.30727651,1.68700624 L8.88440748,1.40509356 C11.5009875,0.553430353 14.3349792,0.658835759 16.8810811,1.70239085 L16.1214137,2.08160083 L14.556341,2.08160083 C14.397973,2.08071726 14.2529106,2.16990644 14.1821206,2.31153846 L13.3505198,3.97474012 C13.2480769,4.18024948 13.3316008,4.42993763 13.5371102,4.53238046 C13.5546258,4.54111227 13.5727131,4.54859667 13.5912682,4.5547817 L14.8386694,4.97058212 C14.9135135,4.99599792 14.9940748,4.99922037 15.0706861,4.97972973 L16.616632,4.59345114 L17.7492723,4.97058212 C17.7654886,4.97640333 17.7821726,4.98087318 17.7991684,4.98388773 L19.8781705,5.39968815 C19.9862786,5.42172557 20.0987526,5.3995842 20.1904366,5.33814969 L21.1367983,4.70696466 C21.6025468,5.22572765 22.0211019,5.78497921 22.387526,6.37806653 L20.3417879,7.05997921 L18.1268191,6.69074844 L17.3950104,5.59303534 C17.3182952,5.47801455 17.1893971,5.40867983 17.0511435,5.40800416 L14.556341,5.40800416 C14.4460499,5.40800416 14.3403326,5.4518711 14.2623701,5.52983368 L13.0149688,6.77723493 C12.9223493,6.86980249 12.8787422,7.0006237 12.8972973,7.13024948 L13.3130977,10.0408524 C13.3340437,10.1847713 13.4286383,10.3072765 13.562578,10.3639293 L16.4731809,11.6113306 C16.5565489,11.6474532 16.6495842,11.6548857 16.7376299,11.6325364 L18.2224532,11.2612266 L19.1301455,11.8674636 L19.1301455,13.3082121 C19.1294179,13.3725572 19.143659,13.4361746 19.1717256,13.4940748 L20.7933472,16.7327443 L20.7933472,18.297817 C20.7933472,18.4081081 20.8372141,18.5138254 20.9151767,18.5917879 L21.7850312,19.4620582 C17.9272869,24.604106 10.6314449,25.6452703 5.48939709,21.787474 Z" id="Shape"></path>
            </g>
        </g>
    </g>
</svg>