<?xml version="1.0" encoding="UTF-8"?>
<svg width="19px" height="15px" viewBox="0 0 19 15" version="1.1" xmlns="http://www.w3.org/2000/svg" xmlns:xlink="http://www.w3.org/1999/xlink">
    <!-- Generator: sketchtool 50 (54983) - http://www.bohemiancoding.com/sketch -->
    <title>1ED2F255-2062-4EE7-B25B-8D1A091E332A</title>
    <desc>Created with sketchtool.</desc>
    <defs></defs>
    <g id="The-golden-fleece" stroke="none" stroke-width="1" fill="none" fill-rule="evenodd" opacity="0.5">
        <g id="All-Universes---Main" transform="translate(-130.000000, -3193.000000)" fill="#FFFFFF" fill-rule="nonzero">
            <g id="footer" transform="translate(130.000000, 3149.000000)">
                <g id="Новости">
                    <g id="twitter-logo-silhouette" transform="translate(0.000000, 44.000000)">
                        <path d="M18.4337048,1.77159639 C17.755241,2.07222892 17.027259,2.27611446 16.2623795,2.36713855 C17.0433735,1.89945783 17.6412048,1.1576506 17.9245482,0.276445783 C17.1919578,0.709548193 16.3833133,1.02403614 15.5216867,1.19451807 C14.8317169,0.458463855 13.8503012,0 12.761747,0 C10.6733735,0 8.98009036,1.69328313 8.98009036,3.78051205 C8.98009036,4.07653614 9.01349398,4.36566265 9.07801205,4.64213855 C5.93566265,4.48430723 3.14924699,2.97879518 1.28433735,0.691114458 C0.958343373,1.24864458 0.772891566,1.89828313 0.772891566,2.59174699 C0.772891566,3.90376506 1.44099398,5.06141566 2.45466867,5.73870482 C1.83493976,5.71798193 1.25207831,5.5475 0.741807229,5.26412651 L0.741807229,5.31135542 C0.741807229,7.14286145 2.04575301,8.67141566 3.77472892,9.01930723 C3.45795181,9.10454819 3.12391566,9.15177711 2.77834337,9.15177711 C2.53415663,9.15177711 2.29801205,9.12759036 2.0664759,9.08150602 C2.54795181,10.5847289 3.94406627,11.6778614 5.59819277,11.7078313 C4.30460843,12.721506 2.6735241,13.3239458 0.901927711,13.3239458 C0.596686747,13.3239458 0.296024096,13.305512 0,13.2721084 C1.67370482,14.3468373 3.66072289,14.9734639 5.7963253,14.9734639 C12.7525904,14.9734639 16.555,9.21168675 16.555,4.21478916 L16.5423193,3.72524096 C17.2852711,3.19533133 17.928012,2.52954819 18.4337048,1.77159639 Z" id="Shape"></path>
                    </g>
                </g>
            </g>
        </g>
    </g>
</svg>