<?xml version="1.0" encoding="UTF-8"?>
<svg width="25px" height="25px" viewBox="0 0 25 25" version="1.1" xmlns="http://www.w3.org/2000/svg" xmlns:xlink="http://www.w3.org/1999/xlink">
    <!-- Generator: sketchtool 50 (54983) - http://www.bohemiancoding.com/sketch -->
    <title>E4E82482-ADDE-41CC-B7ED-9E62E3572E5B</title>
    <desc>Created with sketchtool.</desc>
    <defs></defs>
    <g id="The-golden-fleece" stroke="none" stroke-width="1" fill="none" fill-rule="evenodd" opacity="0.5">
        <g id="All-Universes---Main" transform="translate(-726.000000, -23.000000)" fill="#FFFFFF" fill-rule="nonzero">
            <g id="shopping-bag" transform="translate(726.000000, 23.000000)">
                <path d="M24.8592708,23.6066667 L23.8017708,14.44 C23.7289583,13.8091667 23.1947396,13.3331771 22.5596875,13.3333333 L20.3859375,13.3333333 L20.3859375,11.6666667 C20.3845833,10.5166667 19.4526042,9.5846875 18.3026042,9.58333333 L17.4692708,9.58333333 C16.3192708,9.5846875 15.3872917,10.5166667 15.3859375,11.6666667 L15.3859375,13.3333333 L15.0376042,13.3333333 L14.6055208,6.9975 C14.5591146,6.34145833 14.0132292,5.83302083 13.3555208,5.83333333 L11.2192708,5.83333333 L11.2192708,3.33333333 C11.2192708,1.49239583 9.726875,0 7.8859375,0 C6.045,0 4.55260417,1.49239583 4.55260417,3.33333333 L4.55260417,5.83333333 L2.41510417,5.83333333 C1.75755208,5.83296875 1.21171875,6.34119792 1.16510417,6.99708333 L0.0313541667,23.66375 C-0.0163020833,24.3524479 0.5034375,24.949375 1.19213542,24.9970312 C1.22057292,24.9990104 1.24911458,25 1.27760417,25 L23.6176042,25 C24.3079687,24.9999479 24.8675521,24.4402604 24.8675,23.7498958 C24.8675,23.7020313 24.8647396,23.6542187 24.8592708,23.6066667 Z M20.3859375,14.1666667 L22.5596875,14.1666667 C22.7711979,14.1667188 22.9491146,14.3253125 22.9734375,14.5354167 L23.0271875,15 L20.3859375,15 L20.3859375,14.1666667 Z M19.9692708,17.0833333 C20.199375,17.0833333 20.3859375,17.2698958 20.3859375,17.5 C20.3859375,17.7301042 20.199375,17.9166667 19.9692708,17.9166667 C19.7391667,17.9166667 19.5526042,17.7301042 19.5526042,17.5 C19.5526042,17.2698958 19.7391667,17.0833333 19.9692708,17.0833333 Z M16.2192708,11.6666667 C16.2192708,10.9763021 16.7789062,10.4166667 17.4692708,10.4166667 L18.3026042,10.4166667 C18.9929688,10.4166667 19.5526042,10.9763021 19.5526042,11.6666667 L19.5526042,13.3333333 L16.2192708,13.3333333 L16.2192708,11.6666667 Z M16.2192708,14.1666667 L19.5526042,14.1666667 L19.5526042,15 L16.2192708,15 L16.2192708,14.1666667 Z M15.8026042,17.0833333 C16.0327083,17.0833333 16.2192708,17.2698958 16.2192708,17.5 C16.2192708,17.7301042 16.0327083,17.9166667 15.8026042,17.9166667 C15.5725,17.9166667 15.3859375,17.7301042 15.3859375,17.5 C15.3859375,17.2698958 15.5725,17.0833333 15.8026042,17.0833333 Z M15.3859375,14.1666667 L15.3859375,15 L12.7446875,15 L12.7984375,14.5354167 C12.8227604,14.3253125 13.0006771,14.1667708 13.2121875,14.1666667 L15.3859375,14.1666667 Z M11.2192708,6.66666522 L13.3567708,6.66666667 C13.5758333,6.66609375 13.7578646,6.83526042 13.7734375,7.05375 L13.8046875,7.5 L11.2192708,7.5 L11.2192708,6.66666522 Z M10.8026042,9.58333333 C11.0327083,9.58333333 11.2192708,9.76989583 11.2192708,10 C11.2192708,10.2301042 11.0327083,10.4166667 10.8026042,10.4166667 C10.5725,10.4166667 10.3859375,10.2301042 10.3859375,10 C10.3859375,9.76989583 10.5725,9.58333333 10.8026042,9.58333333 Z M5.3859375,3.33333333 C5.3859375,1.95260417 6.50520833,0.833333333 7.8859375,0.833333333 C9.26666667,0.833333333 10.3859375,1.95260417 10.3859375,3.33333333 L10.3859375,5.83333333 L5.3859375,5.83333333 L5.3859375,3.33333333 Z M5.3859375,6.66666667 L10.3859375,6.66666667 L10.3859375,7.5 L5.3859375,7.5 L5.3859375,6.66666667 Z M4.96927083,9.58333333 C5.199375,9.58333333 5.3859375,9.76989583 5.3859375,10 C5.3859375,10.2301042 5.199375,10.4166667 4.96927083,10.4166667 C4.73916667,10.4166667 4.55260417,10.2301042 4.55260417,10 C4.55260417,9.76989583 4.73916667,9.58333333 4.96927083,9.58333333 Z M1.9996875,7.05291667 C2.015625,6.83520833 2.19682292,6.66671875 2.41510417,6.66666667 L4.55260417,6.66666667 L4.55260417,7.5 L1.96927083,7.5 L1.9996875,7.05291667 Z M1.27760417,24.1666667 C1.16286458,24.1674479 1.053125,24.1199479 0.975104167,24.0358333 C0.89546875,23.9507292 0.85515625,23.8361979 0.863854167,23.72 L1.91052083,8.33333333 L4.55260417,8.33333333 L4.55260417,8.82666667 C3.90171875,9.05677083 3.560625,9.77098958 3.79078125,10.4218229 C4.02088542,11.0727083 4.73510417,11.4138021 5.3859375,11.1836458 C6.03677083,10.9534896 6.37791667,10.2393229 6.14776042,9.58848958 C6.02192708,9.2325 5.741875,8.9525 5.3859375,8.82666667 L5.3859375,8.33333333 L10.3859375,8.33333333 L10.3859375,8.82666667 C9.73505208,9.05677083 9.39395833,9.77098958 9.62411458,10.4218229 C9.85421875,11.0727083 10.5684375,11.4138021 11.2192708,11.1836458 C11.8701042,10.9534896 12.21125,10.2393229 11.9810937,9.58848958 C11.8552604,9.2325 11.5752083,8.9525 11.2192708,8.82666667 L11.2192708,8.33333333 L13.8617708,8.33333333 L14.2026042,13.3333333 L13.2121875,13.3333333 C12.5768229,13.3327604 12.0421354,13.8088542 11.9692708,14.44 L10.9117708,23.6066667 C10.8914062,23.7960937 10.9147396,23.9877083 10.9801042,24.1666667 L1.27760417,24.1666667 Z M23.9276042,24.0270833 C23.8490625,24.1164062 23.7356771,24.1673437 23.6167708,24.1666667 L12.1542708,24.1666667 C11.9241667,24.1668229 11.7375,23.9803646 11.7373438,23.7502604 C11.7373438,23.7341667 11.7382813,23.7180729 11.7401042,23.7020833 L12.6484375,15.8333333 L15.3859375,15.8333333 L15.3859375,16.3266667 C14.7350521,16.5567708 14.3939583,17.2709896 14.6241146,17.9218229 C14.8542187,18.5727083 15.5684375,18.9138021 16.2192708,18.6836458 C16.8701042,18.4534896 17.21125,17.7393229 16.9810937,17.0884896 C16.8552604,16.7325 16.5752083,16.4525 16.2192708,16.3266667 L16.2192708,15.8333333 L19.5526042,15.8333333 L19.5526042,16.3266667 C18.9017187,16.5567708 18.560625,17.2709896 18.7907812,17.9218229 C19.0208854,18.5727083 19.7351042,18.9138021 20.3859375,18.6836458 C21.0367708,18.4534896 21.3779167,17.7393229 21.1477604,17.0884896 C21.0219271,16.7325 20.741875,16.4525 20.3859375,16.3266667 L20.3859375,15.8333333 L23.1234375,15.8333333 L24.0317708,23.7025 C24.0455729,23.8206771 24.0076042,23.9390104 23.9276042,24.0270833 Z" id="Shape"></path>
            </g>
        </g>
    </g>
</svg>