<?xml version="1.0" encoding="UTF-8"?>
<svg width="17px" height="15px" viewBox="0 0 17 15" version="1.1" xmlns="http://www.w3.org/2000/svg" xmlns:xlink="http://www.w3.org/1999/xlink">
    <!-- Generator: sketchtool 50 (54983) - http://www.bohemiancoding.com/sketch -->
    <title>976FB302-65BC-473D-AC3C-D5C99AD072DA</title>
    <desc>Created with sketchtool.</desc>
    <defs></defs>
    <g id="The-golden-fleece" stroke="none" stroke-width="1" fill="none" fill-rule="evenodd" opacity="0.5">
        <g id="All-Universes---Main" transform="translate(-249.000000, -3193.000000)" fill="#FFFFFF" fill-rule="nonzero">
            <g id="footer" transform="translate(130.000000, 3149.000000)">
                <g id="Новости">
                    <g id="twitter-logo-silhouette-copy" transform="translate(119.000000, 44.000000)">
                        <g id="telegram">
                            <path d="M0.294388889,6.98027777 L4.13472222,8.41361108 L5.62116667,13.194 C5.71627778,13.5001667 6.09066667,13.6133333 6.33916667,13.4101667 L8.47983333,11.6650556 C8.70422225,11.4822222 9.02383333,11.4731111 9.25833333,11.6433333 L13.1193333,14.4465 C13.3851667,14.6397222 13.7617778,14.4940556 13.8284444,14.1728333 L16.6568333,0.567777777 C16.7296111,0.216888889 16.3848333,-0.0758333333 16.0507223,0.0533888889 L0.289888889,6.13344444 C-0.0990555558,6.28344444 -0.0956666667,6.83411111 0.294388889,6.98027777 Z M5.38161111,7.65061111 L12.8870556,3.028 C13.0219444,2.94516667 13.1607222,3.12755556 13.0448889,3.235 L6.85072222,8.99277775 C6.633,9.19544442 6.49255556,9.46666667 6.45277777,9.76105558 L6.24177777,11.3247222 C6.21383333,11.5335 5.92055556,11.5542222 5.86294444,11.3521667 L5.05144444,8.50077775 C4.9585,8.17555556 5.09394444,7.82816667 5.38161111,7.65061111 Z" id="XMLID_497_"></path>
                        </g>
                    </g>
                </g>
            </g>
        </g>
    </g>
</svg>