<?xml version="1.0" encoding="UTF-8"?>
<svg width="25px" height="25px" viewBox="0 0 25 25" version="1.1" xmlns="http://www.w3.org/2000/svg" xmlns:xlink="http://www.w3.org/1999/xlink">
    <!-- Generator: sketchtool 50 (54983) - http://www.bohemiancoding.com/sketch -->
    <title>10281296-54E5-484E-B269-05FC8EB2F0C0</title>
    <desc>Created with sketchtool.</desc>
    <defs></defs>
    <g id="The-golden-fleece" stroke="none" stroke-width="1" fill="none" fill-rule="evenodd" opacity="0.5">
        <g id="All-Universes---Main" transform="translate(-404.000000, -24.000000)" fill-rule="nonzero">
            <g id="nature" transform="translate(404.000000, 24.000000)">
                <path d="M3.75,3.75 C3.05963542,3.75 2.5,3.19036458 2.5,2.5 C2.5,2.26989583 2.3134375,2.08333333 2.08333333,2.08333333 C1.85322917,2.08333333 1.66666667,2.26989583 1.66666667,2.5 C1.66666667,3.19036458 1.10703125,3.75 0.416666667,3.75 C0.1865625,3.75 0,3.9365625 0,4.16666667 C0,4.39677083 0.1865625,4.58333333 0.416666667,4.58333333 C1.10703125,4.58333333 1.66666667,5.14296875 1.66666667,5.83333333 C1.66666667,6.0634375 1.85322917,6.25 2.08333333,6.25 C2.3134375,6.25 2.5,6.0634375 2.5,5.83333333 C2.5,5.14296875 3.05963542,4.58333333 3.75,4.58333333 C3.98010417,4.58333333 4.16666667,4.39677083 4.16666667,4.16666667 C4.16666667,3.9365625 3.98010417,3.75 3.75,3.75 Z M2.08333333,4.58333333 C1.9646875,4.42557292 1.82442708,4.2853125 1.66666667,4.16666667 C1.82442708,4.04802083 1.9646875,3.90776042 2.08333333,3.75 C2.20197917,3.90776042 2.34223958,4.04802083 2.5,4.16666667 C2.34223958,4.2853125 2.20197917,4.42557292 2.08333333,4.58333333 Z" id="Shape" fill="#FFFFFF"></path>
                <rect id="Rectangle-path" fill="#FFFFFF" x="5.83333333" y="0" width="1" height="1"></rect>
                <rect id="Rectangle-path" fill="#FFFFFF" x="5.83333333" y="1.66666667" width="1" height="1"></rect>
                <rect id="Rectangle-path" fill="#FFFFFF" x="5" y="0.833333333" width="1" height="1"></rect>
                <rect id="Rectangle-path" fill="#FFFFFF" x="6.66666667" y="0.833333333" width="1" height="1"></rect>
                <path d="M24.5833333,20.4166667 C23.8929688,20.4166667 23.3333333,19.8570312 23.3333333,19.1666667 C23.3333333,18.9365625 23.1467708,18.75 22.9166667,18.75 C22.6865625,18.75 22.5,18.9365625 22.5,19.1666667 C22.5,19.8570312 21.9403646,20.4166667 21.25,20.4166667 C21.0198958,20.4166667 20.8333333,20.6032292 20.8333333,20.8333333 C20.8333333,21.0634375 21.0198958,21.25 21.25,21.25 C21.9403646,21.25 22.5,21.8096354 22.5,22.5 C22.5,22.7301042 22.6865625,22.9166667 22.9166667,22.9166667 C23.1467708,22.9166667 23.3333333,22.7301042 23.3333333,22.5 C23.3333333,21.8096354 23.8929688,21.25 24.5833333,21.25 C24.8134375,21.25 25,21.0634375 25,20.8333333 C25,20.6032292 24.8134375,20.4166667 24.5833333,20.4166667 Z M22.9166667,21.25 C22.7980208,21.0922396 22.6577604,20.9519792 22.5,20.8333333 C22.6577604,20.7146875 22.7980208,20.5744271 22.9166667,20.4166667 C23.0353125,20.5744271 23.1755729,20.7146875 23.3333333,20.8333333 C23.1755729,20.9519792 23.0353125,21.0922396 22.9166667,21.25 Z" id="Shape" fill="#FFFFFF"></path>
                <rect id="Rectangle-path" fill="#FFFFFF" x="18.3333333" y="24.1666667" width="1" height="1"></rect>
                <rect id="Rectangle-path" fill="#FFFFFF" x="18.3333333" y="22.5" width="1" height="1"></rect>
                <rect id="Rectangle-path" fill="#558DFF" x="19.1666667" y="23.3333333" width="1" height="1"></rect>
                <rect id="Rectangle-path" fill="#FFFFFF" x="17.5" y="23.3333333" width="1" height="1"></rect>
                <path d="M22.3779167,2.62208333 C21.9954167,2.23958333 21.3433333,2.24708333 20.3954167,2.63333333 C19.7910417,1.94796875 18.7454688,1.88229167 18.0601042,2.48671875 C17.5564062,2.9309375 17.3711458,3.63552083 17.59125,4.27 C17.3229167,4.45807292 17.0477604,4.65723958 16.7658333,4.8675 C12.5568229,2.50546875 7.22989583,4.00276042 4.86786458,8.21177083 C3.37546875,10.8710938 3.37723958,14.1160417 4.8725,16.77375 C2.67541667,19.7229167 1.93083333,21.5945833 2.66666667,22.3333333 C2.87109375,22.5236979 3.14442708,22.6222917 3.42333333,22.60625 C4.56375,22.60625 6.42333333,21.4670833 8.2175,20.125 C12.4214063,22.4965625 17.7519271,21.0111979 20.1235417,16.8072396 C21.6233333,14.1486458 21.6273958,10.9002083 20.1341667,8.23791667 C21.89125,5.90625 23.27125,3.51541667 22.3779167,2.62208333 Z M19.1666667,2.91666667 C19.6269271,2.91666667 20,3.28973958 20,3.75 C20,4.21026042 19.6269271,4.58333333 19.1666667,4.58333333 C18.7064063,4.58333333 18.3333333,4.21026042 18.3333333,3.75 C18.3333333,3.28973958 18.7064063,2.91666667 19.1666667,2.91666667 Z M18.0416667,4.97 C18.7129167,5.59479167 19.7635417,5.55708333 20.3883333,4.88583333 C20.6754167,4.57739583 20.8344792,4.17135417 20.8333333,3.75 C20.8323958,3.62276042 20.8165625,3.49609375 20.78625,3.3725 C21.4591667,3.10791667 21.7366667,3.15916667 21.78875,3.21125 C22.07125,3.49375 21.4341667,5.035 19.6520833,7.47541667 C19.0691146,6.64833333 18.3481771,5.92765625 17.5208333,5.345 C17.6979167,5.215 17.8708333,5.09166667 18.0416667,4.97 Z M3.2575,21.7425 C3.1325,21.6175 3.155,20.5341667 5.35083333,17.5283333 C5.93125,18.3507292 6.648125,19.0677604 7.47041667,19.6483333 C5.04166667,21.4166667 3.53833333,22.0216667 3.2575,21.7425 Z M8.17458333,19.1225 C4.5140625,16.736875 3.48057292,11.8355208 5.86619792,8.17505208 C7.32755208,5.93276042 9.82354167,4.58135417 12.5,4.58333333 C15.1739583,4.58510417 17.6660937,5.93744792 19.125,8.17833333 C17.8848958,9.77614583 16.5597917,11.3061458 15.1554167,12.7616667 C14.853125,12.5926042 14.5130208,12.5026042 14.1666667,12.5 C13.0166667,12.5013542 12.0846875,13.4333333 12.0833333,14.5833333 C12.0857813,14.9233333 12.1723958,15.2574479 12.3354167,15.5558333 C10.77625,17.0179167 9.37708333,18.2008333 8.17458333,19.1225 Z M15.4166667,14.5833333 C15.4166667,15.2736979 14.8570313,15.8333333 14.1666667,15.8333333 C13.4763021,15.8333333 12.9166667,15.2736979 12.9166667,14.5833333 C12.9166667,13.8929687 13.4763021,13.3333333 14.1666667,13.3333333 C14.8570313,13.3333333 15.4166667,13.8929687 15.4166667,14.5833333 Z M20.4166667,12.5 C20.4256771,16.8632812 16.8958854,20.4077083 12.5326042,20.4167708 C11.2872917,20.4193229 10.0589583,20.1275 8.94791667,19.565 C10.6504167,18.2316667 12.19,16.8316667 12.86875,16.1995833 C13.2349479,16.4996875 13.6932292,16.6646354 14.1666667,16.6666667 C15.3166667,16.6653125 16.2486458,15.7333333 16.25,14.5833333 C16.2479688,14.1164063 16.0875521,13.6639583 15.795,13.3 C16.48875,12.56875 18.0895833,10.8416667 19.5725,8.96375 C20.1266146,10.0602604 20.4157292,11.2714583 20.4166667,12.5 Z" id="Shape" fill="#FFFFFF"></path>
                <path d="M9.30041667,7.78291667 C8.98411458,7.50161458 8.53901042,7.41651042 8.14125,7.56125 C7.71119792,7.69484375 7.32177083,7.93458333 7.00875,8.25833333 C6.22,9.04708333 6.01541667,10.0320833 6.53291667,10.55 C6.730625,10.7396875 6.9965625,10.8415625 7.27041667,10.8325 C7.41307292,10.8315104 7.55494792,10.8110417 7.69208333,10.7716667 C8.12213542,10.6380729 8.5115625,10.3983333 8.82458333,10.0745833 C9.61333333,9.28583333 9.81791667,8.30083333 9.30041667,7.78291667 Z M8.23541667,9.48541667 C8.023125,9.70713542 7.75953125,9.87328125 7.46791667,9.96916667 C7.28583333,10.0204167 7.16291667,10.0020833 7.12208333,9.96083333 C7.01291667,9.85166667 7.11291667,9.33291667 7.59791667,8.84791667 C7.81020833,8.62619792 8.07380208,8.46005208 8.36541667,8.36416667 C8.5475,8.31375 8.67041667,8.33208333 8.71125,8.3725 C8.82041667,8.48166667 8.72041667,9.00041667 8.23541667,9.48541667 Z" id="Shape" fill="#FFFFFF"></path>
            </g>
        </g>
    </g>
</svg>