<?xml version="1.0" encoding="UTF-8"?>
<svg width="9px" height="15px" viewBox="0 0 9 15" version="1.1" xmlns="http://www.w3.org/2000/svg" xmlns:xlink="http://www.w3.org/1999/xlink">
    <!-- Generator: sketchtool 50 (54983) - http://www.bohemiancoding.com/sketch -->
    <title>38EC0B23-0FB1-4FD4-829E-655CBEE2F57D</title>
    <desc>Created with sketchtool.</desc>
    <defs></defs>
    <g id="The-golden-fleece" stroke="none" stroke-width="1" fill="none" fill-rule="evenodd" opacity="0.5">
        <g id="All-Universes---Main" transform="translate(-253.000000, -3231.000000)" fill="#FFFFFF" fill-rule="nonzero">
            <g id="footer" transform="translate(130.000000, 3149.000000)">
                <g id="Новости">
                    <g id="twitter-logo-silhouette-copy" transform="translate(119.000000, 44.000000)">
                        <g id="facebook" transform="translate(4.000000, 38.000000)">
                            <path d="M1.14691961,7.989 L2.79116155,7.989 L2.79116155,14.7580645 C2.79116155,14.8917097 2.89945187,15 3.03309703,15 L5.820968,15 C5.95461316,15 6.06290348,14.8917097 6.06290348,14.7580645 L6.06290348,8.0208871 L7.95309703,8.0208871 C8.07600026,8.0208871 8.17940348,7.92866129 8.19343574,7.80658065 L8.48051639,5.31454839 C8.48840348,5.24598387 8.46667768,5.17732258 8.42080671,5.1258871 C8.37488735,5.07440323 8.30917768,5.04493548 8.24022606,5.04493548 L6.06300026,5.04493548 L6.06300026,3.48280645 C6.06300026,3.01190323 6.31654865,2.7731129 6.81667768,2.7731129 C6.88795187,2.7731129 8.24022606,2.7731129 8.24022606,2.7731129 C8.37387123,2.7731129 8.48216155,2.66477419 8.48216155,2.53117742 L8.48216155,0.243725806 C8.48216155,0.110080645 8.37387123,0.00179032258 8.24022606,0.00179032258 L6.27837123,0.00179032258 C6.26453252,0.00111290323 6.23380671,0 6.18851639,0 C5.84811316,0 4.66490348,0.0668225806 3.73025832,0.92666129 C2.69467768,1.8795 2.83862929,3.02037097 2.87303252,3.21817742 L2.87303252,5.0448871 L1.14691961,5.0448871 C1.01327445,5.0448871 0.904984129,5.15317742 0.904984129,5.28682258 L0.904984129,7.74701613 C0.904984129,7.88066129 1.01327445,7.989 1.14691961,7.989 Z" id="XMLID_835_"></path>
                        </g>
                    </g>
                </g>
            </g>
        </g>
    </g>
</svg>