<?xml version="1.0" encoding="UTF-8"?>
<svg width="26px" height="30px" viewBox="0 0 26 30" version="1.1" xmlns="http://www.w3.org/2000/svg" xmlns:xlink="http://www.w3.org/1999/xlink">
    <!-- Generator: sketchtool 50 (54983) - http://www.bohemiancoding.com/sketch -->
    <title>86A7169A-954F-460D-B6E5-F84ECD1C20F6</title>
    <desc>Created with sketchtool.</desc>
    <defs></defs>
    <g id="The-golden-fleece" stroke="none" stroke-width="1" fill="none" fill-rule="evenodd">
        <g id="All-Universes---Main" transform="translate(-423.000000, -1396.000000)" fill="#558DFF" fill-rule="nonzero">
            <g id="Group-3" transform="translate(423.000000, 1396.000000)">
                <g id="android-logo">
                    <path d="M1.83196966,9.74358974 L1.75649067,9.74358974 C0.788912971,9.74358974 0,10.5435462 0,11.5190238 L0,19.2489688 C0,20.2282787 0.788912971,21.025641 1.75649067,21.025641 L1.83325292,21.025641 C2.80083062,21.025641 3.58974359,20.2256845 3.58974359,19.2489688 L3.58974359,11.5189649 C3.58846033,10.5435462 2.79832243,9.74358974 1.83196966,9.74358974 Z" id="Shape"></path>
                    <path d="M4.61538462,22.3362732 C4.61538462,23.2437876 5.35899587,23.9828973 6.26888304,23.9828973 L8.03584103,23.9828973 L8.03584103,28.2029676 C8.03584103,29.194029 8.84648843,30 9.83500266,30 L9.91231529,30 C10.9047131,30 11.714046,29.1927775 11.714046,28.2029676 L11.714046,23.9828973 L14.1833899,23.9828973 L14.1833899,28.2029676 C14.1833899,29.194029 14.9966064,30 15.9851206,30 L16.0611785,30 C17.0535166,30 17.8615949,29.1927775 17.8615949,28.2029676 L17.8615949,23.9828973 L19.6298075,23.9828973 C20.5383803,23.9828973 21.2820513,23.2437876 21.2820513,22.3362732 L21.2820513,10 L4.61538462,10 L4.61538462,22.3362732 Z" id="Shape"></path>
                    <path d="M16.8142146,2.58608849 L18.2082515,0.454080208 C18.2978601,0.319609636 18.2581593,0.135748911 18.1211947,0.0481989845 C17.9855355,-0.0405856957 17.7999092,-0.00377827195 17.7115468,0.134455359 L16.2663559,2.34007849 C15.1821511,1.89997694 13.9711887,1.65267339 12.6923374,1.65267339 C11.4122399,1.65267339 10.2038292,1.89997694 9.11707266,2.34007849 L7.67443345,0.134455359 C7.5861304,-0.00377827195 7.39919853,-0.0405856957 7.26223386,0.0481989845 C7.12526918,0.135690113 7.08556841,0.319609636 7.17517702,0.454080208 L8.57046016,2.58608849 C6.05506944,3.80749522 4.35897436,6.10948794 4.35897436,8.7500972 C4.35897436,8.91243793 4.36924078,9.07225036 4.38330517,9.23076923 L21.0026158,9.23076923 C21.0166802,9.07225036 21.025641,8.91243793 21.025641,8.7500972 C21.0257004,6.10948794 19.3282997,3.80749522 16.8142146,2.58608849 Z M8.83928598,6.40371214 C8.39765204,6.40371214 8.03921762,6.05110172 8.03921762,5.61229373 C8.03921762,5.17348574 8.39765204,4.82211008 8.83928598,4.82211008 C9.28347169,4.82211008 9.63935435,5.17342694 9.63935435,5.61229373 C9.63935435,6.05116052 9.28091992,6.40371214 8.83928598,6.40371214 Z M16.5441425,6.40371214 C16.1025086,6.40371214 15.7440742,6.05110172 15.7440742,5.61229373 C15.7440742,5.17348574 16.1025086,4.82211008 16.5441425,4.82211008 C16.9870227,4.82211008 17.3429053,5.17342694 17.3429053,5.61229373 C17.3429053,6.05110172 16.9870227,6.40371214 16.5441425,6.40371214 Z" id="Shape"></path>
                    <path d="M23.8832517,9.74358974 L23.8102809,9.74358974 C22.8427032,9.74358974 22.0512821,10.5435462 22.0512821,11.5190238 L22.0512821,19.2489688 C22.0512821,20.2282787 22.8439865,21.025641 23.8102809,21.025641 L23.884535,21.025641 C24.8533376,21.025641 25.6410256,20.2256845 25.6410256,19.2489688 L25.6410256,11.5189649 C25.6410256,10.5435462 24.8508294,9.74358974 23.8832517,9.74358974 Z" id="Shape"></path>
                </g>
            </g>
        </g>
    </g>
</svg>