<svg width="111" height="111" viewBox="0 0 111 111" fill="none" xmlns="http://www.w3.org/2000/svg">
<g id="Group 19">
<g id="Group 17.1">
<g id="Ellipse" filter="url(#filter0_d)">
<circle cx="40.5" cy="40.5" r="40.5" transform="translate(15)" fill="#1B2130"/>
</g>
</g>
<g id="noun_860305_cc">
<g id="Group">
<path id="Vector" d="M2.93603 0.0828729V0.911601C2.69136 0.911601 2.52825 0.994475 2.28358 1.07735C1.79424 1.24309 1.46802 1.40884 1.14179 1.65746C0.815564 1.90608 0.570894 2.23757 0.407781 2.56906C0.244668 2.90055 0.163112 3.31491 0.163112 3.72928C0.163112 4.14364 0.244669 4.55801 0.326226 4.80663C0.489339 5.13812 0.65245 5.38673 0.815563 5.55248C1.06023 5.8011 1.22335 5.96684 1.46802 6.13259C1.71269 6.29834 1.95736 6.38121 2.28358 6.54695C2.52825 6.62983 2.85448 6.79557 3.09915 6.87845C3.34381 6.96132 3.58848 7.04419 3.7516 7.20994C3.99627 7.29281 4.15938 7.45856 4.24093 7.6243C4.40405 7.79005 4.40405 7.95579 4.40405 8.12154C4.40405 8.28729 4.40405 8.45303 4.32249 8.61878C4.24094 8.78452 4.15938 8.8674 3.99626 8.95027C3.83315 9.03314 3.7516 9.11602 3.50693 9.11602C3.34381 9.19889 3.09914 9.19889 2.93603 9.19889C2.60981 9.19889 2.28358 9.11601 1.95735 9.03314C1.71268 8.95027 1.38646 8.8674 1.22335 8.78452C0.978676 8.70165 0.815565 8.61878 0.652453 8.5359C0.48934 8.45303 0.407782 8.37016 0.326226 8.37016C0.244669 8.37016 0.244669 8.37016 0.163112 8.37016C0.163112 8.37016 0.0815571 8.45303 0.0815571 8.5359C0.0815571 8.61878 -1.24445e-06 8.70165 -1.24445e-06 8.78452C-1.24445e-06 8.8674 -1.24445e-06 9.03314 -1.24445e-06 9.28176C-1.24445e-06 9.61325 6.19796e-07 9.779 0.0815571 9.94474C0.0815571 10.1105 0.163114 10.1934 0.244671 10.2762C0.326227 10.3591 0.407781 10.442 0.570894 10.5249C0.734007 10.6077 0.897121 10.6906 1.14179 10.7735C1.38646 10.8563 1.63113 10.9392 1.95735 10.9392C2.20202 11.0221 2.44669 11.0221 2.77292 11.0221V11.8508H3.91471V11.0221C4.07782 11.0221 4.32249 10.9392 4.4856 10.8563C4.97494 10.6906 5.38272 10.5249 5.70895 10.2762C6.03517 10.0276 6.3614 9.69612 6.52451 9.28176C6.68763 8.86739 6.85074 8.45303 6.85074 7.95579C6.85074 7.54143 6.76918 7.20994 6.68763 6.87845C6.52451 6.54696 6.3614 6.29834 6.19829 6.13259C5.95362 5.88397 5.79051 5.71823 5.46428 5.55248C5.21961 5.38673 4.89338 5.30386 4.64872 5.13812C4.40405 5.05524 4.07782 4.8895 3.83315 4.80663C3.58848 4.72375 3.34381 4.64088 3.09915 4.47513C2.85448 4.39226 2.69136 4.22651 2.60981 4.06077C2.44669 3.89502 2.44669 3.72928 2.44669 3.56353C2.44669 3.39779 2.44669 3.31491 2.52825 3.14917C2.60981 3.0663 2.69136 2.90055 2.77292 2.81768C2.85448 2.7348 3.01759 2.65193 3.1807 2.65193C3.34381 2.56906 3.50693 2.56906 3.7516 2.56906C4.07782 2.56906 4.32249 2.56906 4.64872 2.65193C4.89338 2.7348 5.13805 2.81768 5.30117 2.90055C5.46428 2.98342 5.62739 3.0663 5.79051 3.14917C5.95362 3.23204 6.03518 3.23204 6.03518 3.23204C6.11673 3.23204 6.11673 3.23204 6.19829 3.23204C6.19829 3.23204 6.27984 3.14917 6.27984 3.0663C6.27984 2.98342 6.27985 2.90055 6.3614 2.81768C6.3614 2.7348 6.3614 2.56906 6.3614 2.40331C6.3614 2.23757 6.3614 2.15469 6.3614 1.98895C6.3614 1.90607 6.3614 1.8232 6.3614 1.74033C6.3614 1.65746 6.3614 1.57458 6.27984 1.57458C6.27984 1.49171 6.19829 1.49171 6.11673 1.40884C6.03517 1.32597 5.95362 1.32597 5.79051 1.24309C5.62739 1.16022 5.46428 1.07735 5.21961 1.07735C4.97494 0.994475 4.73027 0.994474 4.4856 0.911601C4.32249 0.911601 4.07782 0.828728 3.91471 0.828728V-3.16135e-07H2.93603V0.0828729Z" transform="translate(60.0605 36.3149)" fill="#578FFF"/>
<path id="Vector_2" d="M6.3614 6.13259C6.11673 5.88397 5.95362 5.71823 5.62739 5.55248C5.38272 5.38673 5.0565 5.30386 4.81183 5.13812C4.56716 5.05524 4.24093 4.8895 3.99626 4.80663C3.7516 4.72375 3.50693 4.64088 3.26226 4.47513C3.01759 4.39226 2.85448 4.22651 2.77292 4.06077C2.60981 3.89502 2.60981 3.72928 2.60981 3.56353C2.60981 3.39779 2.60981 3.31491 2.69136 3.14917C2.77292 3.0663 2.85448 2.90055 2.93603 2.81768C3.01759 2.7348 3.1807 2.65193 3.34381 2.65193C3.50693 2.56906 3.67004 2.56906 3.91471 2.56906C4.24093 2.56906 4.4856 2.56906 4.81183 2.65193C5.13805 2.7348 5.30117 2.81768 5.46428 2.90055C5.62739 2.98342 5.79051 3.0663 5.95362 3.14917C6.11673 3.23204 6.19829 3.23204 6.19829 3.23204C6.27985 3.23204 6.27984 3.23204 6.3614 3.23204C6.3614 3.23204 6.44296 3.14917 6.44296 3.06629C6.44296 2.98342 6.44296 2.90055 6.52451 2.81768C6.52451 2.7348 6.52451 2.56906 6.52451 2.40331C6.52451 2.23757 6.52451 2.15469 6.52451 1.98895C6.52451 1.90607 6.52451 1.8232 6.52451 1.74033C6.52451 1.65746 6.52451 1.57458 6.44296 1.57458C6.44296 1.49171 6.3614 1.49171 6.27984 1.40884C6.19829 1.32596 6.11673 1.32597 5.95362 1.24309C5.79051 1.16022 5.62739 1.07735 5.38272 1.07735C5.13806 0.994475 4.89338 0.994474 4.64872 0.911601C4.4856 0.911601 4.24093 0.82873 4.07782 0.82873V1.26454e-06H2.93603V0.82873C2.69136 0.82873 2.52825 0.9116 2.28358 0.994473C1.79424 1.16022 1.46802 1.32596 1.14179 1.57458C0.815564 1.8232 0.570895 2.1547 0.407782 2.48619C0.24467 2.81768 0.163112 3.23204 0.163112 3.6464C0.163112 4.06077 0.244669 4.47513 0.326226 4.72375C0.489339 5.05524 0.652452 5.30386 0.815565 5.46961C1.06023 5.71823 1.22335 5.88397 1.46802 6.04972C1.71268 6.21546 1.95735 6.29834 2.28358 6.46408C2.52825 6.54696 2.85447 6.7127 3.09914 6.79557C3.34381 6.87845 3.58848 6.96132 3.7516 7.12707C3.99627 7.20994 4.15938 7.37568 4.24093 7.54143C4.40405 7.70718 4.40405 7.87292 4.40405 8.03867C4.40405 8.20441 4.40405 8.37016 4.32249 8.5359C4.24093 8.70165 4.15938 8.78452 3.99626 8.86739C3.83315 8.95027 3.7516 9.03314 3.50693 9.03314C3.34381 9.11601 3.09914 9.11601 2.93603 9.11601C2.60981 9.11601 2.28358 9.03314 1.95735 8.95027C1.71268 8.8674 1.38646 8.78452 1.22335 8.70165C0.978677 8.61878 0.815564 8.5359 0.652451 8.45303C0.489338 8.37016 0.407782 8.28729 0.326226 8.28729C0.244669 8.28729 0.244669 8.28729 0.163112 8.28729C0.163112 8.28729 0.0815571 8.37016 0.0815571 8.45303C0.0815571 8.5359 3.11113e-07 8.61878 3.11113e-07 8.70165C3.11113e-07 8.78452 3.11113e-07 8.95027 3.11113e-07 9.19889C3.11113e-07 9.53038 6.19796e-07 9.69612 0.0815571 9.86187C0.0815571 10.0276 0.163113 10.1105 0.244669 10.1934C0.326225 10.2762 0.407781 10.3591 0.570894 10.442C0.734007 10.5249 0.897121 10.6077 1.14179 10.6906C1.38646 10.7735 1.63113 10.8563 1.95735 10.8563C2.20202 10.9392 2.44669 10.9392 2.77292 10.9392V11.7679H3.91471V10.9392C4.07782 10.9392 4.32249 10.8563 4.4856 10.7735C4.97494 10.6077 5.38272 10.442 5.70895 10.1934C6.03518 9.94474 6.3614 9.61325 6.52451 9.19889C6.68763 8.78452 6.85074 8.37016 6.85074 7.87292C6.85074 7.45856 6.76918 7.12706 6.68763 6.79557C6.76918 6.54695 6.60607 6.29834 6.3614 6.13259Z" transform="translate(43.748 45.4309)" fill="#578FFF"/>
<path id="Vector_3" d="M3.26226 3.16135e-07C3.1807 0.662983 3.01759 1.32597 2.85448 1.98895C2.85448 1.98895 2.85447 1.98895 2.93603 1.98895C8.15564 1.98895 12.3966 6.29834 12.3966 11.6022C12.3966 16.9061 8.15564 21.2155 2.93603 21.2155C1.95735 21.2155 0.978676 21.0497 0.163112 20.8011C0.163112 21.4641 0.0815577 22.1271 1.24445e-06 22.79C0.978678 23.0387 1.95735 23.2044 2.93603 23.2044C9.21588 23.2044 14.3539 17.9834 14.3539 11.6022C14.3539 5.38673 9.37899 0.248619 3.26226 3.16135e-07Z" transform="translate(59.8965 30.6797)" fill="#578FFF"/>
<path id="Vector_4" d="M11.4179 3.16135e-07C5.13806 3.16135e-07 3.11113e-07 5.22099 3.11113e-07 11.6022C3.11113e-07 17.9834 5.13806 23.2044 11.4179 23.2044C17.6977 23.2044 22.8358 17.9834 22.8358 11.6022C22.8358 5.22099 17.6977 3.16135e-07 11.4179 3.16135e-07ZM11.4179 21.2983C6.19829 21.2983 1.95735 16.9889 1.95735 11.6851C1.95735 6.38121 6.19829 2.07182 11.4179 2.07182C16.6375 2.07182 20.8784 6.38121 20.8784 11.6851C20.8784 16.9889 16.6375 21.2983 11.4179 21.2983Z" transform="translate(36 39.7954)" fill="#578FFF"/>
<path id="Vector_5" d="M11.4179 1.58067e-07C5.0565 1.58067e-07 3.11113e-07 5.22099 3.11113e-07 11.6022C3.11113e-07 12.1823 -1.57987e-07 12.6795 0.0815563 13.1768C0.163113 13.8398 0.326226 14.5028 0.570895 15.1657C0.815564 15.9116 1.14179 16.5746 1.46802 17.2376C2.03891 18.3149 2.85448 19.3094 3.67004 20.1381C3.7516 20.221 3.83315 20.3039 3.91471 20.3867C5.21961 19.9724 6.60607 19.7237 8.07409 19.7237C11.0101 19.7237 13.7015 20.6353 15.9035 22.2928C19.9813 20.4696 22.8358 16.4088 22.8358 11.6022C22.9174 5.22099 17.7793 1.58067e-07 11.4179 1.58067e-07ZM14.6802 14.5027C14.517 14.9171 14.1908 15.2486 13.8646 15.4972C13.5384 15.7458 13.1306 15.9945 12.6412 16.0773C12.4781 16.1602 12.2335 16.1602 12.0703 16.2431V17.0718H10.9286V16.2431C10.6839 16.2431 10.3577 16.2431 10.113 16.1602C9.78677 16.0773 9.5421 16.0773 9.29743 15.9945C9.05276 15.9116 8.88965 15.8287 8.72654 15.7458C8.56342 15.663 8.48187 15.5801 8.40031 15.4972C8.31875 15.4144 8.2372 15.3315 8.2372 15.1657C8.2372 15 8.15564 14.7514 8.15564 14.5027C8.15564 14.337 8.15564 14.1713 8.15564 14.0055C8.15564 13.9226 8.15564 13.7569 8.2372 13.7569C8.2372 13.674 8.31875 13.674 8.31875 13.5911C8.31875 13.5911 8.40031 13.5911 8.48187 13.5911C8.56342 13.5911 8.64498 13.674 8.80809 13.7569C8.97121 13.8398 9.13432 13.9226 9.37899 14.0055C9.62366 14.0884 9.86833 14.1713 10.113 14.2541C10.3577 14.337 10.6839 14.4199 11.0917 14.4199C11.3363 14.4199 11.4995 14.4199 11.6626 14.337C11.8257 14.2541 11.9888 14.2541 12.1519 14.1713C12.315 14.0884 12.3966 14.0055 12.4781 13.8398C12.5597 13.674 12.5597 13.5083 12.5597 13.3425C12.5597 13.1768 12.4781 12.9282 12.3966 12.8453C12.2335 12.6795 12.0704 12.5967 11.9072 12.4309C11.6626 12.3481 11.4995 12.1823 11.2548 12.0994C11.0101 12.0166 10.7654 11.9337 10.4392 11.7679C10.1946 11.6851 9.86833 11.5193 9.62366 11.3536C9.37899 11.1878 9.13432 11.0221 8.97121 10.7735C8.72654 10.5249 8.56342 10.2762 8.48187 10.0276C8.31875 9.69612 8.31875 9.36463 8.31875 8.95027C8.31875 8.5359 8.40031 8.12154 8.56342 7.79005C8.72654 7.45856 8.97121 7.12707 9.29743 6.87845C9.62366 6.62983 10.0314 6.38121 10.4392 6.29834C10.6023 6.21546 10.847 6.21546 11.0917 6.13259V5.30386H12.2335V6.13259C12.3966 6.13259 12.6412 6.13259 12.8044 6.21546C13.049 6.21546 13.2937 6.29834 13.5384 6.38121C13.783 6.46408 13.9461 6.54696 14.1093 6.54696C14.2724 6.62983 14.3539 6.7127 14.4355 6.7127C14.517 6.79557 14.517 6.79557 14.5986 6.87845C14.5986 6.96132 14.6802 6.96132 14.6802 7.04419C14.6802 7.12707 14.6802 7.20994 14.6802 7.29281C14.6802 7.37568 14.6802 7.54143 14.6802 7.70718C14.6802 7.87292 14.6802 8.03867 14.6802 8.12154C14.6802 8.20441 14.6802 8.37016 14.5986 8.37016C14.5986 8.45303 14.517 8.45303 14.517 8.5359C14.517 8.5359 14.4355 8.5359 14.3539 8.5359C14.2724 8.5359 14.1908 8.5359 14.1093 8.45303C13.9461 8.37016 13.783 8.28728 13.6199 8.20441C13.4568 8.12154 13.2121 8.03867 12.9675 7.95579C12.7228 7.87292 12.3966 7.87292 12.0703 7.87292C11.8257 7.87292 11.6626 7.87292 11.4995 7.95579C11.3363 8.03867 11.1732 8.03867 11.0917 8.12154C11.0101 8.20441 10.9286 8.28728 10.847 8.45303C10.7654 8.5359 10.7654 8.70165 10.7654 8.8674C10.7654 9.11601 10.847 9.28176 10.9286 9.36463C11.0917 9.53038 11.2548 9.61325 11.4179 9.779C11.6626 9.86187 11.8257 10.0276 12.1519 10.1105C12.3966 10.1934 12.7228 10.2762 12.9675 10.442C13.2121 10.5249 13.5384 10.6906 13.783 10.8563C14.0277 11.0221 14.2724 11.1878 14.517 11.4365C14.7617 11.6851 14.9248 11.9337 15.0064 12.1823C15.1695 12.5138 15.1695 12.8453 15.1695 13.2597C14.9248 13.674 14.8433 14.1713 14.6802 14.5027Z" transform="translate(39.2637 18)" fill="#578FFF"/>
</g>
</g>
</g>
<defs>
<filter id="filter0_d" x="0" y="0" width="111" height="111" filterUnits="userSpaceOnUse" color-interpolation-filters="sRGB">
<feFlood flood-opacity="0" result="BackgroundImageFix"/>
<feColorMatrix in="SourceAlpha" type="matrix" values="0 0 0 0 0 0 0 0 0 0 0 0 0 0 0 0 0 0 255 0"/>
<feOffset dy="15"/>
<feGaussianBlur stdDeviation="7.5"/>
<feColorMatrix type="matrix" values="0 0 0 0 0 0 0 0 0 0 0 0 0 0 0 0 0 0 0.07 0"/>
<feBlend mode="normal" in2="BackgroundImageFix" result="effect1_dropShadow"/>
<feBlend mode="normal" in="SourceGraphic" in2="effect1_dropShadow" result="shape"/>
</filter>
</defs>
</svg>
