<svg width="111" height="111" viewBox="0 0 111 111" fill="none" xmlns="http://www.w3.org/2000/svg">
<g id="Group 17">
<g id="Ellipse" filter="url(#filter0_d)">
<circle cx="40.5" cy="40.5" r="40.5" transform="translate(15)" fill="#1B2130"/>
</g>
<g id="noun_700398_cc">
<path id="Vector" d="M44 0H4C1.79413 0 0 1.78094 0 3.97059C0 5.92888 1.43627 7.55629 3.31787 7.87924L8 26.4706H40.0821L44.7675 7.866C46.6069 7.50918 48 5.89924 48 3.97059C48 1.78094 46.2059 0 44 0ZM7.7904 9.26471H13.8848L14.5515 14.5588H9.12373L7.7904 9.26471ZM11.1237 22.5L9.7904 17.2059H14.8848L15.5515 22.5H11.1237ZM22.7077 22.5H18.2389L17.5723 17.2059H22.7083V22.5H22.7077ZM22.7077 14.5588H17.2384L16.5717 9.26471H22.7077V14.5588ZM29.8437 22.5H25.3744V17.2059H30.5104L29.8437 22.5ZM30.8437 14.5588H25.3744V9.26471H31.5099L30.8437 14.5588ZM36.9589 22.5H32.5312L33.1979 17.2059H38.2923L36.9589 22.5ZM38.9589 14.5588H33.5307L34.1973 9.26471H40.2923L38.9589 14.5588ZM44 5.29412H4C3.26453 5.29412 2.66667 4.70012 2.66667 3.97059C2.66667 3.24106 3.26453 2.64706 4 2.64706H44C44.7355 2.64706 45.3333 3.24106 45.3333 3.97059C45.3333 4.70012 44.7355 5.29412 44 5.29412Z" transform="translate(32 36.5293)" fill="#578FFF"/>
<g id="Vector_2" transform="translate(49.4004 17)">
<mask id="path-3-outside-1" maskUnits="userSpaceOnUse" x="-1" y="-1" width="15" height="19" fill="black">
<rect fill="white" x="-1" y="-1" width="15" height="19"/>
<path d="M12.484 11.2508C12.878 10.8597 12.878 10.2225 12.484 9.83144L12.018 9.36891C11.6281 8.98187 10.999 8.98185 10.6091 9.36885L9.63724 10.3334C9.00619 10.9597 7.9328 10.5127 7.9328 9.62366V1C7.9328 0.447716 7.48508 0 6.9328 0H6.26613C5.71385 0 5.26613 0.447715 5.26613 1V9.62366C5.26613 10.5127 4.19274 10.9597 3.5617 10.3334L2.58983 9.36885C2.1999 8.98185 1.57079 8.98187 1.1809 9.36891L0.714939 9.83144C0.320941 10.2225 0.320928 10.8597 0.71491 11.2508L5.89495 16.3932C6.28487 16.7803 6.91406 16.7803 7.30399 16.3932L12.484 11.2508Z"/>
</mask>
<path d="M12.484 11.2508C12.878 10.8597 12.878 10.2225 12.484 9.83144L12.018 9.36891C11.6281 8.98187 10.999 8.98185 10.6091 9.36885L9.63724 10.3334C9.00619 10.9597 7.9328 10.5127 7.9328 9.62366V1C7.9328 0.447716 7.48508 0 6.9328 0H6.26613C5.71385 0 5.26613 0.447715 5.26613 1V9.62366C5.26613 10.5127 4.19274 10.9597 3.5617 10.3334L2.58983 9.36885C2.1999 8.98185 1.57079 8.98187 1.1809 9.36891L0.714939 9.83144C0.320941 10.2225 0.320928 10.8597 0.71491 11.2508L5.89495 16.3932C6.28487 16.7803 6.91406 16.7803 7.30399 16.3932L12.484 11.2508Z" stroke="#578FFF" stroke-width="2" mask="url(#path-3-outside-1)"/>
</g>
</g>
</g>
<defs>
<filter id="filter0_d" x="0" y="0" width="111" height="111" filterUnits="userSpaceOnUse" color-interpolation-filters="sRGB">
<feFlood flood-opacity="0" result="BackgroundImageFix"/>
<feColorMatrix in="SourceAlpha" type="matrix" values="0 0 0 0 0 0 0 0 0 0 0 0 0 0 0 0 0 0 255 0"/>
<feOffset dy="15"/>
<feGaussianBlur stdDeviation="7.5"/>
<feColorMatrix type="matrix" values="0 0 0 0 0 0 0 0 0 0 0 0 0 0 0 0 0 0 0.07 0"/>
<feBlend mode="normal" in2="BackgroundImageFix" result="effect1_dropShadow"/>
<feBlend mode="normal" in="SourceGraphic" in2="effect1_dropShadow" result="shape"/>
</filter>
</defs>
</svg>
