<svg width="111" height="111" viewBox="0 0 111 111" fill="none" xmlns="http://www.w3.org/2000/svg">
<g id="Group 20">
<g id="Group 17.2">
<g id="Ellipse" filter="url(#filter0_d)">
<circle cx="40.5" cy="40.5" r="40.5" transform="translate(15)" fill="#1B2130"/>
</g>
</g>
<g id="noun_7005_cc">
<path id="Vector" d="M13.9764 -1.84011e-08C13.0517 -1.84011e-08 9.90901 0.0434135 6.94868 0.577883C6.58546 2.15235 4.99941 7.45122 0.0729355 7.83133C-0.0196802 9.00253 -0.146061 12.0521 0.557239 15.8218C2.32996 16.2454 7.39198 17.2829 14.3512 17.2545V0.00289401C14.3107 0.00289401 14.1881 -1.84011e-08 13.9764 -1.84011e-08Z" transform="translate(41.2285 22.9731)" fill="#578FFF"/>
<path id="Vector_2" d="M-8.39089e-07 19.1845C9.32958 14.2073 12.6715 6.14254 13.8065 7.50764e-07C8.74639 1.07376 4.0529 1.45387 0.000483109 1.46738V19.1845H-8.39089e-07Z" transform="translate(55.5801 38.7603)" fill="#578FFF"/>
<path id="Vector_3" d="M36.9839 9.73515C29.8047 9.73515 28.4088 0.826683 28.4088 0.826683C23.7355 -0.0980267 18.5804 0.00327177 18.5804 0.00327177C18.5804 0.00327177 13.4258 -0.0980267 8.75205 0.826683C8.75205 0.826683 7.35558 9.73515 0.176419 9.73515C0.176419 9.73515 -3.09938 33.7265 18.5804 45C40.2602 33.7265 36.9839 9.73515 36.9839 9.73515ZM18.8664 41.1999L18.5799 41.3489L18.2924 41.1999C0.622615 32.0102 3.09237 12.3168 3.12083 12.119L3.19415 11.5812H3.73633C8.9339 11.5812 10.0279 4.9886 10.0395 4.92203L10.1061 4.4932L10.5325 4.40734C13.6279 3.79521 16.9297 3.73105 18.2056 3.73105C18.4342 3.73105 18.5688 3.73298 18.5891 3.73298C18.5905 3.73298 18.7256 3.73105 18.9542 3.73105C20.2306 3.73105 23.5305 3.79569 26.6273 4.40734L27.0528 4.4932L27.1213 4.92203C27.1652 5.19312 28.2414 11.5812 33.424 11.5812H33.9667L34.0395 12.119C34.067 12.3168 36.5377 32.0102 18.8664 41.1999Z" transform="translate(37 18)" fill="#578FFF"/>
</g>
</g>
<defs>
<filter id="filter0_d" x="0" y="0" width="111" height="111" filterUnits="userSpaceOnUse" color-interpolation-filters="sRGB">
<feFlood flood-opacity="0" result="BackgroundImageFix"/>
<feColorMatrix in="SourceAlpha" type="matrix" values="0 0 0 0 0 0 0 0 0 0 0 0 0 0 0 0 0 0 255 0"/>
<feOffset dy="15"/>
<feGaussianBlur stdDeviation="7.5"/>
<feColorMatrix type="matrix" values="0 0 0 0 0 0 0 0 0 0 0 0 0 0 0 0 0 0 0.07 0"/>
<feBlend mode="normal" in2="BackgroundImageFix" result="effect1_dropShadow"/>
<feBlend mode="normal" in="SourceGraphic" in2="effect1_dropShadow" result="shape"/>
</filter>
</defs>
</svg>
