<?xml version="1.0" standalone="no"?>
<!DOCTYPE svg PUBLIC "-//W3C//DTD SVG 20010904//EN"
 "http://www.w3.org/TR/2001/REC-SVG-20010904/DTD/svg10.dtd">
<svg version="1.0" xmlns="http://www.w3.org/2000/svg"
 width="1024.000000pt" height="1024.000000pt" viewBox="0 0 1024.000000 1024.000000"
 preserveAspectRatio="xMidYMid meet">
<metadata>
Created by potrace 1.11, written by Peter Selinger 2001-2013
</metadata>
<g transform="translate(0.000000,1024.000000) scale(0.100000,-0.100000)"
fill="#000000" stroke="none">
<path d="M410 9223 c-2 -483 2 -858 9 -862 5 -3 51 -5 103 -3 51 1 98 2 103 2
13 0 3815 0 3835 0 8 0 872 0 1920 0 1048 0 1912 0 1920 0 8 0 352 -1 763 -2
412 -2 753 -1 758 2 7 5 11 355 9 818 l0 102 -4710 0 -4710 0 0 -57z"/>
<path d="M2367 7743 c-4 -3 -21 -6 -39 -5 -34 1 -43 -7 -133 -112 -22 -26 -53
-61 -70 -79 -27 -29 -99 -111 -155 -177 -12 -14 -36 -41 -53 -60 -28 -31 -107
-121 -202 -229 -16 -19 -37 -41 -45 -50 -9 -9 -45 -50 -80 -91 -36 -41 -67
-77 -70 -80 -3 -3 -36 -41 -75 -85 -38 -44 -72 -82 -75 -85 -3 -3 -55 -61
-115 -130 -60 -69 -114 -130 -119 -136 -6 -6 -31 -35 -56 -64 -25 -29 -52 -60
-61 -69 -9 -9 -67 -74 -130 -146 -62 -71 -118 -135 -124 -141 -5 -6 -37 -42
-70 -79 -33 -38 -69 -79 -80 -91 -11 -12 -42 -48 -70 -80 -27 -32 -61 -70 -75
-85 -24 -27 -91 -103 -127 -145 -22 -26 -134 -153 -148 -168 -12 -13 -161
-183 -182 -207 -12 -15 -11 -20 11 -42 14 -15 26 -31 26 -37 0 -5 4 -10 8 -10
5 0 32 -28 60 -62 28 -35 61 -75 74 -90 13 -14 39 -45 57 -68 19 -24 40 -48
45 -54 6 -6 58 -67 116 -136 57 -69 107 -127 110 -130 3 -3 27 -32 55 -65 27
-33 52 -62 55 -65 3 -3 24 -27 45 -55 22 -27 43 -52 46 -55 4 -3 23 -25 44
-50 59 -72 118 -141 141 -164 11 -12 25 -29 30 -38 9 -15 87 -107 129 -153 11
-12 32 -37 46 -56 24 -31 49 -61 97 -114 10 -11 38 -45 63 -75 24 -30 51 -62
59 -71 14 -14 52 -60 128 -150 15 -18 39 -45 54 -61 14 -15 25 -28 22 -28 -4
0 32 -43 66 -80 8 -8 47 -54 85 -100 65 -78 105 -126 130 -154 6 -6 57 -67
115 -136 57 -69 107 -127 110 -130 3 -3 27 -32 55 -65 27 -33 60 -71 73 -85
l22 -25 600 0 c330 0 600 2 600 5 -1 7 -62 83 -125 154 -44 50 -86 99 -120
140 -22 27 -52 62 -67 78 -16 16 -28 33 -28 38 0 4 -3 10 -8 12 -4 2 -32 32
-62 68 -30 36 -57 67 -60 70 -3 3 -30 34 -59 70 -30 36 -60 70 -65 75 -6 6
-29 32 -51 59 -21 27 -48 60 -60 73 -11 12 -34 39 -52 60 -17 21 -42 49 -53
63 -12 14 -40 47 -63 75 -96 113 -172 200 -179 203 -5 2 -8 8 -8 12 0 5 -12
22 -27 38 -16 16 -46 50 -68 77 -63 76 -287 339 -294 345 -3 3 -35 41 -71 85
-36 44 -74 90 -85 102 -33 35 -109 125 -124 147 -8 11 -22 27 -30 36 -9 9 -34
38 -56 64 -22 27 -53 64 -70 82 -16 18 -40 46 -52 61 -12 15 -34 42 -48 58
-15 17 -45 52 -68 80 -23 27 -52 60 -64 73 -13 12 -23 25 -23 28 0 3 -12 16
-26 31 -28 28 -28 27 31 90 11 11 38 42 60 68 22 26 54 61 70 80 29 32 116
129 205 230 151 172 176 200 190 215 8 9 62 70 120 135 58 66 107 122 110 125
3 3 37 41 75 85 78 89 125 142 170 191 17 18 46 51 65 74 19 23 49 56 65 74
17 17 46 50 65 72 19 22 67 75 105 119 91 104 132 150 175 196 19 20 45 50 57
66 12 16 37 45 55 64 28 29 118 130 177 197 17 21 133 151 166 188 45 51 141
158 158 178 61 69 134 151 145 162 6 7 12 15 12 18 0 4 -111 8 -170 7 -8 0
-62 0 -120 0 -58 1 -112 1 -120 0 -8 0 -62 0 -120 0 -58 1 -112 1 -120 0 -8 0
-62 0 -120 0 -58 1 -112 1 -120 0 -51 -2 -224 1 -230 4 -4 3 -10 2 -13 -2z"/>
<path d="M6980 7743 c0 -4 -32 -7 -71 -5 -62 3 -70 1 -58 -11 8 -8 32 -36 54
-62 68 -83 168 -200 174 -205 3 -3 26 -30 50 -60 24 -30 53 -64 63 -75 10 -11
52 -60 94 -110 42 -49 93 -110 115 -135 82 -96 152 -178 178 -210 11 -14 26
-32 33 -40 7 -8 80 -93 161 -190 82 -96 168 -197 191 -225 24 -27 76 -88 115
-135 40 -47 94 -109 119 -139 26 -30 53 -62 60 -73 8 -10 23 -29 35 -41 12
-12 38 -42 57 -66 19 -24 51 -62 72 -85 20 -22 67 -77 105 -122 37 -44 88
-105 113 -134 25 -29 50 -58 55 -64 6 -6 46 -54 90 -106 44 -52 84 -100 90
-106 5 -6 28 -33 50 -59 22 -27 45 -53 50 -59 6 -6 22 -26 37 -44 l27 -33 -27
-31 c-15 -17 -32 -36 -38 -42 -5 -6 -39 -45 -74 -86 -36 -41 -77 -87 -92 -102
-15 -14 -28 -29 -28 -32 0 -3 -10 -15 -22 -28 -13 -13 -54 -58 -91 -100 -95
-107 -112 -126 -160 -182 -23 -27 -49 -56 -57 -65 -9 -9 -52 -56 -95 -106 -44
-49 -84 -95 -90 -101 -5 -6 -35 -39 -65 -74 -30 -34 -64 -72 -75 -84 -11 -12
-45 -50 -75 -85 -30 -35 -68 -78 -85 -96 -32 -34 -120 -133 -155 -175 -20 -23
-105 -119 -177 -199 -17 -20 -44 -50 -60 -67 -23 -27 -83 -95 -153 -174 -28
-32 -145 -163 -165 -186 -11 -12 -43 -48 -71 -80 -29 -33 -62 -71 -75 -85 -97
-108 -151 -169 -175 -197 -16 -19 -40 -46 -54 -62 -94 -104 -131 -149 -128
-157 1 -4 271 -8 598 -8 l595 0 30 34 c16 19 41 47 55 62 24 25 111 124 153
172 86 102 104 122 118 136 16 15 31 33 164 186 33 38 67 76 75 85 8 9 44 49
80 90 36 41 70 80 75 86 6 6 35 39 65 74 30 34 66 75 80 90 14 15 52 58 85 96
33 37 80 91 105 119 25 28 74 84 110 125 36 41 73 82 83 92 9 10 17 20 17 22
0 3 12 17 28 33 15 16 41 44 57 63 83 96 163 187 190 215 17 18 45 50 63 72
18 22 47 56 65 75 18 19 47 52 66 74 45 52 172 196 185 210 6 6 31 35 56 64
25 29 54 62 65 75 79 87 157 175 181 205 16 19 33 38 37 41 8 6 -26 50 -158
204 -29 33 -63 73 -76 89 -13 16 -28 34 -34 40 -5 6 -32 38 -60 71 -67 80 -80
96 -105 125 -12 14 -38 45 -58 69 -21 25 -44 52 -52 61 -8 8 -35 40 -60 70
-25 30 -49 60 -55 66 -18 21 -92 108 -185 219 -117 140 -172 205 -185 219 -5
6 -44 52 -85 101 -41 50 -77 92 -80 95 -5 4 -335 396 -401 475 -9 11 -34 41
-55 66 -22 25 -59 69 -84 99 -25 30 -54 64 -65 76 -11 13 -36 42 -55 65 -19
23 -40 47 -45 53 -6 6 -33 38 -60 71 -28 33 -52 62 -55 65 -3 3 -22 25 -42 50
-20 25 -48 59 -63 75 -14 17 -35 40 -45 52 l-19 22 -524 -1 c-289 0 -530 3
-536 6 -6 4 -11 4 -11 -1z"/>
<path d="M5567 5603 c-3 -7 -2 -864 2 -903 1 -13 142 -15 1212 -13 666 0 1213
4 1216 7 9 9 9 96 0 96 -4 0 -5 5 -1 12 11 18 11 78 1 78 -6 0 -6 5 0 13 5 6
8 30 6 52 -2 22 -3 45 -3 50 0 35 0 273 0 285 0 8 1 36 3 63 1 26 -1 47 -6 47
-4 0 -5 5 -1 12 10 16 11 118 1 118 -4 0 -5 6 0 13 10 16 10 38 0 60 -7 16
-75 17 -1217 17 -665 0 -1211 -3 -1213 -7z"/>
<path d="M2240 5586 c-5 -5 -5 -16 1 -28 5 -10 6 -18 2 -18 -10 0 -9 -242 1
-258 4 -7 4 -12 -1 -12 -4 0 -8 -22 -8 -50 0 -27 4 -50 8 -50 5 0 5 -6 0 -12
-10 -18 -10 -100 0 -115 5 -7 6 -13 1 -13 -5 0 -9 -22 -9 -50 0 -27 4 -50 9
-50 5 0 4 -6 0 -12 -11 -16 -10 -180 1 -198 5 -8 4 -11 -2 -7 -6 4 -8 -3 -6
-16 l5 -23 1211 2 c667 0 1214 2 1217 3 3 0 5 207 5 459 l0 457 -1213 0 c-724
0 -1216 -3 -1222 -9z"/>
<path d="M410 1700 c0 -115 0 -321 -1 -457 l0 -248 4711 -3 4710 -2 0 122 c1
112 0 756 0 786 0 9 -949 12 -4710 12 l-4710 0 0 -210z"/>
</g>
</svg>
