<svg xmlns="http://www.w3.org/2000/svg" width="142" height="95" viewBox="0 0 142 95"><path fill="#292929" d="M0 0h142v87H79l-7.966 8L63 87H0z"/><path fill="#fff" d="M26.964 38.35zm11.44 0c1.344 0 2.247-.405 2.708-1.226.462-.813.693-2.428.693-4.835 0-2.392-.235-4.003-.705-4.824-.47-.826-1.368-1.24-2.696-1.24h-11.44v12.126zm58.171 16.178h10.979c.713 0 1.28-.241 1.7-.728.421-.488.631-1.263.631-2.32 0-1.058-.206-1.835-.618-2.33-.414-.499-.992-.745-1.738-.745H96.575zm-2.478 8.23V46.18h13.554c1.473 0 2.627.434 3.462 1.312.833.875 1.25 2.204 1.25 3.987 0 1.784-.425 3.11-1.276 3.978-.85.868-2.028 1.299-3.533 1.299H96.575v6.002h-2.478zm-13.959-1.983c3.82 0 6.071-.283 6.752-.847.68-.57 1.02-2.382 1.02-5.435 0-3.07-.336-4.89-1.007-5.457-.672-.567-2.928-.85-6.765-.85-3.838 0-6.091.283-6.764.85-.672.568-1.009 2.387-1.009 5.457 0 3.038.34 4.845 1.021 5.422.679.573 2.93.86 6.752.86zm0 2.225c-3.45 0-5.862-.221-7.239-.665-1.376-.444-2.25-1.286-2.623-2.53-.258-.855-.389-2.62-.389-5.3 0-2.728.122-4.493.366-5.3.372-1.26 1.254-2.114 2.646-2.566 1.394-.451 3.806-.677 7.24-.677 3.448 0 5.857.22 7.224.665 1.368.444 2.246 1.296 2.636 2.553.259.855.389 2.63.389 5.325 0 2.71-.123 4.471-.364 5.277-.373 1.257-1.249 2.11-2.624 2.553-1.377.444-3.796.665-7.262.665zm-33.38-16.82h2.478v7.042h14.282V46.18h2.477v16.578h-2.477V55.45H49.236v7.308h-2.478zM33.74 53.49c3.87 0 6.306.225 7.31.676 1.247.565 1.87 1.92 1.87 4.065 0 2.036-.752 3.365-2.259 3.993-1.23.519-3.723.776-7.48.776-4.065 0-6.68-.445-7.846-1.33-.89-.68-1.335-2.155-1.335-4.429h2.478c0 1.566.347 2.546 1.043 2.941s2.591.593 5.683.593c3.029 0 4.993-.146 5.891-.437.9-.29 1.349-.993 1.349-2.107 0-1.129-.336-1.83-1.008-2.104-.673-.275-2.57-.41-5.696-.41-3.822 0-6.388-.462-7.701-1.381-1.004-.693-1.505-1.945-1.505-3.752 0-1.953.603-3.215 1.81-3.788 1.206-.572 3.67-.86 7.396-.86 3.707 0 6.145.445 7.31 1.332.924.711 1.384 2.097 1.384 4.163h-2.428c0-1.432-.365-2.33-1.093-2.705-.73-.377-2.453-.562-5.173-.562-2.332 0-3.765.034-4.3.098-1.62.192-2.43.962-2.43 2.31 0 1.134.439 1.904 1.313 2.306.874.409 2.68.611 5.417.611zM118 40.577h-2.477V24H118zm-11.61-5.905l-4.518-8.69h-.632l-4.517 8.69zM103.475 24l8.744 16.578h-2.793l-1.968-3.677H95.605l-1.943 3.677h-2.793L99.613 24zM72.81 33.172v5.179h10.833c.94 0 1.647-.236 2.125-.714.478-.474.717-1.1.717-1.875 0-.758-.243-1.378-.73-1.864-.485-.485-1.19-.726-2.112-.726zm13.068-4.465c0-.762-.195-1.348-.583-1.75-.47-.488-1.211-.732-2.231-.732H72.81v4.72h10.254c1.053 0 1.781-.18 2.194-.547.413-.364.62-.93.62-1.691zm3.084 7.031c0 1.63-.449 2.844-1.348 3.642-.9.798-2.214 1.198-3.947 1.198H70.332V24h12.752c1.7 0 3.004.403 3.91 1.214.908.81 1.361 1.971 1.361 3.498 0 1.665-.623 2.733-1.87 3.203.712.24 1.279.644 1.7 1.209.518.695.777 1.565.777 2.614zm-38.76.02c0 1.292.361 2.09 1.082 2.388.72.3 2.635.449 5.744.449 3.142 0 5.068-.149 5.78-.45.713-.297 1.07-1.095 1.07-2.386V24h2.477v11.754c0 2.278-.454 3.68-1.36 4.195-1.004.58-3.66.87-7.967.87-4.29 0-6.914-.274-7.87-.82-.955-.55-1.433-1.967-1.433-4.245V24h2.478zM24.488 24h13.942c2.056 0 3.456.377 4.202 1.137 1.1 1.134 1.65 3.518 1.65 7.152 0 3.618-.55 5.995-1.65 7.127-.746.775-2.146 1.162-4.202 1.162H24.487z"/></svg>