<svg xmlns="http://www.w3.org/2000/svg" width="40" height="25" viewBox="0 0 40 25"><path fill="#f8f8f8" d="M40 23.406A1.58 1.58 0 0 1 38.405 25H1.595A1.58 1.58 0 0 1 0 23.406V1.594A1.58 1.58 0 0 1 1.595 0h36.81A1.58 1.58 0 0 1 40 1.594z"/><path fill="#ec1c2e" d="M24.761 19.68l.37-.01.366-.028.359-.045.354-.063.349-.08.342-.097.333-.113.328-.13.318-.144.31-.158.301-.173.29-.188.283-.2.272-.213.262-.226.25-.239.235-.25.227-.262.215-.271.2-.28.187-.293.172-.302.16-.31.144-.318.128-.328.113-.332.097-.342.08-.347.064-.357.045-.358.028-.366.01-.37-.01-.368-.028-.364-.045-.356-.064-.354-.08-.344-.097-.34-.113-.333-.128-.325-.144-.316-.16-.31-.172-.3-.186-.292-.201-.28-.215-.272-.227-.26-.235-.25-.25-.235-.262-.227-.272-.212-.282-.2-.29-.187-.303-.172-.309-.16-.318-.145-.328-.127-.333-.113-.342-.097-.35-.08-.353-.064-.359-.045-.365-.028-.371-.01-.37.01-.366.028-.358.045-.355.064-.349.08-.34.097-.334.113-.326.127-.318.144-.31.161-.3.172-.292.186-.28.2-.272.213-.259.227-.248.236-.238.25-.227.26-.212.27-.2.281-.187.293-.172.3-.158.309-.142.316-.13.325-.113.333-.094.34-.08.344-.064.354-.045.356-.029.364-.009.368.01.37.028.366.045.358.063.357.08.347.095.342.113.332.13.328.142.318.158.31.172.302.187.292.2.281.212.271.227.262.238.25.248.239.26.226.27.212.281.201.293.188.3.173.309.158.318.144.326.13.335.113.34.097.348.08.355.063.358.045.366.029z"/><path fill="#0084c4" d="M15.24 19.68l.37-.01.365-.028.359-.045.354-.063.349-.08.34-.097.335-.113.325-.13.319-.144.309-.158.3-.173.292-.188.28-.2.272-.213.26-.226.25-.239.236-.25.226-.262.213-.271.2-.28.186-.293.173-.302.158-.31.143-.318.128-.328.113-.332.095-.342.08-.347.063-.357.045-.358.028-.366.01-.37-.01-.368-.028-.364-.045-.356-.063-.354-.08-.344-.095-.34-.113-.333-.128-.325-.143-.316-.158-.31-.173-.3-.186-.292-.2-.28-.213-.272-.226-.26-.237-.25-.25-.235-.26-.227-.27-.212-.281-.2-.293-.187-.3-.172-.308-.16-.319-.145-.325-.127-.335-.113-.34-.097-.35-.08-.353-.064-.359-.045-.366-.028-.37-.01-.37.01-.366.028-.359.045-.354.064-.349.08-.342.097-.333.113-.327.127-.319.144-.309.161-.302.172-.29.186-.283.2-.272.213-.262.227-.247.236-.238.25-.227.26-.214.27-.201.281-.187.293-.172.3-.16.309-.144.316-.127.325-.114.333-.096.34-.08.344-.064.354-.045.356-.029.364-.009.368.01.37.028.366.045.358.063.357.08.347.097.342.114.332.127.328.144.318.16.31.172.302.187.292.2.281.215.271.227.262.238.25.247.239.262.226.272.212.283.201.29.188.302.173.31.158.318.144.327.13.333.113.342.097.35.08.353.063.359.045.366.029z"/><path fill="#ec1c2e" d="M19.116 8.056h3.64v-.401h-3.289z"/><path fill="#ec1c2e" d="M18.544 8.905h4.212v-.398H18.8z"/><path fill="#ec1c2e" d="M18.117 9.769h4.639v-.401h-4.443z"/><path fill="#ec1c2e" d="M17.84 10.618h4.916v-.399h-4.794z"/><path fill="#ec1c2e" d="M17.657 11.47h5.099v-.401H17.73z"/><path fill="#ec1c2e" d="M17.62 13.119h5.136v-.401h-5.172z"/><path fill="#ec1c2e" d="M17.743 14.018h5.013v-.401h-5.087z"/><path fill="#ec1c2e" d="M17.986 14.747h4.77v-.401h-4.893z"/><path fill="#ec1c2e" d="M18.349 15.634h4.407v-.401h-4.6z"/><path fill="#ec1c2e" d="M18.861 16.533h3.895v-.401h-4.164z"/><path fill="#ec1c2e" d="M19.502 17.396h3.218v-.4h-3.57z"/><path fill="#ec1c2e" d="M30.77 16.896l.022-.064.035-.059.045-.051.052-.043.059-.033.063-.021.069-.007.07.007.067.021.058.033.052.043.043.051.033.06.021.063h-.073l-.014-.044-.026-.05-.033-.043-.04-.033-.048-.026-.054-.016-.056-.005-.057.005-.054.016-.047.026-.043.033-.033.043-.026.05-.014.044z"/><path fill="#ec1c2e" d="M30.992 16.896v-.085h.135l.03.002.026.003.024.007.018.01.015.011.012.014.007.017.002.021H31.2l-.003-.011-.005-.01-.007-.01-.009-.007-.012-.004-.011-.003-.012-.002h-.088v.047z"/><path fill="#ec1c2e" d="M30.766 16.958l.004-.06v-.002h.071l-.002.012-.005.05z"/><path fill="#ec1c2e" d="M30.992 16.958v-.062h.061v.05H31.155l.014-.003.012-.004.007-.005.007-.01.005-.011v-.017h.061l-.002.021-.005.02-.007.013-.007.008z"/><path fill="#ec1c2e" d="M31.393 16.958l-.005-.05-.002-.012h.073v.003l.007.059z"/><path fill="#ec1c2e" d="M30.766 16.958l-.003.011.007.07.022.067.035.057.045.052.052.04.058.03.065.02.068.006.07-.007.067-.018.058-.031.052-.04.043-.052.033-.057.021-.066.007-.071v-.011h-.073v.011l-.005.062-.016.056-.026.05-.033.042-.04.036-.048.026-.054.016-.056.005-.057-.005-.055-.016-.047-.026-.042-.036-.033-.042-.026-.05-.016-.056-.005-.062v-.011z"/><path fill="#ec1c2e" d="M30.992 16.958v.146h.061v-.12h.062l.073.12h.061l-.087-.12.02-.003.022-.002.017-.007.014-.01.005-.004z"/><path fill="#fff" d="M23.206 11.883l-.047-.003-.047-.004-.043-.008-.042-.004-.042-.007-.043-.007-.045-.007-.047-.007-.049-.006-.052-.004-.06-.005-.063-.002h-.07l-.079.002-.087.005-.094.007-.069.01-.063.014-.06.019-.051.021-.047.026-.043.028-.036.033-.027.033-.022.038-.014.04-.007.04v.043l.01.044.016.045.026.045.033.045.068.061.08.05.095.042.101.036.106.035.111.036.114.04.108.047.102.057.096.068.085.087.071.104.054.127.036.152.012.179-.012.212-.026.158-.043.142-.054.127-.069.113-.08.1-.087.084-.097.073-.103.064-.11.052-.112.042-.116.036-.116.026-.115.019-.114.011-.107.008-.107.002h-.147l-.131-.002-.12-.003-.111-.002-.102-.005-.09-.005-.084-.006-.076-.01-.07-.01-.067-.011-.062-.012-.06-.017-.057-.016-.057-.017-.056-.021-.06-.021.147-.74.033.006.04.012.05.012.054.014.063.012.071.016.076.014.08.014.085.012.09.012.092.01.096.009.097.005.1.002h.099l.1-.005.095-.016.078-.026.059-.038.047-.042.035-.05.026-.051.022-.053.014-.051.007-.055-.002-.047-.012-.045-.02-.038-.025-.037-.033-.033-.04-.031-.045-.029-.05-.025-.054-.026-.059-.026-.062-.024-.06-.023-.067-.026-.066-.026-.068-.029-.066-.028-.066-.03-.066-.036-.064-.038-.061-.04-.057-.045-.054-.052-.05-.054-.044-.061-.04-.066-.034-.074-.028-.077-.019-.088-.012-.094-.002-.104.007-.11.007-.07.01-.065.01-.063.013-.062.014-.06.017-.058.021-.054.021-.054.026-.05.026-.05.03-.045.034-.044.035-.043.038-.04.04-.038.045-.035.047-.033.05-.03.054-.029.057-.029.058-.023.064-.024.067-.018.07-.02.076-.016.077-.014.08-.012.086-.01.089-.006.094-.005.098-.005h.225l.114.002.102.003.094.005.082.004.076.005.068.007.06.005.054.007.047.007.045.005.037.007.034.005.03.004.028.005.026.002z"/><path fill="none" stroke="#fff" stroke-miterlimit="50" stroke-width=".22" d="M23.206 11.883v0l-.047-.003v0l-.047-.004v0l-.043-.008v0l-.042-.004v0l-.042-.007v0l-.043-.007v0l-.045-.007v0l-.047-.007v0l-.049-.006v0l-.052-.004v0l-.06-.005v0l-.063-.002v0h-.07v0l-.079.002v0l-.087.005v0l-.094.007v0l-.069.01v0l-.063.014v0l-.06.019v0l-.051.021v0l-.047.026v0l-.043.028v0l-.036.033v0l-.027.033v0l-.022.038v0l-.014.04v0l-.007.04v.043l.01.044v0l.016.045v0l.026.045v0l.033.045v0l.068.061v0l.08.05v0l.095.042v0l.101.036v0l.106.035v0l.111.036v0l.114.04v0l.108.047v0l.102.057v0l.096.068v0l.085.087v0l.071.104v0l.054.127v0l.036.152v0l.012.179v0l-.012.212v0l-.026.158v0l-.043.142v0l-.054.127v0l-.069.113v0l-.08.1v0l-.087.084v0l-.097.073v0l-.103.064v0l-.11.052v0l-.112.042v0l-.116.036v0l-.116.026v0l-.115.019v0l-.114.011v0l-.107.008v0l-.107.002v0h-.147v0l-.131-.002v0l-.12-.003v0l-.111-.002v0l-.102-.005v0l-.09-.005v0l-.084-.006v0l-.076-.01v0l-.07-.01v0l-.067-.011v0l-.062-.012v0l-.06-.017v0l-.057-.016v0l-.057-.017v0l-.056-.021v0l-.06-.021v0l.147-.74v0l.033.006v0l.04.012v0l.05.012v0l.054.014v0l.063.012v0l.071.016v0l.076.014v0l.08.014v0l.085.012v0l.09.012v0l.092.01v0l.096.009v0l.097.005v0l.1.002v0h.099v0l.1-.005v0l.095-.016v0l.078-.026v0l.059-.038v0l.047-.042v0l.035-.05v0l.026-.051v0l.022-.053v0l.014-.051v0l.007-.055v0l-.002-.047v0l-.012-.045v0l-.02-.038v0l-.025-.037v0l-.033-.033v0l-.04-.031v0l-.045-.029v0l-.05-.025v0l-.054-.026v0l-.059-.026v0l-.062-.024v0l-.06-.023v0l-.067-.026v0l-.066-.026v0l-.068-.029v0l-.066-.028v0l-.066-.03v0l-.066-.036v0l-.064-.038v0l-.061-.04v0l-.057-.045v0l-.054-.052v0l-.05-.054v0l-.044-.061v0l-.04-.066v0l-.034-.074v0l-.028-.077v0l-.019-.088v0l-.012-.094v0l-.002-.104v0l.007-.11v0l.007-.07v0l.01-.065v0l.01-.063v0l.013-.062v0l.014-.06v0l.017-.058v0l.021-.054v0l.021-.054v0l.026-.05v0l.026-.05v0l.03-.045v0l.034-.044v0l.035-.043v0l.038-.04v0l.04-.038v0l.045-.035v0l.047-.033v0l.05-.03v0l.054-.029v0l.057-.029v0l.058-.023v0l.064-.024v0l.067-.018v0l.07-.02v0l.076-.016v0l.077-.014v0l.08-.012v0l.086-.01v0l.089-.006v0l.094-.005v0l.098-.005v0h.1v0h.125v0l.114.002v0l.102.003v0l.094.005v0l.082.004v0l.076.005v0l.068.007v0l.06.005v0l.054.007v0l.047.007v0l.045.005v0l.037.007v0l.034.005v0l.03.004v0l.028.005v0l.026.002v0l-.17.765v0"/><path fill="#fff" d="M23.982 10.304h.949l-.146.826h.583l-.133.753-.596-.012-.314 1.88-.005.04v.036l.005.03.01.029.013.024.017.023.021.019.024.014.028.014.029.012.032.01.033.004.038.007.038.003.04.002H24.764l.066-.005.06-.01.053-.011.04-.012.03-.012.02-.01.007-.001-.097.644-.023.014-.026.012-.026.012-.027.011-.025.01-.03.009-.027.01-.033.009-.034.01-.035.006-.04.007-.042.007-.045.008-.047.007-.054.007-.057.007h-.255l-.135-.01-.12-.013-.106-.02-.092-.026-.078-.028-.066-.035-.054-.04-.045-.045-.035-.05-.026-.054-.017-.059-.009-.066-.003-.068.003-.076.007-.078.012-.085z"/><path fill="none" stroke="#fff" stroke-miterlimit="50" stroke-width=".22" d="M23.982 10.304v0h.949v0l-.146.826v0h.583v0l-.133.753v0l-.596-.012v0l-.314 1.88v0l-.005.04v.036l.005.03v0l.01.029v0l.013.024v0l.016.023v0l.022.019v0l.024.014v0l.028.014v0l.029.012v0l.032.01v0l.033.004v0l.038.007v0l.038.002v0l.04.003v0h.04v0h.076v0l.066-.005v0l.06-.01v0l.053-.011v0l.04-.012v0l.03-.012v0l.02-.01v0l.007-.001v0l-.097.644v0l-.023.014v0l-.026.012v0l-.026.011v0l-.027.012v0l-.025.01v0l-.03.009v0l-.027.01v0l-.033.009v0l-.034.01v0l-.035.006v0l-.04.007v0l-.042.007v0l-.045.008v0l-.047.007v0l-.054.007v0l-.057.007v0h-.255v0l-.135-.01v0l-.12-.013v0l-.106-.02v0l-.092-.026v0l-.078-.028v0l-.066-.035v0l-.054-.04v0l-.045-.045v0l-.035-.05v0l-.026-.054v0l-.017-.059v0l-.01-.066v0l-.002-.068v0l.003-.076v0l.007-.078v0l.012-.085v0l.63-3.69v0"/><path fill="#fff" d="M18.217 13.168l-.013.06-.001.059.004.063.015.062.018.063.029.064.033.061.04.06.044.056.052.055.054.047.06.044.063.038.066.03.071.024.07.017.086.012.085.011.087.01.087.004.09.003h.087l.093-.005.09-.007.091-.014.094-.017.095-.023.094-.03.094-.036.1-.043.096-.051.1-.057-.147.837-.054.029-.055.025-.049.022-.052.019-.052.018-.052.015-.054.011-.059.012-.06.008-.068.006-.072.007-.078.003-.085.005h-.095l-.103.002h-.196l-.085-.005-.083-.005-.084-.009-.088-.012-.085-.014-.085-.019-.085-.019-.082-.025-.083-.027-.08-.03-.08-.035-.078-.04-.076-.043-.07-.047-.071-.052-.066-.057-.064-.061-.061-.066-.055-.071-.052-.078-.047-.08-.042-.087-.038-.093-.033-.098-.026-.104-.021-.109-.014-.118-.01-.123v-.127l.005-.137.012-.142.007-.049.007-.056.01-.057.011-.061.012-.064.016-.066.02-.069.018-.07.024-.074.026-.07.03-.074.033-.072.038-.074.04-.073.045-.073.047-.07.055-.07.056-.068.062-.066.068-.061.07-.061.079-.057.082-.052.09-.05.094-.042.102-.04.105-.035.114-.029.12-.023.128-.017.132-.01.142-.004h.066l.066.005.068.004.068.008.068.01.072.013.068.016.069.02.068.02.068.027.066.028.064.033.062.038.06.04.057.047.057.05.052.054.05.059.044.066.04.069.039.075.032.08.028.087.021.093.02.099.011.103.005.111v.118l-.007.125-.012.132-.021.14-.028.146-.038.207h-2.451l.146-.655h1.47l.007-.09v-.083l-.005-.078-.014-.07-.019-.064-.024-.06-.03-.051-.036-.047-.04-.043-.045-.035-.047-.028-.05-.024-.053-.019-.057-.014-.06-.007-.06-.003h-.067l-.06.01-.062.011-.057.02-.054.026-.052.03-.05.036-.044.04-.043.047-.037.05-.036.054-.033.059-.028.06-.024.067-.019.071-.016.073z"/><path fill="none" stroke="#fff" stroke-miterlimit="50" stroke-width=".22" d="M18.217 13.168v0l-.013.06v0l-.001.059v0l.004.063v0l.015.062v0l.018.063v0l.029.064v0l.033.061v0l.04.06v0l.044.056v0l.052.055v0l.054.047v0l.06.044v0l.063.038v0l.066.03v0l.071.024v0l.07.017v0l.086.012v0l.085.011v0l.087.01v0l.087.004v0l.09.003v0h.087v0l.093-.005v0l.09-.007v0l.09-.014v0l.095-.017v0l.095-.023v0l.094-.03v0l.094-.036v0l.1-.043v0l.096-.051v0l.1-.057v0l-.147.837v0l-.054.029v0l-.055.025v0l-.05.022v0l-.05.019v0l-.053.018v0l-.052.014v0l-.054.012v0l-.059.012v0l-.06.008v0l-.068.006v0l-.072.007v0l-.078.003v0l-.085.005v0h-.095v0l-.104.002v0h-.113v0h-.082v0l-.085-.005v0l-.083-.005v0l-.085-.009v0l-.087-.012v0l-.085-.014v0l-.085-.019v0l-.085-.019v0l-.082-.026v0l-.083-.026v0l-.08-.03v0l-.08-.035v0l-.078-.04v0l-.076-.043v0l-.07-.047v0l-.071-.052v0l-.066-.057v0l-.064-.061v0l-.062-.066v0l-.054-.071v0l-.052-.078v0l-.047-.08v0l-.042-.087v0l-.038-.093v0l-.033-.098v0l-.026-.104v0l-.021-.109v0l-.014-.118v0l-.01-.123v0-.127 0l.005-.137v0l.012-.142v0l.007-.049v0l.007-.056v0l.01-.057v0l.011-.061v0l.012-.064v0l.016-.066v0l.02-.069v0l.018-.07v0l.024-.074v0l.026-.07v0l.03-.074v0l.033-.072v0l.038-.074v0l.04-.073v0l.045-.073v0l.047-.07v0l.055-.07v0l.056-.068v0l.062-.066v0l.068-.061v0l.07-.061v0l.079-.057v0l.082-.052v0l.09-.05v0l.094-.042v0l.102-.04v0l.105-.035v0l.114-.029v0l.12-.023v0l.128-.017v0l.132-.01v0l.142-.004v0h.066v0l.066.005v0l.068.004v0l.068.008v0l.068.01v0l.072.013v0l.068.016v0l.068.02v0l.068.02v0l.07.027v0l.065.028v0l.064.033v0l.062.038v0l.06.04v0l.057.047v0l.057.05v0l.052.054v0l.05.059v0l.044.066v0l.04.069v0l.038.075v0l.033.08v0l.028.087v0l.021.093v0l.02.099v0l.011.103v0l.005.111v.118l-.007.125v0l-.012.132v0l-.021.14v0l-.028.146v0l-.038.207v0h-2.451v0l.146-.655v0h1.47v0l.007-.09v0-.083 0l-.005-.078v0l-.014-.07v0l-.019-.064v0l-.024-.06v0l-.03-.051v0l-.036-.047v0l-.04-.043v0l-.045-.035v0l-.047-.028v0l-.05-.024v0l-.053-.019v0l-.057-.014v0l-.06-.007v0l-.06-.003v0h-.067v0l-.06.01v0l-.062.011v0l-.057.02v0l-.054.026v0l-.052.03v0l-.05.036v0l-.044.04v0l-.043.047v0l-.037.05v0l-.036.054v0l-.033.059v0l-.028.06v0l-.024.067v0l-.019.071v0l-.016.073v0l-.132.705v0"/><path fill="#fff" d="M16.905 13.994l-.135.753h-.851l.01-.07.008-.072.01-.063.01-.06.009-.05.007-.041.01-.029.009-.016-.045.052-.057.051-.063.05-.073.048-.078.044-.085.043-.09.037-.092.036-.097.03-.099.027-.099.018-.099.014-.099.008-.097.002-.094-.007-.092-.014-.12-.029-.106-.038-.097-.044-.085-.05-.075-.054-.065-.061-.056-.064-.047-.07-.04-.071-.033-.074-.026-.076-.022-.077-.014-.076-.01-.077-.004-.076-.003-.073.01-.132.021-.125.031-.121.045-.113.054-.106.061-.099.074-.092.078-.088.087-.077.092-.069.099-.063.104-.055.108-.047.111-.038.113-.028.116-.021h.005l.016-.002.026-.003.035-.005.04-.004.048-.005.052-.007.056-.005.057-.004.057-.008.059-.004.056-.005.052-.005.05-.002.045-.002h.157l.043.002h.04l.038.002h.075l.033.003h.031l.026.002h.024l.018.002H16.2l.008-.023.016-.057.012-.066v-.059l-.005-.043-.007-.04-.012-.037-.016-.036-.02-.033-.023-.03-.023-.029-.029-.028-.03-.024-.031-.019-.036-.018-.035-.017-.037-.012-.04-.01-.04-.006-.041-.005-.096-.002-.102.002-.107.002-.108.007-.108.008-.109.009-.108.012-.107.012-.1.016-.097.014-.088.017-.082.019-.074.019-.061.018-.05.02-.035.02.243-.802.07-.032.077-.031.075-.026.08-.021.083-.017.085-.014.09-.012.091-.01.095-.004.096-.005.1-.002h.32l.114.002.118.003.096.01.102.013.106.026.106.03.106.04.107.05.098.057.095.066.087.076.078.082.066.092.052.101.038.112.02.12.003.127-.018.14z"/><path fill="none" stroke="#fff" stroke-miterlimit="50" stroke-width=".22" d="M16.905 13.994v0l-.135.753v0h-.851v0l.01-.07v0l.008-.072v0l.01-.063v0l.01-.06v0l.009-.05v0l.007-.041v0l.01-.029v0l.009-.016v0l-.045.052v0l-.057.051v0l-.063.05v0l-.073.048v0l-.078.044v0l-.085.043v0l-.09.037v0l-.092.036v0l-.097.03v0l-.099.027v0l-.099.018v0l-.099.014v0l-.099.008v0l-.097.002v0l-.094-.007v0l-.092-.014v0l-.12-.029v0l-.106-.038v0l-.097-.044v0l-.085-.05v0l-.075-.054v0l-.065-.061v0l-.056-.064v0l-.047-.07v0l-.04-.071v0l-.033-.074v0l-.026-.076v0l-.022-.077v0l-.014-.076v0l-.01-.077v0l-.004-.076v0l-.003-.073v0l.01-.132v0l.021-.125v0l.031-.121v0l.045-.113v0l.054-.106v0l.061-.099v0l.074-.092v0l.078-.088v0l.087-.077v0l.092-.069v0l.099-.063v0l.104-.055v0l.108-.047v0l.111-.038v0l.113-.028v0l.116-.021v0h.005v0l.016-.002v0l.026-.003v0l.035-.005v0l.04-.004v0l.048-.005v0l.052-.007v0l.056-.005v0l.057-.004v0l.057-.008v0l.059-.004v0l.056-.005v0l.052-.005v0l.05-.002v0l.045-.002v0h.037v0h.04v0h.04v0h.04v0l.043.002v0h.04v0l.038.002v0h.037v0h.038v0l.033.003v0h.031v0l.026.002v0h.024v0l.018.002v0h.015v0h.01v0h.001v0l.008-.023v0l.016-.057v0l.012-.066v0-.059 0l-.005-.043v0l-.007-.04v0l-.012-.037v0l-.016-.036v0l-.02-.033v0l-.023-.03v0l-.023-.029v0l-.029-.028v0l-.03-.024v0l-.031-.019v0l-.036-.018v0l-.035-.017v0l-.037-.012v0l-.04-.01v0l-.04-.006v0l-.041-.005v0l-.096-.002v0l-.102.002v0l-.107.002v0l-.108.007v0l-.108.008v0l-.109.009v0l-.108.012v0l-.107.012v0l-.1.016v0l-.097.014v0l-.088.017v0l-.082.019v0l-.074.019v0l-.061.018v0l-.05.02v0l-.035.02v0l.243-.802v0l.07-.032v0l.077-.031v0l.075-.026v0l.08-.021v0l.083-.017v0l.085-.014v0l.09-.012v0l.091-.01v0l.095-.004v0l.096-.005v0l.1-.002v0h.103v0h.109v0h.108v0l.114.002v0l.118.003v0l.096.01v0l.102.013v0l.106.026v0l.106.03v0l.106.04v0l.107.05v0l.098.057v0l.095.066v0l.087.076v0l.078.082v0l.066.092v0l.052.101v0l.038.112v0l.02.12v0l.003.127v0l-.018.14v0l-.352 1.771v0"/><path fill="#0084c4" d="M16.09 13.107l-.002-.019-.014-.014-.023-.012-.03-.007-.041-.004-.043-.003h-.101l-.054.005-.057.007-.054.007-.054.01-.052.009-.05.01-.042.011-.038.012-.021.005-.029.009-.035.012-.038.016-.04.017-.045.021-.045.026-.044.026-.045.033-.043.036-.04.037-.035.043-.033.045-.024.05-.018.053-.012.057-.005.116.017.09.028.07.042.052.052.035.054.024.06.012.056.002.104-.002.092-.01.087-.016.078-.021.07-.024.065-.028.056-.033.05-.036.044-.035.038-.04.033-.038.028-.04.024-.04.019-.038.014-.038.012-.035.012-.052.012-.055.011-.056.012-.06.01-.055.01-.052.009-.05z"/><path fill="#fff" d="M9.785 14.747h-.923l.776-4.443h1.604l.159 2.645 1.092-2.645h1.666l-.779 4.443h-.922l.582-3.327h-.035l-1.373 3.327h-1.033l-.01-.14-.021-.37-.03-.524-.036-.6-.035-.608-.031-.535-.022-.387-.01-.163h-.046.01z"/><path fill="none" stroke="#fff" stroke-miterlimit="50" stroke-width=".22" d="M9.785 14.747v0h-.923v0l.776-4.443v0h1.605v0l.158 2.645v0l1.092-2.645v0h1.666v0l-.779 4.443v0h-.922v0l.582-3.327v0h-.035v0l-1.373 3.327v0h-1.033v0l-.01-.14v0l-.021-.37v0l-.03-.524v0l-.036-.6v0l-.035-.608v0l-.031-.535v0l-.022-.387v0l-.01-.163v0h-.002v0h-.009v0h-.01v0h-.011v0h-.01v0h-.004v0h.01v0l-.583 3.327v0"/><path fill="#fff" d="M25.198 14.747h.96l.328-1.918.014-.076.017-.073.018-.073.024-.068.026-.069.033-.064.04-.06.045-.06.054-.052.061-.047.074-.042.08-.038.095-.03.105-.024.118-.014.132-.01h.012l.014.003.02.002h.018l.017.002.014.003.01.002h.004l.003-.014.009-.04.012-.062.018-.078.024-.087.026-.094.03-.095.036-.089.026-.066.03-.064.031-.064.033-.059.029-.05.023-.04.017-.026.005-.009h-.005l-.012-.005-.016-.002-.024-.005-.024-.004-.028-.003-.026-.004h-.023l-.104.007-.095.011-.087.02-.08.02-.076.029-.068.03-.066.038-.06.04-.058.046-.054.049-.05.052-.052.056-.05.06-.047.063-.05.066-.048.069.11-.607-.96-.012-.632 3.63z"/><path fill="none" stroke="#fff" stroke-miterlimit="50" stroke-width=".22" d="M25.198 14.747v0h.96v0l.328-1.918v0l.014-.076v0l.017-.073v0l.018-.073v0l.024-.068v0l.026-.069v0l.033-.064v0l.04-.06v0l.045-.06v0l.054-.052v0l.061-.047v0l.073-.042v0l.08-.038v0l.096-.03v0l.105-.024v0l.118-.014v0l.132-.01v0h.012v0l.014.003v0l.02.002v0h.018v0l.017.002v0l.014.003v0l.01.002v0h.004v0l.003-.014v0l.009-.04v0l.012-.062v0l.018-.078v0l.024-.087v0l.026-.094v0l.03-.095v0l.036-.089v0l.026-.066v0l.03-.064v0l.031-.064v0l.033-.059v0l.029-.05v0l.023-.04v0l.017-.026v0l.005-.009v0h-.005v0l-.012-.005v0l-.016-.002v0l-.024-.005v0l-.024-.004v0l-.028-.003v0l-.026-.004v0h-.023v0l-.104.007v0l-.095.011v0l-.087.02v0l-.08.02v0l-.076.029v0l-.068.03v0l-.066.038v0l-.06.04v0l-.058.046v0l-.054.049v0l-.05.052v0l-.052.056v0l-.05.06v0l-.047.063v0l-.05.066v0l-.048.069v0l.11-.607v0l-.96-.012v0l-.632 3.63v0"/><path fill="#fff" d="M29.352 11.08l.106.003.104.007.102.01.1.013.094.02.091.023.088.026.087.03.082.036.078.038.078.04.071.045.07.05.067.051.061.055.059.059.057.06.051.067.048.066.045.07.042.074.035.078.035.078.03.082.025.083.021.087.02.09.014.092.009.091.005.097.002.1-.002.098-.007.121-.015.116-.016.11-.022.109-.023.104-.03.099-.034.097-.035.091-.043.088-.042.085-.05.08-.05.075-.053.074-.06.068-.06.064-.064.061-.067.057-.068.054-.073.05-.073.045-.078.042-.08.038-.08.035-.085.03-.085.029-.09.024-.09.019-.09.016-.093.012-.095.01-.097.004-.097.002-.096-.002-.097-.005-.092-.01-.092-.014-.09-.016-.09-.019-.084-.024-.083-.028-.082-.03-.078-.036-.076-.037-.073-.043-.07-.044-.067-.05-.066-.052-.061-.057-.057-.059-.056-.064-.05-.065-.05-.071-.042-.074-.042-.077-.036-.08-.033-.083-.028-.087-.026-.092-.021-.095-.017-.097-.011-.1-.007-.105-.003-.108.003-.111.007-.113.011-.11.017-.105.02-.102.025-.099.028-.097.03-.092.036-.09.038-.086.042-.083.047-.078.05-.078.052-.07.056-.071.06-.064.06-.064.067-.059.068-.054.07-.052.074-.047.078-.042.08-.043.083-.035.082-.033.088-.028.089-.027.092-.02.095-.02.096-.012.1-.011.1-.005z"/><path fill="none" stroke="#fff" stroke-miterlimit="50" stroke-width=".22" d="M29.352 11.08v0l.106.003v0l.104.007v0l.102.01v0l.1.013v0l.094.02v0l.091.023v0l.088.026v0l.087.03v0l.082.036v0l.078.038v0l.078.04v0l.071.045v0l.07.05v0l.067.051v0l.061.055v0l.059.059v0l.057.06v0l.051.067v0l.048.066v0l.045.07v0l.042.074v0l.035.078v0l.035.078v0l.03.082v0l.025.083v0l.021.087v0l.02.09v0l.014.092v0l.009.091v0l.005.097v0l.002.1v0l-.002.098v0l-.007.121v0l-.015.116v0l-.016.11v0l-.022.109v0l-.023.104v0l-.03.099v0l-.034.097v0l-.035.091v0l-.043.088v0l-.042.085v0l-.05.08v0l-.05.075v0l-.053.074v0l-.06.068v0l-.06.064v0l-.064.061v0l-.067.057v0l-.068.054v0l-.073.05v0l-.073.045v0l-.078.042v0l-.08.038v0l-.08.035v0l-.085.03v0l-.085.029v0l-.09.024v0l-.09.019v0l-.09.016v0l-.093.012v0l-.095.01v0l-.097.004v0l-.097.002v0l-.096-.002v0l-.097-.005v0l-.092-.01v0l-.092-.014v0l-.09-.016v0l-.09-.019v0l-.084-.024v0l-.083-.028v0l-.082-.03v0l-.078-.036v0l-.076-.037v0l-.073-.043v0l-.07-.044v0l-.067-.05v0l-.066-.052v0l-.061-.057v0l-.057-.059v0l-.056-.064v0l-.05-.065v0l-.05-.071v0l-.042-.074v0l-.042-.077v0l-.036-.08v0l-.033-.083v0l-.028-.087v0l-.026-.092v0l-.021-.095v0l-.017-.097v0l-.011-.1v0l-.007-.105v0l-.003-.108v0l.003-.111v0l.007-.113v0l.011-.11v0l.017-.105v0l.02-.102v0l.025-.099v0l.028-.097v0l.03-.092v0l.036-.09v0l.038-.086v0l.042-.083v0l.047-.078v0l.05-.078v0l.052-.07v0l.056-.071v0l.06-.064v0l.06-.064v0l.067-.059v0l.068-.054v0l.07-.052v0l.074-.047v0l.078-.042v0l.08-.043v0l.083-.035v0l.082-.033v0l.088-.028v0l.089-.027v0l.092-.02v0l.095-.02v0l.096-.012v0l.1-.011v0l.1-.005v0l.102-.002v0"/><path fill="#fff" d="M30.763 14.565h.279v.036h-.109v.23h-.061v-.23h-.109z"/><path fill="none" stroke="#fff" stroke-miterlimit="50" stroke-width=".22" d="M30.763 14.565v0h.279v.036h-.109v.23h-.061v0-.23 0h-.109v0-.036 0"/><path fill="#fff" d="M31.077 14.565h.085l.1.206.096-.206h.085v.267h-.062v-.205l-.096.205h-.05l-.097-.205v.205h-.06z"/><path fill="#ec1c2e" d="M28.6 12.814l-.014.133-.008.122v.111l.008.104.014.095.02.082.027.076.033.068.04.059.045.05.05.042.054.033.059.026.066.019.068.01.073.004.08-.002.079-.01.073-.017.07-.025.067-.033.063-.043.059-.05.057-.059.05-.065.047-.076.044-.085.038-.092.035-.101.031-.111.024-.12.021-.13.012-.102.007-.096v-.095l-.007-.09-.012-.082-.019-.08-.026-.073-.03-.069-.038-.061-.043-.052-.05-.047-.054-.038-.061-.03-.066-.02-.07-.011h-.079l-.096.007-.09.016-.083.028-.078.036-.07.047-.066.052-.06.059-.052.066-.049.07-.042.076-.038.076-.03.08-.029.08-.023.08-.017.08z"/></svg>