<svg xmlns="http://www.w3.org/2000/svg" width="40" height="25" viewBox="0 0 40 25"><path fill="#f8f8f8" d="M40 23.406A1.58 1.58 0 0 1 38.405 25H1.595A1.58 1.58 0 0 1 0 23.406V1.594A1.58 1.58 0 0 1 1.595 0h36.81A1.58 1.58 0 0 1 40 1.594z"/><path fill="#fbb231" d="M24.817 19.681h.35l.383-.032.351-.064.351-.063.35-.064.352-.096.319-.128.319-.127.319-.128.319-.16.319-.19.287-.16.287-.223.255-.192.255-.255.255-.223.256-.255.223-.256.191-.287.223-.255.16-.319.191-.287.16-.319.127-.319.128-.319.128-.319.095-.35.096-.352.064-.35.032-.351.032-.383v-.734l-.032-.35-.032-.383-.064-.351-.096-.32-.095-.35-.128-.351-.128-.32-.127-.318-.16-.287-.191-.32-.16-.286-.223-.287-.191-.255-.223-.256-.256-.255-.255-.255-.255-.223-.255-.192-.287-.223-.287-.16-.32-.19-.318-.16-.32-.128-.318-.128-.32-.127-.35-.096-.351-.064-.35-.063-.352-.064-.383-.032h-.733l-.351.032-.383.064-.35.063-.352.064-.319.096-.35.127-.288.16-.319.191-.287.16-.287.223-.255.192-.255.223-.255.255-.255.255-.224.255-.191.256-.223.287-.16.287-.191.319-.16.287-.127.35-.096.352-.064.319-.064.35-.063.383-.032.351v.733l.032.383.063.351.096.351.128.32.16.318.19.287.16.32.223.254.192.288.223.255.255.255.255.223.256.255.255.192.287.223.287.16.319.19.287.16.35.128.32.096.35.063.352.064.382.064.351.032z"/><path fill="#ec1c2e" d="M15.215 19.681h.351l.383-.032.35-.064.352-.063.35-.064.32-.096.35-.128.32-.16.287-.19.287-.16.287-.223.287-.192.255-.255.223-.223.255-.255.224-.255.223-.288.191-.255.192-.319.16-.287.159-.319.16-.319.127-.319.096-.319.095-.35.096-.351.064-.351.032-.351.032-.383v-.734l-.032-.35-.032-.383-.064-.351-.096-.32-.095-.35-.096-.35-.128-.32-.16-.319-.159-.287-.16-.319-.19-.287-.192-.287-.223-.255-.224-.255-.255-.256-.223-.255-.255-.223-.287-.191-.287-.224-.287-.16-.288-.19-.319-.16-.35-.128-.32-.095-.35-.064-.351-.064-.351-.064-.383-.032h-.733l-.351.032-.383.064-.351.064-.35.064-.32.095-.35.128-.32.16-.287.19-.287.16-.287.224-.287.19-.255.224-.255.255-.224.256-.223.255-.223.255-.192.287-.191.287-.191.32-.16.286-.128.351-.095.35-.064.32-.064.35-.064.384-.031.35v.734l.031.383.064.35.096.352.127.319.16.319.191.287.192.319.191.255.223.287.224.255.223.255.255.224.255.255.287.191.288.223.287.16.287.191.319.16.35.127.32.096.35.064.351.064.383.063.35.032z"/><path fill="#fbb231" d="M19.17 8.07h3.796v-.383H19.49l-.32.383z"/><path fill="#fbb231" d="M18.596 8.931h4.37V8.55H18.82z"/><path fill="#fbb231" d="M18.182 9.825h4.785V9.41H18.34z"/><path fill="#fbb231" d="M17.863 10.686h5.104v-.415H17.99z"/><path fill="#fbb231" d="M18.054 14.864h4.944v-.382h-5.071z"/><path fill="#fbb231" d="M18.405 15.726h4.593v-.383h-4.784z"/><path fill="#fbb231" d="M18.915 16.587h4.083v-.383h-4.306z"/><path fill="#fbb231" d="M19.617 17.448h3.381v-.383h-3.7z"/><path fill="#fbb231" d="M17.703 11.547h5.264v-.383h-5.2z"/><path fill="#fbb231" d="M20.925 14.003h2.01v-.383h-1.946l-.064.383z"/><path fill="#fbb231" d="M21.085 13.142h1.85v-.383h-1.787l-.063.383z"/><path fill="#fbb231" d="M17.576 12.76h.51v.382h-.478z"/><path fill="#fff" d="M16.587 12.28h-.032l-.032-.031h-.191l-.032-.032H16.013l-.064.032h-.16l-.031.032h-.032l-.032.032-.032.031v.032h-.032v.16l.032.032.032.032.032.032.063.063.064.032h.064l.096.032.064.032.095.032.064.032.064.032.096.064.031.063.064.064.032.096.032.096V13.684l-.032.096-.064.096-.032.063-.063.064-.064.064-.064.064-.064.032-.095.063-.064.032h-.096l-.064.032h-.095l-.096.032H15.088l-.064-.032H14.8l-.032-.032h-.096l-.032-.032h-.032l-.064-.031.128-.51h.064l.064.031h.095l.032.032h.192l.063.032H15.598l.064-.032.032-.032.032-.032.032-.032.031-.032v-.095l.032-.064-.032-.064-.031-.032-.064-.032-.096-.063-.064-.032-.095-.032-.096-.032-.096-.032-.095-.064-.096-.064-.064-.063-.064-.096-.032-.128-.032-.127v-.255l.032-.064.032-.096v-.064l.064-.095.032-.064.064-.064.064-.032.063-.064.064-.032.096-.032.095-.031h.096l.128-.032H16.49l.032.032h.16v.031h.031l-.127.543z"/><path fill="none" stroke="#fff" stroke-miterlimit="50" stroke-width=".22" d="M16.587 12.28v0h-.032v0l-.032-.031v0h-.032v0h-.032v0h-.032v0h-.031v0h-.032v0h-.032v0l-.032-.032v0h-.032v0h-.032v0h-.064v0h-.064v0h-.031v0h-.064v0l-.064.032v0h-.064v0h-.032v0h-.064v0l-.031.032v0h-.032v0l-.032.032v0l-.032.031v.032h-.032v.16l.032.032v0l.032.032v0l.032.032v0l.063.063v0l.064.032v0h.064v0l.096.032v0l.064.032v0l.095.032v0l.064.032v0l.064.032v0l.096.064v0l.031.063v0l.064.064v0l.032.096v0l.032.096V13.684l-.032.096v0l-.064.096v0l-.032.063v0l-.063.064v0l-.064.064v0l-.064.064v0l-.064.032v0l-.095.063v0l-.064.032v0h-.096v0l-.064.032v0h-.095v0l-.096.032v0h-.064v0h-.064v0h-.127v0h-.096v0h-.064v0h-.095v0h-.064v0l-.064-.032v0h-.064v0h-.064v0h-.032v0h-.063v0l-.032-.032v0h-.064v0h-.032v0l-.032-.032v0h-.032v0l-.064-.031v0l.128-.51v0h.032v0h.032v0l.064.031v0h.032v0h.063v0l.032.032v0h.064v0h.064v0h.064v0l.063.032v0h.064v0h.064v0h.096v0h.063v0h.064v0h.064v0l.064-.032v0l.032-.032v0l.032-.032v0l.032-.032v0l.031-.032v0-.031 0-.064 0l.032-.064v0l-.032-.064v0l-.031-.032v0l-.064-.032v0l-.096-.063v0l-.064-.032v0l-.095-.032v0l-.096-.032v0l-.096-.032v0l-.095-.064v0l-.096-.064v0l-.064-.063v0l-.064-.096v0l-.032-.128v0l-.032-.127v0-.16 0-.095 0l.032-.064v0l.032-.096v0-.064 0l.064-.095v0l.032-.064v0l.064-.064v0l.064-.032v0l.063-.064v0l.064-.032v0l.096-.032v0l.095-.031v0h.096v0l.128-.032v0h.127v0h.16v0h.064v0h.095v0h.064v0h.096v0h.032v0h.064v0h.063v0h.032v0l.032.032v0h.032v0h.032v0h.032v0h.032v0h.032v.031h.031v0l-.127.543v0"/><path fill="#fff" d="M17.161 11.132h.67l-.096.575h.415l-.096.542h-.414l-.256 1.34v.063l.032.032v.032l.032.032h.064l.032.032h.319l.032-.032h.032l-.096.447-.032.031h-.032v.032h-.096l-.031.032H17.002l-.064-.032-.064-.032h-.064l-.032-.031-.032-.032-.032-.032v-.096l-.031-.032v-.159l.031-.064.447-2.648z"/><path fill="none" stroke="#fff" stroke-miterlimit="50" stroke-width=".22" d="M17.161 11.132v0h.67v0l-.096.575v0h.415v0l-.096.542v0h-.414v0l-.256 1.34v.063l.032.032v.032l.032.032v0h.064v0l.032.032v0h.064v0h.063v0h.032v0h.064v0h.032v0h.064v0l.032-.032v0h.032v0l-.096.447v0l-.032.031v0h-.032v.032h-.032v0h-.032v0h-.032v0l-.031.032v0h-.032v0h-.032v0h-.032v0h-.032v0h-.032v0h-.032v0h-.191v0h-.096v0h-.096v0h-.063v0l-.064-.032v0l-.064-.032v0h-.064v0l-.032-.031v0l-.032-.032v0l-.032-.032v0-.064 0-.032 0l-.031-.032v0-.064 0-.063 0-.032 0l.031-.064v0l.447-2.648v0"/><path fill="none" stroke="#fff" stroke-miterlimit="50" stroke-width=".22" d="M18.692 13.174v0l-.032.032v.095l.032.064v.032l.032.032v0l.032.064v0l.032.032v0l.032.032v0l.032.032v0l.032.063v0l.031.032v0h.064v0l.032.032v0l.064.032v0h.032v0h.064v0h.063v0l.064.032v0h.064v0h.064v0h.064v0h.063v0h.064v0l.064-.032v0h.064v0l.064-.032v0h.063v0l.096-.032v0l.064-.032v0l.064-.032v0l.064-.031v0l-.096.574v0l-.032.032v0H20v0l-.064.031v0h-.032v0l-.032.032v0h-.031v0h-.032v0l-.064.032v0h-.032v0h-.032v0h-.064v0h-.064v0h-.063v0h-.064v0h-.064v0h-.096v0h-.095v0h-.128v0h-.128v0l-.127-.032v0l-.128-.063v0l-.095-.032v0l-.128-.064v0l-.096-.064v0l-.095-.096v0l-.064-.095v0l-.064-.096v0l-.064-.128v0l-.064-.16v0-.159 0l-.031-.16v0l.031-.222v0-.064 0l.032-.096v0-.096 0l.032-.095v0l.032-.096v0l.032-.128v0l.064-.095v0l.064-.096v0l.095-.096v0l.096-.095v0l.096-.096v0l.127-.064v0l.128-.064v0l.16-.032v0l.19-.031v0h.192v0h.096v0h.096v0l.095.031v0h.096v0l.096.032v0l.095.064v0l.096.064v0l.064.064v0l.096.064v0l.063.095v0l.032.128v0l.032.127v0l.032.128v.191l-.032.16v0l-.032.223v.128H18.47v0l.128-.479v0h1.052v0-.063 0-.032 0-.064 0-.064 0l-.032-.032v0-.032 0l-.032-.032v0l-.032-.032v0l-.031-.031v0l-.032-.032v0l-.032-.032v0h-.032v0l-.032-.032v0h-.032v0h-.064v0l-.032-.032v0l-.063.032v0h-.032v0h-.032v0l-.032.032v0h-.064v0l-.032.032v0l-.032.032v0l-.032.031v0l-.031.032v0l-.032.032v0l-.032.032v.032l-.032.064v0l-.032.032v.095l-.096.51v0"/><path fill="#fff" d="M24.466 11.866l-.032-.032h-.032l-.032-.032h-.064l-.032-.032h-.032l-.031-.032h-.096l-.064-.031h-.128l-.063-.032h-.192l-.064.032h-.127l-.064.031-.064.032-.064.032-.095.032-.064.064-.064.064-.032.064-.064.095-.063.096-.064.128-.032.127-.032.16-.032.095v.319l.032.096v.064l.032.064.032.063.064.064.032.064.063.064.064.032.096.032.064.031.095.032h.128l.032.032h.223l.064-.032h.064l.064-.032h.063l.064-.031.064-.032.032-.032.064-.064-.128.67-.032.032-.032.032h-.032l-.032.031h-.031l-.032.032h-.064l-.064.032h-.734l-.095-.032-.128-.032-.096-.063-.127-.064-.096-.064-.096-.064-.095-.095-.064-.128-.064-.128-.064-.127-.063-.16-.032-.16v-.35l.032-.191.031-.096v-.096l.032-.095.032-.096.032-.096.032-.064.032-.095.032-.064.032-.096.032-.064.031-.063.064-.064.032-.064.064-.064.032-.032.032-.032.064-.032.063-.031.064-.064.064-.032h.064l.064-.032.095-.032.064-.032h.096l.064-.032h.159l.096-.032h.159l.096.032h.223l.064.032h.064l.032.032h.064l.063.032h.032l.032.032h.064l.032.032-.096.67z"/><path fill="none" stroke="#fff" stroke-miterlimit="50" stroke-width=".22" d="M24.466 11.866v0l-.032-.032v0h-.032v0l-.032-.032v0h-.064v0l-.032-.032v0h-.032v0l-.031-.032v0h-.064v0h-.032v0l-.064-.031v0h-.032v0h-.064v0h-.032v0l-.063-.032v0h-.064v0h-.064v0h-.064v0l-.064.032v0h-.063v0h-.064v0l-.064.031v0l-.064.032v0l-.064.032v0l-.095.032v0l-.064.064v0l-.064.064v0l-.032.064v0l-.064.095v0l-.063.096v0l-.064.128v0l-.032.127v0l-.032.16v0l-.032.095v.319l.032.096v.064l.032.064v0l.032.063v0l.064.064v0l.032.064v0l.063.064v0l.064.032v0l.096.032v0l.064.031v0l.095.032v0h.032v0h.032v0h.064v0l.032.032v0h.064v0h.032v0h.063v0h.064v0l.064-.032v0h.064v0l.064-.032v0h.063v0l.064-.031v0l.064-.032v0l.032-.032v0l.064-.064v0l-.128.67v0l-.032.032v0l-.032.032v0h-.032v0l-.032.031v0h-.031v0l-.032.032v0h-.064v0l-.064.032v0h-.064v0h-.095v0h-.096v0h-.096v0h-.127v0h-.128v0h-.128v0l-.095-.032v0l-.128-.032v0l-.096-.063v0l-.127-.064v0l-.096-.064v0l-.096-.064v0l-.095-.095v0l-.064-.128v0l-.064-.128v0l-.064-.127v0l-.063-.16v0l-.032-.16v0-.159 0-.191 0l.032-.191v0l.031-.096v0-.096 0l.032-.095v0l.032-.096v0l.032-.096v0l.032-.064v0l.032-.095v0l.032-.064v0l.032-.096v0l.032-.064v0l.031-.063v0l.064-.064v0l.032-.064v0l.064-.064v0l.032-.032v0sv0l.032-.032v0l.064-.032v0l.063-.031v0l.064-.064v0l.064-.032v0h.064v0l.064-.032v0l.095-.032v0l.064-.032v0h.096v0l.064-.032v0h.095v0h.064v0l.096-.032v0h.095v0h.064v0l.096.032v0h.064v0h.064v0h.095v0l.064.032v0h.064v0l.032.032v0h.064v0l.063.032v0h.032v0l.032.032v0h.032v0h.032v0l.032.032v0l-.096.67v0"/><path fill="#fff" d="M30.399 14.29h-.67l.064-.255v-.032l-.032.064-.064.032-.032.032-.032.032-.064.032-.032.031-.031.032-.064.032h-.032l-.064.032h-.128l-.063.032h-.096l-.128-.032-.095-.032-.128-.032-.096-.063-.063-.064-.096-.064-.064-.096-.064-.095-.032-.128-.031-.096-.032-.127-.032-.128v-.383l.032-.095.032-.16.063-.127.032-.128.064-.128.064-.095.064-.096.095-.096.064-.064.096-.095.096-.032.095-.064.064-.032.096-.064h.095l.128-.031h.159l.064.031h.128l.064.032.032.032.063.032h.032l.032.032.032.032.032.032.032.032.032.032.032.031v.032l.032.032.16-.957h.669l-.574 3.158z"/><path fill="none" stroke="#fff" stroke-miterlimit="50" stroke-width=".22" d="M30.399 14.29v0h-.67v0l.064-.255v0-.032 0l-.032.064v0l-.064.032v0l-.032.032v0l-.032.032v0l-.064.032v0l-.032.031v0l-.031.032v0l-.064.032v0h-.032v0l-.064.032v0h-.032v0h-.064v0h-.032v0l-.063.032v0h-.032v0h-.064v0l-.128-.032v0l-.095-.032v0l-.128-.032v0l-.096-.063v0l-.063-.064v0l-.096-.064v0l-.064-.096v0l-.064-.095v0l-.032-.128v0l-.031-.096v0l-.032-.127v0l-.032-.128v0-.127 0-.128 0-.128 0l.032-.095v0l.032-.16v0l.063-.127v0l.032-.128v0l.064-.128v0l.064-.095v0l.064-.096v0l.095-.096v0l.064-.064v0l.096-.095v0l.096-.032v0l.095-.064v0l.064-.032v0l.096-.064v0h.095v0l.128-.031v0h.096v0h.063v0l.064.031v0h.064v0h.064v0l.064.032v0l.032.032v0l.063.032v0h.032v0l.032.032v0l.032.032v0l.032.032v0l.032.032v0l.032.032v0l.032.031v.032l.032.032v0l.16-.957v0h.669v0l-.574 3.158v0"/><path fill="#fbb231" d="M29.314 13.716h.128l.064-.032.063-.032.032-.032.064-.031.032-.032.064-.064.032-.032.032-.064.031-.032.032-.064v-.063l.032-.064.032-.064v-.128l.032-.095v-.064l-.032-.064v-.127l-.032-.032v-.064l-.032-.064-.032-.032-.031-.032-.032-.032-.032-.032-.064-.031h-.032l-.064-.032-.063.032h-.064l-.032.031h-.064l-.064.032-.032.064-.032.032-.063.032-.032.064-.032.064-.032.031-.032.064-.032.064v.096l-.032.064v.063l-.032.096.032.128v.127l.032.096.064.096.064.095.064.064h.095z"/><path fill="#fff" d="M14.45 13.78l-.096.51h-.606v-.095l.032-.064v-.128l-.032.064-.032.032-.032.032-.064.032-.063.032-.064.031-.064.032-.064.032h-.064l-.063.032h-.064l-.096.032h-.191l-.064-.032h-.096l-.064-.032-.063-.032-.064-.032-.064-.063-.064-.032-.032-.032-.032-.064-.031-.032v-.064l-.032-.063-.032-.032V13.429l.032-.096.032-.064.031-.095.064-.064.032-.064.064-.064.064-.063.064-.032.063-.064.096-.032.064-.032.096-.032.063-.032h.224l.032-.032H13.557l.031-.031h.064l.064.031h.223v-.031l.032-.032v-.16l-.032-.032-.032-.064-.031-.031-.032-.032h-.064l-.064-.032H13.142l-.096.032h-.127l-.064.032h-.064l-.064.031h-.032l-.032.032h-.031l.159-.574.064-.032h.064l.063-.032h.032l.064-.032h.192l.063-.031H13.876l.095.031h.128l.096.032.063.032.064.032.064.032.096.064.063.032.032.064.064.063.032.096.032.064V12.504l-.255 1.276z"/><path fill="none" stroke="#fff" stroke-miterlimit="50" stroke-width=".22" d="M14.45 13.78v0l-.096.51v0h-.606v0-.095 0l.032-.064v0-.096 0-.032 0l-.032.064v0l-.032.032v0l-.032.032v0l-.064.032v0l-.063.032v0l-.064.031v0l-.064.032v0l-.064.032v0h-.064v0l-.063.032v0h-.064v0l-.096.032v0h-.064v0h-.063v0h-.064v0l-.064-.032v0h-.096v0l-.064-.032v0l-.063-.032v0l-.064-.032v0l-.064-.063v0l-.064-.032v0l-.032-.032v0l-.032-.064v0l-.031-.032v0-.064 0l-.032-.063v0l-.032-.032v0-.064 0-.064 0-.064 0-.032 0-.095 0-.096 0l.032-.096v0l.032-.064v0l.031-.095v0l.064-.064v0l.032-.064v0l.064-.064v0l.064-.063v0l.064-.032v0l.063-.064v0l.096-.032v0l.064-.032v0l.096-.032v0l.063-.032v0h.096v0h.032v0h.032v0h.032v0h.032v0l.032-.032v0h.031v0h.032v0h.064v0h.032v0h.032v0h.064v0h.032v0l.031-.031v0h.032v0h.032v0l.064.031v0h.064v0h.064v0h.032v0h.031v0h.032v0-.031 0l.032-.032v0-.064 0-.032 0-.064 0l-.032-.032v0l-.032-.064v0l-.031-.031v0l-.032-.032v0h-.064v0l-.064-.032v0h-.064v0h-.064v0h-.063v0h-.096v0h-.064v0h-.095v0h-.064v0h-.064v0l-.096.032v0h-.064v0h-.063v0l-.064.032v0h-.064v0l-.064.031v0h-.032v0l-.032.032v0h-.031v0l.159-.574v0l.064-.032v0h.064v0l.063-.032v0h.032v0l.064-.032v0h.064v0h.064v0h.064v0l.063-.031v0h.096v0h.064v0h.064v0h.095v0h.064v0h.096v0h.064v0l.095.031v0h.064v0h.064v0l.096.032v0l.063.032v0l.064.032v0l.064.032v0l.096.064v0l.063.032v0l.032.064v0l.064.063v0l.032.096v0l.032.064V12.504l-.255 1.276v0"/><path fill="#ec1c2e" d="M13.876 13.142v-.032h-.096l-.032-.032h-.064l-.032.032h-.191l-.032.032h-.064l-.032.032h-.063l-.032.032h-.032l-.032.032-.032.032-.032.031h-.032l-.032.032v.032l-.032.032v.064l-.032.032v.064l.032.063.032.064.032.032.032.032h.032l.032.032h.127l.064-.032h.096l.064-.032.032-.032h.063l.032-.032.032-.032.032-.031v-.032l.032-.032h.032v-.064l.032-.032v-.064l.032-.095v-.064l.032-.064z"/><path fill="#fff" d="M9.346 14.29h-.638l.542-3.158H10.4l.095 1.882.798-1.882h1.18l-.542 3.158h-.67l.415-2.36h-.032l-.957 2.36H9.92v-.351l-.032-.382-.032-.415-.031-.447v-.382l-.032-.256v-.127H9.76l-.415 2.36z"/><path fill="none" stroke="#fff" stroke-miterlimit="50" stroke-width=".22" d="M9.346 14.29v0h-.638v0l.542-3.158v0H10.4v0l.095 1.882v0l.798-1.882v0h1.18v0l-.542 3.158v0h-.67v0l.415-2.36v0h-.032v0l-.957 2.36v0H9.92v0-.095 0-.256 0l-.032-.382v0l-.032-.415v0l-.031-.447v0-.382 0l-.032-.256v0-.127 0H9.76v0l-.415 2.36v0"/><path fill="#fff" d="M26.475 13.78l-.095.51h-.606v-.255l-.032.032-.032.032-.064.032-.032.032-.064.032-.064.031-.031.032-.064.032h-.064l-.096.032h-.064l-.063.032h-.192l-.064-.032h-.095l-.064-.032-.064-.032-.064-.032-.063-.063-.064-.032-.032-.032-.032-.064-.032-.032v-.064l-.032-.063v-.032l-.032-.064v-.255l.032-.096v-.096l.032-.064.032-.095.064-.064.032-.064.063-.064.064-.063.064-.032.064-.064.096-.032.063-.032.096-.032.064-.032h.191l.064-.032h.255l.032-.031h.096l.064.031h.223V12.6l.032-.064v-.032l-.032-.064v-.032l-.032-.064-.032-.031-.064-.032h-.032l-.063-.032h-.575l-.095.032h-.128l-.064.032h-.063l-.064.031h-.032l-.032.032h-.032l.16-.574.063-.032h.064l.064-.032h.032l.064-.032h.191l.064-.031h.542l.064.031h.159l.064.032.096.032.064.032.063.032.064.064.064.032.032.095v.064l.032.096v.191l-.255 1.276z"/><path fill="#fff" d="M26.38 14.322l.095-.542h-.032l-.095.51h.032v.032z"/><path fill="#fff" d="M24.848 14.354h.319l.096-.032h.064l.064-.032.064-.032.063-.032h.064l.032-.063.064-.032.032-.032.032-.032.032-.032v-.032l-.032.064-.064.032-.032.032-.032.032-.064.032-.064.031h-.063l-.032.032-.064.032h-.096l-.064.032h-.319v.032z"/><path fill="#fff" d="M24.242 13.62v.032l.032.064v.128l.032.032v.063l.032.064.032.032.032.064.032.032.064.064.032.031.063.032.096.032.064.032.096.032v-.032l-.096-.032-.064-.032-.064-.032-.064-.031-.063-.032-.032-.032-.032-.064-.032-.032-.032-.064-.032-.032-.032-.063v-.16l-.032-.064v-.032h-.032z"/><path fill="#fff" d="M25.136 12.695h-.096l-.096.032-.064.032-.095.032-.064.032-.064.032-.064.064-.064.063-.031.064-.032.096-.032.064-.032.095v.096l-.032.096h.032l.032-.096v-.096l.032-.095.032-.064.031-.096.032-.064.064-.063.032-.064.064-.032.064-.064.095-.032.064-.064.064-.031h.096l.063-.032.096-.032z"/><path fill="#fff" d="M25.614 12.632h-.191l-.064.031h-.223v.032h.223l.064-.032h.191z"/><path fill="#fff" d="M25.965 12.663v-.031H25.614v.031H25.965z"/><path fill="#fff" d="M25.965 12.504v.159l.032-.031v-.128z"/><path fill="#fff" d="M25.678 12.249l.064.032h.063l.032.032.032.031.032.032.032.032.032.032v.064h.032v-.064l-.032-.032-.032-.063-.032-.032-.032-.032-.064-.032h-.063l-.064-.032v.032z"/><path fill="#fff" d="M24.657 12.376v.032l.032-.032h.032l.032-.032h.064l.063-.031h.128l.064-.032h.159l.096-.032H25.678l-.064-.032h-.223l-.064.032h-.255l-.064.032h-.128l-.063.032h-.064l-.032.031h-.032l-.032.032z"/><path fill="#fff" d="M25.901 11.675H25.231l-.064.032h-.127l-.032.031h-.064l-.064.032h-.063l.031.032h.032l.064-.032.064-.032h.096l.063-.031H25.901z"/><path fill="#fff" d="M26.73 12.504V12.217l-.031-.096-.032-.064-.064-.063-.032-.064-.064-.064-.096-.032-.063-.032-.064-.032-.096-.032h-.159v.032h.127l.096.032.064.032h.064l.095.064.064.032.064.032.064.064.063.063.032.064.032.064.032.064.032.095v.096l-.032.064.032.032z"/><path fill="#fff" d="M26.475 13.78l.255-1.276-.031-.032-.256 1.308h.032z"/><path fill="#fbb231" d="M25.87 13.142v-.032h-.033l-.032-.032h-.127l-.032.032h-.16l-.031.032h-.096l-.032.032h-.032l-.032.032h-.032l-.032.032h-.032l-.031.032-.032.031-.032.032v.032l-.032.032V13.684l.032.032.064.032h.031l.032.032h.128l.064-.032h.064l.063-.032h.032l.064-.032.032-.032.032-.032h.032l.032-.031.032-.032.031-.032v-.032l.032-.032v-.128l.032-.063v-.128z"/><path fill="#fff" d="M30.877 13.971v-.127l.032-.064.064-.032.032-.032.064-.032.063-.032h.128l.064.032.064.032.063.032.032.032.032.064.032.063v.064h-.064v-.032l-.032-.063-.032-.032-.031-.064-.032-.032-.032-.032H31.1l-.063.032-.032.032-.032.064-.032.032v.095z"/><path fill="#fff" d="M31.1 13.971v-.127h.224v.127h-.096.032l.032-.032v-.063h-.16v.095H31.1z"/><path fill="#fff" d="M30.877 13.971v.16l.032.064.064.031.032.032.064.032.063.032h.128l.064-.032.064-.032.063-.032.032-.031.032-.064.032-.064v-.096h-.064v.064l-.032.064-.032.032-.031.064-.032.031-.032.032H31.1l-.063-.032-.032-.031-.032-.064-.032-.032v-.128z"/><path fill="#fff" d="M31.1 13.971v.16h.032v-.128h.064l.096.128h.032l-.064-.128h.032l.032-.032h-.192z"/><path fill="none" stroke="#fff" stroke-miterlimit="50" stroke-width=".22" d="M31.196 14.258l-.064.032-.063-.032-.032-.032-.032-.031-.032-.032-.032-.032v-.255l.064-.064.032-.032.063-.064h.256l.032.032.031.032.032.064v.255l-.063.064-.032.032-.032.031-.064.032h-.064m0-.287h.032v-.032h-.064v.032h.032l.064.128h.064l-.064-.128h.064v-.127h-.255v.287h.063v-.16h.032v.064h.032m-.319-.032l-.032.032.032.064.032.064.032.063.064.032.064.032.063.032h.224l.063-.032.064-.032.032-.063.064-.128v-.128l-.064-.127-.032-.064-.064-.032-.063-.032-.064-.032-.255.064-.064.032-.032.064-.064.127v.064"/><path fill="#fff" d="M26.635 14.29h.702l.223-1.371.032-.032v-.064l.032-.064v-.032l.032-.064.031-.063.032-.032.032-.064.064-.032.032-.032.064-.032.064-.032.063-.031.064-.032h.255l.096-.638-.064.032h-.127l-.064.031h-.032l-.064.032-.032.032-.064.032-.031.032-.032.032-.064.032-.032.032-.032.064-.032.031-.032.032-.032.064.064-.446h-.67l-.478 2.583z"/><path fill="none" stroke="#fff" stroke-miterlimit="50" stroke-width=".22" d="M26.635 14.29v0h.702v0l.223-1.371v0l.032-.032v0-.064 0l.032-.064v0-.032 0l.032-.064v0l.031-.063v0l.032-.032v0l.032-.064v0l.064-.032v0l.032-.032v0l.064-.032v0l.064-.032v0l.063-.031v0l.064-.032v0h.096v0h.095v0h.032v0h.032v0l.096-.638v0l-.064.032v0h-.064v0h-.063v0l-.064.031v0h-.032v0l-.064.032v0l-.032.032v0l-.064.032v0l-.031.032v0l-.032.032v0l-.064.032v0l-.032.032v0l-.032.064v0l-.032.031v0l-.032.032v0l-.032.064v0l.064-.446v0h-.67v0l-.478 2.583v0"/><path fill="#fff" d="M20.223 14.29h.702l.223-1.371.032-.032v-.128l.032-.032.032-.064v-.031l.032-.032.032-.064.064-.032.032-.032.063-.032.032-.032h.096l.064-.032h.095l.064-.031h.032v.031h.064v-.095l.032-.032v-.064l.032-.096v-.063l.032-.064.032-.032.031-.064v-.032l.032-.032.032-.064.032-.031h-.064l-.032-.032h-.031l-.064.032h-.128l-.064.031h-.063l-.032.032-.064.032-.032.032-.032.032-.064.032-.032.032-.032.032-.031.032-.032.063-.032.032-.032.064.064-.446h-.67l-.479 2.583z"/><path fill="none" stroke="#fff" stroke-miterlimit="50" stroke-width=".22" d="M20.223 14.29v0h.702v0l.223-1.371v0l.032-.032v0-.064 0-.064 0l.032-.032v0l.032-.064v0-.031 0l.032-.032v0l.032-.064v0l.064-.032v0l.032-.032v0l.063-.032v0l.032-.032v0h.096v0l.064-.032v0h.095v0l.064-.031v0h.032v.031h.032v0h.032v0-.031 0-.064 0l.032-.032v0-.064 0l.032-.096v0-.063 0l.032-.064v0l.032-.032v0l.031-.064v0-.032 0l.032-.032v0l.032-.064v0l.032-.031v0h-.032v0h-.032v0l-.032-.032v0h-.031v0l-.064.032v0h-.064v0h-.064v0l-.064.031v0h-.063v0l-.032.032v0l-.064.032v0l-.032.032v0l-.032.032v0l-.064.032v0l-.032.032v0l-.032.032v0l-.031.032v0l-.032.063v0l-.032.032v0l-.032.064v0l.064-.446v0h-.67v0l-.479 2.583v0"/><path fill="#fbb231" d="M30.877 16.842v-.064l.032-.064.064-.031.032-.032.064-.032.063-.032h.128l.064.032.064.032.063.032.032.031.032.064.032.064h-.064l-.032-.032-.032-.064-.031-.032-.032-.031-.032-.032h-.064l-.064-.032-.032.032H31.1l-.063.032-.032.031-.032.032-.032.064v.032z"/><path fill="#fbb231" d="M31.1 16.842v-.064h.224v.064h-.032v-.032h-.16v.032H31.1z"/><path fill="#fbb231" d="M30.877 16.906v-.064h.064v.064z"/><path fill="#fbb231" d="M31.1 16.906v-.064h.032v.064h.128v-.032h.032v-.032h.032v.064H31.1z"/><path fill="#fbb231" d="M31.483 16.906v-.064h.064v.064z"/><path fill="#fbb231" d="M30.877 16.906v.128l.032.063.064.064.032.032.064.032.063.032h.128l.064-.032.064-.032.063-.032.032-.064.032-.064.032-.063v-.064h-.064v.064l-.032.064-.032.031-.031.032-.032.064h-.032l-.064.032h-.096l-.064-.032h-.063l-.032-.064-.032-.032-.032-.032v-.127z"/><path fill="#fbb231" d="M31.1 16.906v.127h.032v-.095h.064l.096.095h.032l-.064-.095.032-.032h.032-.224z"/><path fill="#fff" d="M19.65 12.695h-.894v-.16l.032-.063.191-.191.032-.032.064-.064h.255l.032.032.032.032.032.032.064.064.032.031.031.032.032.032v.192zm.669-.223l-.032-.16-.032-.127-.064-.096-.127-.191-.064-.064-.191-.064-.096-.032-.096-.031-.096-.032h-.382l-.16.032-.16.031-.159.064-.127.064-.096.096-.096.095-.064.096-.095.096-.064.096-.032.095-.032.096-.032.096v.669l.032.16.032.128.064.127.064.096.191.191.096.064.095.064.128.032.128.032.255.063h.957l.032-.032.032-.031.095-.606-.127.031-.064.032-.064.032-.096.032h-.86l-.065-.032-.032-.032-.031-.032-.128-.127-.032-.032-.032-.064-.032-.032v-.127h1.563v-.16l.064-.383z"/></svg>