<svg xmlns="http://www.w3.org/2000/svg" width="40" height="25" viewBox="0 0 40 25"><defs><linearGradient id="fqtfa" x1="25.58" x2="33.56" y1="134.6" y2="134.6" gradientUnits="userSpaceOnUse"><stop offset=".3" stop-color="#00b4e6"/><stop offset="1" stop-color="#088ccb"/></linearGradient></defs><path fill="#f8f8f8" d="M40 23.406A1.58 1.58 0 0 1 38.405 25H1.595A1.58 1.58 0 0 1 0 23.406V1.594A1.58 1.58 0 0 1 1.595 0h36.81A1.58 1.58 0 0 1 40 1.594z"/><path fill="#4db45e" d="M13.748 8.676s-1.053 0-1.34 1.021c-.255.925-.989 3.477-1.02 3.54h-.192s-.733-2.615-1.02-3.54c-.288-1.02-1.34-1.02-1.34-1.02H6.41v7.687h2.425V11.77h.191l1.404 4.562h1.69l1.404-4.562h.191v4.562h2.424V8.676z"/><path fill="#4db45e" d="M22.584 8.676s-.702.064-1.053.798l-1.722 3.764h-.192V8.676h-2.424v7.688h2.265s.733-.064 1.084-.798l1.69-3.764h.192v4.562h2.424V8.676z"/><path fill="#4db45e" d="M25.933 12.153v4.179h2.424v-2.456h2.584a2.589 2.589 0 0 0 2.456-1.755h-7.464z"/><path fill="url(#fqtfa)" d="M30.941 8.676h-5.359c.255 1.468 1.372 2.648 2.775 3.03.32.096.67.128 1.021.128h4.147c.032-.16.064-.35.064-.542a2.655 2.655 0 0 0-2.648-2.616z"/></svg>