<svg xmlns="http://www.w3.org/2000/svg" width="40" height="25" viewBox="0 0 40 25"><path fill="#f8f8f8" d="M40 23.406A1.58 1.58 0 0 1 38.405 25H1.595A1.58 1.58 0 0 1 0 23.406V1.594A1.58 1.58 0 0 1 1.595 0h36.81A1.58 1.58 0 0 1 40 1.594z"/><path fill="#0066b2" d="M18.405 16.268H16.46l1.212-7.528h1.978z"/><path fill="#0066b2" d="M14.8 8.74l-1.85 5.167-.223-1.116-.67-3.381s-.063-.67-.925-.67H8.038l-.032.128s.957.191 2.042.86l1.722 6.54h2.042l3.094-7.528z"/><path fill="#0066b2" d="M28.038 13.589l1.021-2.808.574 2.808zm2.137 2.679h1.787l-1.563-7.496h-1.563c-.734 0-.893.574-.893.574l-2.903 6.922h2.041l.415-1.116h2.488z"/><path fill="#0066b2" d="M25.167 10.558l.288-1.627s-.862-.319-1.755-.319c-.957 0-3.285.415-3.285 2.488 0 1.946 2.711 1.978 2.711 2.967 0 1.02-2.424.83-3.222.191l-.287 1.691s.861.415 2.201.415 3.35-.702 3.35-2.584c0-1.946-2.744-2.137-2.744-2.967.032-.829 1.914-.701 2.743-.255z"/><path fill="#f9a533" d="M12.727 12.791l-.67-3.381s-.063-.67-.925-.67H8.038l-.032.128s1.468.319 2.903 1.467c1.372 1.084 1.818 2.456 1.818 2.456z"/></svg>