<svg xmlns="http://www.w3.org/2000/svg" width="34" height="37" viewBox="0 0 34 37"><path id="headphones" d="M34.373,26.982,33.8,19.54a3.3,3.3,0,0,0-3.269-3.108h-.315V12.873a12.836,12.836,0,1,0-25.672,0v3.559H4.228A3.3,3.3,0,0,0,.959,19.54L.385,26.972c0,.005,0,.015,0,.019,0,.061-.005.138-.005.2a3.3,3.3,0,0,0,3.274,3.3H7.432a.7.7,0,0,0,.683-.653l.863-12.623a.74.74,0,0,0-.183-.538.708.708,0,0,0-.5-.24H5.912V12.873a11.467,11.467,0,1,1,22.934,0v3.559H26.462a.717.717,0,0,0-.683.762l.863,12.635a.7.7,0,0,0,.683.658h1.606v2.182a2.96,2.96,0,0,1-2.937,2.96h-7.6a.686.686,0,0,0,0,1.371h7.6A4.332,4.332,0,0,0,30.3,32.668V30.486h.8a3.292,3.292,0,0,0,3.274-3.294c0-.061,0-.129-.005-.188,0-.005,0-.017,0-.022ZM6.793,29.115H3.653a1.921,1.921,0,0,1-1.905-1.922c0-.033,0-.073,0-.106l.574-7.425s0-.031,0-.036a1.925,1.925,0,0,1,1.9-1.823H7.562Zm24.312,0H27.965L27.2,17.8H30.53a1.924,1.924,0,0,1,1.9,1.821c0,.005,0,.019,0,.024l.574,7.426c0,.033,0,.083,0,.116a1.923,1.923,0,0,1-1.9,1.924Zm0,0" transform="translate(-.379)" fill="#c62828"/></svg>