<svg xmlns="http://www.w3.org/2000/svg" width="37" height="36.393" viewBox="0 0 37 36.393"><g id="Group_986" data-name="Group 986" transform="translate(-802 21220)"><g id="Group_769" data-name="Group 769" transform="translate(802 -21220)"><path id="Path_842" data-name="Path 842" d="M33.943,4.492H31.975V.59A.621.621,0,0,0,31.333,0h-6.2a.6.6,0,0,0-.617.589v3.9H12.561V.59A.626.626,0,0,0,11.915,0h-6.2A.6.6,0,0,0,5.1.59v3.9H3.056A3.063,3.063,0,0,0,0,7.523V33.39a3.038,3.038,0,0,0,3.056,3H33.943a3.038,3.038,0,0,0,3.056-3V7.523a3.063,3.063,0,0,0-3.056-3.031ZM25.732,1.219h5.025V7H25.732Zm-19.414,0h5.025V7H6.319ZM3.056,5.711H5.1V7.623a.6.6,0,0,0,.612.6h6.2a.635.635,0,0,0,.647-.6V5.711H24.514V7.623a.609.609,0,0,0,.617.6h6.2a.63.63,0,0,0,.641-.6V5.711h1.968a1.844,1.844,0,0,1,1.838,1.813v3.212H1.218V7.523A1.844,1.844,0,0,1,3.056,5.711ZM33.943,35.174H3.056A1.819,1.819,0,0,1,1.218,33.39V11.953H35.782V33.39A1.819,1.819,0,0,1,33.943,35.174Zm0,0" fill="#c62828"/><path id="Path_870" data-name="Path 870" d="M813.849-20981H844.3" transform="translate(-810.576 21000.412)" fill="none" stroke="#c62828" stroke-width="1"/><path id="Path_871" data-name="Path 871" d="M813.849-20981H844.3" transform="translate(-810.576 21008.48)" fill="none" stroke="#c62828" stroke-width="1"/><path id="Path_872" data-name="Path 872" d="M0,0H19.794" transform="rotate(-90 25.999 7.499)" fill="none" stroke="#c62828" stroke-width="1"/><path id="Path_874" data-name="Path 874" d="M0,0H19.794" transform="rotate(-90 20.975 12.523)" fill="none" stroke="#c62828" stroke-width="1"/><path id="Path_873" data-name="Path 873" d="M0,0H19.794" transform="rotate(-90 31.024 2.474)" fill="none" stroke="#c62828" stroke-width="1"/></g></g></svg>