<svg xmlns="http://www.w3.org/2000/svg" width="40" height="40.01" viewBox="0 0 40 40.01"><g id="feedback" transform="translate(-.043 .002)" fill="#c62828"><path id="Path_856" data-name="Path 856" d="M36.3,0H3.787A3.71,3.71,0,0,0,.043,3.7V25.946a3.717,3.717,0,0,0,3.744,3.708H8.714a11.375,11.375,0,0,0,22.659,0H36.3a3.717,3.717,0,0,0,3.744-3.708V3.7A3.71,3.71,0,0,0,36.3,0ZM3.787,1.575H36.3a2.145,2.145,0,0,1,1.695.795L21.037,13.426a2.163,2.163,0,0,1-2.4-.024L2.139,2.316a2.147,2.147,0,0,1,1.648-.741ZM20.043,38.467a9.8,9.8,0,1,1,9.8-9.8A9.8,9.8,0,0,1,20.043,38.467ZM38.467,25.946A2.139,2.139,0,0,1,36.3,28.077H31.405a11.376,11.376,0,0,0-22.724,0H3.787a2.139,2.139,0,0,1-2.167-2.131V3.841L17.755,14.7a3.736,3.736,0,0,0,4.144.03L38.467,3.921Zm0,0"/><path id="Path_857" data-name="Path 857" d="M145.149,224.355a6.189,6.189,0,0,0-4.858,1.971,7.214,7.214,0,0,0-1.572,4.814,6.744,6.744,0,0,0,1.707,4.833,5.361,5.361,0,0,0,3.884,1.58c1.188,0,3.408-.354,3.408-1.206,0-.265-.222-.759-.647-.759a1.668,1.668,0,0,0-.523.135,5.244,5.244,0,0,1-1.958.35c-3.476,0-4.205-2.692-4.205-4.951,0-4.37,2.591-5.287,4.765-5.287,3.063,0,4.616,1.722,4.616,5.119,0,2.347-.722,2.6-1.033,2.6-.233,0-.523-.1-.622-.847v-3.153c0-1.761-1.534-2.55-3.054-2.55-1.6,0-2.718.685-2.718,1.3,0,.332.259.945.628.945a.962.962,0,0,0,.418-.149,2.7,2.7,0,0,1,1.4-.355c1,0,1.453.4,1.453,1.257v.229h-.529c-2.557,0-3.8.767-3.8,2.345a2.181,2.181,0,0,0,2.381,2.2,2.849,2.849,0,0,0,2.309-1.21,1.951,1.951,0,0,0,1.982,1.3c2.072,0,2.811-2.214,2.811-4.285C151.393,226.682,149.059,224.355,145.149,224.355Zm1.188,7.059v.491a1.649,1.649,0,0,1-1.6,1.481.737.737,0,0,1-.805-.827c0-.794.64-1.145,2.007-1.145Zm0,0" transform="translate(-125.013 -202.252)"/></g></svg>