<svg xmlns="http://www.w3.org/2000/svg" width="22" height="14" viewBox="0 0 22 14"><path fill="#1565c0" d="M17.853 6.87s2.732-4.106 2.997-5.452c.09-.478-.106-.755-.577-.755h-2.367a.874.874 0 0 0-.906.618 23.112 23.112 0 0 1-2.838 4.74c-.502.593-.754.77-1.027.77-.22 0-.327-.194-.327-.73V1.377c0-.66-.07-.844-.58-.844H8.433a.416.416 0 0 0-.327.104.436.436 0 0 0-.145.319c0 .617.883.755.883 2.426v3.45c0 .69-.038.966-.342.966-.81 0-2.747-2.987-3.828-6.377C4.46.727 4.223.532 3.607.532H1.24a.57.57 0 0 0-.428.176.598.598 0 0 0-.164.442c0 .676.737 3.798 3.652 7.977 1.948 2.817 4.52 4.334 6.833 4.334 1.408 0 1.75-.252 1.75-.884V10.42c0-.536.198-.77.487-.77.327 0 .9.113 2.238 1.525 1.59 1.612 1.694 2.294 2.564 2.294h2.656c.27 0 .525-.137.525-.617 0-.633-.776-1.77-1.97-3.124-.488-.694-1.287-1.445-1.541-1.794-.355-.403-.25-.641.011-1.064z"/></svg>