<svg xmlns="http://www.w3.org/2000/svg" width="16" height="15.246" viewBox="0 0 16 15.246"><path id="star" d="M3.233,16.562a.286.286,0,0,1-.282-.335l.885-5.16L.087,7.413a.286.286,0,0,1,.159-.488l5.181-.753L7.744,1.477A.286.286,0,0,1,8,1.317H8a.285.285,0,0,1,.257.16l2.317,4.695,5.181.753a.286.286,0,0,1,.159.488l-3.749,3.655.885,5.16a.286.286,0,0,1-.416.3L8,14.093,3.366,16.529A.289.289,0,0,1,3.233,16.562ZM.9,7.408l3.441,3.355a.286.286,0,0,1,.082.253l-.812,4.736,4.254-2.236a.285.285,0,0,1,.267,0l4.254,2.236-.812-4.736a.287.287,0,0,1,.082-.253L15.1,7.408l-4.756-.691a.286.286,0,0,1-.216-.157L8,2.251,5.873,6.56a.286.286,0,0,1-.216.157Z" transform="translate(0 -1.316)" fill="#c62828"/></svg>