<svg xmlns="http://www.w3.org/2000/svg" width="18" height="15" viewBox="0 0 18 15"><path fill="#1565c0" d="M5.645 14.723a10.417 10.417 0 0 0 7.464-2.99 10.413 10.413 0 0 0 3.107-7.415c0-.158 0-.316-.01-.472a7.493 7.493 0 0 0 1.852-1.894 7.486 7.486 0 0 1-2.133.576 3.684 3.684 0 0 0 1.63-2.023 7.5 7.5 0 0 1-2.36.887A3.762 3.762 0 0 0 10.73.668a3.642 3.642 0 0 0-1.869 4.057A10.6 10.6 0 0 1 1.205.904a3.623 3.623 0 0 0 1.15 4.883 3.721 3.721 0 0 1-1.686-.459v.046A3.674 3.674 0 0 0 3.65 8.96a3.768 3.768 0 0 1-1.678.062 3.713 3.713 0 0 0 3.472 2.541A7.53 7.53 0 0 1-.059 13.08a10.64 10.64 0 0 0 5.695 1.64"/></svg>