<svg xmlns="http://www.w3.org/2000/svg" width="45" height="45" viewBox="0 0 45 45"><g id="phone-call" transform="translate(-.322)" fill="#c62828"><path id="Path_866" data-name="Path 866" d="M17.951,135.584a7.13,7.13,0,0,0,9.971,0l2.581-2.529a2.681,2.681,0,0,0,1.748.655h.015a2.665,2.665,0,0,0,1.893-.8l1.384-1.4a2.61,2.61,0,0,0-.021-3.7L28.99,121.38a2.7,2.7,0,0,0-3.794.02l-1.384,1.393a2.608,2.608,0,0,0-.506,2.955l-1.348,1.327a1.133,1.133,0,0,1-1.6.005l-9.344-9.2c-.017-.017-.035-.035-.051-.053a1.092,1.092,0,0,1,.057-1.507l1.333-1.312a2.7,2.7,0,0,0,3.064-.5l1.409-1.387a2.6,2.6,0,0,0,0-3.715L10.3,102.976a2.7,2.7,0,0,0-3.773,0l-1.409,1.388a2.6,2.6,0,0,0-.156,3.546l-2.573,2.533a6.866,6.866,0,0,0,0,9.818ZM24.9,123.842l1.384-1.41a1.154,1.154,0,0,1,.811-.355H27.1a1.161,1.161,0,0,1,.808.347l6.532,6.439a1.123,1.123,0,0,1,.009,1.588l-1.384,1.4a1.2,1.2,0,0,1-.833.34,1.335,1.335,0,0,1-.837-.329l-6.51-6.43a1.117,1.117,0,0,1,.013-1.584ZM6.195,105.425,7.6,104.037a1.156,1.156,0,0,1,1.617,0l6.531,6.431a1.114,1.114,0,0,1,0,1.592l-1.409,1.388a1.158,1.158,0,0,1-1.617,0l-6.531-6.431A1.116,1.116,0,0,1,6.195,105.425ZM3.466,111.5l2.565-2.526,5.147,5.068-1.225,1.206a2.592,2.592,0,0,0-.128,3.568c.041.045.083.089.121.126l9.343,9.2a2.681,2.681,0,0,0,3.741-.005l1.241-1.222,5.147,5.068-2.575,2.535a5.588,5.588,0,0,1-7.815,0L3.466,119.2a5.383,5.383,0,0,1,0-7.695Zm0,0" transform="translate(0 -92.618)"/><path id="Path_867" data-name="Path 867" d="M222.158,0h.023V.016a12.558,12.558,0,0,0-11.3,6.946A12.191,12.191,0,0,0,212.309,20l-1.794,4.109a.742.742,0,0,0,.1.762.77.77,0,0,0,.728.276l6.63-1.165a12.265,12.265,0,0,0,4.123.69h.046a12.45,12.45,0,0,0,12.534-12.32A12.443,12.443,0,0,0,222.158,0Zm-.035,23.213a10.794,10.794,0,0,1-3.807-.684.773.773,0,0,0-.4-.038l-5.445.94,1.419-3.253a.742.742,0,0,0-.122-.785,10.662,10.662,0,0,1-2.633-7,10.839,10.839,0,0,1,6.789-10.028,11.135,11.135,0,0,1,12.005,2.347,10.718,10.718,0,0,1,2.383,11.821,11.013,11.013,0,0,1-10.186,6.683Zm0,0" transform="translate(-189.353)"/><path id="Path_868" data-name="Path 868" d="M289.6,106.5h3.669a.751.751,0,1,0,0-1.5H289.6a.751.751,0,1,0,0,1.5Zm0,0" transform="translate(-261.022 -95.149)"/><path id="Path_869" data-name="Path 869" d="M298.025,141H289.6a.751.751,0,1,0,0,1.5h8.423a.751.751,0,1,0,0-1.5Zm0,0" transform="translate(-261.025 -127.772)"/></g></svg>