<svg xmlns="http://www.w3.org/2000/svg" width="30" height="29.166" viewBox="0 0 30 29.166"><g id="Group_1096" data-name="Group 1096" transform="translate(0 -.443)" fill="#c62828"><path id="Path_858" data-name="Path 858" d="M155.16,54.175a5.4,5.4,0,1,0-5.442-5.4A5.423,5.423,0,0,0,155.16,54.175Zm0-9.793a4.389,4.389,0,1,1-4.42,4.389A4.4,4.4,0,0,1,155.16,44.382Zm0,0" transform="translate(-140.16 -40.203)"/><path id="Path_859" data-name="Path 859" d="M.511,29.609H29.489a.518.518,0,0,0,.394-.187.51.51,0,0,0,.108-.42l-2.8-14.645a.506.506,0,0,0-.5-.408H21.608a8.3,8.3,0,0,0,.525-9.574A8.422,8.422,0,0,0,6.671,7.648,8.443,8.443,0,0,0,7.6,12.776s0,.009,0,.011a12.391,12.391,0,0,0,.76,1.163H3.314a.505.505,0,0,0-.5.407L.009,29a.507.507,0,0,0,.108.419.514.514,0,0,0,.394.186Zm24.066-1.014V21.558h2.945l1.351,7.037ZM7.683,7.785a7.357,7.357,0,0,1,4.974-5.939A7.433,7.433,0,0,1,20.23,3.611a7.226,7.226,0,0,1,2.155,5.178A7.324,7.324,0,0,1,20.193,14l-5.211,5.175L9.77,14a7.575,7.575,0,0,1-1.269-1.7,7.43,7.43,0,0,1-.817-4.508ZM3.737,14.964H9.289l5.332,5.289a.521.521,0,0,0,.722,0l5.331-5.291h5.589l1.064,5.579H24.093a.511.511,0,0,0-.538.48v7.571h-6.9V25.679a.509.509,0,0,0-.511-.507H10.914V22.762a.509.509,0,0,0-.511-.507H2.34ZM2.145,23.269H9.892v2.409a.509.509,0,0,0,.511.507h5.235v2.409H1.127Zm0,0"/></g></svg>