<svg xmlns="http://www.w3.org/2000/svg" width="120.823" height="120.794" viewBox="0 0 120.823 120.794"><g id="Group_218" transform="translate(.448 .388)"><g id="Group_217" fill="none" stroke="#fff" stroke-miterlimit="10" stroke-width=".75"><path id="Path_1073" d="M314.7,573.86l-6.323,6.583-1.915-1.829,4.819-5.015-2.748-2.623-4.819,5.015-1.9-1.817,6.323-6.578Z" transform="translate(-209.959 -553.958)"/><path id="Path_1074" d="M307.222,578.859a4.459,4.459,0,0,1,.379-2.415,4.894,4.894,0,0,1,4.02-2.718,4.477,4.477,0,0,1,2.393.54,5.466,5.466,0,0,1,1.954,1.8,5.4,5.4,0,0,1,.952,2.467,4.468,4.468,0,0,1-.382,2.407,4.894,4.894,0,0,1-4.02,2.723,4.508,4.508,0,0,1-2.387-.537,5.416,5.416,0,0,1-1.951-1.79A5.481,5.481,0,0,1,307.222,578.859Zm4.267,2.252a2.927,2.927,0,0,0,3.05-2.064,2.2,2.2,0,0,0-.37-1.765,2.242,2.242,0,0,0-1.514-1,2.9,2.9,0,0,0-3.052,2.064,2.387,2.387,0,0,0,1.886,2.767Z" transform="translate(-206.2 -549.712)"/><path id="Path_1075" d="M319.1,586.771l-1.874-4.286-6.387,2.772-1.052-2.406,8.383-3.638L321.1,585.9Z" transform="translate(-204.383 -545.901)"/><path id="Path_1076" d="M312.184,587.95a4.461,4.461,0,0,1,1.217-2.12,4.907,4.907,0,0,1,4.731-1.111,4.47,4.47,0,0,1,2.041,1.357,5.441,5.441,0,0,1,1.181,2.374,5.368,5.368,0,0,1,.007,2.642,4.49,4.49,0,0,1-1.22,2.115,4.907,4.907,0,0,1-4.731,1.111,4.515,4.515,0,0,1-2.039-1.346,5.819,5.819,0,0,1-1.186-5.021Zm3.178,3.622a2.938,2.938,0,0,0,3.591-.843,2.376,2.376,0,0,0-.771-3.255,2.9,2.9,0,0,0-3.589.843,2.378,2.378,0,0,0,.77,3.255Z" transform="translate(-202.821 -542.229)"/><path id="Path_1077" d="M315.773,600.32a2.236,2.236,0,0,1-1.947-.874,4.7,4.7,0,0,1-.765-2.755l-.146-4.857,9.137-.274.141,4.655a4.9,4.9,0,0,1-.539,2.691,1.962,1.962,0,0,1-1.711,1.018,2.107,2.107,0,0,1-1.208-.312,2.253,2.253,0,0,1-.836-.965A2.129,2.129,0,0,1,315.773,600.32Zm.129-2.476a.9.9,0,0,0,.763-.362,1.852,1.852,0,0,0,.214-1.074l-.07-2.269-2.02.061.066,2.217Q314.9,597.873,315.9,597.845Zm2.471-3.751.059,1.995q.043,1.389,1.028,1.36.966-.03.926-1.417l-.061-2Z" transform="translate(-202.197 -537.338)"/><path id="Path_1078" d="M313.559,599.375a4.5,4.5,0,0,1,1.954-1.48,4.913,4.913,0,0,1,4.789.82,4.453,4.453,0,0,1,1.347,2.042,5.819,5.819,0,0,1-.873,5.082,4.51,4.51,0,0,1-1.952,1.472,4.91,4.91,0,0,1-4.79-.818,4.487,4.487,0,0,1-1.348-2.036,5.381,5.381,0,0,1-.158-2.637A5.45,5.45,0,0,1,313.559,599.375Zm1.507,4.571a2.936,2.936,0,0,0,3.635.62,2.2,2.2,0,0,0,.962-1.528,2.225,2.225,0,0,0-.394-1.768,2.9,2.9,0,0,0-3.635-.622,2.228,2.228,0,0,0-.963,1.538A2.2,2.2,0,0,0,315.066,603.946Z" transform="translate(-202.533 -533.153)"/><path id="Path_1079" d="M318.666,614.613a4.217,4.217,0,0,1-2.143.9,5.455,5.455,0,0,1-4.585-1.849,4.2,4.2,0,0,1-.911-2.132,4.619,4.619,0,0,1,.326-2.361,3.528,3.528,0,0,1,2.058-2.131l-3.954-1.6,1-2.447,11.53,4.652-.95,2.34-.977-.394a3.494,3.494,0,0,1,.024,3.1A4.634,4.634,0,0,1,318.666,614.613Zm-5.113-3.25a2.927,2.927,0,0,0,3.417,1.379,2.37,2.37,0,0,0,1.257-3.091,2.932,2.932,0,0,0-3.419-1.382,2.371,2.371,0,0,0-1.256,3.094Z" transform="translate(-204.615 -529.407)"/><path id="Path_1080" d="M318.986,615.012l-1.5,2.154-4.464-3.094,1.922,6.739-1.387,1.986-7.506-5.2,1.5-2.154,4.464,3.094-1.932-6.723,1.4-2Z" transform="translate(-206.999 -524.681)"/><path id="Path_1081" d="M302.149,621.177l3.623,4.088-.987-5.233.841-.74,5.047,1.68-3.633-4.1,1.8-1.582,6.051,6.828-2.075,1.827-5.691-2.017,1.169,6-1.859,1.638-6.078-6.808Z" transform="translate(-210.982 -520.881)"/><path id="Path_1082" d="M292.26,634.222l-2.758-8.688,2.528-.8,2.1,6.62,3.63-1.141-2.1-6.62,2.511-.791,2.756,8.686Z" transform="translate(-218.569 -515.67)"/><path id="Path_1083" d="M290.343,625.159a4.461,4.461,0,0,1,1.941,1.494,4.867,4.867,0,0,1,.452,4.821,4.47,4.47,0,0,1-1.63,1.829,5.862,5.862,0,0,1-5.152.481,4.519,4.519,0,0,1-1.932-1.5,4.866,4.866,0,0,1-.452-4.821,4.5,4.5,0,0,1,1.621-1.827,5.862,5.862,0,0,1,5.152-.479Zm-4.036,2.638a2.905,2.905,0,0,0,.343,3.66,2.217,2.217,0,0,0,1.73.527,2.245,2.245,0,0,0,1.611-.84,2.879,2.879,0,0,0-.343-3.658,2.234,2.234,0,0,0-1.74-.527A2.2,2.2,0,0,0,286.308,627.8Z" transform="translate(-223.025 -514.306)"/><path id="Path_1084" d="M277.547,631.406l4.671.415.617-6.916,2.624.232-.809,9.076-7.295-.645Z" transform="translate(-227.063 -514.213)"/><path id="Path_1085" d="M279.993,625.21a4.473,4.473,0,0,1,1.286,2.083A4.867,4.867,0,0,1,280,631.964a4.5,4.5,0,0,1-2.172,1.138,5.5,5.5,0,0,1-2.659-.1,5.448,5.448,0,0,1-2.331-1.26,4.5,4.5,0,0,1-1.28-2.08,4.873,4.873,0,0,1,1.285-4.671A4.508,4.508,0,0,1,275,623.85a5.451,5.451,0,0,1,2.651.1A5.521,5.521,0,0,1,279.993,625.21Zm-4.71,1.052a2.9,2.9,0,0,0-.975,3.543,2.215,2.215,0,0,0,1.433,1.1,2.246,2.246,0,0,0,1.8-.22,2.878,2.878,0,0,0,.974-3.544,2.39,2.39,0,0,0-3.235-.882Z" transform="translate(-231.234 -515.027)"/><path id="Path_1086" d="M267.1,622.437a2.235,2.235,0,0,1,1.7-1.282,4.732,4.732,0,0,1,2.792.654l4.347,2.2-4.143,8.122-4.165-2.11a4.951,4.951,0,0,1-2.112-1.765,1.949,1.949,0,0,1-.075-1.985,2.1,2.1,0,0,1,.855-.906,2.286,2.286,0,0,1,1.251-.268A2.12,2.12,0,0,1,267.1,622.437Zm4.236,5.263-1.788-.906c-.827-.418-1.392-.339-1.689.246s-.024,1.07.8,1.49l1.788.906Zm-2.117-3.961a.891.891,0,0,0-.048.842,1.849,1.849,0,0,0,.845.7l2.029,1.03.916-1.8-1.985-1.006Q269.673,622.849,269.219,623.74Z" transform="translate(-235.555 -516.836)"/><path id="Path_1087" d="M269.29,621a4.474,4.474,0,0,1,.36,2.418,4.875,4.875,0,0,1-3.025,3.789,4.5,4.5,0,0,1-2.445.195,5.492,5.492,0,0,1-2.4-1.138,5.424,5.424,0,0,1-1.645-2.073,4.48,4.48,0,0,1-.355-2.413,4.894,4.894,0,0,1,3.026-3.79,4.51,4.51,0,0,1,2.439-.2A5.857,5.857,0,0,1,269.29,621Zm-4.746-.884a2.92,2.92,0,0,0-2.3,2.876,2.2,2.2,0,0,0,.882,1.577,2.244,2.244,0,0,0,1.745.506,2.886,2.886,0,0,0,2.3-2.877,2.392,2.392,0,0,0-2.627-2.081Z" transform="translate(-239.383 -519.203)"/><path id="Path_1088" d="M254.716,618.107a4.156,4.156,0,0,1,.234-2.3,5.441,5.441,0,0,1,3.822-3.126,4.228,4.228,0,0,1,2.316.222,4.67,4.67,0,0,1,1.924,1.417,3.509,3.509,0,0,1,.892,2.818l3.3-2.694,1.682,2.042-9.618,7.861-1.606-1.951.814-.665a3.52,3.52,0,0,1-2.739-1.462A4.611,4.611,0,0,1,254.716,618.107Zm5.31-2.918a2.918,2.918,0,0,0-2.85,2.33A2.373,2.373,0,0,0,259.3,620.1a2.921,2.921,0,0,0,2.851-2.332,2.375,2.375,0,0,0-2.124-2.578Z" transform="translate(-242.942 -522.743)"/><path id="Path_1089" d="M254.356,618.471l-1.179-2.347,4.862-2.427-6.857-1.539-1.088-2.168,8.175-4.078,1.179,2.347-4.862,2.425,6.848,1.528,1.094,2.179Z" transform="translate(-246.126 -527.385)"/><path id="Path_1090" d="M257.2,600.715l-5.337,1.2,5.077,1.651.248,1.092-3.9,3.6,5.354-1.2.528,2.329-8.918,2.007-.61-2.691,4.51-4-5.839-1.861-.547-2.413,8.909-2.039Z" transform="translate(-247.759 -532.604)"/><path id="Path_1091" d="M249.5,585.574l8.972,1.744-.506,2.593-6.838-1.328-.729,3.722,6.838,1.329-.5,2.574-8.974-1.743Z" transform="translate(-247.757 -541.49)"/><path id="Path_1092" d="M257.683,588.126a4.463,4.463,0,0,1-2.246.982,4.9,4.9,0,0,1-4.464-1.915,4.455,4.455,0,0,1-.829-2.3,5.829,5.829,0,0,1,2.044-4.737,4.492,4.492,0,0,1,2.243-.974,4.651,4.651,0,0,1,2.488.366,4.6,4.6,0,0,1,1.976,1.55,4.461,4.461,0,0,1,.833,2.291,5.378,5.378,0,0,1-.467,2.6A5.473,5.473,0,0,1,257.683,588.126Zm-.391-4.8a2.933,2.933,0,0,0-3.387-1.451,2.378,2.378,0,0,0-1.327,3.072,2.9,2.9,0,0,0,3.387,1.453,2.238,2.238,0,0,0,1.3-1.268A2.2,2.2,0,0,0,257.292,583.33Z" transform="translate(-246.102 -545.95)"/><path id="Path_1093" d="M258.48,574.443l-2.615,3.88,5.784,3.87-1.466,2.181-7.591-5.079,4.082-6.059Z" transform="translate(-244.379 -550.047)"/><path id="Path_1094" d="M262.675,579a4.511,4.511,0,0,1-2.449.125,4.652,4.652,0,0,1-2.2-1.221,4.588,4.588,0,0,1-1.3-2.146,4.446,4.446,0,0,1,.042-2.444,5.821,5.821,0,0,1,3.6-3.707,4.5,4.5,0,0,1,2.444-.12,4.63,4.63,0,0,1,2.2,1.219,4.58,4.58,0,0,1,1.3,2.146,4.468,4.468,0,0,1-.036,2.437,5.394,5.394,0,0,1-1.361,2.269A5.5,5.5,0,0,1,262.675,579Zm1.339-4.623a2.921,2.921,0,0,0-2.651-2.554,2.384,2.384,0,0,0-2.333,2.4,2.888,2.888,0,0,0,2.653,2.554,2.239,2.239,0,0,0,1.664-.728A2.2,2.2,0,0,0,264.014,574.381Z" transform="translate(-241.591 -552.723)"/><path id="Path_1095" d="M271.84,569.167a2.217,2.217,0,0,1,.316,2.105,4.711,4.711,0,0,1-1.912,2.132l-4.02,2.75-5.174-7.513,3.852-2.635a4.958,4.958,0,0,1,2.564-1,1.959,1.959,0,0,1,1.784.882,2.091,2.091,0,0,1,.391,1.182,2.277,2.277,0,0,1-.362,1.223A2.136,2.136,0,0,1,271.84,569.167Zm-6.663,1.191,1.653-1.131q1.15-.785.591-1.6t-1.7-.01l-1.652,1.131Zm4.5.042a.9.9,0,0,0-.717-.444,1.853,1.853,0,0,0-1.023.4l-1.878,1.284,1.145,1.661,1.835-1.255Q270.249,571.225,269.681,570.4Z" transform="translate(-238.465 -555.758)"/><path id="Path_1096" d="M271.576,571.6a4.484,4.484,0,0,1-2.3-.842,4.873,4.873,0,0,1-1.89-4.461,4.45,4.45,0,0,1,1-2.234,5.5,5.5,0,0,1,2.153-1.558,5.434,5.434,0,0,1,2.613-.445,4.5,4.5,0,0,1,2.294.845,4.864,4.864,0,0,1,1.891,4.461,4.478,4.478,0,0,1-.994,2.229,5.413,5.413,0,0,1-2.144,1.554A5.483,5.483,0,0,1,271.576,571.6Zm3.05-3.729a2.909,2.909,0,0,0-1.434-3.384,2.391,2.391,0,0,0-3.091,1.3,2.523,2.523,0,0,0,.105,1.948,2.548,2.548,0,0,0,1.329,1.438,2.248,2.248,0,0,0,1.817-.02A2.193,2.193,0,0,0,274.626,567.873Z" transform="translate(-234.068 -557.809)"/><path id="Path_1097" d="M281.462,560.246a4.22,4.22,0,0,1,1.915,1.316,5.4,5.4,0,0,1,.907,4.844,4.205,4.205,0,0,1-1.31,1.915,4.657,4.657,0,0,1-2.172,1,3.527,3.527,0,0,1-2.909-.577l.783,4.18-2.607.483-2.282-12.185,2.488-.464.194,1.033a3.511,3.511,0,0,1,2.6-1.69A4.667,4.667,0,0,1,281.462,560.246Zm.01,6.046a2.908,2.908,0,0,0-.678-3.612,2.386,2.386,0,0,0-3.29.611,2.905,2.905,0,0,0,.676,3.612,2.384,2.384,0,0,0,3.292-.611Z" transform="translate(-229.558 -559.22)"/><path id="Path_1098" d="M281.615,559.543l2.632.093-.194,5.416,4.642-5.259,2.43.086-.326,9.106-2.632-.095.194-5.416-4.625,5.26-2.445-.086Z" transform="translate(-224.312 -559.543)"/><path id="Path_1099" d="M296.6,571.247l1.5-5.247-3.885,3.656-1.081-.307-1.307-5.141-1.5,5.262-2.3-.652,2.5-8.764,2.664.754,1.366,5.861,4.437-4.218,2.386.676L298.9,571.9Z" transform="translate(-219.61 -559.188)"/></g></g></svg>