<svg xmlns="http://www.w3.org/2000/svg" width="80" height="42" viewBox="0 0 80 42"><path fill="#fff" d="M78.625 5.704c.588-.242 1.325-2.777 1.37-3.418C80.09.92 78.835 1.15 77.83.78c-.355-.13-.469-.287-.615-.78-.584.178-1.383 2.975-1.38 3.449.011 1.721 2.586.586 2.79 2.255"/><path fill="#fff" d="M.41 8.347h11.737c1.73 0 2.91.318 3.536.958.928.956 1.39 2.965 1.39 6.027 0 3.049-.462 5.051-1.39 6.005-.627.653-1.805.98-3.536.98H.41zm21.648 9.908c0 1.088.303 1.76.91 2.011.606.254 2.218.38 4.835.38 2.645 0 4.267-.126 4.866-.38.6-.25.9-.923.9-2.01v-9.91h2.086v9.905c0 1.92-.382 3.101-1.145 3.536-.845.488-3.08.733-6.707.733-3.612 0-5.82-.231-6.624-.692-.805-.463-1.207-1.657-1.207-3.577V8.346h2.086zm32.627-.017c0 1.373-.378 2.396-1.135 3.069-.756.672-1.863 1.01-3.322 1.01H39.003V8.346h10.734c1.431 0 2.529.34 3.293 1.023.763.683 1.144 1.66 1.144 2.947 0 1.403-.525 2.304-1.574 2.7a2.89 2.89 0 0 1 1.431 1.017c.436.587.654 1.32.654 2.204zm-2.597-5.925c0-.642-.163-1.135-.49-1.475-.396-.41-1.02-.616-1.878-.616h-8.631v3.976h8.63c.887 0 1.5-.15 1.848-.46.347-.307.521-.783.521-1.425zm-11 3.763v4.363h9.12c.79 0 1.386-.198 1.788-.6.403-.4.604-.928.604-1.581 0-.638-.205-1.162-.614-1.57-.409-.41-1.001-.612-1.779-.612zm25.814-7.73l7.36 13.97h-2.35l-1.657-3.098h-9.978l-1.636 3.098H56.29l7.361-13.97zm2.454 8.995l-3.804-7.323h-.531l-3.803 7.323zm9.773 4.975h-2.086V8.346h2.086zm-70.93 11.67c3.258 0 5.31.19 6.154.57 1.05.476 1.574 1.618 1.574 3.426 0 1.715-.633 2.835-1.9 3.365-1.036.436-3.136.653-6.298.653-3.422 0-5.623-.375-6.605-1.12C.375 40.306 0 39.063 0 37.148h2.086c0 1.318.293 2.144.879 2.478.585.333 2.18.5 4.784.5 2.549 0 4.203-.124 4.959-.369.756-.244 1.135-.836 1.135-1.775 0-.952-.283-1.542-.849-1.773-.565-.232-2.164-.346-4.795-.346-3.216 0-5.377-.39-6.482-1.164C.872 34.115.45 33.06.45 31.537c0-1.645.508-2.71 1.523-3.191 1.016-.483 3.09-.725 6.226-.725 3.121 0 5.173.374 6.154 1.122.778.6 1.165 1.767 1.165 3.508h-2.044c0-1.206-.307-1.964-.92-2.28-.613-.317-2.065-.473-4.355-.473-1.963 0-3.17.028-3.619.082-1.364.163-2.046.811-2.046 1.947.001.955.37 1.605 1.106 1.943.735.345 2.255.516 4.56.516zm10.96-6.16h2.085v5.934h12.022v-5.934h2.086v13.97h-2.086v-6.159H21.244v6.16h-2.086zM47.257 42c-2.905 0-4.936-.186-6.094-.56-1.16-.374-1.895-1.084-2.208-2.133-.218-.72-.328-2.208-.328-4.465 0-2.299.103-3.787.308-4.466.313-1.062 1.055-1.782 2.228-2.162 1.173-.381 3.203-.571 6.094-.571 2.903 0 4.93.186 6.081.56 1.152.374 1.891 1.092 2.22 2.151.216.721.326 2.217.326 4.488 0 2.283-.103 3.767-.306 4.447-.314 1.059-1.051 1.777-2.209 2.151-1.16.374-3.196.56-6.112.56zm0-1.875c3.215 0 5.11-.238 5.683-.714.573-.48.858-2.007.858-4.58 0-2.587-.283-4.12-.848-4.597-.565-.478-2.464-.716-5.693-.716-3.232 0-5.128.238-5.695.716-.566.477-.849 2.01-.849 4.597 0 2.56.287 4.083.86 4.57.57.482 2.465.724 5.684.724zm11.75 1.671v-13.97h11.41c1.24 0 2.21.366 2.913 1.106.702.737 1.053 1.857 1.053 3.36s-.358 2.621-1.074 3.352c-.716.731-1.707 1.094-2.974 1.094h-9.242v5.058zm2.086-6.935h9.242c.6 0 1.077-.203 1.43-.614.355-.41.532-1.064.532-1.955 0-.89-.174-1.546-.52-1.963-.35-.42-.836-.628-1.464-.628h-9.22zM2.496 20.44h9.63c1.131 0 1.891-.341 2.28-1.034.388-.685.582-2.045.582-4.073 0-2.016-.197-3.374-.593-4.066-.395-.696-1.152-1.044-2.27-1.044h-9.63z"/></svg>