<svg xmlns="http://www.w3.org/2000/svg" width="44" height="44" viewBox="0 0 44 44"><path fill="#d2010f" d="M26.46 18.815l.401-.38c.76-.737 1.465-1.172 2.324-1.43.457-.143.567-.154 1.431-.154 1.079.005 1.486.088 2.263.462 1.293.622 1.987 1.662 2.23 3.33.043.296.07 2.035.087 5.348l.028 4.914h-3.645V26.53c0-4.55-.027-5.19-.225-5.734-.21-.545-.782-.996-1.437-1.117-1.244-.236-2.489.363-2.99 1.442-.412.897-.462 1.596-.468 6.218v3.566h-3.578v-19.59h3.578zm-14.04-3.758v3.742l.42-.413c1.128-1.117 2.4-1.618 3.93-1.552.815.033 1.382.17 2.01.473 1.255.606 1.926 1.525 2.213 3.049.071.38.088 1.227.11 5.497l.022 5.052h-3.573l-.028-4.529c-.027-4.82-.038-5.09-.297-5.668-.462-1.034-1.932-1.392-3.21-.776-.726.347-1.205 1.007-1.442 1.998-.116.456-.121.622-.138 4.721l-.022 4.254H8.787v-19.59h3.634zM20.239.012c-.104.01-.44.05-.743.082C14.172.661 9.013 3.347 5.462 7.408c-2.978 3.4-4.745 7.33-5.356 11.886-.127.94-.144 4.248-.028 5.173.55 4.358 2.109 8.072 4.79 11.418.682.847 2.383 2.548 3.231 3.23 3.485 2.79 7.537 4.43 11.947 4.832.782.071 3.127.071 3.909 0 4.41-.402 8.456-2.036 11.946-4.832.848-.677 2.555-2.383 3.232-3.23 2.686-3.351 4.239-7.06 4.79-11.418.115-.925.098-4.232-.028-5.173-.347-2.592-1.019-4.82-2.13-7.071C38.862 6.368 33.588 2.13 27.262.579 25.47.144 24.461.029 22.275.006a50.312 50.312 0 0 0-2.037.006z"/></svg>