<svg id="Group_52" xmlns="http://www.w3.org/2000/svg" width="62.963" height="19.837" viewBox="0 0 62.963 19.837"><path id="Rectangle_19" fill="#2e00ff" d="M0 0H62.963V19.837H0z"/><path id="Path_45" d="M5.051-108.76v-9.992H0v-2.5H12.626v2.5H7.576v9.992Zm17.677-2.5h2.525v2.5h-10.1v-12.49h10.1v2.5H17.677v2.5h5.051v2.5H17.677v2.5h5.051Zm15.152-5v-2.5H40.4v2.5Zm-2.525,5h2.525v2.5H30.3v-2.5h5.051Zm2.525,0v-2.5H40.4v2.5Zm-7.576,0H27.778v-7.494H30.3v7.494Zm7.576-7.494H30.3v-2.5h7.576ZM53.03-108.76v-5H45.455v5H42.929v-12.49h2.525v5H53.03v-5h2.525v12.49Z" transform="translate(3.704 124.923)" fill="#fff"/></svg>