<svg id="Group_203" xmlns="http://www.w3.org/2000/svg" width="65.819" height="37.599" viewBox="0 0 65.819 37.599"><path id="Rectangle_19" fill="#9000ff" d="M0 0H65.819V37.599H0z"/><path id="Path_919" d="M7.6-111.114h2.534v-7.6h-7.6v7.6H7.6Zm0,2.534H0v-12.67H10.136v2.534H12.67v7.6H10.136v2.534Zm15.2-2.534H25.34v2.534H15.2v-2.534h7.6Zm2.534,0v-2.534h2.534v2.534Zm0-2.534h-7.6v-2.534h7.6Zm-7.6-2.534H15.2v-2.534h2.534Zm7.6-5.068h2.534v2.534H17.738v-2.534h7.6Zm12.67,10.136h2.534v2.534h-7.6v-2.534h5.068Zm2.534,0v-2.534H38.011v-2.534h5.068v5.068Zm-7.6,0H30.408v-7.6h2.534v7.6Zm7.6-10.136h2.534v2.534H32.942v-2.534h7.6Zm15.2,12.67v-2.534H53.215v-2.534h2.534v-7.6h2.534v12.67Zm-10.136,0v-12.67h2.534v2.534h2.534v2.534h2.534v2.534H50.681v-2.534H48.147v7.6ZM7.6-93.767h2.534v2.534H0V-103.9H2.534v10.136H7.6Zm15.2,2.534V-96.3H15.2v5.068H12.67V-101.37H15.2v2.534h7.6v-2.534H25.34v10.136Zm0-10.136H15.2V-103.9h7.6Zm12.67,7.6h2.534V-96.3h-7.6v2.534h5.068Zm0,2.534h-7.6V-103.9H38.011v2.534h2.534v2.534H38.011v-2.534h-7.6v2.534h7.6V-96.3h2.534v2.534H38.011v2.534Z" transform="translate(3.768 125.022)" fill="#fff"/></svg>