<svg xmlns="http://www.w3.org/2000/svg" width="64.454" height="19.863" viewBox="0 0 64.454 19.863"><g id="Group_208" transform="translate(-1302.546 -871.137)"><path id="Rectangle_19" transform="translate(1302.546 871.137)" fill="#d90812" d="M0 0H64.454V19.863H0z"/><path id="Path_1974" d="M7.7,5.151h2.567V-1.994h-7.7V5.151H7.7Zm0,2.381H0V-4.375H10.269v2.381h2.567V5.151H10.269V7.532Zm12.836,0V5.151h2.567V7.532Zm2.567-2.381V.388h2.567V5.151Zm-2.567,0H17.971V.388h2.567V5.151ZM25.673.388V-4.375H28.24V.388Zm-7.7,0H15.4V-4.375h2.567V.388ZM38.509,5.151h2.567V7.532H30.807V-4.375h2.567V5.151h5.135Zm5.135,2.381V-4.375H53.913v2.381H56.48V.388H53.913V-1.994h-7.7V.388h7.7V2.769h-7.7V7.532Z" transform="translate(1306.532 879.48)" fill="#fff"/></g></svg>