<svg xmlns="http://www.w3.org/2000/svg" width="50" height="20" viewBox="0 0 50 20"><path id="Subtraction_11" data-name="Subtraction 11" d="M50,20H0V0H50V20h0ZM33.787,6.2h0v7.5h2.506v2.5h7.518V13.7h2.507V6.2H43.811V3.7H36.293V6.2Zm-12.531,5h5.012v2.5h2.506v2.5h2.507V13.7H28.775v-5h2.507V6.2H28.775V3.7H18.75V16.2h2.506v-5ZM3.713,3.7h0V16.2H6.219v-5h7.518V8.7h2.507V6.2H13.737V3.7H3.713Zm40.1,10H36.293V6.2h7.518v7.5Zm-15.037-5H21.256V6.2h7.519V8.7Zm-15.037,0H6.219V6.2h7.518V8.7Z" fill="#d3d3d4"/></svg>