<svg id="Group_197" xmlns="http://www.w3.org/2000/svg" width="56.702" height="19.89" viewBox="0 0 56.702 19.89"><path id="Rectangle_19" fill="#41d82b" d="M0 0H56.702V19.89H0z"/><path id="Path_918" d="M0-108.819V-121.25H2.586v12.431Zm15.519,0v-2.486H12.932v-2.486h2.586v-7.459H18.1v12.431Zm-10.346,0V-121.25H7.759v2.486h2.586v2.486h2.586v2.486H10.346v-2.486H7.759v7.459Zm23.278-2.486h2.586v-7.459H23.278v7.459h5.173Zm0,2.486H20.691V-121.25H31.037v2.486h2.586v7.459H31.037v2.486Zm18.1,0v-2.486h2.586v2.486Zm-10.346,0v-2.486H38.8v2.486Zm10.346-2.486H43.969v-2.486h2.586Zm-7.759,0v-2.486h2.586v2.486Zm5.173-2.486H41.383v-2.486h2.586Zm0-2.486v-2.486h2.586v2.486Zm-2.586,0H38.8v-2.486h2.586Zm5.173-2.486v-2.486h2.586v2.486Zm-7.759,0H36.21v-2.486H38.8Z" transform="translate(3.78 124.979)" fill="#fff"/></svg>