<svg xmlns="http://www.w3.org/2000/svg" width="75.67" height="22.849" viewBox="0 0 75.67 22.849"><g id="Group_51" transform="translate(.5 .5)"><g id="Group_48" stroke="#fff" stroke-width="1" fill-rule="evenodd"><path id="Path_1" d="M540.929,627.267l-3.107,5.7a4.278,4.278,0,0,1-4.009,2.61c-3.315,0-5.317-3.744-3.67-6.773l6.777-12.465a4.384,4.384,0,0,1,8.018,0l6.777,12.465c1.647,3.029-.355,6.773-3.67,6.773a4.278,4.278,0,0,1-4.009-2.61l-3.107-5.7Z" transform="translate(-495.626 -613.728)"/><path id="Path_2" d="M398.2,631.2a4.37,4.37,0,1,1-8.739,0V618.108a4.37,4.37,0,1,1,8.739,0V631.2Z" transform="translate(-389.459 -613.728)"/><path id="Path_3" d="M641.619,631.127a4.373,4.373,0,1,1-8.747.014v-7.7a9.768,9.768,0,0,1,9.651-9.77,4.377,4.377,0,1,1,.113,8.752,1.018,1.018,0,0,0-1.017,1.018v7.687Z" transform="translate(-572.339 -613.67)"/><path id="Path_4" d="M460.352,626.816h5a4.38,4.38,0,0,1,0,8.76h-9.373a4.377,4.377,0,0,1-4.374-4.38V618.108a4.374,4.374,0,1,1,8.748,0v8.708Z" transform="translate(-439.009 -613.728)"/></g></g></svg>