<svg id="Group_51" xmlns="http://www.w3.org/2000/svg" width="60" height="17.556" viewBox="0 0 60 17.556"><g id="Group_48" fill-rule="evenodd"><path id="Path_1" d="M538.695,624.607l-2.5,4.579a3.438,3.438,0,0,1-3.221,2.1,3.611,3.611,0,0,1-2.949-5.442l5.446-10.016a3.522,3.522,0,0,1,6.443,0l5.446,10.016a3.611,3.611,0,0,1-2.949,5.442,3.437,3.437,0,0,1-3.221-2.1l-2.5-4.579Z" transform="translate(-502.292 -613.728)"/><path id="Path_2" d="M396.481,627.764a3.511,3.511,0,1,1-7.022,0V617.247a3.511,3.511,0,1,1,7.022,0v10.517Z" transform="translate(-389.459 -613.728)"/><path id="Path_3" d="M639.9,627.7a3.514,3.514,0,1,1-7.028.012v-6.188a7.849,7.849,0,0,1,7.755-7.851,3.517,3.517,0,1,1,.091,7.033.818.818,0,0,0-.817.818V627.7Z" transform="translate(-584.232 -613.67)"/><path id="Path_4" d="M458.633,624.245h4.017a3.519,3.519,0,0,1,0,7.039h-7.532a3.517,3.517,0,0,1-3.515-3.519V617.247a3.515,3.515,0,1,1,7.029,0v7Z" transform="translate(-441.483 -613.728)"/></g></svg>