<svg xmlns="http://www.w3.org/2000/svg" width="700" height="376.379" viewBox="0 0 700 376.379"><g id="Group_204" data-name="Group 204" transform="translate(-737 -477)"><path id="Subtraction_5" data-name="Subtraction 5" d="M397.38,159.346H0V0H397.381V159.342h0v0h0ZM268.527,49.424h0v59.758h19.918V129.1H348.2V109.182h19.922V49.424H348.2V29.507H288.446V49.424ZM168.936,89.26h39.835v19.922h19.92V129.1h19.922V109.182H228.691V69.34h19.922V49.424H228.691V29.507H149.02V129.1h19.916V89.26ZM29.512,29.506V129.1H49.429V89.26H109.18V69.34H129.1V49.424H109.18V29.507H29.512ZM348.2,109.182H288.446V49.424H348.2v59.758ZM228.691,69.344h0l-19.918,0H168.936V49.424h59.755v19.92Zm-119.511,0h0l-19.916,0H49.429V49.424H109.18v19.92Z" transform="translate(1039.619 694.033)" fill="#d3d3d4"/><g id="Group_51" data-name="Group 51" transform="translate(737 477)"><g id="Group_48" data-name="Group 48" fill-rule="evenodd"><path id="Path_1" data-name="Path 1" d="M621.437,722.961l-25.1,45.98c-6.5,11.907-15.381,21.06-32.386,21.06C537.172,790,521,759.8,534.3,735.36l54.749-100.572c6.487-11.915,17.928-21.06,32.386-21.06s25.9,9.149,32.386,21.06L708.572,735.36C721.876,759.794,705.7,790,678.923,790c-17,0-25.886-9.151-32.386-21.06l-25.1-45.98Z" transform="translate(-253.429 -613.727)"/><path id="Path_2" data-name="Path 2" d="M460.058,754.665a35.3,35.3,0,1,1-70.6,0v-105.6a35.3,35.3,0,1,1,70.6,0v105.6Z" transform="translate(-389.459 -613.727)"/><path id="Path_3" data-name="Path 3" d="M703.531,754.517a35.329,35.329,0,1,1-70.659.115V692.5a78.86,78.86,0,0,1,77.961-78.825,35.313,35.313,0,1,1,.913,70.615,8.216,8.216,0,0,0-8.215,8.213v62.017Z" transform="translate(-141.835 -613.67)"/><path id="Path_4" data-name="Path 4" d="M522.274,719.326h40.384a35.337,35.337,0,0,1,0,70.675H486.938A35.337,35.337,0,0,1,451.6,754.665v-105.6a35.335,35.335,0,1,1,70.671,0v70.26Z" transform="translate(-347.822 -613.727)"/></g></g></g></svg>