<svg xmlns="http://www.w3.org/2000/svg" width="122" height="17" viewBox="0 0 122 17"><path fill="#fff" d="M8.92 10.427c.106.26.264.573.37.888.106-.313.264-.626.37-.888.109-.293.25-.573.422-.834l4.7-8.858c.053-.105.158-.208.211-.313.08-.063.17-.116.264-.156.1-.042.209-.06.317-.052h3.061v16.621h-3.063V5.894c0-.26.053-.521.053-.782l-4.804 9.018a1.257 1.257 0 0 1-1.214.73h-.472a1.224 1.224 0 0 1-.739-.21 1.278 1.278 0 0 1-.475-.572L3.01 5.116c0 .26.053.521.053.782v10.885H0V.163h3.01c.106 0 .211.052.317.052.106.052.158.105.264.156.11.071.187.184.211.313l4.7 8.858c.16.284.3.58.418.885z"/><path fill="#fff" d="M32.252 1.204a1.58 1.58 0 0 1 .264-.365c.106-.105.211-.26.37-.313.133-.099.274-.186.422-.26a1.56 1.56 0 0 1 .475-.105h2.64v16.622h-3.485V6.884c-.008-.435.01-.87.053-1.302.053-.47.053-.938.158-1.459-.158.469-.37.888-.528 1.25a6.648 6.648 0 0 1-.581 1.042l-5.914 9.327c-.07.133-.159.256-.264.365-.106.104-.21.26-.37.312-.12.117-.264.206-.422.26a1.56 1.56 0 0 1-.475.106h-2.64V.163h3.485v9.9c.008.434-.01.869-.053 1.302-.003.49-.056.978-.158 1.458a6.89 6.89 0 0 1 .528-1.25c.211-.365.37-.73.581-1.042z"/><path fill="#fff" d="M43.252 8.447v-5.73h2.218a5.15 5.15 0 0 1 1.426.208c.734.207 1.323.75 1.584 1.458.15.363.223.754.21 1.147a2.862 2.862 0 0 1-.738 2.136 3.093 3.093 0 0 1-2.376.781h-2.218zm2.322 2.66c1.002.016 2-.125 2.957-.417a6.011 6.011 0 0 0 2.059-1.146 5.08 5.08 0 0 0 1.214-1.777 6.055 6.055 0 0 0 .422-2.24 5.687 5.687 0 0 0-.37-2.137 4.46 4.46 0 0 0-1.214-1.72 5.493 5.493 0 0 0-2.06-1.094 10.216 10.216 0 0 0-3.01-.416h-5.7v16.675h3.486v-5.73z"/><path fill="#fff" d="M67.092 8.5a6.632 6.632 0 0 1-.37 2.345 4.476 4.476 0 0 1-1 1.776 4.292 4.292 0 0 1-1.584 1.095 6.296 6.296 0 0 1-4.224 0 4.292 4.292 0 0 1-1.584-1.095 4.873 4.873 0 0 1-1-1.776 6.445 6.445 0 0 1-.37-2.345 7.815 7.815 0 0 1 .37-2.345 4.873 4.873 0 0 1 1-1.777 4.292 4.292 0 0 1 1.584-1.095 6.297 6.297 0 0 1 4.224 0 4.292 4.292 0 0 1 1.584 1.095 4.873 4.873 0 0 1 1 1.777c.268.752.393 1.547.37 2.345zm3.538 0a8.808 8.808 0 0 0-.638-3.388 8.573 8.573 0 0 0-1.743-2.71A8.845 8.845 0 0 0 65.503.625a10.32 10.32 0 0 0-7.076 0 7.53 7.53 0 0 0-2.746 1.777 8.573 8.573 0 0 0-1.743 2.71 9.372 9.372 0 0 0 0 6.775 8.573 8.573 0 0 0 1.743 2.71 8.844 8.844 0 0 0 2.746 1.777 10.32 10.32 0 0 0 7.076 0 7.53 7.53 0 0 0 2.746-1.777 8.573 8.573 0 0 0 1.747-2.71A8.998 8.998 0 0 0 70.63 8.5z"/><path fill="#fff" d="M76.606 7.04h1.531c.273.01.544-.044.792-.156.249-.146.465-.341.634-.573l3.38-5.21c.164-.248.359-.476.58-.677.248-.17.543-.262.845-.26h3.01L82.995 6.78a3.06 3.06 0 0 1-.686.73c-.25.205-.537.364-.845.468.46.123.891.336 1.267.626.398.35.721.775.95 1.25l4.12 6.93h-3.169a1.312 1.312 0 0 1-.792-.261 2.106 2.106 0 0 1-.58-.73l-3.222-5.418a2.894 2.894 0 0 0-.317-.416 1.395 1.395 0 0 0-.317-.26 3.665 3.665 0 0 0-.422-.157c-.158 0-.317-.052-.528-.052h-1.848v7.19h-3.485V.163h3.485V7.04z"/><path fill="#fff" d="M101.407 8.5a6.632 6.632 0 0 1-.37 2.345 4.476 4.476 0 0 1-1 1.776 4.29 4.29 0 0 1-1.584 1.095 6.296 6.296 0 0 1-4.224 0 4.29 4.29 0 0 1-1.584-1.095 4.874 4.874 0 0 1-1-1.776 6.444 6.444 0 0 1-.37-2.345 7.814 7.814 0 0 1 .37-2.345 4.874 4.874 0 0 1 1-1.777 4.29 4.29 0 0 1 1.584-1.095 6.297 6.297 0 0 1 4.224 0 4.291 4.291 0 0 1 1.584 1.095 4.874 4.874 0 0 1 1 1.777c.267.752.393 1.547.37 2.345zm3.59 0a8.808 8.808 0 0 0-.637-3.388 8.573 8.573 0 0 0-1.743-2.71A8.845 8.845 0 0 0 99.87.625a10.32 10.32 0 0 0-7.076 0 7.53 7.53 0 0 0-2.746 1.777 8.572 8.572 0 0 0-1.743 2.71 9.372 9.372 0 0 0 0 6.775 8.573 8.573 0 0 0 1.743 2.71 8.844 8.844 0 0 0 2.746 1.777 10.32 10.32 0 0 0 7.076 0 7.53 7.53 0 0 0 2.746-1.777 8.573 8.573 0 0 0 1.747-2.71 8.998 8.998 0 0 0 .634-3.387z"/><path fill="#fff" d="M122 16.783h-3.485V9.645h-7.444v7.19h-3.538V.16h3.485v7.085h7.445V.163h3.485v16.62z"/></svg>