<svg xmlns="http://www.w3.org/2000/svg" width="150" height="19" viewBox="0 0 150 19"><path d="M2.814,9.995v5.428H0V0H4.917A8.461,8.461,0,0,1,7.542.364,5.037,5.037,0,0,1,9.373,1.377a3.975,3.975,0,0,1,1.071,1.557A5.366,5.366,0,0,1,10.8,4.917a5.617,5.617,0,0,1-.367,2.058,4.261,4.261,0,0,1-1.1,1.6A5.067,5.067,0,0,1,7.49,9.622,8.012,8.012,0,0,1,4.919,10Zm0-2.24h2.1a4.256,4.256,0,0,0,1.349-.192,2.589,2.589,0,0,0,.952-.57,2.323,2.323,0,0,0,.576-.9,3.551,3.551,0,0,0,.187-1.18A3.16,3.16,0,0,0,7.792,3.8a2.2,2.2,0,0,0-.564-.853,2.463,2.463,0,0,0-.952-.534,4.317,4.317,0,0,0-1.359-.192h-2.1Z" fill="#fff"/><path d="M16.625,4.31a5.142,5.142,0,0,1,1.873.328,4.021,4.021,0,0,1,1.475.97,4.362,4.362,0,0,1,.965,1.556,5.785,5.785,0,0,1,.355,2.1,1.783,1.783,0,0,1-.125.811.522.522,0,0,1-.481.2H14.044a5.363,5.363,0,0,0,.293,1.462,3.067,3.067,0,0,0,.606,1.012,2.467,2.467,0,0,0,.889.6,3.348,3.348,0,0,0,1.151.192,3.423,3.423,0,0,0,1.078-.15,4.782,4.782,0,0,0,.8-.327c.23-.121.429-.231.6-.328a1.017,1.017,0,0,1,.5-.15.532.532,0,0,1,.481.245l.743.96a4.473,4.473,0,0,1-.964.864,5.7,5.7,0,0,1-1.12.555,6.152,6.152,0,0,1-1.179.289,8.341,8.341,0,0,1-1.161.085,5.723,5.723,0,0,1-2.082-.374A4.753,4.753,0,0,1,13,14.094a5.341,5.341,0,0,1-1.119-1.835,7.249,7.249,0,0,1-.413-2.542,6.126,6.126,0,0,1,.356-2.1A5.045,5.045,0,0,1,12.839,5.9a4.826,4.826,0,0,1,1.625-1.164A5.288,5.288,0,0,1,16.625,4.31ZM16.678,6.2a2.362,2.362,0,0,0-1.768.655A3.233,3.233,0,0,0,14.094,8.7h4.87a3.065,3.065,0,0,0-.147-.96,2.225,2.225,0,0,0-.419-.8,1.909,1.909,0,0,0-.722-.533A2.325,2.325,0,0,0,16.678,6.2Z" fill="#fff"/><path d="M23.231,15.434V4.491h2.583V10.88a5.243,5.243,0,0,1-.031.546q-.023.288-.063.587a5.6,5.6,0,0,1,.46-.865c.007-.014.074-.11.2-.288s.286-.409.481-.694l.68-.96L28.305,8.1q.909-1.311,2.071-2.964a1.857,1.857,0,0,1,.387-.437.8.8,0,0,1,.544-.219h1.569V15.423H30.291V9.035c0-.164.007-.342.022-.533a5.5,5.5,0,0,1,.073-.587c-.077.164-.154.32-.231.47a3.118,3.118,0,0,1-.23.383c-.014.015-.085.114-.214.3l-.492.694q-.293.428-.67.97t-.764,1.092q-.909,1.311-2.06,2.965a2.15,2.15,0,0,1-.387.437.765.765,0,0,1-.536.219ZM28.2,1.708a2.123,2.123,0,0,0,.648-.085.879.879,0,0,0,.418-.278,1.233,1.233,0,0,0,.214-.533,4.491,4.491,0,0,0,.07-.81h1.522a.419.419,0,0,1,.4.235.939.939,0,0,1,.138.5,2.061,2.061,0,0,1-.241.992,2.184,2.184,0,0,1-.69.746,3.7,3.7,0,0,1-1.078.47,5.7,5.7,0,0,1-1.4.159,5.707,5.707,0,0,1-1.4-.159,3.7,3.7,0,0,1-1.078-.47,2.184,2.184,0,0,1-.69-.746,2.061,2.061,0,0,1-.241-.992,1,1,0,0,1,.126-.5A.439.439,0,0,1,25.322,0H26.85a4.4,4.4,0,0,0,.063.81,1.233,1.233,0,0,0,.214.533.88.88,0,0,0,.409.278A2.153,2.153,0,0,0,28.2,1.708Z" fill="#fff"/><path d="M34.4,4.48h10.23V6.433H40.8v8.99H38.22V6.433H34.4Z" fill="#fff"/><path d="M46.153,15.434V4.491h2.583V10.88a5.243,5.243,0,0,1-.031.546q-.021.288-.063.587a5.6,5.6,0,0,1,.46-.865c.007-.014.074-.11.2-.288s.286-.409.481-.694.429-.6.68-.96.506-.725.764-1.109q.909-1.311,2.071-2.964a1.857,1.857,0,0,1,.387-.437.8.8,0,0,1,.544-.219H55.8V15.423H53.214V9.035c0-.164.008-.342.022-.533a5.773,5.773,0,0,1,.073-.587c-.077.164-.154.32-.231.47a3.118,3.118,0,0,1-.23.383c-.014.015-.086.114-.214.3l-.492.694q-.292.428-.67.97t-.764,1.092q-.909,1.311-2.06,2.965a2.15,2.15,0,0,1-.387.437.761.761,0,0,1-.536.219Z" fill="#fff"/><path d="M67.7,4.48V15.423H65.118V10.581H60.934v4.842H58.35V4.48h2.583V8.632h4.184V4.48Z" fill="#fff"/><path d="M77.531,4.48V6.433H72.845v8.99H70.261V4.48Z" fill="#fff"/><path d="M87.376,9.995v5.428H84.562V0h4.917a8.468,8.468,0,0,1,2.626.362,5.029,5.029,0,0,1,1.831,1.013,3.965,3.965,0,0,1,1.071,1.557,5.385,5.385,0,0,1,.35,1.983,5.617,5.617,0,0,1-.367,2.058,4.252,4.252,0,0,1-1.1,1.6,5.067,5.067,0,0,1-1.841,1.045A8.012,8.012,0,0,1,89.48,10Zm0-2.24h2.1a4.262,4.262,0,0,0,1.35-.192A2.582,2.582,0,0,0,91.779,7a2.32,2.32,0,0,0,.576-.9,3.561,3.561,0,0,0,.188-1.186A3.152,3.152,0,0,0,92.357,3.8a2.218,2.218,0,0,0-.565-.853,2.437,2.437,0,0,0-.951-.533,4.3,4.3,0,0,0-1.36-.193h-2.1Z" fill="#fff"/><path d="M101.008,18.431a.95.95,0,0,1-.3.417.853.853,0,0,1-.554.149H98.223l2.008-4.384L95.892,4.48h2.272a.686.686,0,0,1,.47.15.935.935,0,0,1,.262.341l2.28,5.674a11.077,11.077,0,0,1,.345,1.162c.055-.2.115-.394.177-.586s.135-.388.215-.587l2.161-5.662a.783.783,0,0,1,.272-.352.761.761,0,0,1,.439-.14h2.071Z" fill="#fff"/><path d="M117.491,4.48V15.423h-2.584V10.581h-4.179v4.842h-2.583V4.48h2.583V8.632h4.179V4.48Z" fill="#fff"/><path d="M124.622,4.31a5.141,5.141,0,0,1,1.872.328,4.041,4.041,0,0,1,1.475.97,4.337,4.337,0,0,1,.964,1.556,5.761,5.761,0,0,1,.356,2.1,1.771,1.771,0,0,1-.126.811.52.52,0,0,1-.481.2h-6.643a5.4,5.4,0,0,0,.294,1.462,3.067,3.067,0,0,0,.606,1.012,2.471,2.471,0,0,0,.89.6,3.315,3.315,0,0,0,1.15.192,3.423,3.423,0,0,0,1.078-.15,4.736,4.736,0,0,0,.794-.327c.231-.121.43-.231.6-.328a1.018,1.018,0,0,1,.5-.15.534.534,0,0,1,.481.245l.742.96a4.426,4.426,0,0,1-.964.864,5.67,5.67,0,0,1-1.12.555,6.142,6.142,0,0,1-1.178.289,8.367,8.367,0,0,1-1.162.085,5.727,5.727,0,0,1-2.082-.374A4.734,4.734,0,0,1,121,14.092a5.355,5.355,0,0,1-1.12-1.834,7.275,7.275,0,0,1-.407-2.538,6.1,6.1,0,0,1,.356-2.1A5.059,5.059,0,0,1,120.835,5.9a4.832,4.832,0,0,1,1.621-1.163A5.309,5.309,0,0,1,124.622,4.31Zm.052,1.888a2.363,2.363,0,0,0-1.768.655A3.242,3.242,0,0,0,122.09,8.7h4.875a3.094,3.094,0,0,0-.147-.96,2.238,2.238,0,0,0-.418-.8,1.927,1.927,0,0,0-.722-.533A2.319,2.319,0,0,0,124.674,6.2Z" fill="#fff"/><path d="M130.058,4.48h10.23V6.433H136.46v8.99h-2.585V6.433h-3.817Z" fill="#fff"/><path d="M148.828,15.423a1.222,1.222,0,0,1-.565-.109.805.805,0,0,1-.314-.459l-.23-.779a10.21,10.21,0,0,1-.795.661,4.948,4.948,0,0,1-.805.47,4.018,4.018,0,0,1-.9.288,5.248,5.248,0,0,1-1.046.1,4.177,4.177,0,0,1-1.256-.181,2.815,2.815,0,0,1-.993-.565,2.51,2.51,0,0,1-.643-.927,3.344,3.344,0,0,1-.23-1.29,2.577,2.577,0,0,1,.314-1.216,3.017,3.017,0,0,1,1.071-1.093,6.6,6.6,0,0,1,1.977-.81,13.792,13.792,0,0,1,3.075-.363V8.512a2.411,2.411,0,0,0-.46-1.621,1.662,1.662,0,0,0-1.328-.533,3.15,3.15,0,0,0-1.047.15,3.959,3.959,0,0,0-.721.341l-.576.327a1.08,1.08,0,0,1-.565.15.752.752,0,0,1-.46-.139,1.247,1.247,0,0,1-.3-.34L141.567,6a6.3,6.3,0,0,1,4.456-1.728,4.22,4.22,0,0,1,1.685.32,3.476,3.476,0,0,1,1.255.874,3.652,3.652,0,0,1,.774,1.333A5.134,5.134,0,0,1,150,8.512v6.911Zm-3.857-1.639a3.018,3.018,0,0,0,1.37-.288,4.145,4.145,0,0,0,1.14-.9V10.752a13.389,13.389,0,0,0-1.893.2,4.838,4.838,0,0,0-1.214.363,1.622,1.622,0,0,0-.659.522,1.319,1.319,0,0,0,.2,1.638,1.737,1.737,0,0,0,1.049.3Z" fill="#fff"/></svg>