<svg xmlns="http://www.w3.org/2000/svg" width="150" height="22.4" viewBox="0 0 150 22.4"><g id="logo_5" transform="translate(593 271)" fill="#fff"><path id="logo-a1" d="M.638,10.5C1.17,7.9,3.617,6.1,7.021,6.1c3.936,0,7.021,1.6,7.021,6.6V22h-3.4l-.426-2a6.257,6.257,0,0,1-5.106,2.3C2.234,22.3,0,20.6,0,17.5s2.979-5.1,7.128-5.1H9.894v-.7c0-1.8-1.383-2.3-2.979-2.3a2.793,2.793,0,0,0-2.872,1.8ZM6.064,19c1.915,0,3.83-1.2,3.83-3.2v-.3H7.234c-1.809-.1-2.872.6-2.872,2A1.615,1.615,0,0,0,6.064,19Z" transform="translate(-593 -271)"/><path id="logo-a2" d="M76.038,10.5c.532-2.6,2.979-4.4,6.383-4.4,3.936,0,7.021,1.6,7.021,6.6V22h-3.4l-.426-2a6.257,6.257,0,0,1-5.106,2.3c-2.872,0-5.106-1.7-5.106-4.8s2.979-5.1,7.128-5.1h2.766v-.7c0-1.8-1.383-2.3-2.979-2.3a2.793,2.793,0,0,0-2.872,1.8ZM81.464,19c1.915,0,3.83-1.2,3.83-3.2v-.3H82.528c-1.809,0-2.872.6-2.872,2A1.805,1.805,0,0,0,81.464,19Z" transform="translate(-588.187 -271)"/><path id="logo-r" d="M92.1,22.1V6.3h4.149V8.9a5.745,5.745,0,0,1,4.894-2.8,6.556,6.556,0,0,1,2.021.3l-.745,3.6a3.36,3.36,0,0,0-1.7-.5c-2.447,0-4.468,1.9-4.468,6.9V22l-4.149.1Z" transform="translate(-587.121 -271)"/><path id="logo-d" d="M111.253,6.1A5.523,5.523,0,0,1,115.3,7.8V0h4.149V22.1H115.3V20.5a5.028,5.028,0,0,1-4.043,1.9c-5,0-7.553-3.3-7.553-8.1S106.253,6.1,111.253,6.1Zm.638,12.9c2.128,0,3.83-1.7,3.83-4.8s-1.7-4.8-3.83-4.8-3.83,1.7-3.83,4.8S109.764,19,111.892,19Z" transform="translate(-586.381 -271)"/><path id="logo-s" d="M133.2,8.6l-2.447,2.1a3.56,3.56,0,0,0-2.766-1.4,1.434,1.434,0,0,0-1.6,1.3c0,.7.638,1.2,1.6,1.5,2.34.8,6.064,1.5,6.064,4.8,0,2.9-2.34,5.2-5.957,5.2a7.091,7.091,0,0,1-6.6-4.2l3.3-1.7a3.672,3.672,0,0,0,3.4,2.6c1.277,0,2.128-.6,2.128-1.7,0-1.3-2.128-1.6-4.149-2.4-1.809-.7-3.4-1.8-3.4-4.2S124.9,5.9,128.1,5.9A6.553,6.553,0,0,1,133.2,8.6Z" transform="translate(-585.245 -271)"/><path id="logo-w2" d="M52.883,6.3,49.9,17.2,47.032,6.3H43.2L40.436,17.2,38.1,10.9l-.319.7L36.5,15.7l2.128,6.4h3.617l2.872-10.2,2.872,10.2h3.723L57.032,6.3Z" transform="translate(-590.67 -271)"/><path id="logo-w3" d="M71.589,6.3,68.611,17.2,65.738,6.3h-3.83L59.143,17.2,56.8,10.9l-.319.7L55.1,15.7l2.234,6.4h3.617l2.872-10.2L66.7,22.1h3.617L75.738,6.3Z" transform="translate(-589.483 -271)"/><path id="logo-w1" d="M38.517,6.3,33.2,22H29.581L26.709,11.9,23.836,22.1H20.219L14.9,6.4h4.149l2.979,10.8L24.9,6.4h3.83L31.6,17.2,34.581,6.4l3.936-.1Z" transform="translate(-592.049 -271)"/><path id="logo-p" d="M138.566,17a2.6,2.6,0,1,1-2.766,2.6A2.606,2.606,0,0,1,138.566,17Z" transform="translate(-584.332 -271)"/></g></svg>