<svg xmlns="http://www.w3.org/2000/svg" width="110" height="48" viewBox="0 0 110 48"><path d="M23,17.8a3.541,3.541,0,0,0,4.647-1.833l.042-.1a3.6,3.6,0,0,0-1.866-4.742h0a3.541,3.541,0,0,0-4.647,1.833q-.023.051-.042.1A3.7,3.7,0,0,0,23,17.8ZM1.3,35.857a.886.886,0,0,0-1.177.422,1.028,1.028,0,0,0-.043.109.921.921,0,0,0,.458,1.223c.024.011.048.021.073.03a.935.935,0,0,0,1.233-.47c.009-.02.018-.041.025-.062A1.142,1.142,0,0,0,1.3,35.857ZM14.728,1.864A.936.936,0,0,0,15.962,1.4c.009-.02.017-.041.024-.061A.92.92,0,0,0,15.527.111q-.036-.016-.075-.03a.913.913,0,0,0-1.216.427.926.926,0,0,0-.042.1.959.959,0,0,0,.53,1.252ZM24.64,46.14a.961.961,0,1,0,.533,1.252,1.1,1.1,0,0,0-.538-1.253ZM40.723,11.2a.961.961,0,1,0,.535,1.252A1.109,1.109,0,0,0,40.723,11.2Zm-2.593.645a1.56,1.56,0,0,0-2.075.73,1.272,1.272,0,0,0-.06.143,1.674,1.674,0,0,0-.039,1.214,3,3,0,0,0-5.452.189,3.08,3.08,0,0,0-.191,1.746,9.6,9.6,0,0,1-5.641,3.566,5.389,5.389,0,0,1-1.107,0,3.383,3.383,0,0,1-1.106-.3c-1.754-.8-2.821-2.881-3.049-5.615a8.928,8.928,0,0,1-.039-1.745c0-.265.039-.531.039-.759a3.2,3.2,0,0,0,1.182-1.366,3.076,3.076,0,0,0-1.568-4.021,2.756,2.756,0,0,0-2.059-.114,1.464,1.464,0,0,0,.844-.873,1.585,1.585,0,0,0-.764-2.113c-.037-.018-.075-.034-.113-.048a1.56,1.56,0,0,0-2.075.729q-.033.071-.06.144a1.585,1.585,0,0,0,.765,2.113c.036.017.074.033.112.048a1.749,1.749,0,0,0,1.068.114A3,3,0,0,0,15.1,7.252a3.136,3.136,0,0,0,.953,3.68,3.983,3.983,0,0,0-.038.645,14.067,14.067,0,0,0,.038,2.2,11.01,11.01,0,0,0,2.859,6.9,9.79,9.79,0,0,0-5.338,2.352,22.671,22.671,0,0,0-5.639,7.247A2.99,2.99,0,0,0,5.574,32.1a3.142,3.142,0,0,0-.039,2.352,2.1,2.1,0,0,0-.8-.72,1.558,1.558,0,0,0-2.074.729c-.023.047-.043.095-.061.143a1.586,1.586,0,0,0,.765,2.114c.037.017.074.033.112.047a1.559,1.559,0,0,0,2.075-.729,1.287,1.287,0,0,0,.06-.144,1.668,1.668,0,0,0,.039-1.208A3,3,0,0,0,11.1,34.5a3.193,3.193,0,0,0,.153-1.971,17.844,17.844,0,0,1,4.766-6.45c1.525-1.252,2.974-1.821,4-1.328a2.712,2.712,0,0,1,1.258,1.4c.152.341.267.759.42,1.214a16.567,16.567,0,0,1-1.258,9.181,3.107,3.107,0,0,0,.266,5.5,2.765,2.765,0,0,0,2.059.114,1.461,1.461,0,0,0-.844.873,1.585,1.585,0,0,0,.764,2.113c.037.017.075.033.113.047a1.558,1.558,0,0,0,2.074-.727,1.533,1.533,0,0,0,.061-.145,1.586,1.586,0,0,0-.765-2.114c-.036-.017-.074-.033-.112-.047a1.735,1.735,0,0,0-1.068-.114,3,3,0,0,0,1.64-1.632,3.188,3.188,0,0,0-.3-3.034,21.405,21.405,0,0,0,1.219-10.924,13.4,13.4,0,0,0-.564-1.975,9.579,9.579,0,0,0-1.068-1.821,4.875,4.875,0,0,0,1.3-.114A12.925,12.925,0,0,0,32.912,18a3.054,3.054,0,0,0,3.278-1.821,3.145,3.145,0,0,0,.039-2.353,1.855,1.855,0,0,0,.8.72,1.56,1.56,0,0,0,2.075-.729q.033-.07.06-.144A1.847,1.847,0,0,0,38.13,11.842Zm23.643,11.68a4.428,4.428,0,0,0,4.545-4.3q0-.2-.009-.4a4.522,4.522,0,0,0-9.035-.416c-.006.139-.006.278,0,.416a4.368,4.368,0,0,0,4.019,4.693Q61.533,23.528,61.773,23.522Zm.038-7.133a2.2,2.2,0,0,1,2.149,2.255,1.962,1.962,0,0,1-.016.217,2.249,2.249,0,0,1-2.024,2.456c-.049,0-.1.008-.147.01a2.19,2.19,0,0,1-2.19-2.191,2.116,2.116,0,0,1,.018-.275,2.214,2.214,0,0,1,1.948-2.452,2.444,2.444,0,0,1,.257-.014Zm44.833-2.58a1.915,1.915,0,0,0,2.1-1.708,1.875,1.875,0,0,0,0-.417c-.458-.038-.8-.114-1.258-.114-.115.531-.42.645-.877.645s-.8-.218-.8-.639l-1.258.114a1.911,1.911,0,0,0,1.678,2.121,1.947,1.947,0,0,0,.418,0ZM70.917,18.1l2.211,5.235H75.3V23L71.335,14.27h-.953l-3.927,8.84v.341h2.171ZM72.6,28.425c-.533,0-.8-.228-.8-.644l-1.258.151a1.951,1.951,0,0,0,2.1,2.125,1.916,1.916,0,0,0,2.1-1.708,1.937,1.937,0,0,0,0-.417c-.457-.038-.8-.114-1.258-.114-.038.49-.343.6-.876.6ZM84.985,16.4H87.12v7.018h2.171V16.4h2.135V14.308H84.947Zm11.627-2.281a4.442,4.442,0,0,0-4.545,4.334c0,.124,0,.247.008.37A4.368,4.368,0,0,0,96.1,23.51a4.72,4.72,0,0,0,.476.012,4.426,4.426,0,0,0,4.545-4.3c0-.134,0-.268-.008-.4a4.5,4.5,0,0,0-4.292-4.694c-.068,0-.137,0-.206,0Zm-.076,7.2a2.19,2.19,0,0,1-2.19-2.19,2.3,2.3,0,0,1,.018-.275A2.254,2.254,0,0,1,96.4,16.4c.058-.006.117-.009.176-.01a2.2,2.2,0,0,1,2.15,2.254c0,.071-.007.141-.015.212a2.3,2.3,0,0,1-2.106,2.472l-.068,0ZM77.213,32.525h2.135v6.943h2.171V32.525h2.135V30.432H77.17Zm2.745-18.4a4.442,4.442,0,0,0-4.544,4.335c0,.124,0,.247.007.37a4.369,4.369,0,0,0,4.035,4.682c.153.011.306.015.459.011a4.426,4.426,0,0,0,4.543-4.3c0-.132,0-.264-.008-.395a4.5,4.5,0,0,0-4.285-4.7c-.071,0-.141-.005-.212-.006Zm0,7.2a2.189,2.189,0,0,1-2.189-2.191,2.116,2.116,0,0,1,.018-.275A2.254,2.254,0,0,1,79.82,16.4c.056,0,.111-.008.167-.009a2.2,2.2,0,0,1,2.151,2.254c0,.07-.007.141-.016.211a2.3,2.3,0,0,1-2.116,2.464l-.053,0Zm29.356-7.019-4.537,4.477V14.343h-2.292v9.105h.648l4.575-4.7v4.629H110V14.308Zm-54.9,23.1a2.285,2.285,0,0,1-2.176-2.39c0-.025,0-.051.005-.076a2.19,2.19,0,0,1,2.171-2.465,1.9,1.9,0,0,1,1.945,1.29H58.53a3.993,3.993,0,0,0-4.116-3.454,4.389,4.389,0,0,0-4.5,4.269q0,.18.006.36a4.387,4.387,0,0,0,4.141,4.623q.178.011.357.006a3.956,3.956,0,0,0,4.151-3.57H56.394A1.958,1.958,0,0,1,54.414,37.413ZM52.967,21.592a1.178,1.178,0,0,1-1.22-1.135q0-.039,0-.078H49.759a2.839,2.839,0,0,0,3.127,3.073c2.292,0,3.431-1.252,3.431-2.845a2.281,2.281,0,0,0-1.3-2.2,2.185,2.185,0,0,0,.763-1.631,2.667,2.667,0,0,0-2.7-2.628c-.076,0-.153,0-.229.012-1.568,0-2.936.759-2.859,2.466h2.021c0-.418.457-.569.844-.569a.8.8,0,0,1,.845.749c0,.03,0,.061,0,.091a.82.82,0,0,1-.8.84.369.369,0,0,1-.047,0H52.2v1.936h.642a1.084,1.084,0,0,1,1.179.978l0,.045C54.106,21.023,53.762,21.592,52.967,21.592Zm9.684,8.764L58.636,39.2v.341H61l.535-1.177h3.24l.533,1.177H67.67V39.2l-3.919-8.84Zm-.343,6.032.916-2.161.914,2.161Zm8.5-1.48V30.466H68.518v9.068h.648l4.575-4.7V39.5h2.292V30.432h-.724Z" transform="translate(0 .008)" fill="#fff"/></svg>