<svg xmlns="http://www.w3.org/2000/svg" width="80" height="48" viewBox="0 0 80 48"><path d="M58.264,25.584c-1.883,0-3.743-.025-5.627,0-.612,0-.954-.122-1-.857a11.734,11.734,0,0,0-2.832-7c-.392-.466-.414-.76.025-1.2,2.715-2.742,5.406-5.536,8.1-8.3.391-.411.66-.441,1.076,0a25.96,25.96,0,0,1,6.972,16.559c.025.661-.2.857-.827.832C62.178,25.559,60.222,25.584,58.264,25.584Z" transform="translate(0 -.041)" fill="#fff"/><path d="M20.051,25.613c-1.956,0-3.914-.025-5.871.024-.66,0-.856-.22-.827-.833a25.728,25.728,0,0,1,6.77-16.388c.391-.411.636-.464,1.052-.024q4.11,4.188,8.294,8.3c.44.441.342.685,0,1.1a12.024,12.024,0,0,0-2.813,7.152c-.025.661-.367.686-.856.686C23.893,25.588,21.959,25.613,20.051,25.613Z" transform="translate(0 -.041)" fill="#fff"/><path d="M38.816,6.622c0,1.886-.025,3.748,0,5.633,0,.638-.148.96-.856,1a11.636,11.636,0,0,0-6.777,2.822c-.563.464-.857.367-1.3-.074C27.2,13.289,24.48,10.57,21.74,7.9c-.489-.49-.342-.785.073-1.152A25.668,25.668,0,0,1,37.837.088c.733-.05,1,.171.979.931C38.766,2.88,38.816,4.767,38.816,6.622Z" transform="translate(0 -.041)" fill="#fff"/><path d="M44.05,7.189a23.43,23.43,0,0,0-2.279,5.047A1.385,1.385,0,0,1,40.3,13.264c-.515-.024-.734-.2-.734-.735C39.6,8.61,39.6,4.715,39.57.8c0-.98.69-.734,1.175-.71A25.562,25.562,0,0,1,54.422,5.059c2.5,1.837,2.519,1.886.464,4.113-2.152,2.329-4.429,4.557-6.635,6.836-.366.392-.635.514-1.1.1a13.364,13.364,0,0,0-4.012-2.3c.342-1.371.689-2.742.979-4.113C44.417,8.541,44.563,7.043,44.05,7.189Z" transform="translate(0 -.041)" fill="#fff"/><path d="M29.983,45.474c.808-2.89,1.615-5.758,2.421-8.647.123-.441.123-.959.856-.959.709,0,1.077.122,1.273.906.759,2.964,1.64,5.879,2.544,9.136.563-2.107,1.052-3.919,1.542-5.732.293-1.053.587-2.107.881-3.185a1.262,1.262,0,0,1,.929-1.028c.319-.074.661-.221.929.025.245.245-.024.539-.1.784-1,3.454-2.055,6.884-3.009,10.337-.246.882-.808.686-1.394.76-.661.074-.9-.2-1.077-.832-.563-2.254-1.223-4.484-1.81-6.736a4.139,4.139,0,0,0-.709-1.544c-.636,2.331-1.241,4.556-1.859,6.81-.123.466-.293.931-.391,1.42a.935.935,0,0,1-1.15.906c-.636-.049-1.1.025-1.346-.832-.929-3.4-1.982-6.809-2.96-10.214-.1-.318-.563-.856.17-.931.513-.049,1.241-.342,1.492.589.414,1.665.905,3.306,1.371,4.948.367,1.347.758,2.694,1.125,4.041A1.217,1.217,0,0,1,29.983,45.474Z" transform="translate(0 -.041)" fill="#fff"/><path d="M69.688,41.9c0-1.763.025-3.5,0-5.266,0-.564.146-.809.759-.784a40.37,40.37,0,0,1,4.868.171c3.156.514,4.844,2.768,4.673,6.246a5.468,5.468,0,0,1-5.333,5.586c-1.371.049-2.758-.025-4.159.024-.66.025-.827-.22-.806-.832C69.712,45.329,69.688,43.614,69.688,41.9Zm1.713-.2v1.959c0,2.964,0,2.964,2.984,2.768a4.062,4.062,0,0,0,3.889-3.943c.276-2.694-.783-4.387-3.008-5a15.17,15.17,0,0,0-3.157-.2c-.635-.05-.733.22-.733.784.048,1.2.025,2.425.025,3.626Z" transform="translate(0 -.041)" fill="#fff"/><path d="M66.484,47.878a1.9,1.9,0,0,1-2.4-.834,3.781,3.781,0,0,0-.276-.411c-1.792-2.841-1.792-2.818-5.21-2.646-.661.024-.828.293-.807.881.025.785-.025,1.544.025,2.331.048.685-.276.809-.881.809-.636.025-.828-.2-.828-.832.025-3.454.025-6.932,0-10.387,0-.539.1-.809.734-.809,1.737.05,3.5-.025,5.239.05a3.64,3.64,0,0,1,3.723,2.621,3.9,3.9,0,0,1-1.468,4.63c-.514.392-.392.637-.123,1.053C64.99,45.477,65.7,46.629,66.484,47.878ZM60.173,42.66c.538,0,1.052.024,1.59,0a2.5,2.5,0,0,0,2.6-2.4,2.551,2.551,0,0,0-.054-.616,2.28,2.28,0,0,0-1.44-1.955,7.343,7.343,0,0,0-4.794-.122c-.71.246-.2,2.034-.221,3.111-.054,1.984-.029,1.984,2.319,1.984Z" transform="translate(0 -.041)" fill="#fff"/><path d="M10.169,47.927a1.781,1.781,0,0,1-2.227-.882c-.073-.1-.123-.22-.2-.318-1.835-2.914-1.835-2.89-5.26-2.742-.636.025-.856.221-.827.857.048.809-.025,1.645.025,2.45.024.661-.319.71-.828.71C.367,48,0,48,0,47.317c.025-3.552.025-7.079,0-10.631C0,36.147.221,36,.71,36c1.835.024,3.669-.025,5.48.074a3.648,3.648,0,0,1,3.5,2.572,4.019,4.019,0,0,1-1.379,4.58c-.636.442-.514.735-.171,1.249.71,1.078,1.394,2.2,2.079,3.307C10.242,47.751,10.217,47.828,10.169,47.927ZM1.679,40.04c0,2.621,0,2.621,2.569,2.621.49,0,.979.025,1.469,0a2.441,2.441,0,0,0,2.5-2.385c0-.027,0-.055,0-.083a2.5,2.5,0,0,0-2.177-2.67A9.631,9.631,0,0,0,4.347,37.4C1.679,37.369,1.679,37.369,1.679,40.04Z" transform="translate(0 -.041)" fill="#fff"/><path d="M12.932,40.306c0-1.225.025-2.45,0-3.675-.025-.588.171-.784.759-.784s.9.1.881.784c-.025,2.331-.05,4.655.048,6.981a2.831,2.831,0,0,0,3.327,3.017A2.94,2.94,0,0,0,21.081,43.9a2.754,2.754,0,0,0,0-.426c.05-1.911,0-3.845.025-5.758a4.474,4.474,0,0,1,.073-.98,1.113,1.113,0,0,1,1.223-.809c.661.025.367.613.367.96.025,2.2.048,4.409,0,6.613-.073,2.94-1.981,4.556-5.211,4.507a4.237,4.237,0,0,1-4.628-3.8,4.151,4.151,0,0,1,.005-.856Z" transform="translate(0 -.041)" fill="#fff"/><path d="M53.543,47.728c-1.174.411-1.792.1-2.177-1.053-.954-2.694-1.027-2.669-3.5-2.669-2.544,0-2.62-.025-3.5,2.523-.392,1.151-.929,1.645-2.206,1.273a12.142,12.142,0,0,1,.856-2.33c1.15-2.866,2.344-5.733,3.473-8.623a1.338,1.338,0,0,1,1.419-1c.807-.024,1.027.393,1.271,1C50.633,40.478,52.075,44.079,53.543,47.728Zm-5.7-10.238c-.636,1.616-1.2,3.086-1.761,4.531-.146.367-.244.71.367.71q1.393-.038,2.789,0c.49,0,.538-.221.392-.613C49.041,40.622,48.479,39.131,47.838,37.49Z" transform="translate(0 -.041)" fill="#fff"/><path d="M44.051,7.188c.49-.147-.2-1.152.71-1l-.024-.025a11.3,11.3,0,0,1-.563,3.5c-.294,1.371-.66,2.742-.979,4.113-1.2,4.605-2.344,9.211-3.6,13.816-.123.489.146,1.567-.856,1.347-.954-.2-.979-1.1-.734-1.911,1.444-4.776,2.961-9.553,4.379-14.354A45.632,45.632,0,0,0,44.051,7.188Z" transform="translate(0 -.041)" fill="#fff"/><path d="M44.76,6.211C44.808,6.113,44.833,6.136,44.76,6.211Z" transform="translate(0 -.041)" fill="#fff"/></svg>