<svg xmlns="http://www.w3.org/2000/svg" width="130" height="18" viewBox="0 0 130 18"><path d="M63.05,0c1.018.337,2.036.708,2.987,1.045C66.478.775,66.92.505,67.6.1V6.307c-.544.2-.883.067-1.087-.607A10.919,10.919,0,0,0,65.6,3.44a4.682,4.682,0,0,0-7.773-.68A9.332,9.332,0,0,0,56.3,5.97a11.315,11.315,0,0,0,.407,7.252A5.588,5.588,0,0,0,63.8,16.651q.243-.084.477-.189a1.3,1.3,0,0,0,.985-1.416c-.034-.809.033-1.619,0-2.428-.034-1.18-.306-1.517-1.494-1.754a6.746,6.746,0,0,1-.883-.134c-.2-.067-.3-.337-.475-.507.171-.134.306-.37.475-.37,2.309-.034,4.651,0,6.96,0,.242.607.1.84-.475.944-1.493.27-1.63.507-1.63,1.956,0,1.046.034,2.091,0,3.171a1.011,1.011,0,0,1-.339.709,12.618,12.618,0,0,1-7.842,1.147,8.171,8.171,0,0,1-6.422-7.122A9.1,9.1,0,0,1,57.89.877,18.752,18.752,0,0,1,60.538,0Z" transform="translate(-.003)" fill="#fff"/><path d="M6.493.133c3.261,2.161,6.483,4.321,9.743,6.481-.136.24-.2.438-.34.641-2.1,3.205-4.209,6.442-6.314,9.68a1.441,1.441,0,0,1-1.257.708c-1.9.067-3.8.2-5.7.337a.688.688,0,0,1-.832-.5c-.006-.024-.01-.047-.014-.071-.544-1.523-1.156-3.04-1.7-4.559A1.044,1.044,0,0,1,.11,12C2.147,8.127,4.218,4.249,6.286.37A1.556,1.556,0,0,0,6.493.133ZM4.287,16.12a1.7,1.7,0,1,0,.034-3.406h0a1.779,1.779,0,0,0-1.732,1.72A1.72,1.72,0,0,0,4.287,16.12Z" transform="translate(-.003)" fill="#fff"/><path d="M102.7,17.535H95.845c-.242-.5-.135-.742.441-.911,1.969-.54,2.206-.809,2.241-2.867.034-3.036.034-6.071.034-9.106,0-1.99-.51-2.665-2.444-3.272-.475-.134-.883-.27-.578-.978C97,.4,98.527.367,100.02.434c.306,0,.645.371.846.675q4.378,5.87,8.724,11.737l.407.54c.034-.3.1-.472.1-.675V5.124a8.151,8.151,0,0,0-.034-.911c-.135-2.057-.407-2.4-2.416-2.9-.51-.135-.78-.27-.544-.945h6.868c.136.472.171.776-.441.911-2,.472-2.174.608-2.206,2.665-.1,4.148-.067,8.3-.067,12.445v1.146a1.092,1.092,0,0,1-1.474-.435l-.019-.037Q105.131,10.789,100.5,4.58c-.2-.27-.407-.506-.713-.911-.033.438-.067.675-.067.945v7.859c0,.4,0,.84.034,1.248.1,1.889.509,2.361,2.308,2.76C102.532,16.693,102.974,16.793,102.7,17.535Z" transform="translate(-.003)" fill="#fff"/><path d="M115.465.438h13.168v3.98c-.542.27-.814.067-1.052-.472a3.746,3.746,0,0,0-4.036-2.626c-1.019.1-2.037,0-3.089,0V8.065c3.7.371,4.141.034,4.786-2.63h.816v6.61h-.846c-.135-3.24-2.416-3.035-4.753-2.832,0,2.057-.067,4.081.034,6.1a1.576,1.576,0,0,0,.985,1.08,50.5,50.5,0,0,0,5.058-.067,1.65,1.65,0,0,0,1.018-.775c.544-.809.917-1.681,1.426-2.5.17-.27.51-.4.781-.64.068.067.17.134.242.2-.1,1.619-.2,3.205-.306,4.858H115.465c-.2-.472-.135-.776.475-.84a5.344,5.344,0,0,0,.713-.1,1.214,1.214,0,0,0,1.154-1.272V2.7c0-1.146-.95-1.282-1.765-1.45C115.431,1.215,115.16,1.045,115.465.438Z" transform="translate(-.003)" fill="#fff"/><path d="M41.118,17.5H34.906c-.241-.506-.1-.776.441-.878A2.957,2.957,0,0,0,37.69,14.5c1.731-4.452,3.5-8.9,5.262-13.322.169-.4.1-1.046.883-1.046.781.034.713.675.846,1.08q2.648,6.678,5.2,13.356a2.93,2.93,0,0,0,2.241,2.125c.241.033.373.4.577.607-.068.067-.1.134-.169.2H45.531c-.2-.438-.17-.708.441-.809,1.868-.371,1.868-.371,1.223-2.16-.306-.776-.544-1.586-.917-2.361a1.086,1.086,0,0,0-.78-.54c-1.63-.034-3.262-.068-4.888,0a1.118,1.118,0,0,0-.815.607,15.873,15.873,0,0,0-.746,2.124c-.51,1.653-.306,1.99,1.425,2.294.441.067.985.067.747.775C41.221,17.435,41.187,17.435,41.118,17.5Zm4.515-6.982c-.882-2.259-1.73-4.384-2.647-6.68-.917,2.327-1.731,4.485-2.58,6.678Z" transform="translate(-.003)" fill="#fff"/><path d="M26.251,1.383c-3.157-.24-3.667-.1-5.16,2.934-.242.472-.373.911-1.052.641V.438H34.974v4.52l-.2.2a7.462,7.462,0,0,1-.747-.708c-.2-.27-.272-.608-.441-.878-1.12-2.124-2.207-2.6-4.786-2.16V14.162c0,1.99.1,2.091,2.071,2.462.509.1.917.169.611.877H23.505c-.2-.506-.1-.808.508-.84.374-.033.713-.067,1.088-.134a1.216,1.216,0,0,0,1.119-1.215C26.251,10.691,26.251,6.071,26.251,1.383Z" transform="translate(-.003)" fill="#fff"/><path d="M71.266.438h7.095c.2.54.067.775-.51.877-1.731.3-1.8.439-1.8,2.193V14.6c0,1.686.306,2.024,2,2.057,4.074.034,3.938-.033,5.8-3.439.241-.439.407-.878,1.153-.608-.1,1.586-.241,3.241-.339,4.921H71.3c-.241-.506-.067-.742.51-.84,1.63-.27,1.692-.371,1.692-2.057V3.476c0-1.45-.17-1.686-1.6-2.057C71.368,1.248,70.994,1.113,71.266.438Z" transform="translate(-.003)" fill="#fff"/><path d="M94.011,17.5h-7.57c-.241-.574-.033-.809.51-.84a5.165,5.165,0,0,0,.713-.067,1.237,1.237,0,0,0,1.26-1.211,1.132,1.132,0,0,0-.006-.143V2.9c0-1.012-.272-1.215-1.9-1.586-.679-.169-.679-.169-.611-.877H94.01c.2.574.068.775-.578.84-1.8.24-1.932.405-1.932,2.227v11c0,1.585.2,1.855,1.8,2.124C93.808,16.729,94.354,16.729,94.011,17.5Z" transform="translate(-.003)" fill="#fff"/></svg>