<svg xmlns="http://www.w3.org/2000/svg" width="180" height="27" viewBox="0 0 180 27"><g id="Page-1" transform="translate(-807 108)"><g id="logo" transform="translate(807 -108)" fill="#fff"><g id="Group"><path id="Shape" d="M17.841,18h0L8.921,9l8.921-9H8.921L0,9l4.46,4.551L8.921,18l4.46,4.449Z"/><path id="Shape-2" data-name="Shape" d="M23.2,13.055,18.743,8.5l-4.46-4.449L9.921,8.5l8.822,9h0l-8.921,9h8.921l4.46-4.449,4.46-4.551Z" transform="translate(.982 .496)"/></g><g id="Group-2" data-name="Group" transform="translate(33.8 6.775)"><path id="Shape-3" data-name="Shape" d="M6.037,2.756A4,4,0,0,0,2.865,4.071,5.444,5.444,0,0,0,1.676,7.813a5.972,5.972,0,0,0,1.09,3.742,3.872,3.872,0,0,0,3.172,1.315,10.741,10.741,0,0,0,2.874-.506v1.315a9.333,9.333,0,0,1-3.073.506,5.255,5.255,0,0,1-4.163-1.618A6.97,6.97,0,0,1,.09,7.813,6.9,6.9,0,0,1,.784,4.475,6.115,6.115,0,0,1,2.766,2.251a5.91,5.91,0,0,1,3.172-.809,7.2,7.2,0,0,1,3.37.708L8.713,3.363A7.444,7.444,0,0,0,6.037,2.756Z" transform="translate(-.09 -.532)"/><path id="Shape-4" data-name="Shape" d="M17.463,10.756a2.962,2.962,0,0,1-1.189,2.528,4.959,4.959,0,0,1-3.172.91,7.467,7.467,0,0,1-3.37-.607V12.172a9.615,9.615,0,0,0,1.586.506,9.636,9.636,0,0,0,1.784.2,3.49,3.49,0,0,0,2.081-.506,1.834,1.834,0,0,0,.694-1.517,1.531,1.531,0,0,0-.3-1.011,3.628,3.628,0,0,0-.892-.809A17.453,17.453,0,0,0,12.9,8.228a4.909,4.909,0,0,1-2.379-1.517,3.312,3.312,0,0,1-.694-2.225,3.047,3.047,0,0,1,1.09-2.326A4.136,4.136,0,0,1,13.7,1.352a7.769,7.769,0,0,1,3.37.708l-.4,1.213A7.818,7.818,0,0,0,13.7,2.666a3.123,3.123,0,0,0-1.784.506,1.712,1.712,0,0,0-.595,1.416,2.582,2.582,0,0,0,.2,1.011,1.85,1.85,0,0,0,.793.708,14.123,14.123,0,0,0,1.685.809A7.918,7.918,0,0,1,16.67,8.633,2.846,2.846,0,0,1,17.463,10.756Z" transform="translate(.874 -.543)"/><path id="Shape-5" data-name="Shape" d="M26.024,10.756a2.962,2.962,0,0,1-1.189,2.528,4.959,4.959,0,0,1-3.172.91,7.467,7.467,0,0,1-3.37-.607V12.172a9.615,9.615,0,0,0,1.586.506,9.634,9.634,0,0,0,1.784.2,3.491,3.491,0,0,0,2.082-.506,1.834,1.834,0,0,0,.694-1.517,1.531,1.531,0,0,0-.3-1.011,3.626,3.626,0,0,0-.892-.809,17.442,17.442,0,0,0-1.784-.809,4.908,4.908,0,0,1-2.379-1.517,3.312,3.312,0,0,1-.694-2.225,3.048,3.048,0,0,1,1.09-2.326,4.136,4.136,0,0,1,2.775-.809,7.769,7.769,0,0,1,3.37.708l-.4,1.213a7.818,7.818,0,0,0-2.974-.607,3.124,3.124,0,0,0-1.784.506,1.712,1.712,0,0,0-.595,1.416,2.582,2.582,0,0,0,.2,1.011,1.848,1.848,0,0,0,.793.708,14.12,14.12,0,0,0,1.685.809,7.916,7.916,0,0,1,2.676,1.517A3.3,3.3,0,0,1,26.024,10.756Z" transform="translate(1.73 -.543)"/><path id="Shape-6" data-name="Shape" d="M37.531,7.588a6.582,6.582,0,0,1-1.685,4.753,6.389,6.389,0,0,1-4.758,1.719H27.123V1.622h4.163a6.4,6.4,0,0,1,4.559,1.517A5.846,5.846,0,0,1,37.531,7.588Zm-3.37.1a3.651,3.651,0,0,0-.694-2.528,2.436,2.436,0,0,0-1.982-.809h-.991V11.33h.694a2.608,2.608,0,0,0,2.181-.91A3.737,3.737,0,0,0,34.161,7.689Z" transform="translate(2.613 -.51)"/><path id="Shape-7" data-name="Shape" d="M42.982,13.976a4.824,4.824,0,0,1-3.667-1.315,4.65,4.65,0,0,1-1.289-3.64,5.444,5.444,0,0,1,1.189-3.742,4.372,4.372,0,0,1,3.469-1.315,4.757,4.757,0,0,1,3.271,1.112,4.167,4.167,0,0,1,1.189,3.236V9.83H41.3a1.8,1.8,0,0,0,.595,1.315,2.4,2.4,0,0,0,1.487.506,7.56,7.56,0,0,0,1.586-.2,6.259,6.259,0,0,0,1.586-.607v2.427a4.184,4.184,0,0,1-1.586.506A10.935,10.935,0,0,1,42.982,13.976Zm-.2-7.685a1.259,1.259,0,0,0-.991.4,1.658,1.658,0,0,0-.5,1.112h2.775a1.4,1.4,0,0,0-.4-1.112C43.577,6.392,43.28,6.291,42.784,6.291Z" transform="translate(3.703 -.223)"/><path id="Shape-8" data-name="Shape" d="M55.273,10.819a2.7,2.7,0,0,1-.991,2.326,4.982,4.982,0,0,1-2.974.809,9.45,9.45,0,0,1-1.784-.1,9.13,9.13,0,0,1-1.586-.4V10.819c.5.2,1.09.4,1.685.607a9.7,9.7,0,0,0,1.586.2c.694,0,1.09-.2,1.09-.506,0-.2-.1-.3-.3-.4s-.793-.4-1.685-.809A4.571,4.571,0,0,1,48.533,8.7a3.18,3.18,0,0,1-.5-1.719,2.438,2.438,0,0,1,.991-2.124A4.674,4.674,0,0,1,51.9,4.145a10.713,10.713,0,0,1,1.784.2,5.65,5.65,0,0,1,1.685.607L54.48,7.078a5.658,5.658,0,0,0-1.388-.506,7.188,7.188,0,0,0-1.189-.2c-.5,0-.793.1-.793.4,0,.2.1.3.3.4s.694.3,1.586.708A4.957,4.957,0,0,1,54.48,8.7a2.782,2.782,0,0,1,.694.91C55.174,9.808,55.273,10.314,55.273,10.819Z" transform="translate(4.694 -.201)"/><path id="Shape-9" data-name="Shape" d="M56.229,2.148a1.274,1.274,0,0,1,.4-1.112,2.177,2.177,0,0,1,1.289-.4c.595,0,1.09.1,1.289.4a1.274,1.274,0,0,1,.4,1.112c0,1.011-.595,1.416-1.784,1.416C56.724,3.664,56.229,3.159,56.229,2.148ZM59.5,14.181H56.229V4.575H59.5Z" transform="translate(5.523 -.631)"/><path id="Shape-10" data-name="Shape" d="M70.277,4.167V5.785l-1.289.506a2.07,2.07,0,0,1,.3,1.112A3.1,3.1,0,0,1,68.2,9.83a4.782,4.782,0,0,1-3.172.809,1.673,1.673,0,0,1-.793-.1.618.618,0,0,0-.1.4c0,.2.1.3.4.4a3,3,0,0,0,.991.1H67.1c2.081,0,3.172.91,3.172,2.73a2.993,2.993,0,0,1-1.487,2.73,7.93,7.93,0,0,1-4.163,1.011,5.347,5.347,0,0,1-3.073-.708,2.176,2.176,0,0,1-1.09-1.921c0-1.112.694-1.921,2.081-2.225a2.082,2.082,0,0,1-.793-.607,1.361,1.361,0,0,1-.3-.809,1.934,1.934,0,0,1,.2-.809,4.847,4.847,0,0,1,.991-.809,2.929,2.929,0,0,1-1.19-1.011,3.149,3.149,0,0,1-.4-1.719,3.1,3.1,0,0,1,1.09-2.427,4.38,4.38,0,0,1,2.974-.91,3.35,3.35,0,0,1,.892.1c.4,0,.694.1.892.1ZM63.14,14.987a.767.767,0,0,0,.4.708,2.11,2.11,0,0,0,1.19.2,4.908,4.908,0,0,0,1.883-.3c.5-.2.694-.506.694-.809s-.1-.4-.4-.506a3.814,3.814,0,0,0-1.289-.2H64.329a2.329,2.329,0,0,0-.892.2A.927.927,0,0,0,63.14,14.987ZM64.131,7.3c0,1.011.3,1.517.991,1.517a.662.662,0,0,0,.694-.4,1.65,1.65,0,0,0,.3-1.112c0-1.011-.3-1.517-.991-1.517C64.528,5.785,64.131,6.291,64.131,7.3Z" transform="translate(5.946 -.223)"/><path id="Shape-11" data-name="Shape" d="M76.6,13.752V8.493a2.723,2.723,0,0,0-.3-1.416,1.037,1.037,0,0,0-.892-.506,1.12,1.12,0,0,0-1.189.708,5.7,5.7,0,0,0-.4,2.326v4.247H70.556V4.246h2.478l.4,1.213h.2a2.929,2.929,0,0,1,1.19-1.011,4.548,4.548,0,0,1,1.685-.3,3.261,3.261,0,0,1,2.478.91,3.658,3.658,0,0,1,.892,2.629v6.27H76.6Z" transform="translate(6.955 -.201)"/><path id="Shape-12" data-name="Shape" d="M89.326,14.06l-1.487-3.944H82.982L81.5,14.06H80.108L84.965,1.622h1.189L90.912,14.06ZM87.343,8.8,85.956,4.959q-.3-.758-.595-1.82c-.1.506-.3,1.112-.5,1.82L83.478,8.8Z" transform="translate(7.91 -.51)"/><path id="Shape-13" data-name="Shape" d="M98.742,13.708,97.057,8.247c-.1-.3-.3-1.112-.595-2.225h-.1a18.905,18.905,0,0,1-.595,2.326l-1.685,5.461H92.5l-2.478-9.3h1.487c.595,2.326.991,4.146,1.388,5.36a14.771,14.771,0,0,1,.5,2.427h.1a10.694,10.694,0,0,0,.3-1.214,8.553,8.553,0,0,1,.4-1.213l1.685-5.36h1.487l1.586,5.36a21.259,21.259,0,0,1,.595,2.427h.1a5.21,5.21,0,0,1,.2-.91c.1-.4.694-2.73,1.686-6.876h1.387l-2.478,9.3H98.742Z" transform="translate(8.901 -.157)"/><path id="Shape-14" data-name="Shape" d="M108.889,13.741l-.3-1.315h-.1A3.736,3.736,0,0,1,107.1,13.64a4.2,4.2,0,0,1-1.685.3,2.756,2.756,0,0,1-2.081-.708,2.684,2.684,0,0,1-.793-2.022c0-1.921,1.487-2.831,4.46-2.933l1.586-.1V7.572a2.4,2.4,0,0,0-.5-1.618,2.026,2.026,0,0,0-1.486-.506,5.51,5.51,0,0,0-2.577.708l-.4-1.112c.5-.2.892-.4,1.487-.607a8.5,8.5,0,0,1,1.586-.2,3.211,3.211,0,0,1,2.378.708,3.272,3.272,0,0,1,.793,2.326V13.64h-.991Zm-3.171-1.011a2.526,2.526,0,0,0,1.982-.708A2.64,2.64,0,0,0,108.394,10V9.19l-1.388.1a4.656,4.656,0,0,0-2.379.506,1.54,1.54,0,0,0-.693,1.416,1.316,1.316,0,0,0,.495,1.112A1.967,1.967,0,0,0,105.717,12.73Z" transform="translate(10.153 -.19)"/><path id="Shape-15" data-name="Shape" d="M115.989,4.235a3.644,3.644,0,0,1,1.09.1l-.2,1.315a3.646,3.646,0,0,0-.991-.1,2.421,2.421,0,0,0-1.883.91,3.649,3.649,0,0,0-.793,2.326v4.955h-1.388v-9.3h1.091l.2,1.719h.1A4.237,4.237,0,0,1,114.4,4.741,2.955,2.955,0,0,1,115.989,4.235Z" transform="translate(11.081 -.19)"/><path id="Shape-16" data-name="Shape" d="M124.424,12.935h0a3.555,3.555,0,0,1-2.973,1.416,3.425,3.425,0,0,1-2.775-1.213,5.352,5.352,0,0,1-.991-3.539,5.352,5.352,0,0,1,.991-3.539,3.607,3.607,0,0,1,5.649.1h.1l-.1-.708V.9h1.387V14.148h-1.09Zm-2.775.2a2.654,2.654,0,0,0,2.081-.809,4.292,4.292,0,0,0,.6-2.528V9.5a4.39,4.39,0,0,0-.694-2.831,2.251,2.251,0,0,0-2.081-.809,2.134,2.134,0,0,0-1.883,1.011,4.97,4.97,0,0,0-.694,2.73,5.04,5.04,0,0,0,.6,2.73A2.975,2.975,0,0,0,121.648,13.137Z" transform="translate(11.667 -.598)"/><path id="Shape-17" data-name="Shape" d="M133.6,11.213a2.26,2.26,0,0,1-.991,2.022,4.052,4.052,0,0,1-2.676.708,5.811,5.811,0,0,1-2.874-.607V12.022a5.656,5.656,0,0,0,1.387.506,7.524,7.524,0,0,0,1.487.2,3.88,3.88,0,0,0,1.685-.3,1.168,1.168,0,0,0,.6-1.112,1.068,1.068,0,0,0-.5-.91,4.8,4.8,0,0,0-1.784-.91,7.941,7.941,0,0,1-1.784-.809,2.052,2.052,0,0,1-.793-.809,2.072,2.072,0,0,1-.3-1.112,2.312,2.312,0,0,1,.892-1.82,3.642,3.642,0,0,1,2.478-.708,6.989,6.989,0,0,1,2.874.607l-.5,1.112a6.3,6.3,0,0,0-2.477-.607,2.74,2.74,0,0,0-1.487.3,1.068,1.068,0,0,0-.5.91,1.091,1.091,0,0,0,.2.607c.1.2.3.3.594.506a8.8,8.8,0,0,0,1.586.708,6.011,6.011,0,0,1,2.18,1.213A2.173,2.173,0,0,1,133.6,11.213Z" transform="translate(12.604 -.19)"/></g></g></g></svg>