<?xml version="1.0" encoding="UTF-8"?>
<svg width="241px" height="338px" viewBox="0 0 241 338" version="1.1" xmlns="http://www.w3.org/2000/svg" xmlns:xlink="http://www.w3.org/1999/xlink">
    <!-- Generator: sketchtool 50 (54983) - http://www.bohemiancoding.com/sketch -->
    <title>43BFCDF1-3945-49C1-99D3-C417D1C8DB14</title>
    <desc>Created with sketchtool.</desc>
    <defs>
        <filter x="-1.7%" y="-1.2%" width="103.3%" height="104.8%" filterUnits="objectBoundingBox" id="filter-1">
            <feOffset dx="0" dy="8" in="SourceAlpha" result="shadowOffsetOuter1"></feOffset>
            <feColorMatrix values="0 0 0 0 0   0 0 0 0 0   0 0 0 0 0  0 0 0 0.0835031703 0" type="matrix" in="shadowOffsetOuter1" result="shadowMatrixOuter1"></feColorMatrix>
            <feMerge>
                <feMergeNode in="shadowMatrixOuter1"></feMergeNode>
                <feMergeNode in="SourceGraphic"></feMergeNode>
            </feMerge>
        </filter>
        <linearGradient x1="50%" y1="0%" x2="50%" y2="100%" id="linearGradient-2">
            <stop stop-color="#8EC1FF" offset="0%"></stop>
            <stop stop-color="#558DFF" offset="100%"></stop>
        </linearGradient>
        <linearGradient x1="15.4121484%" y1="-48.6678564%" x2="64.951197%" y2="117.631245%" id="linearGradient-3">
            <stop stop-color="#FFFFFF" offset="0%"></stop>
            <stop stop-color="#FBFEFF" offset="18%"></stop>
            <stop stop-color="#EDFAFF" offset="37%"></stop>
            <stop stop-color="#D7F4FF" offset="57%"></stop>
            <stop stop-color="#B9ECFF" offset="78%"></stop>
            <stop stop-color="#91E1FF" offset="99%"></stop>
            <stop stop-color="#8FE0FF" offset="100%"></stop>
        </linearGradient>
    </defs>
    <g id="The-golden-fleece" stroke="none" stroke-width="1" fill="none" fill-rule="evenodd">
        <g id="All-Universes---Main" transform="translate(-580.000000, -90.000000)">
            <g id="logo-all-universe" filter="url(#filter-1)" transform="translate(580.000000, 90.000000)">
                <circle id="Oval-4" fill="url(#linearGradient-2)" cx="120.5" cy="209.5" r="120.5"></circle>
                <path d="M215.682692,98.5192308 C215.682692,43.0192308 170.971154,-1.70673077 116.725962,0.442307692 C68.2644231,2.49038462 28.5144231,42.5865385 25.6153846,92.5192308 C24.0874483,117.135485 31.7333116,141.445014 47.0769231,160.754808 C62.9671292,180.38308 76.7541351,201.62435 88.2115385,224.129808 L93.4615385,234.644231 L147.706731,234.644231 L152.682692,224.677885 C164.158086,202.020772 177.999629,180.642043 193.975962,160.899038 C208.101763,143.183113 215.75929,121.177263 215.682692,98.5192308 Z" id="Shape" fill="#558DFF" fill-rule="nonzero"></path>
                <path d="M194.495192,98.5192308 C194.495192,43.0192308 159.764423,-1.70673077 117.576923,0.442307692 C79.9038462,2.49038462 49.0096154,42.5865385 46.7596154,92.5192308 C45.5913462,118.480769 52.0384615,142.394231 63.4038462,160.740385 C75.9919134,180.835314 86.6960779,202.050515 95.3798077,224.115385 L99.4615385,234.629808 L141.663462,234.629808 L145.528846,224.663462 C154.22628,202.452659 164.974676,181.100724 177.634615,160.884615 C188.163462,143.951923 194.495192,122.245192 194.495192,98.5192308 Z" id="Shape" fill="#3B5998" fill-rule="nonzero"></path>
                <path d="M168.230769,98.5192308 C168.230769,43.0480769 145.846154,-1.67788462 118.644231,0.514423077 C94.3413462,2.49038462 74.4807692,42.5865385 72.9663462,92.5192308 C72.2163462,118.480769 76.3701923,142.394231 83.6971154,160.740385 C91.993008,181.376247 98.883732,202.549563 104.322115,224.115385 L106.961538,234.629808 L134.163462,234.629808 L136.658654,224.663462 C142.100397,202.958234 149.015466,181.64922 157.355769,160.884615 C164.163462,143.951923 168.230769,122.245192 168.230769,98.5192308 Z" id="Shape" fill="#558DFF" fill-rule="nonzero"></path>
                <path d="M140.307692,98.5192308 C140.307692,43.0192308 131.033654,-1.70673077 119.769231,0.442307692 C109.673077,2.40384615 101.466346,42.5144231 100.860577,92.4471154 C100.543269,118.408654 102.302885,142.322115 105.302885,160.668269 C108.5625,180.370192 111.490385,201.370192 113.841346,224.043269 L114.9375,234.557692 L126.201923,234.557692 L127.240385,224.591346 C129.605769,201.788462 132.533654,180.586538 135.807692,160.8125 C138.953998,140.199901 140.458726,119.370026 140.307692,98.5192308 Z" id="Shape" fill="#3B5998" fill-rule="nonzero"></path>
                <path d="M120.5625,220.682692 C109.705604,220.535802 98.8767235,221.820913 88.3557692,224.504808 L93.4182692,234.600962 L147.706731,234.600962 L152.682692,224.634615 L152.769231,224.461538 C142.246334,221.792226 131.417483,220.521667 120.5625,220.682692 Z" id="Shape" fill="#212A41" fill-rule="nonzero"></path>
                <ellipse id="Oval" fill="#3B5998" fill-rule="nonzero" cx="120.5625" cy="234.644231" rx="27.1442308" ry="3.83653846"></ellipse>
                <path d="M95.0913462,234.644231 L100.254808,264.889423" id="Shape" stroke="#3B5998" stroke-width="1.24"></path>
                <path d="M107.538462,234.644231 L110.913462,265.105769" id="Shape" stroke="#3B5998" stroke-width="1.24"></path>
                <path d="M146.033654,234.644231 L140.855769,264.889423" id="Shape" stroke="#3B5998" stroke-width="1.24"></path>
                <path d="M133.586538,234.644231 L130.211538,265.105769" id="Shape" stroke="#3B5998" stroke-width="1.24"></path>
                <path d="M120.5625,234.644231 L120.5625,264.096154" id="Shape" stroke="#3B5998" stroke-width="1.24"></path>
                <path d="M133.009615,298.884615 L108.115385,298.884615 C105.453906,298.881155 103.190486,296.941955 102.778846,294.3125 L98.1778846,265.105769 L142.889423,265.105769 L138.288462,294.326923 C137.874047,296.929242 135.644549,298.854164 133.009615,298.884615 Z" id="Shape" fill="#212A41" fill-rule="nonzero"></path>
                <path d="M137.365385,265.105769 L132.764423,294.326923 C132.352783,296.956378 130.089364,298.895578 127.427885,298.899038 L133.009615,298.899038 C135.671094,298.895578 137.934514,296.956378 138.346154,294.326923 L142.947115,265.105769 L137.365385,265.105769 Z" id="Shape" fill-opacity="0.0806442482" fill="#000000" fill-rule="nonzero"></path>
                <path d="M142.269231,269.129808 C127.92773,266.960401 113.341501,266.960401 99,269.129808 C97.2336297,269.41031 95.5648962,268.233885 95.2355769,266.475962 C95.0956978,265.607199 95.3146128,264.718876 95.8421488,264.014588 C96.3696847,263.3103 97.1606106,262.850434 98.0336538,262.740385 C113.034644,260.468264 128.292279,260.468264 143.293269,262.740385 C144.166312,262.850434 144.957238,263.3103 145.484774,264.014588 C146.01231,264.718876 146.231225,265.607199 146.091346,266.475962 C145.76243,268.260187 144.055916,269.445087 142.269231,269.129808 Z" id="Shape" fill="#3B5998" fill-rule="nonzero"></path>
                <path d="M145.990385,266.461538 C146.130264,265.592775 145.911349,264.704453 145.383813,264.000165 C144.856277,263.295877 144.065351,262.83601 143.192308,262.725962 C141.836538,262.524038 140.466346,262.350962 139.110577,262.192308 C139.254808,262.4375 141.995192,267.182692 136.860577,268.408654 C138.658654,268.610577 140.447115,268.846154 142.225962,269.115385 C143.992332,269.395887 145.661065,268.219462 145.990385,266.461538 Z" id="Shape" fill="url(#linearGradient-3)" fill-rule="nonzero" style="mix-blend-mode: multiply;"></path>
            </g>
        </g>
    </g>
</svg>