<svg version="1.1" id="Слой_1" xmlns="http://www.w3.org/2000/svg" x="0" y="0" width="229.606" height="263.622" viewBox="0 0 229.606 263.622" xml:space="preserve"><g fill="#FFF"><path d="M167.434,215.931l-20.311,20.311c-4.103,4.104-4.103,10.78,0,14.884c4.104,4.104,10.779,4.104,14.883,0 l12.789-12.789l13.033,13.033c2.08,2.022,4.748,3.033,7.417,3.033c2.668-0.001,5.337-1.012,7.417-3.033 c2.037-1.98,3.181-4.637,3.221-7.479c0.04-2.841-1.029-5.528-3.015-7.57l-20.472-20.473 C178.246,211.746,171.533,211.783,167.434,215.931z M204.882,243.878c-0.036,2.574-1.072,4.98-2.918,6.775 c-3.768,3.662-9.67,3.663-13.434,0.005l-13.735-13.735l-13.496,13.496c-3.714,3.712-9.756,3.714-13.469,0s-3.713-9.756,0-13.47 l20.313-20.312c3.715-3.756,9.793-3.79,13.547-0.079l20.465,20.466C203.95,238.869,204.919,241.304,204.882,243.878z"/><path d="M162.703,195.908c-4.093-4.094-10.755-4.094-14.849,0l-20.756,20.756c-4.094,4.094-4.094,10.755,0,14.849 c2.047,2.047,4.736,3.07,7.425,3.07c2.688,0,5.377-1.023,7.424-3.07l20.756-20.756 C166.796,206.663,166.796,200.002,162.703,195.908z M141.24,230.805c-1.794,1.794-4.18,2.782-6.718,2.782 c-2.537,0-4.923-0.988-6.717-2.782s-2.783-4.18-2.783-6.718c0-2.537,0.988-4.923,2.783-6.717l20.756-20.756 c1.794-1.794,4.18-2.782,6.717-2.782c2.538,0,4.923,0.988,6.718,2.782s2.782,4.18,2.782,6.717c0,2.538-0.988,4.924-2.782,6.718 L141.24,230.805z"/><path d="M224.856,210.267l0.081-0.079c1.945-1.948,3.014-4.538,3.012-7.291s-1.077-5.341-3.03-7.29l-0.119-0.114 c-2.014-1.915-4.67-2.93-7.433-2.862c-2.779,0.07-5.364,1.218-7.273,3.227c-8.609,8.737-8.587,22.932,0.05,31.644l12.213,12.215 c2.003,1.996,4.623,3.001,7.249,3.024v-1c-2.371-0.023-4.735-0.93-6.543-2.732l-12.211-12.212 c-8.252-8.324-8.273-21.888-0.04-30.243c1.731-1.821,4.068-2.858,6.58-2.922c0.082-0.002,0.162-0.003,0.243-0.003 c2.422,0,4.714,0.914,6.481,2.596l0.1,0.096c1.759,1.757,2.729,4.093,2.732,6.579s-0.963,4.824-2.72,6.583l0.354,0.354 l-0.425-0.282c-1.09,1.085-1.097,2.854-0.013,3.948l5.462,5.462v-1.414l-4.753-4.753 C224.159,212.095,224.163,210.958,224.856,210.267z"/><path d="M224.863,90.054l0.073-0.073h0.001c4.015-4.023,4.008-10.562-0.041-14.603l-0.096-0.093 c-2.014-1.915-4.67-2.916-7.433-2.862c-2.779,0.07-5.364,1.218-7.273,3.227c-8.609,8.737-8.587,22.932,0.05,31.644l12.213,12.215 c2.003,1.996,4.623,3.001,7.249,3.024v-1c-2.371-0.023-4.735-0.93-6.543-2.732l-12.211-12.212 c-8.252-8.324-8.273-21.888-0.04-30.243c1.731-1.821,4.068-2.858,6.58-2.922c0.082-0.002,0.162-0.003,0.243-0.003 c2.422,0,4.714,0.914,6.479,2.593l0.103,0.099c3.632,3.625,3.637,9.53,0.012,13.162l0.354,0.354l-0.425-0.282 c-1.09,1.084-1.097,2.854-0.013,3.948l5.462,5.462v-1.414l-4.753-4.753C224.159,91.887,224.163,90.75,224.863,90.054z"/><path d="M121.818,124.325c-4.094,4.094-4.094,10.756,0,14.85c2.047,2.047,4.736,3.07,7.424,3.07 c2.689,0,5.378-1.023,7.425-3.07c4.094-4.094,4.094-10.756,0-14.85C132.574,120.231,125.912,120.231,121.818,124.325z M135.96,138.468c-3.704,3.703-9.731,3.703-13.435,0c-3.704-3.704-3.704-9.731,0-13.436c1.852-1.852,4.285-2.778,6.717-2.778 c2.433,0,4.866,0.927,6.718,2.778C139.664,128.736,139.664,134.764,135.96,138.468z"/><path d="M181.922,79.07c2.047,2.047,4.736,3.07,7.425,3.07s5.378-1.023,7.425-3.07 c4.093-4.094,4.093-10.755,0-14.849c-4.094-4.094-10.756-4.094-14.85,0C177.829,68.315,177.829,74.976,181.922,79.07z M196.064,64.929c3.704,3.704,3.704,9.73,0,13.435c-3.705,3.705-9.731,3.703-13.436,0c-3.704-3.704-3.704-9.73,0-13.435 C186.334,61.223,192.36,61.225,196.064,64.929z"/><path d="M181.922,184.43c-4.093,4.094-4.093,10.755,0,14.849c2.047,2.047,4.736,3.07,7.425,3.07 s5.378-1.023,7.425-3.07c4.093-4.094,4.093-10.755,0-14.849C192.678,180.336,186.016,180.336,181.922,184.43z M196.064,198.571 c-3.705,3.705-9.731,3.703-13.436,0c-3.704-3.704-3.704-9.73,0-13.435c3.705-3.704,9.731-3.704,13.436,0 C199.768,188.841,199.768,194.867,196.064,198.571z"/><path d="M176.99,84.038c-4.149-4.103-10.862-4.062-14.962,0.083l-20.311,20.311 c-1.988,1.987-3.083,4.63-3.083,7.441s1.095,5.454,3.083,7.441c1.988,1.988,4.63,3.083,7.441,3.083 c2.812,0,5.454-1.095,7.442-3.083l12.789-12.788l13.034,13.033c2.08,2.021,4.748,3.033,7.417,3.033s5.337-1.012,7.417-3.033 c4.206-4.09,4.3-10.839,0.206-15.05L176.99,84.038z M196.559,118.843c-3.768,3.663-9.67,3.665-13.434,0.005l-13.736-13.735 l-13.496,13.495c-1.799,1.799-4.19,2.79-6.735,2.79c-2.544,0-4.936-0.991-6.734-2.79s-2.79-4.19-2.79-6.734s0.991-4.936,2.79-6.734 l20.313-20.312c3.715-3.756,9.794-3.791,13.548-0.079l20.465,20.465C200.455,109.022,200.369,115.137,196.559,118.843z"/><path d="M222.132,24.016l-20.311,20.311c-4.103,4.104-4.103,10.78,0,14.884c4.104,4.104,10.78,4.104,14.883,0 l12.789-12.789l0.113,0.113v-1.414l-0.113-0.113l-13.496,13.496c-3.713,3.713-9.756,3.713-13.469,0 c-3.713-3.714-3.713-9.756,0-13.47l20.313-20.312c1.859-1.879,4.31-2.827,6.765-2.839v-1 C226.893,20.895,224.185,21.941,222.132,24.016z"/><path d="M222.132,144.224l-20.311,20.311c-4.103,4.104-4.103,10.78,0,14.884c4.104,4.103,10.78,4.104,14.883,0 l12.789-12.789l0.113,0.113v-1.414l-0.113-0.113l-13.496,13.496c-3.714,3.713-9.756,3.713-13.469,0 c-3.713-3.714-3.713-9.756,0-13.47l20.313-20.312c1.859-1.879,4.31-2.826,6.765-2.839v-1 C226.893,141.103,224.185,142.148,222.132,144.224z"/><path d="M176.475,124.144c-4.148-4.1-10.861-4.062-14.959,0.081c-4.149,4.102-4.187,10.814-0.083,14.965 l20.475,20.476c2.059,2.036,4.75,3.052,7.439,3.052c2.729,0,5.457-1.046,7.522-3.135l20.311-20.311 c4.103-4.104,4.103-10.78,0-14.884c-4.104-4.104-10.779-4.104-14.883,0l-12.789,12.789L176.475,124.144z M203.004,125.096 c3.713-3.713,9.755-3.713,13.469,0c3.713,3.714,3.713,9.756,0,13.47l-20.313,20.312c-3.714,3.757-9.792,3.792-13.547,0.079 l-20.471-20.472c-3.714-3.757-3.679-9.835,0.082-13.553c1.871-1.892,4.342-2.84,6.814-2.84c2.435,0,4.87,0.92,6.733,2.761 l13.738,13.738L203.004,125.096z"/><path d="M162.248,179.605c1.983,1.983,4.62,3.075,7.424,3.075s5.441-1.092,7.425-3.075 c4.094-4.094,4.094-10.755,0-14.849l-20.756-20.756c-4.094-4.094-10.755-4.093-14.849,0c-4.094,4.094-4.094,10.755,0,14.849 L162.248,179.605z M142.199,144.708c1.794-1.794,4.18-2.782,6.718-2.782c2.537,0,4.923,0.988,6.717,2.782l20.756,20.756 c1.794,1.794,2.783,4.18,2.783,6.718c0,2.537-0.988,4.923-2.783,6.717s-4.18,2.782-6.718,2.782s-4.923-0.988-6.717-2.782 l-20.756-20.756c-1.794-1.794-2.782-4.18-2.782-6.717C139.417,148.888,140.404,146.502,142.199,144.708z"/><path d="M134.648,10.433c2.689,0,5.378-1.023,7.425-3.07c2.031-2.031,3.052-4.695,3.067-7.363h-0.999 c-0.015,2.412-0.938,4.82-2.775,6.656c-3.704,3.702-9.73,3.704-13.435,0c-1.837-1.837-2.76-4.244-2.775-6.656h-0.999 c0.015,2.668,1.036,5.332,3.067,7.363C129.27,9.41,131.959,10.433,134.648,10.433z"/><path d="M201.694 0L200.28 0 194.913 5.367 189.546 0 188.132 0 194.913 6.781z"/><path d="M187.312,27.854c2.059,2.036,4.75,3.052,7.439,3.052c2.729,0,5.458-1.047,7.522-3.135l20.311-20.311 c1.988-1.987,3.083-4.63,3.083-7.441c0-0.007-0.001-0.013-0.001-0.02h-1c0,0.007,0.001,0.013,0.001,0.02 c0,2.544-0.991,4.936-2.79,6.734l-20.313,20.312c-3.714,3.757-9.793,3.792-13.548,0.079L167.546,6.675 c-1.828-1.849-2.743-4.26-2.758-6.675h-1c0.015,2.669,1.027,5.335,3.048,7.38L187.312,27.854z"/><path d="M162.703,67.344c4.094-4.094,4.094-10.756,0-14.85c-4.093-4.093-10.755-4.095-14.849,0L127.098,73.25 c-4.094,4.094-4.094,10.755,0,14.849c2.047,2.047,4.736,3.07,7.424,3.07c2.689,0,5.378-1.023,7.425-3.07L162.703,67.344z M134.522,90.174c-2.537,0-4.923-0.988-6.717-2.782s-2.783-4.18-2.783-6.718c0-2.537,0.988-4.923,2.783-6.717l20.756-20.756 c1.794-1.794,4.18-2.782,6.717-2.782c2.538,0,4.923,0.988,6.718,2.782s2.782,4.18,2.782,6.718s-0.988,4.924-2.782,6.718 L141.24,87.391C139.445,89.185,137.06,90.174,134.522,90.174z"/><path d="M167.652,47.795c2.047,2.047,4.736,3.07,7.424,3.07c2.689,0,5.378-1.023,7.425-3.07 c4.094-4.094,4.094-10.756,0-14.85l-20.756-20.756c-4.094-4.094-10.755-4.094-14.849,0c-4.094,4.094-4.094,10.756,0,14.85 L167.652,47.795z M147.604,12.896c1.794-1.794,4.18-2.782,6.717-2.782c2.538,0,4.923,0.988,6.718,2.782l20.756,20.756 c1.794,1.794,2.782,4.18,2.782,6.718s-0.988,4.924-2.782,6.718s-4.18,2.782-6.718,2.782c-2.537,0-4.923-0.988-6.717-2.782 l-20.756-20.756c-1.794-1.794-2.783-4.18-2.783-6.718S145.809,14.69,147.604,12.896z"/><path d="M142.072,256.137c-4.093-4.093-10.755-4.095-14.849,0c-2.062,2.062-3.083,4.777-3.067,7.486h0.999 c-0.016-2.453,0.907-4.911,2.775-6.779c1.852-1.852,4.285-2.778,6.717-2.778c2.433,0,4.866,0.927,6.718,2.778 c1.868,1.868,2.791,4.326,2.775,6.779h0.999C145.155,260.913,144.135,258.199,142.072,256.137z"/><path d="M166.92,256.037c-2.01,1.986-3.125,4.638-3.141,7.464c0,0.041,0.005,0.081,0.005,0.122h0.999 c0-0.039-0.005-0.077-0.005-0.116c0.015-2.56,1.025-4.96,2.849-6.763c1.872-1.893,4.343-2.841,6.815-2.841 c2.434,0,4.87,0.92,6.732,2.761l6.958,6.958h1.414l-7.667-7.667C177.73,251.852,171.017,251.892,166.92,256.037z"/><path d="M215.143,253.117c-2.811,0-5.454,1.095-7.441,3.083l-7.423,7.422h1.414l6.716-6.715 c1.799-1.799,4.19-2.79,6.734-2.79c2.544,0,4.936,0.991,6.735,2.79c1.794,1.794,2.784,4.179,2.789,6.715h1 c-0.005-2.804-1.098-5.44-3.082-7.422C220.597,254.212,217.955,253.117,215.143,253.117z"/><path d="M110.051,224.399c-0.694-0.702-0.69-1.839,0.002-2.529l0.081-0.079c1.945-1.948,3.014-4.538,3.012-7.291 s-1.077-5.341-3.061-7.319l-0.087-0.084c-2.014-1.915-4.658-2.91-7.433-2.862c-2.779,0.07-5.364,1.218-7.273,3.227 c-8.609,8.736-8.587,22.932,0.05,31.644l12.213,12.214c1.963,1.957,4.57,3.034,7.341,3.034c0.006,0,0.012,0,0.018,0 c2.778-0.005,5.388-1.091,7.349-3.059c4.048-4.061,4.038-10.659-0.024-14.708L110.051,224.399z M121.554,250.589 c-1.773,1.777-4.132,2.76-6.643,2.764c-0.005,0-0.01,0-0.016,0c-2.505,0-4.861-0.974-6.635-2.742l-12.211-12.211 c-8.251-8.324-8.272-21.889-0.04-30.243c1.731-1.821,4.068-2.858,6.58-2.922c0.082-0.002,0.162-0.003,0.243-0.003 c2.422,0,4.714,0.914,6.479,2.593l0.103,0.098c1.759,1.757,2.729,4.093,2.732,6.579s-0.963,4.824-2.72,6.583l0.354,0.354 l-0.425-0.282c-1.089,1.084-1.096,2.855-0.013,3.949l12.189,12.189l0,0.001C125.203,240.954,125.213,246.918,121.554,250.589z"/><path d="M67.119,196.032c-4.094,4.094-4.094,10.756,0,14.85c2.047,2.047,4.736,3.07,7.425,3.07 c2.688,0,5.377-1.023,7.424-3.07c4.094-4.094,4.094-10.756,0-14.85C77.875,191.938,71.213,191.939,67.119,196.032z M81.261,196.739 c3.704,3.704,3.704,9.731,0,13.436s-9.731,3.703-13.435,0c-3.704-3.704-3.704-9.731,0-13.436c1.852-1.852,4.285-2.778,6.718-2.778 C76.977,193.961,79.409,194.888,81.261,196.739z"/><path d="M62.187,215.848c-4.149-4.103-10.862-4.062-14.962,0.083l-20.311,20.311c-4.103,4.104-4.103,10.78,0,14.884 s10.779,4.104,14.883,0l12.789-12.789L67.62,251.37c2.08,2.022,4.748,3.033,7.417,3.033c2.668-0.001,5.337-1.012,7.417-3.033 c2.037-1.98,3.182-4.637,3.221-7.479c0.04-2.841-1.029-5.528-3.015-7.57L62.187,215.848z M81.755,250.653 c-3.768,3.663-9.67,3.665-13.434,0.005l-13.736-13.735L41.09,250.419c-3.714,3.713-9.756,3.713-13.469,0 c-3.713-3.714-3.713-9.756,0-13.47l20.313-20.312c3.715-3.756,9.794-3.79,13.548-0.079l20.465,20.466 C85.652,240.834,85.566,246.948,81.755,250.653z"/><path d="M101.901,191.021l12.789-12.789l13.033,13.034c2.08,2.021,4.748,3.033,7.417,3.033s5.337-1.012,7.417-3.033 c4.206-4.09,4.301-10.839,0.207-15.05l-20.472-20.472c-4.149-4.103-10.862-4.064-14.962,0.082l-20.311,20.312 c-1.988,1.987-3.083,4.63-3.083,7.441s1.095,5.454,3.083,7.441c1.988,1.988,4.63,3.083,7.441,3.083S99.914,193.01,101.901,191.021z M84.936,183.58c0-2.544,0.991-4.936,2.79-6.734l20.312-20.313c3.715-3.754,9.793-3.79,13.548-0.078l20.465,20.465 c3.705,3.811,3.619,9.926-0.192,13.631c-3.768,3.663-9.67,3.665-13.434,0.005l-13.735-13.736l-13.496,13.496 c-1.799,1.799-4.19,2.79-6.734,2.79s-4.936-0.991-6.734-2.79S84.936,186.124,84.936,183.58z"/><path d="M7.459,239.691c1.961-1.968,3.039-4.581,3.034-7.359c-0.004-2.777-1.091-5.388-3.058-7.349L0,217.549v1.414 l6.728,6.729l0,0.001c1.778,1.771,2.76,4.131,2.764,6.642s-0.97,4.873-2.742,6.652c-1.857,1.862-4.307,2.778-6.75,2.754v1 c0.031,0,0.062,0.004,0.093,0.004C2.762,242.744,5.43,241.726,7.459,239.691z"/><path d="M7.459,119.482c1.961-1.967,3.039-4.58,3.034-7.358c-0.004-2.777-1.091-5.388-3.058-7.349L0,97.341v1.414 l6.728,6.729l0,0.001c1.778,1.771,2.76,4.131,2.764,6.642s-0.97,4.873-2.742,6.651c-1.857,1.863-4.307,2.779-6.75,2.755v0.999 c0.031,0,0.062,0.004,0.092,0.004C2.761,122.536,5.43,121.518,7.459,119.482z"/><path d="M27.269,124.325c-4.094-4.094-10.755-4.093-14.849,0c-4.094,4.094-4.094,10.756,0,14.85 c2.047,2.047,4.736,3.07,7.425,3.07c2.688,0,5.377-1.023,7.424-3.07C31.363,135.081,31.363,128.419,27.269,124.325z M26.562,138.468c-3.704,3.704-9.731,3.703-13.435,0c-3.704-3.704-3.704-9.731,0-13.436c1.852-1.852,4.285-2.778,6.718-2.778 c2.433,0,4.865,0.927,6.717,2.778C30.266,128.736,30.266,134.764,26.562,138.468z"/><path d="M20.337,62.488c2.668-0.001,5.337-1.012,7.417-3.033c4.206-4.089,4.3-10.838,0.206-15.049L7.488,23.933 C5.416,21.885,2.706,20.869,0,20.882v1c2.451-0.013,4.907,0.906,6.783,2.76l20.465,20.466c3.705,3.811,3.619,9.925-0.191,13.63 c-3.768,3.662-9.67,3.663-13.434,0.005L0,45.12v1.414l12.92,12.92C15,61.477,17.668,62.488,20.337,62.488z"/><path d="M20.337,182.696c2.668-0.001,5.337-1.012,7.417-3.033c2.037-1.98,3.181-4.637,3.221-7.479 c0.04-2.841-1.029-5.528-3.015-7.57L7.488,144.142c-1.995-1.973-4.634-3.058-7.438-3.058c-0.017,0-0.033,0-0.05,0v1 c2.556-0.005,4.966,0.97,6.783,2.766l20.465,20.465c1.794,1.846,2.763,4.28,2.727,6.854s-1.072,4.98-2.918,6.775 c-3.768,3.662-9.67,3.663-13.434,0.005L0,165.328v1.414l12.92,12.92C15,181.685,17.668,182.696,20.337,182.696z"/><path d="M67.592,84.038c-4.148-4.103-10.862-4.065-14.961,0.083l-20.311,20.311 c-1.988,1.987-3.083,4.63-3.083,7.441s1.095,5.454,3.083,7.441c1.988,1.988,4.63,3.083,7.441,3.083s5.454-1.095,7.442-3.083 l12.789-12.788l13.033,13.033c2.08,2.021,4.748,3.032,7.417,3.032c2.669,0,5.337-1.011,7.417-3.032 c4.206-4.09,4.3-10.839,0.206-15.05L67.592,84.038z M87.161,118.843c-3.768,3.663-9.671,3.662-13.434,0.005l-13.735-13.735 l-13.496,13.495c-1.799,1.799-4.191,2.79-6.735,2.79s-4.936-0.991-6.734-2.79s-2.79-4.19-2.79-6.734s0.991-4.936,2.79-6.734 l20.313-20.312c3.715-3.756,9.793-3.791,13.547-0.079l20.465,20.465C91.057,109.022,90.971,115.137,87.161,118.843z"/><path d="M107.782,139.272c4.103-4.104,4.103-10.78,0-14.884c-4.104-4.104-10.78-4.104-14.883,0L80.11,137.178 l-13.033-13.033c-4.15-4.101-10.863-4.062-14.959,0.081c-2.01,1.986-3.125,4.638-3.141,7.464c-0.016,2.826,1.069,5.489,3.058,7.501 l20.475,20.476c2.059,2.036,4.75,3.052,7.439,3.052c2.729,0,5.458-1.047,7.522-3.135L107.782,139.272z M73.214,158.957 l-20.471-20.472c-1.799-1.819-2.782-4.231-2.768-6.79c0.015-2.56,1.025-4.96,2.849-6.763c1.872-1.893,4.342-2.84,6.814-2.84 c2.435,0,4.87,0.92,6.733,2.761l13.738,13.738l13.496-13.496c3.713-3.712,9.755-3.714,13.469,0c3.713,3.714,3.713,9.756,0,13.47 l-20.313,20.312C83.047,162.635,76.969,162.67,73.214,158.957z"/><path d="M47.899,199.154c1.983-1.983,3.076-4.62,3.076-7.425s-1.092-5.441-3.076-7.424 c-4.094-4.094-10.755-4.094-14.849,0L12.294,205.06c-4.094,4.094-4.094,10.756,0,14.85c2.047,2.047,4.736,3.07,7.425,3.07 c2.688,0,5.377-1.023,7.424-3.07L47.899,199.154z M19.719,221.985c-2.538,0-4.923-0.988-6.718-2.782s-2.782-4.18-2.782-6.718 s0.988-4.924,2.782-6.718l20.756-20.755c1.794-1.794,4.18-2.782,6.718-2.782c2.537,0,4.923,0.988,6.717,2.782 s2.783,4.18,2.783,6.717c0,2.538-0.988,4.924-2.783,6.718l-20.756,20.756C24.642,220.997,22.256,221.985,19.719,221.985z"/><path d="M19.719,102.772c2.688,0,5.377-1.023,7.424-3.07l20.756-20.756c4.094-4.094,4.094-10.756,0-14.85 c-4.094-4.093-10.755-4.095-14.849,0L12.294,84.852c-4.094,4.094-4.094,10.756,0,14.85 C14.341,101.749,17.03,102.772,19.719,102.772z M13.002,85.559l20.756-20.756c1.794-1.794,4.18-2.782,6.718-2.782 c2.537,0,4.923,0.988,6.717,2.782c1.794,1.794,2.783,4.18,2.783,6.718s-0.988,4.924-2.783,6.718L26.437,98.995 c-1.794,1.794-4.18,2.782-6.717,2.782c-2.538,0-4.923-0.988-6.718-2.782s-2.782-4.18-2.782-6.718S11.207,87.353,13.002,85.559z"/><path d="M52.849,179.605c2.047,2.047,4.736,3.07,7.424,3.07c2.689,0,5.378-1.023,7.425-3.07 c4.094-4.094,4.094-10.755,0-14.849l-20.755-20.756c-4.094-4.094-10.756-4.094-14.85,0c-4.093,4.094-4.093,10.755,0,14.849 L52.849,179.605z M32.8,144.708c1.794-1.794,4.18-2.782,6.718-2.782s4.923,0.988,6.718,2.782l20.755,20.756 c1.794,1.794,2.783,4.18,2.783,6.718c0,2.537-0.988,4.923-2.783,6.717s-4.18,2.782-6.717,2.782c-2.538,0-4.923-0.988-6.718-2.782 L32.8,158.142C29.097,154.438,29.097,148.412,32.8,144.708z"/><path d="M110.134,78.378c4.015-4.023,4.008-10.562-0.016-14.578l-0.121-0.117c-2.014-1.915-4.658-2.922-7.433-2.862 c-2.779,0.07-5.364,1.218-7.273,3.227c-8.609,8.737-8.587,22.932,0.05,31.644l12.213,12.214c1.963,1.957,4.57,3.034,7.341,3.034 c0.006,0,0.012,0,0.018,0c2.778-0.005,5.388-1.091,7.349-3.059c4.048-4.061,4.038-10.659-0.024-14.708L110.05,80.985 c-0.694-0.701-0.69-1.838,0.009-2.534L110.134,78.378z M109.342,81.69l12.189,12.189l0,0.001c3.671,3.659,3.681,9.623,0.022,13.294 c-1.773,1.777-4.132,2.76-6.643,2.764c-0.005,0-0.01,0-0.016,0c-2.505,0-4.861-0.974-6.635-2.742L96.049,94.985 c-8.252-8.324-8.273-21.888-0.04-30.243c1.731-1.821,4.068-2.858,6.58-2.922c0.082-0.002,0.162-0.003,0.243-0.003 c2.422,0,4.714,0.914,6.479,2.593l0.103,0.099c3.632,3.625,3.637,9.53,0.016,13.158l-0.075,0.075 C108.265,78.826,108.258,80.597,109.342,81.69z"/><path d="M14.44,10.433c2.689,0,5.378-1.023,7.425-3.07C23.896,5.332,24.916,2.668,24.931,0h-0.999 c-0.015,2.412-0.938,4.82-2.775,6.656c-3.705,3.704-9.731,3.704-13.436,0C5.885,4.819,4.962,2.412,4.947,0H3.948 c0.015,2.668,1.036,5.332,3.067,7.363C9.062,9.41,11.751,10.433,14.44,10.433z"/><path d="M67.119,67.468c2.047,2.047,4.736,3.07,7.425,3.07c2.688,0,5.377-1.023,7.424-3.07 c4.094-4.094,4.094-10.756,0-14.85c-4.094-4.094-10.755-4.093-14.849,0C63.025,56.712,63.025,63.374,67.119,67.468z M67.826,53.325 c1.852-1.852,4.285-2.778,6.718-2.778c2.433,0,4.865,0.927,6.717,2.778c3.704,3.704,3.704,9.731,0,13.436 c-3.704,3.704-9.731,3.703-13.435,0C64.122,63.056,64.122,57.029,67.826,53.325z"/><path d="M83.936,40.166c0,2.812,1.095,5.454,3.083,7.441c1.988,1.988,4.63,3.083,7.441,3.083 s5.454-1.095,7.441-3.083l12.789-12.788l13.033,13.033c2.08,2.022,4.748,3.033,7.417,3.033c2.668-0.001,5.337-1.012,7.417-3.033 c2.038-1.98,3.182-4.637,3.222-7.479c0.04-2.842-1.029-5.529-3.015-7.571l-20.472-20.472c-4.148-4.103-10.862-4.062-14.962,0.083 L87.019,32.724C85.031,34.713,83.936,37.355,83.936,40.166z M108.038,13.119c3.715-3.756,9.794-3.79,13.548-0.079l20.465,20.465 c1.795,1.846,2.763,4.28,2.727,6.855c-0.036,2.574-1.073,4.98-2.919,6.775c-3.768,3.663-9.67,3.665-13.434,0.005L114.69,33.405 L101.194,46.9c-1.799,1.799-4.19,2.79-6.734,2.79s-4.936-0.991-6.734-2.79s-2.79-4.19-2.79-6.734s0.991-4.936,2.79-6.734 L108.038,13.119z"/><path d="M69.338 0L67.924 0 74.705 6.781 81.486 0 80.072 0 74.705 5.367z"/><path d="M101.669,6.754L81.357,27.066c-3.714,3.757-9.793,3.792-13.548,0.079L47.338,6.675 C45.51,4.826,44.595,2.415,44.581,0h-1c0.015,2.669,1.027,5.336,3.048,7.38l20.475,20.475c2.059,2.036,4.75,3.052,7.439,3.052 c2.729,0,5.458-1.047,7.522-3.135l20.311-20.311c1.988-1.987,3.083-4.63,3.083-7.441c0-0.007-0.001-0.013-0.001-0.02h-1 c0,0.007,0.001,0.013,0.001,0.02C104.459,2.563,103.468,4.955,101.669,6.754z"/><path d="M54.869,50.865c2.689,0,5.378-1.023,7.425-3.07c4.094-4.094,4.094-10.756,0-14.85L41.538,12.189 c-4.093-4.094-10.755-4.094-14.849,0s-4.094,10.756,0,14.85l20.756,20.756C49.491,49.842,52.18,50.865,54.869,50.865z M24.613,19.614c0-2.538,0.988-4.924,2.783-6.718s4.18-2.782,6.717-2.782c2.538,0,4.923,0.988,6.718,2.782l20.756,20.756 c1.794,1.794,2.782,4.18,2.782,6.718s-0.988,4.924-2.782,6.718s-4.18,2.782-6.718,2.782c-2.537,0-4.923-0.988-6.717-2.782 L27.396,26.332C25.601,24.538,24.613,22.152,24.613,19.614z"/><path d="M21.864,256.137c-4.094-4.094-10.756-4.094-14.85,0c-2.062,2.062-3.083,4.777-3.067,7.486h0.999 c-0.016-2.453,0.907-4.911,2.775-6.779c3.705-3.705,9.731-3.703,13.436,0c1.867,1.868,2.791,4.326,2.775,6.779h0.999 C24.947,260.913,23.927,258.199,21.864,256.137z"/><path d="M94.935,253.117c-2.811,0-5.454,1.095-7.441,3.083l-7.423,7.422h1.414l6.716-6.715 c1.799-1.799,4.19-2.79,6.734-2.79s4.936,0.991,6.734,2.79c1.794,1.794,2.784,4.179,2.789,6.715h1 c-0.005-2.804-1.098-5.44-3.082-7.422C100.389,254.212,97.746,253.117,94.935,253.117z"/><path d="M46.712,256.037c-2.105,2.081-3.147,4.835-3.131,7.585h1c-0.015-2.493,0.929-4.99,2.839-6.878 c1.872-1.893,4.342-2.84,6.815-2.84c2.434,0,4.869,0.919,6.732,2.76l6.958,6.958h1.414l-7.667-7.667 C57.523,251.853,50.81,251.893,46.712,256.037z"/></g></svg>