<svg xmlns="http://www.w3.org/2000/svg" width="25" height="25.338" viewBox="0 0 25 25.338"><path d="M1.837 1.188h-.459A1.378 1.378 0 000 2.566v17.462a2.271 2.271 0 011.378-.471h.459a2.271 2.271 0 011.377.471V2.566a1.378 1.378 0 00-1.377-1.378zm0 0"/><path d="M1.837 20.474h-.459A1.378 1.378 0 000 21.852h3.214a1.378 1.378 0 00-1.378-1.378zm0 0"/><path d="M6.528 24.163l1.175-1.411 1.412 1.175-1.175 1.412zm0 0"/><path d="M19.076 7.651l3.883-4.2v-.006h.005l.795-.848-1.349-1.248-4.678 5.056zm0 0"/><path d="M23.028.674L23.651 0l1.348 1.247-.623.674zm0 0"/><path d="M9.23 21.633a.459.459 0 00-.647.058l-.293.353 1.412 1.175.294-.353a.459.459 0 00-.056-.647zm0 0"/><path d="M17.137 8.395l1.057-.308-.832-.769zm0 0"/><path d="M23.878 4.49l.888-.959-.337-.312-.55.6zm0 0"/><path d="M10.561 11.749h4.592v4.592h-4.592zm0 0"/><path d="M22.96 19.05V4.81l-3.522 3.8a.452.452 0 01-.138.1l-.036.016-.033.015-2.572.749a.459.459 0 01-.578-.535l.548-2.621c0-.015.011-.028.015-.042a.377.377 0 01.014-.039.441.441 0 01.082-.134l2.438-2.634H4.133v18.367h3.122l.622-.747a1.378 1.378 0 011.94-.177l.706.587a1.367 1.367 0 01.285.337h9.483zM12.398 6.239h.919v.919h-.919zm.919 12.857h-.919v-.918h.919zm5.969-1.837H6.429a.459.459 0 110-.918h3.218V11.29c0-.01.005-.018.005-.028a.452.452 0 01.025-.122.375.375 0 01.015-.043.46.46 0 01.088-.13l2.751-2.757a.459.459 0 01.649 0l2.755 2.755a.46.46 0 01.088.13.375.375 0 01.015.043.455.455 0 01.025.122c0 .01.005.018.005.028v5.051h3.214a.459.459 0 110 .918zm0 0"/><path d="M12.857 9.185l-1.647 1.647h3.293zm0 0"/></svg>