<svg id="maximize" xmlns="http://www.w3.org/2000/svg" width="18" height="18" viewBox="0 0 18 18"><path id="Path_1959" data-name="Path 1959" d="M300.109.527V1.582a.527.527,0,0,0,.527.527h1.5l-3.76,3.76a.527.527,0,0,0,0,.746l.746.746a.527.527,0,0,0,.746,0l3.76-3.76V5.1a.527.527,0,0,0,.527.527h1.055a.527.527,0,0,0,.527-.527V.527A.527.527,0,0,0,305.206,0h-4.57A.527.527,0,0,0,300.109.527Zm0,0" transform="translate(-287.734)" fill="#0c9add"/><path id="Path_1960" data-name="Path 1960" d="M3.41,133.883A1.584,1.584,0,0,1,1.828,132.3V122H.527a.527.527,0,0,0-.527.527v12.656a.527.527,0,0,0,.527.527H13.184a.527.527,0,0,0,.527-.527v-1.3Zm0,0" transform="translate(0 -117.711)" fill="#0c9add"/><path id="Path_1961" data-name="Path 1961" d="M94.183,63.808,91.993,66a1.572,1.572,0,0,1-1.119.463h0A1.571,1.571,0,0,1,89.756,66l-.746-.746a1.582,1.582,0,0,1,0-2.237l2.19-2.19A1.59,1.59,0,0,1,90.528,60h-8a.527.527,0,0,0-.527.527V72.48a.527.527,0,0,0,.527.527H94.48a.527.527,0,0,0,.527-.527v-8A1.59,1.59,0,0,1,94.183,63.808Zm0,0" transform="translate(-79.117 -57.891)" fill="#0c9add"/></svg>