<svg xmlns="http://www.w3.org/2000/svg" width="18" height="18" viewBox="0 0 18 18"><path data-name="Path 1959" d="M12.375.527v1.055a.527.527 0 00.527.527h1.5l-3.76 3.76a.527.527 0 000 .746l.746.746a.527.527 0 00.746 0l3.76-3.76V5.1a.527.527 0 00.527.527h1.055a.527.527 0 00.527-.527V.527A.527.527 0 0017.472 0h-4.57a.527.527 0 00-.527.527zm0 0" fill="#0c9add"/><path data-name="Path 1960" d="M3.41 16.172a1.584 1.584 0 01-1.582-1.583v-10.3H.527A.527.527 0 000 4.816v12.656a.527.527 0 00.527.527h12.657a.527.527 0 00.527-.527v-1.3zm0 0" fill="#0c9add"/><path data-name="Path 1961" d="M15.066 5.917l-2.19 2.192a1.572 1.572 0 01-1.119.463 1.571 1.571 0 01-1.118-.463l-.746-.746a1.582 1.582 0 010-2.237l2.19-2.19a1.59 1.59 0 01-.672-.827h-8a.527.527 0 00-.527.527v11.953a.527.527 0 00.527.527h11.952a.527.527 0 00.527-.527v-8a1.59 1.59 0 01-.824-.672zm0 0" fill="#0c9add"/></svg>