<svg xmlns="http://www.w3.org/2000/svg" width="22" height="19.25" viewBox="0 0 22 19.25"><g id="camera" transform="translate(0 -30.522)"><path id="Path_212" d="M187.857,199.239a2.75,2.75,0,1,1-3.889,0,2.75,2.75,0,0,1,3.889,0" transform="translate(-174.913 -160.349)"/><path id="Path_213" d="M19.25,33.272h-1.9l-1.376-2.75H6.025L4.65,33.273l-1.9,0A2.755,2.755,0,0,0,.007,36.026L0,47.022a2.753,2.753,0,0,0,2.75,2.751h16.5A2.753,2.753,0,0,0,22,47.022v-11A2.753,2.753,0,0,0,19.25,33.272ZM11,46.335a5.5,5.5,0,1,1,5.5-5.5,5.506,5.506,0,0,1-5.5,5.5Z"/></g></svg>