<svg xmlns="http://www.w3.org/2000/svg" width="22" height="21.604" viewBox="0 0 22 21.604"><path d="M20.627 1.321H19.3v5.308h1.327A1.374 1.374 0 0022 5.256V2.694a1.374 1.374 0 00-1.373-1.373zM22 12.142V9.58a1.374 1.374 0 00-1.373-1.373H19.3v5.308h1.327A1.374 1.374 0 0022 12.142zM19.301 20.23v.171h1.331a1.374 1.374 0 001.373-1.373v-2.562a1.374 1.374 0 00-1.373-1.373h-1.327zM16.996.074a1.344 1.344 0 00-.442-.073H4.27v21.6h12.286a1.372 1.372 0 001.361-1.2 1.434 1.434 0 00.011-.172V1.374a.416.416 0 000-.053 1.368 1.368 0 00-.932-1.247zm-6.392 10.327H7.159a.915.915 0 010-1.83h3.443a.915.915 0 010 1.83zm3.443-4.168H7.158a.915.915 0 010-1.83h6.889a.915.915 0 010 1.83zM.931.074A1.37 1.37 0 000 1.374V20.23a1.374 1.374 0 001.373 1.371h1.295V.001H1.373a1.334 1.334 0 00-.442.073z"/></svg>