<svg xmlns="http://www.w3.org/2000/svg" width="22" height="21.604" viewBox="0 0 22 21.604"><g id="contacts-book" transform="translate(0 -8.699)"><path id="Path_161" d="M844.927,66.4H843.6v5.308h1.327a1.374,1.374,0,0,0,1.373-1.373V67.773A1.374,1.374,0,0,0,844.927,66.4Z" transform="translate(-824.3 -56.38)"/><path id="Path_162" d="M846.3,371.335v-2.562a1.374,1.374,0,0,0-1.373-1.373H843.6v5.308h1.327A1.374,1.374,0,0,0,846.3,371.335Z" transform="translate(-824.3 -350.494)"/><path id="Path_163" d="M843.406,673.536c0,.057,0,.114,0,.171h1.331a1.374,1.374,0,0,0,1.373-1.373v-2.562a1.374,1.374,0,0,0-1.373-1.373h-1.327Z" transform="translate(-824.105 -644.607)"/><path id="Path_164" d="M199.326,8.773a1.344,1.344,0,0,0-.442-.073H186.6V30.3h12.286a1.372,1.372,0,0,0,1.361-1.2,1.434,1.434,0,0,0,.011-.172V10.073a.416.416,0,0,0,0-.053A1.368,1.368,0,0,0,199.326,8.773ZM192.934,19.1h-3.445a.915.915,0,0,1,0-1.83h3.443a.915.915,0,0,1,0,1.83Zm3.443-4.168h-6.889a.915.915,0,0,1,0-1.83h6.889a.915.915,0,0,1,0,1.83Z" transform="translate(-182.33)"/><path id="Path_165" d="M.931,8.773A1.37,1.37,0,0,0,0,10.073V28.929A1.374,1.374,0,0,0,1.373,30.3H2.668V8.7H1.373A1.334,1.334,0,0,0,.931,8.773Z"/></g></svg>