<svg xmlns="http://www.w3.org/2000/svg" width="20" height="15" viewBox="0 0 20 15"><g id="road-direction" transform="translate(-10.07)"><path id="Path_169" d="M123.841,0h2.433a.4.4,0,0,1,.4.391v.93h-3.233V.391A.4.4,0,0,1,123.841,0Z" transform="translate(-105.771)"/><path id="Path_170" d="M126.024,167.639h-2.433a.4.4,0,0,1-.4-.391v-3.893h3.233v3.893A.4.4,0,0,1,126.024,167.639Z" transform="translate(-105.538 -152.639)"/><path id="Path_171" d="M29.974,36.252l-3.067,3.523a.4.4,0,0,1-.3.137H10.47a.4.4,0,0,1-.4-.391V32.475a.4.4,0,0,1,.4-.391H26.6a.406.406,0,0,1,.3.138l3.066,3.523A.383.383,0,0,1,29.974,36.252Z" transform="translate(0 -29.979)"/></g></svg>