<svg xmlns="http://www.w3.org/2000/svg" width="22" height="20.957" viewBox="0 0 22 20.957"><path d="M22 10.107a10.123 10.123 0 01-8.576 9.991 2.334 2.334 0 00.025-.692l-.067-.572a8.836 8.836 0 004.508-2.219 1.2 1.2 0 01-.22-.247c-.327-.477.1-.951.1-1.369s-.826-.376-.856-.647c-.1-.939.576-.952.939-1.315s-.359-1.188-.825-1.135-1.79-.217-1.67-1.227c.147-1.231-1.568-1.122-1.814-1.7a1.65 1.65 0 011.014-2.1c1.1-.331 2.183-1.228 2.1-2.226a3.739 3.739 0 00-1.451-2.751 8.791 8.791 0 00-2.814-.631c-.883.035-1.66.231-1.625.636.087.991 2.906 1.249 2.433 2.175-.247.483-2.1 1.165-1.752 1.884.225.468.778.067.572.964-.1.413-.457 1.189-1.014 1.239s-1.044-1.455-2.594-1.5c-.733-.023-1.765 1.143-.889 1.971.531.5 1.527-.6 1.821.26.207.608-.028 1.884.939 2.417.352.194.893.364 1.427.635a18.994 18.994 0 00-2.919.908l-.97-.256c.406-.338 1.065-.576.9-1.314-.243-1.088-2.122-.681-3.422-1.98a5.18 5.18 0 01-1.248-3.308 8.848 8.848 0 00-.914 5.454h-.046a2.948 2.948 0 00-1.182.248A10.107 10.107 0 1122 10.107zm-7.582 2.946l-2.468 1.135.038-.538 1.6-.722a10.062 10.062 0 00-.7-.023 13.255 13.255 0 00-4.027 1.1l-5.3-1.4a1.849 1.849 0 00-1.455.222l-.26.164a.411.411 0 00-.005.693l3.183 2.065a39.58 39.58 0 00-2.118 1.161l-1.633-.865a1.027 1.027 0 00-.862-.046l-.155.062a.411.411 0 00-.205.583l.9 1.6c-.339.292-.533.534-.533.7 0 .5.617.627 1.162.627.971 0 13.788-2.935 13.788-5.594.002-.519-.358-.779-.95-.924zm-5.4 5.191l2.821-.994a.205.205 0 01.272.17l.247 2.114a1.233 1.233 0 01-.7 1.261l-.265.123a.411.411 0 01-.482-.1l-1.983-2.244a.205.205 0 01.086-.329z"/></svg>