<svg xmlns="http://www.w3.org/2000/svg" width="22" height="20.957" viewBox="0 0 22 20.957"><path id="Path_157" d="M22,24.609A10.123,10.123,0,0,1,13.424,34.6a2.334,2.334,0,0,0,.025-.692l-.067-.572a8.836,8.836,0,0,0,4.508-2.219,1.2,1.2,0,0,1-.22-.247c-.327-.477.1-.951.1-1.369s-.826-.376-.856-.647c-.1-.939.576-.952.939-1.315s-.359-1.188-.825-1.135-1.79-.217-1.67-1.227c.147-1.231-1.568-1.122-1.814-1.7a1.65,1.65,0,0,1,1.014-2.1c1.1-.331,2.183-1.228,2.1-2.226A3.739,3.739,0,0,0,15.207,16.4a8.791,8.791,0,0,0-2.814-.631c-.883.035-1.66.231-1.625.636.087.991,2.906,1.249,2.433,2.175-.247.483-2.1,1.165-1.752,1.884.225.468.778.067.572.964-.1.413-.457,1.189-1.014,1.239s-1.044-1.455-2.594-1.5c-.733-.023-1.765,1.143-.889,1.971.531.5,1.527-.6,1.821.26.207.608-.028,1.884.939,2.417.352.194.893.364,1.427.635a18.994,18.994,0,0,0-2.919.908l-.97-.256c.406-.338,1.065-.576.9-1.314C8.479,24.7,6.6,25.107,5.3,23.808A5.18,5.18,0,0,1,4.052,20.5a8.848,8.848,0,0,0-.914,5.454l-.046,0a2.948,2.948,0,0,0-1.182.248A10.107,10.107,0,1,1,22,24.609Zm-7.582,2.946L11.95,28.69l.038-.538,1.6-.722c-.228-.016-.464-.023-.7-.023a13.255,13.255,0,0,0-4.027,1.1l-5.3-1.4a1.849,1.849,0,0,0-1.455.222l-.26.164a.411.411,0,0,0-.005.693l3.183,2.065c-.76.389-1.482.784-2.118,1.161l-1.633-.865a1.027,1.027,0,0,0-.862-.046l-.155.062a.411.411,0,0,0-.205.583l.9,1.6h0c-.339.292-.533.534-.533.7,0,.5.617.627,1.162.627.971,0,13.788-2.935,13.788-5.594C15.37,27.96,15.01,27.7,14.418,27.555Zm-5.4,5.191,2.821-.994a.205.205,0,0,1,.272.17l.247,2.114a1.233,1.233,0,0,1-.7,1.261l-.265.123a.411.411,0,0,1-.482-.1L8.928,33.076A.205.205,0,0,1,9.014,32.747Z" transform="translate(0 -14.502)"/></svg>