<svg xmlns="http://www.w3.org/2000/svg" width="22" height="22.35" viewBox="0 0 22 22.35"><g id="election-event-on-a-calendar-with-star-symbol" transform="translate(-.977)"><g id="Group_310" data-name="Group 310" transform="translate(.977)" fill="#fff"><path id="Path_700" data-name="Path 700" d="M40.3,56.162,39.955,58.2a.743.743,0,0,0,1.076.783l1.831-.956,1.831.956A.743.743,0,0,0,45.77,58.2l-.343-2.037L46.9,54.716a.743.743,0,0,0-.411-1.266l-2.043-.3-.92-1.85a.743.743,0,0,0-1.331,0l-.919,1.85-2.043.3a.743.743,0,0,0-.411,1.266Z" transform="translate(-31.863 -41.773)"/><path id="Path_701" data-name="Path 701" d="M20.757,2.376H18.418v-1.3A1.078,1.078,0,0,0,17.34,0h-.171A1.078,1.078,0,0,0,16.09,1.078v1.3H7.836v-1.3A1.078,1.078,0,0,0,6.758,0H6.587A1.078,1.078,0,0,0,5.509,1.078v1.3H3.2A2.222,2.222,0,0,0,.977,4.6V20.13A2.222,2.222,0,0,0,3.2,22.35H20.758a2.222,2.222,0,0,0,2.219-2.219V4.6A2.222,2.222,0,0,0,20.757,2.376Zm-.29,17.465H3.486V7.748H20.468Z" transform="translate(-.977)"/></g></g></svg>