<svg xmlns="http://www.w3.org/2000/svg" width="22" height="22.35" viewBox="0 0 22 22.35"><g data-name="Group 310" fill="#fff"><path data-name="Path 700" d="M8.437 14.389l-.345 2.038a.743.743 0 001.076.783l1.831-.956 1.831.956a.743.743 0 001.077-.783l-.343-2.037 1.473-1.447a.743.743 0 00-.411-1.266l-2.043-.3-.92-1.85a.743.743 0 00-1.331 0l-.919 1.85-2.043.3a.743.743 0 00-.411 1.266z"/><path data-name="Path 701" d="M19.78 2.376h-2.339v-1.3A1.078 1.078 0 0016.363 0h-.171a1.078 1.078 0 00-1.079 1.078v1.3H6.859v-1.3A1.078 1.078 0 005.781 0H5.61a1.078 1.078 0 00-1.078 1.078v1.3H2.223A2.222 2.222 0 000 4.6v15.53a2.222 2.222 0 002.223 2.22h17.558A2.222 2.222 0 0022 20.131V4.6a2.222 2.222 0 00-2.22-2.224zm-.29 17.465H2.509V7.748h16.982z"/></g></svg>