<svg xmlns="http://www.w3.org/2000/svg" width="22" height="20" viewBox="0 0 22 20"><path d="M7.3 3.188a3.2 3.2 0 01-1.84 2.319h1.19a2.671 2.671 0 012.393 1.484l1.678 4.043a1.473 1.473 0 01-.674 2.061 1.563 1.563 0 01-.689.154 1.62 1.62 0 01-1.44-.829l-.854-1.612v3.394h4.925v2.687l-3.982 1.595a.577.577 0 00-.321.757.585.585 0 00.545.362.6.6 0 00.221-.043l3.539-1.417v1.275a.589.589 0 001.178 0v-1.282l3.542 1.394a.592.592 0 00.765-.322.577.577 0 00-.327-.754l-3.98-1.568v-2.683h6.477a1.461 1.461 0 001.472-1.449V3.188H7.3zm11.537 8.406H12.07v-.87h6.771v.87zm0-2.609h-7.65v-.867h7.654v.87zm0-2.609h-8.828v-.87h8.832v.87zM22 1.438v.023a1.157 1.157 0 01-1.166 1.148H7.36A3.154 3.154 0 006.337.29h14.5A1.157 1.157 0 0122 1.438zM1.472 2.609a2.65 2.65 0 112.65 2.609 2.629 2.629 0 01-2.65-2.609zm8.32 9.966a1.059 1.059 0 01-1.342-.4L6.478 8.44v10.061a1.2 1.2 0 01-1.062 1.2 1.171 1.171 0 01-1.293-1.154 1.17 1.17 0 01-1.293 1.154 1.2 1.2 0 01-1.062-1.2v-6.037a.876.876 0 01-.929.868.907.907 0 01-.839-.914v-4.3a2.045 2.045 0 012.061-2.029h4.591a2.063 2.063 0 011.86 1.155l1.67 4.026a.907.907 0 01-.39 1.304zm-8.32-9.966a2.65 2.65 0 112.65 2.609 2.629 2.629 0 01-2.65-2.609zm8.32 9.966a1.059 1.059 0 01-1.342-.4L6.478 8.44v10.061a1.2 1.2 0 01-1.062 1.2 1.171 1.171 0 01-1.293-1.154 1.17 1.17 0 01-1.293 1.154 1.2 1.2 0 01-1.062-1.2v-6.037a.876.876 0 01-.929.868.907.907 0 01-.839-.914v-4.3a2.045 2.045 0 012.061-2.029h4.591a2.063 2.063 0 011.86 1.155l1.67 4.026a.907.907 0 01-.39 1.304z"/></svg>