<svg xmlns="http://www.w3.org/2000/svg" width="22" height="20" viewBox="0 0 22 20"><g id="person-of-business-standing-with-a-screen-board-giving-a-lecture" transform="translate(0 -19.482)"><path id="Path_123" d="M7.3,22.67a3.2,3.2,0,0,1-1.84,2.319H6.65a2.671,2.671,0,0,1,2.393,1.484l1.678,4.043a1.473,1.473,0,0,1-.674,2.061,1.563,1.563,0,0,1-.689.154,1.62,1.62,0,0,1-1.44-.829l-.854-1.612v3.394h4.925v2.687L8.007,37.966a.577.577,0,0,0-.321.757.585.585,0,0,0,.545.362.6.6,0,0,0,.221-.043l3.539-1.417V38.9a.589.589,0,0,0,1.178,0V37.618l3.542,1.394a.592.592,0,0,0,.765-.322.577.577,0,0,0-.327-.754l-3.98-1.568V33.685h6.477a1.461,1.461,0,0,0,1.472-1.449V22.67H7.3Zm11.537,8.406H12.07v-.87h6.771v.87Zm0-2.609H11.187V27.6h7.654v.87Zm0-2.609H10.009v-.87h8.832v.87ZM22,20.92v.023a1.157,1.157,0,0,1-1.166,1.148H7.36a3.154,3.154,0,0,0-1.023-2.319h14.5A1.157,1.157,0,0,1,22,20.92ZM1.472,22.091A2.65,2.65,0,1,1,4.122,24.7,2.629,2.629,0,0,1,1.472,22.091Zm8.32,9.966a1.059,1.059,0,0,1-1.342-.4L6.478,27.922V37.983a1.2,1.2,0,0,1-1.062,1.2,1.171,1.171,0,0,1-1.293-1.154,1.17,1.17,0,0,1-1.293,1.154,1.2,1.2,0,0,1-1.062-1.2V31.946a.876.876,0,0,1-.929.868A.907.907,0,0,1,0,31.9V27.6a2.045,2.045,0,0,1,2.061-2.029H6.652a2.063,2.063,0,0,1,1.86,1.155l1.67,4.026A.907.907,0,0,1,9.792,32.056Zm-8.32-9.966A2.65,2.65,0,1,1,4.122,24.7,2.629,2.629,0,0,1,1.472,22.091Zm8.32,9.966a1.059,1.059,0,0,1-1.342-.4L6.478,27.922V37.983a1.2,1.2,0,0,1-1.062,1.2,1.171,1.171,0,0,1-1.293-1.154,1.17,1.17,0,0,1-1.293,1.154,1.2,1.2,0,0,1-1.062-1.2V31.946a.876.876,0,0,1-.929.868A.907.907,0,0,1,0,31.9V27.6a2.045,2.045,0,0,1,2.061-2.029H6.652a2.063,2.063,0,0,1,1.86,1.155l1.67,4.026A.907.907,0,0,1,9.792,32.056Z"/></g></svg>