<svg id="icon" xmlns="http://www.w3.org/2000/svg" width="16" height="16" viewBox="0 0 16 16"><path id="Path_682" data-name="Path 682" d="M11.077,12.852v2.071a1.155,1.155,0,0,1-1.154,1.154H3a1.155,1.155,0,0,1-1.154-1.154V8A1.155,1.155,0,0,1,3,6.846H5.11L6.957,5H3A3,3,0,0,0,0,8v6.923a3,3,0,0,0,3,3H9.923a3,3,0,0,0,3-3V11Z" transform="translate(0 -1.923)" fill="#0c9add"/><g id="Group_265" data-name="Group 265" transform="translate(5.171)"><path id="Path_683" data-name="Path 683" d="M17.128,0H10.815c-1.161,0-1.08.314-.468.926l1.982,1.982-3.4,3.4a1.8,1.8,0,0,0,0,2.548l1.483,1.484a1.8,1.8,0,0,0,2.548,0l3.4-3.4L18.3,8.882c.678.677.927.695.927-.466V2.1C19.232-.011,19.247,0,17.128,0Z" transform="translate(-8.404)" fill="#0c9add"/></g></svg>