<svg xmlns="http://www.w3.org/2000/svg" width="16" height="16" viewBox="0 0 16 16"><path data-name="Path 682" d="M11.077 10.929V13a1.155 1.155 0 01-1.154 1.154H3A1.155 1.155 0 011.846 13V6.077A1.155 1.155 0 013 4.923h2.11l1.847-1.846H3a3 3 0 00-3 3V13a3 3 0 003 3h6.923a3 3 0 003-3V9.077z" fill="#0c9add"/><g data-name="Group 265"><path data-name="Path 683" d="M13.895 0H7.582c-1.161 0-1.08.314-.468.926l1.982 1.982-3.4 3.4a1.8 1.8 0 000 2.548l1.483 1.484a1.8 1.8 0 002.548 0l3.4-3.4 1.94 1.942c.678.677.927.695.927-.466V2.1c.005-2.111.02-2.1-2.099-2.1z" fill="#0c9add"/></g></svg>