<svg id="foreign" xmlns="http://www.w3.org/2000/svg" width="20" height="20.001" viewBox="0 0 20 20.001"><g id="Group_193" transform="translate(7.273)"><g id="Group_192"><path id="Path_202" d="M198,0h-7.273a.909.909,0,0,0,0,1.818h5.078l-9.357,9.357a.909.909,0,1,0,1.286,1.286L197.093,3.1V8.182a.909.909,0,1,0,1.818,0V.909A.909.909,0,0,0,198,0Z" transform="translate(-186.184)"/></g></g><g id="Group_195" transform="translate(0 3.636)"><g id="Group_194"><path id="Path_203" d="M15.455,98.546a.909.909,0,0,0-.909.909v8.182H1.818V94.909H10a.909.909,0,1,0,0-1.818H.909A.909.909,0,0,0,0,94v14.545a.909.909,0,0,0,.909.909H15.455a.909.909,0,0,0,.909-.909V99.455A.909.909,0,0,0,15.455,98.546Z" transform="translate(0 -93.091)"/></g></g></svg>