<svg xmlns="http://www.w3.org/2000/svg" width="28" height="15.87" viewBox="0 0 28 15.87"><g data-name="Group 407"><g data-name="Group 404"><path data-name="Path 1956" d="M20.807 12.67a23.612 23.612 0 00-4.3-2.758.134.134 0 01-.075-.121V6.878a1.361 1.361 0 00.609-1.132V2.724A2.722 2.722 0 0014.317 0h-.649a2.722 2.722 0 00-2.724 2.724V5.75a1.354 1.354 0 00.609 1.132v2.913a.134.134 0 01-.075.121 23.957 23.957 0 00-4.3 2.758 1.462 1.462 0 00-.534 1.132v2.069h14.7v-2.069a1.462 1.462 0 00-.537-1.136z" fill="#0c9add"/></g><g data-name="Group 405"><path data-name="Path 1957" d="M27.535 10.63a19.671 19.671 0 00-3.608-2.316.109.109 0 01-.063-.1V5.772a1.15 1.15 0 00.511-.954V2.284A2.283 2.283 0 0022.094.003h-.54a2.283 2.283 0 00-2.281 2.281v2.534a1.143 1.143 0 00.511.954v2.442a.115.115 0 01-.063.1 18.881 18.881 0 00-1.844 1.046 24.506 24.506 0 013.654 2.448 2.579 2.579 0 01.9 1.505h5.573v-1.735a1.283 1.283 0 00-.469-.948z" fill="#0c9add"/></g><g data-name="Group 406"><path data-name="Path 1958" d="M8.274 8.314a.109.109 0 01-.063-.1V5.772a1.15 1.15 0 00.511-.954V2.284A2.283 2.283 0 006.441.003H5.89a2.283 2.283 0 00-2.281 2.281v2.534a1.143 1.143 0 00.511.954v2.442a.114.114 0 01-.063.1A19.672 19.672 0 00.448 10.63a1.237 1.237 0 00-.448.948v1.735h5.574a2.55 2.55 0 01.9-1.505 24.511 24.511 0 013.654-2.448 19.423 19.423 0 00-1.854-1.046z" fill="#0c9add"/></g></g></svg>