<svg xmlns="http://www.w3.org/2000/svg" width="28" height="15.87" viewBox="0 0 28 15.87"><g id="group" transform="translate(0 -105.55)"><g id="Group_407" data-name="Group 407" transform="translate(0 105.55)"><g id="Group_404" data-name="Group 404" transform="translate(6.637)"><path id="Path_1956" data-name="Path 1956" d="M129.67,118.22a23.612,23.612,0,0,0-4.3-2.758.134.134,0,0,1-.075-.121v-2.913a1.361,1.361,0,0,0,.609-1.132v-3.022a2.722,2.722,0,0,0-2.724-2.724h-.649a2.722,2.722,0,0,0-2.724,2.724V111.3a1.354,1.354,0,0,0,.609,1.132v2.913a.134.134,0,0,1-.075.121,23.957,23.957,0,0,0-4.3,2.758,1.462,1.462,0,0,0-.534,1.132v2.069h14.7v-2.069A1.462,1.462,0,0,0,129.67,118.22Z" transform="translate(-115.5 -105.55)" fill="#0c9add"/></g><g id="Group_405" data-name="Group 405" transform="translate(17.876)"><path id="Path_1957" data-name="Path 1957" d="M320.759,116.18a19.671,19.671,0,0,0-3.608-2.316.109.109,0,0,1-.063-.1v-2.442a1.15,1.15,0,0,0,.511-.954v-2.534a2.283,2.283,0,0,0-2.281-2.281h-.54a2.283,2.283,0,0,0-2.281,2.281v2.534a1.143,1.143,0,0,0,.511.954v2.442a.115.115,0,0,1-.063.1,18.881,18.881,0,0,0-1.844,1.046,24.506,24.506,0,0,1,3.654,2.448,2.579,2.579,0,0,1,.9,1.505h5.573v-1.735A1.283,1.283,0,0,0,320.759,116.18Z" transform="translate(-311.1 -105.55)" fill="#0c9add"/></g><g id="Group_406" data-name="Group 406"><path id="Path_1958" data-name="Path 1958" d="M8.274,113.864a.109.109,0,0,1-.063-.1v-2.442a1.15,1.15,0,0,0,.511-.954v-2.534a2.283,2.283,0,0,0-2.281-2.281H5.89a2.283,2.283,0,0,0-2.281,2.281v2.534a1.143,1.143,0,0,0,.511.954v2.442a.114.114,0,0,1-.063.1A19.672,19.672,0,0,0,.448,116.18a1.237,1.237,0,0,0-.448.948v1.735H5.574a2.55,2.55,0,0,1,.9-1.505,24.511,24.511,0,0,1,3.654-2.448A19.423,19.423,0,0,0,8.274,113.864Z" transform="translate(0 -105.55)" fill="#0c9add"/></g></g></g></svg>