<svg xmlns="http://www.w3.org/2000/svg" width="140" height="23" viewBox="0 0 140 23"><g fill="#eb1c24" fill-rule="evenodd"><path d="M47.576 9.511l3.941-5.964h3.181l-4.558 6.618 4.643 8.388h-3.159l-3.158-5.986-.89 1.327v4.659h-2.755V3.547h2.755z"/><path d="M61.224 18.553v-.781a2.9 2.9 0 01-2.418.971 3.524 3.524 0 01-3.6-3.605c0-2.192 1.8-3.309 4.219-3.309h1.78v-.653a1.343 1.343 0 00-1.5-1.413 1.419 1.419 0 00-1.548 1.223h-2.711a4.008 4.008 0 014.236-3.645c2.015 0 4.2.989 4.2 3.772v7.44zm-.022-3.964v-.61h-1.78c-.933 0-1.546.464-1.546 1.159a1.252 1.252 0 001.378 1.286 1.77 1.77 0 001.948-1.835z"/><path d="M65.238 18.553v-2.046l4.453-6.533h-4.285V7.491h7.675v2.045l-4.453 6.535h4.854v2.486z"/><path d="M80.621 18.553v-.781a2.886 2.886 0 01-2.414.971 3.525 3.525 0 01-3.605-3.605c0-2.192 1.8-3.309 4.22-3.309h1.779v-.653a1.341 1.341 0 00-1.5-1.413 1.418 1.418 0 00-1.548 1.223h-2.712a4.007 4.007 0 014.239-3.645c2.013 0 4.2.989 4.2 3.772v7.44zm-.021-3.964v-.61h-1.779c-.933 0-1.548.464-1.548 1.159a1.254 1.254 0 001.376 1.286 1.77 1.77 0 001.952-1.835z"/><path d="M87.964 8.1a3.221 3.221 0 012.184-.738c2.142 0 3.666 1.56 3.666 4.132v7.061h-2.711v-7.063a1.408 1.408 0 00-1.486-1.581 1.7 1.7 0 00-1.652 1.729v6.913h-2.712V7.486h2.711z"/><path d="M99.978 18.553V3.546h8.736v2.719h-5.979V9.3h5.532v2.719h-5.532v3.816h5.979v2.719z"/><path d="M112.739 7.491l2 3.263 1.993-3.268h3.118l-3.626 5.523 3.708 5.544h-3.2l-1.993-3.225-2.013 3.225h-3.115l3.581-5.5-3.564-5.562z"/><path d="M123.844 18.046V23h-2.713V7.486h2.713v.528a3.281 3.281 0 011.993-.673c2.246 0 3.836 1.579 3.836 4.129v3.1c0 2.529-1.591 4.175-3.836 4.175a3.314 3.314 0 01-1.993-.7zm3.116-6.576a1.424 1.424 0 00-1.548-1.579 1.4 1.4 0 00-1.568 1.432v3.245a1.56 1.56 0 103.116 0z"/><path d="M140 14.568a4.041 4.041 0 01-4.366 4.175c-2.629 0-4.342-1.581-4.342-4.175v-3.1a4 4 0 014.342-4.129c2.607 0 4.366 1.579 4.366 4.129v3.1zm-2.713-3.1c.022-.737-.358-1.517-1.653-1.579a1.458 1.458 0 00-1.631 1.579v3.1a1.512 1.512 0 001.631 1.645 1.532 1.532 0 001.653-1.645z"/><path d="M13.433 14.858c-1.889-4.3-2.774-5.067-6.98-6.978 1.478-2.582 3.746-5.132 7.126-5.132a5.811 5.811 0 012.452.553 9.4 9.4 0 01.8-1.259 10.512 10.512 0 10-.672 17.383 14.5 14.5 0 01-2.726-4.567z"/><path d="M29.436 5.137a6.639 6.639 0 00-12.8 0c-4.61-3.474-8.316 2.2-8.316 2.2 4.672 2.119 5.288 4.971 6.957 8.523a8.484 8.484 0 0015.514 0c1.673-3.552 2.289-6.4 6.96-8.523 0 .003-3.706-5.674-8.315-2.2z"/></g></svg>