<svg xmlns="http://www.w3.org/2000/svg" width="26" height="15" viewBox="0 0 26 15"><path d="M9.255 10.601c-.838-1.971-1.443-3.4-3.887-4.545l-.924-.434.553-.876c.073-.113 1.785-2.785 4.355-2.785a3.884 3.884 0 011.69.394 6.958 6.958 0 01.548-.9A7.112 7.112 0 007.279-.001a7.5 7.5 0 000 15 7.078 7.078 0 003.852-1.138 8.139 8.139 0 01-1.4-2.162c-.173-.38-.327-.747-.477-1.1zm11.02-6.94c3.174-2.48 5.726 1.572 5.726 1.572-3.217 1.513-3.64 3.548-4.791 6.082a5.764 5.764 0 01-10.685 0C9.373 8.781 8.949 6.746 5.731 5.233c0 0 2.553-4.052 5.726-1.572 0 0 .948-3.549 4.4-3.488h.022c3.452-.057 4.396 3.488 4.396 3.488z" fill-rule="evenodd"/></svg>