<svg xmlns="http://www.w3.org/2000/svg" width="67" height="88" viewBox="0 0 67 88"><path d="M8.407 44.367l4.994-7.687h4.029l-5.775 8.527 5.881 10.81h-4l-4-7.713-1.126 1.71v6H4.918V36.68h3.489v7.687zm20.656 11.651V46.43c0-3.585-2.77-4.86-5.316-4.86a5.108 5.108 0 00-5.374 4.7h3.437a1.8 1.8 0 011.958-1.574 1.713 1.713 0 011.91 1.821v.84h-2.259c-3.059 0-5.343 1.439-5.343 4.265a4.5 4.5 0 004.567 4.641 3.645 3.645 0 003.063-1.248v1.007zm-3.385-5.107a2.263 2.263 0 01-2.472 2.365 1.6 1.6 0 01-1.747-1.658c0-.9.782-1.5 1.96-1.5h2.259v.789zm15.561 5.107v-3.2h-6.153l5.644-8.421v-2.636h-9.724v3.2h5.424l-5.639 8.417v2.636zm12.4 0V46.43c0-3.585-2.764-4.86-5.319-4.86a5.112 5.112 0 00-5.373 4.7h3.437a1.8 1.8 0 011.962-1.574 1.71 1.71 0 011.9 1.821v.84H47.99c-3.057 0-5.341 1.439-5.341 4.265a4.5 4.5 0 004.565 4.641 3.636 3.636 0 003.062-1.248v1.007zm-3.387-5.107a2.262 2.262 0 01-2.471 2.365 1.6 1.6 0 01-1.745-1.658c0-.9.781-1.5 1.96-1.5h2.256v.789zm9.332-9.155H56.15v14.262h3.437v-8.906a2.173 2.173 0 012.095-2.23 1.806 1.806 0 011.881 2.039v9.1h3.438v-9.1c0-3.316-1.931-5.324-4.647-5.324a4.038 4.038 0 00-2.766.949v-.79zM15.981 82.269v-3.508H8.407v-4.915h7.012v-3.5H8.407v-3.912h7.574v-3.5H4.918v19.338zM17.13 68.01l4.513 7.171-4.54 7.089h3.949l2.553-4.158 2.525 4.158h4.055l-4.7-7.141 4.592-7.118H26.13l-2.525 4.209-2.524-4.209zm18.018 13.606a4.157 4.157 0 002.523.9c2.851 0 4.86-2.117 4.86-5.375v-3.994c0-3.284-2.01-5.321-4.86-5.321a4.124 4.124 0 00-2.523.869v-.682h-3.44v19.992h3.44v-6.384zm3.946-4.48a1.978 1.978 0 11-3.946 0v-4.182a1.786 1.786 0 011.983-1.847 1.823 1.823 0 011.963 2.035v3.994zm16.526-3.994c0-3.284-2.227-5.321-5.528-5.321-3.28 0-5.511 2.09-5.511 5.321v3.994c0 3.34 2.176 5.375 5.511 5.375a5.156 5.156 0 005.528-5.375v-3.994zm-3.437 3.994a1.956 1.956 0 01-2.092 2.118 1.933 1.933 0 01-2.068-2.118v-3.994a1.862 1.862 0 012.068-2.035 1.906 1.906 0 012.092 2.035v3.994zM17.025 19.142c-1.542-3.559-2.655-6.132-7.151-8.206l-1.7-.784 1.017-1.581c.135-.2 3.284-5.029 8.013-5.029a7.257 7.257 0 013.109.711 12.523 12.523 0 011.009-1.623A13.245 13.245 0 0013.391.001a13.544 13.544 0 000 27.085 13.2 13.2 0 007.085-2.052 14.672 14.672 0 01-2.574-3.9c-.318-.686-.6-1.349-.878-1.988zM37.3 6.618c5.839-4.478 10.53 2.843 10.53 2.843-5.918 2.731-6.7 6.407-8.814 10.982-2.1 4.546-5.5 6.5-9.832 6.5s-7.726-1.956-9.827-6.5c-2.12-4.575-2.9-8.251-8.82-10.982 0 0 4.7-7.316 10.534-2.838 0 0 1.744-6.408 8.1-6.3h.04c6.347-.113 8.088 6.295 8.088 6.295z" fill="#fff" fill-rule="evenodd"/></svg>