<svg xmlns="http://www.w3.org/2000/svg" width="26" height="15" viewBox="0 0 26 15"><path id="Path_151" d="M81.624,56.54c-.838-1.971-1.443-3.4-3.887-4.545l-.924-.434.553-.876c.073-.113,1.785-2.785,4.355-2.785a3.884,3.884,0,0,1,1.69.394,6.958,6.958,0,0,1,.548-.9,7.112,7.112,0,0,0-4.311-1.456,7.5,7.5,0,0,0,0,15A7.078,7.078,0,0,0,83.5,59.8a8.139,8.139,0,0,1-1.4-2.162c-.173-.38-.327-.747-.477-1.1ZM92.644,49.6c3.174-2.48,5.726,1.572,5.726,1.572-3.217,1.513-3.64,3.548-4.791,6.082a5.764,5.764,0,0,1-10.685,0c-1.152-2.534-1.576-4.569-4.794-6.082,0,0,2.553-4.052,5.726-1.572,0,0,.948-3.549,4.4-3.488h.022C91.7,46.055,92.644,49.6,92.644,49.6Z" transform="translate(-72.369 -45.939)" fill-rule="evenodd"/></svg>