<svg id="network" xmlns="http://www.w3.org/2000/svg" width="26" height="26" viewBox="0 0 26 26"><path id="Path_147" d="M199.047,0A3.094,3.094,0,0,0,196,3.1a3.047,3.047,0,0,0,6.094,0A3.094,3.094,0,0,0,199.047,0Zm0,0" transform="translate(-186.047)"/><path id="Path_148" d="M30,274.047a3.094,3.094,0,0,0,3.1,3.047,3.047,3.047,0,0,0,0-6.094A3.094,3.094,0,0,0,30,274.047Zm0,0" transform="translate(-28.477 -257.238)"/><path id="Path_149" d="M364.047,271a3.047,3.047,0,1,0,3.047,3.047A3.05,3.05,0,0,0,364.047,271Zm0,0" transform="translate(-342.668 -257.238)"/><path id="Path_150" d="M23.9,149.711a4.54,4.54,0,0,1-5.034,0,4.588,4.588,0,0,0-.4.344l-4.7-3.756v-4.966H17.57v-1.523A4.566,4.566,0,0,0,15.517,136a4.54,4.54,0,0,1-5.034,0,4.566,4.566,0,0,0-2.053,3.809v1.523h3.809V146.3l-4.7,3.756a4.588,4.588,0,0,0-.4-.344,4.539,4.539,0,0,1-2.517.762,4.707,4.707,0,0,1-2.568-.762A4.657,4.657,0,0,0,0,153.57v1.523H9.191V153.57a4.69,4.69,0,0,0-.65-2.364L13,147.639l4.458,3.567a4.69,4.69,0,0,0-.65,2.364v1.523H26V153.57A4.7,4.7,0,0,0,23.9,149.711Zm0,0" transform="translate(0 -129.094)"/></svg>