<svg xmlns="http://www.w3.org/2000/svg" width="26" height="26" viewBox="0 0 26 26"><path d="M13 0a3.094 3.094 0 00-3.047 3.1 3.047 3.047 0 006.094 0A3.094 3.094 0 0013 0zm0 0M1.523 16.809a3.094 3.094 0 003.1 3.047 3.047 3.047 0 000-6.094 3.094 3.094 0 00-3.1 3.047zm0 0M21.379 13.762a3.047 3.047 0 103.047 3.047 3.05 3.05 0 00-3.047-3.047zm0 0"/><path d="M23.9 20.617a4.54 4.54 0 01-5.034 0 4.588 4.588 0 00-.4.344l-4.7-3.756v-4.966h3.804v-1.523a4.566 4.566 0 00-2.053-3.81 4.54 4.54 0 01-5.034 0 4.566 4.566 0 00-2.053 3.809v1.523h3.809v4.968l-4.7 3.756a4.588 4.588 0 00-.4-.344 4.539 4.539 0 01-2.517.762 4.707 4.707 0 01-2.568-.762A4.657 4.657 0 000 24.476v1.523h9.191v-1.523a4.69 4.69 0 00-.65-2.364L13 18.545l4.458 3.567a4.69 4.69 0 00-.65 2.364v1.523H26v-1.523a4.7 4.7 0 00-2.1-3.859zm0 0"/></svg>