<svg xmlns="http://www.w3.org/2000/svg" width="24" height="18.412" viewBox="0 0 24 18.412"><g id="newspaper_1_" transform="translate(0 -34.572)"><path id="Rectangle_106" transform="translate(14.049 40.233)" d="M0 0H5.69V4.237H0z"/><path id="Path_158" d="M35.423,52.985H55a.814.814,0,0,0,.813-.814V35.386A.814.814,0,0,0,55,34.572H35.423a.814.814,0,0,0-.814.814V52.171A.814.814,0,0,0,35.423,52.985Zm9.137-13.4a.651.651,0,0,1,.651-.651H52.2a.651.651,0,0,1,.651.651v5.539a.651.651,0,0,1-.651.651H45.212a.651.651,0,0,1-.651-.651Zm-6.341-.651h4.195a.651.651,0,0,1,0,1.3H38.22a.651.651,0,1,1,0-1.3Zm0,2.8h4.195a.651.651,0,0,1,0,1.3H38.22a.651.651,0,1,1,0-1.3Zm0,2.8h4.195a.651.651,0,0,1,0,1.3H38.22a.651.651,0,1,1,0-1.3Zm0,4.2H52.2a.651.651,0,1,1,0,1.3H38.22a.651.651,0,1,1,0-1.3Z" transform="translate(-31.813)"/><path id="Path_159" d="M1.5,83.993v-14.8H.813A.814.814,0,0,0,0,70.006V83.994a.814.814,0,0,0,.813.814h.844A2.105,2.105,0,0,1,1.5,83.993Z" transform="translate(0 -31.822)"/></g></svg>