<svg xmlns="http://www.w3.org/2000/svg" width="24" height="18.412" viewBox="0 0 24 18.412"><path d="M14.049 5.661h5.69v4.237h-5.69z"/><path d="M3.61 18.413h19.577a.814.814 0 00.813-.814V.814A.814.814 0 0023.187 0H3.61a.814.814 0 00-.814.814v16.785a.814.814 0 00.814.814zm9.137-13.4a.651.651 0 01.651-.651h6.989a.651.651 0 01.651.651v5.539a.651.651 0 01-.651.651h-6.988a.651.651 0 01-.651-.651zm-6.341-.651h4.195a.651.651 0 010 1.3H6.407a.651.651 0 110-1.3zm0 2.8h4.195a.651.651 0 010 1.3H6.407a.651.651 0 110-1.3zm0 2.8h4.195a.651.651 0 010 1.3H6.407a.651.651 0 110-1.3zm0 4.2h13.981a.651.651 0 110 1.3H6.407a.651.651 0 110-1.3zM1.5 17.599v-14.8H.813A.814.814 0 000 3.612V17.6a.814.814 0 00.813.814h.844a2.105 2.105 0 01-.157-.815z"/></svg>