<svg xmlns="http://www.w3.org/2000/svg" width="18" height="18" viewBox="0 0 18 18"><path d="M16.418 0h-12.3a1.584 1.584 0 00-1.587 1.582V3.2h12.092a2.325 2.325 0 012.322 2.322v6.957a2.325 2.325 0 01-2.322 2.322H2.531v1.617A1.584 1.584 0 004.113 18h12.3a1.584 1.584 0 001.582-1.582V1.582A1.584 1.584 0 0016.418 0zm0 0"/><path d="M7.909 7.418h-.352v3.164h.352a.88.88 0 00.879-.879V8.297a.88.88 0 00-.879-.879zm0 0M3.691 7.418h-.527v1.406h.527a.703.703 0 000-1.406zm0 0"/><path d="M15.891 12.478V5.521a1.269 1.269 0 00-1.267-1.267H1.267A1.269 1.269 0 000 5.521v6.957a1.269 1.269 0 001.267 1.267h13.356a1.269 1.269 0 001.268-1.267zm-12.2-2.6h-.527v1.23a.528.528 0 01-1.055 0V6.889a.527.527 0 01.527-.527h1.055a1.758 1.758 0 010 3.516zm6.152-.176a1.936 1.936 0 01-1.934 1.934h-.878a.527.527 0 01-.527-.527V6.89a.527.527 0 01.527-.527h.879a1.936 1.936 0 011.934 1.934zm3.41-2.285h-1.3v1.055h1.055a.528.528 0 010 1.055h-1.055v1.582a.528.528 0 01-1.055 0V6.89a.527.527 0 01.527-.527h1.828a.528.528 0 010 1.055zm0 0"/></svg>