<svg id="pdf" xmlns="http://www.w3.org/2000/svg" width="18" height="18" viewBox="0 0 18 18"><path id="Path_143" d="M103.887,0h-12.3A1.584,1.584,0,0,0,90,1.582V3.2h12.092a2.325,2.325,0,0,1,2.322,2.322v6.957a2.325,2.325,0,0,1-2.322,2.322H90v1.617A1.584,1.584,0,0,0,91.582,18h12.3a1.584,1.584,0,0,0,1.582-1.582V1.582A1.584,1.584,0,0,0,103.887,0Zm0,0" transform="translate(-87.469)"/><path id="Path_144" d="M269.1,263.75h-.352v3.164h.352a.88.88,0,0,0,.879-.879v-1.406A.88.88,0,0,0,269.1,263.75Zm0,0" transform="translate(-261.191 -256.332)"/><path id="Path_145" d="M113.027,263.75H112.5v1.406h.527a.7.7,0,0,0,0-1.406Zm0,0" transform="translate(-109.336 -256.332)"/><path id="Path_146" d="M15.891,159.475v-6.957a1.269,1.269,0,0,0-1.267-1.267H1.267A1.269,1.269,0,0,0,0,152.518v6.957a1.269,1.269,0,0,0,1.267,1.267H14.623A1.269,1.269,0,0,0,15.891,159.475Zm-12.2-2.6H3.164v1.23a.527.527,0,0,1-1.055,0v-4.219a.527.527,0,0,1,.527-.527H3.691a1.758,1.758,0,0,1,0,3.516Zm6.152-.176a1.936,1.936,0,0,1-1.934,1.934H7.031a.527.527,0,0,1-.527-.527v-4.219a.527.527,0,0,1,.527-.527H7.91a1.936,1.936,0,0,1,1.934,1.934Zm3.41-2.285h-1.3v1.055h1.055a.527.527,0,0,1,0,1.055H11.953v1.582a.527.527,0,0,1-1.055,0v-4.219a.527.527,0,0,1,.527-.527h1.828a.527.527,0,0,1,0,1.055Zm0,0" transform="translate(0 -146.997)"/></svg>