<svg xmlns="http://www.w3.org/2000/svg" width="20" height="20" viewBox="0 0 20 20"><path d="M19.551 15.819l-3.089-3.1a1.608 1.608 0 00-2.271.043l-1.556 1.559-.307-.171a15.486 15.486 0 01-3.743-2.713 15.606 15.606 0 01-2.712-3.755c-.058-.1-.113-.205-.167-.3L6.75 6.336l.513-.515a1.615 1.615 0 00.041-2.276L4.217.449a1.606 1.606 0 00-2.271.043l-.87.877.024.024a5.048 5.048 0 00-.718 1.268 5.267 5.267 0 00-.319 1.286c-.408 3.389 1.137 6.486 5.33 10.689 5.8 5.809 10.467 5.37 10.669 5.349a5.209 5.209 0 001.287-.324 5.014 5.014 0 001.261-.716l.019.017.882-.865a1.618 1.618 0 00.04-2.278z"/></svg>