<svg xmlns="http://www.w3.org/2000/svg" width="30" height="23.939" viewBox="0 0 30 23.939"><path d="M18.031 9.744a4.1 4.1 0 003.453 1.535 2.811 2.811 0 001.228-.153 9.724 9.724 0 01-1.458 5.448 11.616 11.616 0 01-4.143 3.453l2.839 3.913a14.7 14.7 0 002.992-1.611 15.235 15.235 0 003.3-3.069 18.259 18.259 0 002.685-4.68A18.732 18.732 0 0030 8.056a8.478 8.478 0 00-1.995-6.061A7.242 7.242 0 0022.788 0a6.458 6.458 0 00-4.3 1.458A5.167 5.167 0 0016.8 5.6a6.348 6.348 0 001.228 4.143zm-16.8 0a4.1 4.1 0 003.449 1.535 3.388 3.388 0 001.3-.153 9.724 9.724 0 01-1.458 5.448 11.616 11.616 0 01-4.138 3.452l2.839 3.913a14.7 14.7 0 002.992-1.611 15.235 15.235 0 003.3-3.069 18.135 18.135 0 002.609-4.68A18.732 18.732 0 0013.2 8.056a8.478 8.478 0 00-2-6.061A7.117 7.117 0 005.985 0a6.458 6.458 0 00-4.3 1.458A5.383 5.383 0 000 5.6a6.348 6.348 0 001.228 4.144z" fill="#0c9add"/></svg>