<svg xmlns="http://www.w3.org/2000/svg" width="30" height="23.939" viewBox="0 0 30 23.939"><path id="Кавычки" d="M18.031,9.744a4.1,4.1,0,0,0,3.453,1.535,2.811,2.811,0,0,0,1.228-.153,9.724,9.724,0,0,1-1.458,5.448,11.616,11.616,0,0,1-4.143,3.453l2.839,3.913a14.7,14.7,0,0,0,2.992-1.611,15.235,15.235,0,0,0,3.3-3.069,18.259,18.259,0,0,0,2.685-4.68A18.732,18.732,0,0,0,30,8.056a8.478,8.478,0,0,0-1.995-6.061A7.242,7.242,0,0,0,22.788,0a6.458,6.458,0,0,0-4.3,1.458A5.167,5.167,0,0,0,16.8,5.6a6.348,6.348,0,0,0,1.228,4.143Zm-16.8,0A4.1,4.1,0,0,0,4.68,11.279a3.388,3.388,0,0,0,1.3-.153,9.724,9.724,0,0,1-1.458,5.448A11.616,11.616,0,0,1,.384,20.026l2.839,3.913a14.7,14.7,0,0,0,2.992-1.611,15.235,15.235,0,0,0,3.3-3.069,18.135,18.135,0,0,0,2.609-4.68A18.732,18.732,0,0,0,13.2,8.056,8.478,8.478,0,0,0,11.2,1.995,7.117,7.117,0,0,0,5.985,0a6.458,6.458,0,0,0-4.3,1.458A5.383,5.383,0,0,0,0,5.6,6.348,6.348,0,0,0,1.228,9.744Z" fill="#0c9add"/></svg>