<svg id="share" xmlns="http://www.w3.org/2000/svg" width="18" height="18" viewBox="0 0 18 18"><path id="Path_204" data-name="Path 204" d="M328.009,169.888a7.578,7.578,0,0,0-.83-6.57,4.5,4.5,0,0,1-1.687,1.6,5.021,5.021,0,0,1,.445,3.978,3.3,3.3,0,0,0-.34-.034,3.388,3.388,0,1,0,2.412,1.022Z" transform="translate(-310.972 -157.616)" fill="#0c9add"/><path id="Path_205" data-name="Path 205" d="M9.844,201.771A5.328,5.328,0,0,1,5.4,199.387a3.372,3.372,0,1,0-2.221.677,7.5,7.5,0,0,0,7.87,3.851,4.45,4.45,0,0,1-.875-2.179c-.113.007-.221.035-.335.035Z" transform="translate(0 -186.583)" fill="#0c9add"/><path id="Path_206" data-name="Path 206" d="M107.116,4.539a3.38,3.38,0,1,0-.025-2.248,7.586,7.586,0,0,0-5.653,3.351,4.465,4.465,0,0,1,2.274.712,5.352,5.352,0,0,1,3.4-1.815Z" transform="translate(-97.896)" fill="#0c9add"/></svg>