<svg xmlns="http://www.w3.org/2000/svg" width="18" height="18" viewBox="0 0 18 18"><path data-name="Path 204" d="M17.037 12.272a7.578 7.578 0 00-.83-6.57 4.5 4.5 0 01-1.687 1.6 5.021 5.021 0 01.445 3.978 3.3 3.3 0 00-.34-.034 3.388 3.388 0 102.412 1.022z" fill="#0c9add"/><path data-name="Path 205" d="M9.844 15.188A5.328 5.328 0 015.4 12.804a3.372 3.372 0 10-2.221.677 7.5 7.5 0 007.87 3.851 4.45 4.45 0 01-.875-2.179c-.113.007-.221.035-.335.035z" fill="#0c9add"/><path data-name="Path 206" d="M9.22 4.539a3.38 3.38 0 10-.025-2.248 7.586 7.586 0 00-5.653 3.351 4.465 4.465 0 012.274.712 5.352 5.352 0 013.4-1.815z" fill="#0c9add"/></svg>