<svg xmlns="http://www.w3.org/2000/svg" width="70" height="55" viewBox="0 0 70 55"><path d="M68.793 0H1.207A1.2 1.2 0 000 1.2v52.6A1.2 1.2 0 001.207 55h67.586A1.2 1.2 0 0070 53.8V1.2A1.2 1.2 0 0068.793 0zM19.31 13.152a6.658 6.658 0 11-6.721 6.659 6.7 6.7 0 016.721-6.659zm44.338 22.33a1.217 1.217 0 01-1.705.074L48.352 23.212 37.271 35.233l5.8 5.748a1.186 1.186 0 010 1.691 1.214 1.214 0 01-1.707 0l-12.43-12.316L9.246 47.528a1.217 1.217 0 01-1.7-.108 1.188 1.188 0 01.109-1.688l20.533-17.913a1.216 1.216 0 011.651.053l5.724 5.671 11.82-12.826a1.214 1.214 0 01.838-.389 1.25 1.25 0 01.869.313l14.483 13.153a1.186 1.186 0 01.075 1.688z"/></svg>