<svg xmlns="http://www.w3.org/2000/svg" width="70" height="55" viewBox="0 0 70 55"><path id="picture" d="M68.793,6H1.207A1.2,1.2,0,0,0,0,7.2V59.8A1.2,1.2,0,0,0,1.207,61H68.793A1.2,1.2,0,0,0,70,59.8V7.2A1.2,1.2,0,0,0,68.793,6ZM19.31,19.152a6.658,6.658,0,1,1-6.721,6.659A6.7,6.7,0,0,1,19.31,19.152Zm44.338,22.33a1.217,1.217,0,0,1-1.705.074L48.352,29.212,37.271,41.233l5.8,5.748a1.186,1.186,0,0,1,0,1.691,1.214,1.214,0,0,1-1.707,0L28.934,36.356,9.246,53.528a1.217,1.217,0,0,1-1.7-.108,1.188,1.188,0,0,1,.109-1.688L28.188,33.819a1.216,1.216,0,0,1,1.651.053l5.724,5.671,11.82-12.826a1.214,1.214,0,0,1,.838-.389,1.25,1.25,0,0,1,.869.313L63.573,39.794A1.186,1.186,0,0,1,63.648,41.482Z" transform="translate(0 -6)"/></svg>