<svg xmlns="http://www.w3.org/2000/svg" width="16" height="22" viewBox="0 0 16 22"><g fill="#0c9add"><path data-name="Path 687" d="M15.579 9.741c-.052.256-.227.5-.547.418a10.283 10.283 0 00-4.032-.1c-.393.1-.577-.077-.725-.549a11.11 11.11 0 01-.824-4.4C9.731 1.054 11.4-.07 12.658 0s4.49 2.084 2.921 9.741zm-5.174 2.423a10.45 10.45 0 00-.352 1.852c-.21 1.9.2 3.215 2.043 3.481 1.557.226 2.557-.95 2.765-2.848a22.11 22.11 0 00.137-1.879z"/><path data-name="Path 688" d="M3.342 4.476C4.6 4.407 6.269 5.531 6.549 9.59a11.107 11.107 0 01-.824 4.4c-.148.472-.331.644-.725.549a10.271 10.271 0 00-4.032.1c-.321.077-.495-.162-.547-.418-1.569-7.661 1.664-9.668 2.921-9.745zm-2.341 12.77s.012.732.137 1.879c.209 1.9 1.208 3.073 2.765 2.848 1.846-.267 2.252-1.583 2.043-3.481a10.45 10.45 0 00-.352-1.852z"/></g></svg>