<svg xmlns="http://www.w3.org/2000/svg" width="16" height="22" viewBox="0 0 16 22"><g id="icon" transform="translate(-.98 6)" fill="#0c9add"><path id="Path_687" data-name="Path 687" d="M21.162,9.741c-.052.256-.227.5-.547.418a10.283,10.283,0,0,0-4.032-.1c-.393.1-.577-.077-.725-.549a11.11,11.11,0,0,1-.824-4.4C15.314,1.054,16.983-.07,18.241,0S22.731,2.084,21.162,9.741Zm-5.174,2.423a10.45,10.45,0,0,0-.352,1.852c-.21,1.9.2,3.215,2.043,3.481,1.557.226,2.557-.95,2.765-2.848.126-1.147.137-1.879.137-1.879Z" transform="translate(-4.603 -6)"/><path id="Path_688" data-name="Path 688" d="M4.322,0C5.58-.069,7.249,1.055,7.529,5.114a11.107,11.107,0,0,1-.824,4.4c-.148.472-.331.644-.725.549a10.271,10.271,0,0,0-4.032.1c-.321.077-.495-.162-.547-.418C-.168,2.084,3.065.077,4.322,0ZM1.981,12.77s.012.732.137,1.879c.209,1.9,1.208,3.073,2.765,2.848,1.846-.267,2.252-1.583,2.043-3.481a10.45,10.45,0,0,0-.352-1.852Z" transform="translate(0 -1.524)"/></g></svg>