<svg xmlns="http://www.w3.org/2000/svg" width="22" height="19" viewBox="0 0 22 19"><path d="M15.038 14.816l-3.5-1.65a.9.9 0 01-.538-.817v-1.168c.084-.1.172-.207.264-.329a7.745 7.745 0 001.083-2A1.369 1.369 0 0013.2 7.6V6.218a1.333 1.333 0 00-.367-.907V3.474a2.97 2.97 0 00-.767-2.254A4.778 4.778 0 008.433 0 4.78 4.78 0 004.8 1.219a2.97 2.97 0 00-.767 2.254v1.838a1.333 1.333 0 00-.367.907V7.6a1.346 1.346 0 00.549 1.074 7.1 7.1 0 001.284 2.5v1.143a.906.906 0 01-.5.8L1.724 14.8A3.094 3.094 0 000 17.536V19h16.867v-1.4a3.086 3.086 0 00-1.829-2.784z"/><path d="M20.338 15.209l-3.565-1.454a.7.7 0 01-.258-.266h2.392s.138.013.353.013a4.065 4.065 0 001.467-.244 1.037 1.037 0 00.612-.659.976.976 0 00-.156-.872 11.077 11.077 0 01-2.33-5.742 4.33 4.33 0 00-4.477-4.208 5.753 5.753 0 00-1.236.143 3.532 3.532 0 01.244 1.581v1.637a1.814 1.814 0 01.367 1.085v1.382a1.877 1.877 0 01-.956 1.611 8.239 8.239 0 01-1.081 1.942q-.082.11-.162.209v.988a.386.386 0 00.231.353l3.5 1.65a3.6 3.6 0 012.132 3.251v1.4H22v-1.286a2.782 2.782 0 00-1.662-2.514z"/></svg>