<svg xmlns="http://www.w3.org/2000/svg" width="14" height="18" viewBox="0 0 14 18"><g id="man-user" transform="translate(-41.896)"><path id="Path_172" d="M108.241,8.8c2.046,0,3.706-1.971,3.706-4.4S111.4,0,108.241,0s-3.706,1.971-3.706,4.4S106.194,8.8,108.241,8.8Z" transform="translate(-59.346)"/><path id="Path_173" d="M41.9,300.448c0-.148,0-.042,0,0Z" transform="translate(0 -284.924)"/><path id="Path_174" d="M308.085,301.621c0-.041,0-.282,0,0Z" transform="translate(-252.191 -285.981)"/><path id="Path_175" d="M55.9,183.945c-.069-4.235-.634-5.441-4.962-6.205a3.092,3.092,0,0,1-4.058,0c-4.281.755-4.881,1.944-4.959,6.068-.006.337-.009.354-.011.315,0,.073,0,.209,0,.445,0,0,1.03,2.031,7,2.031s7-2.031,7-2.031c0-.152,0-.257,0-.329A2.66,2.66,0,0,1,55.9,183.945Z" transform="translate(-.012 -168.599)"/></g></svg>