<svg xmlns="http://www.w3.org/2000/svg" width="22" height="19" viewBox="0 0 22 19"><g id="users" transform="translate(0 -2.5)"><path id="Path_120" d="M15.038,17.316l-3.5-1.65A.9.9,0,0,1,11,14.849V13.681c.084-.1.172-.207.264-.329a7.745,7.745,0,0,0,1.083-2A1.369,1.369,0,0,0,13.2,10.1V8.718a1.333,1.333,0,0,0-.367-.907V5.974a2.97,2.97,0,0,0-.767-2.254A4.778,4.778,0,0,0,8.433,2.5,4.78,4.78,0,0,0,4.8,3.719a2.97,2.97,0,0,0-.767,2.254V7.811a1.333,1.333,0,0,0-.367.907V10.1a1.346,1.346,0,0,0,.549,1.074,7.1,7.1,0,0,0,1.284,2.5v1.143a.906.906,0,0,1-.5.8L1.724,17.3A3.094,3.094,0,0,0,0,20.036V21.5H16.867V20.1A3.086,3.086,0,0,0,15.038,17.316Z"/><path id="Path_121" d="M40.288,21.071l-3.565-1.454a.7.7,0,0,1-.258-.266l2.392,0s.138.013.353.013a4.065,4.065,0,0,0,1.467-.244,1.037,1.037,0,0,0,.612-.659.976.976,0,0,0-.156-.872,11.077,11.077,0,0,1-2.33-5.742,4.33,4.33,0,0,0-4.477-4.208,5.753,5.753,0,0,0-1.236.143,3.532,3.532,0,0,1,.244,1.581V11a1.814,1.814,0,0,1,.367,1.085v1.382a1.877,1.877,0,0,1-.956,1.611,8.239,8.239,0,0,1-1.081,1.942q-.082.11-.162.209v.988a.386.386,0,0,0,.231.353l3.5,1.65a3.6,3.6,0,0,1,2.132,3.251v1.4H41.95V23.585A2.782,2.782,0,0,0,40.288,21.071Z" transform="translate(-19.95 -3.362)"/></g></svg>