<svg xmlns="http://www.w3.org/2000/svg" width="18" height="17.279" viewBox="0 0 18 17.279"><g data-name="Group 233" fill="#0c9add"><path data-name="Path 218" d="M4.206 3.29l7.176-1.959-.38-.768A1.011 1.011 0 009.648.106L3.224 3.29z"/><path data-name="Path 219" d="M13.609 1.387a1.011 1.011 0 00-.267.036l-1.686.461-5.147 1.405H14.9l-.315-1.156a1.009 1.009 0 00-.976-.746z"/><path data-name="Path 220" d="M15.952 3.997H1.013a1.012 1.012 0 00-.976.746 1.046 1.046 0 00-.036.265v11.261a1.011 1.011 0 001.011 1.011H15.95a1.011 1.011 0 001.011-1.011v-2.82h-6a1.719 1.719 0 01-1.718-1.718V9.483a1.716 1.716 0 011.716-1.716h6V5.008a1.008 1.008 0 00-1.007-1.011z"/><path data-name="Path 221" d="M17.671 8.733a1.011 1.011 0 00-.354-.21 1.031 1.031 0 00-.327-.055h-6.026a1.011 1.011 0 00-1.011 1.011v2.25a1.011 1.011 0 001.011 1.011h6.026a1.029 1.029 0 00.327-.055.98.98 0 00.354-.21 1.007 1.007 0 00.329-.746v-2.25a1.007 1.007 0 00-.329-.746zm-4.6 2.072a.506.506 0 01-.505.505h-.336a.506.506 0 01-.505-.505v-.336a.5.5 0 01.194-.4.511.511 0 01.311-.109h.336a.506.506 0 01.505.505v.336z"/></g></svg>