<svg xmlns="http://www.w3.org/2000/svg" width="18" height="17.279" viewBox="0 0 18 17.279"><g id="wallet-filled-money-tool" transform="translate(0 -17.84)"><g id="Group_233" data-name="Group 233" transform="translate(0 17.84)" fill="#0c9add"><path id="Path_218" data-name="Path 218" d="M160.482,21.13l7.176-1.959-.38-.768a1.011,1.011,0,0,0-1.354-.457L159.5,21.13Z" transform="translate(-156.276 -17.84)"/><path id="Path_219" data-name="Path 219" d="M329.1,86.46a1.011,1.011,0,0,0-.267.036l-1.686.461L322,88.362h8.391l-.315-1.156A1.009,1.009,0,0,0,329.1,86.46Z" transform="translate(-315.491 -85.073)"/><path id="Path_220" data-name="Path 220" d="M15.952,215.56H1.013a1.012,1.012,0,0,0-.976.746,1.046,1.046,0,0,0-.036.265v11.261a1.011,1.011,0,0,0,1.011,1.011H15.95a1.011,1.011,0,0,0,1.011-1.011v-2.82h-6a1.719,1.719,0,0,1-1.718-1.718v-2.248a1.716,1.716,0,0,1,1.716-1.716h6v-2.759A1.008,1.008,0,0,0,15.952,215.56Z" transform="translate(0 -211.563)"/><path id="Path_221" data-name="Path 221" d="M500.118,437.026a1.011,1.011,0,0,0-.354-.21,1.031,1.031,0,0,0-.327-.055h-6.026a1.011,1.011,0,0,0-1.011,1.011v2.25a1.011,1.011,0,0,0,1.011,1.011h6.026a1.029,1.029,0,0,0,.327-.055.98.98,0,0,0,.354-.21,1.007,1.007,0,0,0,.329-.746v-2.25A1.007,1.007,0,0,0,500.118,437.026Zm-4.6,2.072a.506.506,0,0,1-.505.505h-.336a.506.506,0,0,1-.505-.505v-.336a.5.5,0,0,1,.194-.4.511.511,0,0,1,.311-.109h.336a.506.506,0,0,1,.505.505v.336Z" transform="translate(-482.447 -428.293)"/></g></g></svg>