<svg xmlns="http://www.w3.org/2000/svg" width="14" height="18.667" viewBox="0 0 14 18.667"><g id="watch" transform="translate(-2)" fill="#0c9add"><path id="Path_216" data-name="Path 216" d="M14,9.333A6.966,6.966,0,0,0,12.114,4.57L10.974,0H3.027L1.883,4.573a6.961,6.961,0,0,0,0,9.521l1.145,4.574h7.946l1.144-4.573A6.966,6.966,0,0,0,14,9.333ZM7,4.667A4.667,4.667,0,1,1,2.333,9.333,4.672,4.672,0,0,1,7,4.667Z" transform="translate(2)"/><path id="Path_217" data-name="Path 217" d="M3.739,4.423,2.333,3.017V0H0V3.983l2.09,2.09Z" transform="translate(7.833 5.833)"/></g></svg>