<svg xmlns="http://www.w3.org/2000/svg" width="49" height="30.001" viewBox="0 0 49 30.001"><path d="M49 28.087A1.915 1.915 0 0 1 47.083 30H1.954A1.916 1.916 0 0 1 0 28.124V1.913A1.915 1.915 0 0 1 1.917 0h45.129A1.916 1.916 0 0 1 49 1.876v26.211z" fill="#ededed"/><path d="M16.839 10.279a1.75 1.75 0 0 0-1.639 1.259c-.317 1.141-1.217 4.288-1.257 4.366H13.7s-.9-3.226-1.252-4.367a1.749 1.749 0 0 0-1.641-1.258H7.839v9.481h2.972V14.1h.235l1.721 5.625h2.072L16.56 14.1h.24v5.62h2.972v-9.441zM27.668 10.279a1.706 1.706 0 0 0-1.291.983L24.265 15.9h-.235v-5.621h-2.972v9.481h2.777a1.743 1.743 0 0 0 1.33-.983l2.073-4.642h.235v5.625h2.972v-9.481zM31.775 14.567v5.153h2.972v-3.028h3.168a3.175 3.175 0 0 0 3.012-2.164h-9.152zM37.915 10.279h-6.571a4.749 4.749 0 0 0 3.4 3.737 4.341 4.341 0 0 0 1.256.157h5.08a3.423 3.423 0 0 0 .078-.669 3.264 3.264 0 0 0-3.243-3.225z" fill="gray"/></svg>