<svg xmlns="http://www.w3.org/2000/svg" width="12" height="12" viewBox="0 0 12 12"><path fill="#fff" d="M0 6a6 6 0 1 1 12 0A6 6 0 0 1 0 6z"/><path fill="gray" d="M6 11.033A5.039 5.039 0 0 1 .967 6 5.039 5.039 0 0 1 6 .967 5.039 5.039 0 0 1 11.033 6 5.039 5.039 0 0 1 6 11.033zM6 0C2.692 0 0 2.692 0 6s2.692 6 6 6 6-2.692 6-6-2.692-6-6-6z"/><path fill="gray" d="M7.913 4.087l-2.801 2.8-1.025-1.024a.483.483 0 1 0-.683.683L4.77 7.913a.482.482 0 0 0 .684 0l3.142-3.142a.484.484 0 0 0-.683-.684z"/></svg>