<svg xmlns="http://www.w3.org/2000/svg" width="49" height="30" viewBox="0 0 49 30"><path d="M48.961 28.393A1.635 1.635 0 0 1 47.321 30H1.64A1.635 1.635 0 0 1 0 28.393V1.607A1.635 1.635 0 0 1 1.64 0h45.72A1.635 1.635 0 0 1 49 1.607v26.786z" fill="#ededed"/><g fill="gray"><path d="M22.529 19.516h-2.382l1.484-9.031h2.416zM18.116 10.485l-2.265 6.2-.273-1.339-.82-4.056s-.078-.8-1.132-.8H9.839l-.039.153a8.527 8.527 0 0 1 2.5 1.033l2.108 7.844h2.5l3.785-9.035zM36.935 19.515h2.186l-1.913-8.992H35.3a1.065 1.065 0 0 0-1.093.689l-3.553 8.3h2.5l.508-1.339H36.7zM34.319 16.3l1.249-3.367.7 3.367zM30.806 12.666l.351-1.952a7.186 7.186 0 0 0-2.145-.382c-1.171 0-4.022.5-4.022 2.985 0 2.334 3.319 2.372 3.319 3.559 0 1.224-2.967.995-3.943.23l-.354 2.026a6.845 6.845 0 0 0 2.694.5c1.64 0 4.1-.842 4.1-3.1 0-2.334-3.358-2.564-3.358-3.559.039-.996 2.342-.841 3.358-.307z"/><path d="M15.578 15.345l-.82-4.056s-.078-.8-1.132-.8H9.839l-.039.153a9.668 9.668 0 0 1 3.553 1.76 6.9 6.9 0 0 1 2.225 2.943z"/></g></svg>