<svg xmlns="http://www.w3.org/2000/svg" width="30" height="30" viewBox="0 0 30 30"><path fill="gray" d="M27.806 20.897H20.6c-1.789 0-3.274-1.491-3.274-3.274s1.491-3.274 3.274-3.274h7.206zm-1.246 6.08c0 .474-.36.892-.834.892H2.966c-.475 0-.835-.418-.835-.892V8.27c0-.475.36-.892.835-.892h22.697c.474 0 .834.417.834.892v4.822H20.6a4.425 4.425 0 0 0-4.469 4.469A4.46 4.46 0 0 0 20.6 22.03h5.96zM23.457 2.131c.297.058.594.418.594.892V6.24H7.611zm4.949 10.96h-.715V8.27c0-1.132-.891-2.023-1.965-2.023h-.537V3.023C25.189 1.89 24.354 1 23.343 1h-.12L2.846 6.24c-.006 0-.017.006-.023.006C1.817 6.326 1 7.189 1 8.269v18.708C1 28.11 1.891 29 2.966 29h22.76a2.005 2.005 0 0 0 2.023-2.023V22.03h.657c.36 0 .594-.24.594-.595v-7.743c0-.36-.297-.6-.594-.6z"/><path fill="none" stroke="gray" stroke-miterlimit="50" stroke-width=".5" d="M27.806 20.897H20.6c-1.789 0-3.274-1.491-3.274-3.274s1.491-3.274 3.274-3.274h7.206zm-1.246 6.08c0 .474-.36.892-.834.892H2.966c-.475 0-.835-.418-.835-.892V8.27c0-.475.36-.892.835-.892h22.697c.474 0 .834.417.834.892v4.822H20.6a4.425 4.425 0 0 0-4.469 4.469A4.46 4.46 0 0 0 20.6 22.03h5.96zM23.457 2.131c.297.058.594.418.594.892V6.24H7.611zm4.949 10.96h-.715V8.27c0-1.132-.891-2.023-1.965-2.023h-.537V3.023C25.189 1.89 24.354 1 23.343 1h-.12L2.846 6.24c-.006 0-.017.006-.023.006C1.817 6.326 1 7.189 1 8.269v18.708C1 28.11 1.891 29 2.966 29h22.76a2.005 2.005 0 0 0 2.023-2.023V22.03h.657c.36 0 .594-.24.594-.595v-7.743c0-.36-.297-.6-.594-.6z"/><path fill="gray" d="M19.943 17.68c0 .36.297.594.594.594h.537a.593.593 0 1 0 0-1.189h-.531c-.36 0-.6.24-.6.595z"/><path fill="none" stroke="gray" stroke-miterlimit="50" stroke-width=".5" d="M19.943 17.68c0 .36.297.594.594.594h.537a.593.593 0 1 0 0-1.189h-.531c-.36 0-.6.24-.6.595z"/></svg>