<svg xmlns="http://www.w3.org/2000/svg" width="20" height="16" viewBox="0 0 20 16"><path fill="gray" d="M16.76 9.415a10.336 10.336 0 0 1-1.988 1.393 10.09 10.09 0 0 1-2.275.89 10.078 10.078 0 0 1-5.592-.174l.889-.864a4.196 4.196 0 0 0 2.206.621c2.278 0 4.125-1.795 4.125-4.01 0-.789-.235-1.524-.64-2.144l.378-.367a10.35 10.35 0 0 1 2.896 1.826c.48.428.923.903 1.319 1.414-.396.511-.839.985-1.319 1.415zM6.136 11.24A10.336 10.336 0 0 1 3.24 9.415 10.66 10.66 0 0 1 1.922 8c.396-.511.839-.986 1.319-1.414a10.348 10.348 0 0 1 1.987-1.394c.6-.323 1.23-.584 1.878-.779a3.944 3.944 0 0 0-1.23 2.858 3.95 3.95 0 0 0 1.32 2.94zM10 3.99a3.402 3.402 0 0 1 2.494 1.07L7.726 9.696a3.213 3.213 0 0 1-.112-4.745A3.402 3.402 0 0 1 10 3.989zm3.375 3.28c0 .877-.351 1.701-.989 2.321a3.402 3.402 0 0 1-2.386.961 3.43 3.43 0 0 1-1.66-.423l4.6-4.472c.284.487.435 1.04.435 1.614zm-.28-2.794l-.07.068a4.57 4.57 0 0 0-.131-.13c.067.02.134.04.2.062zm3.995-2.854a.358.358 0 0 0 .11-.258.37.37 0 0 0-.375-.364.378.378 0 0 0-.265.107l-2.877 2.797A10.809 10.809 0 0 0 10 3.261C6.293 3.26 3.012 5.13 1 8a11.185 11.185 0 0 0 4.568 3.793L2.91 14.378a.357.357 0 0 0-.11.257.37.37 0 0 0 .375.365.382.382 0 0 0 .265-.107l2.877-2.797A10.81 10.81 0 0 0 10 12.74c3.707 0 6.988-1.87 9-4.74a11.184 11.184 0 0 0-4.569-3.793z"/><path fill="none" stroke="gray" stroke-miterlimit="50" stroke-width=".3" d="M16.76 9.415a10.336 10.336 0 0 1-1.988 1.393 10.09 10.09 0 0 1-2.275.89 10.078 10.078 0 0 1-5.592-.174l.889-.864a4.196 4.196 0 0 0 2.206.621c2.278 0 4.125-1.795 4.125-4.01 0-.789-.235-1.524-.64-2.144l.378-.367a10.35 10.35 0 0 1 2.896 1.826c.48.428.923.903 1.319 1.414-.396.511-.839.985-1.319 1.415zM6.136 11.24A10.336 10.336 0 0 1 3.24 9.415 10.66 10.66 0 0 1 1.922 8c.396-.511.839-.986 1.319-1.414a10.348 10.348 0 0 1 1.987-1.394c.6-.323 1.23-.584 1.878-.779a3.944 3.944 0 0 0-1.23 2.858 3.95 3.95 0 0 0 1.32 2.94zM10 3.99a3.402 3.402 0 0 1 2.494 1.07L7.726 9.696a3.213 3.213 0 0 1-.112-4.745A3.402 3.402 0 0 1 10 3.989zm3.375 3.28c0 .877-.351 1.701-.989 2.321a3.402 3.402 0 0 1-2.386.961 3.43 3.43 0 0 1-1.66-.423l4.6-4.472c.284.487.435 1.04.435 1.614zm-.28-2.794l-.07.068a4.57 4.57 0 0 0-.131-.13c.067.02.134.04.2.062zm3.995-2.854a.358.358 0 0 0 .11-.258.37.37 0 0 0-.375-.364.378.378 0 0 0-.265.107l-2.877 2.797A10.809 10.809 0 0 0 10 3.261C6.293 3.26 3.012 5.13 1 8a11.185 11.185 0 0 0 4.568 3.793L2.91 14.378a.357.357 0 0 0-.11.257.37.37 0 0 0 .375.365.382.382 0 0 0 .265-.107l2.877-2.797A10.81 10.81 0 0 0 10 12.74c3.707 0 6.988-1.87 9-4.74a11.184 11.184 0 0 0-4.569-3.793z"/></svg>