<svg xmlns="http://www.w3.org/2000/svg" width="14" height="18" viewBox="0 0 14 18"><path d="M13.093 17.084H.9v-2.07c0-3.377 2.733-6.128 6.096-6.128 3.364 0 6.097 2.748 6.097 6.128zM3.482 4.445c0-1.947 1.577-3.533 3.514-3.533 1.937 0 3.515 1.586 3.515 3.533 0 1.947-1.578 3.533-3.515 3.533S3.482 6.392 3.482 4.445zM14 17.542v-2.524a7.047 7.047 0 0 0-4.84-6.694 4.457 4.457 0 0 0 2.262-3.879C11.422 1.995 9.437 0 7 0 4.563 0 2.578 1.995 2.578 4.445a4.46 4.46 0 0 0 2.263 3.88A7.042 7.042 0 0 0 0 15.017v2.524c0 .253.204.458.456.458h13.096a.457.457 0 0 0 .448-.458z"/></svg>