<svg xmlns="http://www.w3.org/2000/svg" width="17.513" height="17.472" viewBox="0 0 17.513 17.472"><path d="M.105 7.295a7.206 7.206 0 0 0 11.985 5.38l4.593 4.583a.435.435 0 0 0 .617-.612l-4.6-4.583A7.2 7.2 0 1 0 .1 7.296zm13.545 0A6.338 6.338 0 1 1 7.299.97h.013a6.34 6.34 0 0 1 6.338 6.325z"/><path d="M16.972 17.472a.525.525 0 0 1-.36-.141l-4.531-4.519a7.3 7.3 0 0 1-4.761 1.775h-.01a7.305 7.305 0 0 1-7.3-7.17H0v-.121a7.3 7.3 0 1 1 12.836 4.762l4.536 4.516a.536.536 0 0 1-.37.9zm-4.882-4.935l.067.068 4.592 4.583a.34.34 0 0 0 .224.085h.015a.335.335 0 0 0 .234-.559l-4.66-4.646.063-.072a7.1 7.1 0 1 0-12.424-4.8v.1a7.1 7.1 0 0 0 7.109 7.092h.014a7.1 7.1 0 0 0 4.7-1.788zm-4.78 1.208a6.438 6.438 0 1 1 6.44-6.45 6.436 6.436 0 0 1-6.425 6.45zm0-12.675a6.238 6.238 0 0 0 0 12.476h.015a6.238 6.238 0 0 0 6.225-6.251A6.249 6.249 0 0 0 7.312 1.07z"/></svg>