<svg xmlns="http://www.w3.org/2000/svg" width="52" height="45" viewBox="0 0 52 45"><path fill="gray" d="M37.9 33.352a.955.955 0 0 1-.956.947h-7.066a.955.955 0 0 1-.956-.947V27.98c0-.527.436-.948.956-.948h7.066c.531 0 .956.432.956.948zm-.956-8.847h-7.066c-1.934 0-3.506 1.56-3.506 3.476v5.37c0 1.917 1.572 3.476 3.506 3.476h7.066c1.934 0 3.506-1.559 3.506-3.475V27.98c0-1.917-1.572-3.476-3.506-3.476z"/><path fill="gray" d="M44.541 19.608c-2.412 0-4.42-1.727-4.824-4.001h9.659c-.415 2.264-2.423 4.001-4.835 4.001zm.436 22.864H23.97V28.834c0-2.38-1.955-4.329-4.367-4.329h-3.709c-2.4 0-4.367 1.938-4.367 4.329v13.648H7.013V22.125c.148.01.297.01.446.01a7.467 7.467 0 0 0 6.184-3.264 7.467 7.467 0 0 0 6.184 3.265 7.482 7.482 0 0 0 6.184-3.265 7.462 7.462 0 0 0 6.173 3.265 7.448 7.448 0 0 0 6.173-3.265 7.467 7.467 0 0 0 6.184 3.265c.149 0 .287-.01.436-.01zm-30.888 0V28.834c0-.99.808-1.801 1.817-1.801h3.708c.999 0 1.817.8 1.817 1.8v13.639zM2.635 15.596h9.658c-.403 2.275-2.422 4.002-4.834 4.002a4.876 4.876 0 0 1-4.824-4.002zm22.016 0c-.404 2.275-2.412 4.002-4.824 4.002s-4.42-1.727-4.835-4.002zm12.357 0c-.404 2.275-2.412 4.002-4.824 4.002s-4.42-1.727-4.824-4.002zM9.743 2.537h32.503l6.046 10.542H3.708zM52 14.743c0-.221-.053-.432-.17-.621L44.095.642a1.284 1.284 0 0 0-1.105-.643H9a1.26 1.26 0 0 0-1.105.643L.17 14.122c-.106.19-.17.4-.17.621 0 3.022 1.838 5.613 4.463 6.761v22.231c0 .696.573 1.264 1.275 1.264h40.514c.701 0 1.275-.568 1.275-1.264V21.662c0-.053 0-.095-.01-.137C50.15 20.377 52 17.776 52 14.743z"/></svg>