<svg xmlns="http://www.w3.org/2000/svg" width="66" height="36" viewBox="0 0 66 36"><path fill="gray" d="M62.76 28.556h-2.27c-.81-1.98-2.768-3.393-5.036-3.393a5.444 5.444 0 0 0-5.037 3.393h-1.242V8.509h6.792c4.253 0 6.791 3.083 6.791 8.24zm-7.305 4.227a2.198 2.198 0 0 1-2.201-2.194c0-1.212.985-2.195 2.2-2.195 1.216 0 2.201.983 2.201 2.195a2.216 2.216 0 0 1-2.2 2.194zm-30.03 0c-1.215 0-2.2-.983-2.2-2.194 0-1.212.985-2.195 2.2-2.195 1.215 0 2.201.983 2.201 2.195a2.198 2.198 0 0 1-2.2 2.194zM63.097 8.267c-1.782-1.925-4.32-2.989-7.143-2.989h-6.792V1.616c0-.888-.729-1.615-1.62-1.615H15.19c-.89 0-1.62.727-1.62 1.615v5.628H7.264c-.89 0-1.62.727-1.62 1.615 0 .889.73 1.616 1.62 1.616h7.94c.89 0 1.62-.727 1.62-1.616V3.232h29.111v25.324H30.678c-.068 0-.135 0-.203.013a5.46 5.46 0 0 0-5.05-3.406 5.437 5.437 0 0 0-5.05 3.433 1.561 1.561 0 0 0-.35-.04h-3.2v-5.641c0-.889-.73-1.616-1.621-1.616H7.265c-.892 0-1.621.727-1.621 1.616 0 .888.73 1.615 1.62 1.615h6.306v5.628c0 .888.73 1.615 1.62 1.615h4.929a5.428 5.428 0 0 0 5.306 4.228 5.44 5.44 0 0 0 5.307-4.228h19.416c.554 2.41 2.714 4.228 5.307 4.228a5.44 5.44 0 0 0 5.306-4.228h3.619c.89 0 1.62-.727 1.62-1.615V16.735c0-3.487-1.013-6.422-2.903-8.468z"/><path fill="gray" d="M27.829 18.916a1.614 1.614 0 0 0 1.147 2.76 1.65 1.65 0 0 0 1.148-.471l4.172-4.16.014-.014c.027-.04.067-.067.094-.107.014-.027.027-.04.04-.068a.236.236 0 0 1 .055-.067l.04-.08c.014-.028.027-.041.04-.068l.041-.08c.014-.028.027-.041.027-.068.014-.027.014-.054.027-.08.014-.028.014-.055.027-.068.014-.027.014-.054.014-.08 0-.028.013-.055.013-.082 0-.027.014-.054.014-.094 0-.027.013-.04.013-.067a1.294 1.294 0 0 0 0-.323c0-.027 0-.04-.013-.068 0-.027-.014-.054-.014-.094 0-.027-.013-.054-.013-.08 0-.028-.014-.055-.014-.081-.013-.027-.013-.054-.027-.068-.013-.027-.013-.054-.027-.08-.013-.028-.027-.041-.027-.068l-.04-.08c-.014-.028-.027-.041-.04-.068l-.041-.08a.236.236 0 0 0-.054-.068c-.014-.027-.027-.04-.04-.067-.028-.04-.068-.068-.095-.108l-.014-.014-3.97-3.958a1.625 1.625 0 0 0-2.295 0 1.614 1.614 0 0 0 0 2.289l1.202 1.198H1.62c-.89 0-1.62.727-1.62 1.616 0 .888.73 1.615 1.62 1.615h27.6z"/></svg>