<svg xmlns="http://www.w3.org/2000/svg" width="58" height="51" viewBox="0 0 58 51"><path fill="gray" d="M21.71 33.64l9.462 2.86a1.19 1.19 0 0 1-.06.193c-.253.685-.772 1.07-1.615 1.202-3.11.493-8.269.18-8.317.18a1.442 1.442 0 0 0-1.53 1.347 1.44 1.44 0 0 0 1.349 1.527c.229.012 5.52.337 8.956-.216 3.41-.541 4.387-3.535 4.206-5.423a1.447 1.447 0 0 0-1.024-1.25l-10.595-3.198c-5.231-1.575-10.969 1.335-11.21 1.455-.024.012-.06.024-.084.048L.7 38.725a1.444 1.444 0 0 0-.494 1.984 1.46 1.46 0 0 0 1.242.697c.253 0 .506-.072.747-.204l10.498-6.312c.458-.24 5.075-2.44 9.016-1.25z"/><path fill="gray" d="M57.822 31.223c-.832-1.515-3.423-3.932-7.353-2.2-3.712 1.647-11.559 5.41-11.643 5.446a1.433 1.433 0 0 0-.675 1.923 1.443 1.443 0 0 0 1.928.674c.085-.036 7.883-3.787 11.56-5.41 1.048-.47 1.928-.47 2.687 0 .025.012.037.024.06.036L34.729 46.059a6.58 6.58 0 0 1-4.87 1.178l-17.537-2.79c-.41-.06-.832.049-1.157.313l-4.436 3.691a1.432 1.432 0 0 0-.18 2.032 1.448 1.448 0 0 0 2.037.18l3.929-3.27 16.898 2.693a9.479 9.479 0 0 0 7.04-1.695l20.972-15.317a1.45 1.45 0 0 0 .398-1.851zM27.11 17.252a5.505 5.505 0 0 1 3.917-1.623c1.483 0 2.87.577 3.918 1.623a5.527 5.527 0 0 1 0 7.815 5.505 5.505 0 0 1-3.918 1.623 5.505 5.505 0 0 1-3.917-1.623 5.527 5.527 0 0 1 0-7.815zm3.917 12.312a8.42 8.42 0 0 0 5.967-2.465 8.395 8.395 0 0 0 0-11.89 8.4 8.4 0 0 0-5.967-2.465 8.42 8.42 0 0 0-5.966 2.465 8.395 8.395 0 0 0 0 11.89 8.42 8.42 0 0 0 5.966 2.465zM38.32 3.967a3.68 3.68 0 0 1 2.615-1.082 3.687 3.687 0 1 1 0 7.37 3.687 3.687 0 0 1-2.616-6.288zm2.603 9.162c1.76 0 3.411-.686 4.653-1.924a6.555 6.555 0 0 0 0-9.281A6.546 6.546 0 0 0 40.923 0c-1.76 0-3.41.685-4.652 1.924a6.555 6.555 0 0 0 0 9.281 6.516 6.516 0 0 0 4.652 1.924z"/></svg>