<svg xmlns="http://www.w3.org/2000/svg" width="18" height="21" viewBox="0 0 18 21"><path d="M15.006 19.01a.847.847 0 0 1-.848.817H3.844a.847.847 0 0 1-.849-.817L2.378 2.94h13.246zM7.062.98h3.878v.98H7.062zm4.857.98V.973A.974.974 0 0 0 10.947 0H7.054a.974.974 0 0 0-.972.973v.987H.49a.49.49 0 1 0 0 .98h.908l.619 16.108c.038.986.84 1.758 1.827 1.758h10.314c.986 0 1.789-.772 1.827-1.758l.619-16.108h.907a.49.49 0 0 0 0-.98z"/><path d="M6.02 7.379a.49.49 0 1 0-.98.018l.154 7.991a.49.49 0 0 0 .49.48h.009a.49.49 0 0 0 .48-.499zM9 6.898a.49.49 0 0 0-.49.49v7.99a.49.49 0 1 0 .98 0v-7.99a.49.49 0 0 0-.49-.49zM12.481 6.898a.49.49 0 0 0-.499.48l-.154 7.991a.49.49 0 1 0 .98.019l.153-7.99a.49.49 0 0 0-.48-.5z"/></svg>