<svg xmlns="http://www.w3.org/2000/svg" width="10" height="16" viewBox="0 0 10 16"><path d="M5 2.42c1.017 0 1.845.767 1.845 1.71 0 .942-.828 1.709-1.845 1.709s-1.844-.767-1.844-1.71c0-.942.827-1.71 1.844-1.71zm0 5.838c2.458 0 4.455-1.852 4.455-4.128C9.455 1.852 7.458 0 5 0S.544 1.852.544 4.13C.544 6.406 2.542 8.258 5 8.258zM6.802 11.626a8.686 8.686 0 0 0 2.588-.993c.61-.356.793-1.102.41-1.668-.385-.566-1.19-.736-1.8-.38-1.826 1.064-4.176 1.063-6 0-.61-.356-1.416-.186-1.799.38-.384.566-.202 1.312.409 1.668a8.7 8.7 0 0 0 2.587.993L.706 13.935a1.149 1.149 0 0 0 0 1.711c.255.236.59.354.923.354.334 0 .668-.118.924-.354L5 13.377l2.448 2.269a1.378 1.378 0 0 0 1.846 0c.51-.473.51-1.239 0-1.711z"/></svg>