<svg xmlns="http://www.w3.org/2000/svg" width="16" height="12" viewBox="0 0 16 12"><path d="M6.35 8.093V3.369l4.322 2.37zm9.49-5.542a3.757 3.757 0 0 0-.636-1.67 2.228 2.228 0 0 0-1.6-.712C11.363-.001 8-.001 8-.001S4.639 0 2.399.17a2.222 2.222 0 0 0-1.6.714 3.74 3.74 0 0 0-.636 1.67c-.1.9-.155 1.808-.163 2.716v1.276c.007.91.06 1.818.16 2.722.074.599.293 1.172.635 1.67a2.643 2.643 0 0 0 1.765.719c1.279.127 5.44.169 5.44.169s3.361-.005 5.601-.176a2.224 2.224 0 0 0 1.6-.714 3.75 3.75 0 0 0 .636-1.669c.1-.903.155-1.811.163-2.72V5.272a26.704 26.704 0 0 0-.16-2.72z"/></svg>