<svg xmlns="http://www.w3.org/2000/svg" width="36" height="28" viewBox="0 0 36 28"><path fill="gray" d="M32.995 26.169H9.675c-.71 0-1.289-.583-1.289-1.299V11.274c0-.68.522-1.24 1.183-1.293h18.903a.847.847 0 0 0 .094-.006h4.429c.71 0 1.288.583 1.288 1.299V24.87c0 .716-.578 1.299-1.288 1.299zM1.717 8.249V5.971h25.897v2.273H9.674a3.33 3.33 0 0 0-.173.005zm4.952 3.025v6.65H3.005c-.71 0-1.288-.582-1.288-1.298V9.981h5.24c-.184.392-.288.83-.288 1.293zM1.717 3.03c0-.716.578-1.298 1.288-1.298h23.32c.711 0 1.289.582 1.289 1.298v1.21H1.717zm27.614 5.214V3.03c0-1.67-1.348-3.03-3.005-3.03H3.006C1.347 0 0 1.36 0 3.03v13.596c0 1.671 1.348 3.03 3.005 3.03H6.67v5.214c0 1.67 1.348 3.03 3.005 3.03h23.32c1.658 0 3.006-1.36 3.006-3.03V11.274c0-1.67-1.348-3.03-3.005-3.03z"/><path fill="gray" d="M23.921 20.514a2.435 2.435 0 0 1-2.422-2.442 2.435 2.435 0 0 1 2.422-2.442 2.435 2.435 0 0 1 2.422 2.442 2.434 2.434 0 0 1-2.422 2.442zm-3.674-.524a2.393 2.393 0 0 1-1.5.524 2.435 2.435 0 0 1-2.422-2.442 2.435 2.435 0 0 1 2.423-2.442c.553 0 1.076.187 1.499.524a4.173 4.173 0 0 0-.465 1.918c0 .691.168 1.343.465 1.918zm3.673-6.09c-.977 0-1.875.343-2.584.916a4.09 4.09 0 0 0-2.589-.917c-2.283 0-4.14 1.873-4.14 4.174s1.857 4.174 4.14 4.174a4.09 4.09 0 0 0 2.59-.917 4.097 4.097 0 0 0 2.583.917c2.283 0 4.14-1.873 4.14-4.174S26.203 13.9 23.92 13.9z"/></svg>