<svg xmlns="http://www.w3.org/2000/svg" width="16" height="10" viewBox="0 0 16 10"><path d="M14.478 6.925c-.376-.523-.995-1.087-1.19-1.35-.275-.304-.193-.483.008-.801 0 0 2.111-3.092 2.317-4.105.069-.36-.082-.568-.447-.568h-1.829a.676.676 0 0 0-.7.465 17.293 17.293 0 0 1-2.194 3.568c-.388.446-.582.58-.793.58-.17 0-.253-.147-.253-.55V.639c0-.496-.053-.635-.447-.635H6.016a.326.326 0 0 0-.365.318c0 .464.682.568.682 1.826v2.597c0 .52-.029.727-.264.727-.626 0-2.122-2.249-2.958-4.8C2.946.15 2.764.003 2.287.003H.46A.44.44 0 0 0 0 .467c0 .509.57 2.86 2.822 6.005 1.505 2.12 3.493 3.263 5.28 3.263 1.089 0 1.353-.19 1.353-.666V7.446c0-.403.153-.58.376-.58.253 0 .696.085 1.728 1.148 1.23 1.214 1.31 1.728 1.982 1.728h2.053c.209 0 .405-.104.405-.465 0-.477-.599-1.332-1.522-2.352z"/></svg>