<svg xmlns="http://www.w3.org/2000/svg" width="49" height="30" viewBox="0 0 49 30"><path d="M48.961 28.393A1.635 1.635 0 0 1 47.321 30H1.64A1.635 1.635 0 0 1 0 28.393V1.607A1.635 1.635 0 0 1 1.64 0h45.72A1.635 1.635 0 0 1 49 1.607v26.786z" fill="#ededed"/><path d="M30.376 23.609h.429l.469-.038.429-.077.429-.077.429-.077.429-.115.39-.153.39-.153.39-.153.39-.191.39-.23.351-.19.351-.268.312-.23.312-.306.312-.268.312-.306.273-.306.234-.344.273-.306.2-.383.234-.344.2-.383.156-.383.156-.383.156-.383.117-.421.117-.421.078-.421.039-.421.039-.459v-.88l-.039-.421-.039-.459-.078-.421-.117-.383-.117-.421-.156-.421-.156-.383-.156-.383-.2-.344-.234-.383-.2-.344-.27-.344-.234-.306-.276-.306-.312-.306-.312-.306-.312-.268-.312-.23-.351-.266-.351-.191-.39-.23-.39-.191-.39-.153-.39-.153-.39-.153-.429-.115-.429-.077L31.7 6.5l-.429-.077-.469-.038h-.9l-.429.038-.469.077-.429.077-.429.077-.39.115-.429.153-.39.153-.39.153-.351.191-.39.23-.351.191-.351.268-.312.23-.312.268-.312.306-.312.306-.273.306-.234.306-.273.344-.2.344-.234.383-.2.344-.154.383-.156.383-.156.421-.117.421-.078.383-.078.421-.078.459-.039.421v.88l.039.459.078.421.078.421.078.421.117.421.156.383.156.383.156.383.2.383.234.344.2.383.273.306.234.344.273.306.312.306.312.268.312.306.312.23.351.268.351.191.39.23.351.191.39.153.39.153.429.153.39.115.429.077.429.077.469.077.429.038z" fill="gray"/><path d="M18.624 23.609h.429l.469-.038.429-.077.429-.077.429-.077.39-.115.429-.153.39-.153.39-.153.39-.191.351-.23.351-.191.351-.268.351-.23.312-.306.273-.268.312-.306.273-.306.273-.344.234-.306.234-.383.2-.344.2-.383.2-.383.156-.383.117-.383.117-.421.117-.421.08-.419.039-.421.039-.459v-.88l-.039-.421-.039-.459-.078-.421-.117-.383-.117-.421-.117-.421-.156-.383-.2-.383-.2-.344-.2-.383-.234-.344-.234-.344-.273-.306-.274-.308-.312-.306-.273-.306-.315-.268-.351-.23-.349-.268-.351-.191-.349-.23-.39-.191-.39-.153-.39-.153-.43-.153-.39-.115-.429-.077-.43-.078-.429-.077-.469-.038h-.9l-.429.038-.469.077-.429.077-.429.077-.39.115-.429.153-.39.153-.39.153-.39.191-.351.23-.357.194-.351.268-.349.231-.312.268-.312.306-.273.306-.273.306-.273.306-.234.344-.234.344-.234.383-.2.344-.156.383-.156.383-.156.421-.117.421-.078.383-.078.421-.078.459-.039.421v.88l.039.459.078.421.078.421.078.421.117.421.156.383.156.383.156.383.2.383.234.344.234.383.234.306.273.344.273.306.273.306.312.268.312.306.351.23.351.268.351.191.351.23.39.191.39.153.39.153.429.153.39.115.429.077.429.077.469.077.429.038z" fill="gray"/><path d="M23.465 9.681h4.646v-.459h-4.256zM22.763 10.714h5.349v-.459h-5.076zM22.255 11.788h5.857v-.5h-5.657zM21.865 12.821h6.247v-.5h-6.091zM22.1 17.831h6.052v-.459h-6.209zM22.528 18.864h5.622v-.459h-5.856zM23.153 19.9h5v-.459H22.88zM24.012 20.931h4.139v-.459h-4.529zM21.669 13.852h6.442v-.459h-6.364zM25.613 16.8h2.46v-.459h-2.382zM25.808 15.765h2.265v-.459h-2.187zM21.513 15.306h.625v.459h-.586z" fill="gray"/><path d="M20.3 14.732h-.04l-.039-.038h-.234l-.039-.038H19.6l-.078.038h-.2l-.039.038h-.039l-.039.038-.039.038v.038h-.039v.191l.039.038.039.038.039.038.078.077.078.038h.078l.117.038.078.038.117.038.078.038.078.038.117.077.039.077.078.077.039.115.039.115v.5l-.039.115-.078.115-.039.077-.078.077-.078.077-.078.077-.078.038-.117.077-.073.035h-.117l-.078.038h-.117l-.117.038h-.7l-.078-.038h-.273l-.039-.038h-.117l-.039-.038h-.035l-.078-.038.156-.612h.078l.078.038h.117l.039.038h.22l.078.038h.508l.078-.038.039-.038.039-.038.039-.038.039-.038v-.115l.039-.077-.039-.077-.039-.038-.074-.034-.117-.077-.078-.038-.117-.038-.117-.038-.117-.038-.117-.077-.117-.077-.078-.077-.078-.115-.039-.153-.039-.153v-.31l.039-.077.039-.115v-.077l.078-.115.039-.077.078-.077.078-.038.078-.077.078-.038.117-.038.117-.038h.117l.156-.042h.976l.039.038h.2v.038h.039l-.156.651z" fill="#fff"/><path d="M19.192 17.289l-.764-.012-.056-.026h-.291l-.039-.037h-.119l-.038-.038-.042-.012-.157-.076.2-.779.209.011.056.027h.137l.038.038.227.011.056.027h.458l.067-.045.084-.083.012-.118.014-.028-.02-.025-.062-.031-.2-.115-.363-.121-.235-.154-.094-.091-.106-.165-.082-.332.012-.359.066-.16V14.5l.149-.235.106-.1.062-.03.095-.085.078-.038.281-.087h.117l.131-.035h1.045l.039.038h.264v.038h.073l-.188.784-.106-.025v.113h-.086l-.039-.038h-.234l-.039-.038h-.279l-.1.038-.164.007-.031.031-.053.014v.1h-.039l.006.044.144.14.04.019.086.006.483.2.152.1.044.087.092.105.084.266-.006.532-.052.141-.13.208-.263.251-.078.038-.211.127h-.119l-.1.037h-.1zm-.692-.217h.658l.134-.038h.093l.1-.037h.091l.231-.134.209-.207.031-.061.076-.115.029-.084v-.461l-.064-.189-.08-.087-.027-.052-.236-.13-.1-.033-.092-.044-.087-.026-.109-.012-.105-.057-.228-.222v-.345l.072-.007.109-.107.047-.007.031-.031h.217l.1-.038h.4l.039.038h.193l.1-.4h-.01v-.038h-.136l-.039-.038h-.932l-.131.035h-.123l-.267.095-.095.085-.062.03-.052.053-.032.061-.066.1-.006.078-.072.184v.269l.07.274.067.1.065.061.2.131.429.154.284.2.063.125-.052.1v.136l-.217.2-.125.05-.555-.012-.056-.026h-.244l-.038-.039-.12-.011-.029-.014-.107.421h.033l.038.038h.116l.039.037.277.012zM21.006 13.354h.82l-.117.689h.511l-.117.651H21.6l-.317 1.606v.077l.039.038v.038l.039.038h.078l.039.038h.39l.039-.038h.039l-.117.536-.039.038h-.039v.035h-.121l-.039.038h-.781l-.078-.038-.078-.038h-.078l-.039-.038-.037-.034-.039-.038v-.115l-.041-.037v-.191l.039-.077.547-3.176z" fill="#fff"/><path d="M21.635 17.25l-.872-.012-.134-.063h-.1L20.351 17l-.006-.122-.033-.031.012-.285.031-.063.544-3.161.107.019v-.109h.948l-.117.689h.513l-.157.867h-.509l-.3 1.519.008.018.042.045h.044l.039.038.31-.007.031-.031h.217l-.152.7-.069.067v.062l-.193.007zm-.8-.217l.72-.007.031-.026h.057v-.037h.091l.07-.319h-.37L21.4 16.6h-.078l-.1-.1-.006-.045-.033-.032V16.3l.331-1.715h.507l.078-.435h-.51l.117-.689h-.6l-.542 3.118-.027.054.006.126.033.031.006.122.047.045.08.011z" fill="#fff"/><path d="M24.194 17.252h-1.041l-.181-.04-.179-.086-.1-.032-.17-.083-.128-.084-.134-.128-.169-.246-.092-.165-.09-.24v-.191l-.042-.189.042-.287V15.4l.039-.115.006-.132.135-.41.156-.23.385-.377.34-.163.437-.077h.5l.117.038h.133l.144.051.233.154.095.09.131.094.092.148.118.459v.257l-.079.475v.245h-1.941v.02l.122.214.1.106.029.056h.075l.058.056.04.02.222.011.056.027h.34l.1-.038h.053l.1-.038h.061l.321-.141.189-.093-.158.932-.1.094h-.062l-.106.045-.031.031h-.1zm-2.064-1.125l.144.316.149.218.1.1.1.064.145.071.1.032.17.083.133.028h.968l.1-.037.042-.007.031-.031h.058l.087-.038.074-.43-.046.022-.164.049h-.053l-.1.039h-.053l-.1.038-.437-.012-.056-.026-.222-.016-.114-.065h-.076l-.09-.1-.057-.087-.1-.1-.057-.087-.033-.031v-.058l-.039-.1v-.045h-.27l.216-.79h.21v-.097l.059-.057.019-.05v-.046l.3-.29.086-.007.031-.031h.1l.124-.06.062.06h.121l.039.038h.035l.259.252.006.047.033.032v.422h-1.08l-.067.356h1.674v-.044l.08-.48v-.209l-.109-.414-.055-.081-.1-.066-.094-.09-.2-.133-.087-.028h-.133l-.1-.033h-.452l-.4.072-.283.139-.332.328-.133.2-.113.357-.006.132-.033.1v.054l-.038.264.037.174zm.619-.431h.043l.068-.356h-.014zm.357-.573h.837L23.937 15l-.037-.03-.006-.045-.125-.122h-.034l-.039-.038h-.122l-.016-.015-.057.015-.042.007-.031.031-.086.007-.174.2zM29.946 14.234l-.039-.038h-.039l-.039-.038h-.078l-.039-.038h-.039l-.039-.038h-.117l-.078-.038h-.156L29.2 14h-.234l-.078.038h-.156l-.078.038-.078.038-.078.038-.117.038-.078.077-.078.077-.039.077-.078.115-.078.115-.078.153-.039.153-.039.191-.039.115v.383l.039.115v.077l.039.077.039.077.078.077.039.077.078.077.078.038.117.038.078.038.117.038h.163l.039.038h.273l.078-.038h.078l.078-.038h.078l.076-.037.078-.038.039-.038.078-.077-.156.8-.039.038-.039.038h-.039l-.039.038h-.039l-.044.039h-.078l-.078.038h-.9l-.117-.038-.156-.038-.117-.077-.156-.077-.117-.077-.117-.077-.117-.115-.078-.153-.078-.153-.078-.153-.078-.191-.035-.189v-.42l.039-.23.039-.115v-.115l.039-.115.039-.115.039-.115.039-.077.039-.115.039-.077.039-.115.039-.077.039-.077.078-.077.039-.077.078-.077.039-.038.079-.067.078-.077.039-.038.078-.038.078-.038.078-.077.078-.038h.078l.078-.038.117-.038.078-.038h.117l.078-.038h.2l.117-.038h.2l.117.038h.273l.078.038h.078l.039.038h.081l.078.038h.039l.039.038h.078l.039.038-.117.8z" fill="#fff"/><path d="M29.07 17.247l-.959-.006L28 17.2l-.183-.05-.117-.077-.144-.07-.245-.161-.154-.157-.235-.459-.081-.2-.041-.206v-.44l.041-.248.037-.114.006-.132.116-.345.045-.092.033-.1.045-.091.033-.1.105-.2.065-.064.053-.09.341-.317.14-.069.094-.084.125-.049h.053l.055-.027.243-.087h.092l.1-.038h.178l.134-.038.233.006.1.032.3.011.055.027h.1l.039.038.081.011.07.027h.044l.039.038h.078l.111.107-.126.855-.113-.017-.041.042v.03h-.083l-.039-.038h-.078l-.039-.038h-.039l-.039-.038-.121-.011-.055-.027-.181-.012-.058-.031h-.183l-.1.038h-.13l-.213.1-.107.036-.126.124-.03.061-.163.241-.07.142-.106.427v.349l.039.132v.051l.059.116.086.092.03.062.054.052.061.03.1.032.092.044.087.027h.19l.039.038h.2l.1-.038h.053l.1-.039h.066l.141-.081.08-.077.181.1-.162.834-.134.131-.048.007-.031.03-.055.012-.03.027h-.094zm-.908-.217h.858l.1-.038.051-.012.03-.027.045-.007.031-.03.046-.007.015-.014.1-.491-.112.042h-.053l-.1.038h-.053l-.1.038h-.32l-.039-.038-.152-.005-.432-.178-.1-.1-.032-.061-.086-.093-.089-.2v-.06l-.039-.132v-.418l.039-.115.077-.336.086-.175.214-.334.2-.181.384-.157h.13l.1-.038.284.012.059.031.177.011.055.027h.136l.039.038h.039l.039.038h.077l.08-.547h-.036l-.039-.038-.042-.011-.057-.027h-.1l-.039-.038-.082-.011-.055-.027-.281-.005-.1-.033h-.165l-.134.038h-.174l-.1.038h-.093l-.055.027-.242.087H28.1l-.04.019-.095.085-.165.085-.261.246-.051.09-.066.065-.069.138-.034.1-.044.091-.034.1-.045.091-.1.314-.006.132-.039.116-.035.212v.4l.032.17.294.6.105.1.217.141.145.071.112.073zM37.209 17.142h-.82l.078-.306V16.8l-.039.077-.078.038-.035.041-.039.038-.078.038-.039.038-.044.036-.078.038H36l-.078.038h-.156l-.078.038h-.117l-.156-.038-.117-.038-.158-.044-.117-.077-.078-.077-.117-.077-.078-.115-.078-.115-.039-.153-.039-.115-.039-.153-.039-.153v-.455l.039-.115.039-.191.078-.153.039-.151.078-.153.078-.115.078-.115.117-.115.078-.077.117-.115.117-.038.117-.077.078-.038.117-.077h.114l.156-.038h.2l.078.038h.156l.078.038.039.038.078.038h.039l.039.038.039.038.039.038.039.038.039.038.039.038v.038l.039.038.2-1.148h.82l-.7 3.788z" fill="#fff"/><path d="M35.711 17.326h-.142l-.489-.133-.116-.076-.095-.09-.131-.093-.171-.265-.16-.6.006-.494.039-.115.046-.205.078-.152.03-.132.087-.175.163-.241.368-.349.1-.034.326-.2h.15l.131-.035h.251l.078.038.176.011.188.1h.044l.164.159.174-1h1.044l-.724 3.915-.117-.021v.116h-.959l.036-.143-.052.039-.051.042-.263.1h-.131zM35.183 17l.412.11h.064l.105-.039h.136l.2-.087.059-.05.089-.057.063-.061.045-.022.022-.045.205.049v.038l-.049.2h.6l.661-3.577h-.6l-.218 1.26-.219-.213-.006-.044-.164-.159-.042-.011-.174-.1-.177-.011-.056-.027h-.175l-.131.035h-.109l-.312.187-.093.03-.293.289-.142.214-.072.141-.031.131-.08.161-.072.289v.428l.147.542.134.2.1.065.095.09z" fill="#fff"/><path d="M35.881 16.454h.156l.078-.038.078-.038.039-.038.078-.038.039-.038.078-.077.039-.038.039-.077.039-.038.039-.077v-.077l.039-.077.039-.077v-.153l.039-.115v-.077l-.039-.077v-.153l-.039-.038v-.077l-.039-.077-.039-.038-.039-.038-.039-.038-.039-.038-.078-.038h-.039l-.078-.038-.078.038h-.078l-.039.038h-.078l-.078.038-.039.077-.039.038-.078.04-.039.077-.034.078-.039.038-.039.077-.039.077v.115l-.039.077v.077l-.039.115.039.153v.15l.039.115.078.115.078.115.078.077z" fill="gray"/><path d="M17.687 16.531l-.117.612h-.742v-.115l.039-.077V16.8l-.039.077-.039.038-.039.038-.078.038-.079.039-.078.038-.078.038-.078.038h-.078l-.078.038h-.078l-.117.038h-.234l-.074-.04h-.117l-.078-.038-.078-.038-.078-.038-.078-.077-.078-.038-.039-.038-.039-.077-.039-.038v-.077l-.039-.077-.04-.039v-.5l.039-.115.039-.077.039-.115.078-.077.039-.077.078-.077.078-.077.078-.038.078-.077.117-.038.078-.038.117-.038.078-.038h.267l.039-.038h.352l.039-.038h.078l.078.038h.273v-.038l.039-.038v-.191l-.039-.038-.038-.075-.039-.038-.039-.038h-.078l-.078-.038h-.7l-.117.038h-.159l-.078.038h-.078l-.078.038h-.037l-.039.038h-.039l.2-.689.078-.038h.078l.078-.038h.039l.078-.038h.234l.078-.04h.664l.117.038h.156l.117.038.078.038.078.038.078.038.117.077.078.038.039.077.078.077.039.115.039.077V15l-.312 1.531z" fill="#fff"/><path fill="#fff" d="M16.025 17.326l-.298-.012-.056-.026-.139-.012-.262-.132-.066-.066-.09-.05-.06-.066-.057-.087-.033-.031v-.098l-.045-.062-.034-.033.006-.581.143-.349.066-.065.052-.09.183-.172.062-.031.108-.091.424-.158.237-.007.031-.031.361-.007.031-.03.167.011.057.026.179-.013-.027-.134-.064-.092-.081-.011-.056-.027h-.658l-.134.038h-.134l-.103.038h-.053l-.138.076h-.226l.254-.873.168-.07h.053l.22-.076h.209l.103-.038.697.005.101.033.173.006.364.157.228.131.048.093.091.107.084.227v.344l-.314 1.553-.212-.043.312-1.531-.002-.297-.027-.054-.037-.105-.08-.087-.022-.045-.046-.022-.351-.191-.086-.027-.173-.005-.101-.033h-.622l-.103.038h-.209l-.22.076-.066.006-.125.432.03-.003h.053l.103-.038h.142l.134-.038.747.011.056.027h.097l.13.134.056.085.033.032v.283l-.039.038v.1l-.427-.011-.067-.026-.039.037-.359.007-.031.031h-.292l-.056.026-.301.113-.089.079-.062.03-.131.129-.051.09-.06.058-.103.267.006.442.023.031.05.125.027.066.045.074.091.051.065.065.196.094.139.012.056.026h.192l.134-.038h.053l.103-.038h.053l.406-.222.031-.062.204.049-.012.202-.017.034h.534l.101-.523.212.041-.134.699h-.939l-.001-.165-.36.164h-.053l-.103.038h-.061l-.117.038z"/><path d="M16.984 15.765v-.038h-.117l-.039-.039h-.078l-.039.038h-.234l-.039.038h-.078l-.039.038h-.078l-.039.038h-.039l-.039.038-.039.038-.039.038h-.039l-.039.038v.038l-.039.038v.077l-.04.043v.077l.039.077.039.077.039.038.039.038h.044l.039.038h.156l.078-.038h.117l.078-.038.039-.038h.078l.039-.038.039-.038.039-.038v-.038l.039-.038h.039v-.077l.039-.038v-.077l.039-.115v-.077l.039-.077z" fill="gray"/><path d="M11.44 17.142h-.781l.664-3.788h1.406l.117 2.258.976-2.258h1.445l-.667 3.788h-.82l.508-2.832h-.039l-1.171 2.832h-.937v-.421l-.039-.459-.039-.5-.039-.536v-.459l-.039-.306v-.153h-.039l-.508 2.832z" fill="#fff"/><path d="M14.694 17.25h-1.04l.384-2.139-.885 2.139h-1.117v-.529l-.117-1.633-.372 2.071-.107-.019v.11h-.909l.7-4h1.6l.1 1.9.821-1.9H15.4zm-.782-.217h.6l.627-3.571h-1.246l-.948 2.193-.207-.037-.112-2.156h-1.212l-.626 3.571h.562l.509-2.833h.241v.261l.038.292v.473l.116 1.486v.321h.757L14.18 14.2h.24zM32.406 16.531l-.117.612h-.742v-.306l-.039.038-.039.038-.078.038-.039.038-.078.038-.078.038-.039.038-.078.038H31l-.117.038h-.078l-.078.038h-.234l-.078-.038H30.3l-.078-.038-.078-.038-.078-.038-.078-.077-.078-.038-.039-.038-.039-.077-.039-.038v-.077l-.039-.077v-.038l-.039-.077v-.306l.039-.115V16l.039-.077.039-.115.078-.077.039-.077.078-.077.073-.077.078-.038.078-.077.117-.038.078-.038.117-.038.078-.038h.234l.078-.038h.312l.039-.038h.117l.078.038h.273v-.075l.039-.077V15l-.039-.077v-.038l-.039-.08-.039-.038-.078-.038h-.039l-.078-.038h-.7l-.117.038h-.159l-.078.038h-.078l-.078.038h-.039l-.039.038h-.039l.2-.689.078-.038h.078l.075-.034h.039l.078-.038h.234l.078-.038h.664l.078.038h.2l.078.038.117.038.078.038.078.038.078.077.078.038.078.077.078.077.039.115v.077l.039.115V15l-.312 1.531z" fill="#fff"/><path d="M32.289 17.181l.117-.651h-.039l-.117.612h.039v.038z" fill="#fff"/><path d="M31.508 17.143l.039.038h.742v-.038h-.781v.038h.039z" fill="#fff"/><path d="M31.547 16.836V16.8l-.039.077v.268h.039v-.306z" fill="#fff"/><path d="M30.415 17.219h.39l.117-.038H31l.078-.038.078-.038.078-.038h.081l.039-.077.078-.038.039-.038.039-.038.039-.038V16.8l-.039.077-.078.038-.039.038-.039.038-.078.038-.078.038h-.083l-.039.038-.076.036h-.117l-.078.038h-.388v.04zM29.673 16.339v.038l.039.077v.153l.039.038v.077l.039.077.039.038.039.077.039.038.078.077.039.038.078.038.117.038.078.038.117.038v-.038l-.117-.038-.078-.038-.078-.038-.078-.038-.078-.038-.039-.038-.039-.077-.034-.037-.039-.077-.039-.038-.039-.077v-.191l-.039-.077v-.04z" fill="#fff"/><path d="M30.766 15.229h-.117l-.117.038-.078.038-.117.038-.078.038-.078.038-.081.081-.078.077-.078.077-.074.079-.039.077-.039.115-.036.075-.039.115v.115l-.044.111h.039l.039-.115v-.115l.039-.115.039-.077.039-.115.039-.077.078-.077.039-.077.078-.038.078-.077.117-.038.078-.077.078-.038h.12l.078-.038.117-.038z" fill="#fff"/><path d="M31.353 15.153h-.234l-.078.038h-.274v.038h.273l.078-.038h.234v-.038z" fill="#fff"/><path d="M31.781 15.191v-.038h-.429v.038zM31.782 15v.191l.039-.038V15zM31.43 14.693l.078.038h.078l.039.038.039.038.039.038.039.038.039.038V15h.039v-.077l-.039-.038-.039-.077-.039-.038-.039-.038-.078-.038h-.078l-.078-.037zM30.181 14.846v.038l.039-.038h.039l.039-.038h.083l.078-.038h.156l.078-.038h.188l.119-.038h.429l-.078-.038h-.268l-.083.038h-.312l-.078.038h-.156l-.078.038H30.3l-.039.038h-.039l-.039.038z" fill="#fff"/><path d="M30.381 14.12v.038l-.2.689h.039l.2-.689-.039-.038z" fill="#fff"/><path d="M31.7 14.005h-.82l-.078.038h-.152l-.039.038h-.078l-.078.038h-.079l.039.038h.039l.078-.038.078-.038h.117l.078-.038h.9v-.038z" fill="#fff"/><path d="M32.719 15v-.344l-.039-.115-.039-.077-.078-.077-.039-.077-.078-.077-.117-.038-.078-.038-.078-.038-.117-.038-.078-.038-.074-.038h-.2v.038h.156l.117.038.078.038h.078l.117.077.078.038.078.038.078.077.078.077.039.077.039.077.039.077.039.115v.115l-.039.077.039.038z" fill="#fff"/><path d="M32.406 16.53l.312-1.53-.039-.038-.312 1.569z" fill="#fff"/><path d="M31.664 15.765v-.038h-.039l-.039-.039h-.156l-.039.038h-.2l-.039.038h-.113L31 15.8h-.039l-.039.038h-.039l-.039.038h-.039l-.039.038-.039.038-.039.038v.038l-.039.038v.344l.039.038.078.038h.039l.039.038H31l.078-.038h.078l.078-.038h.039l.078-.038.039-.038.039-.038h.039l.039-.038.039-.038.039-.038v-.034l.039-.038V16l.039-.077v-.155z" fill="gray"/><path d="M37.794 16.76v-.153l.039-.077.078-.038.039-.038.078-.038.078-.038h.156l.078.038.078.038.078.038.039.038.039.077.039.077v.077h-.078v-.038l-.039-.077-.039-.038-.039-.077-.039-.038-.039-.038h-.273l-.073.037-.039.038-.039.077-.039.038v.115z" fill="#fff"/><path d="M38.068 16.76v-.153h.273v.152h-.073l.039-.038v-.076h-.2v.115z" fill="#fff"/><path d="M37.794 16.76v.191l.039.077.078.038.039.038.078.038.078.038h.156l.078-.038.078-.038.078-.038.039-.038.039-.077.039-.077v-.114h-.078v.077l-.039.077-.039.038-.039.077-.039.038-.039.038h-.273l-.073-.039-.039-.038-.039-.077-.039-.038v-.153z" fill="#fff"/><path d="M38.068 16.76v.191h.039V16.8h.078l.117.153h.039l-.078-.153h.037l.039-.038z" fill="#fff"/><path d="M38.4 17.292l-.342-.011-.269-.13-.169-.334.063-.062.011-.083.134-.263.314-.141.2.011.267.13.146.312-.012.2-.134.263zm-.233-.217h.014V17l-.024-.047h-.054v.067l.03-.015zM32.6 17.143h.859l.273-1.645.039-.038v-.077l.039-.077v-.038l.039-.077.039-.077.039-.038.041-.076.078-.038.039-.038.078-.038.078-.038.078-.038.078-.038h.312l.117-.765-.078.038h-.156l-.078.038h-.039l-.078.038-.039.038-.078.038-.039.038-.039.038-.078.038-.039.038-.039.077-.039.038-.039.038-.039.077.078-.536h-.82l-.586 3.1z" fill="#fff"/><path d="M33.553 17.251H32.6v-.109l-.108-.021.6-3.187h1.035l-.04.272.074-.049.067-.058.359-.163h.131l.241-.118-.159 1.061h-.379l-.375.2-.166.328v.1l-.047.045zm-.823-.217h.639l.265-1.589.031-.031.012-.079.211-.417.509-.255h.219l.078-.511h-.077l-.3.159-.067.058-.076.044-.052.089-.065.064-.031.061-.2-.065.06-.412h-.606zM24.754 17.143h.859l.273-1.645.039-.038v-.155l.039-.038.036-.077v-.038l.039-.038.039-.077.081-.037.039-.038.078-.038.039-.038h.117l.078-.038h.117l.078-.038h.039v.038h.078v-.119l.039-.038v-.077l.039-.114v-.077l.039-.077.039-.038.039-.077v-.038l.039-.038.039-.077.039-.038h-.08l-.039-.04h-.039l-.078.038h-.156l-.078.038h-.078l-.039.038-.078.038-.039.038-.039.038-.078.038-.039.038-.039.038-.039.038-.039.077-.039.038-.039.077.078-.536h-.82l-.586 3.1z" fill="#fff"/><path d="M25.705 17.251h-.951v-.114l-.109-.022.6-3.187h1.035l-.037.253.021-.012.088-.056.068-.058.12-.087h.1l.1-.038h.131l.1-.038h.083l.039.038h.036l.075.185-.026.026-.174.306-.004.086-.033.1v.1l-.039.038v.182h-.4l-.1.038-.109.027-.162.1-.128.233v.155l-.047.045zm-.825-.217h.641l.264-1.589.031-.031v-.155l.06-.058.019-.049v-.046l.059-.056.046-.094.239-.148.031-.031h.135l.1-.038h.095l.112-.038v-.018l.039-.038.006-.067.033-.1.012-.108.1-.181-.01-.045h-.13l-.1.038-.07.027-.089.056-.067.058-.087.055-.067.065-.108.176-.2-.065.059-.412h-.605z" fill="#fff"/><path d="M37.794 20.2v-.076l.039-.077.078-.038.039-.038.078-.038.078-.039h.156l.078.038.078.038.078.038.039.038.039.077.039.077h-.078l-.039-.038-.039-.077-.039-.038-.039-.038-.039-.038h-.078l-.078-.038-.039.038h-.078l-.073.038-.039.038-.039.038-.039.077v.038z" fill="gray"/><path d="M38.068 20.2v-.077h.273v.077H38.3v-.038h-.2v.038zM37.794 20.281V20.2h.078v.077zM38.068 20.281V20.2h.039v.077h.161v-.038h.039V20.2h.039v.076h-.278zM38.536 20.281V20.2h.078v.077z" fill="gray"/><path d="M37.794 20.28v.153l.039.077.078.077.039.038.078.038.078.038h.156l.078-.038.078-.038.078-.038.039-.077.039-.077.039-.077v-.076h-.078v.077l-.039.077-.039.038-.039.038-.039.077h-.039l-.078.038h-.117l-.078-.038h-.073l-.039-.077-.039-.038-.039-.038v-.154z" fill="gray"/><path d="M38.068 20.28v.153h.039v-.115h.078l.117.115h.039l-.078-.115.039-.038z" fill="gray"/><path d="M24.871 14.962l-.039-.191-.039-.153-.078-.115-.078-.115-.077-.115-.078-.077-.117-.038-.117-.038-.117-.038-.117-.038-.117-.038h-.469l-.2.038-.2.038-.2.077-.156.077-.117.115-.117.115-.078.115-.117.115-.078.115-.039.115-.039.115-.039.115v.8l.039.191.039.153.078.153.078.115.117.115.117.115.117.077.117.077.156.038.156.038.156.038.156.038h1.186l.039-.038.039-.038.117-.727-.156.038-.078.038-.078.038-.117.038H23.27l-.078-.038-.039-.038-.039-.038-.039-.038-.039-.038-.036-.038-.039-.038-.039-.038-.039-.077-.039-.038v-.153h1.913v-.191l.039-.23.039-.23zm-.82.268H22.96v-.191l.04-.077.039-.038.039-.038.039-.038.039-.038.039-.038.039-.038.039-.038.039-.038.039-.038h.31l.039.038.039.038.039.038.039.038.039.038.039.038.039.038.039.038v.23z" fill="#fff"/></svg>