<svg xmlns="http://www.w3.org/2000/svg" width="16" height="16" viewBox="0 0 16 16"><path d="M7.995 10.122c1.17 0 2.121-.949 2.123-2.12A2.125 2.125 0 0 0 7.996 5.88a2.124 2.124 0 0 0-2.12 2.121 2.124 2.124 0 0 0 2.12 2.122zm3.35-6.307zm-3.35.948a3.24 3.24 0 0 1 3.24 3.239 3.241 3.241 0 0 1-3.24 3.237A3.24 3.24 0 0 1 4.76 8a3.24 3.24 0 0 1 3.237-3.237zm0 8.429a25.04 25.04 0 0 0 2.57-.055 3.449 3.449 0 0 0 1.172-.224c.274-.095.524-.25.731-.453.178-.219.326-.46.442-.718a3.48 3.48 0 0 0 .22-1.173c.064-.854.084-1.711.058-2.568a24.74 24.74 0 0 0-.057-2.567 3.47 3.47 0 0 0-.221-1.172 1.954 1.954 0 0 0-.448-.725 3.122 3.122 0 0 0-.726-.447 3.477 3.477 0 0 0-1.171-.223 25.505 25.505 0 0 0-2.57-.057 25.728 25.728 0 0 0-2.566.057c-.4.006-.797.08-1.172.223a1.95 1.95 0 0 0-.727.447c-.2.205-.352.453-.445.725-.141.374-.217.77-.224 1.172-.056.67-.056.849-.056 2.567 0 1.72 0 1.898.056 2.568.007.401.083.798.224 1.173.096.278.254.531.464.738.216.175.454.32.708.433a3.42 3.42 0 0 0 1.172.223 24.96 24.96 0 0 0 2.567.057zm0-11.5a25.965 25.965 0 0 1 2.565.056 3.65 3.65 0 0 1 1.507.278c.414.169.792.414 1.114.725.31.32.557.699.724 1.114.174.483.269.993.278 1.506.057.67.057.894.057 2.624s0 1.953-.057 2.623a3.626 3.626 0 0 1-.278 1.508 3.47 3.47 0 0 1-.724 1.113c-.322.311-.7.557-1.114.725a4.78 4.78 0 0 1-1.507.279c-.67.056-.891.056-2.623.056-1.733 0-1.956 0-2.624-.056a3.655 3.655 0 0 1-2.62-1.004 3.407 3.407 0 0 1-.725-1.113 4.704 4.704 0 0 1-.279-1.508c-.055-.67-.055-.89-.055-2.623 0-1.732 0-1.954.055-2.624a4.73 4.73 0 0 1 .335-1.506c.168-.415.414-.793.725-1.114a3.486 3.486 0 0 1 1.118-.725 4.752 4.752 0 0 1 1.506-.278c.67-.055.894-.055 2.623-.055zm3.299 14.25a7.736 7.736 0 0 0 1.942-.352 3.152 3.152 0 0 0 1.412-.942 4.26 4.26 0 0 0 .94-1.411 5.75 5.75 0 0 0 .353-1.942C16 10.472 16 10.191 16 8.001s0-2.471-.06-3.294a7.653 7.653 0 0 0-.351-1.942 3.155 3.155 0 0 0-.941-1.41 4.273 4.273 0 0 0-1.412-.943A5.706 5.706 0 0 0 11.294.06C10.41 0 10.19 0 8 0S5.53 0 4.705.06a5.207 5.207 0 0 0-1.942.352 3.721 3.721 0 0 0-1.41.942A3.7 3.7 0 0 0 .41 2.765a5.245 5.245 0 0 0-.35 1.942C-.001 5.53-.001 5.81-.001 8s0 2.47.06 3.294c.033.66.151 1.312.351 1.942a3.16 3.16 0 0 0 .942 1.411c.403.405.883.725 1.411.942a6.81 6.81 0 0 0 1.942.353C5.529 16 5.81 16 8 16c2.188 0 2.469 0 3.294-.057z"/></svg>