<svg xmlns="http://www.w3.org/2000/svg" width="20" height="12" viewBox="0 0 20 12"><path fill="gray" d="M16.76 7.492a10.347 10.347 0 0 1-1.987 1.47 9.786 9.786 0 0 1-2.276.938 9.582 9.582 0 0 1-4.994 0 9.782 9.782 0 0 1-2.276-.938 10.35 10.35 0 0 1-1.986-1.47A11.05 11.05 0 0 1 1.922 6c.397-.54.839-1.04 1.319-1.492a10.361 10.361 0 0 1 1.986-1.47 9.73 9.73 0 0 1 1.88-.822 4.272 4.272 0 0 0-1.232 3.015c0 2.336 1.847 4.23 4.125 4.23s4.125-1.894 4.125-4.23c0-1.18-.472-2.248-1.231-3.015.649.205 1.28.48 1.879.821.71.404 1.379.898 1.986 1.47.48.453.923.953 1.319 1.493-.396.539-.839 1.04-1.319 1.492zM10 1.77c.901 0 1.749.36 2.386 1.014.638.654.989 1.523.989 2.448a3.48 3.48 0 0 1-.989 2.447 3.311 3.311 0 0 1-4.773 0 3.484 3.484 0 0 1-.988-2.447c0-.925.351-1.794.988-2.448A3.313 3.313 0 0 1 10 1.769zM10 1C6.293 1 3.011 2.972 1 6c2.011 3.028 5.293 5 9 5s6.989-1.972 9-5c-2.011-3.028-5.293-5-9-5z"/><path fill="none" stroke="gray" stroke-miterlimit="50" stroke-width=".3" d="M16.76 7.492a10.347 10.347 0 0 1-1.987 1.47 9.786 9.786 0 0 1-2.276.938 9.582 9.582 0 0 1-4.994 0 9.782 9.782 0 0 1-2.276-.938 10.35 10.35 0 0 1-1.986-1.47A11.05 11.05 0 0 1 1.922 6c.397-.54.839-1.04 1.319-1.492a10.361 10.361 0 0 1 1.986-1.47 9.73 9.73 0 0 1 1.88-.822 4.272 4.272 0 0 0-1.232 3.015c0 2.336 1.847 4.23 4.125 4.23s4.125-1.894 4.125-4.23c0-1.18-.472-2.248-1.231-3.015.649.205 1.28.48 1.879.821.71.404 1.379.898 1.986 1.47.48.453.923.953 1.319 1.493-.396.539-.839 1.04-1.319 1.492zM10 1.77c.901 0 1.749.36 2.386 1.014.638.654.989 1.523.989 2.448a3.48 3.48 0 0 1-.989 2.447 3.311 3.311 0 0 1-4.773 0 3.484 3.484 0 0 1-.988-2.447c0-.925.351-1.794.988-2.448A3.313 3.313 0 0 1 10 1.769zM10 1C6.293 1 3.011 2.972 1 6c2.011 3.028 5.293 5 9 5s6.989-1.972 9-5c-2.011-3.028-5.293-5-9-5z"/></svg>