<svg xmlns="http://www.w3.org/2000/svg" width="14" height="12" viewBox="0 0 14 12"><path d="M4.408 12c2.153.034 4.231-.856 5.767-2.476 1.536-1.62 2.4-3.833 2.401-6.142 0-.131 0-.263-.008-.392A6.032 6.032 0 0 0 14 1.422a5.485 5.485 0 0 1-1.649.477 3.02 3.02 0 0 0 1.26-1.676 5.562 5.562 0 0 1-1.824.735c-.897-1-2.303-1.246-3.45-.6-1.14.635-1.735 2.019-1.443 3.36C4.594 3.603 2.446 2.454.976.555c-.763 1.385-.37 3.17.889 4.044a2.73 2.73 0 0 1-1.302-.38v.038c.008 1.453.972 2.696 2.302 2.97a2.722 2.722 0 0 1-1.296.052c.385 1.242 1.462 2.086 2.683 2.104a5.572 5.572 0 0 1-3.569 1.3c-.228 0-.456-.015-.683-.044a7.82 7.82 0 0 0 4.4 1.36"/></svg>