<svg xmlns="http://www.w3.org/2000/svg" width="49" height="30" viewBox="0 0 49 30"><path d="M48.961 28.393A1.635 1.635 0 0 1 47.321 30H1.64A1.635 1.635 0 0 1 0 28.393V1.607A1.635 1.635 0 0 1 1.64 0h45.72A1.635 1.635 0 0 1 49 1.607v26.786z" fill="#ededed"/><path d="M30.3 23.609h.469l.469-.038.429-.077.429-.077.429-.077.429-.115.39-.153.39-.153.39-.153.39-.191.351-.23.39-.191.312-.268.351-.23.312-.268.312-.306.273-.306.273-.306.273-.344.234-.306.234-.383.234-.344.2-.383.156-.383.156-.383.156-.383.117-.421.078-.421L39 16.3l.078-.421.039-.459v-.88l-.039-.421-.078-.461-.078-.421-.078-.383-.117-.421-.156-.421-.156-.383-.156-.383-.2-.344-.234-.383-.234-.344-.234-.344-.273-.306-.273-.306-.273-.306-.312-.306-.312-.268-.351-.23-.312-.268-.39-.23-.351-.191-.39-.191-.39-.153-.39-.153-.39-.153-.429-.115-.429-.115-.429-.077-.429-.038-.469-.038h-.9l-.469.038-.429.038-.429.077-.429.115-.429.115-.39.153-.39.153-.39.153-.39.191-.351.191-.39.23-.312.268-.351.23-.312.268-.312.306-.273.306-.273.306-.273.306-.234.344-.234.344-.234.383-.16.348-.2.383-.156.383-.156.421-.117.421-.078.383-.078.421-.039.459-.039.421-.037.458.039.421.039.459.039.421.078.421.078.421.117.421.156.383.156.383.2.383.156.383.234.344.234.383.234.306.273.344.273.306.273.306.312.306.312.268.351.23.312.268.39.191.351.23.39.191.39.153.39.153.39.153.429.115.429.077.429.077.429.077.469.038z" fill="gray"/><path d="M18.663 23.609h.429l.469-.038.429-.077.429-.077.429-.077.429-.115.39-.153.429-.153.39-.153.351-.191.39-.23.351-.191.351-.268.312-.23.312-.268.312-.306.312-.306.273-.306.234-.344.273-.306.2-.383.234-.344.2-.383.156-.383.156-.383.156-.383.117-.421.078-.421.078-.421.078-.421.039-.459v-.88l-.039-.421-.078-.459-.078-.421-.078-.383-.117-.421-.156-.421-.156-.383-.156-.383-.2-.344-.234-.383-.2-.344-.273-.344-.234-.306-.273-.306-.312-.306-.312-.306-.312-.268-.312-.23-.351-.268-.351-.23-.39-.191-.351-.191-.39-.153-.429-.153-.39-.153-.429-.115-.429-.115-.429-.077-.429-.038-.469-.038h-.9l-.429.038-.429.038-.469.077-.429.115-.39.115-.429.153-.39.153-.39.153-.39.191-.351.191-.351.23-.351.268-.351.23-.312.268-.312.306-.273.306-.273.306-.273.306-.234.344-.234.344-.2.383-.2.344-.2.383-.156.383-.156.421-.117.421-.078.383-.078.421-.039.459-.039.421L9.83 15l.039.421.039.459.039.421.078.421.078.421.117.421.156.383.156.383.2.383.2.383.2.344.234.383.234.306.273.344.273.306.273.306.312.306.312.268.351.23.351.268.351.191.351.23.39.191.39.153.39.153.429.153.39.115.429.077.469.077.429.077.429.038z" fill="gray"/><path d="M23.387 9.683h4.49v-.5h-4.061zM22.684 10.676h5.193v-.459h-4.842zM22.177 11.709h5.7v-.459h-5.466zM21.825 12.745h6.052v-.5h-5.9zM21.63 13.778h6.247v-.5h-6.169zM21.552 15.727h6.325v-.459h-6.364zM21.708 16.839h6.169v-.5H21.63zM22.02 17.678h5.857v-.459h-6.013zM22.45 18.75h5.427v-.459h-5.661zM23.075 19.821h4.8v-.459h-5.112zM23.894 20.854h3.9V20.4h-4.329zM37.677 20.28l.039-.077.039-.077.039-.077.078-.038.078-.038.078-.038h.156l.078.038.078.038.039.038.078.077.039.077v.077h-.078v-.08l-.041-.037-.039-.038-.039-.077h-.078l-.078-.038h-.117l-.078.038h-.039l-.078.077-.039.038v.037l-.039.077z" fill="gray"/><path d="M37.95 20.281v-.115h.234l.039.038h.039v.076h-.078v-.038l-.039-.038h-.117v.077zM37.677 20.357v-.077h.078v.077z" fill="gray"/><path d="M37.95 20.357v-.077h.078v.038h.156v-.038h.078v.076zM38.419 20.357v-.077h.081l.039.077z" fill="gray"/><path d="M37.677 20.357v.077l.039.077.039.077.039.077.078.038.078.038.078.038h.156l.078-.038.078-.038.039-.038.078-.077.039-.077v-.077l.039-.077h-.117v.153l-.039.038-.039.077-.039.038-.078.038h-.273l-.039-.038-.078-.038-.039-.077v-.038l-.039-.077v-.076z" fill="gray"/><path d="M37.95 20.357v.153h.078v-.11h.078l.078.115h.078l-.117-.115.039-.038z" fill="gray"/><path d="M28.424 14.272h-.075l-.039-.038h-.234l-.039-.038h-.82l-.078.038h-.078l-.039.038-.078.038-.039.038-.039.038-.039.038-.039.038v.038l-.039.039v.077l.039.038v.077l.039.038.039.038.078.077.117.077.117.038.117.038.117.038.156.077.117.038.156.038.117.077.117.077.078.115.117.115.039.153.078.191v.459l-.039.191-.078.191-.039.153-.117.115-.078.115-.117.115-.117.077-.117.077-.117.077-.156.038-.156.038-.121.037-.156.038h-1.366l-.078-.038h-.156L25.3 17.6h-.078l-.078-.038h-.078l-.078-.038-.039-.038.156-.88h.043l.039.038h.078l.078.038h.078l.078.038h.2l.078.038h.234l.117.038h.508l.117-.038.078-.038.078-.038.039-.038.039-.077.039-.038.039-.077v-.038l.039-.077v-.077l-.039-.038v-.038l-.039-.038-.039-.038-.078-.038-.039-.038-.077-.032-.039-.038-.078-.038h-.087l-.078-.038-.078-.038-.078-.038-.078-.038-.078-.038-.078-.038-.078-.038-.078-.038-.078-.038-.078-.077-.078-.038-.039-.077-.078-.077-.039-.077-.039-.077-.039-.115-.039-.077V14.5l.039-.077v-.153l.039-.077v-.077l.039-.077.039-.039.039-.077v-.038l.039-.077.039-.038.078-.077.039-.038.039-.038.039-.038.074-.034.039-.038.078-.038.078-.038.078-.038h.078l.078-.038.078-.038h.2l.078-.038h.234l.117-.038h.664l.117.038h.351l.039.038h.234l.039.038h.039z" fill="#fff"/><path d="M25.613 17.784l-.047-.011-.055-.027-.179-.011-.056-.027-.1-.011-.057-.026-.1-.011-.108-.058-.079-.078.183-1.024h.175l.039.037.081.011.056.027.1.011.055.027.223.011.056.027h.242l.1.033h.474l.241-.109.143-.269-.039-.038-.006-.042-.027-.028-.275-.172-.109-.01-.73-.363-.067-.064-.094-.047-.047-.093-.085-.093-.081-.156-.089-.241.011-.508.028-.055.011-.175.028-.055.011-.1.177-.336.262-.249.4-.2h.053l.181-.077h.176l.1-.038h.218l.133-.037h.7l.1.032h.379l.038.038h.234l.039.039h.129l-.231 1.062-.1-.023v.106h-.119l-.039-.038h-.234l-.039-.038h-.752l-.1.038-.07.028-.089.056-.084.082v.037l-.033.033.033.031.006.084.118.115.086.056.339.11.171.083.284.082.264.183.078.116.124.12.047.181.081.218v.459l-.041.213-.084.21-.041.168-.139.136-.064.1-.131.131-.4.26-.59.15zm.025-.215h1.341l.545-.142.335-.222.1-.1.064-.1.11-.109.03-.125.083-.206.033-.171v-.416l-.07-.172-.036-.138-.1-.095L28 15.46l-.2-.132-.263-.073-.171-.083-.366-.121-.116-.078-.2-.2-.006-.082-.033-.032V14.5l.039-.039v-.039l.216-.2.087-.055.032-.032h.1l.1-.038h.864l.039.038h.225l.153-.7h-.232l-.038-.038h-.34l-.1-.032h-.631l-.133.037h-.21l-.1.038h-.176l-.18.076h-.06l-.34.2-.182.178-.136.269-.012.1-.03.037-.011.175-.028.055v.408l.028.055.109.252.086.093.024.046.072.042.065.064.664.324.11.01.34.21.111.107.007.045.032.032-.012.171-.177.335-.067.057-.156.076-.164.049h-.541l-.1-.033-.264-.011-.055-.027-.223-.011-.05-.034-.1-.011-.056-.027h-.054l-.123.692.025.012.1.011.057.026.1.011.055.027.179.011zM29.361 12.359h1.171l-.2.995h.7l-.156.918-.7-.038-.39 2.258v.191l.039.038h.039v.038h.036l.039.038h.2l.039.038h.156l.078-.038h.117l.039-.038h.078l-.117.765h-.039v.035h-.078l-.035.042H30.3l-.039.038h-.117l-.039.038h-.9l-.117-.038-.117-.038-.078-.038-.078-.038-.078-.038-.078-.038-.039-.077-.039-.077v-.5z" fill="#fff"/><path d="M30.151 17.784h-.977l-.592-.249-.106-.235v-.5l.783-4.458.1.018v-.1h1.3l-.2 1h.7l-.193 1.138-.7-.039-.374 2.165v.1h.078l.014.076h.2l.039.039h.087l.1-.039.081-.007.031-.031h.247l-.149.981h-.02v.034h-.139l-.032.038-.092.008-.031.03-.124.008zm-.927-.215l.847-.007.032-.031.124-.008.031-.03h.075l.032-.038h.021v-.034h.053l.08-.513h-.08l-.1.038h-.2L30.1 16.9h-.2l-.039-.038h-.1l-.011-.062-.071-.07v-.236l.407-2.37.7.037.119-.7h-.7l.2-1h-.947l-.766 4.347v.457l.05.1.279.136zM22.294 15.8v.306l.039.077.039.077.039.038.039.077.078.077.039.077.078.038.078.077.078.038.078.038.078.038h.2l.117.038h.742l.117-.038.117-.038.117-.038.117-.038.117-.038.117-.077.117-.077-.156 1.033-.078.038h-.078l-.039.038-.078.038h-.078l-.039.038h-.156l-.078.038h-1.136l-.117-.038h-.118l-.078-.038h-.117l-.117-.038-.078-.038-.117-.038-.078-.038-.117-.038-.078-.038-.078-.077-.117-.077-.078-.038-.078-.077-.078-.077-.039-.115-.078-.077-.039-.115-.078-.077-.041-.111-.039-.115-.039-.153v-.114L21.084 16v-.617l.039-.077v-.196l.039-.077v-.077l.039-.077.039-.115v-.077l.039-.077.039-.077.039-.115.039-.077.078-.077.039-.115.039-.077.078-.072.078-.077.078-.077.078-.077.078-.077.117-.077.078-.038.117-.077.117-.038.117-.077.117-.038.156-.038h.156l.156-.038h.664l.078.038h.156l.078.038.117.038.078.038h.078l.078.038.078.077.078.038.039.038.078.077.078.077.039.038.078.115.039.077.039.077.039.115.039.077.039.115v.115l.039.153v.433l-.039.153v.147l-.036.2-.039.23h-3l.156-.765h1.8l.039-.115v-.191l-.039-.077v-.082L23.9 14.5l-.039-.077-.039-.038-.078-.077-.039-.038-.039-.038h-.083l-.078-.038h-.039l-.083-.037h-.156l-.078.038h-.078l-.078.038h-.078l-.039.038-.078.038-.039.077-.078.038-.039.077-.039.038-.039.077-.039.077-.039.077v.077l-.039.115z" fill="#fff"/><path d="M24.08 17.786l-1.194-.005-.1-.033-.148-.011-.056-.027-.125-.005-.117-.037-.092-.044-.1-.032-.092-.044-.1-.032-.121-.065-.078-.077-.194-.114-.183-.2-.031-.09-.086-.1-.031-.091-.085-.1-.12-.392v-.124l-.05-.163.011-.666.028-.054.011-.213.028-.054.011-.1.067-.161.011-.108.078-.155.033-.1.066-.119.059-.058.031-.092.066-.12.389-.385.355-.217.1-.034.131-.081.281-.078h.181l.131-.035h.714l.078.038.178.011.078.037.173.066.1.01.107.058.065.065.09.05.234.229.092.132.085.166.129.356v.115l.035.127v.459l-.041.18v.12l-.093.537H22.4v.169l.137.23.086.093.022.045.075.043.065.065.2.094h.208l.1.033H24l.555-.179.423-.28-.2 1.329-.176.073-.071.027-.124.048-.042.008-.031.03h-.175zm-1.144-.215h1.094l.1-.038.12-.008.031-.03h.1l.066-.045.031-.03h.1l.111-.738-.059.034-.618.194h-.775l-.1-.033-.23-.011-.263-.133-.065-.065-.1-.046-.047-.093-.086-.093-.167-.318v-.2h-.335l.2-.979h.293l.034-.105.012-.108.212-.379.077-.038.039-.077.153-.1h.1l.1-.038h.053l.1-.037.2.009.182.065h.1l.247.25.089.2v.056l.039.1v.226l-.064.187h-1.5l-.1.55h2.49l.061-.342v-.127l.039-.179v-.407l-.035-.127v-.122l-.185-.432-.1-.123-.182-.181-.092-.05-.065-.065-.04-.02-.1-.01-.078-.038-.172-.065-.179-.011-.056-.027h-.639l-.131.035h-.181l-.226.066-.131.081-.1.034-.3.184-.361.359-.031.061-.06.144-.065.064-.031.061-.033.1-.072.144-.006.087-.072.182-.012.1-.028.054-.011.214-.028.053v.578l.04.167v.114l.1.324.085.1.032.09.086.1.031.091.125.123.062.03.129.084.081.078.063.03.1.033.092.044.1.032.178.07.148.011.056.027h.126zm-.82-1.871h.084l.1-.55h-.076zm.455-.764h1.292l.009-.025v-.148l-.039-.1V14.6l-.085-.14-.125-.124-.086-.01-.176-.064h-.109l-.1.037H23.1l-.1.038-.07.028-.046.022-.039.077-.077.038-.168.291-.006.086z" fill="#fff"/><path d="M20.693 16.8l-.156.88h-1.054v-.08l.039-.077v-.153l.039-.038v-.115l-.039.038-.078.077-.078.077-.078.038-.078.077-.117.038-.117.038-.117.038-.114.039-.117.038-.117.038h-.586l-.156-.038-.124-.038-.117-.077-.117-.038-.078-.077-.078-.077-.078-.077-.078-.077-.039-.115-.039-.077-.039-.077v-.108l-.037-.08v-.42l.039-.153.039-.153.039-.115.078-.153.078-.115.078-.111.078-.115.117-.077.117-.077.117-.077.117-.077.158-.037.117-.038.156-.038.115-.041h.157l.078-.038h.277l.078-.038h.859l.039-.077v-.272l-.039-.038V14.5l-.039-.038-.039-.038v-.038l-.039-.038h-.039l-.039-.038-.039-.038h-.078l-.078-.038H18.7l-.117.038h-.273l-.117.038h-.117l-.117.038h-.078l-.117.038-.039.038h-.081l-.039.038.273-.957.122-.036.078-.038.078-.038.117-.038h.117l.078-.038h.351l.117-.038h.781l.117.038h.156l.117.038.117.038.156.038.117.077.117.077.117.077.117.077.078.115.078.077.078.153.039.115.039.153v.153l-.039.153z" fill="#fff"/><path d="M18.528 17.861h-.6l-.339-.093-.1-.07-.146-.058-.343-.351-.122-.3V16.9l-.038-.1v-.42l.123-.455.084-.168.271-.382.5-.322.572-.155h.132l.1-.039h.249l.1-.037h.791l-.007-.2-.032-.032-.007-.044-.164-.16-.081-.01-.056-.028h-.7l-.134.038h-.256l-.134.038h-.1l-.134.039H17.9l-.1.045-.031.03-.089.008-.289.282.4-1.4.477-.174h.092l.1-.039h.34l.134-.038.814.006.1.032.172.006.416.126.5.337.078.115.085.089.078.153.045.13.041.161v.179l-.041.18-.428 2.13-.172.969h-1.247l.012-.233.022-.043-.058.028-.108.091zm-.837-.282l.259.07h.544l.658-.215.089-.079.062-.031.365-.358v.415l-.039.038-.01.154h.828l.14-.79.468-2.3v-.127l-.072-.233-.07-.123-.067-.065-.078-.114-.435-.286-.364-.107h-.172l-.1-.033h-.747l-.134.038h-.326l-.1.038h-.1l-.319.129-.2.682.11-.03h.061l.134-.038h.1l.134-.038h.256l.134-.039.789.011.056.028h.1l.078.076h.039l.1.1.007.044.071.07.007.044.032.032-.011.365-.069.137H19l-.1.037h-.248l-.1.038h-.14l-.519.145-.435.286-.222.323-.071.142-.109.4v.37l.037.1v.083l.067.13.036.105.276.273.119.042z" fill="#fff"/><path d="M19.717 15.727l-.039-.038h-.039l-.039-.038h-.273l-.078.038h-.2l-.039.038h-.156l-.039.038h-.039l-.039.038H18.7l-.078.038-.039.038-.039.038-.078.038-.039.038-.039.038-.039.038-.039.077-.039.038-.039.077v.306l.039.077.039.077.078.038.078.038h.39l.078-.038h.117l.078-.038.078-.038.078-.038.039-.038.078-.038.039-.077.039-.038.039-.038v-.038l.039-.038.039-.077v-.077l.039-.077v-.153l.039-.038v-.153z" fill="gray"/><path d="M11.986 17.678h-1.132l.937-5.319h1.991l.156 3.176 1.367-3.176h2.03l-.935 5.319h-1.134l.7-3.98h-.039l-1.673 3.98h-1.292v-.153l-.039-.459-.039-.612-.039-.727-.039-.727-.039-.651v-.459l-.039-.191h-.039z" fill="#fff"/><path d="M16.488 17.785h-1.35l.585-3.323-1.4 3.323h-1.469v-.26l-.078-1.064-.11-2.009L12.1 17.7l-.109-.019v.107h-1.26l.975-5.534h2.184l.137 2.815 1.212-2.815h2.229zm-1.094-.215h.914l.9-5.1h-1.832l-1.339 3.112-.206-.038-.151-3.074h-1.8l-.9 5.1h.92l.7-3.978h.217l.057.277v.48l.194 3.221h1.114l1.672-3.979h.239zM30.845 17.678h1.171l.429-2.3v-.153l.039-.115.039-.077.039-.077.039-.077.039-.077.039-.077.078-.038.078-.077.079-.032.117-.038.117-.038.117-.038.156-.038h.273v.038-.038l.039-.038v-.077l.039-.115v-.077l.039-.119.039-.115.039-.115.039-.077.039-.077.039-.077.039-.077.039-.038.039-.077v-.038h-.117l-.039-.038h-.039l-.117.038H33.7l-.117.038H33.5l-.078.038-.117.038-.078.038-.078.077-.039.038-.078.077-.078.038-.039.077-.078.077-.039.077-.078.078-.039.077.117-.727h-1.172z" fill="#fff"/><path d="M32.1 17.785h-1.384l.023-.127.8-4.412h1.388l-.064.4.015-.029.095-.046.21-.2.078-.038.242-.086h.062l.133-.038h.1l.173-.039h.044l.039.039h.18l-.011.193-.235.423-.1.314-.006.094-.033.1v.1l-.072.069-.038-.039h-.037v.069h-.273l-.529.168-.092.082-.046.022-.205.436v.136zm-1.13-.215h.953l.413-2.212v-.151l.045-.132.217-.431.094-.046.1-.088.436-.148.165-.041.23-.01.006-.035.033-.1.005-.093.117-.346.165-.328-.023-.023-.118.032h-.1l-.134.038h-.054l-.055.028-.179.067-.211.2-.046.022-.043.073-.065.065-.048.089-.065.065-.032.061-.2-.065.1-.6h-.956z" fill="#fff"/><path d="M35.921 13.278l.156.038h.351l.117.038.117.038.117.038.117.038.078.038.117.038.078.038.078.077.117.038.078.077.078.038.039.077.078.077.078.077.039.077.078.115.039.077.039.077.039.115.039.077.039.115.039.115v.077L38.1 15v.612l-.039.153v.11l-.039.153-.039.115-.039.115-.039.115-.039.115-.039.115-.039.077-.078.115-.039.077-.078.115-.078.077-.078.077-.078.077-.078.038-.078.077-.078.077-.117.038-.078.038-.117.077-.078.038-.117.038-.078.038h-.117l-.117.038h-.117l-.117.038h-.7l-.117-.038h-.121l-.078-.038h-.117l-.117-.038-.078-.038-.117-.038-.078-.077-.078-.038-.117-.038-.078-.077-.078-.077-.078-.038-.039-.077-.078-.077-.078-.077-.039-.077-.078-.115-.039-.077-.039-.115-.039-.077-.039-.115-.039-.115v-.115l-.039-.115v-.115l-.039-.115v-.261l.039-.153v-.112l.039-.153v-.119l.039-.115.039-.115.039-.115.038-.115.039-.077.039-.115.078-.077.039-.115.078-.077.078-.077.078-.077.078-.077.078-.077.078-.077.078-.038.078-.077.117-.038.078-.038.117-.077.117-.038.078-.038h.117l.117-.038.117-.038h.355z" fill="#fff"/><path d="M36.094 17.863h-.75l-.1-.033-.151-.011-.056-.027h-.125l-.354-.139-.066-.065-.062-.03-.145-.059-.143-.141-.095-.046-.047-.104-.164-.169-.039-.077-.117-.193-.167-.47v-.1l-.039-.132v-.1l-.039-.133v-.261l.042-.18v-.1l.039-.152.006-.14.258-.694.06-.06.058-.133.5-.482.062-.03.108-.09.181-.071.131-.082.228-.081h.1l.251-.076h.334l.1-.033.035.109.026-.108.157.038h.341l.8.3.061.059.134.056.067.065.094.046.046.094.165.17.039.077.156.269.168.47v.06l.039.132v.639l-.036.139v.1l-.24.763-.045.09-.2.32-.276.266-.062.031-.186.168-.182.07-.1.07-.092.044-.241.087h-.1l-.133.038h-.1zm-.7-.215h.667l.133-.038h.1l.134-.038h.093l.055-.027.2-.075.1-.071.091-.045.106-.035.167-.157.063-.03.22-.218.214-.356.226-.706v-.1L38 15.6v-.581l-.039-.133v-.059l-.223-.546-.109-.176-.164-.169-.024-.045-.072-.042-.06-.059-.135-.056-.066-.065-.062-.03-.1-.033-.091-.044-.438-.141h-.334l-.16-.036-.116.032h-.334l-.251.077h-.093l-.055.026-.116.04-.2.114-.107.035-.088.08-.062.03-.437.431-.064.136-.06.059-.218.611v.128l-.036.139v.1l-.042.179v.216l.04.134v.1l.039.132v.1l.183.469.109.176.164.169.022.045.074.043.139.135.212.095.059.059.093.029.18.071.146.011.056.027h.13z" fill="#fff"/><path d="M37.677 17.487h.312v.038h-.112v.268H37.8v-.268h-.122z" fill="#fff"/><path fill="#fff" d="M37.984 17.9h-.293v-.267h-.122v-.253h.528v.253h-.113v.267z"/><path d="M38.029 17.487h.117l.117.23.117-.23h.12v.306h-.078v-.23l-.117.23h-.073l-.117-.23v.23h-.083z" fill="#fff"/><path fill="#fff" d="M38.263 17.954l-.043-.054h-.298v-.52h.291l.05.1.051-.1h.29v.52h-.314l-.027.054z"/><path d="M35.022 15.383l-.039.153v.421l.039.077v.115l.039.077.039.115.078.038.039.077.078.038.039.038.078.038.078.038h.39l.078-.038h.078l.078-.077.078-.038.078-.038.078-.077.039-.077.078-.115.039-.077.039-.115.078-.115v-.153l.039-.153.039-.153v-.536l-.039-.115-.039-.077v-.077l-.078-.077-.039-.077-.078-.038-.039-.038-.078-.038-.078-.038H35.8l-.078.038-.117.038-.078.077-.078.038-.078.077-.078.077-.039.115-.039.077-.078.077L35.1 15v.073l-.039.115-.039.077z" fill="gray"/></svg>