<svg xmlns="http://www.w3.org/2000/svg" width="28" height="26" viewBox="0 0 28 26"><path d="M3.889 1.96h4.815V5.8H3.889zM1.48 4.36h1.445v1.92c0 .265.215.48.481.48h5.778a.48.48 0 0 0 .482-.48V4.36h16.852a.48.48 0 1 0 0-.96H9.667V1.48A.48.48 0 0 0 9.185 1H3.407a.48.48 0 0 0-.481.48V3.4H1.48a.48.48 0 1 0 0 .96z"/><path fill="none" stroke="#292929" stroke-miterlimit="50" stroke-width=".5" d="M3.889 1.96h4.815V5.8H3.889zM1.48 4.36h1.445v1.92c0 .265.215.48.481.48h5.778a.48.48 0 0 0 .482-.48V4.36h16.852a.48.48 0 1 0 0-.96H9.667V1.48A.48.48 0 0 0 9.185 1H3.407a.48.48 0 0 0-.481.48V3.4H1.48a.48.48 0 1 0 0 .96z"/><path d="M16.407 14.92h-4.814v-3.84h4.814zm10.112-2.4H17.37V10.6a.48.48 0 0 0-.481-.48H11.11a.48.48 0 0 0-.481.48v1.92H1.48a.48.48 0 1 0 0 .96h9.149v1.92c0 .265.215.48.481.48h5.778a.48.48 0 0 0 .481-.48v-1.92h9.149a.48.48 0 1 0 0-.96z"/><path fill="none" stroke="#292929" stroke-miterlimit="50" stroke-width=".5" d="M16.407 14.92h-4.814v-3.84h4.814zm10.112-2.4H17.37V10.6a.48.48 0 0 0-.481-.48H11.11a.48.48 0 0 0-.481.48v1.92H1.48a.48.48 0 1 0 0 .96h9.149v1.92c0 .265.215.48.481.48h5.778a.48.48 0 0 0 .481-.48v-1.92h9.149a.48.48 0 1 0 0-.96z"/><path d="M24.111 24.04h-4.815V20.2h4.815zm2.408-2.4h-1.445v-1.92a.48.48 0 0 0-.481-.48h-5.778a.48.48 0 0 0-.482.48v1.92H1.481a.48.48 0 1 0 0 .96h16.852v1.92c0 .265.216.48.482.48h5.778a.48.48 0 0 0 .481-.48V22.6h1.445a.48.48 0 1 0 0-.96z"/><path fill="none" stroke="#292929" stroke-miterlimit="50" stroke-width=".5" d="M24.111 24.04h-4.815V20.2h4.815zm2.408-2.4h-1.445v-1.92a.48.48 0 0 0-.481-.48h-5.778a.48.48 0 0 0-.482.48v1.92H1.481a.48.48 0 1 0 0 .96h16.852v1.92c0 .265.216.48.482.48h5.778a.48.48 0 0 0 .481-.48V22.6h1.445a.48.48 0 1 0 0-.96z"/></svg>