<svg xmlns="http://www.w3.org/2000/svg" width="723" height="688" viewBox="0 0 723 688"><path fill="#54402c" d="M307.851-102.762c-5.528-18.112-4.107-47.788-2.378-64.18 1.062-10.047 1.702-19.235 2.852-29.343.745-6.555 1.483-24.342 7.897-26.87 5.3 12.128-.579 34.021.21 48.21 1.528 27.238 16.19 48.183 35.592 63.215 8.24 6.38 25.737 17.129 35.775 22.051l18.972 8.362c47.894 21.43 115.663 48.36 133.37 106.406 7.494 24.57 6.292 55.756 3.704 77.597-.782 6.66-2.151 10.609-2.642 17.233-.983 13.33-.386 22.903-11.513 29.818-24.587 15.277-48.28 33.704-66.601 54.624-7.89 9.012-12.741 16.84-18.603 25.965-3.309 5.16-9.89 16.374-9.074 21.876.544 3.677 1.536 7.415 3.361 10.644 5.362 1.518 20.92 2.685 27.123 2.843 98.648 2.545 182.888-38.557 238.749-118.628 1.834-2.624 3.194-4.783 4.897-7.722 7.642-13.18 14.575-24.991 20.884-39.172 7.283-16.365 21.191-56.782 16.391-72.498-7.58-24.851-31.527-51.422-48.007-63.654-37.6-27.878-99.525-46.647-123.552-62.969l-14.645-9.977c-43.497-34.336-44.427-66.277-41.092-119.699.657-10.547 1.666-19.92 2.885-29.29.668-5.143 1.133-9.487 2.116-14.085 1.124-5.23.71-10.45 6.002-11.995 5.888 15.19-4.756 44.348 2.589 68.444 11.802 38.777 51.947 55.608 82.177 71.13 5.063 2.589 10.547 4.643 16.093 7.318 5.327 2.572 10.714 4.537 16.067 7.354 3.712 1.957 4.993 1.281 8.565 3.317 4.15 2.378 2.957 1.974 7.695 3.677l15.725 7.985c10.336 6.01 19.243 11.715 29.546 19.533 54.342 41.277 61.292 97.902 43.18 160.8-13.285 46.122-30.764 78.537-60.336 113.259-19.92 23.377-44.498 43.076-71.182 58.608-46.92 27.308-98.983 39.241-152.816 37.688-8.082-.237-17.2-1.904-24.35-1.834 8.783 23.333 54.43 47.903 69.208 54.668 12.399 5.686 27.22 11.46 39.583 17.533l38.627 19.34c19.305 10.406 57.634 41.461 63.023 65.303 7.616 33.713 7.212 69.98 4.132 100.026-7.485 72.998-41.725 143.847-93.27 195.497-22.156 22.2-47.778 42.128-75.894 57.432-27.86 15.18-45.655 21.103-74.902 30.018-42.278 12.9-90.6 12.39-132.256 7.135-37.267-4.704-75.543-18.857-108.67-36.557C43.094 714.212-24.174 566.02 7.95 421.48c4.264-19.182 10.915-36.96 17.812-55.282l19.217-37.978c2.203-3.677 4.976-8.353 7.038-12.11 3.879-7.046 11.285-17.233 16.427-23.63 12.82-15.97 23.877-28.053 39.575-42.971 24.947-23.701 73-55.326 113.364-67.646 18.664-5.713 29.843-8.793 48.885-13.022 12.592 12.715 18.857 20.428 33.38 32.967 11.003 9.504 24.42 18.805 36.513 25.86 14.03 8.178 67.803 34.45 83.844 31.704-.272-7.538 3.423-33.24 5.616-40.443 5.853-19.245 2.905-14.655 12.1-36.233 3.159-7.405 7.67-15.452 12.47-21.603 6.475-8.302 4.975-8.59 15.847-20.508 3.378-3.711 5.845-6.265 9.407-9.45 3.22-2.87 5.01-5.564 9.354-8.784l20.998-17.006c7.232-6.01 15.383-10.95 23.535-16.163C500.584-5.308 383.675-7.159 332.657-59.835c-13.232-13.672-19.102-24.22-24.806-42.928zm-41.426 282.009C174.928 199.263 114.03 247.06 71.717 303.86 35.73 352.166 7.292 423.7 9.336 500.006c2.825 105.405 54.36 197.647 133.537 253.702l21.297 14.338c6.94 3.361 6.01 3.694 11.074 6.362l34.17 16.015c7.493 3.43 15.68 6.15 23.586 8.748 32.82 10.81 72.315 16.084 107.055 15.101 64.46-1.824 125.35-23.534 177.798-60.634 72.91-51.589 117.163-131.116 130.062-217.91 1.368-9.212 2.097-18.031 2.474-27.579 1.159-29.598-40.961-67.128-67.461-81.756l-39.97-19.366c-2.308-1-3.124-1.105-5.616-2.43-3.282-1.73-8.275-3.967-11.67-5.213-15.322-5.625-42.489-19.656-56.239-28.957-13.294-8.986-27.316-21.464-36.206-39.092-12.723-25.228-8.266-41.647-10.345-62.136-4.853.009-7.66-1.71-11.811-2.668-23.29-5.343-33.433-10.512-53.852-19.19-6.344-2.703-14.312-6.546-19.884-10.495-5.959-4.23-12.513-7.424-19.06-12.092-14.364-10.223-22.297-16.348-35.494-29.107-3.273-3.167-13.276-14.47-16.356-16.4z" opacity=".05"/></svg>