<svg xmlns="http://www.w3.org/2000/svg" style="border: 0 !important; clip: rect(0 0 0 0) !important; height: 1px !important; margin: -1px !important; overflow: hidden !important; padding: 0 !important; position: absolute !important; width: 1px !important;" class="root-svg-symbols-element">
    <symbol id="arrow-left-bg" viewBox="0 0 294 325">
      <path fill="#e43437" d="M140.734 190.906v-57.668H294v57.668z" opacity=".1"/><path fill="#e43437" d="M213.752 0L75.432 162.074 220.522 325h-76.236L0 162.074 137.553 0z" opacity=".1"/>
    </symbol>
    <symbol id="arrow-left-simple" viewBox="0 0 10 14">
      <path d="M7.757 0L1 7l6.757 7L9 12.712 4.364 7.91 3.498 7l.866-.91L9 1.287z"/><path fill="none" d="M7.757 0v0L1 7v0l6.757 7v0L9 12.712v0L4.364 7.91v0L3.498 7v0l.866-.91v0L9 1.287v0z"/>
    </symbol>
    <symbol id="arrow-right-big" viewBox="0 0 54 40">
      <path d="M34.79 0L54 20 34.79 40l-3.534-3.679 13.179-13.72H0v-5.202h44.435L31.256 3.679z"/>
    </symbol>
    <symbol id="arrow-right-small" viewBox="0 0 19 14">
      <path d="M12.24 0L19 7l-6.76 7-1.243-1.288 4.637-4.802H0V6.09h15.634l-4.637-4.803z"/>
    </symbol>
    <symbol id="arrow-right-small_white" viewBox="0 0 22 16">
      <path fill="#fff" d="M14.173 0L22 8l-7.827 8-1.44-1.472 5.37-5.488H0V6.96h18.103l-5.37-5.489z"/>
    </symbol>
    <symbol id="close" viewBox="0 0 12 12">
      <path d="M6.06 3.714L9.13.644l2.09 2.09-3.07 3.07 3.266 3.265-2.338 2.338-3.266-3.266-3.078 3.078L.644 9.13l3.078-3.078-3.13-3.13L2.932.584z"/>
    </symbol>
    <symbol id="document" viewBox="0 0 44 44">
      <path d="M7.441 44v-3.255h28.47V44z"/><path d="M26.8 14.54h-9.976c-.894 0-1.618.729-1.618 1.628 0 .899.724 1.628 1.618 1.628h9.975c.894 0 1.618-.73 1.618-1.628 0-.9-.724-1.628-1.618-1.628z"/><path d="M34.348 22.136H16.824c-.894 0-1.618.728-1.618 1.627 0 .9.724 1.628 1.618 1.628h17.524c.894 0 1.618-.729 1.618-1.628 0-.899-.724-1.627-1.618-1.627z"/><path d="M40.765 36.242c0 2.482-2.008 4.503-4.476 4.503-2.467 0-4.475-2.02-4.475-4.503v-3.96c0-.9-.724-1.628-1.618-1.628H10.353V5.294l2.919 2.6a1.61 1.61 0 0 0 2.15-.007l4.529-4.075 4.53 4.075a1.61 1.61 0 0 0 2.156 0l4.53-4.076 4.53 4.076a1.61 1.61 0 0 0 2.15.006l2.918-2.598zM43.047.198a1.612 1.612 0 0 0-1.737.265l-4.53 4.032-4.535-4.08a1.61 1.61 0 0 0-2.157 0l-4.53 4.075-4.53-4.075a1.61 1.61 0 0 0-2.155 0l-4.536 4.08L9.807.463A1.613 1.613 0 0 0 8.071.198c-.58.263-.953.844-.953 1.484v28.972h-5.5C.724 30.654 0 31.382 0 32.28v3.96C0 40.52 3.46 44 7.71 44v-3.255c-2.467 0-4.475-2.02-4.475-4.503v-2.333h25.343v2.333c0 4.278 3.46 7.758 7.711 7.758C40.541 44 44 40.52 44 36.242V1.682c0-.64-.373-1.22-.953-1.484z"/>
    </symbol>
    <symbol id="download" viewBox="0 0 50 50">
      <path d="M50 46.094H0V50h50zm-12.744-21.66L26.953 34.739V0h-3.906v34.738L12.744 24.435l-2.762 2.762L25 42.215l15.018-15.018z"/>
    </symbol>
    <symbol id="facebook" viewBox="0 0 9 18">
      <path d="M7.357 2.989H9V.127A21.217 21.217 0 0 0 6.607 0c-2.37 0-3.992 1.49-3.992 4.229v2.52H0v3.2h2.615v8.05H5.82v-8.05h2.509l.398-3.199H5.819V4.546c.001-.925.25-1.558 1.538-1.558z"/>
    </symbol>
    <symbol id="goal" viewBox="0 0 56 56">
      <path d="M46.236 6.563l-1.842 2.96a1.64 1.64 0 0 0 0 1.734l1.842 2.962H35.518V6.563zM33.876 26.59l5.88 8.378-1.92 1.788-2.841-2.646a1.64 1.64 0 0 0-2.237 0l-2.84 2.646-1.92-1.788zM12.253 51.695c-.22.314-.369.663-.443 1.024H3.805l12.972-17.993 3.741 5.189zm3.29 1.024l10.553-15.04L28.8 40.2a1.64 1.64 0 0 0 2.236 0l2.84-2.646 2.841 2.646a1.636 1.636 0 0 0 2.237 0l2.704-2.52 10.554 15.04zm39.96-1.024L36.115 24.068a2.726 2.726 0 0 0-.598-.616V17.5H49.19a1.64 1.64 0 0 0 1.393-2.507L47.72 10.39l2.863-4.602A1.64 1.64 0 0 0 49.19 3.28H35.517v-1.64a1.64 1.64 0 0 0-3.28 0v21.811c-.228.17-.431.377-.598.616L22.513 37.07l-3.518-4.88a2.741 2.741 0 0 0-2.218-1.134c-.876 0-1.705.424-2.218 1.135L.52 51.666a2.723 2.723 0 0 0-.217 2.845A2.723 2.723 0 0 0 2.736 56h50.528a2.726 2.726 0 0 0 2.426-1.473c.472-.909.4-1.994-.188-2.832z"/>
    </symbol>
    <symbol id="graphic" viewBox="0 0 58 52">
      <path d="M45.133 6.563a1.79 1.79 0 0 0-2.55-.114l-12.231 11.33-7.81-6.854a1.788 1.788 0 0 0-2.364 0L6.7 22.744a1.843 1.843 0 0 0-.183 2.578 1.787 1.787 0 0 0 2.546.185l12.295-10.783 7.843 6.883a1.789 1.789 0 0 0 2.4-.033L45.02 9.145a1.845 1.845 0 0 0 .113-2.582z"/><path d="M47.01 8.402l-3.427-3.47 4.253-.81zM51.4.54a1.794 1.794 0 0 0-1.615-.508L39.557 1.98a1.814 1.814 0 0 0-1.391 1.256 1.845 1.845 0 0 0 .448 1.832l8.243 8.347a1.794 1.794 0 0 0 1.803.455 1.82 1.82 0 0 0 1.245-1.398L51.89 2.177A1.843 1.843 0 0 0 51.4.54z"/><path d="M56.195 48.13H1.805C.808 48.13 0 48.947 0 49.956c0 1.01.808 1.828 1.805 1.828h54.39c.998 0 1.805-.818 1.805-1.828 0-1.01-.808-1.828-1.805-1.828z"/><path d="M29 35.152c-.997 0-1.805.819-1.805 1.828v12.977c0 1.01.808 1.828 1.805 1.828.997 0 1.805-.819 1.805-1.828V36.98c0-1.01-.808-1.828-1.805-1.828z"/><path d="M21.78 24.186c-.997 0-1.805.818-1.805 1.828v23.943c0 1.01.808 1.828 1.805 1.828.997 0 1.805-.818 1.805-1.828V26.014c0-1.01-.808-1.828-1.805-1.828z"/><path d="M36.22 30.278c-.997 0-1.805.818-1.805 1.828v17.85c0 1.01.808 1.829 1.805 1.829.997 0 1.805-.819 1.805-1.828V32.106c0-1.01-.808-1.828-1.805-1.828z"/><path d="M43.44 17.484c-.997 0-1.805.819-1.805 1.828v30.645c0 1.01.808 1.828 1.805 1.828.997 0 1.804-.819 1.804-1.828V19.312c0-1.01-.807-1.828-1.804-1.828z"/><path d="M50.66 24.186c-.998 0-1.805.818-1.805 1.828v23.943c0 1.01.807 1.828 1.805 1.828.997 0 1.805-.818 1.805-1.828V26.014c0-1.01-.808-1.828-1.805-1.828z"/><path d="M14.56 40.026c-.997 0-1.805.819-1.805 1.828v8.103c0 1.01.808 1.828 1.805 1.828.997 0 1.805-.818 1.805-1.828v-8.103c0-1.01-.808-1.828-1.805-1.828z"/><path d="M7.34 34.543c-.997 0-1.805.819-1.805 1.828v13.586c0 1.01.808 1.828 1.805 1.828.997 0 1.805-.818 1.805-1.828V36.371c0-1.01-.808-1.828-1.805-1.828z"/>
    </symbol>
    <symbol id="headphones" viewBox="0 0 56 56">
      <path d="M10.938 42.766H8.75a4.38 4.38 0 0 1-4.375-4.375v-7.438a4.38 4.38 0 0 1 4.375-4.375h2.188zM8.803 22.203C9.533 12.25 17.863 4.375 28 4.375c8.02 0 15.279 5.052 18.06 12.571a2.188 2.188 0 0 0 4.104-1.517 23.567 23.567 0 0 0-8.518-11.091A23.473 23.473 0 0 0 28 0a23.47 23.47 0 0 0-16.705 6.92 23.465 23.465 0 0 0-6.917 16.459A8.753 8.753 0 0 0 0 30.953v7.438c0 4.824 3.925 8.75 8.75 8.75h4.375c1.208 0 2.187-.98 2.187-2.188V24.391c0-1.209-.979-2.188-2.187-2.188z"/><path d="M51.625 38.39a4.38 4.38 0 0 1-4.375 4.376h-2.188V26.578h2.188a4.38 4.38 0 0 1 4.375 4.375zM47.25 22.204h-4.375c-1.208 0-2.188.98-2.188 2.188V47.25a2.19 2.19 0 0 1-2.187 2.188h-6.672v.069a4.375 4.375 0 1 0 0 4.236v.07H38.5a6.57 6.57 0 0 0 6.563-6.563v-.11h2.187c4.825 0 8.75-3.925 8.75-8.75v-7.437c0-4.825-3.925-8.75-8.75-8.75z"/>
    </symbol>
    <symbol id="location" viewBox="0 0 56 51">
      <path fill="#c2c2c2" d="M19.581 18.798a1.74 1.74 0 0 0-1.742 1.74V39.35L4.484 42.507V13.2l13.722-2.503a1.74 1.74 0 1 0-.626-3.42L2.43 10.038A1.74 1.74 0 0 0 1 11.75v32.957a1.738 1.738 0 0 0 1.742 1.739c.134 0 .268-.016.401-.047l16.84-3.98a1.74 1.74 0 0 0 1.34-1.692V20.537c0-.96-.78-1.738-1.742-1.738z"/><path fill="none" stroke="#c2c2c2" stroke-miterlimit="20" stroke-width=".5" d="M19.581 18.798a1.74 1.74 0 0 0-1.742 1.74V39.35L4.484 42.507v0V13.2v0l13.722-2.503a1.74 1.74 0 1 0-.626-3.42L2.43 10.038A1.74 1.74 0 0 0 1 11.75v32.957a1.738 1.738 0 0 0 1.742 1.739c.134 0 .268-.016.401-.047l16.84-3.98a1.74 1.74 0 0 0 1.34-1.692V20.537c0-.96-.78-1.738-1.742-1.738z"/><path fill="#c2c2c2" d="M37.134 46.676l-16.76-7.536a1.743 1.743 0 0 0-2.303.872 1.738 1.738 0 0 0 .873 2.3l16.76 7.535a1.74 1.74 0 0 0 1.43-3.17z"/><path fill="none" stroke="#c2c2c2" stroke-miterlimit="20" stroke-width=".5" d="M37.134 46.676v0l-16.76-7.536a1.743 1.743 0 0 0-2.303.872 1.738 1.738 0 0 0 .873 2.3l16.76 7.535a1.74 1.74 0 0 0 1.43-3.17z"/><path fill="#c2c2c2" d="M54.345 10.547a1.744 1.744 0 0 0-1.473-.336l-14.573 3.307a1.739 1.739 0 1 0 .772 3.39l12.445-2.823v29.357L38.16 46.136v-25.68a1.74 1.74 0 1 0-3.484 0v27.806A1.738 1.738 0 0 0 36.42 50c.115 0 .23-.01.345-.034l16.84-3.397A1.74 1.74 0 0 0 55 44.864V11.906c0-.529-.241-1.029-.655-1.359z"/><path fill="none" stroke="#c2c2c2" stroke-miterlimit="20" stroke-width=".5" d="M54.345 10.547a1.744 1.744 0 0 0-1.473-.336l-14.573 3.307a1.739 1.739 0 1 0 .772 3.39l12.445-2.823v29.357L38.16 46.136v0-25.68a1.74 1.74 0 1 0-3.484 0v27.806A1.738 1.738 0 0 0 36.42 50c.115 0 .23-.01.345-.034l16.84-3.397A1.74 1.74 0 0 0 55 44.864V11.906c0-.529-.241-1.029-.655-1.359z"/><path fill="#c2c2c2" d="M31.824 23.45a24.206 24.206 0 0 1-3.79 3.405c-2.305-1.662-8.284-6.687-8.284-14.109 0-4.559 3.717-8.268 8.289-8.268 4.567 0 8.282 3.71 8.282 8.268 0 3.775-1.513 7.376-4.497 10.704zM28.036 1c-6.49 0-11.77 5.27-11.77 11.746 0 4.626 1.89 9.159 5.463 13.11 2.653 2.93 5.304 4.523 5.415 4.589a1.742 1.742 0 0 0 1.783 0c.111-.066 2.763-1.658 5.415-4.59 3.574-3.95 5.463-8.482 5.463-13.109 0-6.476-5.278-11.745-11.77-11.745z"/><path fill="none" stroke="#c2c2c2" stroke-miterlimit="20" stroke-width=".5" d="M31.824 23.45a24.206 24.206 0 0 1-3.79 3.405c-2.305-1.662-8.284-6.687-8.284-14.109 0-4.559 3.717-8.268 8.289-8.268 4.567 0 8.282 3.71 8.282 8.268 0 3.775-1.513 7.376-4.497 10.704zM28.036 1c-6.49 0-11.77 5.27-11.77 11.746 0 4.626 1.89 9.159 5.463 13.11 2.653 2.93 5.304 4.523 5.415 4.589a1.742 1.742 0 0 0 1.783 0c.111-.066 2.763-1.658 5.415-4.59 3.574-3.95 5.463-8.482 5.463-13.109 0-6.476-5.278-11.745-11.77-11.745z"/><path fill="#c2c2c2" d="M28.036 14.537c-.87 0-1.577-.706-1.577-1.574a1.577 1.577 0 0 1 3.153 0c0 .868-.707 1.574-1.576 1.574zm0-6.625a5.061 5.061 0 0 0-5.06 5.051 5.061 5.061 0 0 0 5.06 5.052c2.79 0 5.06-2.266 5.06-5.052a5.061 5.061 0 0 0-5.06-5.05z"/><path fill="none" stroke="#c2c2c2" stroke-miterlimit="20" stroke-width=".5" d="M28.036 14.537c-.87 0-1.577-.706-1.577-1.574a1.577 1.577 0 0 1 3.153 0c0 .868-.707 1.574-1.576 1.574zm0-6.625a5.061 5.061 0 0 0-5.06 5.051 5.061 5.061 0 0 0 5.06 5.052c2.79 0 5.06-2.266 5.06-5.052a5.061 5.061 0 0 0-5.06-5.05z"/>
    </symbol>
    <symbol id="logo-elem" viewBox="0 0 49 39">
      <path fill="#e43437" d="M2.418 4.302V0h44.164v4.302z"/><path fill="#e43437" d="M2.418 38.694v-4.302h44.164v4.302z"/><path fill="#e43437" d="M10.992 21.498v-4.302h11.426v4.302z"/><path fill="#e43437" d="M16.435 31.438L6.124 19.347 16.94 7.192h-5.684L.5 19.347l10.255 12.091z"/><path fill="#e43437" d="M26.582 21.435v-4.303h11.426v4.303z"/><path fill="#e43437" d="M32.565 7.192l10.311 12.091L32.06 31.438h5.683L48.5 19.283 38.245 7.192z"/>
    </symbol>
    <symbol id="logo-full-white" viewBox="0 0 310 88">
      <path fill="#fff" d="M4.332 10.193V.473h99.735v9.72z"/><path fill="#fff" d="M4.332 87.886v-9.72h99.735v9.72z"/><path fill="#fff" d="M23.694 49.04v-9.72h25.803v9.72z"/><path fill="#fff" d="M35.987 71.495L12.7 44.18 37.126 16.72H24.291L0 44.18l23.158 27.315z"/><path fill="#fff" d="M58.902 48.896v-9.72h25.804v9.72z"/><path fill="#fff" d="M72.412 16.721L95.7 44.036 71.273 71.495h12.835l24.291-27.459-23.158-27.315z"/><path fill="#fff" d="M159.866 29.777l12.942 29.261H161.58l-10.884-24.614h-8.743v24.614h-10.284V.516h10.285V25.13h8.742L161.581.516h11.227z"/><path fill="#fff" d="M209.723 30.38h-17.142V9.81h17.141zM201.151.515h-18.856v58.52h10.286V39.674h8.57c18.856 0 18.856-3.442 18.856-12.049V12.565c0-8.606 0-12.049-18.856-12.049z"/><path fill="#fff" d="M264.573.516v9.295h-13.715v49.227h-10.282V9.811H226.86V.516z"/><path fill="#fff" d="M299.714 20.31V9.296H282.57V50.26h17.142V39.245H310v7.745c0 8.606 0 12.565-18.856 12.565s-18.856-3.959-18.856-12.565V12.565c0-8.606 0-12.565 18.856-12.565S310 3.959 310 12.565v7.746z"/><path fill="#fff" d="M134.214 80.072h1.043l4.02-5.459h2.905l-4.748 6.41 5.176 6.86h-2.867L135.5 82.39h-1.285v5.496h-2.55V74.614h2.55z"/><path fill="#fff" d="M148.394 82.764l1.899-5.216 1.824 5.216zm-4.284 5.122h2.644l1.21-3.309h4.617l1.228 3.309h2.644l-5.025-13.273h-2.271z"/><path fill="#fff" d="M158.209 76.315a5.32 5.32 0 0 1 1.842-1.355 6.18 6.18 0 0 1 2.495-.458 4.857 4.857 0 0 1 3.007.841 2.907 2.907 0 0 1 1.107 2.467 3.444 3.444 0 0 1-.494 1.823 2.677 2.677 0 0 1-1.554 1.15c.745.118 1.42.507 1.899 1.093.458.602.695 1.345.67 2.103a3.745 3.745 0 0 1-.363 1.673 3.689 3.689 0 0 1-.997 1.252 4.56 4.56 0 0 1-1.517.795 6.815 6.815 0 0 1-4.44-.197 5.619 5.619 0 0 1-1.954-1.43l1.49-1.794c.35.419.776.768 1.256 1.028.522.262 1.101.39 1.684.372a2.458 2.458 0 0 0 1.62-.523 1.922 1.922 0 0 0-.028-2.879 3.034 3.034 0 0 0-2.001-.56h-1.378v-1.907h1.23a3.185 3.185 0 0 0 1.823-.44c.413-.274.653-.746.633-1.243a1.3 1.3 0 0 0-.474-1.084 2.143 2.143 0 0 0-1.35-.372 3.54 3.54 0 0 0-1.554.327 3.735 3.735 0 0 0-1.202.925z"/><path fill="#fff" d="M174.74 87.998c-.59 0-1.177-.07-1.75-.207a6.844 6.844 0 0 1-1.601-.599 5.37 5.37 0 0 1-1.313-.962 4.133 4.133 0 0 1-.884-1.318l2.104-1.215c.15.344.36.658.623.925.247.25.53.461.838.626.3.16.619.28.95.356.314.073.636.11.958.112.501.006.998-.09 1.462-.28.429-.18.82-.44 1.153-.767.334-.332.61-.717.819-1.14.217-.436.364-.902.437-1.383h-5.36V80.07h5.306a4.894 4.894 0 0 0-.428-1.224 3.844 3.844 0 0 0-.764-1.037 3.585 3.585 0 0 0-1.107-.72 3.784 3.784 0 0 0-1.48-.27 4.503 4.503 0 0 0-.931.102 3.861 3.861 0 0 0-.931.327 3.35 3.35 0 0 0-.838.608c-.27.27-.485.59-.633.943l-1.973-1.364a5.15 5.15 0 0 1 1.964-2.094 6.154 6.154 0 0 1 3.267-.804c.974-.02 1.94.178 2.83.58.783.36 1.486.874 2.066 1.514.557.619.99 1.339 1.277 2.121a6.868 6.868 0 0 1-.028 4.898 7.018 7.018 0 0 1-1.322 2.186 6.772 6.772 0 0 1-2.048 1.561 5.847 5.847 0 0 1-2.663.6z"/><path fill="#fff" d="M195.011 74.613v13.273h-2.553V82.22h-5.994v5.666h-2.57V74.613h2.57v5.365h5.994v-5.365z"/><path fill="#fff" d="M207.674 85.623v2.263h-9.179V74.613h9.011v2.262h-6.44v3.197h5.566v2.094h-5.567v3.457z"/><path fill="#fff" d="M213.078 76.875h2.867c.227 0 .452.048.66.14.22.095.414.238.569.42.17.203.302.434.39.682.104.291.154.598.15.907.03.564-.138 1.12-.475 1.572-.281.369-.72.583-1.182.579h-2.98zm0 11.01v-4.448h3.127c.58.007 1.153-.12 1.676-.372.496-.24.939-.578 1.302-.993.363-.415.647-.894.838-1.411a4.617 4.617 0 0 0 .298-1.636 4.287 4.287 0 0 0-.316-1.598 4.762 4.762 0 0 0-.875-1.42 4.365 4.365 0 0 0-1.331-1.01 3.743 3.743 0 0 0-1.685-.383h-5.604v13.272z"/><path fill="#fff" d="M230.828 76.877h-5.51v11.01h-2.551V74.613h8.06z"/><path fill="#fff" d="M234.98 79.635c.158-.514.408-.995.734-1.421.327-.42.74-.765 1.21-1.01a3.759 3.759 0 0 1 3.268-.018c.468.236.881.57 1.21.981.336.425.594.906.763 1.42.18.537.271 1.099.27 1.665 0 .548-.085 1.094-.252 1.617a4.547 4.547 0 0 1-.744 1.43c-.327.421-.74.769-1.21 1.018a3.733 3.733 0 0 1-3.277.01 3.756 3.756 0 0 1-1.21-.993 4.45 4.45 0 0 1-.753-1.42 5.333 5.333 0 0 1-.26-1.665c0-.548.084-1.092.25-1.614zm3.582 8.344a6.083 6.083 0 0 0 2.588-.55 6.435 6.435 0 0 0 2.047-1.478 6.883 6.883 0 0 0 1.825-4.663 6.843 6.843 0 0 0-.465-2.468 7.116 7.116 0 0 0-1.303-2.17 6.547 6.547 0 0 0-2.018-1.542 5.786 5.786 0 0 0-2.616-.589 6.086 6.086 0 0 0-2.587.552 6.494 6.494 0 0 0-2.06 1.486 7.018 7.018 0 0 0-1.359 2.15 6.68 6.68 0 0 0-.494 2.543 7.038 7.038 0 0 0 1.777 4.644 6.46 6.46 0 0 0 2.03 1.515 5.985 5.985 0 0 0 2.635.57z"/><path fill="#fff" d="M257.3 76.877h-4.226v11.01h-2.55v-11.01h-4.226v-2.262h11.003z"/><path fill="#fff" d="M262.235 76.875h2.867c.227 0 .453.048.661.14.219.095.413.238.568.42.17.203.302.434.39.682.104.291.154.598.15.907.03.564-.138 1.12-.475 1.572-.282.369-.72.583-1.183.579h-2.978zm0 11.01v-4.448h3.128c.58.007 1.153-.12 1.675-.372a4.11 4.11 0 0 0 1.303-.993c.363-.415.647-.894.838-1.411a4.617 4.617 0 0 0 .298-1.636 4.287 4.287 0 0 0-.317-1.598 4.748 4.748 0 0 0-.875-1.42 4.37 4.37 0 0 0-1.33-1.01 3.743 3.743 0 0 0-1.685-.383h-5.604v13.272z"/><path fill="#fff" d="M274.044 82.764l1.898-5.216 1.824 5.216zm-4.282 5.122h2.641l1.21-3.309h4.617l1.229 3.309h2.643l-5.024-13.273h-2.272z"/><path fill="#fff" d="M295.506 74.613v13.273h-2.55V82.22h-5.995v5.666h-2.57V74.613h2.57v5.365h5.995v-5.365z"/><path fill="#fff" d="M298.155 81.156c.001-.82.149-1.634.436-2.402a6.434 6.434 0 0 1 3.323-3.636 6.304 6.304 0 0 1 2.756-.579 5.987 5.987 0 0 1 3.155.804 5.121 5.121 0 0 1 1.983 2.094l-1.974 1.364a3.395 3.395 0 0 0-.633-.943 3.18 3.18 0 0 0-.8-.608 3.605 3.605 0 0 0-.894-.327 4.24 4.24 0 0 0-.912-.103 3.448 3.448 0 0 0-1.685.393c-.464.25-.87.598-1.191 1.018-.321.428-.564.909-.717 1.421a5.371 5.371 0 0 0-.242 1.58 5.171 5.171 0 0 0 .28 1.691c.174.522.442 1.006.79 1.43.34.41.758.748 1.23.993a3.34 3.34 0 0 0 1.572.372c.314-.002.626-.04.931-.112a3.498 3.498 0 0 0 1.731-.981c.256-.268.459-.582.596-.926l2.104 1.215c-.21.496-.517.944-.903 1.318a5.797 5.797 0 0 1-1.322.962 6.735 6.735 0 0 1-1.573.599 6.863 6.863 0 0 1-1.638.207 5.608 5.608 0 0 1-2.588-.599 6.73 6.73 0 0 1-2.018-1.56 7.26 7.26 0 0 1-1.321-2.187 6.847 6.847 0 0 1-.476-2.498z"/>
    </symbol>
    <symbol id="logo-full" viewBox="0 0 148 42">
      <path fill="#e43437" d="M2.068 4.865V.226h47.616v4.639z"/><path fill="#e43437" d="M2.068 41.945v-4.638h47.616v4.638z"/><path fill="#e43437" d="M11.312 23.405v-4.638H23.63v4.638z"/><path fill="#e43437" d="M17.18 34.122L6.064 21.086 17.725 7.98h-6.128L0 21.086l11.056 13.036z"/><path fill="#e43437" d="M28.121 23.337v-4.64h12.32v4.64z"/><path fill="#e43437" d="M34.571 7.98l11.118 13.037-11.662 13.105h6.128l11.597-13.105L40.696 7.981z"/><path fill="#49515a" d="M76.323 14.212l6.18 13.965h-5.361L71.945 16.43h-4.174v11.747h-4.91V.247h4.91v11.747h4.174L77.142.246h5.36z"/><path fill="#49515a" d="M100.126 14.5h-8.184V4.681h8.183zm4.91-8.503c0-4.108 0-5.75-9.003-5.75h-9.002v27.93h4.911v-9.242h4.091c9.003 0 9.003-1.643 9.003-5.75z"/><path fill="#49515a" d="M126.312.246v4.436h-6.547v23.495h-4.91V4.682h-6.547V.246z"/><path fill="#49515a" d="M143.089 9.694V4.436h-8.184v19.552h8.184V18.73H148v3.697c0 4.108 0 5.997-9.002 5.997-9.003 0-9.003-1.89-9.003-5.997V5.997c0-4.108 0-5.997 9.003-5.997C148 0 148 1.89 148 5.997v3.697z"/><path fill="#49515a" d="M64.076 38.216h.498l1.92-2.605h1.386l-2.266 3.06 2.47 3.273h-1.368l-2.026-2.622h-.613v2.623h-1.218v-6.334h1.218z"/><path fill="#49515a" d="M70.846 39.501l.907-2.49.87 2.49zm-2.045 2.444h1.262l.578-1.579h2.204l.586 1.58h1.263l-2.4-6.335H71.21z"/><path fill="#49515a" d="M75.532 36.423a2.54 2.54 0 0 1 .88-.647 2.951 2.951 0 0 1 1.19-.218 2.32 2.32 0 0 1 1.436.401c.359.281.557.722.529 1.178.004.306-.078.607-.236.87-.17.269-.436.464-.742.548.356.057.678.243.906.522.22.288.332.642.32 1.004.005.276-.054.55-.173.798a1.761 1.761 0 0 1-.476.598c-.215.171-.46.3-.724.38a3.255 3.255 0 0 1-2.12-.095 2.683 2.683 0 0 1-.933-.682l.711-.856c.168.2.371.366.6.49.25.125.526.186.804.178.28.011.554-.077.774-.25a.917.917 0 0 0-.014-1.374A1.449 1.449 0 0 0 77.31 39h-.658v-.91h.587c.305.02.608-.053.87-.209a.68.68 0 0 0 .303-.594.62.62 0 0 0-.226-.517 1.023 1.023 0 0 0-.645-.178 1.69 1.69 0 0 0-.742.157c-.22.106-.414.256-.574.441z"/><path fill="#49515a" d="M83.424 41.999c-.281 0-.562-.033-.835-.099a3.27 3.27 0 0 1-.765-.285 2.564 2.564 0 0 1-.626-.46 1.972 1.972 0 0 1-.422-.629l1.004-.58c.071.164.172.314.298.442.117.119.252.22.4.299.142.076.295.133.453.17.15.034.304.052.458.053a1.753 1.753 0 0 0 1.248-.5c.16-.158.292-.342.39-.544.104-.208.175-.43.21-.66h-2.56v-.99h2.534c-.042-.204-.111-.4-.205-.585a1.835 1.835 0 0 0-.364-.495 1.711 1.711 0 0 0-1.236-.473c-.15.001-.298.018-.444.05a1.843 1.843 0 0 0-.444.155 1.598 1.598 0 0 0-.4.29c-.13.13-.232.282-.303.45l-.942-.65c.212-.416.537-.763.938-1a2.939 2.939 0 0 1 1.56-.383c.465-.01.926.085 1.35.276a3.059 3.059 0 0 1 1.597 1.735 3.277 3.277 0 0 1-.014 2.338 3.35 3.35 0 0 1-.63 1.043 3.232 3.232 0 0 1-.978.745 2.792 2.792 0 0 1-1.272.287z"/><path fill="#49515a" d="M93.102 35.611v6.334h-1.219v-2.704h-2.861v2.704h-1.227v-6.334h1.227v2.56h2.861v-2.56z"/><path fill="#49515a" d="M99.147 40.866v1.08h-4.381V35.61h4.301v1.08h-3.075v1.525h2.658v1h-2.658v1.65z"/><path fill="#49515a" d="M101.728 36.69h1.368c.109 0 .216.023.316.067a.744.744 0 0 1 .27.2c.082.097.145.208.187.326.05.14.074.286.072.433.014.27-.066.535-.227.75a.701.701 0 0 1-.564.276h-1.423zm0 5.255v-2.123h1.493c.276.003.55-.057.8-.178a1.96 1.96 0 0 0 .621-.473c.173-.199.309-.427.4-.674.095-.25.143-.514.143-.78a2.046 2.046 0 0 0-.151-.763 2.273 2.273 0 0 0-.418-.678c-.18-.2-.395-.364-.636-.482a1.787 1.787 0 0 0-.804-.183h-2.675v6.334z"/><path fill="#49515a" d="M110.202 36.691h-2.631v5.255h-1.218v-6.335h3.849z"/><path fill="#49515a" d="M112.064 38.778c0-.261.04-.521.12-.77.076-.246.195-.475.35-.679.156-.2.353-.364.578-.481a1.795 1.795 0 0 1 1.56-.01c.224.113.421.273.578.47.16.202.283.431.364.677.086.256.13.524.13.794 0 .262-.041.522-.121.772a2.17 2.17 0 0 1-.355.682 1.79 1.79 0 0 1-.578.486 1.783 1.783 0 0 1-1.564.005 1.794 1.794 0 0 1-.578-.474 2.122 2.122 0 0 1-.36-.678 2.545 2.545 0 0 1-.124-.794zm3.066 2.95c.369-.169.7-.408.977-.706a3.284 3.284 0 0 0 .871-2.225c0-.403-.076-.803-.222-1.178a3.397 3.397 0 0 0-.622-1.036 3.126 3.126 0 0 0-.963-.736 2.764 2.764 0 0 0-1.249-.281 2.907 2.907 0 0 0-1.235.263 3.1 3.1 0 0 0-.984.71 3.35 3.35 0 0 0-.648 1.026 3.189 3.189 0 0 0-.236 1.213c.003.818.305 1.607.848 2.217.273.303.602.548.969.723.393.185.824.278 1.258.272.426.004.848-.086 1.236-.263z"/><path fill="#49515a" d="M122.84 36.691h-2.017v5.255h-1.218v-5.255h-2.018v-1.08h5.253z"/><path fill="#49515a" d="M125.196 36.69h1.369c.108 0 .216.023.315.067a.745.745 0 0 1 .271.2c.081.097.145.208.187.326.05.14.073.286.071.433.015.27-.066.535-.227.75a.701.701 0 0 1-.564.276h-1.422zm0 5.255v-2.123h1.493c.277.003.55-.057.8-.178a1.96 1.96 0 0 0 .622-.473c.173-.199.309-.427.4-.674.094-.25.143-.514.142-.78a2.047 2.047 0 0 0-.15-.763 2.267 2.267 0 0 0-.419-.678 2.086 2.086 0 0 0-.635-.482 1.787 1.787 0 0 0-.804-.183h-2.676v6.334z"/><path fill="#49515a" d="M130.834 39.501l.906-2.49.871 2.49zm-2.044 2.444h1.26l.578-1.579h2.205l.586 1.58h1.262l-2.399-6.335h-1.084z"/><path fill="#49515a" d="M141.08 35.611v6.334h-1.217v-2.704H137v2.704h-1.227v-6.334h1.227v2.56h2.862v-2.56z"/><path fill="#49515a" d="M142.345 38.734c0-.392.071-.78.208-1.147a3.07 3.07 0 0 1 1.587-1.735 3.01 3.01 0 0 1 1.315-.276 2.86 2.86 0 0 1 1.506.383c.405.235.734.582.947 1l-.942.65a1.62 1.62 0 0 0-.302-.45 1.517 1.517 0 0 0-.382-.29 1.721 1.721 0 0 0-.427-.156 2.025 2.025 0 0 0-.435-.049 1.646 1.646 0 0 0-.805.188c-.222.12-.416.285-.569.486a2.15 2.15 0 0 0-.342.678 2.562 2.562 0 0 0-.115.753c-.001.275.044.548.133.808.083.249.211.48.378.682.161.196.361.357.586.474.232.12.49.18.751.178.15-.001.3-.02.445-.054a1.686 1.686 0 0 0 .826-.468c.122-.128.219-.278.285-.442l1.004.58c-.1.237-.247.45-.431.629-.188.182-.4.337-.631.46-.238.126-.49.222-.751.285a3.278 3.278 0 0 1-.782.099 2.678 2.678 0 0 1-1.236-.286 3.21 3.21 0 0 1-.963-.745 3.465 3.465 0 0 1-.631-1.043 3.267 3.267 0 0 1-.227-1.192z"/>
    </symbol>
    <symbol id="logo-text-white" viewBox="0 0 400 66">
      <path fill="#fff" d="M269.033 51.343h3.143c2.279 0 3.418-.666 3.418-1.999 0-1.332-1.078-2.02-3.234-2.064h-3.327zm0 1.946v4.286h4.024c1.016 0 1.777-.189 2.28-.565.505-.377.757-.908.757-1.591 0-1.42-1.043-2.13-3.13-2.13zm-2.432 6.245V45.308h5.548c1.894 0 3.347.33 4.359.993 1.012.661 1.519 1.632 1.519 2.912 0 .657-.198 1.251-.592 1.781-.395.53-.978.936-1.749 1.216.86.202 1.55.597 2.071 1.184.522.587.782 1.288.782 2.103 0 1.307-.48 2.306-1.44 2.998-.96.693-2.316 1.039-4.069 1.039zm-13.78-6.955c0 1.577.367 2.844 1.099 3.8.732.955 1.711 1.433 2.938 1.433 1.236 0 2.218-.485 2.945-1.453.728-.969 1.092-2.325 1.092-4.07 0-1.56-.37-2.824-1.111-3.793-.74-.968-1.725-1.453-2.952-1.453-1.2 0-2.17.478-2.906 1.433-.736.956-1.104 2.323-1.104 4.103zm-2.445-.29c0-1.393.274-2.647.822-3.76.548-1.113 1.31-1.972 2.288-2.577.977-.605 2.093-.907 3.346-.907 1.937 0 3.504.67 4.7 2.012 1.197 1.34 1.795 3.124 1.795 5.35v.172c0 1.385-.265 2.627-.795 3.727s-1.289 1.957-2.275 2.57c-.986.614-2.119.92-3.399.92-1.928 0-3.49-.67-4.687-2.01-1.196-1.342-1.795-3.117-1.795-5.326zm-3.26 7.245h-2.433V53.46h-6.534v6.074h-2.446V45.308h2.446v6.166h6.534v-6.166h2.433zm-25.179-6.955c0 1.577.366 2.844 1.098 3.8.732.955 1.712 1.433 2.939 1.433 1.236 0 2.217-.485 2.945-1.453.727-.969 1.091-2.325 1.091-4.07 0-1.56-.37-2.824-1.11-3.793-.741-.968-1.725-1.453-2.953-1.453-1.2 0-2.169.478-2.905 1.433-.737.956-1.105 2.323-1.105 4.103zm-2.445-.29c0-1.393.274-2.647.822-3.76.547-1.113 1.31-1.972 2.287-2.577.978-.605 2.093-.907 3.347-.907 1.937 0 3.503.67 4.7 2.012 1.196 1.34 1.795 3.124 1.795 5.35v.172c0 1.385-.266 2.627-.796 3.727s-1.288 1.957-2.274 2.57c-.987.614-2.12.92-3.4.92-1.928 0-3.49-.67-4.686-2.01-1.197-1.342-1.795-3.117-1.795-5.326zm-1.197-4.97h-6.56v12.215h-2.446V45.308h9.006zm-19.09 10.361c.762 0 1.485-.197 2.169-.592.684-.394 1.179-.907 1.486-1.538v-2.919h-1.907c-2.98 0-4.47.872-4.47 2.617 0 .762.254 1.358.762 1.788.509.43 1.162.644 1.96.644zm4.036 1.854c-.14-.28-.254-.78-.342-1.499-1.13 1.175-2.48 1.762-4.05 1.762-1.402 0-2.552-.397-3.45-1.19-.9-.793-1.348-1.8-1.348-3.017 0-1.482.563-2.632 1.69-3.452 1.125-.82 2.71-1.23 4.752-1.23h2.367v-1.117c0-.85-.255-1.527-.763-2.031-.508-.504-1.258-.756-2.248-.756-.868 0-1.596.219-2.183.657-.587.439-.88.969-.88 1.591h-2.446c0-.71.252-1.396.756-2.057.504-.662 1.187-1.186 2.05-1.572.864-.385 1.813-.578 2.847-.578 1.64 0 2.924.41 3.853 1.23.929.819 1.411 1.947 1.446 3.385v6.547c0 1.307.167 2.345.5 3.117v.21zm-21.51-8.191h3.142c2.28 0 3.419-.666 3.419-1.999 0-1.332-1.078-2.02-3.235-2.064h-3.326zm0 1.946v4.286h4.023c1.017 0 1.777-.189 2.281-.565.504-.377.756-.908.756-1.591 0-1.42-1.043-2.13-3.129-2.13zm-2.432 6.245V45.308h5.548c1.893 0 3.346.33 4.359.993 1.012.661 1.518 1.632 1.518 2.912 0 .657-.197 1.251-.592 1.781-.394.53-.977.936-1.748 1.216.859.202 1.55.597 2.07 1.184.522.587.783 1.288.783 2.103 0 1.307-.48 2.306-1.44 2.998-.96.693-2.316 1.039-4.07 1.039zM163.837 50.5l3.155-5.193h2.84l-4.654 7.034 4.799 7.192h-2.814l-3.287-5.325-3.287 5.325h-2.827l4.8-7.192-4.655-7.034h2.814zm-23.022 1.696v5.352h3.615c.912 0 1.617-.235 2.117-.704s.75-1.11.75-1.926c0-.789-.244-1.435-.73-1.94-.487-.503-1.168-.764-2.045-.782zm14.002 7.337h-2.445V45.308h2.445zm-14.002-9.322h3.694c1.613.018 2.888.438 3.826 1.262.938.824 1.407 1.942 1.407 3.353 0 1.42-.482 2.56-1.446 3.418-.964.86-2.262 1.289-3.892 1.289h-6.022V45.308h2.433zm-15.384 1.13h3.143c2.279 0 3.418-.665 3.418-1.998 0-1.332-1.078-2.02-3.234-2.064h-3.327zm0 1.947v4.286h4.024c1.016 0 1.777-.189 2.28-.565.505-.377.757-.908.757-1.591 0-1.42-1.043-2.13-3.13-2.13zM123 59.534V45.308h5.548c1.894 0 3.347.33 4.359.993 1.012.661 1.519 1.632 1.519 2.912 0 .657-.198 1.251-.592 1.781-.395.53-.977.936-1.749 1.216.86.202 1.55.597 2.071 1.184.522.587.782 1.288.782 2.103 0 1.307-.48 2.306-1.44 2.998-.96.693-2.316 1.039-4.069 1.039zm-13.779-6.955c0 1.577.366 2.844 1.098 3.8.732.955 1.711 1.433 2.938 1.433 1.236 0 2.218-.485 2.946-1.453.727-.969 1.09-2.325 1.09-4.07 0-1.56-.37-2.824-1.11-3.793-.74-.968-1.725-1.453-2.952-1.453-1.2 0-2.17.478-2.906 1.433-.736.956-1.104 2.323-1.104 4.103zm-2.446-.29c0-1.393.274-2.647.822-3.76.548-1.113 1.31-1.972 2.288-2.577.977-.605 2.093-.907 3.346-.907 1.937 0 3.504.67 4.7 2.012 1.197 1.34 1.795 3.124 1.795 5.35v.172c0 1.385-.265 2.627-.795 3.727s-1.289 1.957-2.275 2.57c-.986.614-2.119.92-3.399.92-1.928 0-3.49-.67-4.687-2.01-1.196-1.342-1.795-3.117-1.795-5.326zm-5.206-3.09c0-.666-.254-1.194-.763-1.584-.508-.39-1.205-.585-2.09-.585-.86 0-1.576.224-2.15.67-.574.448-.861.974-.861 1.579h-2.42c0-1.236.518-2.249 1.552-3.038 1.034-.789 2.327-1.183 3.879-1.183 1.665 0 2.962.358 3.892 1.072.929.715 1.393 1.735 1.393 3.06a2.95 2.95 0 0 1-.578 1.763c-.386.535-.934.961-1.644 1.277 1.657.56 2.485 1.664 2.485 3.31 0 1.305-.504 2.339-1.512 3.1-1.008.763-2.353 1.144-4.036 1.144-1.64 0-2.991-.401-4.056-1.203s-1.598-1.887-1.598-3.254h2.42c0 .692.308 1.286.926 1.781.618.495 1.387.743 2.308.743.929 0 1.678-.214 2.248-.642.57-.429.855-.984.855-1.665 0-.796-.24-1.366-.717-1.711-.478-.345-1.22-.518-2.228-.518H96.44V51.25h2.643c1.657-.044 2.485-.728 2.485-2.051zm-15.91 6.772l3.314-10.663h2.603L85.856 61.73c-.885 2.366-2.292 3.55-4.22 3.55l-.46-.04-.908-.17v-1.973l.658.053c.824 0 1.466-.167 1.926-.5.46-.333.84-.942 1.137-1.828l.54-1.446-5.076-14.068h2.656zm-10.031-3.668c0-1.605-.342-2.871-1.026-3.8-.683-.93-1.621-1.394-2.813-1.394-1.473 0-2.577.653-3.313 1.96v6.797c.727 1.297 1.84 1.946 3.34 1.946 1.165 0 2.092-.463 2.78-1.388.688-.924 1.032-2.298 1.032-4.121zm2.432.276c0 2.165-.495 3.909-1.485 5.233-.99 1.323-2.332 1.985-4.024 1.985-1.726 0-3.085-.548-4.075-1.644v6.85h-2.433V45.308h2.222l.118 1.578c.99-1.228 2.367-1.841 4.129-1.841 1.71 0 3.061.644 4.056 1.933.995 1.288 1.492 3.08 1.492 5.377zm-14.12-5.26h-6.561v12.215h-2.446V45.308h9.006zm-28.663 2.354c0 .692.237 1.251.71 1.676.473.425 1.1.642 1.88.651h3.866v-4.72h-3.498c-.903 0-1.621.221-2.156.664-.535.443-.802 1.019-.802 1.729zm8.901-4.365v14.226h-2.445v-5.535h-3.669l-3.352 5.535h-2.63l3.576-5.904c-.911-.333-1.61-.848-2.097-1.544-.486-.697-.73-1.51-.73-2.44 0-1.297.487-2.342 1.46-3.135.973-.793 2.274-1.194 3.905-1.203zm-14.778 0v14.226h-2.446V47.319h-4.838l-.29 5.325c-.157 2.446-.567 4.195-1.229 5.246-.662 1.052-1.711 1.6-3.149 1.644h-.973V57.39l.697-.053c.79-.087 1.354-.543 1.696-1.367.342-.824.561-2.35.658-4.576l.263-6.087zM4.247 57.548h6.534v-9.992H6.403l-.145 3.392c-.149 2.832-.82 5.032-2.011 6.6zm-2.88 0l.842-1.038c.947-1.227 1.486-3.068 1.617-5.522l.224-5.68h9.164v12.24h1.827v6.167H12.61v-4.181H2.682v4.181H.25l.013-6.166zM394.15 6.654c-.982 0-1.805.357-2.472 1.071-.666.715-1.078 1.716-1.236 3.005h7.127v-.184c-.07-1.236-.404-2.194-1-2.873-.596-.68-1.402-1.02-2.419-1.02zm.303 12.753c-1.929 0-3.498-.633-4.707-1.9-1.21-1.266-1.815-2.96-1.815-5.081v-.447c0-1.411.27-2.671.809-3.78.539-1.11 1.293-1.977 2.261-2.604a5.686 5.686 0 0 1 3.15-.94c1.849 0 3.286.61 4.312 1.828C399.487 7.7 400 9.445 400 11.715v1.012h-9.637c.035 1.403.444 2.536 1.229 3.399.784.863 1.781 1.295 2.991 1.295.86 0 1.587-.175 2.183-.526a5.484 5.484 0 0 0 1.564-1.394l1.486 1.157c-1.192 1.832-2.98 2.748-5.364 2.748zM382.21 4.917h2.432v14.226h-2.432V8.77l-6.561 10.373h-2.432V4.917h2.432v10.387zm-28.965 0v12.241h5.207V4.918h2.432v12.24h5.193V4.918h2.446v12.24h1.998l-.236 6.206h-2.183v-4.22H350.8V4.916zm-16.014 7.271c0 1.578.366 2.844 1.098 3.8.731.955 1.715 1.433 2.951 1.433s2.216-.486 2.939-1.46c.723-.972 1.085-2.327 1.085-4.062 0-1.552-.369-2.814-1.105-3.787-.736-.973-1.718-1.46-2.945-1.46-1.21 0-2.183.479-2.919 1.434-.736.955-1.104 2.323-1.104 4.102zm-5.812-1.236h3.419c.184-1.893.857-3.416 2.018-4.569 1.161-1.152 2.627-1.729 4.398-1.729 1.858 0 3.379.627 4.562 1.88 1.184 1.254 1.824 2.884 1.92 4.892l.013.762c0 1.385-.272 2.634-.815 3.747-.544 1.114-1.306 1.97-2.288 2.57-.982.601-2.104.901-3.366.901-1.832 0-3.33-.598-4.496-1.794-1.166-1.197-1.82-2.75-1.96-4.661h-3.405v6.192h-2.432V4.917h2.432zm-10.742 4.628l3.314-10.663h2.603l-5.72 16.422c-.885 2.367-2.291 3.55-4.22 3.55l-.46-.04-.907-.17v-1.972l.657.052c.824 0 1.466-.166 1.926-.5.46-.333.84-.942 1.138-1.827l.539-1.446-5.075-14.069h2.656zm-7.165-8.69h-4.773v12.253h-2.432V6.89h-4.681V4.917h11.886zm-20.682 6.192h-1.775v6.061h-2.445V4.917h2.445v6.022h1.591l4.786-6.022h2.945l-5.627 6.837 6.1 7.39h-3.09zm-13.095-6.43c-.982 0-1.806.358-2.472 1.072-.666.715-1.078 1.716-1.236 3.005h7.126v-.184c-.07-1.236-.403-2.194-.999-2.873-.596-.68-1.402-1.02-2.42-1.02zm.302 12.754c-1.928 0-3.497-.633-4.707-1.9-1.21-1.266-1.814-2.96-1.814-5.081v-.447c0-1.411.27-2.671.808-3.78.54-1.11 1.293-1.977 2.262-2.604a5.686 5.686 0 0 1 3.149-.94c1.85 0 3.287.61 4.312 1.828 1.026 1.218 1.539 2.963 1.539 5.233v1.012h-9.638c.035 1.403.445 2.536 1.23 3.399.784.863 1.781 1.295 2.99 1.295.86 0 1.587-.175 2.183-.526a5.483 5.483 0 0 0 1.565-1.394l1.486 1.157c-1.193 1.832-2.98 2.748-5.365 2.748zM270.23 4.917v14.226h-2.446V6.93h-4.838l-.29 5.325c-.157 2.445-.567 4.194-1.229 5.246-.662 1.052-1.711 1.6-3.149 1.643h-.973V17l.697-.052c.79-.088 1.354-.544 1.696-1.368.342-.824.561-2.349.658-4.575l.263-6.088zm-15.567 14.226h-2.433V6.93h-6.547v12.214h-2.446V4.917h11.426zm-23.417-3.22l4.839-11.006h3.037v14.226h-2.433V8.796l-4.601 10.347h-1.683l-4.694-10.57v10.57h-2.433V4.917h3.156zM209.5 12.187c0 1.578.366 2.844 1.098 3.8.732.955 1.712 1.433 2.939 1.433 1.236 0 2.217-.484 2.945-1.453.727-.968 1.091-2.325 1.091-4.07 0-1.56-.37-2.824-1.11-3.792-.741-.969-1.725-1.453-2.952-1.453-1.201 0-2.17.478-2.906 1.433-.736.955-1.105 2.323-1.105 4.102zm-2.445-.29c0-1.393.274-2.646.822-3.76.547-1.113 1.31-1.972 2.287-2.576.978-.605 2.093-.908 3.347-.908 1.937 0 3.503.67 4.7 2.012 1.196 1.341 1.795 3.125 1.795 5.351v.171c0 1.385-.266 2.628-.796 3.728s-1.288 1.956-2.274 2.57c-.987.614-2.12.92-3.4.92-1.928 0-3.49-.67-4.686-2.011-1.197-1.341-1.795-3.116-1.795-5.325zm-9.19 1.184h-1.776v6.061h-2.445V4.917h2.446v6.022h1.59l4.786-6.022h2.945l-5.627 6.837 6.1 7.39h-3.09zm-17.435-8.165h2.433v14.226h-2.433V8.77l-6.56 10.373h-2.433V4.917h2.432v10.387zm-22.207 0h2.433v14.226h-2.433V8.77l-6.56 10.373h-2.433V4.917h2.433v10.387zm-11.57 1.973h-4.772v12.253h-2.433V6.89h-4.68V4.917h11.885zm-18.96 10.531c.869 0 1.627-.263 2.275-.789.65-.526 1.008-1.183 1.079-1.972h2.3c-.043.815-.324 1.59-.841 2.327-.517.736-1.207 1.324-2.07 1.762a5.975 5.975 0 0 1-2.742.657c-1.937 0-3.478-.646-4.622-1.939-1.144-1.293-1.715-3.061-1.715-5.305v-.408c0-1.385.254-2.616.762-3.694.508-1.078 1.238-1.916 2.19-2.512.95-.596 2.074-.894 3.372-.894 1.595 0 2.92.478 3.977 1.433 1.056.956 1.62 2.196 1.69 3.721h-2.301c-.07-.92-.419-1.676-1.046-2.268-.626-.591-1.4-.887-2.32-.887-1.236 0-2.194.445-2.873 1.334-.68.89-1.02 2.176-1.02 3.86v.46c0 1.639.338 2.9 1.013 3.786.675.885 1.64 1.328 2.893 1.328zm-15.606-.131c.763 0 1.486-.198 2.17-.592.683-.395 1.179-.907 1.485-1.538v-2.92h-1.906c-2.98 0-4.47.873-4.47 2.617 0 .763.254 1.359.762 1.788.509.43 1.162.645 1.96.645zm4.037 1.853c-.14-.28-.255-.78-.342-1.498-1.13 1.174-2.48 1.761-4.05 1.761-1.402 0-2.553-.396-3.451-1.19-.899-.793-1.348-1.799-1.348-3.017 0-1.481.563-2.632 1.69-3.451 1.126-.82 2.71-1.23 4.753-1.23h2.366V9.401c0-.85-.254-1.528-.762-2.032-.509-.504-1.258-.756-2.248-.756-.868 0-1.596.22-2.183.658-.587.438-.88.968-.88 1.59h-2.446c0-.71.252-1.395.756-2.057.504-.662 1.187-1.185 2.05-1.571.864-.386 1.813-.579 2.847-.579 1.64 0 2.923.41 3.852 1.23.93.82 1.412 1.948 1.447 3.385v6.548c0 1.306.166 2.345.5 3.116v.21zm-12.675 0h-2.445V13.99c-1.07.28-2.166.421-3.287.421-1.78 0-3.136-.456-4.07-1.367-.933-.912-1.409-2.21-1.426-3.892V4.904h2.432V9.23c.044 2.121 1.065 3.182 3.064 3.182 1.121 0 2.217-.14 3.287-.421V4.917h2.445zm-14.647 0H86.37V6.93H79.82v12.214h-2.445V4.917H88.8zM67.265 17.29c.762 0 1.486-.198 2.17-.592.683-.395 1.178-.907 1.485-1.538v-2.92h-1.906c-2.98 0-4.47.873-4.47 2.617 0 .763.253 1.359.762 1.788.508.43 1.161.645 1.959.645zm4.036 1.853c-.14-.28-.254-.78-.342-1.498-1.13 1.174-2.48 1.761-4.05 1.761-1.402 0-2.552-.396-3.45-1.19-.899-.793-1.348-1.799-1.348-3.017 0-1.481.563-2.632 1.69-3.451 1.126-.82 2.71-1.23 4.752-1.23h2.367V9.401c0-.85-.254-1.528-.763-2.032-.508-.504-1.257-.756-2.248-.756-.868 0-1.595.22-2.182.658-.588.438-.881.968-.881 1.59H62.4c0-.71.252-1.395.756-2.057.504-.662 1.188-1.185 2.051-1.571.864-.386 1.812-.579 2.847-.579 1.639 0 2.923.41 3.852 1.23.93.82 1.411 1.948 1.446 3.385v6.548c0 1.306.167 2.345.5 3.116v.21zM56.668 8.81c0-.666-.255-1.194-.763-1.584-.508-.39-1.205-.585-2.09-.585-.86 0-1.576.223-2.15.67-.574.447-.861.973-.861 1.578h-2.42c0-1.236.518-2.248 1.552-3.037 1.034-.789 2.327-1.183 3.879-1.183 1.665 0 2.962.357 3.891 1.072.93.715 1.394 1.735 1.394 3.06a2.95 2.95 0 0 1-.578 1.763c-.386.535-.934.96-1.644 1.276 1.657.56 2.485 1.664 2.485 3.31 0 1.306-.504 2.34-1.512 3.101-1.008.762-2.354 1.143-4.036 1.143-1.64 0-2.992-.4-4.057-1.203-1.065-.802-1.597-1.887-1.597-3.254h2.42c0 .693.308 1.286.926 1.782.618.495 1.387.742 2.308.742.929 0 1.678-.214 2.248-.642.57-.428.854-.983.854-1.665 0-.795-.238-1.366-.716-1.71-.478-.346-1.22-.519-2.229-.519H51.54V10.86h2.643c1.656-.044 2.485-.727 2.485-2.05zm-27.98 8.35h6.535V7.165h-4.378l-.145 3.392c-.149 2.831-.82 5.031-2.011 6.6zm-2.879 0l.842-1.04c.947-1.227 1.486-3.067 1.617-5.522l.224-5.68h9.164v12.241h1.827v6.166h-2.432v-4.18h-9.927v4.18h-2.432l.013-6.166zm-10.492-6.746h-2.05v8.73h-2.525v-8.73h-2.17l-5.416 8.73H0L6.442 9.046.5 0h2.984l5.088 8.31h2.17V0h2.524v8.31h2.078L20.432 0h2.971L17.46 9.033l6.443 10.11h-3.142z"/>
    </symbol>
    <symbol id="message" viewBox="0 0 52 44">
      <path fill="#c2c2c2" d="M26 19.424L7.017 4.144h37.967zM49.438 1H2.562C1.7 1 1 1.705 1 2.573v34.586c0 .867.7 1.572 1.563 1.572h18.75v-3.145H4.125V5.843l20.898 16.82a1.55 1.55 0 0 0 1.954.002L47.875 5.843v18.739H51V2.572c0-.867-.7-1.571-1.563-1.571z"/><path fill="none" stroke="#c2c2c2" stroke-miterlimit="20" d="M26 19.424L7.017 4.144h37.967zM49.438 1H2.562C1.7 1 1 1.705 1 2.573v34.586c0 .867.7 1.572 1.563 1.572h18.75v-3.145H4.125V5.843l20.898 16.82a1.55 1.55 0 0 0 1.954.002L47.875 5.843v18.739H51V2.572c0-.867-.7-1.571-1.563-1.571z"/><path fill="#c2c2c2" d="M50.54 36.156l-4.685-4.718-2.21 2.223 1.914 1.926H29.125v3.144h16.587l-2.054 2.02L45.84 43l4.687-4.61a1.582 1.582 0 0 0 .013-2.236z"/><path fill="none" stroke="#c2c2c2" stroke-miterlimit="20" d="M50.54 36.156v0l-4.685-4.718v0l-2.21 2.223v0l1.914 1.926v0H29.125v3.144h16.587v0l-2.054 2.02v0L45.84 43v0l4.687-4.61a1.582 1.582 0 0 0 .013-2.236z"/>
    </symbol>
    <symbol id="outer-link" viewBox="0 0 18 18">
      <path d="M17.182 0h-6.546a.818.818 0 0 0 0 1.636h4.57l-8.42 8.422a.818.818 0 1 0 1.156 1.157l8.422-8.422v4.57a.818.818 0 0 0 1.636 0V.819A.818.818 0 0 0 17.182 0z"/><path d="M13.91 8.182a.818.818 0 0 0-.82.818v7.364H1.637V4.909H9a.818.818 0 0 0 0-1.636H.818A.818.818 0 0 0 0 4.09v13.09c0 .453.366.819.818.819H13.91a.818.818 0 0 0 .818-.818V9a.818.818 0 0 0-.818-.818z"/>
    </symbol>
    <symbol id="pin-2" viewBox="0 0 18 18">
      <g id="Group_2391" data-name="Group 2391" transform="translate(-355 -1163)"><g id="Ellipse_37" data-name="Ellipse 37" transform="translate(355 1163)" fill="#fff" stroke="#e43437" stroke-width="1"><circle cx="9" cy="9" r="9" stroke="none"/><circle cx="9" cy="9" r="8.5" fill="none"/></g><circle id="Ellipse_36" data-name="Ellipse 36" cx="5" cy="5" r="5" transform="translate(359 1167)" fill="#e43437"/></g>
    </symbol>
    <symbol id="pin" viewBox="0 0 40 53">
      <path fill="#e43437" d="M20 30.79c-5.937 0-10.79-4.852-10.79-10.79 0-5.937 4.853-10.789 10.79-10.789 5.937 0 10.79 4.852 10.79 10.79 0 5.937-4.853 10.79-10.79 10.79zM20 0C8.972 0 0 8.974 0 20a19.82 19.82 0 0 0 3.99 11.99l14.777 19.903c.037.048.094.067.135.11.738.79 1.804.592 2.33-.11 4.255-5.678 12.055-16.282 15.054-20.282l.002-.005.019-.025A19.857 19.857 0 0 0 40 20.001C40 8.973 31.028 0 20 0z"/>
    </symbol>
    <symbol id="plus" viewBox="0 0 12 12">
      <path d="M7.66 4.426H12v2.955H7.66V12H4.352V7.381H0V4.426h4.353V0h3.306z"/>
    </symbol>
    <symbol id="quote" viewBox="0 0 172 116">
      <path fill="#e43437" d="M38.25 72.511a66.827 66.827 0 0 1 2.068 16.497c0 9.422-1.985 18.494-5.636 26.992 21.526-14.904 35.082-36.245 35.308-59.976H70V0H0v72.511zm103.677 16.411c0 9.456-1.975 18.55-5.626 27.078 21.25-14.765 34.732-35.842 35.288-59.296l.411-.48V0h-70v72.77h37.962a67.55 67.55 0 0 1 1.965 16.152z" opacity=".1"/>
    </symbol>
    <symbol id="rails" viewBox="0 0 48 51">
      <path d="M45.056 28.123h-6.56v-5.245h6.56zm0 12.217v5.245h-6.56V40.34zm-32.61-29.68V5.417h23.107v5.245zm0 26.72v-6.297h23.107v6.297zm23.107 8.205H12.447V40.34h23.106zM12.447 22.878h23.106v5.245H12.447zm0-9.257h23.106v6.297H12.447zm-9.504-2.96V5.416h6.56v5.245zm0 17.462v-5.245h6.56v5.245zm0 17.462V40.34h6.56v5.245zM38.496 5.416h6.56v5.245h-6.56zm8.032 8.205c.813 0 1.472-.663 1.472-1.48V3.937c0-.818-.66-1.48-1.472-1.48h-8.032V1.48c0-.817-.659-1.48-1.471-1.48-.813 0-1.472.663-1.472 1.48v.977H12.447V1.48c0-.817-.66-1.48-1.472-1.48-.813 0-1.472.663-1.472 1.48v.977H1.47C.66 2.457 0 3.119 0 3.937v8.204c0 .817.659 1.48 1.471 1.48h8.032v6.297H1.471c-.812 0-1.471.663-1.471 1.48v8.205c0 .817.659 1.48 1.471 1.48h8.032v6.297H1.471C.66 37.38 0 38.043 0 38.86v8.204c0 .818.659 1.48 1.471 1.48h8.032v.977c0 .817.659 1.48 1.472 1.48s1.472-.663 1.472-1.48v-.977h23.106v.977c0 .817.659 1.48 1.472 1.48.812 0 1.471-.663 1.471-1.48v-.977h8.032c.813 0 1.472-.662 1.472-1.48V38.86c0-.817-.66-1.48-1.472-1.48h-8.032v-6.297h8.032c.813 0 1.472-.663 1.472-1.48v-8.205c0-.817-.66-1.48-1.472-1.48h-8.032v-6.297h8.032z"/>
    </symbol>
    <symbol id="search" viewBox="0 0 32 32">
      <path d="M13 22c-4.963 0-9-4.037-9-9s4.037-9 9-9 9 4.037 9 9-4.037 9-9 9zm10.483-1.345A12.913 12.913 0 0 0 26 13c0-7.168-5.832-13-13-13S0 5.832 0 13s5.832 13 13 13c2.863 0 5.505-.942 7.655-2.517L29.172 32 32 29.172l-8.517-8.517z"/>
    </symbol>
    <symbol id="stock-user" viewBox="0 0 40 40">
      <path fill="#c2c2c2" d="M20 20c-4.652 0-8.438-3.785-8.438-8.438 0-4.652 3.786-8.437 8.438-8.437 4.652 0 8.437 3.785 8.437 8.438C28.437 16.215 24.652 20 20 20zm14.142 5.858a19.923 19.923 0 0 0-7.6-4.767c3.03-2.087 5.02-5.58 5.02-9.528C31.562 5.187 26.376 0 20 0 13.624 0 8.437 5.187 8.437 11.563c0 3.949 1.991 7.441 5.021 9.528a19.923 19.923 0 0 0-7.6 4.767A19.87 19.87 0 0 0 0 40h3.125c0-9.305 7.57-16.875 16.875-16.875S36.875 30.695 36.875 40H40a19.87 19.87 0 0 0-5.858-14.142z"/>
    </symbol>
    <symbol id="tasks" viewBox="0 0 52 52">
      <path d="M20.8 12.133c0 4.78-3.888 8.667-8.667 8.667-4.778 0-8.666-3.888-8.666-8.667 0-4.778 3.888-8.666 8.666-8.666V0C5.444 0 0 5.443 0 12.133c0 6.691 5.444 12.134 12.133 12.134 6.69 0 12.134-5.443 12.134-12.134z"/><path d="M39.867 20.8c-4.78 0-8.667-3.888-8.667-8.667 0-4.778 3.888-8.666 8.667-8.666 4.778 0 8.666 3.888 8.666 8.666 0 4.78-3.888 8.667-8.666 8.667zm0-20.8c-6.69 0-12.134 5.443-12.134 12.133 0 6.691 5.445 12.134 12.134 12.134S52 18.824 52 12.133C52 5.443 46.556 0 39.867 0z"/><path d="M20.8 39.867c0 4.779-3.888 8.666-8.667 8.666-4.778 0-8.666-3.888-8.666-8.666 0-4.78 3.888-8.667 8.666-8.667v-3.467C5.444 27.733 0 33.176 0 39.867 0 46.557 5.444 52 12.133 52c6.69 0 12.134-5.443 12.134-12.133z"/><path d="M39.867 48.533c-4.78 0-8.667-3.887-8.667-8.666 0-4.78 3.888-8.667 8.667-8.667 4.778 0 8.666 3.888 8.666 8.667s-3.888 8.666-8.666 8.666zm0-20.8c-6.69 0-12.134 5.443-12.134 12.134 0 6.69 5.445 12.133 12.134 12.133C46.555 52 52 46.557 52 39.867c0-6.691-5.444-12.134-12.133-12.134z"/><path d="M21.308 2.241l-9.175 9.175-2.24-2.241-2.452 2.45 3.467 3.467a1.729 1.729 0 0 0 2.45 0l10.4-10.4z"/><path d="M21.308 29.975l-9.175 9.174-2.24-2.241-2.452 2.45 3.467 3.467a1.729 1.729 0 0 0 2.45 0l10.4-10.4z"/>
    </symbol>
    <symbol id="telegram" viewBox="0 0 18 16">
      <path d="M12.856 4.54l-5.51 5.025-.685 2.586-1.268-3.17zM4.331 9.167l2.239 5.597 2.914-2.915 4.997 3.972L18 .001 0 7.498z"/>
    </symbol>
    <symbol id="train" viewBox="0 0 516 560">
      <path fill="none" stroke="#49515a" stroke-linecap="round" stroke-linejoin="round" stroke-miterlimit="20" stroke-width="3.25" d="M2 557.914h2.387"/><path fill="none" stroke="#49515a" stroke-dasharray="3.999 6.998" stroke-linecap="round" stroke-linejoin="round" stroke-miterlimit="20" stroke-width="3.25" d="M12.741 557.914h494.695"/><path fill="none" stroke="#49515a" stroke-linecap="round" stroke-linejoin="round" stroke-miterlimit="20" stroke-width="3.25" d="M511.612 557.914H514"/><g fill="none" stroke="#49515a" stroke-linecap="round" stroke-linejoin="round" stroke-miterlimit="20" stroke-width="2.5"><path d="M57.815 330.564v-27.596-13.582c0-2.054.195-3.998 1.144-5.864 1.901-3.738 5.702-5.753 9.811-5.758 4.293-.005 8.585 0 12.878 0H443.11c3.004 0 6.19-.321 8.99.985a10.592 10.592 0 0 1 5.061 5.017c.899 1.89 1.023 3.832 1.023 5.88V330.564"/><path d="M409.824 315.041h-12.507c-2.781 0-5.412-.343-7.921-1.633-5.438-2.795-8.646-8.845-7.909-14.916.737-6.072 5.3-11.176 11.248-12.59 3.284-.78 6.914-.4 10.249-.4h4.044c.662 0 1.88-.24 2.501 0 .43.166.134-.128.295.248.158.37 0 1.16 0 1.56v27.731z"/><path d="M106.177 285.503V313.354c0 .37-.147 1.098 0 1.44.151.355-.121.127.333.247.735.196 1.806 0 2.562 0 3.986 0 8.082.29 12.058-.054 6.093-.528 11.348-4.913 12.967-10.81 1.617-5.897-.674-12.353-5.643-15.913a14.888 14.888 0 0 0-8.34-2.758c-4.152-.087-8.314-.002-12.467-.002l-1.47-.001z"/><path d="M415.058 285.502h12.507c2.781 0 5.412.344 7.922 1.634 5.437 2.795 8.646 8.844 7.908 14.916-.736 6.072-5.3 11.176-11.247 12.59-3.284.78-6.914.4-10.25.4h-4.044c-.661 0-1.879.24-2.5 0-.43-.167-.134.128-.296-.248-.157-.37 0-1.16 0-1.56V286.24v-.736z"/><path d="M40.583 330.564H475.42"/><path d="M100.942 315.041v-25.187-2.664c0-.37.147-1.098 0-1.44-.152-.355.12-.127-.333-.247-.735-.196-1.806 0-2.563 0-3.986 0-8.081-.29-12.058.054-6.093.528-11.347 4.913-12.966 10.81-1.617 5.897.673 12.353 5.643 15.913a14.88 14.88 0 0 0 8.34 2.758c4.152.087 8.313.002 12.466.002l1.471.001z"/><path d="M475.418 99.535V382.5c0 1.743.016 3.46-.354 5.177a15.784 15.784 0 0 1-6.664 9.765c-2.651 1.757-5.724 2.6-8.89 2.613-2.411.009-4.822 0-7.233 0H58.33c-2.095 0-4.146.004-6.194-.555a15.79 15.79 0 0 1-9.416-7.23c-1.463-2.51-2.128-5.318-2.135-8.209-.005-1.924 0-3.847 0-5.77v-12.34-17.734-22.195-25.514-27.632-28.899-28.857-27.973-25.89-22.637-18.494V107v-6.788c0-3.817.274-7.614.976-11.37 1.114-5.958 3.216-11.706 6.154-17.004C50.686 66.48 54.46 61.6 58.728 57.216c4.067-4.178 8.576-7.93 13.334-11.293 5.067-3.584 10.399-6.785 15.898-9.658 5.688-2.972 11.541-5.61 17.49-8.013 5.672-2.29 11.445-4.335 17.27-6.199a333.602 333.602 0 0 1 18.434-5.305c6.193-1.596 12.428-3.019 18.69-4.319 6.26-1.3 12.552-2.438 18.86-3.488 6.185-1.03 12.396-1.907 18.616-2.697 6.615-.84 13.241-1.545 19.88-2.184 5.93-.57 11.882-1.017 17.83-1.337 6.437-.347 12.877-.654 19.323-.71 6.715-.06 13.414.108 20.123.374 6.093.241 12.184.66 18.262 1.157 6.714.55 13.41 1.231 20.105 1.976 6.228.693 12.443 1.57 18.64 2.497a454 454 0 0 1 18.26 3.13 418.966 418.966 0 0 1 18.491 3.957c6.145 1.467 12.267 3.061 18.32 4.87 6.18 1.844 12.311 3.844 18.355 6.096 5.88 2.191 11.678 4.605 17.344 7.304 5.56 2.648 10.971 5.591 16.184 8.869 4.958 3.116 9.708 6.592 14.098 10.47 4.657 4.112 8.903 8.704 12.447 13.812 3.46 4.99 6.211 10.485 7.983 16.3 1.653 5.431 2.408 11.041 2.453 16.71z"/><path d="M272.694 99.535h-29.389"/><path d="M324.689 431.92v13.573c0 .304.223 1.931-.005 2.151-.09.087-.7 0-.82 0H192.107c-.116 0-.706.085-.793 0-.236-.23-.002-1.922-.002-2.237V434.42v-2.502"/><path d="M125.215 515.826c0 3.67 1.585 6.878 5.218 8.075 1.754.578 3.594.633 5.423.633H374.53c3.873 0 8.718.67 12.29-1.15 4.19-2.135 3.964-6.746 3.964-10.809v-5.06c0-.26.144-1.273-.04-1.435-.202-.177-1.357 0-1.612 0H128.236c-.823 0-1.767-.13-2.583 0-.075.012-.363-.052-.418 0-.206.194-.02 1.515-.02 1.797v7.949z"/><path d="M459.732 400.057v42.652c0 .257.105.884-.045 1.072-.278.35-1.705.538-2.119.67l-2.938.926c-1.22.385-2.436.793-3.652 1.194-5.483 1.81-10.947 3.715-16.266 5.968-4.333 1.835-8.992 3.853-12.466 7.115-3.06 2.873-4.989 7.09-6.014 11.1-1.233 4.823-1.249 9.879-1.265 14.825-.018 5.56.542 11.609-1.143 16.999-1.034 3.308-3.035 6.165-5.83 8.208-3.907 2.856-8.807 4.088-13.537 4.691a61.94 61.94 0 0 1-3.67.348"/><path d="M56.268 400.057v42.652c0 .257-.105.884.046 1.072.278.35 1.704.538 2.118.67l2.938.926c1.221.385 2.437.793 3.653 1.194 5.483 1.81 10.946 3.715 16.266 5.968 4.333 1.835 8.992 3.853 12.466 7.115 3.06 2.873 4.988 7.09 6.014 11.1 1.233 4.823 1.248 9.879 1.265 14.825.018 5.56-.542 11.609 1.142 16.999 1.034 3.308 3.036 6.165 5.83 8.208 3.908 2.856 8.808 4.088 13.537 4.691 1.22.155 2.445.265 3.671.348"/><path d="M439.908 82.37V111.195c0 .327.114.902 0 1.211-.142.385.095.12-.172.265-.184.1-.71 0-.916 0H274.39"/><path d="M323.964 203.121V181.79v-29.911c0-.68.3-2.202 0-2.827-.298-.623-3.385-.214-4.183-.214-1.12 0-.934-.023-.934 1.003v52.664c0 .092-.066.537 0 .608.216.232 1.887.012 2.21.012.97-.003 1.938-.003 2.907-.003z"/><path d="M323.964 173.865c1.06.01 1.637.728 2.123 1.552l2.141 3.639 8.788 14.933a555472.89 555472.89 0 0 0 23.732 40.322c.373.634.884 1.297 1.137 1.997.472 1.3-.43 2.749-1.826 2.85-1.043.075-1.712-.6-2.201-1.423-5.61-9.44-11.14-18.927-16.709-28.392l-16.892-28.701-.292-.496"/><path d="M353.46 230.264c-2.17 0-4.344-.039-6.514 0-1.045.017-2.014.259-2.866.892-2.505 1.859-1.827 5.368-1.827 8.063v8.385c0 1.072-.125 2.25.172 3.297.665 2.345 2.748 3.29 4.984 3.29h22.142c.965 0 1.997.097 2.955-.062 2.431-.402 3.772-2.523 3.784-4.845.024-4.705.024-9.41 0-14.114-.012-2.31-1.329-4.418-3.746-4.84-1.348-.235-2.826-.066-4.182-.066H358.363"/><path d="M349.34 223.263H296.252c-3.057 0-6.087.104-9.076-.675a21.057 21.057 0 0 1-10.196-6.15 21.042 21.042 0 0 1-5.21-10.793c-.38-2.361-.268-4.784-.268-7.168v-15.354-22.168-23.63-19.746-10.511c.002-3.14.528-6.199 1.811-9.08 1.364-3.065 3.49-5.44 5.789-7.814l14.032-14.502 12.906-13.338c2.38-2.46 4.983-4.515 8.199-5.786 3.586-1.418 7.485-1.784 11.282-1.157 2.38.392 4.756.82 7.134 1.23 5.611.97 11.223 1.937 16.836 2.906l22.223 3.835 23.297 4.02 20.056 3.461 12.5 2.157c2.481.428 4.907.888 7.221 1.945a21.05 21.05 0 0 1 8.99 7.83c2.136 3.36 3.235 7.264 3.266 11.237.017 2.225 0 4.452 0 6.678v97.922c0 2.218.102 4.475-.213 6.676a21.036 21.036 0 0 1-5.025 10.882 21.057 21.057 0 0 1-10.088 6.325c-2.773.774-5.558.77-8.403.77h-69.069"/><path d="M347.64 220.374h-49.05c-3.03 0-6.243.256-9.245-.268-8.794-1.534-14.94-9.327-14.956-18.137-.016-8.403 0-16.804 0-25.207v-42.325-27.195c0-3.377.65-6.627 2.322-9.597 1.697-3.016 4.408-5.404 6.792-7.868l24.887-25.72c2.781-2.874 6.095-4.968 10.064-5.748 2.758-.542 5.435-.268 8.162.203l27.68 4.776 41.995 7.247 30 5.176c2.272.392 4.54.712 6.69 1.598a18.175 18.175 0 0 1 9.824 9.85c1.102 2.689 1.35 5.462 1.35 8.325V197.67c0 1.904.08 3.83-.034 5.732-.576 9.51-8.64 16.903-18.09 16.972-9.052.067-18.106 0-27.16 0H352.543"/><path d="M393.95 272.544c.894-.007 1.574-.438 2.139-1.097 1.192-1.391 2.296-2.87 3.442-4.302 1.11-1.39 1.39-3.433-.461-4.415-1.242-.658-3.24-.305-4.566-.305h-71.138c-1.296 0-3.123-.312-4.239.526-1.909 1.436-.776 3.366.366 4.793 1.025 1.283 1.987 2.68 3.107 3.882.566.608 1.228.88 2.047.917 2.278.105 4.584 0 6.863 0h60.869l1.57.001z"/><path d="M367.299 499.526V488.44c0-.31.196-1.5 0-1.758-.102-.135-.05-.01-.258-.09-.74-.282-2.157 0-2.938 0h-31.698c-.525 0-2.152-.292-2.61 0-.358.23-.11 2.102-.11 2.579v9.605c0 .16-.074.658.032.75.276.24 1.84 0 2.187 0h35.395z"/><path d="M367.299 460.432v-4.572-3.042c0-.16.108-.95-.009-1.058-.2-.183-1.446 0-1.7 0h-33.625c-.403 0-1.842-.244-2.184 0-.372.268-.096 2.428-.096 2.94v3.234c0 .499-.256 1.859 0 2.296.19.323.53.202 1.036.202h36.578z"/><path d="M367.299 431.92v-31.142c0-1.024-.287-.721-1.298-.721h-39.427c-.403 0-1.309-.18-1.674 0-.495.241-.209 1.946-.209 2.561V430.12c0 .3-.192 1.478 0 1.715.108.132.25.062.493.083 1.763.153 3.61 0 5.38 0h35.886c.28.002.565.002.849.002z"/><path d="M448.658 319.157V296.37v-12.832c0-.297.225-1.932 0-2.15-.122-.117-.925-.002-1.083-.002h-68.93c-.573 0-1.603-.206-2.144 0-.378.145-.278-.003-.278.583v32.728c0 1.302-.032 2.608 0 3.91.014.566-.103.413.278.55.565.203 1.6 0 2.19 0H447.577l1.082.001z"/><path d="M387.174 300.272c.006-3.748 2.415-7.182 5.946-8.447 3.528-1.263 7.577-.143 9.955 2.754 2.378 2.896 2.687 7.086.762 10.302-1.924 3.214-5.764 4.92-9.44 4.191-3.66-.727-6.552-3.748-7.119-7.439a8.964 8.964 0 0 1-.104-1.361z"/><path d="M437.708 300.272c-.006-3.748-2.415-7.182-5.946-8.447-3.526-1.263-7.576-.143-9.954 2.754-2.378 2.896-2.687 7.086-.763 10.302 1.924 3.214 5.764 4.92 9.439 4.191 3.662-.727 6.552-3.748 7.12-7.439.068-.45.103-.906.104-1.361z"/><path d="M490.803 190.222c2.625-.002 4.41-2.206 4.434-4.707.043-4.48 0-8.962 0-13.442V152.87v-5.443c0-.852-.042-1.663-.407-2.455a4.472 4.472 0 0 0-3.53-2.551c-2.276-.258-4.683-.028-6.97-.028-2.753 0-5.185 1.402-5.288 4.437-.127 3.74 0 7.505 0 11.246v26.249c0 .843-.073 1.733.138 2.558 1.028 4.022 5.402 3.338 8.542 3.338h3.08z"/><path d="M475.418 213.406l4.796-9.196 2.708-5.19c.491-.941.444-1.457.444-2.568v-6.23"/><path d="M487.139 190.222v6.71c0 .652.158 1.527-.001 2.164-.096.38-.416.796-.595 1.14-2.417 4.636-4.834 9.27-7.253 13.905-.437.838-1.22 1.862-1.405 2.793-.27 1.363 0 3.055 0 4.437v16.683c0 1.778.088 3.58 0 5.355-.063 1.282-1.106 2.368-2.467 1.93"/><path d="M475.418 99.535h-28.375"/><path d="M40.583 99.535h28.374"/><path d="M28.861 190.222v6.71c0 .652-.157 1.527.002 2.164.095.38.415.796.594 1.14 2.417 4.636 4.836 9.27 7.253 13.905.437.838 1.221 1.862 1.405 2.793.27 1.363 0 3.055 0 4.437v16.683c0 1.778-.087 3.58 0 5.355.063 1.282 1.107 2.368 2.468 1.93"/><path d="M40.583 213.406l-4.797-9.196-2.707-5.19c-.492-.941-.444-1.457-.444-2.568v-6.23"/><path d="M25.198 190.222c-2.625-.002-4.41-2.206-4.435-4.707-.043-4.48 0-8.962 0-13.442V152.87v-5.443c0-.852.042-1.663.407-2.455a4.471 4.471 0 0 1 3.531-2.551c2.276-.258 4.682-.028 6.97-.028 2.752 0 5.185 1.402 5.287 4.437.127 3.74 0 7.505 0 11.246v26.249c0 .843.073 1.733-.138 2.558-1.028 4.022-5.402 3.338-8.541 3.338h-3.081z"/><path d="M78.292 300.272c.006-3.748 2.415-7.182 5.946-8.447 3.528-1.263 7.577-.143 9.955 2.754 2.378 2.896 2.687 7.086.763 10.302-1.925 3.214-5.765 4.92-9.44 4.191-3.66-.727-6.552-3.748-7.119-7.439a9.12 9.12 0 0 1-.105-1.361z"/><path d="M128.826 300.272c-.006-3.748-2.415-7.182-5.946-8.447-3.527-1.263-7.576-.143-9.954 2.754-2.378 2.896-2.687 7.086-.763 10.302 1.924 3.214 5.765 4.92 9.44 4.191 3.661-.727 6.552-3.748 7.12-7.439.069-.45.103-.906.103-1.361z"/><path d="M67.342 319.157V296.37v-12.832c0-.297-.224-1.932 0-2.15.122-.117.925-.002 1.083-.002H137.355c.573 0 1.604-.206 2.144 0 .379.145.278-.003.278.583v32.728c0 1.302.033 2.608 0 3.91-.014.566.103.413-.278.55-.564.203-1.6 0-2.19 0H68.425l-1.083.001z"/><path d="M148.702 431.92v-31.142c0-1.024.286-.721 1.297-.721H189.427c.402 0 1.308-.18 1.673 0 .496.241.21 1.946.21 2.561V430.12c0 .3.192 1.478 0 1.715-.108.132-.251.062-.494.083-1.763.153-3.61 0-5.379 0H149.55c-.28.002-.564.002-.848.002z"/><path d="M148.702 460.432v-4.572-3.042c0-.16-.109-.95.008-1.058.2-.183 1.447 0 1.701 0h33.625c.402 0 1.842-.244 2.183 0 .373.268.097 2.428.097 2.94v3.234c0 .499.255 1.859 0 2.296-.19.323-.531.202-1.036.202H148.7z"/><path d="M148.702 499.526V488.44c0-.31-.196-1.5 0-1.758.101-.135.05-.01.258-.09.74-.282 2.157 0 2.937 0h31.698c.526 0 2.153-.292 2.61 0 .358.23.111 2.102.111 2.579v9.605c0 .16.074.658-.032.75-.276.24-1.84 0-2.187 0h-35.395z"/><path d="M122.05 272.544c-.893-.007-1.574-.438-2.138-1.097-1.193-1.391-2.296-2.87-3.442-4.302-1.111-1.39-1.39-3.433.46-4.415 1.242-.658 3.24-.305 4.567-.305h71.137c1.297 0 3.123-.312 4.24.526 1.908 1.436.775 3.366-.366 4.793-1.025 1.283-1.988 2.68-3.107 3.882-.566.608-1.229.88-2.048.917-2.277.105-4.583 0-6.862 0h-60.869l-1.571.001z"/><path d="M168.361 220.374h49.05c3.03 0 6.242.256 9.244-.268 8.795-1.534 14.94-9.327 14.957-18.137.015-8.403 0-16.804 0-25.207v-42.325-27.195c0-3.377-.651-6.627-2.322-9.597-1.698-3.016-4.409-5.404-6.792-7.868l-24.887-25.72c-2.782-2.874-6.095-4.968-10.065-5.748-2.757-.542-5.435-.268-8.161.203l-27.681 4.776-41.994 7.247-30 5.176c-2.273.392-4.54.712-6.69 1.598a18.175 18.175 0 0 0-9.825 9.85c-1.102 2.689-1.349 5.462-1.349 8.325V197.67c0 1.904-.08 3.83.034 5.732.575 9.51 8.64 16.903 18.09 16.972 9.051.067 18.106 0 27.159 0h46.33"/><path d="M166.66 223.263h53.089c3.057 0 6.086.104 9.075-.675a21.057 21.057 0 0 0 10.196-6.15 21.041 21.041 0 0 0 5.21-10.793c.38-2.361.268-4.784.268-7.168v-15.354-22.168-23.63-19.746-10.511c-.001-3.14-.528-6.199-1.81-9.08-1.364-3.065-3.491-5.44-5.79-7.814-4.676-4.834-9.354-9.669-14.032-14.502L209.96 62.334c-2.38-2.46-4.983-4.515-8.199-5.786-3.585-1.418-7.484-1.784-11.281-1.157-2.38.392-4.756.82-7.134 1.23-5.612.97-11.224 1.937-16.836 2.906l-22.224 3.835-23.297 4.02-20.055 3.461L88.433 73c-2.48.428-4.906.888-7.22 1.945a21.05 21.05 0 0 0-8.99 7.83c-2.136 3.36-3.236 7.264-3.267 11.237-.016 2.225 0 4.452 0 6.678v97.922c0 2.218-.101 4.475.214 6.676a21.035 21.035 0 0 0 5.024 10.882 21.056 21.056 0 0 0 10.088 6.325c2.773.774 5.558.77 8.403.77h69.07"/><path d="M162.54 230.264c2.17 0 4.345-.039 6.515 0 1.044.017 2.014.259 2.866.892 2.504 1.859 1.826 5.368 1.826 8.063v8.385c0 1.072.126 2.25-.172 3.297-.665 2.345-2.748 3.29-4.983 3.29h-22.143c-.964 0-1.997.097-2.954-.062-2.432-.402-3.772-2.523-3.784-4.845-.024-4.705-.024-9.41 0-14.114.012-2.31 1.328-4.418 3.746-4.84 1.347-.235 2.825-.066 4.181-.066H157.637"/><path d="M192.036 173.865c-1.06.01-1.636.728-2.122 1.552l-2.142 3.639-8.788 14.933a537182.47 537182.47 0 0 1-23.731 40.322c-.374.634-.885 1.297-1.138 1.997-.471 1.3.431 2.749 1.827 2.85 1.043.075 1.711-.6 2.2-1.423 5.61-9.44 11.14-18.927 16.71-28.392l16.892-28.701.291-.496"/><path d="M192.036 203.121V181.79v-29.911c0-.68-.3-2.202 0-2.827.299-.623 3.386-.214 4.183-.214 1.121 0 .935-.023.935 1.003v52.664c0 .092.065.537 0 .608-.216.232-1.888.012-2.211.012-.97-.003-1.937-.003-2.907-.003z"/><path d="M76.092 82.37V111.195c0 .327-.113.902 0 1.211.142.385-.094.12.173.265.185.1.71 0 .917 0H241.61"/><path d="M234.603 46.128c-2.253.001-4.312 1.484-5.023 3.624-.728 2.19.11 4.136 1.58 5.753l18.467 20.315c1.963 2.159 3.8 5.123 7.017 5.243 1.616.06 3.423.2 4.928-.529 1.19-.577 1.997-1.63 2.868-2.589l19.004-20.904c1.713-1.886 3.611-3.629 3.185-6.418-.341-2.228-2.119-4.04-4.34-4.42-1.45-.247-3.032-.075-4.492-.075h-43.194z"/><path d="M234.603 43.24c-3.42.002-6.554 2.21-7.705 5.434-1.134 3.177-.116 6.31 2.076 8.721l18.575 20.433c2.551 2.806 4.805 5.966 8.939 6.121 2.123.08 4.318.146 6.28-.784 1.444-.685 2.457-1.787 3.51-2.946l19.012-20.914c2.415-2.656 4.764-5.155 4.204-9.049-.487-3.386-3.122-6.177-6.476-6.855-2.36-.478-4.992-.162-7.372-.162h-41.043z"/><path d="M145.052 524.533v30.705c0 .51-.556 2.091 0 2.534.443.354 3.031.142 3.984.142h18.465c.965 0 2.75.182 3.658 0 .822-.163.5-.456.5-1.022v-3.84-24.735c0-1.08.205-2.22 0-3.296-.136-.703-.297-.487-1.885-.487"/><path d="M370.927 524.533v30.705c0 .51.605 2.091 0 2.534-.483.354-3.3.142-4.338.142h-20.1c-1.05 0-2.993.182-3.982 0-.895-.163-.544-.456-.544-1.022v-3.84-24.735c0-1.08-.224-2.22 0-3.296.147-.703.323-.487 2.052-.487h24.718l2.194-.001z"/></g><path fill="none" stroke="#49515a" stroke-linecap="round" stroke-linejoin="round" stroke-miterlimit="20" stroke-width="3.5" d="M483.366 190.22c-2.19-.067-4.052-1.759-4.297-3.943-.195-1.744-.027-3.584-.027-5.334v-25.799c0-2.648-.015-5.298 0-7.948.01-1.835.774-3.52 2.497-4.357.924-.449 1.872-.445 2.872-.445 1.984 0 3.968-.005 5.952 0 2.13.005 4.082 1.047 4.702 3.215.433 1.509.171 3.362.171 4.899v34.431c0 1.71-.307 3.295-1.775 4.396-.834.626-1.79.868-2.817.887-.978.018-1.956-.007-2.933 0-.646.005-.55-.054-.572.553-.077 2.047 0 4.11 0 6.158 0 .893.154 1.771-.217 2.578-1.573 3.41-3.495 6.701-5.232 10.032-.93 1.78-1.856 3.56-2.785 5.34-.315.604-.86 1.324-1.02 1.989-.188.787 0 1.85 0 2.652V242.782c0 .591.053 1.188-.26 1.72a1.906 1.906 0 0 1-2.207.841v137.149c0 1.524.03 3.039-.23 4.548-1.032 5.972-5.56 10.925-11.414 12.487-.658.175-1.327.308-2.003.396-.32.042-1.852-.059-2.037.134-.09.092 0 .752 0 .865v41.705c0 .211.123.921 0 1.112-.288.445-2.34.766-2.837.924-1.037.327-2.077.648-3.113.982-8.796 2.842-17.875 5.73-26.009 10.192-2.634 1.445-5.246 3.141-7.105 5.547-2.428 3.143-4.006 7.021-4.785 10.896-.797 3.959-.9 8.042-.915 12.069-.019 4.905.325 9.993-.394 14.866-.97 6.58-4.798 11.422-10.897 13.962-3.81 1.587-7.959 2.272-12.054 2.589-.503.04-.696-.063-.842.363-.07.206-.018.528-.035.751-.035.468-.095.936-.188 1.396a8.188 8.188 0 0 1-.826 2.326c-2.311 4.207-7.614 3.93-11.732 3.93h-4.96c-.337 0-1.76-.187-1.97.057-.16.186 0 1.285 0 1.512V556.705c0 .174.13 1.065 0 1.199-.203.211-1.753.01-2.036.01h-24.697c-.278 0-1.682.18-1.864-.021-.144-.159 0-1.08 0-1.286V538.61v-9.473-3.09c0-.217.156-1.303 0-1.477-.27-.302-2.288-.036-2.696-.036h1.859H172.815c-.592 0-.263-.088-.85 0-.476.072-.288-.122-.434.265-.197.524 0 1.524 0 2.077V557.22c0 .297.068.569-.109.694-.162.115-.78 0-.987 0h-24.537c-.468 0-.798.131-.963-.179-.193-.36 0-1.393 0-1.789v-8.204-19.583-2.775c0-.168.08-.743-.03-.85-.105-.103-.934 0-1.065 0H136.595c-3.903 0-8.55-.247-10.49-4.257-.368-.76-.598-1.579-.732-2.41-.076-.476-.12-.957-.14-1.44-.02-.445.054-.446-.295-.62-.37-.186-1.137-.087-1.554-.126-4.029-.38-8.108-1.143-11.81-2.831-6.102-2.782-9.54-8-10.275-14.643-.982-8.88.66-17.966-1.36-26.761-.85-3.7-2.463-7.476-4.894-10.422-2.061-2.5-4.94-4.22-7.776-5.7-8.007-4.181-16.783-7.032-25.365-9.778-1.433-.458-2.869-.905-4.302-1.358-.526-.166-1.152-.178-1.332-.624-.16-.397 0-1.215 0-1.635v-2.86-19.416-17.32c0-.593.103-1.289 0-1.873-.091-.506.02-.389-.612-.413a15.72 15.72 0 0 1-4.07-.703c-5.774-1.804-10.085-6.938-10.87-12.935-.324-2.473-.134-5.061-.134-7.543V360.09v-29.526-22.59-41.52-21.112c-2.411.742-2.467-1.977-2.467-3.518V228.17v-7.162c0-1.266.187-2.696 0-3.951-.104-.693-.588-1.348-.915-1.974-1.054-2.021-2.11-4.043-3.163-6.066l-3.431-6.578c-.529-1.014-1.456-2.222-1.742-3.339-.118-.463-.004-1.102-.004-1.577v-3.811c0-.976.152-2.091 0-3.056-.014-.086.05-.377-.01-.436-.12-.12-.988 0-1.15 0-2.76 0-5.838.026-6.767-3.215-.537-1.876-.17-4.237-.17-6.146v-28.687c0-1.999-.333-4.328.106-6.307.613-2.764 3.043-3.473 5.517-3.473 2.034 0 4.08-.07 6.113 0 1.193.04 2.304.443 3.16 1.299 1.462 1.463 1.299 3.35 1.299 5.237v27.731c0 2.971.043 5.945 0 8.916-.031 2.16-1.33 4.091-3.526 4.55-.755.158-.798-.043-.798.773v3.413c0 1.281-.311 2.954.157 4.154.644 1.655 1.693 3.248 2.515 4.822l3.55 6.807 1.726 3.31v-8.128-20.304-26.594-27.107-21.553c0-3.342-.01-6.683 0-10.025.014-5.151.63-10.276 1.986-15.25 1.525-5.59 3.937-10.911 7.042-15.798 3.183-5.01 7.065-9.543 11.352-13.637 4.047-3.864 8.469-7.346 13.105-10.475 4.998-3.374 10.211-6.402 15.583-9.14 5.275-2.689 10.692-5.098 16.188-7.297a252.848 252.848 0 0 1 16.878-6.04 314.068 314.068 0 0 1 17.326-5.02c5.861-1.51 11.749-2.932 17.675-4.163 5.958-1.237 11.93-2.405 17.929-3.421 5.959-1.009 11.937-1.938 17.93-2.73 6.06-.8 12.133-1.553 18.218-2.138a685.218 685.218 0 0 1 19.469-1.62 410.709 410.709 0 0 1 17.564-.835c6.424-.16 12.833-.138 19.256.022 5.86.146 11.719.478 17.566.875 6.433.435 12.848 1.01 19.265 1.627 5.92.57 11.836 1.303 17.73 2.1 5.997.809 11.983 1.721 17.948 2.742a465.592 465.592 0 0 1 18.191 3.485c6.029 1.28 12.018 2.724 17.983 4.27 5.832 1.51 11.605 3.24 17.343 5.077a237.325 237.325 0 0 1 16.366 5.902c5.61 2.259 11.14 4.727 16.515 7.5 5.306 2.74 10.48 5.742 15.405 9.122 4.602 3.16 8.99 6.643 13.012 10.518 4.321 4.164 8.216 8.8 11.374 13.91 3.004 4.862 5.327 10.134 6.781 15.663 1.276 4.854 1.841 9.843 1.852 14.857.008 3.525 0 7.051 0 10.576v103.032l4.796-9.196 2.708-5.19c.491-.941.444-1.457.444-2.568.002-2.079 0-4.155.002-6.233z"/>
    </symbol>
    <symbol id="triangle" viewBox="0 0 12 8">
      <path fill="#49515a" d="M6 8L0 0h12z"/>
    </symbol>
    <symbol id="twitter" viewBox="0 0 20 16">
      <path d="M20 1.894a8.653 8.653 0 0 1-2.363.638A4.026 4.026 0 0 0 19.441.3a8.272 8.272 0 0 1-2.6.978A4.139 4.139 0 0 0 13.846 0c-2.27 0-4.098 1.814-4.098 4.038 0 .32.028.628.095.92A11.666 11.666 0 0 1 1.393.737a4.017 4.017 0 0 0-.562 2.04c0 1.399.731 2.638 1.821 3.356A4.098 4.098 0 0 1 .8 5.634v.045C.8 7.64 2.22 9.27 4.085 9.646c-.334.09-.698.132-1.075.132a3.68 3.68 0 0 1-.777-.068 4.132 4.132 0 0 0 3.832 2.812A8.32 8.32 0 0 1 .98 14.244c-.336 0-.659-.015-.981-.056A11.674 11.674 0 0 0 6.29 16c7.545 0 11.67-6.154 11.67-11.488 0-.178-.007-.35-.015-.522A8.111 8.111 0 0 0 20 1.894z"/>
    </symbol>
    <symbol id="vk" viewBox="0 0 21 12">
      <path d="M20.13 9.627c-.625-.75-1.36-1.39-2.057-2.07-.628-.612-.668-.967-.163-1.674.551-.772 1.144-1.514 1.7-2.283.519-.717 1.05-1.433 1.323-2.293.173-.547.02-.789-.541-.884a1.731 1.731 0 0 0-.295-.018L16.77.401c-.41-.006-.637.173-.782.536-.195.49-.397.981-.63 1.455-.529 1.074-1.12 2.113-1.948 2.992-.182.194-.384.439-.69.338-.381-.14-.494-.768-.487-.98L12.229.9c-.074-.55-.195-.794-.74-.9H8.033c-.462 0-.693.179-.94.467-.142.167-.184.275.108.33.573.11.896.48.982 1.056.138.919.128 1.841.049 2.764a2.57 2.57 0 0 1-.177.79c-.167.395-.437.476-.791.233-.321-.22-.547-.532-.767-.844-.83-1.17-1.49-2.434-2.03-3.761-.156-.384-.424-.616-.83-.623A84.807 84.807 0 0 0 .64.414c-.6.012-.78.303-.535.848 1.087 2.418 2.298 4.77 3.877 6.912.811 1.099 1.743 2.07 2.946 2.757 1.363.78 2.83 1.014 4.377.942.724-.034.941-.222.975-.944.022-.493.078-.984.322-1.428.239-.435.6-.518 1.018-.247.208.135.384.308.55.49.408.446.8.905 1.223 1.336.53.54 1.159.858 1.949.793h3.058c.493-.032.748-.636.465-1.186-.198-.385-.459-.728-.736-1.06z"/>
    </symbol>
    <symbol id="whatsapp" viewBox="0 0 18 18">
      <path d="M9 16.451h-.003a7.6 7.6 0 0 1-3.613-.915l-.233-.127-3.277.745.712-3.234-.137-.236c-.682-1.177-1.043-2.475-1.043-3.756C1.41 4.783 4.815 1.406 9 1.406c2.022.001 3.921.785 5.349 2.207 1.449 1.443 2.246 3.332 2.246 5.319-.002 4.146-3.409 7.52-7.594 7.52zm6.34-13.835A8.93 8.93 0 0 0 9 0a8.975 8.975 0 0 0-6.35 2.614A8.839 8.839 0 0 0 0 8.925v.005c0 1.439.379 2.891 1.096 4.216L.025 18.017l4.927-1.12c1.248.628 2.64.96 4.044.96H9c2.39 0 4.646-.928 6.35-2.614A8.829 8.829 0 0 0 18 8.933c0-2.364-.944-4.607-2.66-6.317z"/><path d="M6.55 4.992h-.394a.758.758 0 0 0-.549.257c-.188.205-.72.702-.72 1.711 0 1.01.738 1.985.84 2.122.103.137 1.424 2.275 3.517 3.097 1.739.684 2.093.548 2.47.513.378-.034 1.218-.496 1.39-.975.171-.479.171-.89.12-.975-.052-.086-.189-.137-.395-.24-.206-.102-1.215-.607-1.403-.676-.189-.068-.326-.102-.464.103-.137.205-.541.68-.661.817-.12.137-.24.154-.446.051-.206-.103-.862-.323-1.649-1.022-.612-.544-1.037-1.238-1.157-1.443-.12-.205-.013-.316.09-.419a6.18 6.18 0 0 0 .32-.337c.104-.12.133-.205.202-.342.068-.137.034-.257-.017-.36-.052-.102-.447-1.117-.63-1.523-.154-.341-.317-.353-.463-.359z"/>
    </symbol></svg>