<svg xmlns="http://www.w3.org/2000/svg" width="99" height="28" viewBox="0 0 99 28"><defs><clipPath id="b"><path d="M0 0H99V28H0z"/></clipPath></defs><g id="a" clip-path="url(#b)"><g fill="#1565c0"><path d="M260.345,561.883l-2.011-5.676H251.2l1.9,5.676Z" transform="translate(-221.345 -534.026)"/><path d="M218.879,561.883l9.909-27.857H236l-9.879,27.857Z" transform="translate(-206.831 -534.026)"/><path d="M189.036,561.883l9.909-27.857h7.215l-9.879,27.857Z" transform="translate(-189.036 -534.026)"/></g><path d="M7.358-2.431H2.288L1.2,0H.2l4.16-9.1H5.3L9.464,0H8.45Zm-.351-.78L4.823-8.1,2.639-3.211ZM16.6-6.838V0h-.923V-6.019H12.4l-.091,1.69a12.562,12.562,0,0,1-.494,3.276A1.429,1.429,0,0,1,10.426.091a2.647,2.647,0,0,1-.663-.1l.065-.793a1.791,1.791,0,0,0,.325.052.872.872,0,0,0,.806-.494,3.385,3.385,0,0,0,.364-1.222q.091-.728.156-1.924L11.6-6.838ZM21.58-6.89a2.9,2.9,0,0,1,2.054.67,2.587,2.587,0,0,1,.715,1.983V0h-.884V-1.066a2.116,2.116,0,0,1-.917.832,3.208,3.208,0,0,1-1.437.3,2.813,2.813,0,0,1-1.82-.546,1.763,1.763,0,0,1-.676-1.443,1.748,1.748,0,0,1,.631-1.4,3.085,3.085,0,0,1,2.008-.533h2.171v-.416a1.752,1.752,0,0,0-.494-1.345,2.04,2.04,0,0,0-1.443-.461,3.668,3.668,0,0,0-1.248.214,3.145,3.145,0,0,0-1.027.591L18.8-5.967a3.689,3.689,0,0,1,1.248-.682A4.859,4.859,0,0,1,21.58-6.89ZM21.255-.663a2.432,2.432,0,0,0,1.339-.358,2.135,2.135,0,0,0,.832-1.034V-3.172H21.281q-1.755,0-1.755,1.222a1.118,1.118,0,0,0,.455.942A2.071,2.071,0,0,0,21.255-.663Zm5.551-6.175h.923v3.029h4.3V-6.838h.923V0h-.923V-3.016h-4.3V0h-.923Zm8.775,0H36.5V-1.4l4.563-5.434h.819V0h-.923V-5.434L36.413,0h-.832Zm14.2,0V0h-.845V-2.262H46.527L44.941,0h-1l1.7-2.392a2.309,2.309,0,0,1-1.222-.754A2.088,2.088,0,0,1,43.992-4.5a2.061,2.061,0,0,1,.78-1.742,3.424,3.424,0,0,1,2.132-.6ZM44.928-4.472q0,1.521,1.937,1.521h2.067V-6.019h-2Q44.928-6.019,44.928-4.472ZM7.358,13.569H2.288L1.2,16H.2l4.16-9.1H5.3L9.464,16H8.45Zm-.351-.78L4.823,7.9,2.639,12.789Zm8.333-.325a1.59,1.59,0,0,1,1.391,1.677,1.6,1.6,0,0,1-.663,1.378A3.356,3.356,0,0,1,14.092,16H10.985V9.162H14a3.2,3.2,0,0,1,1.833.455,1.482,1.482,0,0,1,.663,1.3,1.519,1.519,0,0,1-.306.955A1.811,1.811,0,0,1,15.34,12.464Zm-3.458-.26h2.054a2.089,2.089,0,0,0,1.216-.3,1,1,0,0,0,.422-.871.967.967,0,0,0-.422-.858,2.163,2.163,0,0,0-1.216-.286H11.882Zm2.171,3.068a2.47,2.47,0,0,0,1.326-.286.991.991,0,0,0,.442-.9,1.042,1.042,0,0,0-.4-.9,2.194,2.194,0,0,0-1.274-.293H11.882v2.379ZM23.7,9.981H21.112V16h-.923V9.981H17.6V9.162h6.1Zm3.848,6.084a3.554,3.554,0,0,1-1.781-.449,3.271,3.271,0,0,1-1.248-1.241,3.764,3.764,0,0,1,0-3.588,3.224,3.224,0,0,1,1.248-1.235,3.809,3.809,0,0,1,3.562,0,3.179,3.179,0,0,1,1.242,1.235,3.812,3.812,0,0,1,0,3.588,3.225,3.225,0,0,1-1.242,1.241A3.554,3.554,0,0,1,27.547,16.065Zm0-.819a2.58,2.58,0,0,0,1.306-.332,2.311,2.311,0,0,0,.9-.943,3.139,3.139,0,0,0,0-2.782,2.311,2.311,0,0,0-.9-.943,2.74,2.74,0,0,0-2.613,0,2.354,2.354,0,0,0-.91.943,3.084,3.084,0,0,0,0,2.782,2.354,2.354,0,0,0,.91.943A2.58,2.58,0,0,0,27.547,15.246Z" transform="translate(49 10)" fill="#252525"/></g></svg>