<svg xmlns="http://www.w3.org/2000/svg" width="46" height="60" viewBox="0 0 46 60"><defs><clipPath id="dqn0a"><path fill="#fff" d="M3 23C3 11.954 11.954 3 23 3s20 8.954 20 20-8.954 20-20 20S3 34.046 3 23z"/></clipPath></defs><path fill="#1565c0" d="M0 23C0 10.297 10.297 0 23 0s23 10.297 23 23-10.297 23-23 23S0 35.703 0 23z"/><path fill="#1565c0" d="M23 60L12 40h22z"/><path fill="#1565c0" d="M3 23C3 11.954 11.954 3 23 3s20 8.954 20 20-8.954 20-20 20S3 34.046 3 23z"/><path fill="none" stroke="#fff" stroke-miterlimit="50" stroke-width="2" d="M3 23C3 11.954 11.954 3 23 3s20 8.954 20 20-8.954 20-20 20S3 34.046 3 23z" clip-path="url(&quot;#dqn0a&quot;)"/><path fill="#fff" d="M35 30.143L28.903 13h-4.44l6.079 17.143z"/><path fill="#1565c0" d="M22.342 26.621V13.09h11.652V26.62z"/><path fill="#fff" d="M18.415 30.143L24.512 13h4.44l-6.079 17.143z"/><path fill="#fff" d="M11 30.143L17.098 13h4.44l-6.08 17.143z"/></svg>