<svg xmlns="http://www.w3.org/2000/svg" width="44" height="44" viewBox="0 0 44 44"><path d="M7.441 44v-3.255h28.47V44z"/><path d="M26.8 14.54h-9.976c-.894 0-1.618.729-1.618 1.628 0 .899.724 1.628 1.618 1.628h9.975c.894 0 1.618-.73 1.618-1.628 0-.9-.724-1.628-1.618-1.628z"/><path d="M34.348 22.136H16.824c-.894 0-1.618.728-1.618 1.627 0 .9.724 1.628 1.618 1.628h17.524c.894 0 1.618-.729 1.618-1.628 0-.899-.724-1.627-1.618-1.627z"/><path d="M40.765 36.242c0 2.482-2.008 4.503-4.476 4.503-2.467 0-4.475-2.02-4.475-4.503v-3.96c0-.9-.724-1.628-1.618-1.628H10.353V5.294l2.919 2.6a1.61 1.61 0 0 0 2.15-.007l4.529-4.075 4.53 4.075a1.61 1.61 0 0 0 2.156 0l4.53-4.076 4.53 4.076a1.61 1.61 0 0 0 2.15.006l2.918-2.598zM43.047.198a1.612 1.612 0 0 0-1.737.265l-4.53 4.032-4.535-4.08a1.61 1.61 0 0 0-2.157 0l-4.53 4.075-4.53-4.075a1.61 1.61 0 0 0-2.155 0l-4.536 4.08L9.807.463A1.613 1.613 0 0 0 8.071.198c-.58.263-.953.844-.953 1.484v28.972h-5.5C.724 30.654 0 31.382 0 32.28v3.96C0 40.52 3.46 44 7.71 44v-3.255c-2.467 0-4.475-2.02-4.475-4.503v-2.333h25.343v2.333c0 4.278 3.46 7.758 7.711 7.758C40.541 44 44 40.52 44 36.242V1.682c0-.64-.373-1.22-.953-1.484z"/></svg>