<svg xmlns="http://www.w3.org/2000/svg" width="56" height="56" viewBox="0 0 56 56"><path d="M46.236 6.563l-1.842 2.96a1.64 1.64 0 0 0 0 1.734l1.842 2.962H35.518V6.563zM33.876 26.59l5.88 8.378-1.92 1.788-2.841-2.646a1.64 1.64 0 0 0-2.237 0l-2.84 2.646-1.92-1.788zM12.253 51.695c-.22.314-.369.663-.443 1.024H3.805l12.972-17.993 3.741 5.189zm3.29 1.024l10.553-15.04L28.8 40.2a1.64 1.64 0 0 0 2.236 0l2.84-2.646 2.841 2.646a1.636 1.636 0 0 0 2.237 0l2.704-2.52 10.554 15.04zm39.96-1.024L36.115 24.068a2.726 2.726 0 0 0-.598-.616V17.5H49.19a1.64 1.64 0 0 0 1.393-2.507L47.72 10.39l2.863-4.602A1.64 1.64 0 0 0 49.19 3.28H35.517v-1.64a1.64 1.64 0 0 0-3.28 0v21.811c-.228.17-.431.377-.598.616L22.513 37.07l-3.518-4.88a2.741 2.741 0 0 0-2.218-1.134c-.876 0-1.705.424-2.218 1.135L.52 51.666a2.723 2.723 0 0 0-.217 2.845A2.723 2.723 0 0 0 2.736 56h50.528a2.726 2.726 0 0 0 2.426-1.473c.472-.909.4-1.994-.188-2.832z"/></svg>