<svg xmlns="http://www.w3.org/2000/svg" width="58" height="52" viewBox="0 0 58 52"><path d="M45.133 6.563a1.79 1.79 0 0 0-2.55-.114l-12.231 11.33-7.81-6.854a1.788 1.788 0 0 0-2.364 0L6.7 22.744a1.843 1.843 0 0 0-.183 2.578 1.787 1.787 0 0 0 2.546.185l12.295-10.783 7.843 6.883a1.789 1.789 0 0 0 2.4-.033L45.02 9.145a1.845 1.845 0 0 0 .113-2.582z"/><path d="M47.01 8.402l-3.427-3.47 4.253-.81zM51.4.54a1.794 1.794 0 0 0-1.615-.508L39.557 1.98a1.814 1.814 0 0 0-1.391 1.256 1.845 1.845 0 0 0 .448 1.832l8.243 8.347a1.794 1.794 0 0 0 1.803.455 1.82 1.82 0 0 0 1.245-1.398L51.89 2.177A1.843 1.843 0 0 0 51.4.54z"/><path d="M56.195 48.13H1.805C.808 48.13 0 48.947 0 49.956c0 1.01.808 1.828 1.805 1.828h54.39c.998 0 1.805-.818 1.805-1.828 0-1.01-.808-1.828-1.805-1.828z"/><path d="M29 35.152c-.997 0-1.805.819-1.805 1.828v12.977c0 1.01.808 1.828 1.805 1.828.997 0 1.805-.819 1.805-1.828V36.98c0-1.01-.808-1.828-1.805-1.828z"/><path d="M21.78 24.186c-.997 0-1.805.818-1.805 1.828v23.943c0 1.01.808 1.828 1.805 1.828.997 0 1.805-.818 1.805-1.828V26.014c0-1.01-.808-1.828-1.805-1.828z"/><path d="M36.22 30.278c-.997 0-1.805.818-1.805 1.828v17.85c0 1.01.808 1.829 1.805 1.829.997 0 1.805-.819 1.805-1.828V32.106c0-1.01-.808-1.828-1.805-1.828z"/><path d="M43.44 17.484c-.997 0-1.805.819-1.805 1.828v30.645c0 1.01.808 1.828 1.805 1.828.997 0 1.804-.819 1.804-1.828V19.312c0-1.01-.807-1.828-1.804-1.828z"/><path d="M50.66 24.186c-.998 0-1.805.818-1.805 1.828v23.943c0 1.01.807 1.828 1.805 1.828.997 0 1.805-.818 1.805-1.828V26.014c0-1.01-.808-1.828-1.805-1.828z"/><path d="M14.56 40.026c-.997 0-1.805.819-1.805 1.828v8.103c0 1.01.808 1.828 1.805 1.828.997 0 1.805-.818 1.805-1.828v-8.103c0-1.01-.808-1.828-1.805-1.828z"/><path d="M7.34 34.543c-.997 0-1.805.819-1.805 1.828v13.586c0 1.01.808 1.828 1.805 1.828.997 0 1.805-.818 1.805-1.828V36.371c0-1.01-.808-1.828-1.805-1.828z"/></svg>