<svg xmlns="http://www.w3.org/2000/svg" width="56" height="56" viewBox="0 0 56 56"><path d="M10.938 42.766H8.75a4.38 4.38 0 0 1-4.375-4.375v-7.438a4.38 4.38 0 0 1 4.375-4.375h2.188zM8.803 22.203C9.533 12.25 17.863 4.375 28 4.375c8.02 0 15.279 5.052 18.06 12.571a2.188 2.188 0 0 0 4.104-1.517 23.567 23.567 0 0 0-8.518-11.091A23.473 23.473 0 0 0 28 0a23.47 23.47 0 0 0-16.705 6.92 23.465 23.465 0 0 0-6.917 16.459A8.753 8.753 0 0 0 0 30.953v7.438c0 4.824 3.925 8.75 8.75 8.75h4.375c1.208 0 2.187-.98 2.187-2.188V24.391c0-1.209-.979-2.188-2.187-2.188z"/><path d="M51.625 38.39a4.38 4.38 0 0 1-4.375 4.376h-2.188V26.578h2.188a4.38 4.38 0 0 1 4.375 4.375zM47.25 22.204h-4.375c-1.208 0-2.188.98-2.188 2.188V47.25a2.19 2.19 0 0 1-2.187 2.188h-6.672v.069a4.375 4.375 0 1 0 0 4.236v.07H38.5a6.57 6.57 0 0 0 6.563-6.563v-.11h2.187c4.825 0 8.75-3.925 8.75-8.75v-7.437c0-4.825-3.925-8.75-8.75-8.75z"/></svg>