<svg xmlns="http://www.w3.org/2000/svg" width="56" height="51" viewBox="0 0 56 51"><path fill="#c2c2c2" d="M19.581 18.798a1.74 1.74 0 0 0-1.742 1.74V39.35L4.484 42.507V13.2l13.722-2.503a1.74 1.74 0 1 0-.626-3.42L2.43 10.038A1.74 1.74 0 0 0 1 11.75v32.957a1.738 1.738 0 0 0 1.742 1.739c.134 0 .268-.016.401-.047l16.84-3.98a1.74 1.74 0 0 0 1.34-1.692V20.537c0-.96-.78-1.738-1.742-1.738z"/><path fill="none" stroke="#c2c2c2" stroke-miterlimit="20" stroke-width=".5" d="M19.581 18.798a1.74 1.74 0 0 0-1.742 1.74V39.35L4.484 42.507v0V13.2v0l13.722-2.503a1.74 1.74 0 1 0-.626-3.42L2.43 10.038A1.74 1.74 0 0 0 1 11.75v32.957a1.738 1.738 0 0 0 1.742 1.739c.134 0 .268-.016.401-.047l16.84-3.98a1.74 1.74 0 0 0 1.34-1.692V20.537c0-.96-.78-1.738-1.742-1.738z"/><path fill="#c2c2c2" d="M37.134 46.676l-16.76-7.536a1.743 1.743 0 0 0-2.303.872 1.738 1.738 0 0 0 .873 2.3l16.76 7.535a1.74 1.74 0 0 0 1.43-3.17z"/><path fill="none" stroke="#c2c2c2" stroke-miterlimit="20" stroke-width=".5" d="M37.134 46.676v0l-16.76-7.536a1.743 1.743 0 0 0-2.303.872 1.738 1.738 0 0 0 .873 2.3l16.76 7.535a1.74 1.74 0 0 0 1.43-3.17z"/><path fill="#c2c2c2" d="M54.345 10.547a1.744 1.744 0 0 0-1.473-.336l-14.573 3.307a1.739 1.739 0 1 0 .772 3.39l12.445-2.823v29.357L38.16 46.136v-25.68a1.74 1.74 0 1 0-3.484 0v27.806A1.738 1.738 0 0 0 36.42 50c.115 0 .23-.01.345-.034l16.84-3.397A1.74 1.74 0 0 0 55 44.864V11.906c0-.529-.241-1.029-.655-1.359z"/><path fill="none" stroke="#c2c2c2" stroke-miterlimit="20" stroke-width=".5" d="M54.345 10.547a1.744 1.744 0 0 0-1.473-.336l-14.573 3.307a1.739 1.739 0 1 0 .772 3.39l12.445-2.823v29.357L38.16 46.136v0-25.68a1.74 1.74 0 1 0-3.484 0v27.806A1.738 1.738 0 0 0 36.42 50c.115 0 .23-.01.345-.034l16.84-3.397A1.74 1.74 0 0 0 55 44.864V11.906c0-.529-.241-1.029-.655-1.359z"/><path fill="#c2c2c2" d="M31.824 23.45a24.206 24.206 0 0 1-3.79 3.405c-2.305-1.662-8.284-6.687-8.284-14.109 0-4.559 3.717-8.268 8.289-8.268 4.567 0 8.282 3.71 8.282 8.268 0 3.775-1.513 7.376-4.497 10.704zM28.036 1c-6.49 0-11.77 5.27-11.77 11.746 0 4.626 1.89 9.159 5.463 13.11 2.653 2.93 5.304 4.523 5.415 4.589a1.742 1.742 0 0 0 1.783 0c.111-.066 2.763-1.658 5.415-4.59 3.574-3.95 5.463-8.482 5.463-13.109 0-6.476-5.278-11.745-11.77-11.745z"/><path fill="none" stroke="#c2c2c2" stroke-miterlimit="20" stroke-width=".5" d="M31.824 23.45a24.206 24.206 0 0 1-3.79 3.405c-2.305-1.662-8.284-6.687-8.284-14.109 0-4.559 3.717-8.268 8.289-8.268 4.567 0 8.282 3.71 8.282 8.268 0 3.775-1.513 7.376-4.497 10.704zM28.036 1c-6.49 0-11.77 5.27-11.77 11.746 0 4.626 1.89 9.159 5.463 13.11 2.653 2.93 5.304 4.523 5.415 4.589a1.742 1.742 0 0 0 1.783 0c.111-.066 2.763-1.658 5.415-4.59 3.574-3.95 5.463-8.482 5.463-13.109 0-6.476-5.278-11.745-11.77-11.745z"/><path fill="#c2c2c2" d="M28.036 14.537c-.87 0-1.577-.706-1.577-1.574a1.577 1.577 0 0 1 3.153 0c0 .868-.707 1.574-1.576 1.574zm0-6.625a5.061 5.061 0 0 0-5.06 5.051 5.061 5.061 0 0 0 5.06 5.052c2.79 0 5.06-2.266 5.06-5.052a5.061 5.061 0 0 0-5.06-5.05z"/><path fill="none" stroke="#c2c2c2" stroke-miterlimit="20" stroke-width=".5" d="M28.036 14.537c-.87 0-1.577-.706-1.577-1.574a1.577 1.577 0 0 1 3.153 0c0 .868-.707 1.574-1.576 1.574zm0-6.625a5.061 5.061 0 0 0-5.06 5.051 5.061 5.061 0 0 0 5.06 5.052c2.79 0 5.06-2.266 5.06-5.052a5.061 5.061 0 0 0-5.06-5.05z"/></svg>