<svg xmlns="http://www.w3.org/2000/svg" width="310" height="88" viewBox="0 0 310 88"><path fill="#fff" d="M4.332 10.193V.473h99.735v9.72z"/><path fill="#fff" d="M4.332 87.886v-9.72h99.735v9.72z"/><path fill="#fff" d="M23.694 49.04v-9.72h25.803v9.72z"/><path fill="#fff" d="M35.987 71.495L12.7 44.18 37.126 16.72H24.291L0 44.18l23.158 27.315z"/><path fill="#fff" d="M58.902 48.896v-9.72h25.804v9.72z"/><path fill="#fff" d="M72.412 16.721L95.7 44.036 71.273 71.495h12.835l24.291-27.459-23.158-27.315z"/><path fill="#fff" d="M159.866 29.777l12.942 29.261H161.58l-10.884-24.614h-8.743v24.614h-10.284V.516h10.285V25.13h8.742L161.581.516h11.227z"/><path fill="#fff" d="M209.723 30.38h-17.142V9.81h17.141zM201.151.515h-18.856v58.52h10.286V39.674h8.57c18.856 0 18.856-3.442 18.856-12.049V12.565c0-8.606 0-12.049-18.856-12.049z"/><path fill="#fff" d="M264.573.516v9.295h-13.715v49.227h-10.282V9.811H226.86V.516z"/><path fill="#fff" d="M299.714 20.31V9.296H282.57V50.26h17.142V39.245H310v7.745c0 8.606 0 12.565-18.856 12.565s-18.856-3.959-18.856-12.565V12.565c0-8.606 0-12.565 18.856-12.565S310 3.959 310 12.565v7.746z"/><path fill="#fff" d="M134.214 80.072h1.043l4.02-5.459h2.905l-4.748 6.41 5.176 6.86h-2.867L135.5 82.39h-1.285v5.496h-2.55V74.614h2.55z"/><path fill="#fff" d="M148.394 82.764l1.899-5.216 1.824 5.216zm-4.284 5.122h2.644l1.21-3.309h4.617l1.228 3.309h2.644l-5.025-13.273h-2.271z"/><path fill="#fff" d="M158.209 76.315a5.32 5.32 0 0 1 1.842-1.355 6.18 6.18 0 0 1 2.495-.458 4.857 4.857 0 0 1 3.007.841 2.907 2.907 0 0 1 1.107 2.467 3.444 3.444 0 0 1-.494 1.823 2.677 2.677 0 0 1-1.554 1.15c.745.118 1.42.507 1.899 1.093.458.602.695 1.345.67 2.103a3.745 3.745 0 0 1-.363 1.673 3.689 3.689 0 0 1-.997 1.252 4.56 4.56 0 0 1-1.517.795 6.815 6.815 0 0 1-4.44-.197 5.619 5.619 0 0 1-1.954-1.43l1.49-1.794c.35.419.776.768 1.256 1.028.522.262 1.101.39 1.684.372a2.458 2.458 0 0 0 1.62-.523 1.922 1.922 0 0 0-.028-2.879 3.034 3.034 0 0 0-2.001-.56h-1.378v-1.907h1.23a3.185 3.185 0 0 0 1.823-.44c.413-.274.653-.746.633-1.243a1.3 1.3 0 0 0-.474-1.084 2.143 2.143 0 0 0-1.35-.372 3.54 3.54 0 0 0-1.554.327 3.735 3.735 0 0 0-1.202.925z"/><path fill="#fff" d="M174.74 87.998c-.59 0-1.177-.07-1.75-.207a6.844 6.844 0 0 1-1.601-.599 5.37 5.37 0 0 1-1.313-.962 4.133 4.133 0 0 1-.884-1.318l2.104-1.215c.15.344.36.658.623.925.247.25.53.461.838.626.3.16.619.28.95.356.314.073.636.11.958.112.501.006.998-.09 1.462-.28.429-.18.82-.44 1.153-.767.334-.332.61-.717.819-1.14.217-.436.364-.902.437-1.383h-5.36V80.07h5.306a4.894 4.894 0 0 0-.428-1.224 3.844 3.844 0 0 0-.764-1.037 3.585 3.585 0 0 0-1.107-.72 3.784 3.784 0 0 0-1.48-.27 4.503 4.503 0 0 0-.931.102 3.861 3.861 0 0 0-.931.327 3.35 3.35 0 0 0-.838.608c-.27.27-.485.59-.633.943l-1.973-1.364a5.15 5.15 0 0 1 1.964-2.094 6.154 6.154 0 0 1 3.267-.804c.974-.02 1.94.178 2.83.58.783.36 1.486.874 2.066 1.514.557.619.99 1.339 1.277 2.121a6.868 6.868 0 0 1-.028 4.898 7.018 7.018 0 0 1-1.322 2.186 6.772 6.772 0 0 1-2.048 1.561 5.847 5.847 0 0 1-2.663.6z"/><path fill="#fff" d="M195.011 74.613v13.273h-2.553V82.22h-5.994v5.666h-2.57V74.613h2.57v5.365h5.994v-5.365z"/><path fill="#fff" d="M207.674 85.623v2.263h-9.179V74.613h9.011v2.262h-6.44v3.197h5.566v2.094h-5.567v3.457z"/><path fill="#fff" d="M213.078 76.875h2.867c.227 0 .452.048.66.14.22.095.414.238.569.42.17.203.302.434.39.682.104.291.154.598.15.907.03.564-.138 1.12-.475 1.572-.281.369-.72.583-1.182.579h-2.98zm0 11.01v-4.448h3.127c.58.007 1.153-.12 1.676-.372.496-.24.939-.578 1.302-.993.363-.415.647-.894.838-1.411a4.617 4.617 0 0 0 .298-1.636 4.287 4.287 0 0 0-.316-1.598 4.762 4.762 0 0 0-.875-1.42 4.365 4.365 0 0 0-1.331-1.01 3.743 3.743 0 0 0-1.685-.383h-5.604v13.272z"/><path fill="#fff" d="M230.828 76.877h-5.51v11.01h-2.551V74.613h8.06z"/><path fill="#fff" d="M234.98 79.635c.158-.514.408-.995.734-1.421.327-.42.74-.765 1.21-1.01a3.759 3.759 0 0 1 3.268-.018c.468.236.881.57 1.21.981.336.425.594.906.763 1.42.18.537.271 1.099.27 1.665 0 .548-.085 1.094-.252 1.617a4.547 4.547 0 0 1-.744 1.43c-.327.421-.74.769-1.21 1.018a3.733 3.733 0 0 1-3.277.01 3.756 3.756 0 0 1-1.21-.993 4.45 4.45 0 0 1-.753-1.42 5.333 5.333 0 0 1-.26-1.665c0-.548.084-1.092.25-1.614zm3.582 8.344a6.083 6.083 0 0 0 2.588-.55 6.435 6.435 0 0 0 2.047-1.478 6.883 6.883 0 0 0 1.825-4.663 6.843 6.843 0 0 0-.465-2.468 7.116 7.116 0 0 0-1.303-2.17 6.547 6.547 0 0 0-2.018-1.542 5.786 5.786 0 0 0-2.616-.589 6.086 6.086 0 0 0-2.587.552 6.494 6.494 0 0 0-2.06 1.486 7.018 7.018 0 0 0-1.359 2.15 6.68 6.68 0 0 0-.494 2.543 7.038 7.038 0 0 0 1.777 4.644 6.46 6.46 0 0 0 2.03 1.515 5.985 5.985 0 0 0 2.635.57z"/><path fill="#fff" d="M257.3 76.877h-4.226v11.01h-2.55v-11.01h-4.226v-2.262h11.003z"/><path fill="#fff" d="M262.235 76.875h2.867c.227 0 .453.048.661.14.219.095.413.238.568.42.17.203.302.434.39.682.104.291.154.598.15.907.03.564-.138 1.12-.475 1.572-.282.369-.72.583-1.183.579h-2.978zm0 11.01v-4.448h3.128c.58.007 1.153-.12 1.675-.372a4.11 4.11 0 0 0 1.303-.993c.363-.415.647-.894.838-1.411a4.617 4.617 0 0 0 .298-1.636 4.287 4.287 0 0 0-.317-1.598 4.748 4.748 0 0 0-.875-1.42 4.37 4.37 0 0 0-1.33-1.01 3.743 3.743 0 0 0-1.685-.383h-5.604v13.272z"/><path fill="#fff" d="M274.044 82.764l1.898-5.216 1.824 5.216zm-4.282 5.122h2.641l1.21-3.309h4.617l1.229 3.309h2.643l-5.024-13.273h-2.272z"/><path fill="#fff" d="M295.506 74.613v13.273h-2.55V82.22h-5.995v5.666h-2.57V74.613h2.57v5.365h5.995v-5.365z"/><path fill="#fff" d="M298.155 81.156c.001-.82.149-1.634.436-2.402a6.434 6.434 0 0 1 3.323-3.636 6.304 6.304 0 0 1 2.756-.579 5.987 5.987 0 0 1 3.155.804 5.121 5.121 0 0 1 1.983 2.094l-1.974 1.364a3.395 3.395 0 0 0-.633-.943 3.18 3.18 0 0 0-.8-.608 3.605 3.605 0 0 0-.894-.327 4.24 4.24 0 0 0-.912-.103 3.448 3.448 0 0 0-1.685.393c-.464.25-.87.598-1.191 1.018-.321.428-.564.909-.717 1.421a5.371 5.371 0 0 0-.242 1.58 5.171 5.171 0 0 0 .28 1.691c.174.522.442 1.006.79 1.43.34.41.758.748 1.23.993a3.34 3.34 0 0 0 1.572.372c.314-.002.626-.04.931-.112a3.498 3.498 0 0 0 1.731-.981c.256-.268.459-.582.596-.926l2.104 1.215c-.21.496-.517.944-.903 1.318a5.797 5.797 0 0 1-1.322.962 6.735 6.735 0 0 1-1.573.599 6.863 6.863 0 0 1-1.638.207 5.608 5.608 0 0 1-2.588-.599 6.73 6.73 0 0 1-2.018-1.56 7.26 7.26 0 0 1-1.321-2.187 6.847 6.847 0 0 1-.476-2.498z"/></svg>