<svg xmlns="http://www.w3.org/2000/svg" width="400" height="66" viewBox="0 0 400 66"><path fill="#fff" d="M269.033 51.343h3.143c2.279 0 3.418-.666 3.418-1.999 0-1.332-1.078-2.02-3.234-2.064h-3.327zm0 1.946v4.286h4.024c1.016 0 1.777-.189 2.28-.565.505-.377.757-.908.757-1.591 0-1.42-1.043-2.13-3.13-2.13zm-2.432 6.245V45.308h5.548c1.894 0 3.347.33 4.359.993 1.012.661 1.519 1.632 1.519 2.912 0 .657-.198 1.251-.592 1.781-.395.53-.978.936-1.749 1.216.86.202 1.55.597 2.071 1.184.522.587.782 1.288.782 2.103 0 1.307-.48 2.306-1.44 2.998-.96.693-2.316 1.039-4.069 1.039zm-13.78-6.955c0 1.577.367 2.844 1.099 3.8.732.955 1.711 1.433 2.938 1.433 1.236 0 2.218-.485 2.945-1.453.728-.969 1.092-2.325 1.092-4.07 0-1.56-.37-2.824-1.111-3.793-.74-.968-1.725-1.453-2.952-1.453-1.2 0-2.17.478-2.906 1.433-.736.956-1.104 2.323-1.104 4.103zm-2.445-.29c0-1.393.274-2.647.822-3.76.548-1.113 1.31-1.972 2.288-2.577.977-.605 2.093-.907 3.346-.907 1.937 0 3.504.67 4.7 2.012 1.197 1.34 1.795 3.124 1.795 5.35v.172c0 1.385-.265 2.627-.795 3.727s-1.289 1.957-2.275 2.57c-.986.614-2.119.92-3.399.92-1.928 0-3.49-.67-4.687-2.01-1.196-1.342-1.795-3.117-1.795-5.326zm-3.26 7.245h-2.433V53.46h-6.534v6.074h-2.446V45.308h2.446v6.166h6.534v-6.166h2.433zm-25.179-6.955c0 1.577.366 2.844 1.098 3.8.732.955 1.712 1.433 2.939 1.433 1.236 0 2.217-.485 2.945-1.453.727-.969 1.091-2.325 1.091-4.07 0-1.56-.37-2.824-1.11-3.793-.741-.968-1.725-1.453-2.953-1.453-1.2 0-2.169.478-2.905 1.433-.737.956-1.105 2.323-1.105 4.103zm-2.445-.29c0-1.393.274-2.647.822-3.76.547-1.113 1.31-1.972 2.287-2.577.978-.605 2.093-.907 3.347-.907 1.937 0 3.503.67 4.7 2.012 1.196 1.34 1.795 3.124 1.795 5.35v.172c0 1.385-.266 2.627-.796 3.727s-1.288 1.957-2.274 2.57c-.987.614-2.12.92-3.4.92-1.928 0-3.49-.67-4.686-2.01-1.197-1.342-1.795-3.117-1.795-5.326zm-1.197-4.97h-6.56v12.215h-2.446V45.308h9.006zm-19.09 10.361c.762 0 1.485-.197 2.169-.592.684-.394 1.179-.907 1.486-1.538v-2.919h-1.907c-2.98 0-4.47.872-4.47 2.617 0 .762.254 1.358.762 1.788.509.43 1.162.644 1.96.644zm4.036 1.854c-.14-.28-.254-.78-.342-1.499-1.13 1.175-2.48 1.762-4.05 1.762-1.402 0-2.552-.397-3.45-1.19-.9-.793-1.348-1.8-1.348-3.017 0-1.482.563-2.632 1.69-3.452 1.125-.82 2.71-1.23 4.752-1.23h2.367v-1.117c0-.85-.255-1.527-.763-2.031-.508-.504-1.258-.756-2.248-.756-.868 0-1.596.219-2.183.657-.587.439-.88.969-.88 1.591h-2.446c0-.71.252-1.396.756-2.057.504-.662 1.187-1.186 2.05-1.572.864-.385 1.813-.578 2.847-.578 1.64 0 2.924.41 3.853 1.23.929.819 1.411 1.947 1.446 3.385v6.547c0 1.307.167 2.345.5 3.117v.21zm-21.51-8.191h3.142c2.28 0 3.419-.666 3.419-1.999 0-1.332-1.078-2.02-3.235-2.064h-3.326zm0 1.946v4.286h4.023c1.017 0 1.777-.189 2.281-.565.504-.377.756-.908.756-1.591 0-1.42-1.043-2.13-3.129-2.13zm-2.432 6.245V45.308h5.548c1.893 0 3.346.33 4.359.993 1.012.661 1.518 1.632 1.518 2.912 0 .657-.197 1.251-.592 1.781-.394.53-.977.936-1.748 1.216.859.202 1.55.597 2.07 1.184.522.587.783 1.288.783 2.103 0 1.307-.48 2.306-1.44 2.998-.96.693-2.316 1.039-4.07 1.039zM163.837 50.5l3.155-5.193h2.84l-4.654 7.034 4.799 7.192h-2.814l-3.287-5.325-3.287 5.325h-2.827l4.8-7.192-4.655-7.034h2.814zm-23.022 1.696v5.352h3.615c.912 0 1.617-.235 2.117-.704s.75-1.11.75-1.926c0-.789-.244-1.435-.73-1.94-.487-.503-1.168-.764-2.045-.782zm14.002 7.337h-2.445V45.308h2.445zm-14.002-9.322h3.694c1.613.018 2.888.438 3.826 1.262.938.824 1.407 1.942 1.407 3.353 0 1.42-.482 2.56-1.446 3.418-.964.86-2.262 1.289-3.892 1.289h-6.022V45.308h2.433zm-15.384 1.13h3.143c2.279 0 3.418-.665 3.418-1.998 0-1.332-1.078-2.02-3.234-2.064h-3.327zm0 1.947v4.286h4.024c1.016 0 1.777-.189 2.28-.565.505-.377.757-.908.757-1.591 0-1.42-1.043-2.13-3.13-2.13zM123 59.534V45.308h5.548c1.894 0 3.347.33 4.359.993 1.012.661 1.519 1.632 1.519 2.912 0 .657-.198 1.251-.592 1.781-.395.53-.977.936-1.749 1.216.86.202 1.55.597 2.071 1.184.522.587.782 1.288.782 2.103 0 1.307-.48 2.306-1.44 2.998-.96.693-2.316 1.039-4.069 1.039zm-13.779-6.955c0 1.577.366 2.844 1.098 3.8.732.955 1.711 1.433 2.938 1.433 1.236 0 2.218-.485 2.946-1.453.727-.969 1.09-2.325 1.09-4.07 0-1.56-.37-2.824-1.11-3.793-.74-.968-1.725-1.453-2.952-1.453-1.2 0-2.17.478-2.906 1.433-.736.956-1.104 2.323-1.104 4.103zm-2.446-.29c0-1.393.274-2.647.822-3.76.548-1.113 1.31-1.972 2.288-2.577.977-.605 2.093-.907 3.346-.907 1.937 0 3.504.67 4.7 2.012 1.197 1.34 1.795 3.124 1.795 5.35v.172c0 1.385-.265 2.627-.795 3.727s-1.289 1.957-2.275 2.57c-.986.614-2.119.92-3.399.92-1.928 0-3.49-.67-4.687-2.01-1.196-1.342-1.795-3.117-1.795-5.326zm-5.206-3.09c0-.666-.254-1.194-.763-1.584-.508-.39-1.205-.585-2.09-.585-.86 0-1.576.224-2.15.67-.574.448-.861.974-.861 1.579h-2.42c0-1.236.518-2.249 1.552-3.038 1.034-.789 2.327-1.183 3.879-1.183 1.665 0 2.962.358 3.892 1.072.929.715 1.393 1.735 1.393 3.06a2.95 2.95 0 0 1-.578 1.763c-.386.535-.934.961-1.644 1.277 1.657.56 2.485 1.664 2.485 3.31 0 1.305-.504 2.339-1.512 3.1-1.008.763-2.353 1.144-4.036 1.144-1.64 0-2.991-.401-4.056-1.203s-1.598-1.887-1.598-3.254h2.42c0 .692.308 1.286.926 1.781.618.495 1.387.743 2.308.743.929 0 1.678-.214 2.248-.642.57-.429.855-.984.855-1.665 0-.796-.24-1.366-.717-1.711-.478-.345-1.22-.518-2.228-.518H96.44V51.25h2.643c1.657-.044 2.485-.728 2.485-2.051zm-15.91 6.772l3.314-10.663h2.603L85.856 61.73c-.885 2.366-2.292 3.55-4.22 3.55l-.46-.04-.908-.17v-1.973l.658.053c.824 0 1.466-.167 1.926-.5.46-.333.84-.942 1.137-1.828l.54-1.446-5.076-14.068h2.656zm-10.031-3.668c0-1.605-.342-2.871-1.026-3.8-.683-.93-1.621-1.394-2.813-1.394-1.473 0-2.577.653-3.313 1.96v6.797c.727 1.297 1.84 1.946 3.34 1.946 1.165 0 2.092-.463 2.78-1.388.688-.924 1.032-2.298 1.032-4.121zm2.432.276c0 2.165-.495 3.909-1.485 5.233-.99 1.323-2.332 1.985-4.024 1.985-1.726 0-3.085-.548-4.075-1.644v6.85h-2.433V45.308h2.222l.118 1.578c.99-1.228 2.367-1.841 4.129-1.841 1.71 0 3.061.644 4.056 1.933.995 1.288 1.492 3.08 1.492 5.377zm-14.12-5.26h-6.561v12.215h-2.446V45.308h9.006zm-28.663 2.354c0 .692.237 1.251.71 1.676.473.425 1.1.642 1.88.651h3.866v-4.72h-3.498c-.903 0-1.621.221-2.156.664-.535.443-.802 1.019-.802 1.729zm8.901-4.365v14.226h-2.445v-5.535h-3.669l-3.352 5.535h-2.63l3.576-5.904c-.911-.333-1.61-.848-2.097-1.544-.486-.697-.73-1.51-.73-2.44 0-1.297.487-2.342 1.46-3.135.973-.793 2.274-1.194 3.905-1.203zm-14.778 0v14.226h-2.446V47.319h-4.838l-.29 5.325c-.157 2.446-.567 4.195-1.229 5.246-.662 1.052-1.711 1.6-3.149 1.644h-.973V57.39l.697-.053c.79-.087 1.354-.543 1.696-1.367.342-.824.561-2.35.658-4.576l.263-6.087zM4.247 57.548h6.534v-9.992H6.403l-.145 3.392c-.149 2.832-.82 5.032-2.011 6.6zm-2.88 0l.842-1.038c.947-1.227 1.486-3.068 1.617-5.522l.224-5.68h9.164v12.24h1.827v6.167H12.61v-4.181H2.682v4.181H.25l.013-6.166zM394.15 6.654c-.982 0-1.805.357-2.472 1.071-.666.715-1.078 1.716-1.236 3.005h7.127v-.184c-.07-1.236-.404-2.194-1-2.873-.596-.68-1.402-1.02-2.419-1.02zm.303 12.753c-1.929 0-3.498-.633-4.707-1.9-1.21-1.266-1.815-2.96-1.815-5.081v-.447c0-1.411.27-2.671.809-3.78.539-1.11 1.293-1.977 2.261-2.604a5.686 5.686 0 0 1 3.15-.94c1.849 0 3.286.61 4.312 1.828C399.487 7.7 400 9.445 400 11.715v1.012h-9.637c.035 1.403.444 2.536 1.229 3.399.784.863 1.781 1.295 2.991 1.295.86 0 1.587-.175 2.183-.526a5.484 5.484 0 0 0 1.564-1.394l1.486 1.157c-1.192 1.832-2.98 2.748-5.364 2.748zM382.21 4.917h2.432v14.226h-2.432V8.77l-6.561 10.373h-2.432V4.917h2.432v10.387zm-28.965 0v12.241h5.207V4.918h2.432v12.24h5.193V4.918h2.446v12.24h1.998l-.236 6.206h-2.183v-4.22H350.8V4.916zm-16.014 7.271c0 1.578.366 2.844 1.098 3.8.731.955 1.715 1.433 2.951 1.433s2.216-.486 2.939-1.46c.723-.972 1.085-2.327 1.085-4.062 0-1.552-.369-2.814-1.105-3.787-.736-.973-1.718-1.46-2.945-1.46-1.21 0-2.183.479-2.919 1.434-.736.955-1.104 2.323-1.104 4.102zm-5.812-1.236h3.419c.184-1.893.857-3.416 2.018-4.569 1.161-1.152 2.627-1.729 4.398-1.729 1.858 0 3.379.627 4.562 1.88 1.184 1.254 1.824 2.884 1.92 4.892l.013.762c0 1.385-.272 2.634-.815 3.747-.544 1.114-1.306 1.97-2.288 2.57-.982.601-2.104.901-3.366.901-1.832 0-3.33-.598-4.496-1.794-1.166-1.197-1.82-2.75-1.96-4.661h-3.405v6.192h-2.432V4.917h2.432zm-10.742 4.628l3.314-10.663h2.603l-5.72 16.422c-.885 2.367-2.291 3.55-4.22 3.55l-.46-.04-.907-.17v-1.972l.657.052c.824 0 1.466-.166 1.926-.5.46-.333.84-.942 1.138-1.827l.539-1.446-5.075-14.069h2.656zm-7.165-8.69h-4.773v12.253h-2.432V6.89h-4.681V4.917h11.886zm-20.682 6.192h-1.775v6.061h-2.445V4.917h2.445v6.022h1.591l4.786-6.022h2.945l-5.627 6.837 6.1 7.39h-3.09zm-13.095-6.43c-.982 0-1.806.358-2.472 1.072-.666.715-1.078 1.716-1.236 3.005h7.126v-.184c-.07-1.236-.403-2.194-.999-2.873-.596-.68-1.402-1.02-2.42-1.02zm.302 12.754c-1.928 0-3.497-.633-4.707-1.9-1.21-1.266-1.814-2.96-1.814-5.081v-.447c0-1.411.27-2.671.808-3.78.54-1.11 1.293-1.977 2.262-2.604a5.686 5.686 0 0 1 3.149-.94c1.85 0 3.287.61 4.312 1.828 1.026 1.218 1.539 2.963 1.539 5.233v1.012h-9.638c.035 1.403.445 2.536 1.23 3.399.784.863 1.781 1.295 2.99 1.295.86 0 1.587-.175 2.183-.526a5.483 5.483 0 0 0 1.565-1.394l1.486 1.157c-1.193 1.832-2.98 2.748-5.365 2.748zM270.23 4.917v14.226h-2.446V6.93h-4.838l-.29 5.325c-.157 2.445-.567 4.194-1.229 5.246-.662 1.052-1.711 1.6-3.149 1.643h-.973V17l.697-.052c.79-.088 1.354-.544 1.696-1.368.342-.824.561-2.349.658-4.575l.263-6.088zm-15.567 14.226h-2.433V6.93h-6.547v12.214h-2.446V4.917h11.426zm-23.417-3.22l4.839-11.006h3.037v14.226h-2.433V8.796l-4.601 10.347h-1.683l-4.694-10.57v10.57h-2.433V4.917h3.156zM209.5 12.187c0 1.578.366 2.844 1.098 3.8.732.955 1.712 1.433 2.939 1.433 1.236 0 2.217-.484 2.945-1.453.727-.968 1.091-2.325 1.091-4.07 0-1.56-.37-2.824-1.11-3.792-.741-.969-1.725-1.453-2.952-1.453-1.201 0-2.17.478-2.906 1.433-.736.955-1.105 2.323-1.105 4.102zm-2.445-.29c0-1.393.274-2.646.822-3.76.547-1.113 1.31-1.972 2.287-2.576.978-.605 2.093-.908 3.347-.908 1.937 0 3.503.67 4.7 2.012 1.196 1.341 1.795 3.125 1.795 5.351v.171c0 1.385-.266 2.628-.796 3.728s-1.288 1.956-2.274 2.57c-.987.614-2.12.92-3.4.92-1.928 0-3.49-.67-4.686-2.011-1.197-1.341-1.795-3.116-1.795-5.325zm-9.19 1.184h-1.776v6.061h-2.445V4.917h2.446v6.022h1.59l4.786-6.022h2.945l-5.627 6.837 6.1 7.39h-3.09zm-17.435-8.165h2.433v14.226h-2.433V8.77l-6.56 10.373h-2.433V4.917h2.432v10.387zm-22.207 0h2.433v14.226h-2.433V8.77l-6.56 10.373h-2.433V4.917h2.433v10.387zm-11.57 1.973h-4.772v12.253h-2.433V6.89h-4.68V4.917h11.885zm-18.96 10.531c.869 0 1.627-.263 2.275-.789.65-.526 1.008-1.183 1.079-1.972h2.3c-.043.815-.324 1.59-.841 2.327-.517.736-1.207 1.324-2.07 1.762a5.975 5.975 0 0 1-2.742.657c-1.937 0-3.478-.646-4.622-1.939-1.144-1.293-1.715-3.061-1.715-5.305v-.408c0-1.385.254-2.616.762-3.694.508-1.078 1.238-1.916 2.19-2.512.95-.596 2.074-.894 3.372-.894 1.595 0 2.92.478 3.977 1.433 1.056.956 1.62 2.196 1.69 3.721h-2.301c-.07-.92-.419-1.676-1.046-2.268-.626-.591-1.4-.887-2.32-.887-1.236 0-2.194.445-2.873 1.334-.68.89-1.02 2.176-1.02 3.86v.46c0 1.639.338 2.9 1.013 3.786.675.885 1.64 1.328 2.893 1.328zm-15.606-.131c.763 0 1.486-.198 2.17-.592.683-.395 1.179-.907 1.485-1.538v-2.92h-1.906c-2.98 0-4.47.873-4.47 2.617 0 .763.254 1.359.762 1.788.509.43 1.162.645 1.96.645zm4.037 1.853c-.14-.28-.255-.78-.342-1.498-1.13 1.174-2.48 1.761-4.05 1.761-1.402 0-2.553-.396-3.451-1.19-.899-.793-1.348-1.799-1.348-3.017 0-1.481.563-2.632 1.69-3.451 1.126-.82 2.71-1.23 4.753-1.23h2.366V9.401c0-.85-.254-1.528-.762-2.032-.509-.504-1.258-.756-2.248-.756-.868 0-1.596.22-2.183.658-.587.438-.88.968-.88 1.59h-2.446c0-.71.252-1.395.756-2.057.504-.662 1.187-1.185 2.05-1.571.864-.386 1.813-.579 2.847-.579 1.64 0 2.923.41 3.852 1.23.93.82 1.412 1.948 1.447 3.385v6.548c0 1.306.166 2.345.5 3.116v.21zm-12.675 0h-2.445V13.99c-1.07.28-2.166.421-3.287.421-1.78 0-3.136-.456-4.07-1.367-.933-.912-1.409-2.21-1.426-3.892V4.904h2.432V9.23c.044 2.121 1.065 3.182 3.064 3.182 1.121 0 2.217-.14 3.287-.421V4.917h2.445zm-14.647 0H86.37V6.93H79.82v12.214h-2.445V4.917H88.8zM67.265 17.29c.762 0 1.486-.198 2.17-.592.683-.395 1.178-.907 1.485-1.538v-2.92h-1.906c-2.98 0-4.47.873-4.47 2.617 0 .763.253 1.359.762 1.788.508.43 1.161.645 1.959.645zm4.036 1.853c-.14-.28-.254-.78-.342-1.498-1.13 1.174-2.48 1.761-4.05 1.761-1.402 0-2.552-.396-3.45-1.19-.899-.793-1.348-1.799-1.348-3.017 0-1.481.563-2.632 1.69-3.451 1.126-.82 2.71-1.23 4.752-1.23h2.367V9.401c0-.85-.254-1.528-.763-2.032-.508-.504-1.257-.756-2.248-.756-.868 0-1.595.22-2.182.658-.588.438-.881.968-.881 1.59H62.4c0-.71.252-1.395.756-2.057.504-.662 1.188-1.185 2.051-1.571.864-.386 1.812-.579 2.847-.579 1.639 0 2.923.41 3.852 1.23.93.82 1.411 1.948 1.446 3.385v6.548c0 1.306.167 2.345.5 3.116v.21zM56.668 8.81c0-.666-.255-1.194-.763-1.584-.508-.39-1.205-.585-2.09-.585-.86 0-1.576.223-2.15.67-.574.447-.861.973-.861 1.578h-2.42c0-1.236.518-2.248 1.552-3.037 1.034-.789 2.327-1.183 3.879-1.183 1.665 0 2.962.357 3.891 1.072.93.715 1.394 1.735 1.394 3.06a2.95 2.95 0 0 1-.578 1.763c-.386.535-.934.96-1.644 1.276 1.657.56 2.485 1.664 2.485 3.31 0 1.306-.504 2.34-1.512 3.101-1.008.762-2.354 1.143-4.036 1.143-1.64 0-2.992-.4-4.057-1.203-1.065-.802-1.597-1.887-1.597-3.254h2.42c0 .693.308 1.286.926 1.782.618.495 1.387.742 2.308.742.929 0 1.678-.214 2.248-.642.57-.428.854-.983.854-1.665 0-.795-.238-1.366-.716-1.71-.478-.346-1.22-.519-2.229-.519H51.54V10.86h2.643c1.656-.044 2.485-.727 2.485-2.05zm-27.98 8.35h6.535V7.165h-4.378l-.145 3.392c-.149 2.831-.82 5.031-2.011 6.6zm-2.879 0l.842-1.04c.947-1.227 1.486-3.067 1.617-5.522l.224-5.68h9.164v12.241h1.827v6.166h-2.432v-4.18h-9.927v4.18h-2.432l.013-6.166zm-10.492-6.746h-2.05v8.73h-2.525v-8.73h-2.17l-5.416 8.73H0L6.442 9.046.5 0h2.984l5.088 8.31h2.17V0h2.524v8.31h2.078L20.432 0h2.971L17.46 9.033l6.443 10.11h-3.142z"/></svg>