<svg xmlns="http://www.w3.org/2000/svg" width="148" height="42" viewBox="0 0 148 42"><path fill="#e43437" d="M2.068 4.865V.226h47.616v4.639z"/><path fill="#e43437" d="M2.068 41.945v-4.638h47.616v4.638z"/><path fill="#e43437" d="M11.312 23.405v-4.638H23.63v4.638z"/><path fill="#e43437" d="M17.18 34.122L6.064 21.086 17.725 7.98h-6.128L0 21.086l11.056 13.036z"/><path fill="#e43437" d="M28.121 23.337v-4.64h12.32v4.64z"/><path fill="#e43437" d="M34.571 7.98l11.118 13.037-11.662 13.105h6.128l11.597-13.105L40.696 7.981z"/><path fill="#49515a" d="M76.323 14.212l6.18 13.965h-5.361L71.945 16.43h-4.174v11.747h-4.91V.247h4.91v11.747h4.174L77.142.246h5.36z"/><path fill="#49515a" d="M100.126 14.5h-8.184V4.681h8.183zm4.91-8.503c0-4.108 0-5.75-9.003-5.75h-9.002v27.93h4.911v-9.242h4.091c9.003 0 9.003-1.643 9.003-5.75z"/><path fill="#49515a" d="M126.312.246v4.436h-6.547v23.495h-4.91V4.682h-6.547V.246z"/><path fill="#49515a" d="M143.089 9.694V4.436h-8.184v19.552h8.184V18.73H148v3.697c0 4.108 0 5.997-9.002 5.997-9.003 0-9.003-1.89-9.003-5.997V5.997c0-4.108 0-5.997 9.003-5.997C148 0 148 1.89 148 5.997v3.697z"/><path fill="#49515a" d="M64.076 38.216h.498l1.92-2.605h1.386l-2.266 3.06 2.47 3.273h-1.368l-2.026-2.622h-.613v2.623h-1.218v-6.334h1.218z"/><path fill="#49515a" d="M70.846 39.501l.907-2.49.87 2.49zm-2.045 2.444h1.262l.578-1.579h2.204l.586 1.58h1.263l-2.4-6.335H71.21z"/><path fill="#49515a" d="M75.532 36.423a2.54 2.54 0 0 1 .88-.647 2.951 2.951 0 0 1 1.19-.218 2.32 2.32 0 0 1 1.436.401c.359.281.557.722.529 1.178.004.306-.078.607-.236.87-.17.269-.436.464-.742.548.356.057.678.243.906.522.22.288.332.642.32 1.004.005.276-.054.55-.173.798a1.761 1.761 0 0 1-.476.598c-.215.171-.46.3-.724.38a3.255 3.255 0 0 1-2.12-.095 2.683 2.683 0 0 1-.933-.682l.711-.856c.168.2.371.366.6.49.25.125.526.186.804.178.28.011.554-.077.774-.25a.917.917 0 0 0-.014-1.374A1.449 1.449 0 0 0 77.31 39h-.658v-.91h.587c.305.02.608-.053.87-.209a.68.68 0 0 0 .303-.594.62.62 0 0 0-.226-.517 1.023 1.023 0 0 0-.645-.178 1.69 1.69 0 0 0-.742.157c-.22.106-.414.256-.574.441z"/><path fill="#49515a" d="M83.424 41.999c-.281 0-.562-.033-.835-.099a3.27 3.27 0 0 1-.765-.285 2.564 2.564 0 0 1-.626-.46 1.972 1.972 0 0 1-.422-.629l1.004-.58c.071.164.172.314.298.442.117.119.252.22.4.299.142.076.295.133.453.17.15.034.304.052.458.053a1.753 1.753 0 0 0 1.248-.5c.16-.158.292-.342.39-.544.104-.208.175-.43.21-.66h-2.56v-.99h2.534c-.042-.204-.111-.4-.205-.585a1.835 1.835 0 0 0-.364-.495 1.711 1.711 0 0 0-1.236-.473c-.15.001-.298.018-.444.05a1.843 1.843 0 0 0-.444.155 1.598 1.598 0 0 0-.4.29c-.13.13-.232.282-.303.45l-.942-.65c.212-.416.537-.763.938-1a2.939 2.939 0 0 1 1.56-.383c.465-.01.926.085 1.35.276a3.059 3.059 0 0 1 1.597 1.735 3.277 3.277 0 0 1-.014 2.338 3.35 3.35 0 0 1-.63 1.043 3.232 3.232 0 0 1-.978.745 2.792 2.792 0 0 1-1.272.287z"/><path fill="#49515a" d="M93.102 35.611v6.334h-1.219v-2.704h-2.861v2.704h-1.227v-6.334h1.227v2.56h2.861v-2.56z"/><path fill="#49515a" d="M99.147 40.866v1.08h-4.381V35.61h4.301v1.08h-3.075v1.525h2.658v1h-2.658v1.65z"/><path fill="#49515a" d="M101.728 36.69h1.368c.109 0 .216.023.316.067a.744.744 0 0 1 .27.2c.082.097.145.208.187.326.05.14.074.286.072.433.014.27-.066.535-.227.75a.701.701 0 0 1-.564.276h-1.423zm0 5.255v-2.123h1.493c.276.003.55-.057.8-.178a1.96 1.96 0 0 0 .621-.473c.173-.199.309-.427.4-.674.095-.25.143-.514.143-.78a2.046 2.046 0 0 0-.151-.763 2.273 2.273 0 0 0-.418-.678c-.18-.2-.395-.364-.636-.482a1.787 1.787 0 0 0-.804-.183h-2.675v6.334z"/><path fill="#49515a" d="M110.202 36.691h-2.631v5.255h-1.218v-6.335h3.849z"/><path fill="#49515a" d="M112.064 38.778c0-.261.04-.521.12-.77.076-.246.195-.475.35-.679.156-.2.353-.364.578-.481a1.795 1.795 0 0 1 1.56-.01c.224.113.421.273.578.47.16.202.283.431.364.677.086.256.13.524.13.794 0 .262-.041.522-.121.772a2.17 2.17 0 0 1-.355.682 1.79 1.79 0 0 1-.578.486 1.783 1.783 0 0 1-1.564.005 1.794 1.794 0 0 1-.578-.474 2.122 2.122 0 0 1-.36-.678 2.545 2.545 0 0 1-.124-.794zm3.066 2.95c.369-.169.7-.408.977-.706a3.284 3.284 0 0 0 .871-2.225c0-.403-.076-.803-.222-1.178a3.397 3.397 0 0 0-.622-1.036 3.126 3.126 0 0 0-.963-.736 2.764 2.764 0 0 0-1.249-.281 2.907 2.907 0 0 0-1.235.263 3.1 3.1 0 0 0-.984.71 3.35 3.35 0 0 0-.648 1.026 3.189 3.189 0 0 0-.236 1.213c.003.818.305 1.607.848 2.217.273.303.602.548.969.723.393.185.824.278 1.258.272.426.004.848-.086 1.236-.263z"/><path fill="#49515a" d="M122.84 36.691h-2.017v5.255h-1.218v-5.255h-2.018v-1.08h5.253z"/><path fill="#49515a" d="M125.196 36.69h1.369c.108 0 .216.023.315.067a.745.745 0 0 1 .271.2c.081.097.145.208.187.326.05.14.073.286.071.433.015.27-.066.535-.227.75a.701.701 0 0 1-.564.276h-1.422zm0 5.255v-2.123h1.493c.277.003.55-.057.8-.178a1.96 1.96 0 0 0 .622-.473c.173-.199.309-.427.4-.674.094-.25.143-.514.142-.78a2.047 2.047 0 0 0-.15-.763 2.267 2.267 0 0 0-.419-.678 2.086 2.086 0 0 0-.635-.482 1.787 1.787 0 0 0-.804-.183h-2.676v6.334z"/><path fill="#49515a" d="M130.834 39.501l.906-2.49.871 2.49zm-2.044 2.444h1.26l.578-1.579h2.205l.586 1.58h1.262l-2.399-6.335h-1.084z"/><path fill="#49515a" d="M141.08 35.611v6.334h-1.217v-2.704H137v2.704h-1.227v-6.334h1.227v2.56h2.862v-2.56z"/><path fill="#49515a" d="M142.345 38.734c0-.392.071-.78.208-1.147a3.07 3.07 0 0 1 1.587-1.735 3.01 3.01 0 0 1 1.315-.276 2.86 2.86 0 0 1 1.506.383c.405.235.734.582.947 1l-.942.65a1.62 1.62 0 0 0-.302-.45 1.517 1.517 0 0 0-.382-.29 1.721 1.721 0 0 0-.427-.156 2.025 2.025 0 0 0-.435-.049 1.646 1.646 0 0 0-.805.188c-.222.12-.416.285-.569.486a2.15 2.15 0 0 0-.342.678 2.562 2.562 0 0 0-.115.753c-.001.275.044.548.133.808.083.249.211.48.378.682.161.196.361.357.586.474.232.12.49.18.751.178.15-.001.3-.02.445-.054a1.686 1.686 0 0 0 .826-.468c.122-.128.219-.278.285-.442l1.004.58c-.1.237-.247.45-.431.629-.188.182-.4.337-.631.46-.238.126-.49.222-.751.285a3.278 3.278 0 0 1-.782.099 2.678 2.678 0 0 1-1.236-.286 3.21 3.21 0 0 1-.963-.745 3.465 3.465 0 0 1-.631-1.043 3.267 3.267 0 0 1-.227-1.192z"/></svg>