<svg xmlns="http://www.w3.org/2000/svg" width="52" height="44" viewBox="0 0 52 44"><path fill="#c2c2c2" d="M26 19.424L7.017 4.144h37.967zM49.438 1H2.562C1.7 1 1 1.705 1 2.573v34.586c0 .867.7 1.572 1.563 1.572h18.75v-3.145H4.125V5.843l20.898 16.82a1.55 1.55 0 0 0 1.954.002L47.875 5.843v18.739H51V2.572c0-.867-.7-1.571-1.563-1.571z"/><path fill="none" stroke="#c2c2c2" stroke-miterlimit="20" d="M26 19.424L7.017 4.144h37.967zM49.438 1H2.562C1.7 1 1 1.705 1 2.573v34.586c0 .867.7 1.572 1.563 1.572h18.75v-3.145H4.125V5.843l20.898 16.82a1.55 1.55 0 0 0 1.954.002L47.875 5.843v18.739H51V2.572c0-.867-.7-1.571-1.563-1.571z"/><path fill="#c2c2c2" d="M50.54 36.156l-4.685-4.718-2.21 2.223 1.914 1.926H29.125v3.144h16.587l-2.054 2.02L45.84 43l4.687-4.61a1.582 1.582 0 0 0 .013-2.236z"/><path fill="none" stroke="#c2c2c2" stroke-miterlimit="20" d="M50.54 36.156v0l-4.685-4.718v0l-2.21 2.223v0l1.914 1.926v0H29.125v3.144h16.587v0l-2.054 2.02v0L45.84 43v0l4.687-4.61a1.582 1.582 0 0 0 .013-2.236z"/></svg>