<svg xmlns="http://www.w3.org/2000/svg" width="48" height="51" viewBox="0 0 48 51"><path d="M45.056 28.123h-6.56v-5.245h6.56zm0 12.217v5.245h-6.56V40.34zm-32.61-29.68V5.417h23.107v5.245zm0 26.72v-6.297h23.107v6.297zm23.107 8.205H12.447V40.34h23.106zM12.447 22.878h23.106v5.245H12.447zm0-9.257h23.106v6.297H12.447zm-9.504-2.96V5.416h6.56v5.245zm0 17.462v-5.245h6.56v5.245zm0 17.462V40.34h6.56v5.245zM38.496 5.416h6.56v5.245h-6.56zm8.032 8.205c.813 0 1.472-.663 1.472-1.48V3.937c0-.818-.66-1.48-1.472-1.48h-8.032V1.48c0-.817-.659-1.48-1.471-1.48-.813 0-1.472.663-1.472 1.48v.977H12.447V1.48c0-.817-.66-1.48-1.472-1.48-.813 0-1.472.663-1.472 1.48v.977H1.47C.66 2.457 0 3.119 0 3.937v8.204c0 .817.659 1.48 1.471 1.48h8.032v6.297H1.471c-.812 0-1.471.663-1.471 1.48v8.205c0 .817.659 1.48 1.471 1.48h8.032v6.297H1.471C.66 37.38 0 38.043 0 38.86v8.204c0 .818.659 1.48 1.471 1.48h8.032v.977c0 .817.659 1.48 1.472 1.48s1.472-.663 1.472-1.48v-.977h23.106v.977c0 .817.659 1.48 1.472 1.48.812 0 1.471-.663 1.471-1.48v-.977h8.032c.813 0 1.472-.662 1.472-1.48V38.86c0-.817-.66-1.48-1.472-1.48h-8.032v-6.297h8.032c.813 0 1.472-.663 1.472-1.48v-8.205c0-.817-.66-1.48-1.472-1.48h-8.032v-6.297h8.032z"/></svg>