<svg xmlns="http://www.w3.org/2000/svg" width="40" height="40" viewBox="0 0 40 40"><path fill="#c2c2c2" d="M20 20c-4.652 0-8.438-3.785-8.438-8.438 0-4.652 3.786-8.437 8.438-8.437 4.652 0 8.437 3.785 8.437 8.438C28.437 16.215 24.652 20 20 20zm14.142 5.858a19.923 19.923 0 0 0-7.6-4.767c3.03-2.087 5.02-5.58 5.02-9.528C31.562 5.187 26.376 0 20 0 13.624 0 8.437 5.187 8.437 11.563c0 3.949 1.991 7.441 5.021 9.528a19.923 19.923 0 0 0-7.6 4.767A19.87 19.87 0 0 0 0 40h3.125c0-9.305 7.57-16.875 16.875-16.875S36.875 30.695 36.875 40H40a19.87 19.87 0 0 0-5.858-14.142z"/></svg>