<svg xmlns="http://www.w3.org/2000/svg" width="52" height="52" viewBox="0 0 52 52"><path d="M20.8 12.133c0 4.78-3.888 8.667-8.667 8.667-4.778 0-8.666-3.888-8.666-8.667 0-4.778 3.888-8.666 8.666-8.666V0C5.444 0 0 5.443 0 12.133c0 6.691 5.444 12.134 12.133 12.134 6.69 0 12.134-5.443 12.134-12.134z"/><path d="M39.867 20.8c-4.78 0-8.667-3.888-8.667-8.667 0-4.778 3.888-8.666 8.667-8.666 4.778 0 8.666 3.888 8.666 8.666 0 4.78-3.888 8.667-8.666 8.667zm0-20.8c-6.69 0-12.134 5.443-12.134 12.133 0 6.691 5.445 12.134 12.134 12.134S52 18.824 52 12.133C52 5.443 46.556 0 39.867 0z"/><path d="M20.8 39.867c0 4.779-3.888 8.666-8.667 8.666-4.778 0-8.666-3.888-8.666-8.666 0-4.78 3.888-8.667 8.666-8.667v-3.467C5.444 27.733 0 33.176 0 39.867 0 46.557 5.444 52 12.133 52c6.69 0 12.134-5.443 12.134-12.133z"/><path d="M39.867 48.533c-4.78 0-8.667-3.887-8.667-8.666 0-4.78 3.888-8.667 8.667-8.667 4.778 0 8.666 3.888 8.666 8.667s-3.888 8.666-8.666 8.666zm0-20.8c-6.69 0-12.134 5.443-12.134 12.134 0 6.69 5.445 12.133 12.134 12.133C46.555 52 52 46.557 52 39.867c0-6.691-5.444-12.134-12.133-12.134z"/><path d="M21.308 2.241l-9.175 9.175-2.24-2.241-2.452 2.45 3.467 3.467a1.729 1.729 0 0 0 2.45 0l10.4-10.4z"/><path d="M21.308 29.975l-9.175 9.174-2.24-2.241-2.452 2.45 3.467 3.467a1.729 1.729 0 0 0 2.45 0l10.4-10.4z"/></svg>