<svg xmlns="http://www.w3.org/2000/svg" width="516" height="560" viewBox="0 0 516 560"><path fill="none" stroke="#49515a" stroke-linecap="round" stroke-linejoin="round" stroke-miterlimit="20" stroke-width="3.25" d="M2 557.914h2.387"/><path fill="none" stroke="#49515a" stroke-dasharray="3.999 6.998" stroke-linecap="round" stroke-linejoin="round" stroke-miterlimit="20" stroke-width="3.25" d="M12.741 557.914h494.695"/><path fill="none" stroke="#49515a" stroke-linecap="round" stroke-linejoin="round" stroke-miterlimit="20" stroke-width="3.25" d="M511.612 557.914H514"/><g fill="none" stroke="#49515a" stroke-linecap="round" stroke-linejoin="round" stroke-miterlimit="20" stroke-width="2.5"><path d="M57.815 330.564v-27.596-13.582c0-2.054.195-3.998 1.144-5.864 1.901-3.738 5.702-5.753 9.811-5.758 4.293-.005 8.585 0 12.878 0H443.11c3.004 0 6.19-.321 8.99.985a10.592 10.592 0 0 1 5.061 5.017c.899 1.89 1.023 3.832 1.023 5.88V330.564"/><path d="M409.824 315.041h-12.507c-2.781 0-5.412-.343-7.921-1.633-5.438-2.795-8.646-8.845-7.909-14.916.737-6.072 5.3-11.176 11.248-12.59 3.284-.78 6.914-.4 10.249-.4h4.044c.662 0 1.88-.24 2.501 0 .43.166.134-.128.295.248.158.37 0 1.16 0 1.56v27.731z"/><path d="M106.177 285.503V313.354c0 .37-.147 1.098 0 1.44.151.355-.121.127.333.247.735.196 1.806 0 2.562 0 3.986 0 8.082.29 12.058-.054 6.093-.528 11.348-4.913 12.967-10.81 1.617-5.897-.674-12.353-5.643-15.913a14.888 14.888 0 0 0-8.34-2.758c-4.152-.087-8.314-.002-12.467-.002l-1.47-.001z"/><path d="M415.058 285.502h12.507c2.781 0 5.412.344 7.922 1.634 5.437 2.795 8.646 8.844 7.908 14.916-.736 6.072-5.3 11.176-11.247 12.59-3.284.78-6.914.4-10.25.4h-4.044c-.661 0-1.879.24-2.5 0-.43-.167-.134.128-.296-.248-.157-.37 0-1.16 0-1.56V286.24v-.736z"/><path d="M40.583 330.564H475.42"/><path d="M100.942 315.041v-25.187-2.664c0-.37.147-1.098 0-1.44-.152-.355.12-.127-.333-.247-.735-.196-1.806 0-2.563 0-3.986 0-8.081-.29-12.058.054-6.093.528-11.347 4.913-12.966 10.81-1.617 5.897.673 12.353 5.643 15.913a14.88 14.88 0 0 0 8.34 2.758c4.152.087 8.313.002 12.466.002l1.471.001z"/><path d="M475.418 99.535V382.5c0 1.743.016 3.46-.354 5.177a15.784 15.784 0 0 1-6.664 9.765c-2.651 1.757-5.724 2.6-8.89 2.613-2.411.009-4.822 0-7.233 0H58.33c-2.095 0-4.146.004-6.194-.555a15.79 15.79 0 0 1-9.416-7.23c-1.463-2.51-2.128-5.318-2.135-8.209-.005-1.924 0-3.847 0-5.77v-12.34-17.734-22.195-25.514-27.632-28.899-28.857-27.973-25.89-22.637-18.494V107v-6.788c0-3.817.274-7.614.976-11.37 1.114-5.958 3.216-11.706 6.154-17.004C50.686 66.48 54.46 61.6 58.728 57.216c4.067-4.178 8.576-7.93 13.334-11.293 5.067-3.584 10.399-6.785 15.898-9.658 5.688-2.972 11.541-5.61 17.49-8.013 5.672-2.29 11.445-4.335 17.27-6.199a333.602 333.602 0 0 1 18.434-5.305c6.193-1.596 12.428-3.019 18.69-4.319 6.26-1.3 12.552-2.438 18.86-3.488 6.185-1.03 12.396-1.907 18.616-2.697 6.615-.84 13.241-1.545 19.88-2.184 5.93-.57 11.882-1.017 17.83-1.337 6.437-.347 12.877-.654 19.323-.71 6.715-.06 13.414.108 20.123.374 6.093.241 12.184.66 18.262 1.157 6.714.55 13.41 1.231 20.105 1.976 6.228.693 12.443 1.57 18.64 2.497a454 454 0 0 1 18.26 3.13 418.966 418.966 0 0 1 18.491 3.957c6.145 1.467 12.267 3.061 18.32 4.87 6.18 1.844 12.311 3.844 18.355 6.096 5.88 2.191 11.678 4.605 17.344 7.304 5.56 2.648 10.971 5.591 16.184 8.869 4.958 3.116 9.708 6.592 14.098 10.47 4.657 4.112 8.903 8.704 12.447 13.812 3.46 4.99 6.211 10.485 7.983 16.3 1.653 5.431 2.408 11.041 2.453 16.71z"/><path d="M272.694 99.535h-29.389"/><path d="M324.689 431.92v13.573c0 .304.223 1.931-.005 2.151-.09.087-.7 0-.82 0H192.107c-.116 0-.706.085-.793 0-.236-.23-.002-1.922-.002-2.237V434.42v-2.502"/><path d="M125.215 515.826c0 3.67 1.585 6.878 5.218 8.075 1.754.578 3.594.633 5.423.633H374.53c3.873 0 8.718.67 12.29-1.15 4.19-2.135 3.964-6.746 3.964-10.809v-5.06c0-.26.144-1.273-.04-1.435-.202-.177-1.357 0-1.612 0H128.236c-.823 0-1.767-.13-2.583 0-.075.012-.363-.052-.418 0-.206.194-.02 1.515-.02 1.797v7.949z"/><path d="M459.732 400.057v42.652c0 .257.105.884-.045 1.072-.278.35-1.705.538-2.119.67l-2.938.926c-1.22.385-2.436.793-3.652 1.194-5.483 1.81-10.947 3.715-16.266 5.968-4.333 1.835-8.992 3.853-12.466 7.115-3.06 2.873-4.989 7.09-6.014 11.1-1.233 4.823-1.249 9.879-1.265 14.825-.018 5.56.542 11.609-1.143 16.999-1.034 3.308-3.035 6.165-5.83 8.208-3.907 2.856-8.807 4.088-13.537 4.691a61.94 61.94 0 0 1-3.67.348"/><path d="M56.268 400.057v42.652c0 .257-.105.884.046 1.072.278.35 1.704.538 2.118.67l2.938.926c1.221.385 2.437.793 3.653 1.194 5.483 1.81 10.946 3.715 16.266 5.968 4.333 1.835 8.992 3.853 12.466 7.115 3.06 2.873 4.988 7.09 6.014 11.1 1.233 4.823 1.248 9.879 1.265 14.825.018 5.56-.542 11.609 1.142 16.999 1.034 3.308 3.036 6.165 5.83 8.208 3.908 2.856 8.808 4.088 13.537 4.691 1.22.155 2.445.265 3.671.348"/><path d="M439.908 82.37V111.195c0 .327.114.902 0 1.211-.142.385.095.12-.172.265-.184.1-.71 0-.916 0H274.39"/><path d="M323.964 203.121V181.79v-29.911c0-.68.3-2.202 0-2.827-.298-.623-3.385-.214-4.183-.214-1.12 0-.934-.023-.934 1.003v52.664c0 .092-.066.537 0 .608.216.232 1.887.012 2.21.012.97-.003 1.938-.003 2.907-.003z"/><path d="M323.964 173.865c1.06.01 1.637.728 2.123 1.552l2.141 3.639 8.788 14.933a555472.89 555472.89 0 0 0 23.732 40.322c.373.634.884 1.297 1.137 1.997.472 1.3-.43 2.749-1.826 2.85-1.043.075-1.712-.6-2.201-1.423-5.61-9.44-11.14-18.927-16.709-28.392l-16.892-28.701-.292-.496"/><path d="M353.46 230.264c-2.17 0-4.344-.039-6.514 0-1.045.017-2.014.259-2.866.892-2.505 1.859-1.827 5.368-1.827 8.063v8.385c0 1.072-.125 2.25.172 3.297.665 2.345 2.748 3.29 4.984 3.29h22.142c.965 0 1.997.097 2.955-.062 2.431-.402 3.772-2.523 3.784-4.845.024-4.705.024-9.41 0-14.114-.012-2.31-1.329-4.418-3.746-4.84-1.348-.235-2.826-.066-4.182-.066H358.363"/><path d="M349.34 223.263H296.252c-3.057 0-6.087.104-9.076-.675a21.057 21.057 0 0 1-10.196-6.15 21.042 21.042 0 0 1-5.21-10.793c-.38-2.361-.268-4.784-.268-7.168v-15.354-22.168-23.63-19.746-10.511c.002-3.14.528-6.199 1.811-9.08 1.364-3.065 3.49-5.44 5.789-7.814l14.032-14.502 12.906-13.338c2.38-2.46 4.983-4.515 8.199-5.786 3.586-1.418 7.485-1.784 11.282-1.157 2.38.392 4.756.82 7.134 1.23 5.611.97 11.223 1.937 16.836 2.906l22.223 3.835 23.297 4.02 20.056 3.461 12.5 2.157c2.481.428 4.907.888 7.221 1.945a21.05 21.05 0 0 1 8.99 7.83c2.136 3.36 3.235 7.264 3.266 11.237.017 2.225 0 4.452 0 6.678v97.922c0 2.218.102 4.475-.213 6.676a21.036 21.036 0 0 1-5.025 10.882 21.057 21.057 0 0 1-10.088 6.325c-2.773.774-5.558.77-8.403.77h-69.069"/><path d="M347.64 220.374h-49.05c-3.03 0-6.243.256-9.245-.268-8.794-1.534-14.94-9.327-14.956-18.137-.016-8.403 0-16.804 0-25.207v-42.325-27.195c0-3.377.65-6.627 2.322-9.597 1.697-3.016 4.408-5.404 6.792-7.868l24.887-25.72c2.781-2.874 6.095-4.968 10.064-5.748 2.758-.542 5.435-.268 8.162.203l27.68 4.776 41.995 7.247 30 5.176c2.272.392 4.54.712 6.69 1.598a18.175 18.175 0 0 1 9.824 9.85c1.102 2.689 1.35 5.462 1.35 8.325V197.67c0 1.904.08 3.83-.034 5.732-.576 9.51-8.64 16.903-18.09 16.972-9.052.067-18.106 0-27.16 0H352.543"/><path d="M393.95 272.544c.894-.007 1.574-.438 2.139-1.097 1.192-1.391 2.296-2.87 3.442-4.302 1.11-1.39 1.39-3.433-.461-4.415-1.242-.658-3.24-.305-4.566-.305h-71.138c-1.296 0-3.123-.312-4.239.526-1.909 1.436-.776 3.366.366 4.793 1.025 1.283 1.987 2.68 3.107 3.882.566.608 1.228.88 2.047.917 2.278.105 4.584 0 6.863 0h60.869l1.57.001z"/><path d="M367.299 499.526V488.44c0-.31.196-1.5 0-1.758-.102-.135-.05-.01-.258-.09-.74-.282-2.157 0-2.938 0h-31.698c-.525 0-2.152-.292-2.61 0-.358.23-.11 2.102-.11 2.579v9.605c0 .16-.074.658.032.75.276.24 1.84 0 2.187 0h35.395z"/><path d="M367.299 460.432v-4.572-3.042c0-.16.108-.95-.009-1.058-.2-.183-1.446 0-1.7 0h-33.625c-.403 0-1.842-.244-2.184 0-.372.268-.096 2.428-.096 2.94v3.234c0 .499-.256 1.859 0 2.296.19.323.53.202 1.036.202h36.578z"/><path d="M367.299 431.92v-31.142c0-1.024-.287-.721-1.298-.721h-39.427c-.403 0-1.309-.18-1.674 0-.495.241-.209 1.946-.209 2.561V430.12c0 .3-.192 1.478 0 1.715.108.132.25.062.493.083 1.763.153 3.61 0 5.38 0h35.886c.28.002.565.002.849.002z"/><path d="M448.658 319.157V296.37v-12.832c0-.297.225-1.932 0-2.15-.122-.117-.925-.002-1.083-.002h-68.93c-.573 0-1.603-.206-2.144 0-.378.145-.278-.003-.278.583v32.728c0 1.302-.032 2.608 0 3.91.014.566-.103.413.278.55.565.203 1.6 0 2.19 0H447.577l1.082.001z"/><path d="M387.174 300.272c.006-3.748 2.415-7.182 5.946-8.447 3.528-1.263 7.577-.143 9.955 2.754 2.378 2.896 2.687 7.086.762 10.302-1.924 3.214-5.764 4.92-9.44 4.191-3.66-.727-6.552-3.748-7.119-7.439a8.964 8.964 0 0 1-.104-1.361z"/><path d="M437.708 300.272c-.006-3.748-2.415-7.182-5.946-8.447-3.526-1.263-7.576-.143-9.954 2.754-2.378 2.896-2.687 7.086-.763 10.302 1.924 3.214 5.764 4.92 9.439 4.191 3.662-.727 6.552-3.748 7.12-7.439.068-.45.103-.906.104-1.361z"/><path d="M490.803 190.222c2.625-.002 4.41-2.206 4.434-4.707.043-4.48 0-8.962 0-13.442V152.87v-5.443c0-.852-.042-1.663-.407-2.455a4.472 4.472 0 0 0-3.53-2.551c-2.276-.258-4.683-.028-6.97-.028-2.753 0-5.185 1.402-5.288 4.437-.127 3.74 0 7.505 0 11.246v26.249c0 .843-.073 1.733.138 2.558 1.028 4.022 5.402 3.338 8.542 3.338h3.08z"/><path d="M475.418 213.406l4.796-9.196 2.708-5.19c.491-.941.444-1.457.444-2.568v-6.23"/><path d="M487.139 190.222v6.71c0 .652.158 1.527-.001 2.164-.096.38-.416.796-.595 1.14-2.417 4.636-4.834 9.27-7.253 13.905-.437.838-1.22 1.862-1.405 2.793-.27 1.363 0 3.055 0 4.437v16.683c0 1.778.088 3.58 0 5.355-.063 1.282-1.106 2.368-2.467 1.93"/><path d="M475.418 99.535h-28.375"/><path d="M40.583 99.535h28.374"/><path d="M28.861 190.222v6.71c0 .652-.157 1.527.002 2.164.095.38.415.796.594 1.14 2.417 4.636 4.836 9.27 7.253 13.905.437.838 1.221 1.862 1.405 2.793.27 1.363 0 3.055 0 4.437v16.683c0 1.778-.087 3.58 0 5.355.063 1.282 1.107 2.368 2.468 1.93"/><path d="M40.583 213.406l-4.797-9.196-2.707-5.19c-.492-.941-.444-1.457-.444-2.568v-6.23"/><path d="M25.198 190.222c-2.625-.002-4.41-2.206-4.435-4.707-.043-4.48 0-8.962 0-13.442V152.87v-5.443c0-.852.042-1.663.407-2.455a4.471 4.471 0 0 1 3.531-2.551c2.276-.258 4.682-.028 6.97-.028 2.752 0 5.185 1.402 5.287 4.437.127 3.74 0 7.505 0 11.246v26.249c0 .843.073 1.733-.138 2.558-1.028 4.022-5.402 3.338-8.541 3.338h-3.081z"/><path d="M78.292 300.272c.006-3.748 2.415-7.182 5.946-8.447 3.528-1.263 7.577-.143 9.955 2.754 2.378 2.896 2.687 7.086.763 10.302-1.925 3.214-5.765 4.92-9.44 4.191-3.66-.727-6.552-3.748-7.119-7.439a9.12 9.12 0 0 1-.105-1.361z"/><path d="M128.826 300.272c-.006-3.748-2.415-7.182-5.946-8.447-3.527-1.263-7.576-.143-9.954 2.754-2.378 2.896-2.687 7.086-.763 10.302 1.924 3.214 5.765 4.92 9.44 4.191 3.661-.727 6.552-3.748 7.12-7.439.069-.45.103-.906.103-1.361z"/><path d="M67.342 319.157V296.37v-12.832c0-.297-.224-1.932 0-2.15.122-.117.925-.002 1.083-.002H137.355c.573 0 1.604-.206 2.144 0 .379.145.278-.003.278.583v32.728c0 1.302.033 2.608 0 3.91-.014.566.103.413-.278.55-.564.203-1.6 0-2.19 0H68.425l-1.083.001z"/><path d="M148.702 431.92v-31.142c0-1.024.286-.721 1.297-.721H189.427c.402 0 1.308-.18 1.673 0 .496.241.21 1.946.21 2.561V430.12c0 .3.192 1.478 0 1.715-.108.132-.251.062-.494.083-1.763.153-3.61 0-5.379 0H149.55c-.28.002-.564.002-.848.002z"/><path d="M148.702 460.432v-4.572-3.042c0-.16-.109-.95.008-1.058.2-.183 1.447 0 1.701 0h33.625c.402 0 1.842-.244 2.183 0 .373.268.097 2.428.097 2.94v3.234c0 .499.255 1.859 0 2.296-.19.323-.531.202-1.036.202H148.7z"/><path d="M148.702 499.526V488.44c0-.31-.196-1.5 0-1.758.101-.135.05-.01.258-.09.74-.282 2.157 0 2.937 0h31.698c.526 0 2.153-.292 2.61 0 .358.23.111 2.102.111 2.579v9.605c0 .16.074.658-.032.75-.276.24-1.84 0-2.187 0h-35.395z"/><path d="M122.05 272.544c-.893-.007-1.574-.438-2.138-1.097-1.193-1.391-2.296-2.87-3.442-4.302-1.111-1.39-1.39-3.433.46-4.415 1.242-.658 3.24-.305 4.567-.305h71.137c1.297 0 3.123-.312 4.24.526 1.908 1.436.775 3.366-.366 4.793-1.025 1.283-1.988 2.68-3.107 3.882-.566.608-1.229.88-2.048.917-2.277.105-4.583 0-6.862 0h-60.869l-1.571.001z"/><path d="M168.361 220.374h49.05c3.03 0 6.242.256 9.244-.268 8.795-1.534 14.94-9.327 14.957-18.137.015-8.403 0-16.804 0-25.207v-42.325-27.195c0-3.377-.651-6.627-2.322-9.597-1.698-3.016-4.409-5.404-6.792-7.868l-24.887-25.72c-2.782-2.874-6.095-4.968-10.065-5.748-2.757-.542-5.435-.268-8.161.203l-27.681 4.776-41.994 7.247-30 5.176c-2.273.392-4.54.712-6.69 1.598a18.175 18.175 0 0 0-9.825 9.85c-1.102 2.689-1.349 5.462-1.349 8.325V197.67c0 1.904-.08 3.83.034 5.732.575 9.51 8.64 16.903 18.09 16.972 9.051.067 18.106 0 27.159 0h46.33"/><path d="M166.66 223.263h53.089c3.057 0 6.086.104 9.075-.675a21.057 21.057 0 0 0 10.196-6.15 21.041 21.041 0 0 0 5.21-10.793c.38-2.361.268-4.784.268-7.168v-15.354-22.168-23.63-19.746-10.511c-.001-3.14-.528-6.199-1.81-9.08-1.364-3.065-3.491-5.44-5.79-7.814-4.676-4.834-9.354-9.669-14.032-14.502L209.96 62.334c-2.38-2.46-4.983-4.515-8.199-5.786-3.585-1.418-7.484-1.784-11.281-1.157-2.38.392-4.756.82-7.134 1.23-5.612.97-11.224 1.937-16.836 2.906l-22.224 3.835-23.297 4.02-20.055 3.461L88.433 73c-2.48.428-4.906.888-7.22 1.945a21.05 21.05 0 0 0-8.99 7.83c-2.136 3.36-3.236 7.264-3.267 11.237-.016 2.225 0 4.452 0 6.678v97.922c0 2.218-.101 4.475.214 6.676a21.035 21.035 0 0 0 5.024 10.882 21.056 21.056 0 0 0 10.088 6.325c2.773.774 5.558.77 8.403.77h69.07"/><path d="M162.54 230.264c2.17 0 4.345-.039 6.515 0 1.044.017 2.014.259 2.866.892 2.504 1.859 1.826 5.368 1.826 8.063v8.385c0 1.072.126 2.25-.172 3.297-.665 2.345-2.748 3.29-4.983 3.29h-22.143c-.964 0-1.997.097-2.954-.062-2.432-.402-3.772-2.523-3.784-4.845-.024-4.705-.024-9.41 0-14.114.012-2.31 1.328-4.418 3.746-4.84 1.347-.235 2.825-.066 4.181-.066H157.637"/><path d="M192.036 173.865c-1.06.01-1.636.728-2.122 1.552l-2.142 3.639-8.788 14.933a537182.47 537182.47 0 0 1-23.731 40.322c-.374.634-.885 1.297-1.138 1.997-.471 1.3.431 2.749 1.827 2.85 1.043.075 1.711-.6 2.2-1.423 5.61-9.44 11.14-18.927 16.71-28.392l16.892-28.701.291-.496"/><path d="M192.036 203.121V181.79v-29.911c0-.68-.3-2.202 0-2.827.299-.623 3.386-.214 4.183-.214 1.121 0 .935-.023.935 1.003v52.664c0 .092.065.537 0 .608-.216.232-1.888.012-2.211.012-.97-.003-1.937-.003-2.907-.003z"/><path d="M76.092 82.37V111.195c0 .327-.113.902 0 1.211.142.385-.094.12.173.265.185.1.71 0 .917 0H241.61"/><path d="M234.603 46.128c-2.253.001-4.312 1.484-5.023 3.624-.728 2.19.11 4.136 1.58 5.753l18.467 20.315c1.963 2.159 3.8 5.123 7.017 5.243 1.616.06 3.423.2 4.928-.529 1.19-.577 1.997-1.63 2.868-2.589l19.004-20.904c1.713-1.886 3.611-3.629 3.185-6.418-.341-2.228-2.119-4.04-4.34-4.42-1.45-.247-3.032-.075-4.492-.075h-43.194z"/><path d="M234.603 43.24c-3.42.002-6.554 2.21-7.705 5.434-1.134 3.177-.116 6.31 2.076 8.721l18.575 20.433c2.551 2.806 4.805 5.966 8.939 6.121 2.123.08 4.318.146 6.28-.784 1.444-.685 2.457-1.787 3.51-2.946l19.012-20.914c2.415-2.656 4.764-5.155 4.204-9.049-.487-3.386-3.122-6.177-6.476-6.855-2.36-.478-4.992-.162-7.372-.162h-41.043z"/><path d="M145.052 524.533v30.705c0 .51-.556 2.091 0 2.534.443.354 3.031.142 3.984.142h18.465c.965 0 2.75.182 3.658 0 .822-.163.5-.456.5-1.022v-3.84-24.735c0-1.08.205-2.22 0-3.296-.136-.703-.297-.487-1.885-.487"/><path d="M370.927 524.533v30.705c0 .51.605 2.091 0 2.534-.483.354-3.3.142-4.338.142h-20.1c-1.05 0-2.993.182-3.982 0-.895-.163-.544-.456-.544-1.022v-3.84-24.735c0-1.08-.224-2.22 0-3.296.147-.703.323-.487 2.052-.487h24.718l2.194-.001z"/></g><path fill="none" stroke="#49515a" stroke-linecap="round" stroke-linejoin="round" stroke-miterlimit="20" stroke-width="3.5" d="M483.366 190.22c-2.19-.067-4.052-1.759-4.297-3.943-.195-1.744-.027-3.584-.027-5.334v-25.799c0-2.648-.015-5.298 0-7.948.01-1.835.774-3.52 2.497-4.357.924-.449 1.872-.445 2.872-.445 1.984 0 3.968-.005 5.952 0 2.13.005 4.082 1.047 4.702 3.215.433 1.509.171 3.362.171 4.899v34.431c0 1.71-.307 3.295-1.775 4.396-.834.626-1.79.868-2.817.887-.978.018-1.956-.007-2.933 0-.646.005-.55-.054-.572.553-.077 2.047 0 4.11 0 6.158 0 .893.154 1.771-.217 2.578-1.573 3.41-3.495 6.701-5.232 10.032-.93 1.78-1.856 3.56-2.785 5.34-.315.604-.86 1.324-1.02 1.989-.188.787 0 1.85 0 2.652V242.782c0 .591.053 1.188-.26 1.72a1.906 1.906 0 0 1-2.207.841v137.149c0 1.524.03 3.039-.23 4.548-1.032 5.972-5.56 10.925-11.414 12.487-.658.175-1.327.308-2.003.396-.32.042-1.852-.059-2.037.134-.09.092 0 .752 0 .865v41.705c0 .211.123.921 0 1.112-.288.445-2.34.766-2.837.924-1.037.327-2.077.648-3.113.982-8.796 2.842-17.875 5.73-26.009 10.192-2.634 1.445-5.246 3.141-7.105 5.547-2.428 3.143-4.006 7.021-4.785 10.896-.797 3.959-.9 8.042-.915 12.069-.019 4.905.325 9.993-.394 14.866-.97 6.58-4.798 11.422-10.897 13.962-3.81 1.587-7.959 2.272-12.054 2.589-.503.04-.696-.063-.842.363-.07.206-.018.528-.035.751-.035.468-.095.936-.188 1.396a8.188 8.188 0 0 1-.826 2.326c-2.311 4.207-7.614 3.93-11.732 3.93h-4.96c-.337 0-1.76-.187-1.97.057-.16.186 0 1.285 0 1.512V556.705c0 .174.13 1.065 0 1.199-.203.211-1.753.01-2.036.01h-24.697c-.278 0-1.682.18-1.864-.021-.144-.159 0-1.08 0-1.286V538.61v-9.473-3.09c0-.217.156-1.303 0-1.477-.27-.302-2.288-.036-2.696-.036h1.859H172.815c-.592 0-.263-.088-.85 0-.476.072-.288-.122-.434.265-.197.524 0 1.524 0 2.077V557.22c0 .297.068.569-.109.694-.162.115-.78 0-.987 0h-24.537c-.468 0-.798.131-.963-.179-.193-.36 0-1.393 0-1.789v-8.204-19.583-2.775c0-.168.08-.743-.03-.85-.105-.103-.934 0-1.065 0H136.595c-3.903 0-8.55-.247-10.49-4.257-.368-.76-.598-1.579-.732-2.41-.076-.476-.12-.957-.14-1.44-.02-.445.054-.446-.295-.62-.37-.186-1.137-.087-1.554-.126-4.029-.38-8.108-1.143-11.81-2.831-6.102-2.782-9.54-8-10.275-14.643-.982-8.88.66-17.966-1.36-26.761-.85-3.7-2.463-7.476-4.894-10.422-2.061-2.5-4.94-4.22-7.776-5.7-8.007-4.181-16.783-7.032-25.365-9.778-1.433-.458-2.869-.905-4.302-1.358-.526-.166-1.152-.178-1.332-.624-.16-.397 0-1.215 0-1.635v-2.86-19.416-17.32c0-.593.103-1.289 0-1.873-.091-.506.02-.389-.612-.413a15.72 15.72 0 0 1-4.07-.703c-5.774-1.804-10.085-6.938-10.87-12.935-.324-2.473-.134-5.061-.134-7.543V360.09v-29.526-22.59-41.52-21.112c-2.411.742-2.467-1.977-2.467-3.518V228.17v-7.162c0-1.266.187-2.696 0-3.951-.104-.693-.588-1.348-.915-1.974-1.054-2.021-2.11-4.043-3.163-6.066l-3.431-6.578c-.529-1.014-1.456-2.222-1.742-3.339-.118-.463-.004-1.102-.004-1.577v-3.811c0-.976.152-2.091 0-3.056-.014-.086.05-.377-.01-.436-.12-.12-.988 0-1.15 0-2.76 0-5.838.026-6.767-3.215-.537-1.876-.17-4.237-.17-6.146v-28.687c0-1.999-.333-4.328.106-6.307.613-2.764 3.043-3.473 5.517-3.473 2.034 0 4.08-.07 6.113 0 1.193.04 2.304.443 3.16 1.299 1.462 1.463 1.299 3.35 1.299 5.237v27.731c0 2.971.043 5.945 0 8.916-.031 2.16-1.33 4.091-3.526 4.55-.755.158-.798-.043-.798.773v3.413c0 1.281-.311 2.954.157 4.154.644 1.655 1.693 3.248 2.515 4.822l3.55 6.807 1.726 3.31v-8.128-20.304-26.594-27.107-21.553c0-3.342-.01-6.683 0-10.025.014-5.151.63-10.276 1.986-15.25 1.525-5.59 3.937-10.911 7.042-15.798 3.183-5.01 7.065-9.543 11.352-13.637 4.047-3.864 8.469-7.346 13.105-10.475 4.998-3.374 10.211-6.402 15.583-9.14 5.275-2.689 10.692-5.098 16.188-7.297a252.848 252.848 0 0 1 16.878-6.04 314.068 314.068 0 0 1 17.326-5.02c5.861-1.51 11.749-2.932 17.675-4.163 5.958-1.237 11.93-2.405 17.929-3.421 5.959-1.009 11.937-1.938 17.93-2.73 6.06-.8 12.133-1.553 18.218-2.138a685.218 685.218 0 0 1 19.469-1.62 410.709 410.709 0 0 1 17.564-.835c6.424-.16 12.833-.138 19.256.022 5.86.146 11.719.478 17.566.875 6.433.435 12.848 1.01 19.265 1.627 5.92.57 11.836 1.303 17.73 2.1 5.997.809 11.983 1.721 17.948 2.742a465.592 465.592 0 0 1 18.191 3.485c6.029 1.28 12.018 2.724 17.983 4.27 5.832 1.51 11.605 3.24 17.343 5.077a237.325 237.325 0 0 1 16.366 5.902c5.61 2.259 11.14 4.727 16.515 7.5 5.306 2.74 10.48 5.742 15.405 9.122 4.602 3.16 8.99 6.643 13.012 10.518 4.321 4.164 8.216 8.8 11.374 13.91 3.004 4.862 5.327 10.134 6.781 15.663 1.276 4.854 1.841 9.843 1.852 14.857.008 3.525 0 7.051 0 10.576v103.032l4.796-9.196 2.708-5.19c.491-.941.444-1.457.444-2.568.002-2.079 0-4.155.002-6.233z"/></svg>