<svg xmlns="http://www.w3.org/2000/svg" width="20" height="16" viewBox="0 0 20 16"><path d="M20 1.894a8.653 8.653 0 0 1-2.363.638A4.026 4.026 0 0 0 19.441.3a8.272 8.272 0 0 1-2.6.978A4.139 4.139 0 0 0 13.846 0c-2.27 0-4.098 1.814-4.098 4.038 0 .32.028.628.095.92A11.666 11.666 0 0 1 1.393.737a4.017 4.017 0 0 0-.562 2.04c0 1.399.731 2.638 1.821 3.356A4.098 4.098 0 0 1 .8 5.634v.045C.8 7.64 2.22 9.27 4.085 9.646c-.334.09-.698.132-1.075.132a3.68 3.68 0 0 1-.777-.068 4.132 4.132 0 0 0 3.832 2.812A8.32 8.32 0 0 1 .98 14.244c-.336 0-.659-.015-.981-.056A11.674 11.674 0 0 0 6.29 16c7.545 0 11.67-6.154 11.67-11.488 0-.178-.007-.35-.015-.522A8.111 8.111 0 0 0 20 1.894z"/></svg>