<svg xmlns="http://www.w3.org/2000/svg" width="21" height="12" viewBox="0 0 21 12"><path d="M20.13 9.627c-.625-.75-1.36-1.39-2.057-2.07-.628-.612-.668-.967-.163-1.674.551-.772 1.144-1.514 1.7-2.283.519-.717 1.05-1.433 1.323-2.293.173-.547.02-.789-.541-.884a1.731 1.731 0 0 0-.295-.018L16.77.401c-.41-.006-.637.173-.782.536-.195.49-.397.981-.63 1.455-.529 1.074-1.12 2.113-1.948 2.992-.182.194-.384.439-.69.338-.381-.14-.494-.768-.487-.98L12.229.9c-.074-.55-.195-.794-.74-.9H8.033c-.462 0-.693.179-.94.467-.142.167-.184.275.108.33.573.11.896.48.982 1.056.138.919.128 1.841.049 2.764a2.57 2.57 0 0 1-.177.79c-.167.395-.437.476-.791.233-.321-.22-.547-.532-.767-.844-.83-1.17-1.49-2.434-2.03-3.761-.156-.384-.424-.616-.83-.623A84.807 84.807 0 0 0 .64.414c-.6.012-.78.303-.535.848 1.087 2.418 2.298 4.77 3.877 6.912.811 1.099 1.743 2.07 2.946 2.757 1.363.78 2.83 1.014 4.377.942.724-.034.941-.222.975-.944.022-.493.078-.984.322-1.428.239-.435.6-.518 1.018-.247.208.135.384.308.55.49.408.446.8.905 1.223 1.336.53.54 1.159.858 1.949.793h3.058c.493-.032.748-.636.465-1.186-.198-.385-.459-.728-.736-1.06z"/></svg>