<svg xmlns="http://www.w3.org/2000/svg" width="18" height="18" viewBox="0 0 18 18"><path d="M9 16.451h-.003a7.6 7.6 0 0 1-3.613-.915l-.233-.127-3.277.745.712-3.234-.137-.236c-.682-1.177-1.043-2.475-1.043-3.756C1.41 4.783 4.815 1.406 9 1.406c2.022.001 3.921.785 5.349 2.207 1.449 1.443 2.246 3.332 2.246 5.319-.002 4.146-3.409 7.52-7.594 7.52zm6.34-13.835A8.93 8.93 0 0 0 9 0a8.975 8.975 0 0 0-6.35 2.614A8.839 8.839 0 0 0 0 8.925v.005c0 1.439.379 2.891 1.096 4.216L.025 18.017l4.927-1.12c1.248.628 2.64.96 4.044.96H9c2.39 0 4.646-.928 6.35-2.614A8.829 8.829 0 0 0 18 8.933c0-2.364-.944-4.607-2.66-6.317z"/><path d="M6.55 4.992h-.394a.758.758 0 0 0-.549.257c-.188.205-.72.702-.72 1.711 0 1.01.738 1.985.84 2.122.103.137 1.424 2.275 3.517 3.097 1.739.684 2.093.548 2.47.513.378-.034 1.218-.496 1.39-.975.171-.479.171-.89.12-.975-.052-.086-.189-.137-.395-.24-.206-.102-1.215-.607-1.403-.676-.189-.068-.326-.102-.464.103-.137.205-.541.68-.661.817-.12.137-.24.154-.446.051-.206-.103-.862-.323-1.649-1.022-.612-.544-1.037-1.238-1.157-1.443-.12-.205-.013-.316.09-.419a6.18 6.18 0 0 0 .32-.337c.104-.12.133-.205.202-.342.068-.137.034-.257-.017-.36-.052-.102-.447-1.117-.63-1.523-.154-.341-.317-.353-.463-.359z"/></svg>