<?xml version="1.0" encoding="UTF-8"?>
<svg width="81px" height="80px" viewBox="0 0 81 80" version="1.1" xmlns="http://www.w3.org/2000/svg" xmlns:xlink="http://www.w3.org/1999/xlink">
    <!-- Generator: sketchtool 50 (54983) - http://www.bohemiancoding.com/sketch -->
    <title>AC7A03E0-D55E-4739-BFD4-BE94A3296B3D</title>
    <desc>Created with sketchtool.</desc>
    <defs></defs>
    <g id="The-golden-fleece" stroke="none" stroke-width="1" fill="none" fill-rule="evenodd">
        <g id="All-Universes---Main" transform="translate(-807.000000, -613.000000)" fill="#558DFF" fill-rule="nonzero">
            <g id="Group-2-Copy" transform="translate(715.000000, 613.000000)">
                <g id="bitcoin-(1)" transform="translate(92.000000, 0.000000)">
                    <path d="M22.0873181,15.2989605 C22.4320998,14.7040333 22.6155509,14.0292723 22.6195426,13.3417048 C22.6195426,11.137131 20.8324324,9.35002079 18.6278586,9.35002079 L18.6278586,8.01945946 C18.6278586,7.28465696 18.0320998,6.68889813 17.2972973,6.68889813 C16.5624948,6.68889813 15.966736,7.28465696 15.966736,8.01945946 L15.966736,9.35002079 L14.6361746,9.35002079 L14.6361746,8.01945946 C14.6361746,7.28465696 14.0404158,6.68889813 13.3056133,6.68889813 C12.5708108,6.68889813 11.975052,7.28465696 11.975052,8.01945946 L11.975052,9.35002079 L10.6444906,9.35002079 C9.90968815,9.35002079 9.31392931,9.94577963 9.31392931,10.6805821 C9.31392931,11.4153846 9.90968815,12.0111435 10.6444906,12.0111435 L11.975052,12.0111435 L11.975052,19.9945114 L10.6444906,19.9945114 C9.90968815,19.9945114 9.31392931,20.5902703 9.31392931,21.3250728 C9.31392931,22.0598753 9.90968815,22.6556341 10.6444906,22.6556341 L11.975052,22.6556341 L11.975052,23.9861954 C11.975052,24.7209979 12.5708108,25.3167568 13.3056133,25.3167568 C14.0404158,25.3167568 14.6361746,24.7209979 14.6361746,23.9861954 L14.6361746,22.6556341 L15.966736,22.6556341 L15.966736,23.9861954 C15.966736,24.7209979 16.5624948,25.3167568 17.2972973,25.3167568 C18.0320998,25.3167568 18.6278586,24.7209979 18.6278586,23.9861954 L18.6278586,22.6556341 L19.95842,22.6556341 C22.1585031,22.66079 23.9462786,20.8813306 23.9514345,18.6812474 C23.9545946,17.3079418 23.2500624,16.0297713 22.0873181,15.2989605 Z M14.6361746,12.0111435 L18.6278586,12.0111435 C19.3626611,12.0111435 19.95842,12.6069023 19.95842,13.3417048 C19.95842,14.0765073 19.3626611,14.6722661 18.6278586,14.6722661 L14.6361746,14.6722661 L14.6361746,12.0111435 Z M19.95842,19.9945114 L14.6361746,19.9945114 L14.6361746,17.3333888 L19.95842,17.3333888 C20.6932225,17.3333888 21.2889813,17.9291476 21.2889813,18.6639501 C21.2889813,19.3987526 20.6932225,19.9945114 19.95842,19.9945114 Z" id="Shape"></path>
                    <path d="M80.2408316,25.5535967 C80.240499,25.49921 80.2360083,25.4449896 80.227526,25.3912682 C80.2059044,25.2479002 80.1609979,25.1090229 80.0944699,24.9801247 C80.0944699,24.9801247 80.0944699,24.9654886 80.0864865,24.9575052 L78.9541788,22.9975884 L72.5568399,11.9166736 C72.475343,11.7804574 72.3692308,11.6605405 72.244158,11.5627443 C72.2113929,11.5372973 72.177131,11.5136798 72.1417048,11.4922245 C72.0417464,11.4235343 71.932474,11.3698129 71.8170478,11.3325572 C71.7917672,11.3232432 71.7731393,11.3046154 71.7478586,11.2979626 L40.905447,3.03517672 C40.1957588,2.84474012 39.4659459,3.26586279 39.2756757,3.97555094 C39.2756757,3.97571726 39.2756757,3.97571726 39.2756757,3.97588358 L35.3305613,18.6639501 L31.6981289,18.6639501 C31.8514761,17.7851143 31.9303119,16.8949688 31.9336383,16.0028274 C31.9318087,7.18469854 24.7820374,0.0374220374 15.9639085,0.0389189189 C13.4273597,0.0394178794 10.9274012,0.644158004 8.67126819,1.80307692 C7.69513514,2.29372141 6.77638254,2.89081081 5.93164241,3.58336798 C4.64266112,4.62203742 3.52548857,5.8572973 2.62120582,7.2437422 C2.26960499,7.78677755 1.94627859,8.34777547 1.65255717,8.92424116 C-0.550852391,13.3856133 -0.550852391,18.618711 1.65255717,23.0800832 C1.94594595,23.6572141 2.26927235,24.2185447 2.62120582,24.7619127 C2.62918919,24.7752183 2.69305613,24.8776715 2.70237006,24.8949688 C5.14411642,28.5353846 8.98095634,31.0059044 13.3056133,31.722079 L13.3056133,78.53921 C13.3056133,79.2740125 13.9013721,79.8697713 14.6361746,79.8697713 L57.2141372,79.8697713 C57.9489397,79.8697713 58.5446985,79.2740125 58.5446985,78.53921 L58.5446985,71.12 L66.1834511,73.1717256 C66.2958836,73.2013306 66.4118087,73.2164657 66.5280665,73.2169647 C67.1303119,73.2169647 67.6573805,72.8126403 67.8133888,72.2310187 L80.2142204,25.9674012 C80.2235343,25.9301455 80.2142204,25.8928898 80.2142204,25.8543035 C80.2350104,25.7555094 80.2439917,25.654553 80.2408316,25.5535967 Z M71.8503119,16.0294387 L76.1653222,23.5018711 L70.2709356,21.9224948 L71.8503119,16.0294387 Z M4.87783784,23.3515177 L4.87650728,23.347526 C4.57347193,22.8813306 4.29455301,22.4 4.04091476,21.9051975 C2.19841996,18.1826195 2.19841996,13.8137214 4.04091476,10.0911435 C4.30918919,9.57488565 4.6037422,9.07259875 4.92307692,8.58627859 C5.66669439,7.47143451 6.57779626,6.47767152 7.62411642,5.6404158 C8.32232848,5.07126819 9.08074844,4.58045738 9.88607069,4.17679834 C16.4158004,0.815301455 24.4340956,3.38378378 27.7954262,9.91334719 C29.3420374,12.9175884 29.6868191,16.3978378 28.7600832,19.6472349 C28.6034096,20.2210395 28.4028274,20.7820374 28.16,21.3250728 C26.0412474,26.1711435 21.2557173,29.3044491 15.966736,29.3084407 C15.5555925,29.3084407 15.1564241,29.2831601 14.7572557,29.2472349 C10.7389605,28.8861538 7.10336798,26.7165073 4.87783784,23.3515177 Z M55.8835759,77.2086486 L15.966736,77.2086486 L15.966736,31.9695634 C22.3101871,31.9655717 28.0507277,28.2097297 30.5949272,22.3988358 C30.7492723,22.0488981 30.8889813,21.6962994 31.0140541,21.3450312 L31.0220374,21.3250728 L45.2390852,21.3250728 L45.2390852,30.6390021 C45.2390852,31.3738046 45.8348441,31.9695634 46.5696466,31.9695634 L55.8835759,31.9695634 L55.8835759,77.2086486 Z M47.9002079,29.3084407 L47.9002079,23.2064865 L54.0021622,29.3084407 L47.9002079,29.3084407 Z M65.5873597,70.2551351 L58.5446985,68.365738 L58.5446985,65.6114761 L62.4179626,66.6506445 C62.5302287,66.68158 62.6461538,66.6972141 62.762578,66.6972141 C63.4973805,66.6975468 64.0934719,66.1021206 64.0938046,65.3673181 C64.0941372,64.7647401 63.6893139,64.2371726 63.1071933,64.0813306 L58.5446985,62.8558836 L58.5446985,60.1029522 L63.8004158,61.5160083 C63.9133472,61.5459459 64.029605,61.5610811 64.1463617,61.5612474 C64.8811642,61.5622453 65.4777547,60.9674844 65.4789189,60.2326819 C65.4797505,59.629605 65.0749272,59.1013721 64.4923077,58.9453638 L58.5446985,57.3473597 L58.5446985,54.589106 L65.1735551,56.3627443 C65.8837422,56.5530146 66.6138877,56.1315593 66.804158,55.4213721 C66.9944283,54.711185 66.572973,53.9810395 65.8627859,53.7907692 L58.5446985,51.8388358 L58.5446985,49.0845738 L66.5560083,51.2307692 C66.6684407,51.2607069 66.7841996,51.275842 66.9006237,51.2760083 C67.6354262,51.276341 68.2315177,50.6809148 68.2318503,49.9461123 C68.232183,49.3435343 67.8273597,48.8159667 67.2452391,48.6601247 L58.5446985,46.3289813 L58.5446985,43.5773805 L67.9264865,46.0948025 C68.0392516,46.1254054 68.1556757,46.1407069 68.2724324,46.1400416 C69.0072349,46.1368815 69.600499,45.5387942 69.5973389,44.8038254 C69.5948441,44.2054054 69.1931809,43.6823285 68.6157173,43.5254886 L58.5446985,40.8217879 L58.5446985,30.6390021 C58.5446985,30.6097297 58.5300624,30.5844491 58.5274012,30.5551767 C58.5207484,30.4385863 58.4979626,30.3234927 58.4595426,30.2132225 C58.4449064,30.1706445 58.434262,30.1293971 58.4156341,30.0881497 C58.3512682,29.9431185 58.2611227,29.8110603 58.1495218,29.6982952 L47.5050312,19.0538046 C47.3919335,18.9425364 47.2598753,18.8523909 47.1151767,18.7876923 C47.0739293,18.7690644 47.0340125,18.75842 46.9914345,18.7437838 C46.8790021,18.7048649 46.76158,18.68158 46.6428274,18.6745946 C46.6185447,18.6697713 46.594262,18.6662786 46.5696466,18.6639501 L38.0859875,18.6639501 L41.4962162,5.94910603 L69.7693139,13.5239917 L67.3583368,22.522578 C67.1679002,23.2322661 67.5890229,23.962079 68.298711,24.1523493 C68.2988773,24.1523493 68.2988773,24.1523493 68.2990437,24.1523493 L77.3056133,26.5593347 L65.5873597,70.2551351 Z" id="Shape"></path>
                    <path d="M43.9085239,45.2751767 L42.5779626,45.2751767 L42.5779626,41.2834927 C42.5779626,37.6093139 39.5993347,34.6306861 35.9251559,34.6306861 C32.2509771,34.6306861 29.2723493,37.6093139 29.2723493,41.2834927 L29.2723493,45.2751767 L27.9417879,45.2751767 C25.7372141,45.2751767 23.950104,47.0622869 23.950104,49.2668607 L23.950104,59.9113514 C23.950104,62.1159252 25.7372141,63.9030353 27.9417879,63.9030353 L43.9085239,63.9030353 C46.1130977,63.9030353 47.9002079,62.1159252 47.9002079,59.9113514 L47.9002079,49.2668607 C47.9002079,47.0622869 46.1130977,45.2751767 43.9085239,45.2751767 Z M31.9334719,41.2834927 C31.9334719,39.0789189 33.7205821,37.2918087 35.9251559,37.2918087 C38.1297297,37.2918087 39.9168399,39.0789189 39.9168399,41.2834927 L39.9168399,45.2751767 L31.9334719,45.2751767 L31.9334719,41.2834927 Z M45.2390852,59.9113514 C45.2390852,60.6461538 44.6433264,61.2419127 43.9085239,61.2419127 L27.9417879,61.2419127 C27.2069854,61.2419127 26.6112266,60.6461538 26.6112266,59.9113514 L26.6112266,49.2668607 C26.6112266,48.5320582 27.2069854,47.9362994 27.9417879,47.9362994 L43.9085239,47.9362994 C44.6433264,47.9362994 45.2390852,48.5320582 45.2390852,49.2668607 L45.2390852,59.9113514 Z" id="Shape"></path>
                    <path d="M35.9251559,51.9279834 C35.1903534,51.9279834 34.5945946,52.5237422 34.5945946,53.2585447 L34.5945946,55.9196674 C34.5945946,56.6544699 35.1903534,57.2502287 35.9251559,57.2502287 C36.6599584,57.2502287 37.2557173,56.6544699 37.2557173,55.9196674 L37.2557173,53.2585447 C37.2557173,52.5237422 36.6599584,51.9279834 35.9251559,51.9279834 Z" id="Shape"></path>
                </g>
            </g>
        </g>
    </g>
</svg>