<?xml version="1.0" encoding="UTF-8"?>
<svg width="80px" height="80px" viewBox="0 0 80 80" version="1.1" xmlns="http://www.w3.org/2000/svg" xmlns:xlink="http://www.w3.org/1999/xlink">
    <!-- Generator: sketchtool 50 (54983) - http://www.bohemiancoding.com/sketch -->
    <title>68F9D7AC-BEDE-4877-AB98-0D67CC908A06</title>
    <desc>Created with sketchtool.</desc>
    <defs></defs>
    <g id="The-golden-fleece" stroke="none" stroke-width="1" fill="none" fill-rule="evenodd">
        <g id="All-Universes---Main" transform="translate(-1046.000000, -2277.000000)" fill="#558DFF" fill-rule="nonzero">
            <g id="Group-2-Copy-7" transform="translate(940.000000, 2277.000000)">
                <g id="bitcoin-(3)" transform="translate(106.000000, 0.000000)">
                    <path d="M79.684,29.8053333 C79.4308333,29.5061667 79.0586667,29.3335 78.6666667,29.3333333 L40.552,29.3333333 L19.244,8.02533333 C19.7341667,7.21266667 19.9953333,6.2825 20,5.33333333 C20,2.38783333 17.6121667,0 14.6666667,0 C11.7211667,0 9.33333333,2.38783333 9.33333333,5.33333333 C9.33333333,8.27883333 11.7211667,10.6666667 14.6666667,10.6666667 C15.6158333,10.662 16.546,10.4008333 17.3586667,9.91066667 L36.7813333,29.3333333 L1.33333333,29.3333333 C0.597,29.3336667 0.000333333333,29.9308333 0.000666666667,30.6673333 C0.000666666667,30.7403333 0.00666666667,30.8133333 0.0186666667,30.8853333 L6.16533333,67.7333333 C7.31616667,74.8205 13.4466667,80.0206667 20.6266667,80 L59.3733333,80 C66.5511667,80.0213333 72.681,74.8245 73.8346667,67.74 L79.9813333,30.8853333 C80.0456667,30.4991667 79.9368333,30.1041667 79.684,29.8053333 Z M14.6666667,8 C13.1938333,8 12,6.80616667 12,5.33333333 C12,3.8605 13.1938333,2.66666667 14.6666667,2.66666667 C16.1395,2.66666667 17.3333333,3.8605 17.3333333,5.33333333 C17.3333333,6.80616667 16.1395,8 14.6666667,8 Z M41.3333333,32 L58.4266667,32 L56.5226667,43.42 C53.05,38.3558333 47.4581667,35.1511667 41.3333333,34.7146667 L41.3333333,32 Z M38.6666667,32 L38.6666667,34.7146667 C32.5438333,35.151 26.9536667,38.3541667 23.4813333,43.416 L21.5746667,32 L38.6666667,32 Z M5.13866667,45.372 L2.908,32 L18.8706667,32 L21.092,45.3333333 L5.33333333,45.3333333 C5.2675,45.3413333 5.2025,45.3543333 5.13866667,45.372 Z M5.576,48 L21.176,48 C19.6145,52.3051667 19.6023333,57.02 21.1413333,61.3333333 L7.8,61.3333333 L5.576,48 Z M20.6266667,77.3333333 C14.7548333,77.3485 9.742,73.0956667 8.8,67.3 L8.24533333,64 L22.3226667,64 C23.0136667,65.306 23.8481667,66.531 24.8106667,67.652 L26.4253333,77.3333738 L20.6266667,77.3333333 Z M38.6666667,77.3333333 L29.1293333,77.3333333 L28.0146667,70.6546667 C31.1098333,72.9701667 34.8096667,74.3391667 38.6666667,74.596 L38.6666667,77.3333333 Z M50.8706667,77.3333333 L41.3333333,77.3333333 L41.3333333,74.5946667 C45.1911667,74.3386667 48.8916667,72.9681667 51.9853333,70.6493333 L50.8706667,77.3333333 Z M28.449,67.5828333 C26.7245,66.0451667 25.3248333,64.1783333 24.332,62.092 C22.2196667,57.6458333 22.107,52.509 24.0226667,47.9746667 C24.043,47.9265 24.0603333,47.877 24.0746667,47.8266667 C24.1573333,47.6306667 24.2413333,47.4333333 24.332,47.2413333 C28.4325,38.5911667 38.769,34.9028333 47.4193333,39.0033333 C51.0335,40.7166667 53.944,43.6271667 55.6573333,47.2413333 L55.7346667,47.404 C55.816,47.576 55.8986667,47.744 55.98,47.9506667 C56.3168333,48.7488333 56.5901667,49.5721667 56.7973333,50.4133333 C57.1515,51.8035 57.3316667,53.2321667 57.3333333,54.6666667 C57.338,58.029 56.3601667,61.3193333 54.52,64.1333333 C54.0478333,64.858 53.5171667,65.543 52.9333333,66.1813333 C46.5591667,73.3295 35.5971667,73.9568333 28.449,67.5828333 Z M71.2,67.3026667 C70.2568333,73.0973333 65.2441667,77.3486667 59.3733333,77.3333333 L53.5733333,77.3333747 L55.1893333,67.6426667 C55.759,66.9938333 56.2825,66.306 56.756,65.584 C57.0906667,65.072 57.3933333,64.5386667 57.6773333,64 L71.7546667,64 L71.2,67.3026667 Z M72.2,61.3333333 L58.8546667,61.3333333 C60.1718333,57.613 60.3575,53.5856667 59.388,49.76 C59.2413333,49.164 59.056,48.5773333 58.8546667,48 L74.424,48 L72.2,61.3333333 Z M74.8613333,45.3733333 C74.7976667,45.3545 74.7325,45.3411667 74.6666667,45.3333333 L58.9133333,45.3333333 L61.1293333,32 L77.092,32 L74.8613333,45.3733333 Z" id="Shape"></path>
                    <path d="M45.4813333,52.6453333 C47.3223333,50.384 46.9816667,47.0581667 44.7201667,45.2171667 C44.1193333,44.728 43.4183333,44.3771667 42.6666667,44.1893333 L42.6666667,42.6666667 C42.6666667,41.9303333 42.0696667,41.3333333 41.3333333,41.3333333 C40.597,41.3333333 40,41.9303333 40,42.6666667 L40,44 L38.6666667,44 L38.6666667,42.6666667 C38.6666667,41.9303333 38.0696667,41.3333333 37.3333333,41.3333333 C36.597,41.3333333 36,41.9303333 36,42.6666667 L36,44 L32,44 C31.2636667,44 30.6666667,44.597 30.6666667,45.3333333 C30.6666667,46.0696667 31.2636667,46.6666667 32,46.6666667 L33.3333333,46.6666667 L33.3333333,62.6666667 L32,62.6666667 C31.2636667,62.6666667 30.6666667,63.2636667 30.6666667,64 C30.6666667,64.7363333 31.2636667,65.3333333 32,65.3333333 L36,65.3333333 L36,66.6666667 C36,67.403 36.597,68 37.3333333,68 C38.0696667,68 38.6666667,67.403 38.6666667,66.6666667 L38.6666667,65.3333333 L40,65.3333333 L40,66.6666667 C40,67.403 40.597,68 41.3333333,68 C42.0696667,68 42.6666667,67.403 42.6666667,66.6666667 L42.6666667,65.3333333 C46.3411667,65.3405 49.3258333,62.3675 49.333,58.693 C49.338,56.0985 47.8345,53.7378333 45.4813333,52.6453333 Z M36,46.6666667 L41.3333333,46.6666667 C42.8061667,46.6666667 44,47.8605 44,49.3333333 C44,50.8061667 42.8061667,52 41.3333333,52 L36,52 L36,46.6666667 Z M42.6666667,62.6666667 L36,62.6666667 L36,54.6666667 L42.6666667,54.6666667 C44.8758333,54.6666667 46.6666667,56.4575 46.6666667,58.6666667 C46.6666667,60.8758333 44.8758333,62.6666667 42.6666667,62.6666667 Z" id="Shape"></path>
                </g>
            </g>
        </g>
    </g>
</svg>