<?xml version="1.0" encoding="UTF-8"?>
<svg width="54px" height="80px" viewBox="0 0 54 80" version="1.1" xmlns="http://www.w3.org/2000/svg" xmlns:xlink="http://www.w3.org/1999/xlink">
    <!-- Generator: sketchtool 50 (54983) - http://www.bohemiancoding.com/sketch -->
    <title>3DAF35DD-E443-4B95-8717-F22F7E72DAEF</title>
    <desc>Created with sketchtool.</desc>
    <defs></defs>
    <g id="The-golden-fleece" stroke="none" stroke-width="1" fill="none" fill-rule="evenodd">
        <g id="All-Universes---Main" transform="translate(-673.000000, -2047.000000)" fill="#558DFF" fill-rule="nonzero">
            <g id="Group-10" transform="translate(520.000000, 2047.000000)">
                <g id="money" transform="translate(153.000000, 0.000000)">
                    <path d="M49.3333333,32 L46.6666667,32 L46.6666667,17.3333333 C46.6556667,7.765 38.9016667,0.011 29.3333333,0 L24,0 C14.4316667,0.011 6.67766667,7.765 6.66666667,17.3333333 L6.66666667,32 L4,32 C1.79083333,32 0,33.7908333 0,36 L0,78.6666667 C0,79.403 0.597,80 1.33333333,80 L52,80 C52.7363333,80 53.3333333,79.403 53.3333333,78.6666667 L53.3333333,36 C53.3333333,33.7908333 51.5425,32 49.3333333,32 Z M9.33333333,17.3333333 C9.34283333,9.23716667 15.9038333,2.67616667 24,2.66666667 L29.3333333,2.66666667 C37.4295,2.67616667 43.9905,9.23716667 44,17.3333333 L44,32 L41.3333333,32 L41.3333333,17.3333333 C41.3253333,10.7093333 35.9573333,5.34133333 29.3333333,5.33333333 L24,5.33333333 C17.376,5.34133333 12.008,10.7093333 12,17.3333333 L12,32 L9.33333333,32 L9.33333333,17.3333333 Z M38.6666667,17.3333333 L38.6666667,32 L14.6666667,32 L14.6666667,17.3333333 C14.6725,12.1811667 18.8478333,8.00583333 24,8 L29.3333333,8 C34.4855,8.00583333 38.6608333,12.1811667 38.6666667,17.3333333 Z M50.6666667,77.3333333 L2.66666667,77.3333333 L2.66666667,36 C2.66666667,35.2636667 3.26366667,34.6666667 4,34.6666667 L49.3333333,34.6666667 C50.0696667,34.6666667 50.6666667,35.2636667 50.6666667,36 L50.6666667,77.3333333 Z" id="Shape"></path>
                    <path d="M32.2933333,56 C33.7756667,54.375 33.66,51.856 32.035,50.3736667 C31.2968333,49.7003333 30.3325,49.329 29.3333333,49.3333333 L28,49.3333333 L28,46.6666667 L25.3333333,46.6666667 L25.3333333,49.3333333 L24,49.3333333 L24,46.6666667 L21.3333333,46.6666667 L21.3333333,49.3333333 C20.597,49.3333333 20,49.9303333 20,50.6666667 L20,61.3333333 C20,62.0696667 20.597,62.6666667 21.3333333,62.6666667 L21.3333333,65.3333333 L24,65.3333333 L24,62.6666667 L25.3333333,62.6666667 L25.3333333,65.3333333 L28,65.3333333 L28,62.6666667 L29.3333333,62.6666667 C31.5328333,62.6763333 33.3238333,60.9011667 33.3336667,58.7016667 C33.338,57.7025 32.9666667,56.7381667 32.2933333,56 Z M29.3333333,60 L22.6666667,60 L22.6666667,57.3333333 L29.3333333,57.3333333 C30.0696667,57.3333333 30.6666667,57.9303333 30.6666667,58.6666667 C30.6666667,59.403 30.0696667,60 29.3333333,60 Z M29.3333333,54.6666667 L22.6666667,54.6666667 L22.6666667,52 L29.3333333,52 C30.0696667,52 30.6666667,52.597 30.6666667,53.3333333 C30.6666667,54.0696667 30.0696667,54.6666667 29.3333333,54.6666667 Z" id="Shape"></path>
                    <path d="M26.6666667,40 C17.8301667,40 10.6666667,47.1635 10.6666667,56 C10.6666667,64.8365 17.8301667,72 26.6666667,72 C35.5031667,72 42.6666667,64.8365 42.6666667,56 C42.6571667,47.1673333 35.4993333,40.0095 26.6666667,40 Z M26.6666667,69.3333333 C19.3028333,69.3333333 13.3333333,63.3638333 13.3333333,56 C13.3333333,48.6361667 19.3028333,42.6666667 26.6666667,42.6666667 C34.0305,42.6666667 40,48.6361667 40,56 C39.992,63.3605 34.0271667,69.3251667 26.6666667,69.3333333 Z" id="Shape"></path>
                </g>
            </g>
        </g>
    </g>
</svg>