<?xml version="1.0" encoding="UTF-8"?>
<svg width="80px" height="80px" viewBox="0 0 80 80" version="1.1" xmlns="http://www.w3.org/2000/svg" xmlns:xlink="http://www.w3.org/1999/xlink">
    <!-- Generator: sketchtool 50 (54983) - http://www.bohemiancoding.com/sketch -->
    <title>A2F31C1C-DCDB-451F-9531-38463D130EC2</title>
    <desc>Created with sketchtool.</desc>
    <defs></defs>
    <g id="The-golden-fleece" stroke="none" stroke-width="1" fill="none" fill-rule="evenodd">
        <g id="All-Universes---Main" transform="translate(-515.000000, -613.000000)" fill="#558DFF" fill-rule="nonzero">
            <g id="Group-2" transform="translate(422.000000, 613.000000)">
                <g id="wallet" transform="translate(93.000000, 0.000000)">
                    <path d="M75.8431601,26.6133888 L74.0469023,26.6133888 C74.205738,25.944948 74.3229938,25.2671933 74.3981705,24.5842827 C74.463368,23.9735551 74.4953015,23.4426611 74.4992931,22.9649896 C74.5125988,22.8505613 74.5125988,22.7427859 74.5125988,22.6217048 C74.5124324,13.0686071 66.7680665,5.3245738 57.2149688,5.32474012 C53.5183368,5.32474012 49.9191684,6.50910603 46.9446985,8.70403326 C42.1970894,0.414137214 31.6281081,-2.45738046 23.3383784,2.29022869 C17.9572557,5.37197505 14.6375052,11.0983784 14.6373389,17.2994595 C14.6373389,17.495052 14.6572973,17.6879834 14.6639501,17.8822453 L0.617214137,26.8209563 L0.630519751,26.8422453 C0.244490644,27.0760915 0.00665280665,27.4927235 0.00116424116,27.9439501 L0.00116424116,75.844158 C0.00116424116,78.0487318 1.78827443,79.835842 3.99284823,79.835842 L75.8431601,79.835842 C78.0477339,79.835842 79.8348441,78.0487318 79.8348441,75.844158 L79.8348441,30.6050728 C79.8348441,28.400499 78.0475676,26.6133888 75.8431601,26.6133888 Z M57.2153015,7.98553015 C65.2946362,7.9950104 71.8419958,14.5423701 71.8514761,22.6217048 L71.8514761,22.7041996 C71.8424948,22.7649064 71.8380042,22.8264449 71.8381705,22.887817 C71.8341788,23.359501 71.805738,23.8306861 71.7530146,24.2995426 C71.6685239,25.0822453 71.5171726,25.8564657 71.3006237,26.6133888 L69.9061954,26.6133888 C69.9980042,26.3219958 70.0765073,26.0252807 70.1483576,25.7272349 C70.1550104,25.7032848 70.1629938,25.6780042 70.1696466,25.6527235 C70.2697713,25.2134719 70.3476091,24.7693971 70.4024948,24.3221622 C70.417131,24.2117256 70.4304366,24.101289 70.4410811,23.9908524 C70.4918087,23.5361331 70.51842,23.0792516 70.5209148,22.6217048 C70.5129314,15.2765073 64.560499,9.32424116 57.2153015,9.31609148 C56.7489397,9.31808732 56.2830769,9.34419958 55.8195426,9.39459459 C55.6771726,9.40923077 55.5374636,9.43185031 55.3964241,9.45180873 C55.0717672,9.49571726 54.7497713,9.55027027 54.4317672,9.6181289 C54.2819127,9.64823285 54.1328898,9.68149688 53.9846985,9.717921 C53.6480665,9.80174636 53.3194179,9.9002079 52.9920998,10.0079834 C52.8843243,10.0439085 52.7738877,10.0745114 52.6674428,10.1130977 C52.2426611,10.2664449 51.8260291,10.4419127 51.4193763,10.6386694 C51.3275676,10.682578 51.2410811,10.7344699 51.153264,10.7810395 C50.837921,10.943368 50.5292308,11.1150104 50.2218711,11.3026195 C50.0954678,11.3811227 49.9717256,11.4636175 49.8479834,11.5474428 C49.5818711,11.7249064 49.3192516,11.9151767 49.0602911,12.1182536 C48.9498545,12.2047401 48.8380873,12.2885655 48.7289813,12.3843659 C48.6730977,12.4309356 48.6132225,12.472183 48.5573389,12.517422 C48.5280665,12.4109771 48.4868191,12.3085239 48.4548857,12.2034096 C48.3590852,11.8907277 48.2606237,11.5807069 48.1488565,11.2720166 C48.1342204,11.2347609 48.1249064,11.1948441 48.1102703,11.1562578 C50.6978794,9.0977131 53.9085239,7.97954262 57.2153015,7.98553015 Z M47.1323077,25.566237 C47.3638254,25.1457796 47.5846985,24.7133472 47.7856133,24.2489813 C47.8335135,24.1571726 47.8734304,24.0666944 47.9106861,23.982869 C48.5377131,22.4773389 48.9463617,20.8898129 49.124158,19.2686902 C49.1893555,18.6579626 49.221289,18.1270686 49.2252807,17.6493971 C49.2319335,17.528316 49.2319335,17.4205405 49.2319335,17.2994595 C49.2319335,16.7978378 49.2053222,16.3254886 49.1654054,15.8651143 C49.1654054,15.8132225 49.1654054,15.7560083 49.157422,15.7041164 C49.2412474,15.6056549 49.3237422,15.5071933 49.4102287,15.4127235 C49.5353015,15.2796674 49.6603742,15.1466112 49.7907692,15.0135551 C49.9424532,14.8632017 50.10079,14.7234927 50.2591268,14.5837838 C50.392183,14.4653638 50.5252391,14.3456133 50.674262,14.2338462 C50.8405821,14.10079 51.0135551,13.9823701 51.1878586,13.861289 C51.3342204,13.7601663 51.4792516,13.6563825 51.6309356,13.5632432 C51.8118919,13.4501455 52.0008316,13.3490229 52.1884407,13.2479002 C52.3427859,13.1654054 52.4931393,13.0789189 52.6501455,13.0044075 C52.8497297,12.9099376 53.0493139,12.830104 53.2595426,12.7476091 C53.4152183,12.6864033 53.5695634,12.614553 53.7279002,12.5626611 C53.9474428,12.4868191 54.1723077,12.429605 54.3931809,12.3670686 C54.5448649,12.3258212 54.6952183,12.2765904 54.8495634,12.2419958 C55.1023701,12.1847817 55.3618295,12.147526 55.6199584,12.1089397 C55.7530146,12.0889813 55.8860707,12.0597089 56.0191268,12.0450728 C56.4162994,12.0003326 56.8156341,11.9777131 57.2153015,11.9772141 C63.0913929,11.9838669 67.8531393,16.7456133 67.8597921,22.6217048 C67.8582952,23.0035759 67.8365073,23.3851143 67.7945946,23.764657 C67.7826195,23.885738 67.76,24.004158 67.7427027,24.122578 C67.7067775,24.3793763 67.6655301,24.6348441 67.6096466,24.8876507 C67.5803742,25.0207069 67.5457796,25.153763 67.511185,25.2868191 C67.4491476,25.5218295 67.3794595,25.7556757 67.3022869,25.9880249 C67.2570478,26.1210811 67.2131393,26.2541372 67.162578,26.3871933 C67.1333056,26.4630353 67.0960499,26.5375468 67.065447,26.6133888 L63.6259459,26.6133888 C64.1348857,25.2387526 63.8260291,23.6948025 62.8276091,22.6217048 L62.8302703,22.6217048 C64.3095218,21.0000832 64.1940956,18.4863202 62.572474,17.0070686 C61.835842,16.3351351 60.8735135,15.9645738 59.8764241,15.9688981 L58.5458628,15.9688981 L58.5458628,14.6383368 L55.8847401,14.6383368 L55.8847401,15.9688981 L51.8930561,15.9688981 L51.8930561,18.6300208 L53.2236175,18.6300208 L53.2236175,26.6133888 L47.3691476,26.6133888 C47.3451975,26.5548441 47.3159252,26.4936383 47.2933056,26.4350936 C47.2440748,26.3020374 47.2001663,26.1782952 47.1602495,26.0505613 C47.1203326,25.9228274 47.0923909,25.8256965 47.0591268,25.7139293 C47.085738,25.6673597 47.107027,25.6128067 47.1323077,25.566237 Z M59.8764241,21.2911435 L55.8847401,21.2911435 L55.8847401,18.6300208 L59.8764241,18.6300208 C60.6112266,18.6300208 61.2069854,19.2257796 61.2069854,19.9605821 C61.2069854,20.6953846 60.6112266,21.2911435 59.8764241,21.2911435 Z M61.2069854,25.2828274 C61.2074844,25.6412474 61.0602911,25.9838669 60.7998337,26.2301871 C60.5571726,26.4785031 60.2235343,26.6168815 59.8764241,26.6133888 L55.8847401,26.6133888 L55.8847401,23.9522661 L59.8764241,23.9522661 C60.6112266,23.9522661 61.2069854,24.5480249 61.2069854,25.2828274 Z M22.6338462,6.00182952 C25.2535551,3.84482328 28.5412058,2.6647817 31.9346362,2.66328482 C37.7022869,2.66993763 42.9317256,6.05355509 45.3014553,11.3119335 C45.8839085,12.6335135 46.2711019,14.0329314 46.4510603,15.4659459 C46.5360499,16.1009563 46.5759667,16.741289 46.5708108,17.3819543 C46.5618295,17.4426611 46.5573389,17.5041996 46.5575052,17.5655717 C46.5535135,18.0354262 46.5254054,18.504948 46.4736798,18.9719751 C46.3208316,20.3442827 45.975052,21.6881497 45.4464865,22.963659 C45.4143867,23.0175468 45.3859459,23.0735967 45.3613306,23.1313098 C45.1071933,23.7300624 44.8073181,24.3083576 44.4645322,24.8610395 L44.4472349,24.8876507 C44.252973,25.2176299 44.0334304,25.5529314 43.797921,25.8722661 C43.7234096,25.9760499 43.6409148,26.0771726 43.5610811,26.1809563 C43.4506445,26.324657 43.330894,26.4683576 43.212474,26.6107277 L41.4241996,26.6107277 C41.4348441,26.6000832 41.4428274,26.5881081 41.4521414,26.5774636 C41.79842,26.2243659 42.1244075,25.8521414 42.4287734,25.4624532 C44.2471518,23.1296466 45.2364241,20.2572973 45.2402495,17.2994595 C45.2364241,16.2268607 45.1100208,15.1580873 44.8637006,14.1140956 C44.8637006,14.0755094 44.8490644,14.0382536 44.8397505,14.0009979 C43.0335135,6.87800416 35.7949272,2.56781705 28.6717672,4.37405405 C22.1538462,6.02694387 17.8933888,12.2829106 18.7434511,18.9533472 C18.762079,19.1050312 18.7860291,19.2527235 18.8099792,19.4030769 C18.8768399,19.8383368 18.9658212,20.2699376 19.0760915,20.6963825 C19.1040333,20.8054886 19.1266528,20.9159252 19.1572557,21.0250312 C19.3072765,21.5377963 19.4875676,22.0412474 19.6974636,22.5325572 C19.7453638,22.6443243 19.8012474,22.7507692 19.8518087,22.8598753 C20.0292723,23.2528898 20.2283576,23.6350936 20.4492308,24.0068191 C20.5210811,24.1292308 20.5902703,24.2516424 20.6661123,24.3700624 C20.9493555,24.8269439 21.2603742,25.2660291 21.5975052,25.684657 C21.6174636,25.7072765 21.6400832,25.7285655 21.658711,25.7525156 C21.9035343,26.0492308 22.1576715,26.3379626 22.4277755,26.6133888 L20.6368399,26.6133888 C15.4965489,20.3702287 16.3905198,11.1421206 22.6338462,6.00182952 Z M39.5960083,24.6720998 C39.5095218,24.762578 39.4137214,24.8424116 39.329896,24.9302287 C39.1502703,25.1032017 38.9719751,25.2761746 38.7817048,25.4371726 C38.6699376,25.5316424 38.5501871,25.6154678 38.4330977,25.7032848 C38.2548025,25.8429938 38.0751767,25.9827027 37.8875676,26.1024532 C37.7545114,26.1902703 37.6214553,26.2687734 37.4883992,26.3512682 C37.355343,26.433763 37.2009979,26.5242412 37.0546362,26.6054054 L26.8292723,26.6133888 C26.636341,26.5069439 26.4513929,26.3898545 26.2664449,26.2727651 C26.0814969,26.1556757 25.8792516,26.0399168 25.6982952,25.9081913 C25.4840748,25.7538462 25.2871518,25.5808732 25.0849064,25.4118919 C24.9185863,25.272183 24.7456133,25.1391268 24.5899376,24.990104 C24.3970062,24.807817 24.2240333,24.6069023 24.045738,24.4099792 C23.9046985,24.2543035 23.7556757,24.1066112 23.6239501,23.9429522 C23.4549688,23.7313929 23.3086071,23.5051975 23.1555925,23.2776715 C23.0411642,23.1100208 22.9160915,22.9476923 22.8109771,22.7747193 C22.6686071,22.5365489 22.5448649,22.2864033 22.4277755,22.0375884 C22.3399584,21.8619543 22.2401663,21.692973 22.1616632,21.5120166 C22.0472349,21.2459044 21.9607484,20.9691476 21.8689397,20.695052 C21.8090644,20.5180873 21.7358836,20.3477755 21.6853222,20.1628274 C21.5975052,19.8514761 21.5429522,19.5308108 21.4844075,19.2101455 C21.4564657,19.057131 21.4125572,18.9081081 21.3912682,18.7524324 C20.5817879,12.9259044 24.6489813,7.54644491 30.4755094,6.73696466 C35.8178794,5.99484407 40.871684,9.36316008 42.2424948,14.5797921 L42.257131,14.6449896 C42.4683576,15.5140125 42.5764657,16.4049896 42.5791268,17.2994595 C42.5796258,20.0510603 41.5098545,22.695052 39.5960083,24.6720998 Z M15.0085655,20.8174636 C15.4330146,22.8773389 16.2318503,24.8417464 17.3649896,26.6133888 L5.90087318,26.6133888 L15.0085655,20.8174636 Z M77.1737214,71.852474 L15.9679002,71.852474 C15.2330977,71.852474 14.6373389,72.4482328 14.6373389,73.1830353 C14.6373389,73.9178378 15.2330977,74.5135967 15.9679002,74.5135967 L77.1737214,74.5135967 L77.1737214,75.844158 C77.1737214,76.5789605 76.5779626,77.1747193 75.8431601,77.1747193 L3.99284823,77.1747193 C3.25804574,77.1747193 2.6622869,76.5789605 2.6622869,75.844158 L2.6622869,69.1913514 L65.1986694,69.1913514 C65.9334719,69.1913514 66.5292308,68.5955925 66.5292308,67.86079 C66.5292308,67.1259875 65.9334719,66.5302287 65.1986694,66.5302287 L2.6622869,66.5302287 L2.6622869,34.5967568 L65.1986694,34.5967568 C65.9334719,34.5967568 66.5292308,34.0009979 66.5292308,33.2661954 C66.5292308,32.5313929 65.9334719,31.9356341 65.1986694,31.9356341 L2.6622869,31.9356341 L2.6622869,29.2745114 L75.8431601,29.2745114 C76.5779626,29.2745114 77.1737214,29.8702703 77.1737214,30.6050728 L77.1737214,71.852474 Z" id="Shape"></path>
                    <path d="M37.2916424,11.6848233 C36.5550104,11.0128898 35.5926819,10.6423285 34.5955925,10.6466528 L33.2650312,10.6466528 L33.2650312,9.31609148 L30.6039085,9.31609148 L30.6039085,10.6466528 L26.6122245,10.6466528 L26.6122245,13.3077755 L27.9427859,13.3077755 L27.9427859,21.2911435 L26.6122245,21.2911435 L26.6122245,23.9522661 L30.6039085,23.9522661 L30.6039085,25.2828274 L33.2650312,25.2828274 L33.2650312,23.9522661 L34.5955925,23.9522661 C36.7905198,23.9619127 38.5777963,22.1904366 38.5876091,19.9955094 C38.5920998,18.99842 38.2215385,18.0360915 37.5494387,17.2994595 C39.0288565,15.6778378 38.9134304,13.1640748 37.2916424,11.6848233 Z M34.5957588,21.2911435 L30.6040748,21.2911435 L30.6040748,18.6300208 L34.5957588,18.6300208 C35.3305613,18.6300208 35.9263202,19.2257796 35.9263202,19.9605821 C35.9263202,20.6953846 35.3305613,21.2911435 34.5957588,21.2911435 Z M34.5957588,15.9688981 L30.6040748,15.9688981 L30.6040748,13.3077755 L34.5957588,13.3077755 C35.3305613,13.3077755 35.9263202,13.9035343 35.9263202,14.6383368 C35.9263202,15.3731393 35.3305613,15.9688981 34.5957588,15.9688981 Z" id="Shape"></path>
                    <path d="M73.1820374,66.5302287 L70.5209148,66.5302287 C69.7861123,66.5302287 69.1903534,67.1259875 69.1903534,67.86079 C69.1903534,68.5955925 69.7861123,69.1913514 70.5209148,69.1913514 L73.1820374,69.1913514 C73.9168399,69.1913514 74.5125988,68.5955925 74.5125988,67.86079 C74.5125988,67.1259875 73.9168399,66.5302287 73.1820374,66.5302287 Z" id="Shape" opacity="0.5"></path>
                    <path d="M10.6456549,71.852474 L7.98453222,71.852474 C7.24972973,71.852474 6.65397089,72.4482328 6.65397089,73.1830353 C6.65397089,73.9178378 7.24972973,74.5135967 7.98453222,74.5135967 L10.6456549,74.5135967 C11.3804574,74.5135967 11.9762162,73.9178378 11.9762162,73.1830353 C11.9762162,72.4482328 11.3804574,71.852474 10.6456549,71.852474 Z" id="Shape" opacity="0.5"></path>
                    <path d="M73.1820374,31.9356341 L70.5209148,31.9356341 C69.7861123,31.9356341 69.1903534,32.5313929 69.1903534,33.2661954 C69.1903534,34.0009979 69.7861123,34.5967568 70.5209148,34.5967568 L73.1820374,34.5967568 C73.9168399,34.5967568 74.5125988,34.0009979 74.5125988,33.2661954 C74.5125988,32.5313929 73.9168399,31.9356341 73.1820374,31.9356341 Z" id="Shape" opacity="0.5"></path>
                </g>
            </g>
        </g>
    </g>
</svg>