<?xml version="1.0" encoding="UTF-8"?>
<svg width="74px" height="80px" viewBox="0 0 74 80" version="1.1" xmlns="http://www.w3.org/2000/svg" xmlns:xlink="http://www.w3.org/1999/xlink">
    <!-- Generator: sketchtool 50 (54983) - http://www.bohemiancoding.com/sketch -->
    <title>D5E4C8EF-0CCD-434E-9EBF-E70E769BC44F</title>
    <desc>Created with sketchtool.</desc>
    <defs></defs>
    <g id="The-golden-fleece" stroke="none" stroke-width="1" fill="none" fill-rule="evenodd">
        <g id="All-Universes---Main" transform="translate(-266.000000, -2861.000000)" fill="#558DFF" fill-rule="nonzero">
            <g id="Group-13" transform="translate(169.000000, 2861.000000)">
                <g id="money-(5)" transform="translate(97.000000, 0.000000)">
                    <path d="M8.08183716,7.81294363 L5.40960334,7.81294363 C5.40960334,10.7645929 3.01678497,13.1574113 0.0651356994,13.1574113 L0.0651356994,15.8296451 C3.01678497,15.8296451 5.40960334,18.2224635 5.40960334,21.1741127 L8.08183716,21.1741127 C8.08183716,18.2224635 10.4746555,15.8296451 13.4263048,15.8296451 L13.4263048,13.1574113 C10.4746555,13.1574113 8.08183716,10.7645929 8.08183716,7.81294363 Z M6.74572025,16.7475574 L6.7336952,16.731524 C6.14446764,15.851023 5.38822547,15.0947808 4.50772443,14.5055532 L4.49169102,14.4935282 C5.38521921,13.8992902 6.15148225,13.1330271 6.74572025,12.239499 C7.33995825,13.1330271 8.10622129,13.8992902 8.99974948,14.4935282 C8.10622129,15.0877662 7.33995825,15.8540292 6.74572025,16.7475574 Z" id="Shape"></path>
                    <path d="M68.2070981,29.1908142 L65.5348643,29.1908142 C65.5348643,32.1424635 63.1420459,34.5352818 60.1903967,34.5352818 L60.1903967,37.2075157 C63.1420459,37.2075157 65.5348643,39.600334 65.5348643,42.5519833 L68.2070981,42.5519833 C68.2070981,39.600334 70.5999165,37.2075157 73.5515658,37.2075157 L73.5515658,34.5352818 C70.5999165,34.5352818 68.2070981,32.1424635 68.2070981,29.1908142 Z M66.8709812,38.125428 L66.8589562,38.1093946 C66.2697286,37.2288935 65.5134864,36.4726514 64.6329854,35.8834238 L64.616952,35.8713987 C65.5104802,35.2771608 66.2767432,34.5108977 66.8709812,33.6173695 C67.4652192,34.5108977 68.2314823,35.2771608 69.1250104,35.8713987 C68.2314823,36.4656367 67.4652192,37.2318998 66.8709812,38.125428 Z" id="Shape"></path>
                    <path d="M64.7251775,58.6936117 L56.1820459,55.0326514 L56.1820459,17.2325678 C56.1797077,15.0835908 55.1460543,13.0662213 53.4029228,11.8092693 L37.5832985,0.426889353 C37.5453862,0.399498956 37.5061378,0.374112735 37.4657203,0.350730689 C36.6440084,-0.116743215 35.6365762,-0.116743215 34.8148643,0.350730689 C34.7744468,0.374112735 34.7351983,0.399498956 34.697286,0.426889353 L18.8776618,11.8092693 C17.1345303,13.0662213 16.1008768,15.0835908 16.0985386,17.2325678 L16.0985386,55.0326514 L7.5554071,58.6936117 C7.06421712,58.9042171 6.74572025,59.3870564 6.74572025,59.9215031 L6.74572025,74.6187891 C6.74572025,75.3566597 7.3439666,75.9549061 8.08183716,75.9549061 C8.20559499,75.954739 8.32885177,75.9377035 8.44793319,75.9041336 L16.1813779,73.6941962 C16.353904,74.2420042 16.8602923,74.6156159 17.4346555,74.6187891 L17.7286013,74.6187891 L18.8108559,78.9504802 C18.9593319,79.5455532 19.4936117,79.9630898 20.1068894,79.9632568 L52.1736952,79.9632568 C52.7869729,79.9630898 53.3212526,79.5455532 53.4697286,78.9504802 L54.5519833,74.6187891 L54.845929,74.6187891 C55.4202923,74.6156159 55.9266806,74.2420042 56.0992067,73.6941962 L63.8326514,75.9041336 C63.9517328,75.9377035 64.0749896,75.954739 64.1987474,75.9549061 C64.936618,75.9549061 65.5348643,75.3566597 65.5348643,74.6187891 L65.5348643,59.9215031 C65.5346973,59.3870564 65.2163674,58.9040501 64.7251775,58.6936117 Z M16.0985386,70.9391232 L9.41795407,72.8470981 L9.41795407,60.8020042 L16.0985386,57.9400418 L16.0985386,70.9391232 Z M51.1301879,77.291023 L21.1503967,77.291023 L20.4823382,74.6187891 L51.7982463,74.6187891 L51.1301879,77.291023 Z M53.5098121,71.9465553 L18.7707724,71.9465553 L18.7707724,17.2325678 C18.7726096,15.943048 19.3927349,14.7326931 20.4382463,13.9777871 L36.1402923,2.67958246 L51.8423382,13.9777871 C52.8878497,14.7326931 53.5079749,15.943048 53.5098121,17.2325678 L53.5098121,71.9465553 Z M62.8626305,72.8470981 L56.1820459,70.9391232 L56.1820459,57.9400418 L62.8626305,60.8020042 L62.8626305,72.8470981 Z" id="Shape"></path>
                    <rect id="Rectangle-path" x="12.0901879" y="66.6020877" width="2.67223382" height="2.67223382"></rect>
                    <rect id="Rectangle-path" x="57.5181628" y="66.6020877" width="2.67223382" height="2.67223382"></rect>
                    <path d="M41.7787056,29.1908142 C43.2641336,27.5624217 43.1482255,25.0381628 41.519833,23.5527349 C40.7801253,22.8779958 39.8137787,22.5058873 38.8125261,22.5102296 L37.4764092,22.5102296 L37.4764092,19.8379958 L34.8041754,19.8379958 L34.8041754,22.5102296 L33.4680585,22.5102296 L33.4680585,19.8379958 L30.7958246,19.8379958 L30.7958246,22.5102296 C30.0579541,22.5102296 29.4597077,23.108476 29.4597077,23.8463466 L29.4597077,34.5352818 C29.4597077,35.2731524 30.0579541,35.8713987 30.7958246,35.8713987 L30.7958246,38.5436326 L33.4680585,38.5436326 L33.4680585,35.8713987 L34.8041754,35.8713987 L34.8041754,38.5436326 L37.4764092,38.5436326 L37.4764092,35.8713987 L38.8125261,35.8713987 C41.016618,35.8810856 42.811357,34.1022129 42.8212109,31.8981211 C42.8255532,30.8968685 42.4534447,29.9305219 41.7787056,29.1908142 Z M38.8125261,33.1991649 L32.1319415,33.1991649 L32.1319415,30.5269311 L38.8125261,30.5269311 C39.5503967,30.5269311 40.148643,31.1251775 40.148643,31.863048 C40.148643,32.6009186 39.5503967,33.1991649 38.8125261,33.1991649 Z M38.8125261,27.8546973 L32.1319415,27.8546973 L32.1319415,25.1824635 L38.8125261,25.1824635 C39.5503967,25.1824635 40.148643,25.7807098 40.148643,26.5185804 C40.148643,27.2564509 39.5503967,27.8546973 38.8125261,27.8546973 Z" id="Shape"></path>
                    <path d="M36.1402923,14.4935282 C28.023215,14.4935282 21.4430063,21.073737 21.4430063,29.1908142 C21.4525261,37.3038831 28.0272234,43.8785804 36.1402923,43.8881002 C44.2573695,43.8881002 50.8375783,37.3078914 50.8375783,29.1908142 C50.8375783,21.073737 44.2573695,14.4935282 36.1402923,14.4935282 Z M36.1402923,41.2158664 C29.4991232,41.2158664 24.1152401,35.8319833 24.1152401,29.1908142 C24.1225887,22.5526514 29.5021294,17.1731106 36.1402923,17.165762 C42.7816284,17.165762 48.1653445,22.5494781 48.1653445,29.1908142 C48.1653445,35.8319833 42.7814614,41.2158664 36.1402923,41.2158664 Z" id="Shape"></path>
                    <rect id="Rectangle-path" x="34.8041754" y="46.560334" width="2.67223382" height="21.3778706"></rect>
                </g>
            </g>
        </g>
    </g>
</svg>