<?xml version="1.0" encoding="UTF-8"?>
<svg width="80px" height="80px" viewBox="0 0 80 80" version="1.1" xmlns="http://www.w3.org/2000/svg" xmlns:xlink="http://www.w3.org/1999/xlink">
    <!-- Generator: sketchtool 50 (54983) - http://www.bohemiancoding.com/sketch -->
    <title>E1C49EB8-501B-4375-8A28-CB7FEF473785</title>
    <desc>Created with sketchtool.</desc>
    <defs></defs>
    <g id="The-golden-fleece" stroke="none" stroke-width="1" fill="none" fill-rule="evenodd">
        <g id="All-Universes---Main" transform="translate(-1048.000000, -2861.000000)" fill="#558DFF" fill-rule="nonzero">
            <g id="Group-2-Copy-11" transform="translate(940.000000, 2861.000000)">
                <g id="money-(4)" transform="translate(108.000000, 0.000000)">
                    <path d="M39.9966942,41.646281 C30.5028099,41.646281 22.8066116,49.3424793 22.8066116,58.8363636 C22.8175207,68.3256198 30.507438,76.0155372 39.9966942,76.0264463 C49.4905785,76.0264463 57.1867769,68.3302479 57.1867769,58.8363636 C57.1867769,49.3424793 49.4905785,41.646281 39.9966942,41.646281 Z M39.9966942,73.3818182 C31.9634711,73.3818182 25.4512397,66.8695868 25.4512397,58.8363636 C25.4606612,50.8071074 31.967438,44.3003306 39.9966942,44.2909091 C48.0299174,44.2909091 54.5421488,50.8031405 54.5421488,58.8363636 C54.5421488,66.8695868 48.0299174,73.3818182 39.9966942,73.3818182 Z" id="Shape"></path>
                    <path d="M47.9305785,53.5471074 C47.9305785,51.3561983 46.1545455,49.5801653 43.9636364,49.5801653 L42.6413223,49.5801653 L42.6413223,46.9355372 L39.9966942,46.9355372 L39.9966942,49.5801653 L38.6743802,49.5801653 L38.6743802,46.9355372 L36.0297521,46.9355372 L36.0297521,49.5801653 L32.0628099,49.5801653 L32.0628099,52.2247934 L34.707438,52.2247934 L34.707438,65.4479339 L32.0628099,65.4479339 L32.0628099,68.092562 L36.0297521,68.092562 L36.0297521,70.7371901 L38.6743802,70.7371901 L38.6743802,68.092562 L39.9966942,68.092562 L39.9966942,70.7371901 L42.6413223,70.7371901 L42.6413223,68.092562 L43.9636364,68.092562 C46.1545455,68.092562 47.9305785,66.3165289 47.9305785,64.1256198 L47.9305785,61.4809917 C47.9271074,60.5019835 47.5595041,59.5591736 46.8991736,58.8363636 C47.5595041,58.1135537 47.9271074,57.1707438 47.9305785,56.1917355 L47.9305785,53.5471074 Z M45.2859504,64.1256198 C45.2859504,64.8558678 44.6938843,65.4479339 43.9636364,65.4479339 L37.3520661,65.4479339 L37.3520661,60.1586777 L43.9636364,60.1586777 C44.6938843,60.1586777 45.2859504,60.7507438 45.2859504,61.4809917 L45.2859504,64.1256198 Z M45.2859504,56.1917355 C45.2859504,56.9219835 44.6938843,57.5140496 43.9636364,57.5140496 L37.3520661,57.5140496 L37.3520661,52.2247934 L43.9636364,52.2247934 C44.6938843,52.2247934 45.2859504,52.8168595 45.2859504,53.5471074 L45.2859504,56.1917355 Z" id="Shape"></path>
                    <path d="M74.3768595,32.3900826 L79.9900826,32.3900826 L65.1206612,15.8677686 L50.2512397,32.3900826 L55.8644628,32.3900826 L55.8644628,42.9302479 C53.9507438,41.028595 51.711405,39.4856198 49.2528926,38.374876 L49.2528926,16.522314 L54.8661157,16.522314 L39.9966942,0 L25.1272727,16.522314 L30.7404959,16.522314 L30.7404959,38.374876 C28.2819835,39.4856198 26.0426446,41.028595 24.1289256,42.9302479 L24.1289256,32.3900826 L29.7421488,32.3900826 L14.8727273,15.8677686 L0.00330578512,32.3900826 L5.61652893,32.3900826 L5.61652893,77.3487603 L0.327272727,77.3487603 L0.327272727,79.9933884 L79.6661157,79.9933884 L79.6661157,77.3487603 L74.3768595,77.3487603 L74.3768595,32.3900826 Z M39.9966942,3.96033058 L48.9289256,13.877686 L46.6082645,13.877686 L46.6082645,37.3527273 C42.3004959,36.025124 37.6928926,36.025124 33.385124,37.3527273 L33.385124,13.877686 L31.0644628,13.877686 L39.9966942,3.96033058 Z M21.4842975,77.3487603 L8.26115702,77.3487603 L8.26115702,29.7454545 L5.94049587,29.7454545 L14.8727273,19.8280992 L23.8049587,29.7454545 L21.4842975,29.7454545 L21.4842975,46.1130579 C16.1950413,53.7687603 16.1950413,63.8986777 21.4842975,71.5543802 L21.4842975,77.3487603 Z M24.1289256,77.3487603 L24.1289256,74.7266116 C25.091405,75.6938843 26.14,76.5715702 27.2614876,77.3487603 L24.1289256,77.3487603 Z M32.8786777,77.3487603 C22.6545455,73.4160331 17.5543802,61.9396694 21.4871074,51.7155372 C24.4330579,44.0568595 31.7909091,39.0029752 39.9966942,39.0016529 C50.9510744,39.0033058 59.8300826,47.8847934 59.828595,58.8391736 C59.827438,67.0449587 54.7735537,74.4028099 47.1147107,77.3487603 L32.8786777,77.3487603 Z M55.8644628,77.3487603 L52.7319008,77.3487603 C53.8533884,76.5715702 54.9019835,75.6938843 55.8644628,74.7266116 L55.8644628,77.3487603 Z M71.7322314,29.7454545 L71.7322314,77.3487603 L58.5090909,77.3487603 L58.5090909,71.5543802 C63.7983471,63.8986777 63.7983471,53.7687603 58.5090909,46.1130579 L58.5090909,29.7454545 L56.1884298,29.7454545 L65.1206612,19.8280992 L74.0528926,29.7454545 L71.7322314,29.7454545 Z" id="Shape"></path>
                    <rect id="Rectangle-path" x="41.3190083" y="19.1669421" width="2.6446281" height="10.5785124"></rect>
                    <rect id="Rectangle-path" x="41.3190083" y="32.3900826" width="2.6446281" height="2.6446281"></rect>
                    <rect id="Rectangle-path" x="41.3190083" y="13.877686" width="2.6446281" height="2.6446281"></rect>
                    <rect id="Rectangle-path" x="66.4429752" y="35.0347107" width="2.6446281" height="9.25619835"></rect>
                    <rect id="Rectangle-path" x="66.4429752" y="52.2247934" width="2.6446281" height="17.1900826"></rect>
                    <rect id="Rectangle-path" x="66.4429752" y="46.9355372" width="2.6446281" height="2.6446281"></rect>
                    <rect id="Rectangle-path" x="66.4429752" y="29.7454545" width="2.6446281" height="2.6446281"></rect>
                    <rect id="Rectangle-path" x="10.9057851" y="35.0347107" width="2.6446281" height="9.25619835"></rect>
                    <rect id="Rectangle-path" x="10.9057851" y="52.2247934" width="2.6446281" height="17.1900826"></rect>
                    <rect id="Rectangle-path" x="10.9057851" y="46.9355372" width="2.6446281" height="2.6446281"></rect>
                    <rect id="Rectangle-path" x="10.9057851" y="29.7454545" width="2.6446281" height="2.6446281"></rect>
                    <rect id="Rectangle-path" x="10.9057851" y="72.0595041" width="2.6446281" height="2.6446281"></rect>
                    <rect id="Rectangle-path" x="66.4429752" y="72.0595041" width="2.6446281" height="2.6446281"></rect>
                </g>
            </g>
        </g>
    </g>
</svg>