<?xml version="1.0" encoding="UTF-8"?>
<svg width="80px" height="80px" viewBox="0 0 80 80" version="1.1" xmlns="http://www.w3.org/2000/svg" xmlns:xlink="http://www.w3.org/1999/xlink">
    <!-- Generator: sketchtool 50 (54983) - http://www.bohemiancoding.com/sketch -->
    <title>A9B4C384-B14E-4926-9067-D8C86A31B705</title>
    <desc>Created with sketchtool.</desc>
    <defs></defs>
    <g id="The-golden-fleece" stroke="none" stroke-width="1" fill="none" fill-rule="evenodd">
        <g id="All-Universes---Main" transform="translate(-660.000000, -2631.000000)" fill="#558DFF" fill-rule="nonzero">
            <g id="Group-12" transform="translate(520.000000, 2631.000000)">
                <g id="money-(2)" transform="translate(140.000000, 0.000000)">
                    <path d="M58.5536798,41.2525572 C49.0005821,41.2525572 41.2563825,48.9967568 41.2563825,58.5498545 C41.2563825,68.1029522 49.0005821,75.8471518 58.5536798,75.8471518 C68.1067775,75.8471518 75.8509771,68.1029522 75.8509771,58.5498545 C75.84,49.0014137 68.1021206,41.2635343 58.5536798,41.2525572 Z M58.5536798,73.1860291 C50.4703534,73.1860291 43.9175052,66.6331809 43.9175052,58.5498545 C43.9175052,50.4665281 50.4703534,43.9136798 58.5536798,43.9136798 C66.6370062,43.9136798 73.1898545,50.4665281 73.1898545,58.5498545 C73.1803742,66.6291892 66.6330146,73.1765489 58.5536798,73.1860291 Z" id="Shape"></path>
                    <path d="M66.5370478,53.2276091 C66.5370478,51.0230353 64.7499376,49.2359252 62.5453638,49.2359252 L61.2148025,49.2359252 L61.2148025,46.5748025 L58.5536798,46.5748025 L58.5536798,49.2359252 L57.2231185,49.2359252 L57.2231185,46.5748025 L54.5619958,46.5748025 L54.5619958,49.2359252 L50.5703119,49.2359252 L50.5703119,51.8970478 L53.2314345,51.8970478 L53.2314345,65.2026611 L50.5703119,65.2026611 L50.5703119,67.8637838 L54.5619958,67.8637838 L54.5619958,70.5249064 L57.2231185,70.5249064 L57.2231185,67.8637838 L58.5536798,67.8637838 L58.5536798,70.5249064 L61.2148025,70.5249064 L61.2148025,67.8637838 L62.5453638,67.8637838 C64.7499376,67.8637838 66.5370478,66.0766736 66.5370478,63.8720998 L66.5370478,61.2109771 C66.5335551,60.2258628 66.163659,59.2771726 65.49921,58.5498545 C66.163659,57.8225364 66.5335551,56.8738462 66.5370478,55.8887318 L66.5370478,53.2276091 Z M63.8759252,63.8720998 C63.8759252,64.6069023 63.2801663,65.2026611 62.5453638,65.2026611 L55.8925572,65.2026611 L55.8925572,59.8804158 L62.5453638,59.8804158 C63.2801663,59.8804158 63.8759252,60.4761746 63.8759252,61.2109771 L63.8759252,63.8720998 Z M63.8759252,55.8887318 C63.8759252,56.6235343 63.2801663,57.2192931 62.5453638,57.2192931 L55.8925572,57.2192931 L55.8925572,51.8970478 L62.5453638,51.8970478 C63.2801663,51.8970478 63.8759252,52.4928067 63.8759252,53.2276091 L63.8759252,55.8887318 Z" id="Shape"></path>
                    <path d="M63.9131809,7.95143451 C61.6982952,7.94112266 59.894553,9.72839917 59.8844075,11.9431185 C59.8830769,12.2383368 59.9143451,12.5328898 59.9775468,12.8211227 L49.0669439,19.5271518 C48.3649064,18.952183 47.486237,18.6365073 46.5787942,18.6330146 C44.3742204,18.6330146 42.5871102,20.4201247 42.5871102,22.6246985 C42.5916008,23.2986279 42.7688981,23.9602495 43.1020374,24.5460291 L34.7634096,34.8938046 C32.7269854,34.0648649 30.404158,35.0438254 29.5752183,37.0802495 C29.3799584,37.5600832 29.2801663,38.0733472 29.2814969,38.5914345 C29.2814969,38.6499792 29.2961331,38.7045322 29.2987942,38.7630769 L18.9483576,42.605738 C17.5108524,40.9508524 15.0039085,40.774553 13.3490229,42.2120582 C11.9323077,43.4426611 11.5710603,45.4975468 12.4831601,47.1376299 L5.52565489,54.8641996 C3.49006237,54.0176299 1.15376299,54.9816216 0.307193347,57.0170478 C-0.539376299,59.052474 0.424615385,61.3889397 2.46004158,62.2355094 C2.94835759,62.4385863 3.47193347,62.5425364 4.0008316,62.5415385 C6.20540541,62.5415385 7.99251559,60.7544283 7.99251559,58.5498545 C7.98785863,57.8869023 7.81621622,57.2357588 7.49355509,56.6564657 L14.4510603,48.929896 C16.4828274,49.7756341 18.8158004,48.8143035 19.6615385,46.7823701 C19.8644491,46.295052 19.9683992,45.7721414 19.9675676,45.2442412 C19.9675676,45.1856965 19.9529314,45.1311435 19.9502703,45.0725988 L30.3007069,41.2299376 C31.738711,42.8843243 34.2456549,43.0597921 35.9000416,41.6217879 C37.3249064,40.383368 37.6801663,38.3126819 36.7499376,36.670104 L45.0885655,26.3209979 C45.56158,26.5150936 46.0676923,26.6153846 46.5787942,26.6163825 C48.7752183,26.6245322 50.5623285,24.850395 50.5704782,22.6539709 C50.5714761,22.3614137 50.5403742,22.0695218 50.4773389,21.7837838 L61.3879418,15.0777547 C62.0899792,15.6527235 62.9686486,15.9683992 63.8760915,15.9718919 C66.0909771,15.9822037 67.8947193,14.1950936 67.9048649,11.9802079 C67.9150104,9.76548857 66.1279002,7.96158004 63.9131809,7.95143451 Z M4.00066528,59.8804158 C3.26586279,59.8804158 2.67010395,59.284657 2.67010395,58.5498545 C2.67010395,57.815052 3.26586279,57.2192931 4.00066528,57.2192931 C4.32648649,57.2229522 4.63933472,57.347027 4.87883576,57.5679002 L4.89214137,57.5758836 C5.16939709,57.8240333 5.32889813,58.1777963 5.33122661,58.5498545 C5.33122661,59.284657 4.73546778,59.8804158 4.00066528,59.8804158 Z M15.9757173,46.5748025 C15.649896,46.5711435 15.3370478,46.4470686 15.0975468,46.2261954 L15.0869023,46.2195426 C14.8081497,45.9717256 14.6474844,45.6172973 14.6451559,45.2442412 C14.6451559,44.5094387 15.2409148,43.9136798 15.9757173,43.9136798 C16.5084407,43.9141788 16.989605,44.2325156 17.1985031,44.7226611 C17.2695218,44.8873181 17.3062786,45.0647817 17.3062786,45.2442412 C17.3062786,45.9790437 16.7105198,46.5748025 15.9757173,46.5748025 Z M33.2730146,39.9219958 C32.5382121,39.9219958 31.9424532,39.326237 31.9424532,38.5914345 C31.9424532,37.856632 32.5382121,37.2608732 33.2730146,37.2608732 C34.007817,37.2608732 34.6035759,37.856632 34.6035759,38.5914345 C34.6035759,39.326237 34.007817,39.9219958 33.2730146,39.9219958 Z M46.5786279,23.9552599 C45.8438254,23.9552599 45.2480665,23.359501 45.2480665,22.6246985 C45.2480665,21.889896 45.8438254,21.2941372 46.5786279,21.2941372 C47.3134304,21.2941372 47.9091892,21.889896 47.9091892,22.6246985 C47.9091892,23.359501 47.3134304,23.9552599 46.5786279,23.9552599 Z M63.8759252,13.3107692 C63.1411227,13.3107692 62.5453638,12.7150104 62.5453638,11.9802079 C62.5453638,11.2454054 63.1411227,10.6496466 63.8759252,10.6496466 C64.6107277,10.6496466 65.2064865,11.2454054 65.2064865,11.9802079 C65.2064865,12.7150104 64.6107277,13.3107692 63.8759252,13.3107692 Z" id="Shape"></path>
                    <path d="M77.1815385,48.2659459 L77.1815385,34.5997505 L78.5120998,34.5997505 C79.2469023,34.5997505 79.8426611,34.0039917 79.8426611,33.2691892 C79.8426611,32.5343867 79.2469023,31.9386279 78.5120998,31.9386279 L77.1815385,31.9386279 L77.1815385,23.9552599 L78.5120998,23.9552599 C79.2469023,23.9552599 79.8426611,23.359501 79.8426611,22.6246985 C79.8426611,21.889896 79.2469023,21.2941372 78.5120998,21.2941372 L77.1815385,21.2941372 L77.1815385,13.3107692 L78.5120998,13.3107692 C79.2469023,13.3107692 79.8426611,12.7150104 79.8426611,11.9802079 C79.8426611,11.2454054 79.2469023,10.6496466 78.5120998,10.6496466 L77.1815385,10.6496466 L77.1815385,3.99683992 L78.5120998,3.99683992 C79.2469023,3.99683992 79.8426611,3.40108108 79.8426611,2.66627859 C79.8426611,1.93147609 79.2469023,1.33571726 78.5120998,1.33571726 L77.1815385,1.33571726 C77.1815385,0.600914761 76.5857796,0.00515592516 75.8509771,0.00515592516 C75.1161746,0.00515592516 74.5204158,0.600914761 74.5204158,1.33571726 L74.5204158,44.5164241 C66.7757173,35.6894802 53.3417048,34.8121414 44.5147609,42.5568399 C35.9575884,50.0648649 34.8320998,62.9804574 41.96158,71.8554678 L1.33954262,71.8554678 C0.604740125,71.8554678 0.00898128898,72.4512266 0.00898128898,73.1860291 C0.00898128898,73.9208316 0.604740125,74.5165904 1.33954262,74.5165904 L44.5202495,74.5165904 C53.3287318,82.2824116 66.7647401,81.4370062 74.530395,72.6286902 C80.4760083,65.8849064 81.5372973,56.1307277 77.1815385,48.2659459 Z M58.5536798,77.1777131 C48.2657796,77.1777131 39.9258212,68.8377547 39.9258212,58.5498545 C39.9258212,48.2619543 48.2657796,39.9219958 58.5536798,39.9219958 C68.84158,39.9219958 77.1815385,48.2619543 77.1815385,58.5498545 C77.1705613,68.833264 68.8370894,77.166736 58.5536798,77.1777131 Z" id="Shape"></path>
                    <path d="M6.66178794,2.66627859 L4.00066528,2.66627859 C3.26586279,2.66627859 2.67010395,3.26203742 2.67010395,3.99683992 C2.67010395,4.73164241 3.26586279,5.32740125 4.00066528,5.32740125 L6.66178794,5.32740125 C7.39659044,5.32740125 7.99234927,4.73164241 7.99234927,3.99683992 C7.99234927,3.26203742 7.39659044,2.66627859 6.66178794,2.66627859 Z" id="Shape"></path>
                    <path d="M29.2813306,2.66627859 L11.9840333,2.66627859 C11.2492308,2.66627859 10.6534719,3.26203742 10.6534719,3.99683992 C10.6534719,4.73164241 11.2492308,5.32740125 11.9840333,5.32740125 L29.2813306,5.32740125 C30.0161331,5.32740125 30.6118919,4.73164241 30.6118919,3.99683992 C30.6118919,3.26203742 30.0161331,2.66627859 29.2813306,2.66627859 Z" id="Shape"></path>
                    <path d="M29.2813306,7.98852391 L4.00066528,7.98852391 C3.26586279,7.98852391 2.67010395,8.58428274 2.67010395,9.31908524 C2.67010395,10.0538877 3.26586279,10.6496466 4.00066528,10.6496466 L29.2813306,10.6496466 C30.0161331,10.6496466 30.6118919,10.0538877 30.6118919,9.31908524 C30.6118919,8.58428274 30.0161331,7.98852391 29.2813306,7.98852391 Z" id="Shape"></path>
                    <path d="M29.2813306,18.6330146 L4.00066528,18.6330146 C3.26586279,18.6330146 2.67010395,19.2287734 2.67010395,19.9635759 C2.67010395,20.6983784 3.26586279,21.2941372 4.00066528,21.2941372 L29.2813306,21.2941372 C30.0161331,21.2941372 30.6118919,20.6983784 30.6118919,19.9635759 C30.6118919,19.2287734 30.0161331,18.6330146 29.2813306,18.6330146 Z" id="Shape"></path>
                    <path d="M9.3229106,13.3107692 L4.00066528,13.3107692 C3.26586279,13.3107692 2.67010395,13.9065281 2.67010395,14.6413306 C2.67010395,15.3761331 3.26586279,15.9718919 4.00066528,15.9718919 L9.3229106,15.9718919 C10.0577131,15.9718919 10.6534719,15.3761331 10.6534719,14.6413306 C10.6534719,13.9065281 10.0577131,13.3107692 9.3229106,13.3107692 Z" id="Shape"></path>
                    <path d="M29.2813306,13.3107692 L14.6451559,13.3107692 C13.9103534,13.3107692 13.3145946,13.9065281 13.3145946,14.6413306 C13.3145946,15.3761331 13.9103534,15.9718919 14.6451559,15.9718919 L29.2813306,15.9718919 C30.0161331,15.9718919 30.6118919,15.3761331 30.6118919,14.6413306 C30.6118919,13.9065281 30.0161331,13.3107692 29.2813306,13.3107692 Z" id="Shape"></path>
                    <path d="M5.33122661,77.1777131 L2.67010395,77.1777131 C1.93530146,77.1777131 1.33954262,77.7734719 1.33954262,78.5082744 C1.33954262,79.2430769 1.93530146,79.8388358 2.67010395,79.8388358 L5.33122661,79.8388358 C6.06602911,79.8388358 6.66178794,79.2430769 6.66178794,78.5082744 C6.66178794,77.7734719 6.06602911,77.1777131 5.33122661,77.1777131 Z" id="Shape"></path>
                    <path d="M17.3062786,77.1777131 L14.6451559,77.1777131 C13.9103534,77.1777131 13.3145946,77.7734719 13.3145946,78.5082744 C13.3145946,79.2430769 13.9103534,79.8388358 14.6451559,79.8388358 L17.3062786,79.8388358 C18.0410811,79.8388358 18.6368399,79.2430769 18.6368399,78.5082744 C18.6368399,77.7734719 18.0410811,77.1777131 17.3062786,77.1777131 Z" id="Shape"></path>
                    <path d="M29.2813306,77.1777131 L26.6202079,77.1777131 C25.8854054,77.1777131 25.2896466,77.7734719 25.2896466,78.5082744 C25.2896466,79.2430769 25.8854054,79.8388358 26.6202079,79.8388358 L29.2813306,79.8388358 C30.0161331,79.8388358 30.6118919,79.2430769 30.6118919,78.5082744 C30.6118919,77.7734719 30.0161331,77.1777131 29.2813306,77.1777131 Z" id="Shape"></path>
                    <path d="M41.2563825,77.1777131 L38.5952599,77.1777131 C37.8604574,77.1777131 37.2646985,77.7734719 37.2646985,78.5082744 C37.2646985,79.2430769 37.8604574,79.8388358 38.5952599,79.8388358 L41.2563825,79.8388358 C41.991185,79.8388358 42.5869439,79.2430769 42.5869439,78.5082744 C42.5869439,77.7734719 41.991185,77.1777131 41.2563825,77.1777131 Z" id="Shape"></path>
                </g>
            </g>
        </g>
    </g>
</svg>