<?xml version="1.0" encoding="UTF-8"?>
<svg width="67px" height="80px" viewBox="0 0 67 80" version="1.1" xmlns="http://www.w3.org/2000/svg" xmlns:xlink="http://www.w3.org/1999/xlink">
    <!-- Generator: sketchtool 50 (54983) - http://www.bohemiancoding.com/sketch -->
    <title>A6A944D9-5EBF-4344-88DF-8841BEB8C1C9</title>
    <desc>Created with sketchtool.</desc>
    <defs></defs>
    <g id="The-golden-fleece" stroke="none" stroke-width="1" fill="none" fill-rule="evenodd">
        <g id="All-Universes---Main" transform="translate(-277.000000, -2047.000000)" fill="#558DFF" fill-rule="nonzero">
            <g id="Group-9" transform="translate(130.000000, 2047.000000)">
                <g id="noun_1582045_cc" transform="translate(147.000000, 0.000000)">
                    <g id="Group">
                        <path d="M45.0526316,42.4736842 C44.0526316,41.1578947 42.6315789,40.3157895 40.6842105,39.9473684 C42.1052632,39.3684211 43.1578947,38.5263158 43.8947368,37.4210526 C44.6315789,36.3157895 45,35.0526316 45,33.6315789 C45,30.8421053 44,28.7368421 41.9473684,27.3157895 C40.2105263,26.1052632 37.9473684,25.4210526 35.0526316,25.2631579 L35.0526316,22.5789474 C35.0526316,21.8947368 34.4736842,21.3157895 33.7894737,21.3157895 L31.6315789,21.3157895 C30.9473684,21.3157895 30.3684211,21.8947368 30.3684211,22.5789474 L30.3684211,25.2105263 L28.1052632,25.2105263 L28.1052632,22.5789474 C28.1052632,21.8947368 27.5263158,21.3157895 26.8421053,21.3157895 L24.6842105,21.3157895 C24,21.3157895 23.4210526,21.8947368 23.4210526,22.5789474 L23.4210526,25.2105263 L21,25.2105263 C20.3157895,25.2105263 19.7368421,25.7894737 19.7368421,26.4736842 L19.7368421,28.6315789 C19.7368421,29.3157895 20.3157895,29.8947368 21,29.8947368 L23.4210526,29.8947368 L23.4210526,51.3157895 L21,51.3157895 C20.3157895,51.3157895 19.7368421,51.8947368 19.7368421,52.5789474 L19.7368421,54.7368421 C19.7368421,55.4210526 20.3157895,56 21,56 L23.4210526,56 L23.4210526,58.4210526 C23.4210526,59.1052632 24,59.6842105 24.6842105,59.6842105 L26.8421053,59.6842105 C27.5263158,59.6842105 28.1052632,59.1052632 28.1052632,58.4210526 L28.1052632,56 L30.3684211,56 L30.3684211,58.4210526 C30.3684211,59.1052632 30.9473684,59.6842105 31.6315789,59.6842105 L33.7894737,59.6842105 C34.4736842,59.6842105 35.0526316,59.1052632 35.0526316,58.4210526 L35.0526316,56 L35.2631579,56 C38.8421053,56 41.6315789,55.2631579 43.5789474,53.7368421 C45.5263158,52.2105263 46.5263158,50 46.5263158,47 C46.5263158,45.3157895 46.0526316,43.7894737 45.0526316,42.4736842 Z M38.8421053,34.1578947 C38.8421053,35.4736842 38.4210526,36.4736842 37.5263158,37.1052632 C36.6315789,37.7894737 35.3684211,38.1052632 33.6842105,38.1052632 L29.5263158,38.1052632 L29.5263158,30 L33.4736842,30 C35.2631579,30 36.5789474,30.3157895 37.4736842,31 C38.4210526,31.6842105 38.8421053,32.7368421 38.8421053,34.1578947 Z M39.0526316,50.2631579 C38.2105263,51 36.9473684,51.3157895 35.3157895,51.3157895 L29.5789474,51.3157895 L29.5789474,42.4210526 L35.2631579,42.4210526 C37,42.4210526 38.2631579,42.8421053 39.1052632,43.6315789 C39.9473684,44.4210526 40.3684211,45.5789474 40.3684211,47.1052632 C40.3684211,48.4736842 39.9473684,49.5263158 39.0526316,50.2631579 Z" id="Shape"></path>
                        <path d="M52.2631579,58.5263158 C52,58.5263158 51.7368421,58.4736842 51.5263158,58.3157895 C50.9473684,57.8947368 50.7368421,57.1052632 51.1578947,56.4736842 C54.2631579,51.7894737 55.8947368,45.9473684 55.8947368,39.1052632 L55.8947368,31.7368421 C55.8947368,31 56.4736842,30.4210526 57.2105263,30.4210526 C57.9473684,30.4210526 58.5263158,31 58.5263158,31.7368421 L58.5263158,39.1052632 C58.5263158,46.4736842 56.7894737,52.8421053 53.3684211,57.9473684 C53.1052632,58.3157895 52.6842105,58.5263158 52.2631579,58.5263158 Z" id="Shape"></path>
                        <path d="M36.8421053,69.6315789 C36.2631579,69.6315789 35.7368421,69.2631579 35.5789474,68.6842105 C35.3684211,68 35.7368421,67.2631579 36.4736842,67.0526316 C38.6315789,66.3684211 40.7368421,65.4736842 42.6315789,64.3684211 C43.2631579,64 44.0526316,64.2105263 44.4210526,64.8421053 C44.7894737,65.4736842 44.5789474,66.2631579 43.9473684,66.6315789 C41.8421053,67.8421053 39.5789474,68.8421053 37.2105263,69.5263158 C37.1052632,69.5789474 37,69.6315789 36.8421053,69.6315789 Z" id="Shape"></path>
                        <path d="M33.2105263,79.8947368 C33.1578947,79.8947368 33.1052632,79.8947368 33.0526316,79.8947368 C32.9473684,79.8947368 32.8947368,79.8947368 32.7894737,79.8421053 C31.1052632,79.5789474 23.3157895,78.2105263 15.6842105,72.6842105 C8.63157895,67.5263158 0.157894737,57.5263158 0.157894737,39.0526316 L0.157894737,8.63157895 C0.157894737,8.10526316 0.473684211,7.57894737 1,7.42105263 C1.52631579,7.21052632 2.10526316,7.36842105 2.47368421,7.78947368 C6.36842105,12.2105263 12.7894737,13.6842105 19.6842105,11.7368421 C26.0526316,9.94736842 31,5.57894737 31.7894737,1.21052632 C31.8947368,0.578947368 32.4210526,0.105263158 33.1052632,0.105263158 L33.2105263,0.105263158 C33.8421053,0.105263158 34.4210526,0.578947368 34.5263158,1.21052632 C35.3157895,5.63157895 40.2631579,9.94736842 46.6315789,11.7368421 C53.4736842,13.6842105 59.8947368,12.2105263 63.8421053,7.78947368 C64.2105263,7.36842105 64.7894737,7.26315789 65.3157895,7.42105263 C65.8421053,7.63157895 66.1578947,8.10526316 66.1578947,8.63157895 L66.1578947,39.0526316 C66.1578947,57.5263158 57.7368421,67.5263158 50.6315789,72.6842105 C43.1578947,78.1052632 35.5263158,79.5263158 33.6315789,79.8421053 C33.4736842,79.8947368 33.3684211,79.8947368 33.2105263,79.8947368 Z M2.84210526,11.6842105 L2.84210526,39.1052632 C2.84210526,53.0526316 7.68421053,63.6842105 17.2631579,70.6315789 C24.4210526,75.8421053 31.8421053,77.1052632 33.1578947,77.3157895 C34.4210526,77.1052632 41.8947368,75.8421053 49.0526316,70.6315789 C58.6315789,63.6842105 63.4736842,53.1052632 63.4736842,39.1052632 L63.4736842,11.6842105 C58.8947368,15.1578947 52.5263158,16.1578947 45.8947368,14.2631579 C40.1052632,12.6315789 35.3684211,9.15789474 33.1578947,5.05263158 C30.9473684,9.10526316 26.2105263,12.6315789 20.4210526,14.2631579 C13.7894737,16.1578947 7.42105263,15.1578947 2.84210526,11.6842105 Z" id="Shape"></path>
                    </g>
                </g>
            </g>
        </g>
    </g>
</svg>