<?xml version="1.0" encoding="UTF-8"?>
<svg width="79px" height="80px" viewBox="0 0 79 80" version="1.1" xmlns="http://www.w3.org/2000/svg" xmlns:xlink="http://www.w3.org/1999/xlink">
    <!-- Generator: sketchtool 50 (54983) - http://www.bohemiancoding.com/sketch -->
    <title>4F0C5F0A-7B69-4B19-ADDE-1883A2DA0620</title>
    <desc>Created with sketchtool.</desc>
    <defs></defs>
    <g id="The-golden-fleece" stroke="none" stroke-width="1" fill="none" fill-rule="evenodd">
        <g id="All-Universes---Main" transform="translate(-271.000000, -2631.000000)" fill="#558DFF" fill-rule="nonzero">
            <g id="Group-11" transform="translate(130.000000, 2631.000000)">
                <g id="money-(3)" transform="translate(141.000000, 0.000000)">
                    <path d="M22.8086531,72.1490612 C23.042449,72.5539592 23.4747755,72.803102 23.9423673,72.8021224 C24.1712653,72.8019592 24.3959184,72.741551 24.5941224,72.627102 C25.2187755,72.266449 25.4328163,71.4675918 25.0721633,70.8429388 L23.7660408,68.5794286 C23.4053878,67.954449 22.6062041,67.7400816 21.9812245,68.1007347 C21.3562449,68.4613878 21.1418776,69.2605714 21.5025306,69.885551 L22.8086531,72.1490612 Z" id="Shape"></path>
                    <path d="M64.7573878,21.6622041 C65.0958367,21.0782041 65.2759184,20.4158367 65.2798367,19.740898 C65.2798367,17.5768163 63.525551,15.8225306 61.3614694,15.8225306 L60.0553469,15.8225306 L60.0553469,14.5164082 C60.0553469,13.795102 59.4705306,13.2102857 58.7492245,13.2102857 C58.0279184,13.2102857 57.443102,13.795102 57.443102,14.5164082 L57.443102,15.8225306 L53.5247347,15.8225306 C52.8034286,15.8225306 52.2186122,16.4073469 52.2186122,17.1286531 C52.2186122,17.8499592 52.8034286,18.4347755 53.5247347,18.4347755 L54.8308571,18.4347755 L54.8308571,26.2715102 L53.5247347,26.2715102 C52.8034286,26.2715102 52.2186122,26.8563265 52.2186122,27.5776327 C52.2186122,28.2989388 52.8034286,28.8837551 53.5247347,28.8837551 L57.443102,28.8837551 L57.443102,30.1898776 C57.443102,30.9111837 58.0279184,31.496 58.7492245,31.496 C59.4705306,31.496 60.0553469,30.9111837 60.0553469,30.1898776 L60.0553469,28.8837551 L62.6675918,28.8837551 C64.8272653,28.8888163 66.5822041,27.1420408 66.5872653,24.9823673 C66.5903673,23.6341224 65.8989388,22.3794286 64.7573878,21.6622041 Z M57.443102,18.4347755 L61.3614694,18.4347755 C62.0827755,18.4347755 62.6675918,19.0195918 62.6675918,19.740898 C62.6675918,20.4622041 62.0827755,21.0470204 61.3614694,21.0470204 L57.443102,21.0470204 L57.443102,18.4347755 Z M62.6675918,26.2715102 L57.443102,26.2715102 L57.443102,23.6592653 L62.6675918,23.6592653 C63.388898,23.6592653 63.9737143,24.2440816 63.9737143,24.9653878 C63.9737143,25.6866939 63.3890612,26.2715102 62.6675918,26.2715102 Z" id="Shape"></path>
                    <path d="M66.5428571,69.5209796 L66.5389388,69.5235918 L59.3552653,57.0801633 C61.2303673,55.9998367 61.8746122,53.6039184 60.7941224,51.7288163 C60.7934694,51.7275102 60.7926531,51.7263673 60.792,51.7250612 C60.4512653,51.1425306 59.9634286,50.6597551 59.3774694,50.324898 C60.3714286,48.4842449 59.7152653,46.1866122 57.8989388,45.1487347 C58.9142857,43.2548571 58.2019592,40.8964898 56.3080816,39.8811429 C55.7795918,39.5977143 55.1926531,39.4404898 54.5931429,39.4213878 C54.5941224,38.7475918 54.4199184,38.0850612 54.0876735,37.4987755 C53.0026122,35.627102 50.6086531,34.9848163 48.7325714,36.0620408 L47.6014694,36.715102 L37.805551,19.7485714 L41.2014694,17.7893878 C41.8266122,17.429551 42.0417959,16.6310204 41.6819592,16.0058776 C41.6816327,16.0052245 41.6811429,16.0045714 41.6808163,16.0039184 C41.3208163,15.3799184 41.5342041,14.5822041 42.157551,14.2210612 L49.272,10.1133061 C52.0355918,8.52065306 54.8953469,7.10122449 57.8349388,5.86318367 L63.021551,3.67542857 C63.6850612,3.3924898 63.9936327,2.62514286 63.7106939,1.96163265 C63.5420408,1.56620408 63.189551,1.27902041 62.7681633,1.19379592 L60.7266939,0.788897959 C52.9596735,-0.753632653 44.8966531,0.578122449 38.0380408,4.53616327 L36.9291429,5.17746939 C36.3048163,5.53730612 35.5069388,5.32326531 35.1462857,4.69942857 C34.786449,4.07428571 33.9879184,3.85910204 33.3627755,4.21893878 C33.3621224,4.21926531 33.3614694,4.21959184 33.3608163,4.22008163 L29.964898,6.17926531 C28.8803265,4.30710204 26.4858776,3.66465306 24.6097959,4.74253061 L22.3475918,6.04865306 C20.4724898,7.12897959 19.8282449,9.52489796 20.9087347,11.4 C20.9093878,11.4013061 20.9102041,11.402449 20.9108571,11.4037551 L17.5149388,13.3629388 C16.8901224,13.7232653 16.6755918,14.5219592 17.0360816,15.1469388 C17.0364082,15.1474286 17.0365714,15.1479184 17.036898,15.1484082 C17.3977143,15.7727347 17.1843265,16.5714286 16.5601633,16.9325714 L15.4512653,17.5712653 C8.59657143,21.5317551 3.41420408,27.8476735 0.868408163,35.3436735 L0.197061224,37.3146122 C-0.0355918367,37.9973878 0.329142857,38.7395918 1.01191837,38.9722449 C1.42253061,39.1121633 1.87559184,39.0391837 2.22155102,38.7774694 L6.712,35.3750204 C9.25583673,33.4497959 11.9167347,31.6844082 14.6793469,30.0891429 L21.7937959,25.9800816 C22.4181224,25.6202449 23.216,25.8342857 23.5766531,26.4581224 C23.9368163,27.083102 24.7355102,27.2977959 25.3604898,26.9376327 C25.3606531,26.9376327 25.3606531,26.9374694 25.3608163,26.9374694 L28.7567347,24.9782857 L35.2873469,36.2893061 L33.72,37.1918367 C33.084898,37.5593469 32.5435102,38.0690612 32.1382857,38.6808163 C31.1484082,40.1722449 31.091102,42.0964898 31.9906939,43.6440816 L33.5462857,46.3386122 C33.9069388,46.9632653 33.692898,47.7621224 33.0682449,48.1227755 L21.7572245,54.6533878 L20.4537143,52.3937959 C20.2795102,52.0942041 19.9941224,51.8754286 19.6595918,51.7851429 C19.324898,51.6943673 18.968,51.7413878 18.6682449,51.9157551 L9.62073469,57.1402449 C8.99608163,57.500898 8.78204082,58.2997551 9.14269388,58.9244082 L20.8977959,79.2842449 C21.131102,79.6883265 21.5622857,79.9373061 22.028898,79.9373061 C22.2579592,79.9373061 22.483102,79.8773878 22.6819592,79.7635918 L31.7294694,74.539102 C32.3546122,74.1792653 32.5697959,73.3807347 32.2099592,72.7555918 C32.2096327,72.7549388 32.2091429,72.7542857 32.2088163,72.7536327 L30.9026939,70.4914286 L40.0716735,65.1937959 C41.3017143,64.4853878 42.6790204,64.0715102 44.0958367,63.9843265 L45.0022857,63.9294694 C46.8230204,63.8181224 48.5931429,63.2870204 50.1745306,62.3777959 L50.3051429,62.3046531 L57.4888163,74.7454694 C58.5691429,76.6205714 60.9650612,77.2648163 62.8401633,76.1843265 C62.8414694,76.1836735 62.8426122,76.1828571 62.8439184,76.1822041 L65.1061224,74.8760816 C66.9812245,73.7957551 67.6254694,71.3998367 66.5449796,69.5247347 C66.5443265,69.5235918 66.5436735,69.5222857 66.5428571,69.5209796 Z M23.052898,9.1077551 C23.1417143,8.77322449 23.3596735,8.4875102 23.6589388,8.31363265 L25.9211429,7.0075102 C26.5461224,6.65240816 27.3405714,6.86530612 27.704,7.48555102 L23.180898,10.0977959 C23.0088163,9.79771429 22.9627755,9.44163265 23.052898,9.1077551 Z M24.9937959,24.1281633 C23.7301224,23.0517551 21.9263673,22.8860408 20.4876735,23.7141224 L13.3732245,27.8257959 C10.516898,29.4757551 7.76571429,31.3012245 5.1355102,33.2919184 L4.16897959,34.0246531 C6.72457143,28.0574694 11.1443265,23.0786939 16.7665306,19.8336327 L17.8754286,19.1936327 C19.3141224,18.3634286 20.0729796,16.7162449 19.7693061,15.0832653 L33.7291429,7.02579592 C34.9928163,8.10220408 36.7965714,8.26791837 38.2352653,7.43983673 L39.3441633,6.79983673 C44.9658776,3.55281633 51.488,2.21420408 57.9342041,2.98465306 L56.8161633,3.45616327 C53.7764898,4.73779592 50.8194286,6.20685714 47.9619592,7.85518367 L40.8475102,11.9640816 C39.4088163,12.7942857 38.6499592,14.4414694 38.9536327,16.074449 L24.9937959,24.1281633 Z M31.0189388,23.6669388 L35.5420408,21.0546939 L45.3366531,38.026449 L40.8148571,40.6386939 L31.0189388,23.6669388 Z M22.5069388,76.8471837 L12.0579592,58.749551 L18.8432653,54.8311837 L29.2922449,72.9288163 L22.5069388,76.8471837 Z M48.8736327,60.1155918 C47.6435918,60.8238367 46.2661224,61.2373878 44.8494694,61.3237551 L43.9443265,61.3786122 C42.1213061,61.4896327 40.3487347,62.0210612 38.765551,62.9315918 L29.5965714,68.2292245 L23.0659592,56.9182041 L34.3769796,50.3875918 C36.2520816,49.3072653 36.8963265,46.9113469 35.8158367,45.0362449 C35.8151837,45.0349388 35.8143673,45.0337959 35.8137143,45.0324898 L34.2555102,42.3366531 C33.8517551,41.6447347 33.8770612,40.7833469 34.3208163,40.1162449 C34.5026939,39.8426122 34.7448163,39.6142041 35.0287347,39.4488163 L36.5960816,38.5462857 L39.2083265,43.0706939 C39.2945306,43.2228571 39.410449,43.3560816 39.5492245,43.4625306 C39.6653061,43.5462857 39.7947755,43.6097959 39.9319184,43.6506122 C39.9547755,43.6636735 39.9782857,43.6754286 40.002449,43.6858776 C40.1123265,43.7155918 40.2256327,43.730449 40.3394286,43.7302857 C40.376,43.7302857 40.4099592,43.7198367 40.4452245,43.7172245 C40.4804898,43.7146122 40.5196735,43.7080816 40.5562449,43.701551 C40.7093878,43.6796735 40.8571429,43.6300408 40.9924898,43.5552653 L50.0413061,38.3307755 C50.6684082,37.9743673 51.4657959,38.1937959 51.8222041,38.820898 C52.1753469,39.4421224 51.9637551,40.2316735 51.3474286,40.5929796 L45.688,43.8569796 C45.0618776,44.2176327 44.8466939,45.0176327 45.2073469,45.6437551 C45.568,46.2698776 46.368,46.4850612 46.9941224,46.1244082 L53.7859592,42.2060408 C54.4081633,41.8411429 55.2084898,42.0497959 55.5733878,42.672 C55.9382857,43.2942041 55.7296327,44.0945306 55.1074286,44.4594286 C55.1023673,44.4623673 55.0973061,44.4653061 55.0922449,44.4682449 L48.3004082,48.3866122 C47.6754286,48.7472653 47.4610612,49.546449 47.8217143,50.1714286 C48.1823673,50.7964082 48.981551,51.0107755 49.6065306,50.6501224 L55.2620408,47.3848163 C55.8754286,47.0052245 56.6804898,47.1949388 57.0599184,47.8083265 C57.4393469,48.4217143 57.2497959,49.2267755 56.6364082,49.6062041 C56.6140408,49.6200816 56.5913469,49.6331429 56.5681633,49.6457143 L50.9126531,52.9057959 C50.2876735,53.266449 50.0733061,54.0656327 50.4339592,54.6906122 C50.7946122,55.3155918 51.5937959,55.5299592 52.2187755,55.1693061 L56.7431837,52.5570612 C57.3702857,52.2006531 58.1676735,52.4199184 58.5240816,53.0471837 C58.8772245,53.6684082 58.6656327,54.4579592 58.0493061,54.8192653 L48.8736327,60.1155918 Z M64.4073469,71.8212245 C64.3186939,72.1559184 64.0994286,72.4409796 63.7986939,72.6127347 L61.5364898,73.9188571 C61.2360816,74.091102 60.8798367,74.1379592 60.5451429,74.0494694 C60.210449,73.9608163 59.9253878,73.741551 59.7536327,73.4408163 L52.5699592,60.9973878 L57.0930612,58.3851429 L64.2767347,70.8272653 C64.4517551,71.1276735 64.4987755,71.4857143 64.4073469,71.8212245 Z" id="Shape"></path>
                    <path d="M58.7492245,9.29191837 C51.5356735,9.29191837 45.688,15.1395918 45.688,22.3531429 C45.688,29.5666939 51.5356735,35.4143673 58.7492245,35.4143673 C65.9627755,35.4143673 71.810449,29.5666939 71.810449,22.3531429 C71.8026122,15.1428571 65.9595102,9.2997551 58.7492245,9.29191837 Z M58.7492245,32.8021224 C52.978449,32.8021224 48.3002449,28.1239184 48.3002449,22.3531429 C48.3002449,16.5823673 52.978449,11.9041633 58.7492245,11.9041633 C64.52,11.9041633 69.1982041,16.5823673 69.1982041,22.3531429 C69.1918367,28.1211429 64.5173878,32.7955918 58.7492245,32.8021224 Z" id="Shape"></path>
                    <path d="M66.5859592,10.0860408 C67.0530612,10.0865306 67.484898,9.83755102 67.7183673,9.43297959 L69.0244898,7.16946939 C69.3776327,6.5482449 69.1660408,5.75869388 68.5497143,5.39738776 C67.9275102,5.0324898 67.1271837,5.24114286 66.7622857,5.86334694 L65.4561633,8.12685714 C65.3417143,8.32506122 65.2814694,8.54971429 65.2811429,8.77861224 C65.2804898,9.49991837 65.8646531,10.0852245 66.5859592,10.0860408 Z" id="Shape"></path>
                    <path d="M72.3250612,15.8225306 C72.5542857,15.8225306 72.7795918,15.7621224 72.9781224,15.6475102 L75.2390204,14.3413878 C75.8555102,13.9799184 76.067102,13.1902041 75.7139592,12.5689796 C75.3573878,11.9418776 74.56,11.7226122 73.932898,12.0791837 L71.672,13.3853061 C71.2679184,13.6186122 71.0189388,14.0497959 71.0189388,14.5164082 C71.0189388,15.237551 71.6037551,15.8223673 72.3250612,15.8225306 Z" id="Shape"></path>
                    <path d="M77.0349388,21.0470204 L74.4226939,21.0470204 C73.7013878,21.0470204 73.1165714,21.6318367 73.1165714,22.3531429 C73.1165714,23.074449 73.7013878,23.6592653 74.4226939,23.6592653 L77.0349388,23.6592653 C77.7562449,23.6592653 78.3410612,23.074449 78.3410612,22.3531429 C78.3410612,21.6318367 77.7564082,21.0470204 77.0349388,21.0470204 Z" id="Shape"></path>
                    <path d="M75.2364082,30.3647347 L72.9755102,29.0586122 C72.9706122,29.0556735 72.965551,29.052898 72.9604898,29.0499592 C72.3333878,28.6933878 71.536,28.9126531 71.1794286,29.5397551 C70.8228571,30.1668571 71.0421224,30.9642449 71.6692245,31.3208163 L73.9301224,32.6269388 C74.1284898,32.7420408 74.3537959,32.802449 74.5831837,32.8019592 C75.0497959,32.8019592 75.4809796,32.5529796 75.7142857,32.148898 C76.075102,31.5244082 75.8610612,30.725551 75.2364082,30.3647347 Z" id="Shape"></path>
                    <path d="M67.7157551,35.2733061 C67.7128163,35.2682449 67.7098776,35.2631837 67.7069388,35.2581224 C67.3420408,34.6359184 66.5418776,34.4272653 65.9195102,34.7921633 C65.2971429,35.1570612 65.0886531,35.9572245 65.453551,36.5795918 L66.7596735,38.843102 C66.9931429,39.2476735 67.4249796,39.4966531 67.8920816,39.4961633 C68.1208163,39.496 68.3456327,39.4355918 68.5438367,39.3211429 C69.1684898,38.9604898 69.3825306,38.1616327 69.0218776,37.5369796 L67.7157551,35.2733061 Z" id="Shape"></path>
                </g>
            </g>
        </g>
    </g>
</svg>