<?xml version="1.0" encoding="UTF-8"?>
<svg width="82px" height="80px" viewBox="0 0 82 80" version="1.1" xmlns="http://www.w3.org/2000/svg" xmlns:xlink="http://www.w3.org/1999/xlink">
    <!-- Generator: sketchtool 50 (54983) - http://www.bohemiancoding.com/sketch -->
    <title>DF761335-9427-4010-82D5-D073B1910801</title>
    <desc>Created with sketchtool.</desc>
    <defs></defs>
    <g id="The-golden-fleece" stroke="none" stroke-width="1" fill="none" fill-rule="evenodd">
        <g id="All-Universes---Main" transform="translate(-1046.000000, -2047.000000)" fill="#558DFF" fill-rule="nonzero">
            <g id="Group-2-Copy-4" transform="translate(940.000000, 2047.000000)">
                <g id="bitcoin-(2)" transform="translate(106.000000, 0.000000)">
                    <path d="M70.5084746,21.6949153 L73.220339,21.6949153 C73.220339,18.6994915 75.6486441,16.2711864 78.6440678,16.2711864 L78.6440678,13.559322 C75.6486441,13.559322 73.220339,11.1310169 73.220339,8.13559322 L70.5084746,8.13559322 C70.5084746,11.1310169 68.0801695,13.559322 65.0847458,13.559322 L65.0847458,16.2711864 C68.0801695,16.2711864 70.5084746,18.6994915 70.5084746,21.6949153 Z M71.8644068,12.6277966 C72.4674576,13.5345763 73.2450847,14.3122034 74.1518644,14.9152542 C73.2450847,15.5183051 72.4674576,16.2959322 71.8644068,17.2027119 L71.8522034,17.1864407 C71.2542373,16.2928814 70.4867797,15.5254237 69.5932203,14.9274576 L69.5769492,14.9152542 C70.4837288,14.3122034 71.2613559,13.5345763 71.8644068,12.6277966 Z" id="Shape"></path>
                    <path d="M9.49152542,66.440678 L6.77966102,66.440678 C6.77966102,69.4361017 4.35135593,71.8644068 1.3559322,71.8644068 L1.3559322,74.5762712 C4.35135593,74.5762712 6.77966102,77.0045763 6.77966102,80 L9.49152542,80 C9.49152542,77.0045763 11.9198305,74.5762712 14.9152542,74.5762712 L14.9152542,71.8644068 C11.9198305,71.8644068 9.49152542,69.4361017 9.49152542,66.440678 Z M8.13559322,75.5077966 L8.12338983,75.4915254 C7.52542373,74.5979661 6.7579661,73.8305085 5.86440678,73.2325424 L5.84813559,73.220339 C6.75491525,72.6172881 7.53254237,71.839661 8.13559322,70.9328814 C8.73864407,71.839661 9.51627119,72.6172881 10.4230508,73.220339 C9.51627119,73.8233898 8.73864407,74.6010169 8.13559322,75.5077966 Z" id="Shape"></path>
                    <path d="M36.6101695,13.559322 L39.3220339,13.559322 C39.3220339,10.5638983 41.750339,8.13559322 44.7457627,8.13559322 L44.7457627,5.42372881 C41.750339,5.42372881 39.3220339,2.99542373 39.3220339,0 L36.6101695,0 C36.6101695,2.99542373 34.1818644,5.42372881 31.1864407,5.42372881 L31.1864407,8.13559322 C34.1818644,8.13559322 36.6101695,10.5638983 36.6101695,13.559322 Z M37.9661017,4.49220339 C38.5691525,5.39898305 39.3467797,6.17661017 40.2535593,6.77966102 C39.3467797,7.38271186 38.5691525,8.16033898 37.9661017,9.06711864 L37.9538983,9.05084746 C37.3559322,8.15728814 36.5884746,7.38983051 35.6949153,6.79186441 L35.6786441,6.77966102 C36.5854237,6.17661017 37.3630508,5.39898305 37.9661017,4.49220339 Z" id="Shape"></path>
                    <path d="M66.440678,48.8135593 C66.4371186,47.809661 66.0601695,46.8428814 65.3830508,46.1016949 C66.0601695,45.3605085 66.4371186,44.3937288 66.440678,43.3898305 L66.440678,40.6779661 C66.440678,38.4313559 64.6194915,36.6101695 62.3728814,36.6101695 L59.6610169,36.6101695 L59.6610169,33.8983051 L56.9491525,33.8983051 L56.9491525,36.6101695 L54.2372881,36.6101695 L54.2372881,33.8983051 L51.5254237,33.8983051 L51.5254237,36.6101695 L48.8135593,36.6101695 L48.8135593,39.3220339 L50.1694915,39.3220339 L50.1694915,52.8813559 L48.8135593,52.8813559 L48.8135593,55.5932203 L51.5254237,55.5932203 L51.5254237,58.3050847 L54.2372881,58.3050847 L54.2372881,55.5932203 L56.9491525,55.5932203 L56.9491525,58.3050847 L59.6610169,58.3050847 L59.6610169,55.5932203 L62.3728814,55.5932203 C64.6194915,55.5932203 66.440678,53.7720339 66.440678,51.5254237 L66.440678,48.8135593 Z M63.7288136,51.5254237 C63.7288136,52.2742373 63.1216949,52.8813559 62.3728814,52.8813559 L52.8813559,52.8813559 L52.8813559,47.4576271 L62.3728814,47.4576271 C63.1216949,47.4576271 63.7288136,48.0647458 63.7288136,48.8135593 L63.7288136,51.5254237 Z M63.7288136,43.3898305 C63.7288136,44.1386441 63.1216949,44.7457627 62.3728814,44.7457627 L52.8813559,44.7457627 L52.8813559,39.3220339 L62.3728814,39.3220339 C63.1216949,39.3220339 63.7288136,39.9291525 63.7288136,40.6779661 L63.7288136,43.3898305 Z" id="Shape"></path>
                    <path d="M56.9491525,21.6949153 L18.9830508,21.6949153 L18.9830508,24.4067797 L45.8183051,24.4067797 C42.1310169,26.3030508 38.9838983,29.1018644 36.6698305,32.5423729 L18.9830508,32.5423729 L18.9830508,35.2542373 L35.1186441,35.2542373 C33.6432203,38.2135593 32.790339,41.4438983 32.6128814,44.7457627 L10.8474576,44.7457627 L10.8474576,47.4576271 L32.6115254,47.4576271 C32.7894915,50.759661 33.6427119,53.99 35.1186441,56.9491525 L18.9830508,56.9491525 L18.9830508,59.6610169 L36.6698305,59.6610169 C38.9838983,63.1015254 42.1310169,65.900339 45.8183051,67.7966102 L24.4067797,67.7966102 L24.4067797,70.5084746 L56.9491525,70.5084746 C70.4286441,70.5084746 81.3559322,59.5811864 81.3559322,46.1016949 C81.3559322,32.6222034 70.4286441,21.6949153 56.9491525,21.6949153 Z M56.9491525,67.7966102 C44.9674576,67.7966102 35.2542373,58.0833898 35.2542373,46.1016949 C35.2542373,34.12 44.9674576,24.4067797 56.9491525,24.4067797 C68.9308475,24.4067797 78.6440678,34.12 78.6440678,46.1016949 C78.6298305,58.0776271 68.9250847,67.7823729 56.9491525,67.7966102 Z" id="Shape"></path>
                    <path d="M73.099661,36.1233898 C72.3142373,34.8554237 71.3830508,33.6835593 70.3254237,32.6318644 L68.4149153,34.5572881 C69.3218644,35.4588136 70.1205085,36.4630508 70.7945763,37.5498305 L73.099661,36.1233898 Z" id="Shape"></path>
                    <path d="M68.0569492,30.7064407 C66.8472881,29.8318644 65.5383051,29.1037288 64.1572881,28.5369492 L63.1281356,31.0454237 C64.3108475,31.5315254 65.4318644,32.1559322 66.4677966,32.9057627 L68.0569492,30.7064407 Z" id="Shape"></path>
                    <path d="M60.699661,30.2630508 L61.319322,27.6230508 C59.8867797,27.2876271 58.420339,27.1184746 56.9491525,27.1186441 L56.8949153,27.1186439 L56.9491525,29.8305085 C58.2118644,29.8301695 59.470339,29.9752542 60.699661,30.2630508 Z" id="Shape"></path>
                    <path d="M54.3538983,30.0366102 L53.9254237,27.36 C52.4513559,27.5957627 51.010339,28.0054237 49.6325424,28.580339 L50.679322,31.0833898 C51.8588136,30.5911864 53.0922034,30.2398305 54.3538983,30.0366102 Z" id="Shape"></path>
                    <path d="M73.0115254,43.4888136 L75.6894915,43.0576271 C75.4532203,41.5844068 75.0435593,40.1444068 74.4691525,38.7674576 L71.9674576,39.8155932 C72.4594915,40.9944068 72.8098305,42.2274576 73.0115254,43.4888136 Z" id="Shape"></path>
                    <path d="M75.2542373,46.0474576 L73.220339,46.1016949 C73.2211864,47.380339 73.0715254,48.6547458 72.7742373,49.8983051 L75.4128814,50.5288136 C75.7601695,49.0667797 75.9345763,47.5691525 75.9322034,46.0664407 L75.2542373,46.0474576 Z" id="Shape"></path>
                    <path d="M40.7769492,56.0461017 C41.559661,57.3159322 42.4884746,58.4894915 43.5444068,59.5430508 L45.460339,57.6271186 C44.5542373,56.7233898 43.7569492,55.7167797 43.0847458,54.6277966 L40.7769492,56.0461017 Z" id="Shape"></path>
                    <path d="M45.8101695,61.4738983 C47.0176271,62.3511864 48.3247458,63.0822034 49.7044068,63.6515254 L50.7389831,61.1525424 C49.5577966,60.6635593 48.4381356,60.0374576 47.4033898,59.2867797 L45.8101695,61.4738983 Z" id="Shape"></path>
                    <path d="M53.1525424,61.9322034 L52.5247458,64.5694915 C53.9694915,64.9122034 55.449322,65.0850847 56.9342373,65.0847458 L56.9491525,65.0847463 L56.9315254,62.3728814 C55.6589831,62.3735593 54.3908475,62.2255932 53.1525424,61.9322034 Z" id="Shape"></path>
                    <path d="M70.1166102,55.6610169 L72.3105085,57.2583051 C73.1884746,56.0510169 73.920678,54.7444068 74.4922034,53.3654237 L71.9877966,52.3281356 C71.4971186,53.5088136 70.8691525,54.6274576 70.1166102,55.6610169 Z" id="Shape"></path>
                    <path d="M48.4067797,32.2467797 L46.9789831,29.9416949 C45.7118644,30.7262712 44.540678,31.6561017 43.4888136,32.7118644 L45.4101695,34.6264407 C46.3128814,33.7191525 47.3186441,32.9205085 48.4067797,32.2467797 Z" id="Shape"></path>
                    <path d="M59.5105085,62.1749153 L59.9349153,64.8515254 C61.4089831,64.6181356 62.850339,64.2116949 64.2291525,63.640678 L63.1864407,61.1349153 C62.0064407,61.6254237 60.7725424,61.9744068 59.5105085,62.1749153 Z" id="Shape"></path>
                    <path d="M41.1159322,42.3050847 L38.4759322,41.68 C38.1366102,43.1174576 37.9655932,44.5894915 37.9661017,46.0664407 L37.9661006,46.1016949 L40.6779661,46.0664407 C40.6772881,44.7998305 40.8242373,43.5376271 41.1159322,42.3050847 Z" id="Shape"></path>
                    <path d="M43.7613559,36.5681356 L41.5647458,34.9830508 C40.6905085,36.1915254 39.9623729,37.4991525 39.3952542,38.8786441 L41.9010169,39.9118644 C42.3874576,38.7279661 43.0118644,37.6055932 43.7613559,36.5681356 Z" id="Shape"></path>
                    <path d="M65.4576271,59.9742373 L66.8786441,62.279322 C68.1466102,61.500678 69.319322,60.5764407 70.3728814,59.5254237 L68.4542373,57.6081356 C67.5513559,58.5113559 66.5455932,59.3054237 65.4576271,59.9742373 Z" id="Shape"></path>
                    <path d="M40.88,48.6779661 L38.2020339,49.1050847 C38.4374576,50.579322 38.8471186,52.020339 39.4223729,53.3979661 L41.9254237,52.3538983 C41.4327119,51.1742373 41.0816949,49.940339 40.88,48.6779661 Z" id="Shape"></path>
                    <rect id="Rectangle-path" x="0" y="44.7457627" width="8.13559322" height="2.71186441"></rect>
                    <rect id="Rectangle-path" x="10.8474576" y="21.6949153" width="5.42372881" height="2.71186441"></rect>
                    <rect id="Rectangle-path" x="16.2711864" y="67.7966102" width="5.42372881" height="2.71186441"></rect>
                    <rect id="Rectangle-path" x="13.559322" y="56.9491525" width="2.71186441" height="2.71186441"></rect>
                    <rect id="Rectangle-path" x="5.42372881" y="56.9491525" width="5.42372881" height="2.71186441"></rect>
                    <rect id="Rectangle-path" x="13.559322" y="32.5423729" width="2.71186441" height="2.71186441"></rect>
                    <rect id="Rectangle-path" x="5.42372881" y="21.6949153" width="2.71186441" height="2.71186441"></rect>
                </g>
            </g>
        </g>
    </g>
</svg>