<?xml version="1.0" encoding="UTF-8"?>
<svg width="80px" height="80px" viewBox="0 0 80 80" version="1.1" xmlns="http://www.w3.org/2000/svg" xmlns:xlink="http://www.w3.org/1999/xlink">
    <!-- Generator: sketchtool 50 (54983) - http://www.bohemiancoding.com/sketch -->
    <title>6521E764-3840-4C03-88B8-BCCA6707B023</title>
    <desc>Created with sketchtool.</desc>
    <defs></defs>
    <g id="The-golden-fleece" stroke="none" stroke-width="1" fill="none" fill-rule="evenodd">
        <g id="All-Universes---Main" transform="translate(-222.000000, -613.000000)" fill="#558DFF" fill-rule="nonzero">
            <g id="крипто" transform="translate(129.000000, 613.000000)">
                <g id="exchange" transform="translate(93.000000, 0.000000)">
                    <path d="M57.5182482,40.2919708 C48.0043739,40.2919708 40.2919708,48.0043739 40.2919708,57.5182482 C40.2919708,67.0321224 48.0043739,74.7445255 57.5182482,74.7445255 C67.0321224,74.7445255 74.7445255,67.0321224 74.7445255,57.5182482 C74.7335935,48.0090118 67.0274846,40.3029029 57.5182482,40.2919708 Z M57.5182482,72.094329 C49.4681106,72.094329 42.9421673,65.5683857 42.9421673,57.5182482 C42.9421673,49.4681106 49.4681106,42.9421673 57.5182482,42.9421673 C65.5683857,42.9421673 72.094329,49.4681106 72.094329,57.5182482 C72.0848877,65.5644104 65.5644104,72.0848877 57.5182482,72.094329 Z" id="Shape"></path>
                    <path d="M65.9854015,52.2026163 C65.9854015,50.0007819 64.1553528,48.2158924 61.8978102,48.2158924 L60.5352798,48.2158924 L60.5352798,45.5580765 L57.810219,45.5580765 L57.810219,48.2158924 L56.4585888,48.2158924 L56.4803893,45.5687078 L53.7553285,45.5474453 L53.733528,48.2158924 L49.6350365,48.2158924 L49.6350365,50.8737084 L52.3600973,50.8737084 L52.3600973,64.162788 L49.6350365,64.162788 L49.6350365,66.8206039 L53.733528,66.8206039 L53.7553285,69.4890511 L56.4803893,69.4677886 L56.4585888,66.8206039 L57.810219,66.8206039 L57.810219,69.4784198 L60.5352798,69.4784198 L60.5352798,66.8206039 L61.8978102,66.8206039 C64.1553528,66.8206039 65.9854015,65.0357144 65.9854015,62.83388 L65.9854015,60.1760641 C65.9818248,59.1921739 65.6030414,58.2446625 64.9226277,57.5182482 C65.6030414,56.7918339 65.9818248,55.8443225 65.9854015,54.8604323 L65.9854015,52.2026163 Z M63.2603406,62.83388 C63.2603406,63.5677694 62.6502676,64.162788 61.8978102,64.162788 L55.0851582,64.162788 L55.0851582,58.8471561 L61.8978102,58.8471561 C62.6502676,58.8471561 63.2603406,59.4421747 63.2603406,60.1760641 L63.2603406,62.83388 Z M63.2603406,54.8604323 C63.2603406,55.5943217 62.6502676,56.1893402 61.8978102,56.1893402 L55.0851582,56.1893402 L55.0851582,50.8737084 L61.8978102,50.8737084 C62.6502676,50.8737084 63.2603406,51.4687269 63.2603406,52.2026163 L63.2603406,54.8604323 Z" id="Shape"></path>
                    <path d="M57.2262774,34.4525547 C44.6486518,34.4525547 34.4525547,44.6486518 34.4525547,57.2262774 C34.4525547,69.803903 44.6486518,80 57.2262774,80 C69.803903,80 80,69.803903 80,57.2262774 C79.9859339,44.6545127 69.7980421,34.4666209 57.2262774,34.4525547 Z M57.2262774,77.3207385 C46.1284414,77.3207385 37.1318162,68.3241134 37.1318162,57.2262774 C37.1318162,46.1284414 46.1284414,37.1318162 57.2262774,37.1318162 C68.3241134,37.1318162 77.3207385,46.1284414 77.3207385,57.2262774 C77.3081795,68.3189223 68.3189223,77.3081795 57.2262774,77.3207385 Z" id="Shape"></path>
                    <path d="M22.4817518,5.25547445 C12.9678776,5.25547445 5.25547445,12.9678776 5.25547445,22.4817518 C5.25547445,31.9956261 12.9678776,39.7080292 22.4817518,39.7080292 C31.9909882,39.6970971 39.6970971,31.9909882 39.7080292,22.4817518 C39.7080292,12.9678776 31.9956261,5.25547445 22.4817518,5.25547445 Z M22.4817518,37.0578327 C14.4355896,37.0483914 7.9151123,30.5279141 7.90567097,22.4817518 C7.90567097,14.4316143 14.4316143,7.90567097 22.4817518,7.90567097 C30.5318894,7.90567097 37.0578327,14.4316143 37.0578327,22.4817518 C37.0578327,30.5318894 30.5318894,37.0578327 22.4817518,37.0578327 Z" id="Shape"></path>
                    <path d="M22.7737226,0 C10.196097,0 0,10.196097 0,22.7737226 C0,35.3513482 10.196097,45.5474453 22.7737226,45.5474453 C35.3454873,45.5333791 45.5333791,35.3454873 45.5474453,22.7737226 C45.5474453,10.196097 35.3513482,0 22.7737226,0 Z M22.7737226,42.8681838 C11.6810777,42.8556247 2.69182052,33.8663675 2.67926149,22.7737226 C2.67926149,11.6758866 11.6758866,2.67926149 22.7737226,2.67926149 C33.8715586,2.67926149 42.8681838,11.6758866 42.8681838,22.7737226 C42.8681838,33.8715586 33.8715586,42.8681838 22.7737226,42.8681838 Z" id="Shape"></path>
                    <path d="M23.0656934,21.1516626 C20.8818686,21.1516626 19.0364964,19.9333009 19.0364964,18.4914842 C19.0364964,17.0496675 20.8818686,15.8313058 23.0656934,15.8313058 C25.2495182,15.8313058 27.0948905,17.0496675 27.0948905,18.4914842 C27.0948905,19.226026 27.6962482,19.8215734 28.4379562,19.8215734 C29.1796642,19.8215734 29.7810219,19.226026 29.7810219,18.4914842 C29.7810219,15.9217518 27.4696058,13.7736577 24.4087591,13.2788646 L24.4087591,10.5109489 L21.7226277,10.5109489 L21.7226277,13.2788646 C18.661781,13.7736577 16.350365,15.9217518 16.350365,18.4914842 C16.350365,21.425661 19.3628613,23.811841 23.0656934,23.811841 C25.2495182,23.811841 27.0948905,25.0302028 27.0948905,26.4720195 C27.0948905,27.9138362 25.2495182,29.1321979 23.0656934,29.1321979 C20.8818686,29.1321979 19.0364964,27.9138362 19.0364964,26.4720195 C19.0364964,25.7374777 18.4351387,25.1419303 17.6934307,25.1419303 C16.9517226,25.1419303 16.350365,25.7374777 16.350365,26.4720195 C16.350365,29.0417518 18.661781,31.1898459 21.7226277,31.6846391 L21.7226277,34.4525547 L24.4087591,34.4525547 L24.4087591,31.6846391 C27.4696058,31.1898459 29.7810219,29.0417518 29.7810219,26.4720195 C29.7810219,23.5378427 26.7685255,21.1516626 23.0656934,21.1516626 Z" id="Shape"></path>
                    <path d="M57.5199626,13.3779705 L51.312688,13.3779705 L54.7438789,10.0376489 L52.8299918,8.17518248 L46.1313869,14.695132 L52.8299918,21.2150815 L54.7438789,19.3526151 L51.312688,16.0122935 L57.5199626,16.0122935 C64.2446229,16.0195379 69.6942608,21.3227595 69.7017052,27.8667472 L69.7017052,34.4525547 L72.4087591,34.4525547 L72.4087591,27.8667472 C72.3991152,19.8687778 65.7387475,13.3873552 57.5199626,13.3779705 Z" id="Shape" opacity="0.5"></path>
                    <path d="M26.1091727,58.7849185 L24.2258707,60.6473849 L27.602229,63.9877065 L22.8260471,63.9877065 C16.2088509,63.9804621 10.8463015,58.6772405 10.8389761,52.1332528 L10.8389761,45.5474453 L8.17518248,45.5474453 L8.17518248,52.1332528 C8.18467225,60.1312222 14.7386034,66.6126448 22.8260471,66.6220295 L27.602229,66.6220295 L24.2258707,69.9623511 L26.1091727,71.8248175 L32.7007299,65.304868 L26.1091727,58.7849185 Z" id="Shape" opacity="0.5"></path>
                </g>
            </g>
        </g>
    </g>
</svg>