<?xml version="1.0" encoding="UTF-8"?>
<svg width="100px" height="80px" viewBox="0 0 100 80" version="1.1" xmlns="http://www.w3.org/2000/svg" xmlns:xlink="http://www.w3.org/1999/xlink">
    <!-- Generator: sketchtool 50 (54983) - http://www.bohemiancoding.com/sketch -->
    <title>58D966B7-D15D-473A-A688-1121EF277B90</title>
    <desc>Created with sketchtool.</desc>
    <defs></defs>
    <g id="The-golden-fleece" stroke="none" stroke-width="1" fill="none" fill-rule="evenodd">
        <g id="All-Universes---Main" transform="translate(-650.000000, -2277.000000)" fill="#558DFF" fill-rule="nonzero">
            <g id="Group-2-Copy-6" transform="translate(520.000000, 2277.000000)">
                <g id="bitcoin-(4)" transform="translate(130.000000, 0.000000)">
                    <path d="M98.3333333,66.6666667 L96.6666667,66.6666667 L96.6666667,8.33333333 C96.66125,3.73333333 92.9333333,0.00541666667 88.3333333,0 L11.6666667,0 C7.06666667,0.00541666667 3.33875,3.73333333 3.33333333,8.33333333 L3.33333333,66.6666667 L1.66666667,66.6666667 C0.74625,66.6666667 0,67.4129167 0,68.3333333 L0,71.6666667 C0.00541666667,76.2666667 3.73333333,79.9945833 8.33333333,80 L91.6666667,80 C96.2666667,79.9945833 99.9945833,76.2666667 100,71.6666667 L100,68.3333333 C100,67.4129167 99.25375,66.6666667 98.3333333,66.6666667 Z M11.6666667,3.33333333 L88.3333333,3.33333333 C90.4445833,3.34208333 92.3229167,4.67604167 93.0266667,6.66666667 L6.97333333,6.66666667 C7.67708333,4.67604167 9.55541667,3.34208333 11.6666667,3.33333333 Z M6.66666667,10 L93.3333333,10 L93.3333333,60 L6.66666667,60 L6.66666667,10 Z M6.66666667,63.3333333 L93.3333333,63.3333333 L93.3333333,66.6666667 L6.66666667,66.6666667 L6.66666667,63.3333333 Z M96.6666667,71.6666667 C96.6666667,74.428125 94.428125,76.6666667 91.6666667,76.6666667 L8.33333333,76.6666667 C5.571875,76.6666667 3.33333333,74.428125 3.33333333,71.6666667 L3.33333333,70 L96.6666667,70 L96.6666667,71.6666667 Z" id="Shape"></path>
                    <path d="M33.7,35 C34.5322917,34.0889583 34.995625,32.900625 35,31.6666667 C35,28.9052083 32.7614583,26.6666667 30,26.6666667 L28.3333333,26.6666667 L28.3333333,25 L25,25 L25,26.6666667 L20,26.6666667 L20,30 L21.6666667,30 L21.6666667,40 L20,40 L20,43.3333333 L25,43.3333333 L25,45 L28.3333333,45 L28.3333333,43.3333333 L30,43.3333333 C32.749375,43.3454167 34.988125,41.1264583 35.0004167,38.3770833 C35.0058333,37.128125 34.5416667,35.9227083 33.7,35 Z M30,40 L25,40 L25,36.6666667 L30,36.6666667 C30.9204167,36.6666667 31.6666667,37.4129167 31.6666667,38.3333333 C31.6666667,39.25375 30.9204167,40 30,40 Z M30,33.3333333 L25,33.3333333 L25,30 L30,30 C30.9204167,30 31.6666667,30.74625 31.6666667,31.6666667 C31.6666667,32.5870833 30.9204167,33.3333333 30,33.3333333 Z" id="Shape"></path>
                    <path d="M83.3539583,46.9527083 C81.93,47.4560417 80.81,48.57625 80.3066667,50 L44.0233333,50 L39.5633333,45.54 C40.5254167,44.3627083 41.3220833,43.0595833 41.9316667,41.6666667 L65.3066667,41.6666667 C66.2270833,44.2702083 69.0839583,45.6345833 71.6872917,44.7139583 C74.290625,43.7933333 75.6552083,40.9366667 74.7345833,38.3333333 C73.8141667,35.7297917 70.9572917,34.3654167 68.3539583,35.2860417 C66.93,35.789375 65.81,36.9095833 65.3066667,38.3333333 L43,38.3333333 C43.565,35.5639583 43.4164583,32.69625 42.5683333,30 L55.31,30 C56.2304167,32.6035417 59.0872917,33.9679167 61.690625,33.0472917 C64.2941667,32.126875 65.6585417,29.27 64.7379167,26.6666667 C63.8175,24.063125 60.960625,22.69875 58.3572917,23.619375 C56.9333333,24.1227083 55.8133333,25.2429167 55.31,26.6666667 L41.0783333,26.6666667 C40.8283333,26.2366667 40.5633333,25.8183333 40.2766667,25.4133333 L45.69,20 L80.3066667,20 C81.2270833,22.6035417 84.0839583,23.9679167 86.6872917,23.0472917 C89.2908333,22.126875 90.6552083,19.27 89.7345833,16.6666667 C88.8141667,14.063125 85.9572917,12.69875 83.3539583,13.619375 C81.93,14.1227083 80.81,15.2429167 80.3066667,16.6666667 L45,16.6666667 C44.5579167,16.6666667 44.1341667,16.8425 43.8216667,17.155 L38.085,22.8916667 C31.395,16.569375 20.8464583,16.8672917 14.5241667,23.5572917 C8.201875,30.2472917 8.49979167,40.7958333 15.1897917,47.118125 C21.2879167,52.8810417 30.7191667,53.2125 37.2066667,47.8916667 L42.155,52.84 C42.4666667,53.154375 42.890625,53.331875 43.3333333,53.3333333 L80.3066667,53.3333333 C81.2270833,55.936875 84.0839583,57.30125 86.6872917,56.380625 C89.290625,55.46 90.6552083,52.6033333 89.7345833,50 C88.814375,47.3964583 85.9575,46.0320833 83.3539583,46.9527083 Z M70,38.3333333 C70.9204167,38.3333333 71.6666667,39.0795833 71.6666667,40 C71.6666667,40.9204167 70.9204167,41.6666667 70,41.6666667 C69.0795833,41.6666667 68.3333333,40.9204167 68.3333333,40 C68.3333333,39.0795833 69.0795833,38.3333333 70,38.3333333 Z M60,26.6666667 C60.9204167,26.6666667 61.6666667,27.4129167 61.6666667,28.3333333 C61.6666667,29.25375 60.9204167,30 60,30 C59.0795833,30 58.3333333,29.25375 58.3333333,28.3333333 C58.3333333,27.4129167 59.0795833,26.6666667 60,26.6666667 Z M85,16.6666667 C85.9204167,16.6666667 86.6666667,17.4129167 86.6666667,18.3333333 C86.6666667,19.25375 85.9204167,20 85,20 C84.0795833,20 83.3333333,19.25375 83.3333333,18.3333333 C83.3333333,17.4129167 84.0795833,16.6666667 85,16.6666667 Z M36.1516667,44.3566667 C36.1283333,44.3766667 36.0966667,44.385 36.075,44.4083333 C36.0533333,44.4316667 36.0433333,44.4616667 36.0233333,44.485 C30.7904167,49.658125 22.3545833,49.6095833 17.1816667,44.3766667 C14.71375,41.88 13.330625,38.5104167 13.3333333,35 C13.3254167,27.63625 19.28875,21.6604167 26.6525,21.6525 C34.01625,21.6445833 39.9920833,27.6079167 40,34.9716667 C40.00375,38.4847917 38.6208333,41.8575 36.1516667,44.3566667 Z M85,53.3333333 C84.0795833,53.3333333 83.3333333,52.5870833 83.3333333,51.6666667 C83.3333333,50.74625 84.0795833,50 85,50 C85.9204167,50 86.6666667,50.74625 86.6666667,51.6666667 C86.6666667,52.5870833 85.9204167,53.3333333 85,53.3333333 Z" id="Shape"></path>
                </g>
            </g>
        </g>
    </g>
</svg>