<?xml version="1.0" encoding="UTF-8"?>
<svg width="70px" height="80px" viewBox="0 0 70 80" version="1.1" xmlns="http://www.w3.org/2000/svg" xmlns:xlink="http://www.w3.org/1999/xlink">
    <!-- Generator: sketchtool 50 (54983) - http://www.bohemiancoding.com/sketch -->
    <title>90212A9F-F466-4F0C-84D4-760572273DF1</title>
    <desc>Created with sketchtool.</desc>
    <defs></defs>
    <g id="The-golden-fleece" stroke="none" stroke-width="1" fill="none" fill-rule="evenodd">
        <g id="All-Universes---Main" transform="translate(-1105.000000, -615.000000)" fill="#558DFF" fill-rule="nonzero">
            <g id="Group-2-Copy-2" transform="translate(1015.000000, 615.000000)">
                <g id="bitcoin" transform="translate(90.000000, 0.000000)">
                    <path d="M69.1825364,78.3421206 L61.1991684,17.1362994 C61.1130146,16.4736798 60.5486902,15.9778794 59.8805821,15.9773805 L51.8293555,15.9773805 C51.1095218,6.4610395 42.8114761,-0.66977131 33.2951351,0.0500623701 C24.7798753,0.694220374 18.0119751,7.46195426 17.367817,15.9773805 L9.31925156,15.9773805 C8.65114345,15.9778794 8.08681913,16.4736798 8.00066528,17.1362994 L0.0172972973,78.3421206 C-0.0775051975,79.0707692 0.436424116,79.7383784 1.16507277,79.8331809 C1.22162162,79.840499 1.27866944,79.8443243 1.33588358,79.8443243 L67.8639501,79.8443243 C68.5987526,79.8438254 69.1941788,79.2477339 69.1936798,78.5129314 C69.1936798,78.4557173 69.1900208,78.3986694 69.1825364,78.3421206 Z M34.5999168,2.67176715 C42.1624948,2.68174636 48.4745114,8.44673597 49.1682328,15.9773805 L20.0289397,15.9773805 C20.7228274,8.44573805 27.036341,2.6804158 34.5999168,2.67176715 Z M2.85139293,77.1832017 L10.4874844,18.6385031 L17.3026195,18.6385031 L17.3026195,23.9607484 L14.6414969,23.9607484 C13.9066944,23.9607484 13.3109356,24.5565073 13.3109356,25.2913098 C13.3109356,26.0261123 13.9066944,26.6218711 14.6414969,26.6218711 L22.6248649,26.6218711 C23.3596674,26.6218711 23.9554262,26.0261123 23.9554262,25.2913098 C23.9554262,24.5565073 23.3596674,23.9607484 22.6248649,23.9607484 L19.9637422,23.9607484 L19.9637422,18.6385031 L49.2360915,18.6385031 L49.2360915,23.9607484 L46.5749688,23.9607484 C45.8401663,23.9607484 45.2444075,24.5565073 45.2444075,25.2913098 C45.2444075,26.0261123 45.8401663,26.6218711 46.5749688,26.6218711 L54.5583368,26.6218711 C55.2931393,26.6218711 55.8888981,26.0261123 55.8888981,25.2913098 C55.8888981,24.5565073 55.2931393,23.9607484 54.5583368,23.9607484 L51.8972141,23.9607484 L51.8972141,18.6385031 L58.7123493,18.6385031 L66.3484407,77.1832017 L2.85139293,77.1832017 Z" id="Shape"></path>
                    <path d="M41.4004158,48.5548441 C43.2375884,46.2982121 42.8976299,42.9792931 40.6408316,41.1421206 C40.0412474,40.6539709 39.3417048,40.3038669 38.5916008,40.1164241 L38.5916008,38.5969231 C38.5916008,37.8621206 37.995842,37.2663617 37.2610395,37.2663617 C36.526237,37.2663617 35.9304782,37.8621206 35.9304782,38.5969231 L35.9304782,39.9274844 L34.5999168,39.9274844 L34.5999168,38.5969231 C34.5999168,37.8621206 34.004158,37.2663617 33.2693555,37.2663617 C32.534553,37.2663617 31.9387942,37.8621206 31.9387942,38.5969231 L31.9387942,39.9274844 L27.9471102,39.9274844 C27.2123077,39.9274844 26.6165489,40.5232432 26.6165489,41.2580457 C26.6165489,41.9928482 27.2123077,42.5886071 27.9471102,42.5886071 L29.2776715,42.5886071 L29.2776715,58.555343 L27.9471102,58.555343 C27.2123077,58.555343 26.6165489,59.1511019 26.6165489,59.8859044 C26.6165489,60.6207069 27.2123077,61.2164657 27.9471102,61.2164657 L31.9387942,61.2164657 L31.9387942,62.547027 C31.9387942,63.2818295 32.534553,63.8775884 33.2693555,63.8775884 C34.004158,63.8775884 34.5999168,63.2818295 34.5999168,62.547027 L34.5999168,61.2164657 L35.9304782,61.2164657 L35.9304782,62.547027 C35.9304782,63.2818295 36.526237,63.8775884 37.2610395,63.8775884 C37.995842,63.8775884 38.5916008,63.2818295 38.5916008,62.547027 L38.5916008,61.2164657 C42.2584615,61.2236175 45.2369231,58.2567983 45.2440748,54.5899376 C45.2490644,52.0008316 43.7486902,49.6450728 41.4004158,48.5548441 Z M31.9387942,42.5886071 L37.2610395,42.5886071 C38.7308108,42.5886071 39.9221622,43.7799584 39.9221622,45.2497297 C39.9221622,46.719501 38.7308108,47.9108524 37.2610395,47.9108524 L31.9387942,47.9108524 L31.9387942,42.5886071 Z M38.5916008,58.555343 L31.9387942,58.555343 L31.9387942,50.5719751 L38.5916008,50.5719751 C40.7961746,50.5719751 42.5832848,52.3590852 42.5832848,54.563659 C42.5832848,56.7682328 40.7961746,58.555343 38.5916008,58.555343 Z" id="Shape"></path>
                    <path d="M34.5999168,29.2829938 C22.8424116,29.2829938 13.3109356,38.8144699 13.3109356,50.5719751 C13.3109356,62.3294802 22.8424116,71.8609563 34.5999168,71.8609563 C46.357422,71.8609563 55.8888981,62.3294802 55.8888981,50.5719751 C55.8750936,38.8201247 46.3517672,29.2969647 34.5999168,29.2829938 Z M34.5999168,69.1998337 C24.3120166,69.1998337 15.9720582,60.8598753 15.9720582,50.5719751 C15.9720582,40.2840748 24.3120166,31.9441164 34.5999168,31.9441164 C44.887817,31.9441164 53.2277755,40.2840748 53.2277755,50.5719751 C53.2167983,60.8552183 44.8833264,69.1888565 34.5999168,69.1998337 Z" id="Shape"></path>
                </g>
            </g>
        </g>
    </g>
</svg>