<?xml version="1.0" encoding="UTF-8"?>
<svg width="85px" height="80px" viewBox="0 0 85 80" version="1.1" xmlns="http://www.w3.org/2000/svg" xmlns:xlink="http://www.w3.org/1999/xlink">
    <!-- Generator: sketchtool 50 (54983) - http://www.bohemiancoding.com/sketch -->
    <title>02219CD1-5E16-4017-A1DE-AD506838F040</title>
    <desc>Created with sketchtool.</desc>
    <defs></defs>
    <g id="The-golden-fleece" stroke="none" stroke-width="1" fill="none" fill-rule="evenodd">
        <g id="All-Universes---Main" transform="translate(-658.000000, -2861.000000)" fill="#558DFF" fill-rule="nonzero">
            <g id="Group-2-Copy-9" transform="translate(520.000000, 2861.000000)">
                <g id="computer" transform="translate(138.000000, 0.000000)">
                    <path d="M82.8070175,0 L1.40350877,0 C0.628421053,0 0,0.628421053 0,1.40350877 L0,65.9649123 C0,66.74 0.628421053,67.3684211 1.40350877,67.3684211 L32.4659649,67.3684211 L27.2659649,75.1691228 C26.3133333,76.595614 26.6975439,78.524386 28.1240351,79.4770175 C28.6352632,79.8184211 29.2364912,80.0005263 29.8512281,80 L54.3592982,80 C56.0747368,80.0012281 57.4663158,78.6117544 57.4675439,76.8963158 C57.4680702,76.2815789 57.2859649,75.6803509 56.9445614,75.1691228 L51.7445614,67.3684211 L82.8070175,67.3684211 C83.5821053,67.3684211 84.2105263,66.74 84.2105263,65.9649123 L84.2105263,1.40350877 C84.2105263,0.628421053 83.5821053,0 82.8070175,0 Z M54.6091228,76.725614 C54.7014035,76.8635088 54.664386,77.05 54.5264912,77.1422807 C54.4770175,77.1754386 54.4187719,77.1929825 54.3592982,77.1929825 L29.8512281,77.1929825 C29.6854386,77.1931579 29.5508772,77.0587719 29.5507018,76.892807 C29.5507018,76.8333333 29.5682456,76.7750877 29.6014035,76.725614 L35.8385965,67.3684211 L48.3719298,67.3684211 L54.6091228,76.725614 Z M81.4035088,64.5614035 L2.80701754,64.5614035 L2.80701754,57.5438596 L81.4035088,57.5438596 L81.4035088,64.5614035 Z M81.4035088,54.7368421 L2.80701754,54.7368421 L2.80701754,2.80701754 L81.4035088,2.80701754 L81.4035088,54.7368421 Z" id="Shape"></path>
                    <path d="M77.1929825,19.6491228 C76.4178947,19.6491228 75.7894737,20.2775439 75.7894737,21.0526316 L75.7894737,30.2961404 L65.3838596,40.7017544 L60.1361404,40.7017544 C60.2791228,39.7729825 60.3508772,38.8345614 60.3508772,37.8947368 C60.3508772,37.4203509 60.3157895,36.9557895 60.2792982,36.4912281 L63.1578947,36.4912281 C63.5301754,36.4912281 63.8870175,36.3431579 64.1501754,36.08 L72.5712281,27.6589474 C72.834386,27.3957895 72.9824561,27.0389474 72.9824561,26.6666667 L72.9824561,16.5838596 C75.1749123,15.8087719 76.3238596,13.4029825 75.5485965,11.2107018 C74.7733333,9.01842105 72.3678947,7.86929825 70.1754386,8.64438596 C67.9829825,9.41947368 66.8340351,11.8252632 67.6092982,14.0175439 C68.0331579,15.2166667 68.9764912,16.1598246 70.1754386,16.5836842 L70.1754386,26.0854386 L62.5768421,33.6842105 L59.8414035,33.6842105 C59.3778947,31.7336842 58.5938596,29.8735088 57.5214035,28.1796491 C57.5214035,28.1417544 57.5438596,28.1094737 57.5438596,28.0701754 L57.5438596,15.4385965 C57.5438596,14.6635088 56.9154386,14.0350877 56.1403509,14.0350877 C55.3652632,14.0350877 54.7368421,14.6635088 54.7368421,15.4385965 L54.7368421,24.7592982 C53.4464912,23.5170175 51.9805263,22.4708772 50.3859649,21.6547368 C50.4777193,21.467193 50.525614,21.2614035 50.5263158,21.0526316 L50.5263158,7.01754386 C50.5263158,6.24245614 49.8978947,5.61403509 49.122807,5.61403509 C48.3477193,5.61403509 47.7192982,6.24245614 47.7192982,7.01754386 L47.7192982,20.5417544 C46.3533333,20.1021053 44.9398246,19.8264912 43.5087719,19.7207018 L43.5087719,11.2280702 C43.5087719,10.4529825 42.8803509,9.8245614 42.1052632,9.8245614 C41.3301754,9.8245614 40.7017544,10.4529825 40.7017544,11.2280702 L40.7017544,19.7207018 C39.2707018,19.8264912 37.857193,20.1021053 36.4912281,20.5417544 L36.4912281,8.42105263 C36.4912281,7.64596491 35.862807,7.01754386 35.0877193,7.01754386 C34.3126316,7.01754386 33.6842105,7.64596491 33.6842105,8.42105263 L33.6842105,21.7249123 C32.694386,22.2454386 31.7547368,22.8563158 30.877193,23.5494737 L30.877193,18.245614 C30.877193,17.4705263 30.2487719,16.8421053 29.4736842,16.8421053 C28.6985965,16.8421053 28.0701754,17.4705263 28.0701754,18.245614 L28.0701754,26.245614 C27.4547368,26.995614 26.9,27.7935088 26.4112281,28.6315789 L22.4561404,24.6821053 L22.4561404,15.4385965 C22.4561404,15.0663158 22.3080702,14.7094737 22.0449123,14.4463158 L16.4308772,8.8322807 C15.8733333,8.29385965 14.9847368,8.30929825 14.4463158,8.86684211 C13.9210526,9.41070175 13.9210526,10.2729825 14.4463158,10.8168421 L19.6491228,16.0196491 L19.6491228,25.2631579 C19.6491228,25.6354386 19.797193,25.9922807 20.0603509,26.2554386 L25.1129825,31.3080702 C24.8114035,32.0854386 24.5638596,32.8826316 24.3719298,33.6940351 L18.9964912,33.6940351 L17.1368421,30.8940351 C18.8501754,29.1003509 18.7849123,26.2573684 16.9912281,24.5442105 C15.1975439,22.8308772 12.3545614,22.8961404 10.6414035,24.6898246 C8.92824561,26.4835088 8.99333333,29.3264912 10.7870175,31.0396491 C11.814386,32.0208772 13.2452632,32.4582456 14.645614,32.2189474 L17.0778947,35.8680702 C17.3385965,36.2577193 17.7766667,36.4915789 18.245614,36.4912281 L23.9312281,36.4912281 C23.8947368,36.9557895 23.8596491,37.4203509 23.8596491,37.8947368 C23.8596491,38.3691228 23.8778947,38.8336842 23.914386,39.2982456 L14.0350877,39.2982456 C13.952807,39.3066667 13.8714035,39.3231579 13.7922807,39.3473684 C13.0396491,37.1521053 10.6498246,35.9826316 8.4545614,36.7352632 C6.25929825,37.4878947 5.08964912,39.8777193 5.84245614,42.0729825 C6.4254386,43.7740351 8.02631579,44.9154386 9.8245614,44.9122807 C11.6210526,44.9042105 13.214386,43.757193 13.7922807,42.0561404 C13.8714035,42.0803509 13.952807,42.0968421 14.0350877,42.1052632 L24.3466667,42.1052632 C24.6942105,43.5691228 25.2236842,44.9836842 25.922807,46.3157895 L15.4385965,46.3157895 C14.6635088,46.3157895 14.0350877,46.9442105 14.0350877,47.7192982 C14.0350877,48.494386 14.6635088,49.122807 15.4385965,49.122807 L68.7719298,49.122807 C69.5470175,49.122807 70.1754386,48.494386 70.1754386,47.7192982 C70.1754386,46.9442105 69.5470175,46.3157895 68.7719298,46.3157895 L58.2877193,46.3157895 C58.7612281,45.4152632 59.1573684,44.4763158 59.4722807,43.5087719 L65.9649123,43.5087719 C66.337193,43.5087719 66.6940351,43.3607018 66.957193,43.0975439 L78.1852632,31.8694737 C78.4484211,31.6063158 78.5964912,31.2494737 78.5964912,30.877193 L78.5964912,21.0526316 C78.5964912,20.2775439 77.9680702,19.6491228 77.1929825,19.6491228 Z M71.5789474,11.2280702 C72.3540351,11.2280702 72.9824561,11.8564912 72.9824561,12.6315789 C72.9824561,13.4066667 72.3540351,14.0350877 71.5789474,14.0350877 C70.8038596,14.0350877 70.1754386,13.4066667 70.1754386,12.6315789 C70.1754386,11.8564912 70.8038596,11.2280702 71.5789474,11.2280702 Z M14.0350877,29.4736842 C13.26,29.4736842 12.6315789,28.8452632 12.6315789,28.0701754 C12.6315789,27.2950877 13.26,26.6666667 14.0350877,26.6666667 C14.8101754,26.6666667 15.4385965,27.2950877 15.4385965,28.0701754 C15.4385965,28.8452632 14.8101754,29.4736842 14.0350877,29.4736842 Z M9.8245614,42.1052632 C9.04947368,42.1052632 8.42105263,41.4768421 8.42105263,40.7017544 C8.42105263,39.9266667 9.04947368,39.2982456 9.8245614,39.2982456 C10.5996491,39.2982456 11.2280702,39.9266667 11.2280702,40.7017544 C11.2280702,41.4768421 10.5996491,42.1052632 9.8245614,42.1052632 Z M44.7424561,37.2421053 C45.7663158,36.2614035 47.3912281,36.2963158 48.3719298,37.3201754 C49.3229825,38.3129825 49.3229825,39.8787719 48.3719298,40.8715789 L43.5087719,45.7347368 L39.8792982,42.1052632 L44.7424561,37.2421053 Z M37.8947368,40.1207018 L34.2652632,36.4912281 L39.1284211,31.6280702 C40.1522807,30.6473684 41.777193,30.6822807 42.7578947,31.7059649 C43.7089474,32.6987719 43.7089474,34.2647368 42.7578947,35.2575439 L37.8947368,40.1207018 Z M55.0484211,46.3157895 L46.8968421,46.3157895 L50.3564912,42.8561404 C52.4547368,40.7580702 52.4550877,37.3563158 50.3570175,35.2580702 C49.3492982,34.2501754 47.9824561,33.6840351 46.557193,33.6842105 C46.4659649,33.6842105 46.3803509,33.7052632 46.2891228,33.7108772 C46.2891228,33.6196491 46.3157895,33.5340351 46.3157895,33.442807 C46.3161404,30.475614 43.9108772,28.07 40.9436842,28.0696491 C39.5184211,28.0694737 38.1515789,28.635614 37.1438596,29.6435088 L31.2884211,35.4989474 C30.7405263,36.0470175 30.7405263,36.9354386 31.2884211,37.4835088 L36.9024561,43.0975439 L40.1207018,46.3157895 L29.1621053,46.3157895 C24.5112281,39.1694737 26.534386,29.6057895 33.6807018,24.9550877 C36.1875439,23.3236842 39.1142105,22.455614 42.1052632,22.4561404 C50.6317544,22.4542105 57.5454386,29.3647368 57.5473684,37.8912281 C57.5478947,40.8822807 56.6798246,43.8089474 55.0484211,46.3157895 Z" id="Shape"></path>
                    <path d="M29.4736842,9.8245614 C28.6985965,9.8245614 28.0701754,10.4529825 28.0701754,11.2280702 L28.0701754,12.6315789 C28.0701754,13.4066667 28.6985965,14.0350877 29.4736842,14.0350877 C30.2487719,14.0350877 30.877193,13.4066667 30.877193,12.6315789 L30.877193,11.2280702 C30.877193,10.4529825 30.2487719,9.8245614 29.4736842,9.8245614 Z" id="Shape"></path>
                </g>
            </g>
        </g>
    </g>
</svg>