<?xml version="1.0" encoding="UTF-8"?>
<svg width="82px" height="80px" viewBox="0 0 82 80" version="1.1" xmlns="http://www.w3.org/2000/svg" xmlns:xlink="http://www.w3.org/1999/xlink">
    <!-- Generator: sketchtool 50 (54983) - http://www.bohemiancoding.com/sketch -->
    <title>4C2A921F-3686-4814-8BA6-D358EAE86155</title>
    <desc>Created with sketchtool.</desc>
    <defs></defs>
    <g id="The-golden-fleece" stroke="none" stroke-width="1" fill="none" fill-rule="evenodd">
        <g id="All-Universes---Main" transform="translate(-1049.000000, -2631.000000)" fill="#558DFF" fill-rule="nonzero">
            <g id="Group-2-Copy-11" transform="translate(940.000000, 2631.000000)">
                <g id="money-(1)" transform="translate(109.000000, 0.000000)">
                    <path d="M58.1734719,40.0445738 C48.6203742,40.0445738 40.8761746,47.7887734 40.8761746,57.3418711 C40.8761746,66.8949688 48.6203742,74.6391684 58.1734719,74.6391684 C67.7265696,74.6391684 75.4707692,66.8949688 75.4707692,57.3418711 C75.4597921,47.7934304 67.7219127,40.0555509 58.1734719,40.0445738 Z M58.1734719,71.9780457 C50.0901455,71.9780457 43.5372973,65.4251975 43.5372973,57.3418711 C43.5372973,49.2585447 50.0901455,42.7056965 58.1734719,42.7056965 C66.2567983,42.7056965 72.8096466,49.2585447 72.8096466,57.3418711 C72.8001663,65.4212058 66.2528067,71.9685655 58.1734719,71.9780457 Z" id="Shape"></path>
                    <path d="M62.1651559,48.0279418 L60.8345946,48.0279418 L60.8345946,45.3668191 L58.1734719,45.3668191 L58.1734719,48.0279418 L56.8535551,48.0279418 L56.8748441,45.3774636 L54.2137214,45.3561746 L54.1924324,48.0279418 L50.190104,48.0279418 L50.190104,50.6890644 L52.8512266,50.6890644 L52.8512266,63.9946778 L50.190104,63.9946778 L50.190104,66.6558004 L54.1924324,66.6558004 L54.2137214,69.3275676 L56.8748441,69.3062786 L56.8535551,66.6558004 L58.1734719,66.6558004 L58.1734719,69.3169231 L60.8345946,69.3169231 L60.8345946,66.6558004 L62.1651559,66.6558004 C64.3697297,66.6558004 66.1568399,64.8686902 66.1568399,62.6641164 L66.1568399,60.0029938 C66.1533472,59.0178794 65.7834511,58.0691892 65.1190021,57.3418711 C65.7834511,56.614553 66.1533472,55.6658628 66.1568399,54.6807484 L66.1568399,52.0196258 C66.1568399,49.815052 64.3697297,48.0279418 62.1651559,48.0279418 Z M63.4957173,62.6641164 C63.4957173,63.3989189 62.8999584,63.9946778 62.1651559,63.9946778 L55.5123493,63.9946778 L55.5123493,58.6724324 L62.1651559,58.6724324 C62.8999584,58.6724324 63.4957173,59.2681913 63.4957173,60.0029938 L63.4957173,62.6641164 Z M63.4957173,54.6807484 C63.4957173,55.4155509 62.8999584,56.0113098 62.1651559,56.0113098 L55.5123493,56.0113098 L55.5123493,50.6890644 L62.1651559,50.6890644 C62.8999584,50.6890644 63.4957173,51.2848233 63.4957173,52.0196258 L63.4957173,54.6807484 Z" id="Shape"></path>
                    <path d="M58.1734719,34.7223285 C45.6809979,34.7223285 35.5539293,44.8493971 35.5539293,57.3418711 C35.5539293,69.8343451 45.6809979,79.9614137 58.1734719,79.9614137 C70.6659459,79.9614137 80.7930146,69.8343451 80.7930146,57.3418711 C80.7790437,44.8552183 70.6601247,34.7362994 58.1734719,34.7223285 Z M58.1734719,77.3002911 C47.1507692,77.3002911 38.215052,68.3645738 38.215052,57.3418711 C38.215052,46.3191684 47.1507692,37.3834511 58.1734719,37.3834511 C69.1961746,37.3834511 78.1318919,46.3191684 78.1318919,57.3418711 C78.1194179,68.3594179 69.1910187,77.287817 58.1734719,77.3002911 Z" id="Shape"></path>
                    <path d="M23.5788773,40.0445738 C33.1319751,40.0445738 40.8761746,32.3003742 40.8761746,22.7472765 C40.8761746,13.1941788 33.1319751,5.44997921 23.5788773,5.44997921 C14.0257796,5.44997921 6.28158004,13.1941788 6.28158004,22.7472765 C6.29255717,32.2957173 14.0304366,40.0335967 23.5788773,40.0445738 Z M23.5788773,8.11110187 C31.6622037,8.11110187 38.215052,14.6639501 38.215052,22.7472765 C38.215052,30.8306029 31.6622037,37.3834511 23.5788773,37.3834511 C15.4955509,37.3834511 8.9427027,30.8306029 8.9427027,22.7472765 C8.95218295,14.6679418 15.4995426,8.12058212 23.5788773,8.11110187 Z" id="Shape"></path>
                    <path d="M23.5788773,45.3668191 C36.0713514,45.3668191 46.19842,35.2397505 46.19842,22.7472765 C46.19842,10.2548025 36.0713514,0.127733888 23.5788773,0.127733888 C11.0864033,0.127733888 0.959334719,10.2548025 0.959334719,22.7472765 C0.973305613,35.2339293 11.0922245,45.3528482 23.5788773,45.3668191 Z M23.5788773,2.78885655 C34.60158,2.78885655 43.5372973,11.7245738 43.5372973,22.7472765 C43.5372973,33.7699792 34.60158,42.7056965 23.5788773,42.7056965 C12.5561746,42.7056965 3.62045738,33.7699792 3.62045738,22.7472765 C3.63293139,11.7297297 12.5613306,2.80133056 23.5788773,2.78885655 Z" id="Shape"></path>
                    <path d="M23.5788773,29.4000832 C21.4153846,29.4000832 19.5871933,28.181289 19.5871933,26.7389605 C19.5871933,26.004158 18.9914345,25.4083992 18.256632,25.4083992 C17.5218295,25.4083992 16.9260707,26.004158 16.9260707,26.7389605 C16.9260707,29.309605 19.2159667,31.4584615 22.248316,31.9534304 L22.248316,34.7223285 L24.9094387,34.7223285 L24.9094387,31.9534304 C27.9417879,31.4584615 30.231684,29.309605 30.231684,26.7389605 C30.231684,23.8037422 27.2472349,21.4167152 23.5788773,21.4167152 C21.4153846,21.4167152 19.5871933,20.197921 19.5871933,18.7555925 C19.5871933,17.313264 21.4153846,16.0944699 23.5788773,16.0944699 C25.7423701,16.0944699 27.5705613,17.313264 27.5705613,18.7555925 C27.5705613,19.490395 28.1663202,20.0861538 28.9011227,20.0861538 C29.6359252,20.0861538 30.231684,19.490395 30.231684,18.7555925 C30.231684,16.184948 27.9417879,14.0360915 24.9094387,13.5411227 L24.9094387,10.7722245 L22.248316,10.7722245 L22.248316,13.5411227 C19.2159667,14.0360915 16.9260707,16.184948 16.9260707,18.7555925 C16.9260707,21.6908108 19.9105198,24.0778378 23.5788773,24.0778378 C25.7423701,24.0778378 27.5705613,25.296632 27.5705613,26.7389605 C27.5705613,28.181289 25.7423701,29.4000832 23.5788773,29.4000832 Z" id="Shape"></path>
                    <polygon id="Shape" points="68.8179626 30.6548025 81.7523493 21.4167152 68.8179626 12.1786279 68.8179626 17.4250312 48.8595426 17.4250312 48.8595426 20.0861538 71.4790852 20.0861538 71.4790852 17.3491892 77.1725572 21.4167152 71.4790852 25.4842412 71.4790852 22.7472765 48.8595426 22.7472765 48.8595426 25.4083992 68.8179626 25.4083992"></polygon>
                    <rect id="Rectangle-path" x="48.8595426" y="13.4333472" width="2.66112266" height="2.66112266"></rect>
                    <rect id="Rectangle-path" x="54.1817879" y="13.4333472" width="2.66112266" height="2.66112266"></rect>
                    <rect id="Rectangle-path" x="59.5040333" y="13.4333472" width="2.66112266" height="2.66112266"></rect>
                    <rect id="Rectangle-path" x="64.8262786" y="13.4333472" width="2.66112266" height="2.66112266"></rect>
                    <polygon id="Shape" points="12.9343867 48.1037838 0 57.3418711 12.9343867 66.5799584 12.9343867 61.3335551 32.8928067 61.3335551 32.8928067 58.6724324 10.273264 58.6724324 10.273264 61.4093971 4.5797921 57.3418711 10.273264 53.2743451 10.273264 56.0113098 32.8928067 56.0113098 32.8928067 53.3501871 12.9343867 53.3501871"></polygon>
                    <rect id="Rectangle-path" x="30.231684" y="62.6641164" width="2.66112266" height="2.66112266"></rect>
                    <rect id="Rectangle-path" x="24.9094387" y="62.6641164" width="2.66112266" height="2.66112266"></rect>
                    <rect id="Rectangle-path" x="19.5871933" y="62.6641164" width="2.66112266" height="2.66112266"></rect>
                    <rect id="Rectangle-path" x="14.264948" y="62.6641164" width="2.66112266" height="2.66112266"></rect>
                </g>
            </g>
        </g>
    </g>
</svg>