<svg xmlns="http://www.w3.org/2000/svg" style="border: 0 !important; clip: rect(0 0 0 0) !important; height: 1px !important; margin: -1px !important; overflow: hidden !important; padding: 0 !important; position: absolute !important; width: 1px !important;" class="root-svg-symbols-element">
  <defs>
      <clipPath id="clip-Ellipce_Mars"><path d="M0 0H20V20H0z"/></clipPath>
  </defs>
    <symbol id="arrow-left-small" viewBox="0 0 25 18">
      <path id="download" d="M18,8.894,9,0,0,8.894,1.655,10.53l6.174-6.1V25H10.17V4.428l6.174,6.1Z" transform="rotate(-90 9 9)"/>
    </symbol>
    <symbol id="arrow-right-small" viewBox="0 0 25 18">
      <path id="download" d="M120.215,16.106l-9,8.894-9-8.894,1.655-1.636,6.174,6.1V0h2.341V20.572l6.174-6.1Z" transform="rotate(-90 60.108 60.108)"/>
    </symbol>
    <symbol id="check" viewBox="0 0 8 7">
      <path fill="none" d="M0 3.23v0l2.852 2.768v0L8 .998v0"/>
    </symbol>
    <symbol id="circle-text" viewBox="0 0 120.823 120.794">
      <g id="Group_218" transform="translate(.448 .388)"><g id="Group_217" fill="none" stroke="#fff" stroke-miterlimit="10" stroke-width=".75"><path id="Path_1073" d="M314.7,573.86l-6.323,6.583-1.915-1.829,4.819-5.015-2.748-2.623-4.819,5.015-1.9-1.817,6.323-6.578Z" transform="translate(-209.959 -553.958)"/><path id="Path_1074" d="M307.222,578.859a4.459,4.459,0,0,1,.379-2.415,4.894,4.894,0,0,1,4.02-2.718,4.477,4.477,0,0,1,2.393.54,5.466,5.466,0,0,1,1.954,1.8,5.4,5.4,0,0,1,.952,2.467,4.468,4.468,0,0,1-.382,2.407,4.894,4.894,0,0,1-4.02,2.723,4.508,4.508,0,0,1-2.387-.537,5.416,5.416,0,0,1-1.951-1.79A5.481,5.481,0,0,1,307.222,578.859Zm4.267,2.252a2.927,2.927,0,0,0,3.05-2.064,2.2,2.2,0,0,0-.37-1.765,2.242,2.242,0,0,0-1.514-1,2.9,2.9,0,0,0-3.052,2.064,2.387,2.387,0,0,0,1.886,2.767Z" transform="translate(-206.2 -549.712)"/><path id="Path_1075" d="M319.1,586.771l-1.874-4.286-6.387,2.772-1.052-2.406,8.383-3.638L321.1,585.9Z" transform="translate(-204.383 -545.901)"/><path id="Path_1076" d="M312.184,587.95a4.461,4.461,0,0,1,1.217-2.12,4.907,4.907,0,0,1,4.731-1.111,4.47,4.47,0,0,1,2.041,1.357,5.441,5.441,0,0,1,1.181,2.374,5.368,5.368,0,0,1,.007,2.642,4.49,4.49,0,0,1-1.22,2.115,4.907,4.907,0,0,1-4.731,1.111,4.515,4.515,0,0,1-2.039-1.346,5.819,5.819,0,0,1-1.186-5.021Zm3.178,3.622a2.938,2.938,0,0,0,3.591-.843,2.376,2.376,0,0,0-.771-3.255,2.9,2.9,0,0,0-3.589.843,2.378,2.378,0,0,0,.77,3.255Z" transform="translate(-202.821 -542.229)"/><path id="Path_1077" d="M315.773,600.32a2.236,2.236,0,0,1-1.947-.874,4.7,4.7,0,0,1-.765-2.755l-.146-4.857,9.137-.274.141,4.655a4.9,4.9,0,0,1-.539,2.691,1.962,1.962,0,0,1-1.711,1.018,2.107,2.107,0,0,1-1.208-.312,2.253,2.253,0,0,1-.836-.965A2.129,2.129,0,0,1,315.773,600.32Zm.129-2.476a.9.9,0,0,0,.763-.362,1.852,1.852,0,0,0,.214-1.074l-.07-2.269-2.02.061.066,2.217Q314.9,597.873,315.9,597.845Zm2.471-3.751.059,1.995q.043,1.389,1.028,1.36.966-.03.926-1.417l-.061-2Z" transform="translate(-202.197 -537.338)"/><path id="Path_1078" d="M313.559,599.375a4.5,4.5,0,0,1,1.954-1.48,4.913,4.913,0,0,1,4.789.82,4.453,4.453,0,0,1,1.347,2.042,5.819,5.819,0,0,1-.873,5.082,4.51,4.51,0,0,1-1.952,1.472,4.91,4.91,0,0,1-4.79-.818,4.487,4.487,0,0,1-1.348-2.036,5.381,5.381,0,0,1-.158-2.637A5.45,5.45,0,0,1,313.559,599.375Zm1.507,4.571a2.936,2.936,0,0,0,3.635.62,2.2,2.2,0,0,0,.962-1.528,2.225,2.225,0,0,0-.394-1.768,2.9,2.9,0,0,0-3.635-.622,2.228,2.228,0,0,0-.963,1.538A2.2,2.2,0,0,0,315.066,603.946Z" transform="translate(-202.533 -533.153)"/><path id="Path_1079" d="M318.666,614.613a4.217,4.217,0,0,1-2.143.9,5.455,5.455,0,0,1-4.585-1.849,4.2,4.2,0,0,1-.911-2.132,4.619,4.619,0,0,1,.326-2.361,3.528,3.528,0,0,1,2.058-2.131l-3.954-1.6,1-2.447,11.53,4.652-.95,2.34-.977-.394a3.494,3.494,0,0,1,.024,3.1A4.634,4.634,0,0,1,318.666,614.613Zm-5.113-3.25a2.927,2.927,0,0,0,3.417,1.379,2.37,2.37,0,0,0,1.257-3.091,2.932,2.932,0,0,0-3.419-1.382,2.371,2.371,0,0,0-1.256,3.094Z" transform="translate(-204.615 -529.407)"/><path id="Path_1080" d="M318.986,615.012l-1.5,2.154-4.464-3.094,1.922,6.739-1.387,1.986-7.506-5.2,1.5-2.154,4.464,3.094-1.932-6.723,1.4-2Z" transform="translate(-206.999 -524.681)"/><path id="Path_1081" d="M302.149,621.177l3.623,4.088-.987-5.233.841-.74,5.047,1.68-3.633-4.1,1.8-1.582,6.051,6.828-2.075,1.827-5.691-2.017,1.169,6-1.859,1.638-6.078-6.808Z" transform="translate(-210.982 -520.881)"/><path id="Path_1082" d="M292.26,634.222l-2.758-8.688,2.528-.8,2.1,6.62,3.63-1.141-2.1-6.62,2.511-.791,2.756,8.686Z" transform="translate(-218.569 -515.67)"/><path id="Path_1083" d="M290.343,625.159a4.461,4.461,0,0,1,1.941,1.494,4.867,4.867,0,0,1,.452,4.821,4.47,4.47,0,0,1-1.63,1.829,5.862,5.862,0,0,1-5.152.481,4.519,4.519,0,0,1-1.932-1.5,4.866,4.866,0,0,1-.452-4.821,4.5,4.5,0,0,1,1.621-1.827,5.862,5.862,0,0,1,5.152-.479Zm-4.036,2.638a2.905,2.905,0,0,0,.343,3.66,2.217,2.217,0,0,0,1.73.527,2.245,2.245,0,0,0,1.611-.84,2.879,2.879,0,0,0-.343-3.658,2.234,2.234,0,0,0-1.74-.527A2.2,2.2,0,0,0,286.308,627.8Z" transform="translate(-223.025 -514.306)"/><path id="Path_1084" d="M277.547,631.406l4.671.415.617-6.916,2.624.232-.809,9.076-7.295-.645Z" transform="translate(-227.063 -514.213)"/><path id="Path_1085" d="M279.993,625.21a4.473,4.473,0,0,1,1.286,2.083A4.867,4.867,0,0,1,280,631.964a4.5,4.5,0,0,1-2.172,1.138,5.5,5.5,0,0,1-2.659-.1,5.448,5.448,0,0,1-2.331-1.26,4.5,4.5,0,0,1-1.28-2.08,4.873,4.873,0,0,1,1.285-4.671A4.508,4.508,0,0,1,275,623.85a5.451,5.451,0,0,1,2.651.1A5.521,5.521,0,0,1,279.993,625.21Zm-4.71,1.052a2.9,2.9,0,0,0-.975,3.543,2.215,2.215,0,0,0,1.433,1.1,2.246,2.246,0,0,0,1.8-.22,2.878,2.878,0,0,0,.974-3.544,2.39,2.39,0,0,0-3.235-.882Z" transform="translate(-231.234 -515.027)"/><path id="Path_1086" d="M267.1,622.437a2.235,2.235,0,0,1,1.7-1.282,4.732,4.732,0,0,1,2.792.654l4.347,2.2-4.143,8.122-4.165-2.11a4.951,4.951,0,0,1-2.112-1.765,1.949,1.949,0,0,1-.075-1.985,2.1,2.1,0,0,1,.855-.906,2.286,2.286,0,0,1,1.251-.268A2.12,2.12,0,0,1,267.1,622.437Zm4.236,5.263-1.788-.906c-.827-.418-1.392-.339-1.689.246s-.024,1.07.8,1.49l1.788.906Zm-2.117-3.961a.891.891,0,0,0-.048.842,1.849,1.849,0,0,0,.845.7l2.029,1.03.916-1.8-1.985-1.006Q269.673,622.849,269.219,623.74Z" transform="translate(-235.555 -516.836)"/><path id="Path_1087" d="M269.29,621a4.474,4.474,0,0,1,.36,2.418,4.875,4.875,0,0,1-3.025,3.789,4.5,4.5,0,0,1-2.445.195,5.492,5.492,0,0,1-2.4-1.138,5.424,5.424,0,0,1-1.645-2.073,4.48,4.48,0,0,1-.355-2.413,4.894,4.894,0,0,1,3.026-3.79,4.51,4.51,0,0,1,2.439-.2A5.857,5.857,0,0,1,269.29,621Zm-4.746-.884a2.92,2.92,0,0,0-2.3,2.876,2.2,2.2,0,0,0,.882,1.577,2.244,2.244,0,0,0,1.745.506,2.886,2.886,0,0,0,2.3-2.877,2.392,2.392,0,0,0-2.627-2.081Z" transform="translate(-239.383 -519.203)"/><path id="Path_1088" d="M254.716,618.107a4.156,4.156,0,0,1,.234-2.3,5.441,5.441,0,0,1,3.822-3.126,4.228,4.228,0,0,1,2.316.222,4.67,4.67,0,0,1,1.924,1.417,3.509,3.509,0,0,1,.892,2.818l3.3-2.694,1.682,2.042-9.618,7.861-1.606-1.951.814-.665a3.52,3.52,0,0,1-2.739-1.462A4.611,4.611,0,0,1,254.716,618.107Zm5.31-2.918a2.918,2.918,0,0,0-2.85,2.33A2.373,2.373,0,0,0,259.3,620.1a2.921,2.921,0,0,0,2.851-2.332,2.375,2.375,0,0,0-2.124-2.578Z" transform="translate(-242.942 -522.743)"/><path id="Path_1089" d="M254.356,618.471l-1.179-2.347,4.862-2.427-6.857-1.539-1.088-2.168,8.175-4.078,1.179,2.347-4.862,2.425,6.848,1.528,1.094,2.179Z" transform="translate(-246.126 -527.385)"/><path id="Path_1090" d="M257.2,600.715l-5.337,1.2,5.077,1.651.248,1.092-3.9,3.6,5.354-1.2.528,2.329-8.918,2.007-.61-2.691,4.51-4-5.839-1.861-.547-2.413,8.909-2.039Z" transform="translate(-247.759 -532.604)"/><path id="Path_1091" d="M249.5,585.574l8.972,1.744-.506,2.593-6.838-1.328-.729,3.722,6.838,1.329-.5,2.574-8.974-1.743Z" transform="translate(-247.757 -541.49)"/><path id="Path_1092" d="M257.683,588.126a4.463,4.463,0,0,1-2.246.982,4.9,4.9,0,0,1-4.464-1.915,4.455,4.455,0,0,1-.829-2.3,5.829,5.829,0,0,1,2.044-4.737,4.492,4.492,0,0,1,2.243-.974,4.651,4.651,0,0,1,2.488.366,4.6,4.6,0,0,1,1.976,1.55,4.461,4.461,0,0,1,.833,2.291,5.378,5.378,0,0,1-.467,2.6A5.473,5.473,0,0,1,257.683,588.126Zm-.391-4.8a2.933,2.933,0,0,0-3.387-1.451,2.378,2.378,0,0,0-1.327,3.072,2.9,2.9,0,0,0,3.387,1.453,2.238,2.238,0,0,0,1.3-1.268A2.2,2.2,0,0,0,257.292,583.33Z" transform="translate(-246.102 -545.95)"/><path id="Path_1093" d="M258.48,574.443l-2.615,3.88,5.784,3.87-1.466,2.181-7.591-5.079,4.082-6.059Z" transform="translate(-244.379 -550.047)"/><path id="Path_1094" d="M262.675,579a4.511,4.511,0,0,1-2.449.125,4.652,4.652,0,0,1-2.2-1.221,4.588,4.588,0,0,1-1.3-2.146,4.446,4.446,0,0,1,.042-2.444,5.821,5.821,0,0,1,3.6-3.707,4.5,4.5,0,0,1,2.444-.12,4.63,4.63,0,0,1,2.2,1.219,4.58,4.58,0,0,1,1.3,2.146,4.468,4.468,0,0,1-.036,2.437,5.394,5.394,0,0,1-1.361,2.269A5.5,5.5,0,0,1,262.675,579Zm1.339-4.623a2.921,2.921,0,0,0-2.651-2.554,2.384,2.384,0,0,0-2.333,2.4,2.888,2.888,0,0,0,2.653,2.554,2.239,2.239,0,0,0,1.664-.728A2.2,2.2,0,0,0,264.014,574.381Z" transform="translate(-241.591 -552.723)"/><path id="Path_1095" d="M271.84,569.167a2.217,2.217,0,0,1,.316,2.105,4.711,4.711,0,0,1-1.912,2.132l-4.02,2.75-5.174-7.513,3.852-2.635a4.958,4.958,0,0,1,2.564-1,1.959,1.959,0,0,1,1.784.882,2.091,2.091,0,0,1,.391,1.182,2.277,2.277,0,0,1-.362,1.223A2.136,2.136,0,0,1,271.84,569.167Zm-6.663,1.191,1.653-1.131q1.15-.785.591-1.6t-1.7-.01l-1.652,1.131Zm4.5.042a.9.9,0,0,0-.717-.444,1.853,1.853,0,0,0-1.023.4l-1.878,1.284,1.145,1.661,1.835-1.255Q270.249,571.225,269.681,570.4Z" transform="translate(-238.465 -555.758)"/><path id="Path_1096" d="M271.576,571.6a4.484,4.484,0,0,1-2.3-.842,4.873,4.873,0,0,1-1.89-4.461,4.45,4.45,0,0,1,1-2.234,5.5,5.5,0,0,1,2.153-1.558,5.434,5.434,0,0,1,2.613-.445,4.5,4.5,0,0,1,2.294.845,4.864,4.864,0,0,1,1.891,4.461,4.478,4.478,0,0,1-.994,2.229,5.413,5.413,0,0,1-2.144,1.554A5.483,5.483,0,0,1,271.576,571.6Zm3.05-3.729a2.909,2.909,0,0,0-1.434-3.384,2.391,2.391,0,0,0-3.091,1.3,2.523,2.523,0,0,0,.105,1.948,2.548,2.548,0,0,0,1.329,1.438,2.248,2.248,0,0,0,1.817-.02A2.193,2.193,0,0,0,274.626,567.873Z" transform="translate(-234.068 -557.809)"/><path id="Path_1097" d="M281.462,560.246a4.22,4.22,0,0,1,1.915,1.316,5.4,5.4,0,0,1,.907,4.844,4.205,4.205,0,0,1-1.31,1.915,4.657,4.657,0,0,1-2.172,1,3.527,3.527,0,0,1-2.909-.577l.783,4.18-2.607.483-2.282-12.185,2.488-.464.194,1.033a3.511,3.511,0,0,1,2.6-1.69A4.667,4.667,0,0,1,281.462,560.246Zm.01,6.046a2.908,2.908,0,0,0-.678-3.612,2.386,2.386,0,0,0-3.29.611,2.905,2.905,0,0,0,.676,3.612,2.384,2.384,0,0,0,3.292-.611Z" transform="translate(-229.558 -559.22)"/><path id="Path_1098" d="M281.615,559.543l2.632.093-.194,5.416,4.642-5.259,2.43.086-.326,9.106-2.632-.095.194-5.416-4.625,5.26-2.445-.086Z" transform="translate(-224.312 -559.543)"/><path id="Path_1099" d="M296.6,571.247l1.5-5.247-3.885,3.656-1.081-.307-1.307-5.141-1.5,5.262-2.3-.652,2.5-8.764,2.664.754,1.366,5.861,4.437-4.218,2.386.676L298.9,571.9Z" transform="translate(-219.61 -559.188)"/></g></g>
    </symbol>
    <symbol id="circle" viewBox="0 0 20 20">
      <g id="Ellipce_Mars" clip-path="url(#clip-Ellipce_Mars)"><g id="Ellipse_1" fill="none" stroke="#" stroke-width="1"><circle cx="10" cy="10" r="10" stroke="none"/><circle cx="10" cy="10" r="9.5"/></g></g>
    </symbol>
    <symbol id="close" viewBox="0 0 25.414 25.414">
      <g id="Group_53" transform="translate(-1621.979 -21.98)" stroke-width="2"><path id="Path_1972" d="M0,0H33.941" transform="rotate(-45 867.7 -1935.413)"/><path id="Path_1973" d="M0,0H33.941" transform="rotate(45 783.957 1970.099)"/></g>
    </symbol>
    <symbol id="dot" viewBox="0 0 4 4">
      <path d="M0 2a2 2 0 1 1 4 0 2 2 0 0 1-4 0z"/>
    </symbol>
    <symbol id="dubaishop" viewBox="0 0 80 42">
      <path fill="#fff" d="M78.625 5.704c.588-.242 1.325-2.777 1.37-3.418C80.09.92 78.835 1.15 77.83.78c-.355-.13-.469-.287-.615-.78-.584.178-1.383 2.975-1.38 3.449.011 1.721 2.586.586 2.79 2.255"/><path fill="#fff" d="M.41 8.347h11.737c1.73 0 2.91.318 3.536.958.928.956 1.39 2.965 1.39 6.027 0 3.049-.462 5.051-1.39 6.005-.627.653-1.805.98-3.536.98H.41zm21.648 9.908c0 1.088.303 1.76.91 2.011.606.254 2.218.38 4.835.38 2.645 0 4.267-.126 4.866-.38.6-.25.9-.923.9-2.01v-9.91h2.086v9.905c0 1.92-.382 3.101-1.145 3.536-.845.488-3.08.733-6.707.733-3.612 0-5.82-.231-6.624-.692-.805-.463-1.207-1.657-1.207-3.577V8.346h2.086zm32.627-.017c0 1.373-.378 2.396-1.135 3.069-.756.672-1.863 1.01-3.322 1.01H39.003V8.346h10.734c1.431 0 2.529.34 3.293 1.023.763.683 1.144 1.66 1.144 2.947 0 1.403-.525 2.304-1.574 2.7a2.89 2.89 0 0 1 1.431 1.017c.436.587.654 1.32.654 2.204zm-2.597-5.925c0-.642-.163-1.135-.49-1.475-.396-.41-1.02-.616-1.878-.616h-8.631v3.976h8.63c.887 0 1.5-.15 1.848-.46.347-.307.521-.783.521-1.425zm-11 3.763v4.363h9.12c.79 0 1.386-.198 1.788-.6.403-.4.604-.928.604-1.581 0-.638-.205-1.162-.614-1.57-.409-.41-1.001-.612-1.779-.612zm25.814-7.73l7.36 13.97h-2.35l-1.657-3.098h-9.978l-1.636 3.098H56.29l7.361-13.97zm2.454 8.995l-3.804-7.323h-.531l-3.803 7.323zm9.773 4.975h-2.086V8.346h2.086zm-70.93 11.67c3.258 0 5.31.19 6.154.57 1.05.476 1.574 1.618 1.574 3.426 0 1.715-.633 2.835-1.9 3.365-1.036.436-3.136.653-6.298.653-3.422 0-5.623-.375-6.605-1.12C.375 40.306 0 39.063 0 37.148h2.086c0 1.318.293 2.144.879 2.478.585.333 2.18.5 4.784.5 2.549 0 4.203-.124 4.959-.369.756-.244 1.135-.836 1.135-1.775 0-.952-.283-1.542-.849-1.773-.565-.232-2.164-.346-4.795-.346-3.216 0-5.377-.39-6.482-1.164C.872 34.115.45 33.06.45 31.537c0-1.645.508-2.71 1.523-3.191 1.016-.483 3.09-.725 6.226-.725 3.121 0 5.173.374 6.154 1.122.778.6 1.165 1.767 1.165 3.508h-2.044c0-1.206-.307-1.964-.92-2.28-.613-.317-2.065-.473-4.355-.473-1.963 0-3.17.028-3.619.082-1.364.163-2.046.811-2.046 1.947.001.955.37 1.605 1.106 1.943.735.345 2.255.516 4.56.516zm10.96-6.16h2.085v5.934h12.022v-5.934h2.086v13.97h-2.086v-6.159H21.244v6.16h-2.086zM47.257 42c-2.905 0-4.936-.186-6.094-.56-1.16-.374-1.895-1.084-2.208-2.133-.218-.72-.328-2.208-.328-4.465 0-2.299.103-3.787.308-4.466.313-1.062 1.055-1.782 2.228-2.162 1.173-.381 3.203-.571 6.094-.571 2.903 0 4.93.186 6.081.56 1.152.374 1.891 1.092 2.22 2.151.216.721.326 2.217.326 4.488 0 2.283-.103 3.767-.306 4.447-.314 1.059-1.051 1.777-2.209 2.151-1.16.374-3.196.56-6.112.56zm0-1.875c3.215 0 5.11-.238 5.683-.714.573-.48.858-2.007.858-4.58 0-2.587-.283-4.12-.848-4.597-.565-.478-2.464-.716-5.693-.716-3.232 0-5.128.238-5.695.716-.566.477-.849 2.01-.849 4.597 0 2.56.287 4.083.86 4.57.57.482 2.465.724 5.684.724zm11.75 1.671v-13.97h11.41c1.24 0 2.21.366 2.913 1.106.702.737 1.053 1.857 1.053 3.36s-.358 2.621-1.074 3.352c-.716.731-1.707 1.094-2.974 1.094h-9.242v5.058zm2.086-6.935h9.242c.6 0 1.077-.203 1.43-.614.355-.41.532-1.064.532-1.955 0-.89-.174-1.546-.52-1.963-.35-.42-.836-.628-1.464-.628h-9.22zM2.496 20.44h9.63c1.131 0 1.891-.341 2.28-1.034.388-.685.582-2.045.582-4.073 0-2.016-.197-3.374-.593-4.066-.395-.696-1.152-1.044-2.27-1.044h-9.63z"/>
    </symbol>
    <symbol id="foreign" viewBox="0 0 14 14">
      <g id="Group_217" transform="translate(3.898)"><g id="Group_216"><path id="Path_1977" d="M146.909,0V1.2h3.76L142.55,9.319l.849.849,8.04-8.04V5.8h1.2V0Z" transform="translate(-142.55)"/></g></g><g id="Group_219"><g id="Group_218"><path id="Path_1978" d="M12.8,7v5.8H1.2V1.2H7.065V0H0V14H14V7Z"/></g></g>
    </symbol>
    <symbol id="hh" viewBox="0 0 44 44">
      <path fill="#d2010f" d="M26.46 18.815l.401-.38c.76-.737 1.465-1.172 2.324-1.43.457-.143.567-.154 1.431-.154 1.079.005 1.486.088 2.263.462 1.293.622 1.987 1.662 2.23 3.33.043.296.07 2.035.087 5.348l.028 4.914h-3.645V26.53c0-4.55-.027-5.19-.225-5.734-.21-.545-.782-.996-1.437-1.117-1.244-.236-2.489.363-2.99 1.442-.412.897-.462 1.596-.468 6.218v3.566h-3.578v-19.59h3.578zm-14.04-3.758v3.742l.42-.413c1.128-1.117 2.4-1.618 3.93-1.552.815.033 1.382.17 2.01.473 1.255.606 1.926 1.525 2.213 3.049.071.38.088 1.227.11 5.497l.022 5.052h-3.573l-.028-4.529c-.027-4.82-.038-5.09-.297-5.668-.462-1.034-1.932-1.392-3.21-.776-.726.347-1.205 1.007-1.442 1.998-.116.456-.121.622-.138 4.721l-.022 4.254H8.787v-19.59h3.634zM20.239.012c-.104.01-.44.05-.743.082C14.172.661 9.013 3.347 5.462 7.408c-2.978 3.4-4.745 7.33-5.356 11.886-.127.94-.144 4.248-.028 5.173.55 4.358 2.109 8.072 4.79 11.418.682.847 2.383 2.548 3.231 3.23 3.485 2.79 7.537 4.43 11.947 4.832.782.071 3.127.071 3.909 0 4.41-.402 8.456-2.036 11.946-4.832.848-.677 2.555-2.383 3.232-3.23 2.686-3.351 4.239-7.06 4.79-11.418.115-.925.098-4.232-.028-5.173-.347-2.592-1.019-4.82-2.13-7.071C38.862 6.368 33.588 2.13 27.262.579 25.47.144 24.461.029 22.275.006a50.312 50.312 0 0 0-2.037.006z"/>
    </symbol>
    <symbol id="label_dsgn-lab" viewBox="0 0 65.819 37.599">
      <path id="Rectangle_19" fill="#9000ff" d="M0 0H65.819V37.599H0z"/><path id="Path_919" d="M7.6-111.114h2.534v-7.6h-7.6v7.6H7.6Zm0,2.534H0v-12.67H10.136v2.534H12.67v7.6H10.136v2.534Zm15.2-2.534H25.34v2.534H15.2v-2.534h7.6Zm2.534,0v-2.534h2.534v2.534Zm0-2.534h-7.6v-2.534h7.6Zm-7.6-2.534H15.2v-2.534h2.534Zm7.6-5.068h2.534v2.534H17.738v-2.534h7.6Zm12.67,10.136h2.534v2.534h-7.6v-2.534h5.068Zm2.534,0v-2.534H38.011v-2.534h5.068v5.068Zm-7.6,0H30.408v-7.6h2.534v7.6Zm7.6-10.136h2.534v2.534H32.942v-2.534h7.6Zm15.2,12.67v-2.534H53.215v-2.534h2.534v-7.6h2.534v12.67Zm-10.136,0v-12.67h2.534v2.534h2.534v2.534h2.534v2.534H50.681v-2.534H48.147v7.6ZM7.6-93.767h2.534v2.534H0V-103.9H2.534v10.136H7.6Zm15.2,2.534V-96.3H15.2v5.068H12.67V-101.37H15.2v2.534h7.6v-2.534H25.34v10.136Zm0-10.136H15.2V-103.9h7.6Zm12.67,7.6h2.534V-96.3h-7.6v2.534h5.068Zm0,2.534h-7.6V-103.9H38.011v2.534h2.534v2.534H38.011v-2.534h-7.6v2.534h7.6V-96.3h2.534v2.534H38.011v2.534Z" transform="translate(3.768 125.022)" fill="#fff"/>
    </symbol>
    <symbol id="label_dvlp" viewBox="0 0 64.454 19.863">
      <g id="Group_208" transform="translate(-1302.546 -871.137)"><path id="Rectangle_19" transform="translate(1302.546 871.137)" fill="#d90812" d="M0 0H64.454V19.863H0z"/><path id="Path_1974" d="M7.7,5.151h2.567V-1.994h-7.7V5.151H7.7Zm0,2.381H0V-4.375H10.269v2.381h2.567V5.151H10.269V7.532Zm12.836,0V5.151h2.567V7.532Zm2.567-2.381V.388h2.567V5.151Zm-2.567,0H17.971V.388h2.567V5.151ZM25.673.388V-4.375H28.24V.388Zm-7.7,0H15.4V-4.375h2.567V.388ZM38.509,5.151h2.567V7.532H30.807V-4.375h2.567V5.151h5.135Zm5.135,2.381V-4.375H53.913v2.381H56.48V.388H53.913V-1.994h-7.7V.388h7.7V2.769h-7.7V7.532Z" transform="translate(1306.532 879.48)" fill="#fff"/></g>
    </symbol>
    <symbol id="label_indx" viewBox="0 0 56.702 19.89">
      <path id="Rectangle_19" fill="#41d82b" d="M0 0H56.702V19.89H0z"/><path id="Path_918" d="M0-108.819V-121.25H2.586v12.431Zm15.519,0v-2.486H12.932v-2.486h2.586v-7.459H18.1v12.431Zm-10.346,0V-121.25H7.759v2.486h2.586v2.486h2.586v2.486H10.346v-2.486H7.759v7.459Zm23.278-2.486h2.586v-7.459H23.278v7.459h5.173Zm0,2.486H20.691V-121.25H31.037v2.486h2.586v7.459H31.037v2.486Zm18.1,0v-2.486h2.586v2.486Zm-10.346,0v-2.486H38.8v2.486Zm10.346-2.486H43.969v-2.486h2.586Zm-7.759,0v-2.486h2.586v2.486Zm5.173-2.486H41.383v-2.486h2.586Zm0-2.486v-2.486h2.586v2.486Zm-2.586,0H38.8v-2.486h2.586Zm5.173-2.486v-2.486h2.586v2.486Zm-7.759,0H36.21v-2.486H38.8Z" transform="translate(3.78 124.979)" fill="#fff"/>
    </symbol>
    <symbol id="label_pro" viewBox="0 0 50 20">
      <path id="Subtraction_11" data-name="Subtraction 11" d="M50,20H0V0H50V20h0ZM33.787,6.2h0v7.5h2.506v2.5h7.518V13.7h2.507V6.2H43.811V3.7H36.293V6.2Zm-12.531,5h5.012v2.5h2.506v2.5h2.507V13.7H28.775v-5h2.507V6.2H28.775V3.7H18.75V16.2h2.506v-5ZM3.713,3.7h0V16.2H6.219v-5h7.518V8.7h2.507V6.2H13.737V3.7H3.713Zm40.1,10H36.293V6.2h7.518v7.5Zm-15.037-5H21.256V6.2h7.519V8.7Zm-15.037,0H6.219V6.2h7.518V8.7Z" fill="#d3d3d4"/>
    </symbol>
    <symbol id="label_tech" viewBox="0 0 62.963 19.837">
      <path id="Rectangle_19" fill="#2e00ff" d="M0 0H62.963V19.837H0z"/><path id="Path_45" d="M5.051-108.76v-9.992H0v-2.5H12.626v2.5H7.576v9.992Zm17.677-2.5h2.525v2.5h-10.1v-12.49h10.1v2.5H17.677v2.5h5.051v2.5H17.677v2.5h5.051Zm15.152-5v-2.5H40.4v2.5Zm-2.525,5h2.525v2.5H30.3v-2.5h5.051Zm2.525,0v-2.5H40.4v2.5Zm-7.576,0H27.778v-7.494H30.3v7.494Zm7.576-7.494H30.3v-2.5h7.576ZM53.03-108.76v-5H45.455v5H42.929v-12.49h2.525v5H53.03v-5h2.525v12.49Z" transform="translate(3.704 124.923)" fill="#fff"/>
    </symbol>
    <symbol id="logo-path" viewBox="0 0 36 25.2">
      <path id="Path_1100" d="M399.7,633.876a5.122,5.122,0,0,1-10.243,0v-15.1a5.122,5.122,0,0,1,10.243,0v15.1Z" transform="translate(-389.459 -613.728)" fill-rule="evenodd"/><path id="Path_1101" d="M461.857,628.824h5.859a5.052,5.052,0,1,1,0,10.1H456.73a5.09,5.09,0,0,1-5.126-5.052v-15.1a5.127,5.127,0,0,1,10.253,0v10.044Z" transform="translate(-436.842 -613.728)" fill-rule="evenodd"/>
    </symbol>
    <symbol id="logo" viewBox="0 0 60 17.556">
      <g id="Group_48" fill-rule="evenodd"><path id="Path_1" d="M538.695,624.607l-2.5,4.579a3.438,3.438,0,0,1-3.221,2.1,3.611,3.611,0,0,1-2.949-5.442l5.446-10.016a3.522,3.522,0,0,1,6.443,0l5.446,10.016a3.611,3.611,0,0,1-2.949,5.442,3.437,3.437,0,0,1-3.221-2.1l-2.5-4.579Z" transform="translate(-502.292 -613.728)"/><path id="Path_2" d="M396.481,627.764a3.511,3.511,0,1,1-7.022,0V617.247a3.511,3.511,0,1,1,7.022,0v10.517Z" transform="translate(-389.459 -613.728)"/><path id="Path_3" d="M639.9,627.7a3.514,3.514,0,1,1-7.028.012v-6.188a7.849,7.849,0,0,1,7.755-7.851,3.517,3.517,0,1,1,.091,7.033.818.818,0,0,0-.817.818V627.7Z" transform="translate(-584.232 -613.67)"/><path id="Path_4" d="M458.633,624.245h4.017a3.519,3.519,0,0,1,0,7.039h-7.532a3.517,3.517,0,0,1-3.515-3.519V617.247a3.515,3.515,0,1,1,7.029,0v7Z" transform="translate(-441.483 -613.728)"/></g>
    </symbol>
    <symbol id="logo_pro" viewBox="0 0 700 376.379">
      <g id="Group_204" data-name="Group 204" transform="translate(-737 -477)"><path id="Subtraction_5" data-name="Subtraction 5" d="M397.38,159.346H0V0H397.381V159.342h0v0h0ZM268.527,49.424h0v59.758h19.918V129.1H348.2V109.182h19.922V49.424H348.2V29.507H288.446V49.424ZM168.936,89.26h39.835v19.922h19.92V129.1h19.922V109.182H228.691V69.34h19.922V49.424H228.691V29.507H149.02V129.1h19.916V89.26ZM29.512,29.506V129.1H49.429V89.26H109.18V69.34H129.1V49.424H109.18V29.507H29.512ZM348.2,109.182H288.446V49.424H348.2v59.758ZM228.691,69.344h0l-19.918,0H168.936V49.424h59.755v19.92Zm-119.511,0h0l-19.916,0H49.429V49.424H109.18v19.92Z" transform="translate(1039.619 694.033)" fill="#d3d3d4"/><g id="Group_51" data-name="Group 51" transform="translate(737 477)"><g id="Group_48" data-name="Group 48" fill-rule="evenodd"><path id="Path_1" data-name="Path 1" d="M621.437,722.961l-25.1,45.98c-6.5,11.907-15.381,21.06-32.386,21.06C537.172,790,521,759.8,534.3,735.36l54.749-100.572c6.487-11.915,17.928-21.06,32.386-21.06s25.9,9.149,32.386,21.06L708.572,735.36C721.876,759.794,705.7,790,678.923,790c-17,0-25.886-9.151-32.386-21.06l-25.1-45.98Z" transform="translate(-253.429 -613.727)"/><path id="Path_2" data-name="Path 2" d="M460.058,754.665a35.3,35.3,0,1,1-70.6,0v-105.6a35.3,35.3,0,1,1,70.6,0v105.6Z" transform="translate(-389.459 -613.727)"/><path id="Path_3" data-name="Path 3" d="M703.531,754.517a35.329,35.329,0,1,1-70.659.115V692.5a78.86,78.86,0,0,1,77.961-78.825,35.313,35.313,0,1,1,.913,70.615,8.216,8.216,0,0,0-8.215,8.213v62.017Z" transform="translate(-141.835 -613.67)"/><path id="Path_4" data-name="Path 4" d="M522.274,719.326h40.384a35.337,35.337,0,0,1,0,70.675H486.938A35.337,35.337,0,0,1,451.6,754.665v-105.6a35.335,35.335,0,1,1,70.671,0v70.26Z" transform="translate(-347.822 -613.727)"/></g></g></g>
    </symbol>
    <symbol id="logo_unique" viewBox="0 0 75.67 22.849">
      <g id="Group_51" transform="translate(.5 .5)"><g id="Group_48" stroke-width="1" fill-rule="evenodd"><path id="Path_1" d="M540.929,627.267l-3.107,5.7a4.278,4.278,0,0,1-4.009,2.61c-3.315,0-5.317-3.744-3.67-6.773l6.777-12.465a4.384,4.384,0,0,1,8.018,0l6.777,12.465c1.647,3.029-.355,6.773-3.67,6.773a4.278,4.278,0,0,1-4.009-2.61l-3.107-5.7Z" transform="translate(-495.626 -613.728)"/><path id="Path_2" d="M398.2,631.2a4.37,4.37,0,1,1-8.739,0V618.108a4.37,4.37,0,1,1,8.739,0V631.2Z" transform="translate(-389.459 -613.728)"/><path id="Path_3" d="M641.619,631.127a4.373,4.373,0,1,1-8.747.014v-7.7a9.768,9.768,0,0,1,9.651-9.77,4.377,4.377,0,1,1,.113,8.752,1.018,1.018,0,0,0-1.017,1.018v7.687Z" transform="translate(-572.339 -613.67)"/><path id="Path_4" d="M460.352,626.816h5a4.38,4.38,0,0,1,0,8.76h-9.373a4.377,4.377,0,0,1-4.374-4.38V618.108a4.374,4.374,0,1,1,8.748,0v8.708Z" transform="translate(-439.009 -613.728)"/></g></g>
    </symbol>
    <symbol id="mirokon" viewBox="0 0 122 17">
      <path fill="#fff" d="M8.92 10.427c.106.26.264.573.37.888.106-.313.264-.626.37-.888.109-.293.25-.573.422-.834l4.7-8.858c.053-.105.158-.208.211-.313.08-.063.17-.116.264-.156.1-.042.209-.06.317-.052h3.061v16.621h-3.063V5.894c0-.26.053-.521.053-.782l-4.804 9.018a1.257 1.257 0 0 1-1.214.73h-.472a1.224 1.224 0 0 1-.739-.21 1.278 1.278 0 0 1-.475-.572L3.01 5.116c0 .26.053.521.053.782v10.885H0V.163h3.01c.106 0 .211.052.317.052.106.052.158.105.264.156.11.071.187.184.211.313l4.7 8.858c.16.284.3.58.418.885z"/><path fill="#fff" d="M32.252 1.204a1.58 1.58 0 0 1 .264-.365c.106-.105.211-.26.37-.313.133-.099.274-.186.422-.26a1.56 1.56 0 0 1 .475-.105h2.64v16.622h-3.485V6.884c-.008-.435.01-.87.053-1.302.053-.47.053-.938.158-1.459-.158.469-.37.888-.528 1.25a6.648 6.648 0 0 1-.581 1.042l-5.914 9.327c-.07.133-.159.256-.264.365-.106.104-.21.26-.37.312-.12.117-.264.206-.422.26a1.56 1.56 0 0 1-.475.106h-2.64V.163h3.485v9.9c.008.434-.01.869-.053 1.302-.003.49-.056.978-.158 1.458a6.89 6.89 0 0 1 .528-1.25c.211-.365.37-.73.581-1.042z"/><path fill="#fff" d="M43.252 8.447v-5.73h2.218a5.15 5.15 0 0 1 1.426.208c.734.207 1.323.75 1.584 1.458.15.363.223.754.21 1.147a2.862 2.862 0 0 1-.738 2.136 3.093 3.093 0 0 1-2.376.781h-2.218zm2.322 2.66c1.002.016 2-.125 2.957-.417a6.011 6.011 0 0 0 2.059-1.146 5.08 5.08 0 0 0 1.214-1.777 6.055 6.055 0 0 0 .422-2.24 5.687 5.687 0 0 0-.37-2.137 4.46 4.46 0 0 0-1.214-1.72 5.493 5.493 0 0 0-2.06-1.094 10.216 10.216 0 0 0-3.01-.416h-5.7v16.675h3.486v-5.73z"/><path fill="#fff" d="M67.092 8.5a6.632 6.632 0 0 1-.37 2.345 4.476 4.476 0 0 1-1 1.776 4.292 4.292 0 0 1-1.584 1.095 6.296 6.296 0 0 1-4.224 0 4.292 4.292 0 0 1-1.584-1.095 4.873 4.873 0 0 1-1-1.776 6.445 6.445 0 0 1-.37-2.345 7.815 7.815 0 0 1 .37-2.345 4.873 4.873 0 0 1 1-1.777 4.292 4.292 0 0 1 1.584-1.095 6.297 6.297 0 0 1 4.224 0 4.292 4.292 0 0 1 1.584 1.095 4.873 4.873 0 0 1 1 1.777c.268.752.393 1.547.37 2.345zm3.538 0a8.808 8.808 0 0 0-.638-3.388 8.573 8.573 0 0 0-1.743-2.71A8.845 8.845 0 0 0 65.503.625a10.32 10.32 0 0 0-7.076 0 7.53 7.53 0 0 0-2.746 1.777 8.573 8.573 0 0 0-1.743 2.71 9.372 9.372 0 0 0 0 6.775 8.573 8.573 0 0 0 1.743 2.71 8.844 8.844 0 0 0 2.746 1.777 10.32 10.32 0 0 0 7.076 0 7.53 7.53 0 0 0 2.746-1.777 8.573 8.573 0 0 0 1.747-2.71A8.998 8.998 0 0 0 70.63 8.5z"/><path fill="#fff" d="M76.606 7.04h1.531c.273.01.544-.044.792-.156.249-.146.465-.341.634-.573l3.38-5.21c.164-.248.359-.476.58-.677.248-.17.543-.262.845-.26h3.01L82.995 6.78a3.06 3.06 0 0 1-.686.73c-.25.205-.537.364-.845.468.46.123.891.336 1.267.626.398.35.721.775.95 1.25l4.12 6.93h-3.169a1.312 1.312 0 0 1-.792-.261 2.106 2.106 0 0 1-.58-.73l-3.222-5.418a2.894 2.894 0 0 0-.317-.416 1.395 1.395 0 0 0-.317-.26 3.665 3.665 0 0 0-.422-.157c-.158 0-.317-.052-.528-.052h-1.848v7.19h-3.485V.163h3.485V7.04z"/><path fill="#fff" d="M101.407 8.5a6.632 6.632 0 0 1-.37 2.345 4.476 4.476 0 0 1-1 1.776 4.29 4.29 0 0 1-1.584 1.095 6.296 6.296 0 0 1-4.224 0 4.29 4.29 0 0 1-1.584-1.095 4.874 4.874 0 0 1-1-1.776 6.444 6.444 0 0 1-.37-2.345 7.814 7.814 0 0 1 .37-2.345 4.874 4.874 0 0 1 1-1.777 4.29 4.29 0 0 1 1.584-1.095 6.297 6.297 0 0 1 4.224 0 4.291 4.291 0 0 1 1.584 1.095 4.874 4.874 0 0 1 1 1.777c.267.752.393 1.547.37 2.345zm3.59 0a8.808 8.808 0 0 0-.637-3.388 8.573 8.573 0 0 0-1.743-2.71A8.845 8.845 0 0 0 99.87.625a10.32 10.32 0 0 0-7.076 0 7.53 7.53 0 0 0-2.746 1.777 8.572 8.572 0 0 0-1.743 2.71 9.372 9.372 0 0 0 0 6.775 8.573 8.573 0 0 0 1.743 2.71 8.844 8.844 0 0 0 2.746 1.777 10.32 10.32 0 0 0 7.076 0 7.53 7.53 0 0 0 2.746-1.777 8.573 8.573 0 0 0 1.747-2.71 8.998 8.998 0 0 0 .634-3.387z"/><path fill="#fff" d="M122 16.783h-3.485V9.645h-7.444v7.19h-3.538V.16h3.485v7.085h7.445V.163h3.485v16.62z"/>
    </symbol>
    <symbol id="play" viewBox="0 0 13 16">
      <path id="Polygon_1" d="M8,0l8,13H0Z" transform="rotate(90 6.5 6.5)"/>
    </symbol>
    <symbol id="play_big" viewBox="0 0 100 100">
      <path d="M49.3.005A50,50,0,1,0,100,49.3,50,50,0,0,0,49.3.005Zm18.016,52.4L42.537,68.381A3.125,3.125,0,0,1,37.72,65.8l-.437-31.247a3.125,3.125,0,0,1,4.743-2.717L67.243,47.108a3.126,3.126,0,0,1,.074,5.3Z" fill="#fff"/><path d="M67.281,52.651h0l-25,15.625a3.126,3.126,0,0,1-4.781-2.65V34.376a3.125,3.125,0,0,1,4.781-2.65l25,15.624a3.126,3.126,0,0,1,0,5.3"/>
    </symbol></svg>