<svg version="1.0" xmlns="http://www.w3.org/2000/svg" width="933.333" height="933.333" viewBox="0 0 700 700"><path d="M2419 6968 c0 -18 -2 -42 -4 -52 -2 -10 -7 -60 -10 -110 -4 -50 -8 -93 -10 -96 -17 -30 -27 -468 -12 -590 32 -274 116 -457 292 -636 96 -99 190 -166 395 -284 48 -28 208 -102 407 -191 421 -186 687 -326 837 -442 228 -176 382 -374 481 -617 l23 -54 -93 -62 c-274 -182 -578 -462 -722 -666 -154 -217 -263 -480 -312 -753 -6 -33 -13 -70 -15 -82 -4 -21 -7 -46 -22 -188 -3 -33 -7 -61 -9 -63 -7 -7 -173 31 -284 65 -263 80 -477 182 -731 348 -174 115 -269 194 -460 382 -90 90 -166 163 -168 163 -14 0 -238 -58 -352 -90 -133 -39 -217 -66 -275 -90 -16 -7 -34 -14 -40 -15 -5 -2 -57 -24 -115 -50 -235 -105 -462 -238 -667 -391 -162 -120 -249 -197 -410 -361 l-143 -145 0 -77 1 -76 20 25 c40 48 112 126 187 204 444 456 1025 785 1646 931 l118 28 119 -121 c406 -413 892 -686 1475 -827 l71 -17 -1 -71 c-2 -96 10 -225 30 -317 17 -83 62 -229 75 -246 5 -6 7 -13 5 -15 -9 -9 121 -190 180 -251 78 -82 105 -105 195 -165 152 -102 332 -198 544 -290 193 -83 192 -83 375 -171 85 -41 191 -92 235 -113 67 -31 298 -177 315 -198 3 -3 37 -34 77 -68 l71 -63 204 0 205 0 -13 78 c-7 42 -18 103 -23 136 -13 72 -55 165 -112 243 -84 116 -326 339 -464 428 -79 51 -434 232 -607 311 -57 26 -131 59 -166 75 -35 16 -66 29 -70 29 -4 0 -58 25 -120 55 -339 165 -616 377 -696 532 -15 30 -8 52 12 39 29 -18 421 -27 592 -13 134 11 148 13 375 52 61 11 303 79 391 111 453 161 837 409 1168 755 218 227 382 461 530 756 l57 113 -3 122 -3 123 -19 -50 c-21 -55 -132 -286 -168 -350 -126 -225 -252 -413 -344 -515 -12 -14 -34 -38 -49 -55 -270 -304 -596 -544 -971 -714 -118 -54 -332 -134 -387 -145 -12 -3 -49 -12 -82 -21 -64 -18 -83 -22 -130 -31 -16 -3 -48 -9 -70 -14 -22 -5 -62 -12 -90 -16 -27 -3 -59 -8 -70 -10 -94 -18 -491 -26 -640 -12 -137 13 -162 19 -173 42 -49 101 -27 183 95 370 93 142 161 226 277 341 171 170 332 301 521 423 184 118 189 127 210 376 3 37 9 87 14 110 5 22 12 70 16 106 4 36 9 79 11 95 5 38 4 329 -1 370 -2 17 -6 55 -10 85 -10 86 -45 250 -67 307 -71 190 -220 383 -423 545 -71 57 -262 184 -293 195 -9 3 -28 14 -42 23 -60 41 -333 173 -600 290 -269 117 -347 158 -510 265 -224 148 -339 270 -420 447 -67 150 -85 280 -66 501 l8 97 -51 0 c-51 0 -51 0 -52 -32z" transform="matrix(.1 0 0 -.1 0 700)"/><path d="M4663 6858 c16 -335 99 -526 327 -748 169 -166 356 -277 750 -448 301 -131 601 -274 640 -307 8 -6 22 -15 30 -19 23 -10 48 -26 128 -80 142 -96 328 -291 420 -439 l37 -61 3 389 2 389 -27 40 c-44 64 -221 238 -304 299 -225 164 -311 210 -789 423 -313 138 -584 285 -727 393 -94 71 -200 182 -245 256 l-33 54 -109 1 -109 0 6 -142z" transform="matrix(.1 0 0 -.1 0 700)"/><path d="M5816 3979 c-49 -58 -93 -166 -171 -418 -25 -82 -30 -179 -12 -222 23 -56 85 -95 180 -114 15 -3 39 -7 55 -10 125 -25 201 -78 219 -151 l9 -39 31 34 c18 19 47 66 66 106 32 66 100 259 111 316 2 13 10 48 16 78 16 72 7 153 -21 192 -28 40 -80 63 -204 89 -55 12 -123 32 -151 46 -44 21 -55 32 -73 74 -12 28 -23 50 -25 50 -2 0 -16 -14 -30 -31z" transform="matrix(.1 0 0 -.1 0 700)"/></svg>