<svg xmlns="http://www.w3.org/2000/svg" xmlns:xlink="http://www.w3.org/1999/xlink" width="200" height="128.891" viewBox="0 0 200 128.891"><defs><linearGradient id="linear-gradient" x1="-15.443" y1="5.755" x2="-15.443" y2="5.767" gradientUnits="objectBoundingBox"><stop offset="0" stop-color="gray" stop-opacity=".251"/><stop offset=".54" stop-color="gray" stop-opacity=".122"/><stop offset="1" stop-color="gray" stop-opacity=".102"/></linearGradient><linearGradient id="linear-gradient-2" x1="-101.582" y1="45.679" x2="-101.375" y2="45.679" xlink:href="#linear-gradient"/></defs><g id="на_автомобиле_-01" data-name="на автомобиле -01" transform="translate(-13.533)"><path id="Path_1154" data-name="Path 1154" d="M22.858,101.4H100.5c.961-.4,1.919-.8,2.869-1.229q3.726-1.684,7.32-3.662a93.617,93.617,0,0,0,11.437-7.479q1.368-1.044,2.7-2.145c.615-.507,1.224-1.025,1.843-1.528a23.241,23.241,0,0,1,4.147-2.824,14.808,14.808,0,0,1,1.388-.612V52.578H97.094V59.11H81.686V11.331H63.551v19.1h-8.97V19.124H47.17V7.04h-3.4V0c-.295.107-.59.215-.884.331V7.04H39.564V19.132H32.155V30.443H21.428v70.323c.45.2.9.41,1.353.606Z" transform="translate(.573)" fill="#0c9add" opacity=".1"/><path id="Rectangle_464" data-name="Rectangle 464" transform="translate(49.921 40.467)" fill="#0c9add" opacity=".1" d="M0 0H5.276V5.276H0z"/><path id="Rectangle_465" data-name="Rectangle 465" transform="translate(29.775 40.467)" fill="#0c9add" opacity=".1" d="M0 0H5.276V5.276H0z"/><path id="Path_1155" data-name="Path 1155" d="M175.02,30.443H164.294V19.132h-7.409V7.04h-3.317V.331c-.294-.117-.589-.224-.884-.331V7.04h-3.4V19.124h-7.411V30.435H132.9v-19.1H114.762V59.11H99.354V52.578H64.248V81.923a14.807,14.807,0,0,1,1.388.612,23.24,23.24,0,0,1,4.147,2.824c.619.5,1.228,1.021,1.843,1.528q1.331,1.1,2.7,2.145A93.534,93.534,0,0,0,85.76,96.512q3.594,1.977,7.32,3.662a102.225,102.225,0,0,0,27.1,7.9q4.038.6,8.105.864a98.1,98.1,0,0,0,45.382-7.566c.453-.2.9-.4,1.353-.606Z" transform="translate(3.681)" fill="#0c9add" opacity=".1"/><ellipse id="Ellipse_182" data-name="Ellipse 182" cx="32.288" cy="3.572" rx="32.288" ry="3.572" transform="translate(80.233 121.747)" fill="#0c9add" opacity=".1"/><path id="Rectangle_466" data-name="Rectangle 466" transform="translate(123.861 18.519)" fill="#0c9add" opacity=".1" d="M0 0H8.105V8.105H0z"/><path id="Rectangle_467" data-name="Rectangle 467" transform="translate(123.861 35.322)" fill="#0c9add" opacity=".1" d="M0 0H8.105V8.105H0z"/><path id="Rectangle_468" data-name="Rectangle 468" transform="translate(123.861 52.123)" fill="#0c9add" opacity=".1" d="M0 0H8.105V8.105H0z"/><path id="Rectangle_469" data-name="Rectangle 469" transform="translate(69.414 18.519)" fill="#0c9add" opacity=".1" d="M0 0H8.105V8.105H0z"/><path id="Rectangle_470" data-name="Rectangle 470" transform="translate(69.414 35.322)" fill="#0c9add" opacity=".1" d="M0 0H8.105V8.105H0z"/><path id="Rectangle_471" data-name="Rectangle 471" transform="translate(69.414 50.475)" fill="#0c9add" opacity=".1" d="M0 0H8.105V8.105H0z"/><path id="Rectangle_472" data-name="Rectangle 472" transform="translate(123.861 68.926)" fill="#eb1c24" opacity=".1" d="M0 0H8.105V8.105H0z"/><path id="Rectangle_473" data-name="Rectangle 473" transform="translate(123.861 85.729)" fill="#eb1c24" opacity=".1" d="M0 0H8.105V8.105H0z"/><path id="Path_1156" data-name="Path 1156" d="M124.5,95.593v6.4q-4.067-.269-8.105-.864V95.593Z" transform="translate(7.465 6.938)" fill="#eb1c24" opacity=".1"/><path id="Rectangle_474" data-name="Rectangle 474" transform="translate(70.602 63.052)" fill="#eb1c24" opacity=".1" d="M0 0H28.372V3.671H0z"/><path id="Rectangle_475" data-name="Rectangle 475" transform="translate(70.602 74.202)" fill="#eb1c24" opacity=".1" d="M0 0H28.372V3.671H0z"/><path id="Path_1157" data-name="Path 1157" d="M94.918,79.577v3.669H73.952q-1.368-1.044-2.7-2.145c-.615-.507-1.224-1.025-1.843-1.528Z" transform="translate(4.055 5.775)" fill="#eb1c24" opacity=".1"/><path id="Path_1158" data-name="Path 1158" d="M93.838,89.983v3.671H91.625Q87.9,91.962,84.3,89.983Z" transform="translate(5.136 6.531)" fill="#eb1c24" opacity=".1"/><path id="Rectangle_476" data-name="Rectangle 476" transform="translate(145.505 40.467)" fill="#0c9add" opacity=".1" d="M0 0H5.276V5.276H0z"/><path id="Rectangle_477" data-name="Rectangle 477" transform="translate(31.253 52.651)" fill="#eb1c24" opacity=".1" d="M0 0H5.276V5.276H0z"/><path id="Rectangle_478" data-name="Rectangle 478" transform="translate(31.253 64.908)" fill="#eb1c24" opacity=".1" d="M0 0H5.276V5.276H0z"/><path id="Rectangle_479" data-name="Rectangle 479" transform="translate(31.253 77.166)" fill="#eb1c24" opacity=".1" d="M0 0H5.276V5.276H0z"/><path id="Rectangle_480" data-name="Rectangle 480" transform="translate(165.651 40.467)" fill="#0c9add" opacity=".1" d="M0 0H5.276V5.276H0z"/><path id="Rectangle_481" data-name="Rectangle 481" transform="translate(145.505 53.483)" fill="#0c9add" opacity=".1" d="M0 0H5.276V5.276H0z"/><path id="Rectangle_482" data-name="Rectangle 482" transform="translate(165.651 53.483)" fill="#0c9add" opacity=".1" d="M0 0H5.276V5.276H0z"/><path id="Rectangle_483" data-name="Rectangle 483" transform="translate(145.505 66.498)" fill="#eb1c24" opacity=".1" d="M0 0H5.276V5.276H0z"/><path id="Rectangle_484" data-name="Rectangle 484" transform="translate(165.651 66.498)" fill="#0c9add" opacity=".1" d="M0 0H5.276V5.276H0z"/><path id="Rectangle_485" data-name="Rectangle 485" transform="translate(145.505 79.513)" fill="#eb1c24" opacity=".1" d="M0 0H5.276V5.276H0z"/><path id="Rectangle_486" data-name="Rectangle 486" transform="translate(165.651 79.513)" fill="#eb1c24" opacity=".1" d="M0 0H5.276V5.276H0z"/><path id="Rectangle_487" data-name="Rectangle 487" transform="translate(145.505 92.53)" fill="#eb1c24" opacity=".1" d="M0 0H5.276V5.276H0z"/><path id="Rectangle_488" data-name="Rectangle 488" transform="translate(165.651 92.53)" fill="#eb1c24" opacity=".1" d="M0 0H5.276V5.276H0z"/><path id="Path_1159" data-name="Path 1159" d="M136.575,101.805V98.4h5.276v2.918Z" transform="translate(8.93 7.142)" fill="#eb1c24" opacity=".1"/><path id="Path_1160" data-name="Path 1160" d="M18.7,77.671c.171.1.342.189.516.282v-.092H20.7V78.7l.316.144v-.98h1.481V79.47l.316.121V77.864h1.573v2.27l.316.1V77.671Z" transform="translate(.375 5.637)" fill="#eb1c24" opacity=".1"/><path id="Path_1161" data-name="Path 1161" d="M76.978,4.1s-4.5-.27-3.969,2.888a.77.77,0,0,0,.4.812s.01-.235.463-.156a2.028,2.028,0,0,0,.49.025,1.01,1.01,0,0,0,.6-.248h0a3.581,3.581,0,0,0,1.761-2.6s.365-.453.35-.567l-.756.322a1.366,1.366,0,0,1,.055,1s-.025-.986-.171-.965c-.03,0-.4.189-.4.189a2.252,2.252,0,0,1,.107,1.652s.129-1.18-.25-1.581l-.536.312a2.366,2.366,0,0,1,.168,1.793,3.359,3.359,0,0,0-.282-1.716l-.484.379a2.313,2.313,0,0,1,.189,1.642s-.04-1.437-.3-1.548a3.01,3.01,0,0,0-.49.528s.337.708.129,1.08c0,0-.129-.959-.233-.965a3.173,3.173,0,0,0-.468,1.073,2.313,2.313,0,0,1,.365-1.135,1.278,1.278,0,0,0-.644.335s.066-.448.756-.488a2.958,2.958,0,0,1,.443-.511,2.8,2.8,0,0,0-1.1.127A1.236,1.236,0,0,1,74.4,5.547l.481-.389a4.111,4.111,0,0,0-1.287.01A1.542,1.542,0,0,1,75,5.06l.522-.312A4.786,4.786,0,0,0,74.3,4.64a1.874,1.874,0,0,1,1.375.023l.379-.168s-.567-.107-.726-.127-.174-.064-.174-.064a1.951,1.951,0,0,1,1.055.117A5.238,5.238,0,0,0,76.978,4.1Z" transform="translate(4.313 .297)" fill="#0c9add" opacity=".1"/><path id="Path_1162" data-name="Path 1162" d="M181.114,83.168s-8.574-.515-7.553,5.5a1.466,1.466,0,0,0,.759,1.546s.018-.447.882-.3a3.829,3.829,0,0,0,.933.047,1.926,1.926,0,0,0,1.137-.472h0a6.814,6.814,0,0,0,3.352-4.94s.694-.861.665-1.08l-1.439.612a2.6,2.6,0,0,1,.1,1.911s-.047-1.876-.325-1.837c-.057,0-.753.359-.753.359a4.287,4.287,0,0,1,.2,3.144s.245-2.246-.475-3.01l-1.021.594a4.509,4.509,0,0,1,.321,3.413,6.389,6.389,0,0,0-.537-3.266l-.92.721a4.4,4.4,0,0,1,.359,3.125s-.075-2.735-.565-2.946a5.79,5.79,0,0,0-.933,1s.641,1.347.245,2.056c0,0-.245-1.826-.443-1.837a6.067,6.067,0,0,0-.89,2.041,4.405,4.405,0,0,1,.694-2.16,2.42,2.42,0,0,0-1.225.637s.127-.854,1.439-.929a5.6,5.6,0,0,1,.843-.972,5.3,5.3,0,0,0-2.088.241,2.35,2.35,0,0,1,2.325-.443l.915-.741a7.788,7.788,0,0,0-2.45.018,2.939,2.939,0,0,1,2.683-.2l.994-.594a9.046,9.046,0,0,0-2.33-.2,3.569,3.569,0,0,1,2.617.043l.721-.321s-1.08-.2-1.383-.241-.33-.122-.33-.122a3.726,3.726,0,0,1,2.009.222A9.776,9.776,0,0,0,181.114,83.168Z" transform="translate(11.608 6.035)" fill="#0c9add" opacity=".1"/><path id="Path_1163" data-name="Path 1163" d="M51.194,105.651s-8.574-.515-7.553,5.5a1.466,1.466,0,0,0,.759,1.546s.018-.447.882-.3a3.829,3.829,0,0,0,.933.047,1.926,1.926,0,0,0,1.137-.472h0a6.814,6.814,0,0,0,3.352-4.94s.694-.861.665-1.08l-1.439.612a2.6,2.6,0,0,1,.1,1.911s-.047-1.876-.325-1.837c-.057,0-.753.359-.753.359a4.287,4.287,0,0,1,.2,3.144s.245-2.246-.475-3.01l-1.021.594a4.508,4.508,0,0,1,.321,3.413,6.389,6.389,0,0,0-.537-3.266l-.92.721a4.4,4.4,0,0,1,.359,3.125s-.075-2.735-.565-2.946a5.791,5.791,0,0,0-.933,1s.641,1.347.245,2.056c0,0-.245-1.826-.443-1.837a6.046,6.046,0,0,0-.89,2.041,4.405,4.405,0,0,1,.694-2.16,2.42,2.42,0,0,0-1.225.637s.127-.854,1.439-.929a5.6,5.6,0,0,1,.843-.972,5.3,5.3,0,0,0-2.088.241,2.35,2.35,0,0,1,2.325-.443l.915-.741a7.788,7.788,0,0,0-2.45.018,2.939,2.939,0,0,1,2.683-.2l.994-.594a9.046,9.046,0,0,0-2.33-.2,3.569,3.569,0,0,1,2.617.043l.721-.321s-1.08-.2-1.383-.241-.33-.122-.33-.122a3.726,3.726,0,0,1,2.009.222A9.776,9.776,0,0,0,51.194,105.651Z" transform="translate(2.179 7.667)" fill="#0c9add" opacity=".1"/><path id="Path_1164" data-name="Path 1164" d="M125.527,27.5s-1.54,4.246,1.64,4.635a.773.773,0,0,0,.892-.153s-.223-.076-.017-.488a2.1,2.1,0,0,0,.161-.463,1.022,1.022,0,0,0-.066-.644h0a3.577,3.577,0,0,0-1.984-2.429s-.329-.478-.444-.5l.1.821a1.359,1.359,0,0,1,.978.233s-.946-.255-.965-.107c0,.03.07.429.07.429a2.255,2.255,0,0,1,1.615.365s-1.093-.458-1.588-.215l.148.6a2.362,2.362,0,0,1,1.769.349,3.357,3.357,0,0,0-1.727-.215l.225.567a2.342,2.342,0,0,1,1.628.284s-1.394-.379-1.568-.156a2.978,2.978,0,0,0,.367.619s.773-.121,1.073.189c0,0-.956-.149-.989-.049a3.25,3.25,0,0,0,.892.756,2.314,2.314,0,0,1-.981-.669,1.292,1.292,0,0,0,.138.715s-.412-.189-.253-.858a3.007,3.007,0,0,1-.365-.567,2.759,2.759,0,0,0-.189,1.085,1.227,1.227,0,0,1,.124-1.237l-.24-.567a3.782,3.782,0,0,0-.35,1.229,1.558,1.558,0,0,1,.3-1.379l-.151-.588a4.7,4.7,0,0,0-.448,1.135,1.878,1.878,0,0,1,.413-1.313l-.055-.407s-.267.507-.329.661-.107.149-.107.149a1.943,1.943,0,0,1,.412-.978A4.642,4.642,0,0,0,125.527,27.5Z" transform="translate(8.101 1.993)" fill="#0c9add" opacity=".1"/><path id="Path_1165" data-name="Path 1165" d="M93.567,15.088s-1.541,4.245,1.64,4.632a.766.766,0,0,0,.891-.153s-.221-.074-.017-.488a2.125,2.125,0,0,0,.163-.461,1.029,1.029,0,0,0-.068-.644h0a3.576,3.576,0,0,0-1.989-2.425s-.329-.476-.444-.5l.094.823a1.4,1.4,0,0,1,.981.233s-.946-.257-.965-.107c0,.03.07.429.07.429a2.249,2.249,0,0,1,1.609.364s-1.093-.458-1.587-.215l.148.6a2.372,2.372,0,0,1,1.767.348,3.372,3.372,0,0,0-1.725-.215l.225.567a2.347,2.347,0,0,1,1.628.282s-1.394-.379-1.568-.156a2.959,2.959,0,0,0,.367.62s.773-.123,1.073.189c0,0-.956-.149-.989-.051a3.275,3.275,0,0,0,.895.756,2.309,2.309,0,0,1-.981-.671,1.277,1.277,0,0,0,.138.716s-.412-.189-.255-.858a2.916,2.916,0,0,1-.364-.567,2.735,2.735,0,0,0-.189,1.088,1.232,1.232,0,0,1,.124-1.237L94,17.423a3.833,3.833,0,0,0-.352,1.231,1.56,1.56,0,0,1,.3-1.38l-.149-.588a4.7,4.7,0,0,0-.448,1.135,1.864,1.864,0,0,1,.411-1.313l-.055-.4s-.265.507-.329.661-.107.148-.107.148a1.945,1.945,0,0,1,.411-.978A4.786,4.786,0,0,0,93.567,15.088Z" transform="translate(5.781 1.092)" fill="#0c9add" opacity=".1"/><path id="Path_1166" data-name="Path 1166" d="M53.725,47.446s-1.54,4.246,1.64,4.632a.769.769,0,0,0,.892-.153s-.223-.074-.017-.486a2.1,2.1,0,0,0,.161-.463,1.022,1.022,0,0,0-.066-.644h0a3.576,3.576,0,0,0-1.989-2.425s-.331-.476-.446-.5l.1.823a1.366,1.366,0,0,1,.98.233s-.946-.257-.972-.107c0,.03.07.429.07.429a2.255,2.255,0,0,1,1.615.364s-1.093-.458-1.588-.215l.149.6a2.367,2.367,0,0,1,1.767.349,3.38,3.38,0,0,0-1.727-.215l.225.567a2.347,2.347,0,0,1,1.628.282s-1.394-.379-1.568-.156a2.922,2.922,0,0,0,.369.62s.772-.123,1.073.189c0,0-.956-.149-.989-.051a3.232,3.232,0,0,0,.892.756,2.315,2.315,0,0,1-.98-.671,1.286,1.286,0,0,0,.136.716s-.411-.189-.253-.858a2.973,2.973,0,0,1-.365-.567,2.793,2.793,0,0,0-.189,1.088,1.232,1.232,0,0,1,.124-1.237l-.238-.567a3.832,3.832,0,0,0-.352,1.231,1.558,1.558,0,0,1,.3-1.379l-.151-.59a4.7,4.7,0,0,0-.448,1.135,1.882,1.882,0,0,1,.412-1.313l-.055-.4s-.267.507-.329.661-.107.148-.107.148a1.956,1.956,0,0,1,.412-.978A4.59,4.59,0,0,0,53.725,47.446Z" transform="translate(2.89 3.441)" fill="#eb1c24" opacity=".1"/><path id="Path_1167" data-name="Path 1167" d="M48.025,10.129s-1.541,4.246,1.638,4.635a.773.773,0,0,0,.892-.153s-.221-.076-.017-.488a2.01,2.01,0,0,0,.161-.463,1.022,1.022,0,0,0-.066-.644h0a3.573,3.573,0,0,0-1.989-2.423s-.329-.478-.446-.5l.1.821a1.366,1.366,0,0,1,.98.233s-.946-.255-.965-.107c0,.03.07.429.07.429a2.249,2.249,0,0,1,1.609.364s-1.093-.456-1.587-.215l.148.6a2.357,2.357,0,0,1,1.767.349,3.372,3.372,0,0,0-1.725-.215l.225.567a2.344,2.344,0,0,1,1.627.282s-1.394-.379-1.568-.153a2.888,2.888,0,0,0,.369.619s.772-.121,1.073.189c0,0-.956-.149-.989-.049a3.282,3.282,0,0,0,.892.756,2.31,2.31,0,0,1-.98-.669,1.273,1.273,0,0,0,.138.715s-.412-.189-.255-.858a3.007,3.007,0,0,1-.365-.567,2.793,2.793,0,0,0-.189,1.088,1.232,1.232,0,0,1,.124-1.237l-.238-.567A3.812,3.812,0,0,0,48.1,13.7a1.557,1.557,0,0,1,.3-1.379l-.151-.588a4.748,4.748,0,0,0-.448,1.135,1.877,1.877,0,0,1,.412-1.313l-.055-.407s-.265.507-.329.66-.107.148-.107.148a1.956,1.956,0,0,1,.412-.978A4.814,4.814,0,0,0,48.025,10.129Z" transform="translate(2.476 .733)" fill="#0c9add" opacity=".1"/><path id="Path_1168" data-name="Path 1168" d="M135.7,5.332s1.189,4.35,4.01,2.837a.772.772,0,0,0,.644-.644s-.225.069-.295-.388a2.2,2.2,0,0,0-.134-.473,1.033,1.033,0,0,0-.429-.488h0a3.587,3.587,0,0,0-3.027-.834s-.545-.2-.644-.149l.55.617a1.385,1.385,0,0,1,.934-.379s-.925.339-.858.469c.013.028.307.314.307.314a2.238,2.238,0,0,1,1.528-.634s-1.157.257-1.419.743l.469.409A2.361,2.361,0,0,1,138.976,6s-1.2.31-1.536.817l.515.339a2.294,2.294,0,0,1,1.493-.709s-1.35.5-1.37.778a2.889,2.889,0,0,0,.656.295s.567-.545.981-.468c0,0-.867.429-.838.53a3.353,3.353,0,0,0,1.164.1,2.3,2.3,0,0,1-1.188.017,1.28,1.28,0,0,0,.526.507s-.446.082-.7-.556a3,3,0,0,1-.626-.255,2.776,2.776,0,0,0,.471,1,1.226,1.226,0,0,1-.611-1.082l-.524-.329a3.941,3.941,0,0,0,.429,1.209,1.558,1.558,0,0,1-.548-1.3l-.463-.394a4.7,4.7,0,0,0,.293,1.192,1.893,1.893,0,0,1-.422-1.311l-.278-.3s.076.567.107.728,0,.189,0,.189a1.936,1.936,0,0,1-.227-1.036A4.806,4.806,0,0,0,135.7,5.332Z" transform="translate(8.866 .376)" fill="#0c9add" opacity=".1"/><path id="Path_1169" data-name="Path 1169" d="M157.709,105.469s2.241,8.194,7.554,5.344a1.455,1.455,0,0,0,1.212-1.212s-.425.13-.556-.731a4.289,4.289,0,0,0-.252-.891,1.947,1.947,0,0,0-.808-.919h0a6.759,6.759,0,0,0-5.7-1.572s-1.026-.378-1.212-.281l1.036,1.162a2.606,2.606,0,0,1,1.76-.713s-1.742.638-1.616.883c.025.053.578.592.578.592a4.208,4.208,0,0,1,2.879-1.194s-2.181.485-2.673,1.4l.883.77a4.444,4.444,0,0,1,3.1-1.386s-2.259.583-2.894,1.539l.97.638a4.325,4.325,0,0,1,2.812-1.335s-2.544.942-2.581,1.465a5.452,5.452,0,0,0,1.237.556s1.068-1.026,1.849-.881c0,0-1.632.808-1.578,1a6.347,6.347,0,0,0,2.192.186,4.329,4.329,0,0,1-2.238.032,2.427,2.427,0,0,0,.99.956s-.841.153-1.326-1.047a5.562,5.562,0,0,1-1.18-.481,5.224,5.224,0,0,0,.887,1.877,2.312,2.312,0,0,1-1.152-2.039l-.988-.62a7.45,7.45,0,0,0,.808,2.277,2.931,2.931,0,0,1-1.033-2.451l-.873-.741a8.849,8.849,0,0,0,.551,2.245,3.565,3.565,0,0,1-.794-2.469l-.523-.564s.144,1.068.2,1.372,0,.356,0,.356a3.647,3.647,0,0,1-.428-1.952A8.782,8.782,0,0,0,157.709,105.469Z" transform="translate(10.464 7.634)" fill="#0c9add" opacity=".1"/><path id="Path_1170" data-name="Path 1170" d="M88.75,35.321s1.189,4.35,4.013,2.837a.772.772,0,0,0,.644-.644s-.223.068-.295-.388a2.056,2.056,0,0,0-.134-.473,1.028,1.028,0,0,0-.429-.488h0a3.587,3.587,0,0,0-3.027-.834s-.545-.2-.651-.149l.552.617a1.383,1.383,0,0,1,.934-.379s-.925.339-.858.471c.013.027.307.312.307.312a2.238,2.238,0,0,1,1.528-.634s-1.156.257-1.417.743l.468.409a2.361,2.361,0,0,1,1.644-.736s-1.2.31-1.536.817l.515.339a2.3,2.3,0,0,1,1.494-.709s-1.35.5-1.372.78a2.966,2.966,0,0,0,.659.293s.567-.545.98-.468c0,0-.867.429-.836.53a3.353,3.353,0,0,0,1.164.1,2.3,2.3,0,0,1-1.188.017,1.274,1.274,0,0,0,.526.507s-.446.082-.706-.556a3,3,0,0,1-.626-.255,2.817,2.817,0,0,0,.473,1,1.233,1.233,0,0,1-.611-1.084l-.524-.329a3.935,3.935,0,0,0,.422,1.209,1.558,1.558,0,0,1-.548-1.3l-.461-.394a4.747,4.747,0,0,0,.292,1.192,1.891,1.891,0,0,1-.419-1.311l-.278-.3s.076.567.107.728,0,.189,0,.189a1.936,1.936,0,0,1-.227-1.036S88.794,35.281,88.75,35.321Z" transform="translate(5.459 2.553)" fill="#0c9add" opacity=".1"/><path id="Path_1171" data-name="Path 1171" d="M162.776,95.692l1.9,2.011,3.02-5.323-.272-.6Z" transform="translate(10.831 6.661)" fill="#eb1c24"/><path id="Path_1172" data-name="Path 1172" d="M162.776,95.692l1.9,2.011,3.02-5.323-.272-.6Z" transform="translate(10.831 6.661)" opacity=".2"/><path id="Path_1173" data-name="Path 1173" d="M39.6,92.848c0,10.1-6.917,12.245-13.85,12.245S14.917,96.58,14.917,86.476s5.62-18.292,12.549-18.292S39.6,82.746,39.6,92.848Z" transform="translate(.1 4.948)" fill="#636780"/><path id="Path_1174" data-name="Path 1174" d="M39.6,92.848c0,10.1-6.917,12.245-13.85,12.245S14.917,96.58,14.917,86.476s5.62-18.292,12.549-18.292S39.6,82.746,39.6,92.848Z" transform="translate(.1 4.948)" fill="#3f3d56"/><path id="Path_1175" data-name="Path 1175" d="M34.828,86.778c0,10.1-4.453,18.292-9.946,18.292s-10.164-8.19-10.164-18.292a34.641,34.641,0,0,1-.055-4.06c1-8.152,5.485-14.231,10.214-14.231C30.376,68.488,34.828,76.677,34.828,86.778Z" transform="translate(.079 4.97)" fill="#636780"/><path id="Path_1176" data-name="Path 1176" d="M33.313,44.169S24.6,53.945,21.826,62.092L97.112,70.4l40.329-8.311s-15.973-19.139-20.289-19.879S33.313,44.169,33.313,44.169Z" transform="translate(.602 3.054)" fill="#eb1c24"/><path id="Path_1177" data-name="Path 1177" d="M33.313,44.169S24.6,53.945,21.826,62.092L97.112,70.4l40.329-8.311s-15.973-19.139-20.289-19.879S33.313,44.169,33.313,44.169Z" transform="translate(.602 3.054)" opacity=".4"/><path id="Path_1178" data-name="Path 1178" d="M84.041,67.326l12.088,33.9V92.647l3.364-9.606,9.319-4.125,11.815,5.363,4.226,1.32.369-7.82-14.051-6.926-6.543-3.138-14.967-1.3-4.129-.738Z" transform="translate(5.117 4.766)" fill="#eb1c24"/><path id="Path_1179" data-name="Path 1179" d="M89.227,70.842,100.221,72.1c-.5-4.39,2.76-4.39,2.76-4.39l-11-1.9H86.849" transform="translate(5.321 4.776)" fill="#eb1c24"/><path id="Path_1180" data-name="Path 1180" d="M95.4,105.546H103.2l22.569-.756s.488,4.3,6.435,3.292c0,0,3.272.215,3.624-1.568s-7.453-18.21-7.453-18.21l-10.64-7.945-9.647-2.341-6.926,2.038-4.4,7-2.776,9.581Z" transform="translate(5.839 5.662)" fill="#636780"/><path id="Path_1181" data-name="Path 1181" d="M95.4,105.546H103.2l22.569-.756s.488,4.3,6.435,3.292c0,0,3.272.215,3.624-1.568s-7.453-18.21-7.453-18.21l-10.64-7.945-9.647-2.341-6.926,2.038-4.4,7-2.776,9.581Z" transform="translate(5.839 5.662)" fill="#3f3d56"/><path id="Path_1182" data-name="Path 1182" d="M34.475,46.249c-1.117.912-4.642,4.183-7.58,11.1a1.672,1.672,0,0,0,.88,2.2,1.651,1.651,0,0,0,.445.121l17.7,2.294a2.675,2.675,0,0,0,2.943-2.016l3.11-12.695a1.268,1.268,0,0,0-.929-1.534,1.25,1.25,0,0,0-.327-.036l-15.468.287a1.255,1.255,0,0,0-.778.284Z" transform="translate(.96 3.315)" fill="#f0f0f4"/><path id="Path_1183" data-name="Path 1183" d="M34.479,46.155c-1.117.912-4.642,4.183-7.58,11.1a1.672,1.672,0,0,0,.88,2.2,1.651,1.651,0,0,0,.445.121l17.7,2.294a2.675,2.675,0,0,0,2.943-2.016l3.11-12.7a1.268,1.268,0,0,0-.929-1.534,1.25,1.25,0,0,0-.327-.036l-15.468.287a1.255,1.255,0,0,0-.778.284Z" transform="translate(.96 3.308)" fill="#0c9add" opacity=".1"/><path id="Path_1184" data-name="Path 1184" d="M58.32,45.664l19.934-.189a3.387,3.387,0,0,1,3.206,2.41L87.681,62a2.424,2.424,0,0,1-2.273,3.283l-29.1-1.92a4.133,4.133,0,0,1-3.67-4.55,4.193,4.193,0,0,1,.106-.588l2.109-9.585A3.662,3.662,0,0,1,58.32,45.664Z" transform="translate(2.836 3.3)" fill="#f0f0f4"/><path id="Path_1185" data-name="Path 1185" d="M58.32,45.664l19.934-.189a3.387,3.387,0,0,1,3.206,2.41L87.681,62a2.424,2.424,0,0,1-2.273,3.283l-29.1-1.92a4.133,4.133,0,0,1-3.67-4.55,4.193,4.193,0,0,1,.106-.588l2.109-9.585A3.662,3.662,0,0,1,58.32,45.664Z" transform="translate(2.836 3.3)" fill="#0c9add" opacity=".1"/><path id="Path_1186" data-name="Path 1186" d="M47.481,65.5l19.934-.189a3.387,3.387,0,0,1,3.206,2.41l6.221,14.117a2.424,2.424,0,0,1-2.273,3.283l-29.1-1.92a4.133,4.133,0,0,1-3.67-4.55,4.194,4.194,0,0,1,.106-.588l2.109-9.585A3.662,3.662,0,0,1,47.481,65.5Z" transform="translate(2.05 4.74)" fill="#0c9add" opacity=".1"/><path id="Path_1187" data-name="Path 1187" d="M86.915,45.587c5.45-.1,19.892-.511,27.076-2.166,0,0,12.335,9.287,16.024,16.295,0,0-19.218,4.678-32.492,5.311a5.029,5.029,0,0,1-4.761-2.837L85.706,47.564a1.373,1.373,0,0,1,1.21-1.978Z" transform="translate(5.228 3.151)" fill="#f0f0f4"/><path id="Path_1188" data-name="Path 1188" d="M86.915,45.587c5.45-.1,19.892-.511,27.076-2.166,0,0,12.335,9.287,16.024,16.295,0,0-19.218,4.678-32.492,5.311a5.029,5.029,0,0,1-4.761-2.837L85.706,47.564a1.373,1.373,0,0,1,1.21-1.978Z" transform="translate(5.228 3.151)" fill="#0c9add" opacity=".1"/><path id="Path_1189" data-name="Path 1189" d="M93.331,47.449c2.27-.04,6.7-.157,11.023-.481a20.721,20.721,0,0,1,17.068,6.9l.141.159a2.693,2.693,0,0,1-1.472,4.4,133.672,133.672,0,0,1-19.169,2.888A3.593,3.593,0,0,1,97.5,59.287L92.468,48.85a.981.981,0,0,1,.458-1.309.967.967,0,0,1,.407-.1Z" transform="translate(5.722 3.404)" fill="#fff" opacity=".1"/><path id="Path_1190" data-name="Path 1190" d="M101.077,101.652v5.214l-57.629-8.8a7.33,7.33,0,0,0-4.5-.379c-2.081-1.016-3.594-4.979-3.637-5.108h0l1.088-3.149L27.554,74.823,15.8,75.311c1.848-14.776,7.169-15.48,7.169-15.48l69.044,6.412Z" transform="translate(.165 4.342)" fill="#eb1c24"/><path id="Path_1191" data-name="Path 1191" d="M84.109,70.09a3.448,3.448,0,0,1-2.8.9c-2.336-.057-2.779-2.051-2.837-3.24a5.535,5.535,0,0,1,.025-.874l3.061-.936.626.585,1.848,1.731A1.307,1.307,0,0,1,84.109,70.09Z" transform="translate(4.712 4.786)" opacity=".1"/><path id="Path_1192" data-name="Path 1192" d="M84.109,69.942a3.448,3.448,0,0,1-2.8.9c-2.336-.057-2.779-2.051-2.837-3.24a5.534,5.534,0,0,1,.025-.874l3.061-.936.626.585,1.848,1.731A1.307,1.307,0,0,1,84.109,69.942Z" transform="translate(4.712 4.775)" fill="#636780"/><path id="Path_1193" data-name="Path 1193" d="M82.182,66.376a2.358,2.358,0,0,1-1.549,1.268L78.47,67.6a5.534,5.534,0,0,1,.025-.874l3.061-.936Z" transform="translate(4.712 4.775)" opacity=".1"/><path id="Path_1194" data-name="Path 1194" d="M74.914,59.222s-4.888.654-3.585,5.073c.988,3.349,3.191,3.573,4.2,3.488a16.783,16.783,0,0,1,1.769-.064l3.861.077a2.1,2.1,0,0,0,1.631-2.487,2.255,2.255,0,0,0-.059-.222C82.125,62.888,79.314,58.855,74.914,59.222Z" transform="translate(4.179 4.296)" fill="#636780"/><ellipse id="Ellipse_183" data-name="Ellipse 183" cx="2.255" cy="2.933" rx="2.255" ry="2.933" transform="translate(50.373 71.012)" opacity=".2"/><path id="Path_1195" data-name="Path 1195" d="M47.693,67.809l6.415.684a.993.993,0,0,1,.883,1.094h0a.993.993,0,0,1-1.094.883l-6.415-.684a.993.993,0,0,1-.883-1.094h0A1,1,0,0,1,47.693,67.809Z" transform="translate(2.399 4.921)" opacity=".1"/><path id="Path_1196" data-name="Path 1196" d="M47.693,67.657l6.415.684a.993.993,0,0,1,.883,1.094h0a.993.993,0,0,1-1.094.883l-6.415-.684A.993.993,0,0,1,46.6,68.54h0A1,1,0,0,1,47.693,67.657Z" transform="translate(2.399 4.91)" fill="#636780"/><path id="Path_1197" data-name="Path 1197" d="M15.248,87.984s-4.046-3.993.868-13.6c0,0,6.3-9.534,16.079.9a34.687,34.687,0,0,1,7.251,16.295l-3.829.082S31.948,73.89,21.194,74.787C21.2,74.784,13.374,76.169,15.248,87.984Z" transform="translate(.011 5.109)" opacity=".1"/><path id="Path_1198" data-name="Path 1198" d="M15.1,88.439s-4.048-3.991.868-13.607c0,0,6.3-9.532,16.079.9A34.705,34.705,0,0,1,39.3,92.024l-3.83.082S31.8,74.347,21.044,75.241C21.043,75.242,13.222,76.626,15.1,88.439Z" transform="translate(0 5.142)" opacity=".1"/><path id="Path_1199" data-name="Path 1199" d="M15.1,88.135s-4.048-3.993.868-13.607c0,0,6.3-9.532,16.079.9A34.7,34.7,0,0,1,39.3,91.72l-3.83.082S31.8,74.042,21.044,74.936C21.043,74.936,13.222,76.323,15.1,88.135Z" transform="translate(0 5.12)" fill="#eb1c24"/><path id="Path_1200" data-name="Path 1200" d="M15.1,88.135s-4.048-3.993.868-13.607c0,0,6.3-9.532,16.079.9A34.7,34.7,0,0,1,39.3,91.72l-3.83.082S31.8,74.042,21.044,74.936C21.043,74.936,13.222,76.323,15.1,88.135Z" transform="translate(0 5.12)" opacity=".2"/><path id="Path_1201" data-name="Path 1201" d="M99.757,99.441v5.213l-57.629-8.8a7.33,7.33,0,0,0-4.5-.379c-2.081-1.016-3.594-4.979-3.637-5.108h0l3.83-.082L48.9,91.839l40.274,5.784s7.142.815,7.55,1.135A14.438,14.438,0,0,0,99.757,99.441Z" transform="translate(1.484 6.553)" fill="none"/><path id="Path_1202" data-name="Path 1202" d="M99.757,99.285V104.5L42.128,95.7a7.354,7.354,0,0,0-4.5-.379c-2.081-1.016-3.594-4.979-3.637-5.108h0l3.83-.082L48.9,91.684l40.274,5.784s7.142.815,7.55,1.135A14.436,14.436,0,0,0,99.757,99.285Z" transform="translate(1.484 6.542)" opacity=".1"/><path id="Path_1203" data-name="Path 1203" d="M99.757,99.441v5.213l-57.629-8.8a7.33,7.33,0,0,0-4.5-.379c-2.081-1.016-3.594-4.979-3.637-5.108h0l3.83-.082L48.9,91.839l40.274,5.784s7.142.815,7.55,1.135A14.438,14.438,0,0,0,99.757,99.441Z" transform="translate(1.484 6.553)" fill="#eb1c24"/><path id="Path_1204" data-name="Path 1204" d="M99.757,99.441v5.213l-57.629-8.8a7.33,7.33,0,0,0-4.5-.379c-2.081-1.016-3.594-4.979-3.637-5.108h0l3.83-.082L48.9,91.839l40.274,5.784s7.142.815,7.55,1.135A14.438,14.438,0,0,0,99.757,99.441Z" transform="translate(1.484 6.553)" opacity=".2"/><path id="Path_1205" data-name="Path 1205" d="M171.118,80.944a96.065,96.065,0,0,1-42.939,8.8s-5.331.263-5.7-.225,1.375,2.054,1.375,2.054a2.263,2.263,0,0,1,1.311-.689c.652,0,3.636.221,3.636.221s34.086-1.444,42.805-9.183Z" transform="translate(7.903 5.875)" fill="none"/><path id="Path_1206" data-name="Path 1206" d="M48.015,93.894c-3.581-11.5-3.389-19.521-2.6-24.212a19.09,19.09,0,0,1,2.613-7.538l.131.1a19.032,19.032,0,0,0-2.584,7.483c-.787,4.687-.976,12.664,2.6,24.133Z" transform="translate(2.28 4.51)" opacity=".2"/><path id="Path_1207" data-name="Path 1207" d="M173.9,89.006c.144.536.478,2.014-.053,2.413a2.041,2.041,0,0,0-.515.965,15.02,15.02,0,0,0-.461,2.293l-5.542,6.191-9.369,3.668-22.406,1.548-13.528-22L91.635,66.216l8.3-.46c8.3-.461,31.855-5.675,31.855-5.675l26.647,5.886a17.857,17.857,0,0,1,10.687,7.038,36.469,36.469,0,0,1,4.729,9.458,3.55,3.55,0,0,1,.579,2.13,16.787,16.787,0,0,1-.468,3.77c-.066.285-.107.456-.107.456S173.865,88.885,173.9,89.006Z" transform="translate(5.668 4.36)" fill="#eb1c24"/><path id="Path_1208" data-name="Path 1208" d="M92.474,99.47s-1.628-17.427,10.593-22.156c0,0,17.191-7.256,27.294,12.462l5.132,11.246a5.931,5.931,0,0,0,5.459,2.688s18.819-.567,28.753-6.926l3.1-3.594s-1.548,5.051-3.1,6.191c0,0-6.114,7.169-28.354,8.473,0,0-9.1.976-11.839-7.659,0,0-3.721-19.553-22.624-19.391,0,0-11.105.215-11.378,19.336Z" transform="translate(5.724 5.516)" opacity=".1"/><path id="Path_1209" data-name="Path 1209" d="M92.474,99.774s-1.628-17.425,10.593-22.156c0,0,17.191-7.254,27.294,12.462l5.132,11.244a5.931,5.931,0,0,0,5.459,2.688s18.819-.567,28.753-6.926l3.11-3.585s-1.548,5.051-3.1,6.191c0,0-6.114,7.171-28.354,8.473,0,0-9.1.978-11.839-7.659,0,0-3.721-19.553-22.624-19.391,0,0-11.105.215-11.378,19.337Z" transform="translate(5.724 5.539)" fill="#eb1c24"/><path id="Path_1210" data-name="Path 1210" d="M92.474,99.774s-1.628-17.425,10.593-22.156c0,0,17.191-7.254,27.294,12.462l5.132,11.244a5.931,5.931,0,0,0,5.459,2.688s18.819-.567,28.753-6.926l3.11-3.585s-1.548,5.051-3.1,6.191c0,0-6.114,7.171-28.354,8.473,0,0-9.1.978-11.839-7.659,0,0-3.721-19.553-22.624-19.391,0,0-11.105.215-11.378,19.337Z" transform="translate(5.724 5.539)" opacity=".2"/><path id="Path_1211" data-name="Path 1211" d="M90.086,100.019l-.736-24.24a24.886,24.886,0,0,0-.189-4.918,19.618,19.618,0,0,0-1.388-4.023,2.829,2.829,0,0,0-.946-.959l-.429-.117.485-.036c.335.064.652.412.946.9a9.472,9.472,0,0,1,1.492,4.211,24.886,24.886,0,0,1,.189,4.934l.736,24.24Z" transform="translate(5.288 4.77)" opacity=".2"/><path id="Path_1212" data-name="Path 1212" d="M104.112,81.91l-.159.027a10,10,0,0,0-1.454-3.629c-2.34-3.35-3.1-5.621-3.191-7.139a3.9,3.9,0,0,1,.189-1.555,3.727,3.727,0,0,1,2.671-2.155h0l.284.047a4.167,4.167,0,0,0-2.809,2.162,3.817,3.817,0,0,0-.189,1.534c.094,1.484.858,3.713,3.163,7.014A10,10,0,0,1,104.112,81.91Z" transform="translate(6.224 4.896)" opacity=".2"/><path id="Path_1213" data-name="Path 1213" d="M154.645,74.39c-10.381-6.2-32.357-11.957-32.579-12.013l.042-.159c.221.059,22.221,5.826,32.62,12.032Z" transform="translate(7.877 4.515)" opacity=".2"/><path id="Path_1214" data-name="Path 1214" d="M169.192,83.087c-3.919-6.895-14.472-12.579-22.637-16.136A146.843,146.843,0,0,0,129.6,60.823l.044-.157A146.722,146.722,0,0,1,146.62,66.8c8.187,3.565,18.77,9.269,22.714,16.2Z" transform="translate(8.423 4.403)" opacity=".2"/><ellipse id="Ellipse_184" data-name="Ellipse 184" cx="1.877" cy="7.975" rx="1.877" ry="7.975" transform="rotate(-37 193.77 -212.211)" opacity=".1"/><ellipse id="Ellipse_185" data-name="Ellipse 185" cx="1.877" cy="7.975" rx="1.877" ry="7.975" transform="rotate(-37 193.284 -212.377)" fill="#dce0ed"/><ellipse id="Ellipse_186" data-name="Ellipse 186" cx="1.218" cy="6.585" rx="1.218" ry="6.585" transform="rotate(-37 195.166 -214.367)" opacity=".1"/><ellipse id="Ellipse_187" data-name="Ellipse 187" cx="1.218" cy="6.585" rx="1.218" ry="6.585" transform="rotate(-37 194.925 -214.45)" fill="#f0f0f4"/><path id="Path_1215" data-name="Path 1215" d="M144.032,85.714s.53-3.993,3.668-4.89c0,0,10.672-3.087,13-3.133a4.041,4.041,0,0,1,3.991,1.055l1.628,2.2s1.135,1.793-1.385,2.118c0,0-12.9,4.729-18.492,5.22a8.055,8.055,0,0,0-.946.144C144.675,88.6,142.96,88.65,144.032,85.714Z" transform="translate(9.446 5.627)" opacity=".1"/><path id="Path_1216" data-name="Path 1216" d="M144.185,85.562s.53-3.993,3.666-4.89c0,0,10.672-3.087,13-3.133a4.037,4.037,0,0,1,3.991,1.055l1.63,2.2s1.135,1.791-1.387,2.118c0,0-12.9,4.729-18.49,5.221a7.838,7.838,0,0,0-.946.144C144.827,88.449,143.112,88.5,144.185,85.562Z" transform="translate(9.457 5.616)" fill="#f0f0f4"/><path id="Path_1217" data-name="Path 1217" d="M145.232,85.165s.493-3.414,3.405-4.183c0,0,9.923-2.648,12.081-2.681a4.007,4.007,0,0,1,3.711.9l1.513,1.882s1.06,1.534-1.287,1.813c0,0-11.991,4.048-17.191,4.466a7.971,7.971,0,0,0-.872.123C145.829,87.625,144.235,87.674,145.232,85.165Z" transform="translate(9.535 5.673)" opacity=".1"/><path id="Path_1218" data-name="Path 1218" d="M145.386,85.01s.492-3.4,3.405-4.183c0,0,9.923-2.648,12.081-2.681a4,4,0,0,1,3.711.9l1.513,1.892s1.06,1.533-1.287,1.813c0,0-11.992,4.048-17.192,4.466a7.913,7.913,0,0,0-.869.123C145.981,87.481,144.388,87.523,145.386,85.01Z" transform="translate(9.546 5.662)" fill="#3f3d56"/><path id="Path_1219" data-name="Path 1219" d="M146.145,82.873l-.02-.163c.146-.017,14.64-1.818,17.759-4.226l.1.129C160.829,81.043,146.744,82.795,146.145,82.873Z" transform="translate(9.623 5.696)" fill="#f0f0f4"/><path id="Path_1220" data-name="Path 1220" d="M145.44,84.681l-.028-.161c.159-.028,16.1-2.981,19.542-5.108l.087.138C161.571,81.7,145.6,84.65,145.44,84.681Z" transform="translate(9.571 5.763)" fill="#f0f0f4"/><path id="Path_1221" data-name="Path 1221" d="M145.087,86.151l-.03-.159c.189-.036,18.537-3.5,20.808-5.529l.107.121C163.676,82.644,145.838,86.009,145.087,86.151Z" transform="translate(9.545 5.84)" fill="#f0f0f4"/><path id="Path_1222" data-name="Path 1222" d="M164.2,85.946a77.439,77.439,0,0,1-14.187,4.183q-.965.174-1.909.429a5.794,5.794,0,0,1-2.36.28c-.936-.246-1.454.895-.443,1.791l.064.057a3.617,3.617,0,0,0,2.692.889l1.556-.131s12.631-2.769,16.152-4.934c0,0,1.609-1.1,1.731-2.344s.268-2.219-1.006-1.484S164.2,85.946,164.2,85.946Z" transform="translate(9.523 6.127)" opacity=".1"/><path id="Path_1223" data-name="Path 1223" d="M164.347,85.8a77.439,77.439,0,0,1-14.187,4.174q-.965.172-1.908.429a5.794,5.794,0,0,1-2.36.28c-.946-.246-1.454.895-.443,1.791l.03.027a3.717,3.717,0,0,0,2.775.921l1.5-.124h.025c.429-.094,12.674-2.8,16.135-4.918h.013c.107-.077,1.609-1.144,1.724-2.34.123-1.241.27-2.219-1.006-1.484-1.212.7-2.195,1.211-2.285,1.258Z" transform="translate(9.534 6.118)" fill="#f0f0f4"/><path id="Path_1224" data-name="Path 1224" d="M163.274,86.628a79.4,79.4,0,0,1-11.767,3.7c-.6.132-1.2.287-1.8.46a6.059,6.059,0,0,1-1.92.322c-.81-.107-1.2.7-.287,1.243l.028.017a3.5,3.5,0,0,0,2.287.461l1.4-.189s10.629-2.675,13.523-4.362c0,0,1.324-.849,1.358-1.7s.117-1.513-.932-.946S163.274,86.628,163.274,86.628Z" transform="translate(9.685 6.2)" opacity=".1"/><path id="Path_1225" data-name="Path 1225" d="M163.423,86.471a79.361,79.361,0,0,1-11.764,3.7c-.6.132-1.207.287-1.8.46a6.055,6.055,0,0,1-1.92.322c-.81-.107-1.2.7-.285,1.243h0a3.6,3.6,0,0,0,2.346.475l1.365-.189h0c.215-.055,10.65-2.69,13.514-4.35h0c.045-.03,1.325-.864,1.357-1.7s.117-1.523-.932-.946-1.845.976-1.892,1Z" transform="translate(9.695 6.189)" fill="#3f3d56"/><ellipse id="Ellipse_188" data-name="Ellipse 188" cx="2.142" cy="1.585" rx="2.142" ry="1.585" transform="rotate(-87.14 126.743 -26.295)" opacity=".1"/><ellipse id="Ellipse_189" data-name="Ellipse 189" cx="2.14" cy="1.583" rx="2.14" ry="1.583" transform="rotate(-87.151 126.734 -26.263)" fill="#f0f0f4"/><path id="Path_1226" data-name="Path 1226" d="M148.829,94.357s-8.294,1.263-10.5,1.387-2.531,1.343-2.531,1.343-.53,3.1,2.525,2.2l10.833-1.222s1.468.042,1.468-1.956V95.66a4.523,4.523,0,0,1,.076-.751C150.769,94.6,150.6,94.093,148.829,94.357Z" transform="translate(8.871 6.843)" opacity=".1"/><path id="Path_1227" data-name="Path 1227" d="M148.98,94.2s-8.294,1.263-10.5,1.385-2.525,1.345-2.525,1.345-.53,3.1,2.525,2.2l10.833-1.222s1.466.042,1.466-1.956v-.448a4.523,4.523,0,0,1,.076-.751C150.925,94.448,150.757,93.941,148.98,94.2Z" transform="translate(8.883 6.832)" fill="#636780"/><path id="Path_1228" data-name="Path 1228" d="M168.52,89.463a2.041,2.041,0,0,0-.515.965h0l-2.681,1.9a.214.214,0,0,1-.346-.178v-2a1.661,1.661,0,0,1,.8-1.422l2.8-1.685C168.716,87.585,169.057,89.061,168.52,89.463Z" transform="translate(10.991 6.318)" fill="#636780"/><path id="Path_1229" data-name="Path 1229" d="M150.566,94.851l-.124,2.021a1.348,1.348,0,0,0,1.238,1.45,1.426,1.426,0,0,0,.295-.009,37.108,37.108,0,0,0,12.965-4.657l.354-4.127a.58.58,0,0,0-.518-.637.571.571,0,0,0-.29.045c-2.27,1.013-8.355,3.6-12.218,4.1A1.961,1.961,0,0,0,150.566,94.851Z" transform="translate(9.936 6.451)" fill="#3f3d56"/><path id="Path_1230" data-name="Path 1230" d="M151.719,93.738v3.284s10.1-2.388,12.343-4v-3.11A50.733,50.733,0,0,1,151.719,93.738Z" transform="translate(10.029 6.526)" fill="#eb1c24"/><path id="Path_1231" data-name="Path 1231" d="M168.3,86.868c-.513-.036-.923-.916-.923-1.992s.429-1.994.946-1.994a.6.6,0,0,1,.429.215A16.307,16.307,0,0,1,168.3,86.868Z" transform="translate(11.165 6.015)" fill="#eb1c24"/><path id="Path_1232" data-name="Path 1232" d="M168.446,86.715c-.513-.034-.921-.914-.921-1.99s.429-2,.946-2a.612.612,0,0,1,.435.215A16.361,16.361,0,0,1,168.446,86.715Z" transform="translate(11.176 6.004)" fill="#f0f0f4"/><path id="Path_1233" data-name="Path 1233" d="M126.99,100.658c0,17.9-7.566,18.292-17.435,18.292-7.884,0-11.111-8.189-11.111-18.292s2.533-18.269,10.415-18.269S126.99,90.557,126.99,100.658Z" transform="translate(6.162 5.979)" fill="#636780"/><path id="Path_1234" data-name="Path 1234" d="M126.99,100.658c0,17.9-7.566,18.292-17.435,18.292-7.884,0-11.111-8.189-11.111-18.292s2.533-18.269,10.415-18.269S126.99,90.557,126.99,100.658Z" transform="translate(6.162 5.979)" fill="#3f3d56"/><ellipse id="Ellipse_190" data-name="Ellipse 190" cx="9.946" cy="18.292" rx="9.946" ry="18.292" transform="translate(104.605 88.345)" fill="#636780"/><path id="Path_1235" data-name="Path 1235" d="M29.078,90c0,5.485-1.588,9.886-4.89,9.886s-7.224-4.451-7.224-9.941S18.336,79.63,21.636,79.63,29.078,84.513,29.078,90Z" transform="translate(.249 5.779)" fill="#f0f0f4"/><path id="Path_1236" data-name="Path 1236" d="M28.918,89.674q0,.624-.034,1.226a15.542,15.542,0,0,1-.461,3.125c-.536,2.021-1.513,3.424-2.94,3.691a2.783,2.783,0,0,1-.508.045,4,4,0,0,1-2.111-.684,8.355,8.355,0,0,1-3.252-4.5,9.581,9.581,0,0,1-.437-2.291q-.023-.322-.023-.644a20.178,20.178,0,0,1,.444-4.447,8.166,8.166,0,0,1,.965-2.527A2.749,2.749,0,0,1,22.909,81.2a3.878,3.878,0,0,1,2.068.7,8.08,8.08,0,0,1,2.27,2.348A10.051,10.051,0,0,1,28.918,89.674Z" transform="translate(.408 5.893)" fill="#3f3d56"/><path id="Path_1237" data-name="Path 1237" d="M28.88,90.861a15.454,15.454,0,0,1-.458,3.117c-.068-.077-1.937-2.237-3.341-.852-1.031,1.016-.163,3.325.4,4.54a2.692,2.692,0,0,1-.508.045,4,4,0,0,1-2.111-.684v-.156a3.862,3.862,0,0,0-1.385-4.183,3.337,3.337,0,0,0-1.876-.171,9.581,9.581,0,0,1-.437-2.291,3.173,3.173,0,0,0,.956-3.352,15.142,15.142,0,0,0-.536-1.739,8.2,8.2,0,0,1,.965-2.524s.429,2.309,2.054,2.448,2.34-3.125,2.36-3.218a8.08,8.08,0,0,1,2.27,2.348,3.3,3.3,0,0,0-1.843,3.961A3.879,3.879,0,0,0,28.88,90.861Z" transform="translate(.409 5.94)" fill="#f0f0f4"/><ellipse id="Ellipse_191" data-name="Ellipse 191" cx="1.222" cy="2.118" rx="1.222" ry="2.118" transform="rotate(-8.048 673.42 -111.552)" fill="#3f3d56"/><path id="Path_1238" data-name="Path 1238" d="M110.056,100.975c0,6.577-1.4,11.846-4.313,11.846S99.37,107.488,99.37,100.9s1.211-12.364,4.122-12.364S110.056,94.4,110.056,100.975Z" transform="translate(6.23 6.426)" fill="#f0f0f4"/><path id="Path_1239" data-name="Path 1239" d="M109.916,100.587q0,.756-.03,1.469a24.983,24.983,0,0,1-.409,3.738c-.471,2.421-1.325,4.1-2.593,4.422a1.912,1.912,0,0,1-.448.053,2.932,2.932,0,0,1-1.861-.822,10.417,10.417,0,0,1-2.877-5.4,15.283,15.283,0,0,1-.379-2.745c-.013-.253-.02-.511-.02-.772a32.316,32.316,0,0,1,.394-5.326,12.033,12.033,0,0,1,.858-3.027c.515-1.1,1.2-1.754,2.071-1.754a2.872,2.872,0,0,1,1.823.837,9,9,0,0,1,2.009,2.812A15.257,15.257,0,0,1,109.916,100.587Z" transform="translate(6.37 6.562)" fill="#3f3d56"/><path id="Path_1240" data-name="Path 1240" d="M109.884,102a24.983,24.983,0,0,1-.409,3.738c-.059-.094-1.7-2.681-2.947-1.021-.908,1.218-.144,3.989.354,5.444a1.912,1.912,0,0,1-.448.053,2.931,2.931,0,0,1-1.861-.821V109.2s.733-3.1-1.222-5.011a2.236,2.236,0,0,0-1.655-.2,15.284,15.284,0,0,1-.379-2.745,4.614,4.614,0,0,0,.842-4.016c-.178-.946-.337-1.621-.469-2.081a12.033,12.033,0,0,1,.858-3.027s.379,2.769,1.813,2.932,2.064-3.741,2.081-3.849a9,9,0,0,1,2.009,2.812s-2.294,1.3-1.625,4.746A3.681,3.681,0,0,0,109.884,102Z" transform="translate(6.371 6.619)" fill="#f0f0f4"/><ellipse id="Ellipse_192" data-name="Ellipse 192" cx="1.082" cy="2.529" rx="1.082" ry="2.529" transform="rotate(-4.68 1332.88 -1288.985)" fill="#3f3d56"/><path id="Path_1241" data-name="Path 1241" d="M132.7,73.992l-.066.149c-.064-.03-5.7-2.459-26.586-6.006q-1.464-.248-3.027-.505c-.1-.013-.189-.03-.29-.045-3.342-.545-7.033-1.11-11.1-1.7l.023-.163c5.514.795,10.328,1.551,14.527,2.27C127.009,71.532,132.629,73.963,132.7,73.992Z" transform="translate(5.667 4.77)" opacity=".2"/><path id="Path_1242" data-name="Path 1242" d="M31.2,44.99s1.892-3.218,8.366-3.5c0,0,47.309-6.18,77.177.242,0,0,2.55,1.135-.215,1.8S50.151,46.5,31.2,44.99Z" transform="translate(1.282 2.817)" opacity=".1"/><path id="Path_1243" data-name="Path 1243" d="M31.2,44.686s1.892-3.218,8.366-3.5c0,0,47.309-6.178,77.177.245,0,0,2.55,1.135-.215,1.8S50.151,46.2,31.2,44.686Z" transform="translate(1.282 2.795)" fill="#f4f4f4"/><path id="Path_1244" data-name="Path 1244" d="M27.086,57.674c2.938-6.916,6.463-10.189,7.58-11.1a1.264,1.264,0,0,1,.775-.284L50.919,46a1.253,1.253,0,0,1,1.065.548,1.267,1.267,0,0,0-1.228-.874l-15.477.287a1.249,1.249,0,0,0-.775.284c-1.117.912-4.642,4.183-7.58,11.1a1.666,1.666,0,0,0,.134,1.566,1.666,1.666,0,0,1,.028-1.239Z" transform="translate(.962 3.315)" opacity=".1"/><path id="Path_1245" data-name="Path 1245" d="M53.071,58.466l2.109-9.585a3.66,3.66,0,0,1,3.465-2.98l19.934-.189a3.219,3.219,0,0,1,2.081.745,3.253,3.253,0,0,0-2.4-1.05L58.327,45.6a3.663,3.663,0,0,0-3.465,2.981L52.744,58.16a4.35,4.35,0,0,0,1.4,4.275A4.381,4.381,0,0,1,53.071,58.466Z" transform="translate(2.838 3.296)" opacity=".1"/><path id="Path_1246" data-name="Path 1246" d="M93.78,62.65,86.724,48.024a1.373,1.373,0,0,1,1.211-1.969c5.374-.1,19.5-.5,26.778-2.1-.458-.357-.721-.557-.721-.557-7.186,1.655-21.626,2.068-27.076,2.166a1.373,1.373,0,0,0-1.211,1.969l7.058,14.62a5.04,5.04,0,0,0,2.886,2.574A5.032,5.032,0,0,1,93.78,62.65Z" transform="translate(5.228 3.15)" opacity=".1"/><path id="Rectangle_489" data-name="Rectangle 489" transform="translate(98.2 105.313)" fill="#eb1c24" d="M0 0H3.042V0.936H0z"/><path id="Rectangle_490" data-name="Rectangle 490" transform="translate(98.2 105.313)" opacity=".2" d="M0 0H3.042V0.936H0z"/><path id="Path_1247" data-name="Path 1247" d="M37.674,89.547l-3.74.644a1.93,1.93,0,0,0,.107.379,30.123,30.123,0,0,0,4.162-.146l-.394-.082Z" transform="translate(1.481 6.499)" fill="#eb1c24"/><path id="Path_1248" data-name="Path 1248" d="M37.674,89.547l-3.74.644a1.93,1.93,0,0,0,.107.379,30.123,30.123,0,0,0,4.162-.146l-.394-.082Z" transform="translate(1.481 6.499)" opacity=".2"/><path id="Path_1249" data-name="Path 1249" d="M24.795,99.378c-3.3,0-7.224-4.451-7.224-9.941,0-3.763.644-7.216,2.113-9.015-1.892,1.526-2.72,5.376-2.72,9.622,0,5.485,3.925,9.941,7.224,9.941a3.5,3.5,0,0,0,2.764-1.38A3.328,3.328,0,0,1,24.795,99.378Z" transform="translate(.249 5.837)" opacity=".1"/><path id="Path_1250" data-name="Path 1250" d="M106.389,112.037c-2.955,0-6.469-5.344-6.469-11.936,0-4.519.567-8.665,1.892-10.826-1.7,1.833-2.435,6.456-2.435,11.556,0,6.592,3.515,11.936,6.47,11.936a2.958,2.958,0,0,0,2.474-1.657A2.574,2.574,0,0,1,106.389,112.037Z" transform="translate(6.23 6.479)" opacity=".1"/><ellipse id="Ellipse_193" data-name="Ellipse 193" cx="4.869" cy="9.505" rx="4.869" ry="9.505" transform="rotate(-45 165.515 -116.518)" opacity=".1"/><ellipse id="Ellipse_194" data-name="Ellipse 194" cx="4.869" cy="9.505" rx="4.869" ry="9.505" transform="rotate(-45 165.4 -116.796)" fill="#dce0ed"/><ellipse id="Ellipse_195" data-name="Ellipse 195" cx="3.57" cy="8.066" rx="3.57" ry="8.066" transform="rotate(-45 166.55 -119.718)" opacity=".1"/><ellipse id="Ellipse_196" data-name="Ellipse 196" cx="3.57" cy="8.066" rx="3.57" ry="8.066" transform="rotate(-45 166.353 -119.802)" fill="#f0f0f4"/><ellipse id="Ellipse_197" data-name="Ellipse 197" cx="5.66" cy=".957" rx="5.66" ry=".957" transform="translate(186.938 123.438)" fill="#0c9add" opacity=".1"/><ellipse id="Ellipse_198" data-name="Ellipse 198" cx="3.191" cy=".54" rx="3.191" ry=".54" transform="translate(207.151 106.014)" fill="#0c9add" opacity=".1"/><ellipse id="Ellipse_199" data-name="Ellipse 199" cx="3.853" cy=".651" rx="3.853" ry=".651" transform="translate(179.233 109.469)" fill="#0c9add" opacity=".1"/><path id="Path_1251" data-name="Path 1251" d="M118.073,61.218a3.794,3.794,0,0,0-.429-2.983l-.077-3.325c.429-.88-1.04-3.059-1.04-3.059s-.348-1.645-.656-1.8-.654-.842-.654-.842a.509.509,0,0,0-.295-.45,21.921,21.921,0,0,1-1.407-3.091,3.463,3.463,0,0,1-.284-1.836,3.411,3.411,0,0,1,.138-.458c.013-.032.025-.062.036-.094s0-.027.015-.038l.013-.034a2.37,2.37,0,0,0,.227-.981,2.036,2.036,0,0,0-1.341-1.527,6.4,6.4,0,0,1-1.892-1,4.386,4.386,0,0,1-.946-2.459,3.556,3.556,0,0,0-1.1-2.36,3.028,3.028,0,0,0-2.294-.346,7.652,7.652,0,0,0-2.958,1.18,10.456,10.456,0,0,1-2.624,1.645c-.365.107-.756.153-1.112.272a2.746,2.746,0,0,0-1.655,1.657h0c-.013.036-.023.072-.035.107s-.03.089-.044.134a.977.977,0,0,0-.027.116c-.008.039-.023.089-.03.134s-.013.077-.017.116-.013.092-.017.138a1.006,1.006,0,0,0,0,.114V40.3a6.045,6.045,0,0,0-1.06,1.325c-1.271,2.016-2.854,4.934-3.558,6.242l-.034.064v-.04s-3.1,3.11-1.287,2.7a3.729,3.729,0,0,1,.379-.069l-.032.356v.01c-.29.364-1.543,1.62.788,2.55,1.931.772,5.891.965,7.186,1.014l-.114.547c-2,1.644-1.233,3.518-1.271,4.742s-.233,2.681-.233,2.681a4.577,4.577,0,0,0-.731,2.1,3.856,3.856,0,0,1-.617,1.912s-1.08,1.18-.965,1.95a4.816,4.816,0,0,1-.189,1.757s-.733,1.34-.429,2.1a1.8,1.8,0,0,1,.156,1.186s-1.581.228-1.7,1.073-1.541,1.147-1.541,1.147a26.006,26.006,0,0,0-3.163,1.34c-.619.422-3.892,3.478-3.892,3.478s-3.29,3.384-3.463,3.725S79.682,86,80.579,87.373c.045.068.091.138.138.206a11.709,11.709,0,0,0,3.558,3.373,5.461,5.461,0,0,1,1.422,1.1c.4.632,7.173,4.962,7.173,4.962s2.973,2.614,4.888,4.436l.146.876c-.025.038-.049.077-.074.123a.537.537,0,0,0,.189.518l.027.156s.772,6.5,1.466,9.546a7.915,7.915,0,0,1-.139,4.325,3.879,3.879,0,0,1-.8-1.084,8.211,8.211,0,0,0-.491,1.6c-.012.082-.019.157-.023.228a.056.056,0,0,0-.051.023l-.27.379c-.295.407-.555.84-.817,1.268a4.851,4.851,0,0,1-2.512,1.445,1.853,1.853,0,0,1-.511.189,5.854,5.854,0,0,1-1.62.049,2.618,2.618,0,0,0-.478.117,1.825,1.825,0,0,0-.364.166h0A1.389,1.389,0,0,0,90.9,122.9h0l.02.013.02.013.034.02.051.032.044.025.045.028.047.027.059.032.049.028.124.066.059.032.082.042.066.032.089.044.087.04c.049.025.1.047.153.07l.089.04.107.042.1.04.107.04.189.07.094.032.134.045.107.032.156.045.085.023c.077.023.157.042.238.06l.079.017c.062.015.124.028.189.04l.047.012h.04c.068.013.136.023.206.034h.06l.272.032H94.3c.072,0,.144.012.215.015h.382c.094,0,.189,0,.284-.012h.059l.233-.023.107-.015.2-.034.1-.019c.1-.02.189-.044.3-.07a18.456,18.456,0,0,1,6.621-.567c1.7.144,2.13-.439,2.13-.439a.992.992,0,0,0,.085-.146.572.572,0,0,0,.025-.059,1,1,0,0,0,.04-.107.344.344,0,0,1,.02-.074c.005-.025.017-.074.025-.107s0-.053.013-.079,0-.03,0-.045a.906.906,0,0,0,.01-.107,4.172,4.172,0,0,0-.068-.98,11.264,11.264,0,0,0-.62-2.081l-.121.084c-.014-.061-.027-.124-.04-.189a73.1,73.1,0,0,1-.567-8.189h0a1.016,1.016,0,0,0,.644-.223c.032-.027.049-.044.049-.044,1.445-1.18.736-6.543.26-7.285s-.567-4.573-.738-5.792c-.082-.579-.379-.751-.781-.756a1.469,1.469,0,0,0-.168,0c-.057-1.135.107-3.8.238-5.626h0c0-.117.017-.233.025-.342l.365.019.536-3.218a24.518,24.518,0,0,1,2.2-4.538,18.012,18.012,0,0,0,2.081-7.035s.579-1.108.429-1.609a9,9,0,0,1-.176-.965,12.547,12.547,0,0,1,2.022-.988,12.432,12.432,0,0,0,4.243-3.11l.107-.121a8.531,8.531,0,0,1,.476.819,16.151,16.151,0,0,0,2.507-2.145,1.323,1.323,0,0,0,.215-.379,9.836,9.836,0,0,0-.011-3.989A2.13,2.13,0,0,0,118.073,61.218Z" transform="translate(4.849 2.5)" fill="url(#linear-gradient)"/><g id="Group_333" data-name="Group 333" transform="translate(113.146 62.465)" opacity=".1"><path id="Path_1252" data-name="Path 1252" d="M1.43-79.925a5.488,5.488,0,0,1-1.311.842c-.062-.493-.107-.867-.117-.981A10.911,10.911,0,0,1,.86-82.376a15,15,0,0,0,1.684-2.66c-.04-.349.666-1.347.666-1.347l1.564-2.532a1.136,1.136,0,0,0,.161,1.186c.471.617.077,1.85.077,1.85l.1,1.555v.156c-.055.055-.307.295-.858.8-.513.461-.422.6-.364.644-.117.208.027.245.027.245a.824.824,0,0,0,.136-.012l-.124.116A33.888,33.888,0,0,0,1.43-79.925Z" transform="translate(-.002 88.915)" fill="url(#linear-gradient-2)"/></g><path id="Path_1253" data-name="Path 1253" d="M98.4,39.946c-.468.488.064,1.172-.3,1.7-.206.3-.66.484-.917.756-.5.545-.123,1.241.119,1.861.885,2.259-.443,4.833-3.218,6.242a5.811,5.811,0,0,0,3.812.312,3.319,3.319,0,0,0,2.445-1.982c.189-.622.027-1.287.346-1.88.5-.929,2.02-1.487,2.467-2.425a2.369,2.369,0,0,0-.481-2.242,17.814,17.814,0,0,0-1.916-2.5c-.435-.475-.435-.662-1.135-.536A3.363,3.363,0,0,0,98.4,39.946Z" transform="translate(5.846 2.846)" fill="#3f3d56"/><path id="Path_1254" data-name="Path 1254" d="M102.2,46.189a7.278,7.278,0,0,1-.444,1.96,10.149,10.149,0,0,1-.993,2.326,3.462,3.462,0,0,1-1.942,1.541,2.433,2.433,0,0,0,2.024.585,3.231,3.231,0,0,1,1.549-.189,4.932,4.932,0,0,1,.668.357,1.9,1.9,0,0,0,2.24-.536,2.544,2.544,0,0,0,.391-2.353c-.151-.478-.422-.916-.567-1.4a11.066,11.066,0,0,0-.471-2.172,5.52,5.52,0,0,0-2.849-1.892C101.755,44.93,102.22,45.584,102.2,46.189Z" transform="translate(6.19 3.224)" fill="#985c7e"/><path id="Path_1255" data-name="Path 1255" d="M100.975,44.543a7.272,7.272,0,0,1-.444,1.954,9.926,9.926,0,0,1-.993,2.326,3.474,3.474,0,0,1-1.94,1.541,2.419,2.419,0,0,0,2.022.585,3.258,3.258,0,0,1,1.549-.189,4.748,4.748,0,0,1,.668.356,1.9,1.9,0,0,0,2.24-.536,2.538,2.538,0,0,0,.391-2.353c-.151-.478-.422-.916-.567-1.4a11.066,11.066,0,0,0-.471-2.172,5.552,5.552,0,0,0-2.849-1.892C100.532,43.282,101,43.929,100.975,44.543Z" transform="translate(6.101 3.104)" fill="#3f3d56"/><path id="Path_1256" data-name="Path 1256" d="M102.183,86s-.567,6.938-.322,7.867.666,13.479.666,13.479.171,7.317.74,8.853-3.849,1.1-4,1.08a28.216,28.216,0,0,1-1.251-3.129,7.256,7.256,0,0,0,.4-4.918c-.683-3.027-1.439-9.458-1.439-9.458L95.718,92.2a5.212,5.212,0,0,0-.492-2.789c-.662-1-1.513-7.582-1.324-8.152S98.6,79.439,98.6,79.439l1.941,2.541Z" transform="translate(5.831 5.765)" fill="#ecb4b6"/><path id="Path_1257" data-name="Path 1257" d="M93.96,82.715v.134c.013.124.027.257.042.394.236,2.2.78,5.485,1.231,6.173a4.517,4.517,0,0,1,.511,2.332v.189a2.032,2.032,0,0,1-.015.268l.965,5.832.042.248.248,1.5s.757,6.446,1.442,9.458a7.98,7.98,0,0,1-.087,4.127c-.019.062-.038.123-.057.178a3.874,3.874,0,0,1-.255.6s.156.439.357.989l.139.379c.027.068.051.134.076.2a7.994,7.994,0,0,0,.679,1.556c.149.019,4.568.454,4-1.08a4.558,4.558,0,0,1-.171-.684,79.057,79.057,0,0,1-.567-8.168s-.416-12.549-.664-13.48a43.262,43.262,0,0,1,.189-6.023h0c.074-1.065.138-1.838.138-1.838l-1.65-4.018-1.94-2.541a31.134,31.134,0,0,0-4.337,1.513l-.032.017a.744.744,0,0,0-.322.284A6.457,6.457,0,0,0,93.96,82.715Z" transform="translate(5.832 5.766)" opacity=".07"/><path id="Path_1258" data-name="Path 1258" d="M96.69,90.669s2.145.567,1.952,1.194Z" transform="translate(6.035 6.58)" opacity=".05"/><path id="Path_1259" data-name="Path 1259" d="M97.751,111.859s.233.656.5,1.37c.3.144.536.233.536.233s.825-.766-.265-1.892c-.176-.189-.322-.342-.454-.488a4.207,4.207,0,0,1-.312.778Z" transform="translate(6.112 8.062)" opacity=".1"/><path id="Path_1260" data-name="Path 1260" d="M96.777,112.291c.084.454,1.08.957,1.62,1.2.2.091.344.146.344.146a1.039,1.039,0,0,0,.228-.364,1.422,1.422,0,0,0-.493-1.534c-.151-.156-.282-.295-.4-.429a3.924,3.924,0,0,1-.808-1.092,8.219,8.219,0,0,0-.481,1.588A1.518,1.518,0,0,0,96.777,112.291Z" transform="translate(6.041 7.999)" fill="#0c9adc"/><path id="Path_1261" data-name="Path 1261" d="M96.777,112.183c.084.454,1.08.957,1.62,1.2a7.994,7.994,0,0,0,.679,1.556c.149.019,4.568.454,4-1.08a4.558,4.558,0,0,1-.171-.684l-1.226.864a1.943,1.943,0,0,1-1.563.114l-1.147-.988-.285-.245a1.734,1.734,0,0,1-.5-.121,2.43,2.43,0,0,1-.986-.79c-.215-.231-.34-.295-.4-.3A1.549,1.549,0,0,0,96.777,112.183Z" transform="translate(6.041 8.107)" opacity=".1"/><path id="Path_1262" data-name="Path 1262" d="M90.216,117.03a7.827,7.827,0,0,0,2.71,1.085,5.494,5.494,0,0,0,2.474-.07,18.02,18.02,0,0,1,6.5-.567c1.668.142,2.094-.435,2.094-.435a2.4,2.4,0,0,0,.157-1.7,11.231,11.231,0,0,0-.6-2.064s-.756.536-1.385.976a1.943,1.943,0,0,1-1.563.116l-1.432-1.233a2.232,2.232,0,0,1-1.489-.91c-.4-.429-.481-.285-.481-.285l-.272.367c-.292.4-.547.832-.806,1.258A4.74,4.74,0,0,1,93.665,115a1.993,1.993,0,0,1-.5.178,5.718,5.718,0,0,1-1.595.047,2.107,2.107,0,0,0-.8.272A1.371,1.371,0,0,0,90.216,117.03Z" transform="translate(5.561 8.122)" fill="#0c9adc"/><circle id="Ellipse_200" data-name="Ellipse 200" cx=".148" cy=".148" r=".148" transform="translate(104.276 121.915)" fill="#4b4b5b"/><circle id="Ellipse_201" data-name="Ellipse 201" cx=".148" cy=".148" r=".148" transform="translate(102.46 122.689)" fill="#4b4b5b"/><circle id="Ellipse_202" data-name="Ellipse 202" cx=".148" cy=".148" r=".148" transform="translate(103.177 123.79)" fill="#4b4b5b"/><circle id="Ellipse_203" data-name="Ellipse 203" cx=".148" cy=".148" r=".148" transform="translate(100.678 123.417)" fill="#4b4b5b"/><circle id="Ellipse_204" data-name="Ellipse 204" cx=".148" cy=".148" r=".148" transform="translate(103.472 122.394)" fill="#4b4b5b"/><circle id="Ellipse_205" data-name="Ellipse 205" cx=".148" cy=".148" r=".148" transform="translate(104.182 123.713)" fill="#4b4b5b"/><circle id="Ellipse_206" data-name="Ellipse 206" cx=".148" cy=".148" r=".148" transform="translate(101.581 123.121)" fill="#4b4b5b"/><circle id="Ellipse_207" data-name="Ellipse 207" cx=".148" cy=".148" r=".148" transform="translate(99.702 123.642)" fill="#4b4b5b"/><path id="Path_1263" data-name="Path 1263" d="M90.216,116.8a6.968,6.968,0,0,0,5.185,1.016,18.02,18.02,0,0,1,6.5-.567c1.668.142,2.094-.435,2.094-.435a1.279,1.279,0,0,0,.215-.615.488.488,0,0,1,.012-.131,4.373,4.373,0,0,0-.068-.946,4.532,4.532,0,0,1-2.525.622,45.069,45.069,0,0,0-5.849.724l-3.218-.132s-1.8-.389-1.793-1.061A1.358,1.358,0,0,0,90.216,116.8Z" transform="translate(5.561 8.355)" opacity=".1"/><path id="Path_1264" data-name="Path 1264" d="M94.416,117.357a.807.807,0,0,0,.161.013,17.9,17.9,0,0,0,2.754-.49,3.8,3.8,0,0,1,.7-.1c.756-.04,2.609-.129,3.653-.121h.025a5.511,5.511,0,0,0,2.189-.53.488.488,0,0,1,.012-.131,5.425,5.425,0,0,1-2.225.545c-1.045,0-2.906.084-3.659.123a4.124,4.124,0,0,0-.724.107,14.278,14.278,0,0,1-2.868.476Z" transform="translate(5.87 8.419)" fill="#0c9adc"/><path id="Path_1265" data-name="Path 1265" d="M95.627,91.1a2.033,2.033,0,0,1-.015.268l.965,5.832c.172.164.339.322.5.475A12.649,12.649,0,0,1,98.418,99.1c.567.882,2.574.429,2.54.342S100.1,95.2,100.1,95.2l-.652-1.678a1.074,1.074,0,0,1-1.35-.284c-.422-.448-1.365-1.324-2.007-1.91l-.453-.413C95.631,90.985,95.629,91.05,95.627,91.1Z" transform="translate(5.957 6.598)" opacity=".03"/><path id="Path_1266" data-name="Path 1266" d="M93.963,82.626v.117c.013.124.027.257.042.394.139-.051.278-.107.414-.166l.189-.087a9.991,9.991,0,0,0,1.761-1.09l-1.65-.709-.488-.215a.744.744,0,0,0-.322.284A7.586,7.586,0,0,0,93.963,82.626Z" transform="translate(5.832 5.869)" opacity=".05"/><path id="Path_1267" data-name="Path 1267" d="M80.772,84.323c.045.069.089.136.136.2a11.567,11.567,0,0,0,3.5,3.342,5.431,5.431,0,0,1,1.4,1.088c.4.624,7.052,4.918,7.052,4.918s3.1,2.743,4.967,4.553l.238.231.116.114c.138.134.263.261.379.379.166.168.3.315.411.439l.107.124a1.32,1.32,0,0,1,.1.132c.567.882,2.574.429,2.541.34s-.867-4.233-.867-4.233l-.654-1.678a1.019,1.019,0,0,1-.858.057,1.317,1.317,0,0,1-.49-.342c-.422-.446-1.368-1.325-2.009-1.909-.379-.348-.651-.594-.651-.594l-2.133-2.415s-2.73-3.555-4.776-4.436a21.821,21.821,0,0,1,3.951-1.2A7.164,7.164,0,0,0,95.056,83l.189-.089A10.075,10.075,0,0,0,97,81.821l-1.644-.708-8.671-3.728c-.053,0-.556.034-.925.059l-.391.027s-3.233,3.356-3.4,3.7S79.89,82.952,80.772,84.323Z" transform="translate(4.863 5.616)" fill="#ecb4b6"/><path id="Path_1268" data-name="Path 1268" d="M89.965,82.4s-3.725.456-4.464,1.224c0,0,3.27.227,3.4.654,0,0-1.868-1.266-2.389-.946Z" transform="translate(5.223 5.98)" opacity=".03"/><path id="Path_1269" data-name="Path 1269" d="M96.877,97.229l.116.114c.138.134.263.261.379.379.166.168.3.316.411.439l.483-.624a1.988,1.988,0,0,0-.548-.332.943.943,0,0,0-.834.027Z" transform="translate(6.049 7.048)" opacity=".05"/><path id="Path_1270" data-name="Path 1270" d="M97.136,98.616a2.565,2.565,0,0,0,.389.161l.379-.5.49-.636a1.959,1.959,0,0,0-.548-.331.947.947,0,0,0-.834.025,1.208,1.208,0,0,0-.444.49S96.423,98.251,97.136,98.616Z" transform="translate(6.025 7.056)" fill="#0c9adc"/><path id="Path_1271" data-name="Path 1271" d="M97.025,98.834l.077.077a2.565,2.565,0,0,0,.389.161l.379-.5a1.32,1.32,0,0,1,.1.132c.567.882,2.574.429,2.541.34s-.858-4.233-.858-4.233L99,93.133a1.019,1.019,0,0,1-.858.057.419.419,0,0,0-.005.592l.005.005a4.008,4.008,0,0,1,.644,1.892c.255.7-.52,1.566-.965,1.931a1.342,1.342,0,0,1-.24.161.559.559,0,0,0-.215.242A4.524,4.524,0,0,0,97.025,98.834Z" transform="translate(6.059 6.759)" opacity=".05"/><path id="Path_1272" data-name="Path 1272" d="M97.236,98.882l.858.867a6.454,6.454,0,0,1,2.611,3.257,7.111,7.111,0,0,0,.308.756,3.381,3.381,0,0,1,.225,1.063c.02.221.03.439.038.629a1.023,1.023,0,0,0,.257.656l.012.012a1.02,1.02,0,0,0,1.394.119c.03-.025.047-.042.047-.042,1.42-1.165.724-6.485.255-7.224s-.555-4.54-.726-5.743c-.079-.567-.379-.741-.768-.756a10.974,10.974,0,0,0-1.347.2h-.072c-.884.07-2.574.331-1.984,1.15a3.965,3.965,0,0,1,.644,1.892c.314.867-.946,1.977-1.207,2.081S97.236,98.882,97.236,98.882Z" transform="translate(6.075 6.712)" fill="#0c9adc"/><circle id="Ellipse_208" data-name="Ellipse 208" cx=".252" cy=".252" r=".252" transform="translate(104.306 104.806)" fill="#4b4b5b"/><circle id="Ellipse_209" data-name="Ellipse 209" cx=".252" cy=".252" r=".252" transform="translate(104.69 105.748)" fill="#4b4b5b"/><circle id="Ellipse_210" data-name="Ellipse 210" cx=".252" cy=".252" r=".252" transform="translate(105.871 107.265)" fill="#4b4b5b"/><circle id="Ellipse_211" data-name="Ellipse 211" cx=".252" cy=".252" r=".252" transform="translate(105.286 106.485)" fill="#4b4b5b"/><circle id="Ellipse_212" data-name="Ellipse 212" cx=".252" cy=".252" r=".252" transform="translate(106.36 108.164)" fill="#4b4b5b"/><path id="Path_1273" data-name="Path 1273" d="M101.325,102.475a19.645,19.645,0,0,1,0,3.622,1.024,1.024,0,0,0,1.405.131c.03-.025.047-.042.047-.042,1.42-1.165.724-6.485.255-7.224s-.555-4.54-.726-5.743c-.079-.567-.379-.741-.768-.756a10.972,10.972,0,0,0-1.347.2,24.2,24.2,0,0,0,.379,4.892A34.741,34.741,0,0,1,101.325,102.475Z" transform="translate(6.289 6.711)" opacity=".1"/><path id="Path_1274" data-name="Path 1274" d="M101.86,97.454a22.584,22.584,0,0,1,.626,4.856c-.028,1,.087,2.957.151,3.923.03-.025.047-.042.047-.042,1.42-1.165.724-6.485.255-7.224s-.555-4.54-.726-5.743c-.079-.567-.379-.741-.768-.756A42.148,42.148,0,0,0,101.86,97.454Z" transform="translate(6.38 6.711)" opacity=".1"/><path id="Path_1275" data-name="Path 1275" d="M100.937,92.529a26.913,26.913,0,0,0,.473,4.3,47.547,47.547,0,0,1,.684,5.549h-.114a48,48,0,0,0-.679-5.522,26.249,26.249,0,0,1-.476-4.313Z" transform="translate(6.335 6.715)" fill="#0c9adc"/><path id="Path_1276" data-name="Path 1276" d="M100.844,47.984a21.815,21.815,0,0,0-2.881.713c-1.043.386-1.2.6-1.2.6l-1.08.171V48.308a35.746,35.746,0,0,1-4.26.129.085.085,0,0,1-.025-.015c-.189-.189.114,1.5-.171,1.858s-1.513,1.609.778,2.527S99.5,53.824,99.5,53.824l1.479-2.918Z" transform="translate(5.597 3.482)" fill="#636780"/><path id="Path_1277" data-name="Path 1277" d="M105.856,53.877l-4.092-.872a9.89,9.89,0,0,0,1.18-3.133,4.3,4.3,0,0,0-.275-2.631c-1.18-2.388,3.181-3.641,3.181-3.641a21.832,21.832,0,0,0,3.027,3.706A2.34,2.34,0,0,0,110.2,48C111.733,48,105.856,53.877,105.856,53.877Z" transform="translate(6.403 3.164)" fill="#ecb4b6"/><path id="Path_1278" data-name="Path 1278" d="M85.043,77.813s1.78,4.209,3.4,4.285c.981.045,4.008.461,6.265.785l.2.028a10.055,10.055,0,0,0,1.761-1.09l-1.644-.708-8.671-3.728c-.053,0-.556.034-.925.059Z" transform="translate(5.19 5.616)" opacity=".1"/><path id="Path_1279" data-name="Path 1279" d="M97.136,81.341c1.548.223-.418,1.782-.418,1.782a6.726,6.726,0,0,1,1.63,2.648c.874,2.081,1.287,1.931,1.287,1.931l2.423.132c.074-1.065.138-1.838.138-1.838l-1.65-4.018-1.94-2.541a31.132,31.132,0,0,0-4.337,1.513l-.032.017a.744.744,0,0,0-.322.284C93.867,81.413,97.067,80.589,97.136,81.341Z" transform="translate(5.834 5.765)" opacity=".1"/><path id="Path_1280" data-name="Path 1280" d="M105.856,53.626l-4.092-.872a9.89,9.89,0,0,0,1.18-3.133l1.281,1.236a3.16,3.16,0,0,0,1.754-.513,2.663,2.663,0,0,0,.6-.548c.91-1.135,2.007-2.616,2.007-2.616s.129-.059.3-.123a2.348,2.348,0,0,0,1.325.693C111.733,47.749,105.856,53.626,105.856,53.626Z" transform="translate(6.403 3.415)" opacity=".1"/><path id="Path_1281" data-name="Path 1281" d="M85.043,79.668s1.78,4.209,3.4,4.29,8.91,1.18,8.91,1.18a6.726,6.726,0,0,1,1.63,2.648c.874,2.081,1.287,1.931,1.287,1.931l2.8.151.536-3.183a24.026,24.026,0,0,1,2.16-4.513,18.015,18.015,0,0,0,2.046-6.972s.567-1.1.418-1.593-.644-4.4-.683-4.816a10.771,10.771,0,0,1,.834-2.27,14.679,14.679,0,0,0,1.63-2.616c-.038-.346.644-1.324.644-1.324l1.513-2.495a1.134,1.134,0,0,0,.157,1.167c.454.607.074,1.823.074,1.823l.092,1.531.02.367s-.227.227-.847.8-.327.644-.327.644c1.931-.265,3.45,2.883,3.45,2.883a15.635,15.635,0,0,0,2.459-2.125,1.316,1.316,0,0,0,.215-.365,9.812,9.812,0,0,0-.012-3.957,2.129,2.129,0,0,0-.161-2.237,3.786,3.786,0,0,0-.416-2.956l-.076-3.3c.416-.87-1.025-3.027-1.025-3.027s-.34-1.63-.644-1.782-.644-.834-.644-.834c.038-.756-1.972-.834-2.16-.872a3.694,3.694,0,0,1-.686-.4,5.99,5.99,0,0,0-.6-.357c-.342-.151-1.252.267-1.252.267s-1.1,1.477-2.009,2.616a2.635,2.635,0,0,1-.6.548,3.166,3.166,0,0,1-1.748.507l-1.305-1.258L100.282,50l-.9,4.436c-1.972,1.628-1.214,3.488-1.253,4.7s-.227,2.648-.227,2.648a4.584,4.584,0,0,0-.721,2.081,3.872,3.872,0,0,1-.607,1.892s-1.061,1.18-.946,1.931a4.747,4.747,0,0,1-.189,1.744s-.719,1.325-.416,2.081a1.789,1.789,0,0,1,.151,1.18s-1.555.227-1.668,1.061S92,74.89,92,74.89a26.014,26.014,0,0,0-3.11,1.325C88.271,76.613,85.043,79.668,85.043,79.668Z" transform="translate(5.19 3.415)" fill="#636780"/><path id="Path_1282" data-name="Path 1282" d="M114.952,60.178s-2.837.342-3.186.756,2.837.456,2.837.456Z" transform="translate(7.127 4.367)" opacity=".1"/><path id="Path_1283" data-name="Path 1283" d="M110.811,62.321s2.081-.74,2.145-.513-2.145,1.479-2.145,1.479Z" transform="translate(7.06 4.483)" opacity=".1"/><path id="Path_1284" data-name="Path 1284" d="M110.224,58.549c-.361.57-3.346,4.239-3.346,4.239l3.218-4.694Z" transform="translate(6.775 4.216)" opacity=".1"/><path id="Path_1285" data-name="Path 1285" d="M109.769,57.594c-.227.3-2.635,4.246-2.635,4.246l2.427-4.436Z" transform="translate(6.793 4.166)" opacity=".1"/><path id="Path_1286" data-name="Path 1286" d="M114.422,53.232s-.929-1.309-1.838-.475S114.422,53.232,114.422,53.232Z" transform="translate(7.175 3.809)" opacity=".1"/><path id="Path_1287" data-name="Path 1287" d="M108.491,52.16a11.267,11.267,0,0,0-3.526.536C103.809,53.221,105.99,51.1,108.491,52.16Z" transform="translate(6.613 3.764)" opacity=".1"/><path id="Path_1288" data-name="Path 1288" d="M105.695,50.712h.35a1.851,1.851,0,0,0,1.023-.931c.208-.629,1.848-.055,1.848-.055s.236.178.028-.114.721-1.212,1.135-1.823a.514.514,0,0,0,.072-.153,5.815,5.815,0,0,0-.6-.359c-.342-.151-1.252.267-1.252.267s-1.1,1.479-2.009,2.616A2.629,2.629,0,0,1,105.695,50.712Z" transform="translate(6.689 3.429)" opacity=".1"/><path id="Path_1289" data-name="Path 1289" d="M105.695,50.5h.35a1.851,1.851,0,0,0,1.023-.931c.208-.629,1.848-.055,1.848-.055s.236.178.028-.114.721-1.212,1.135-1.823a.514.514,0,0,0,.072-.156,5.991,5.991,0,0,0-.6-.357c-.342-.151-1.252.267-1.252.267s-1.1,1.477-2.009,2.616A2.629,2.629,0,0,1,105.695,50.5Z" transform="translate(6.689 3.413)" fill="#636780"/><circle id="Ellipse_213" data-name="Ellipse 213" cx=".252" cy=".252" r=".252" transform="translate(109.334 56.037)" fill="#e7c7ca"/><circle id="Ellipse_214" data-name="Ellipse 214" cx=".252" cy=".252" r=".252" transform="translate(105.01 61.92)" fill="#e7c7ca"/><circle id="Ellipse_215" data-name="Ellipse 215" cx=".252" cy=".252" r=".252" transform="translate(106.57 58.207)" fill="#e7c7ca"/><circle id="Ellipse_216" data-name="Ellipse 216" cx=".252" cy=".252" r=".252" transform="translate(104.312 65.745)" fill="#e7c7ca"/><circle id="Ellipse_217" data-name="Ellipse 217" cx=".252" cy=".252" r=".252" transform="translate(101.108 72.342)" fill="#e7c7ca"/><circle id="Ellipse_218" data-name="Ellipse 218" cx=".252" cy=".252" r=".252" transform="translate(100.856 75.723)" fill="#e7c7ca"/><path id="Path_1290" data-name="Path 1290" d="M91.759,48.562l.511,1.65,1.609-.114,1.439-1.536s.094-.276.242-.686a24.484,24.484,0,0,1,1.429-3.432,16.2,16.2,0,0,0,.872-4.093s-.582-1.325-2.245,1.324c-1.251,2-2.807,4.888-3.5,6.193C91.9,48.3,91.759,48.562,91.759,48.562Z" transform="translate(5.677 2.904)" fill="#ecb4b6"/><path id="Path_1291" data-name="Path 1291" d="M98.413,69.88c0,.4,1.7.594,2.507.662l.413.028c-.189.429.815,3.689.815,3.689a2.017,2.017,0,0,0,.253-.032,16.454,16.454,0,0,0,3.936-2.093s.057-.626,2.758-1.724a12.262,12.262,0,0,0,4.171-3.082,4.814,4.814,0,0,1,.429-.446l-2.4-2.472s-.388.359-.9.842a31.667,31.667,0,0,0-2.42,2.425,29.944,29.944,0,0,1-3.961,2.213,5.716,5.716,0,0,0-2.635-.872S98.413,69.351,98.413,69.88Z" transform="translate(6.16 4.675)" fill="#ecb4b6"/><path id="Path_1292" data-name="Path 1292" d="M102.988,61.541c-.114.227-5.256,3.639-6.123,3.7s.815-1.63.872-1.65S102.988,61.541,102.988,61.541Z" transform="translate(6.03 4.466)" opacity=".1"/><path id="Path_1293" data-name="Path 1293" d="M76.733,112.056l-.189-.044Z" transform="translate(4.573 8.129)" opacity=".1"/><path id="Path_1294" data-name="Path 1294" d="M90.695,115.286a2.071,2.071,0,0,1,.8-.272,5.678,5.678,0,0,0,1.595-.049,3.815,3.815,0,0,0-.117,1.4l-.483-.019S90.688,115.955,90.695,115.286Z" transform="translate(5.6 8.344)" fill="#fff" opacity=".3"/><path id="Path_1295" data-name="Path 1295" d="M76.845,112.076l-.107-.02Z" transform="translate(4.587 8.133)" opacity=".1"/><path id="Path_1296" data-name="Path 1296" d="M100.972,103.986c.02.221.03.439.038.627a1.023,1.023,0,0,0,.257.656l.012.012a9.156,9.156,0,0,0,.084-1.349C101.322,103.992,101.152,104,100.972,103.986Z" transform="translate(6.346 7.543)" fill="#fff" opacity=".3"/><path id="Path_1297" data-name="Path 1297" d="M109.583,65.244c1.236-.077,2.289,1.2,2.862,2.081a4.814,4.814,0,0,1,.429-.446l-2.389-2.467S110.086,64.762,109.583,65.244Z" transform="translate(6.971 4.675)" opacity=".1"/><path id="Path_1298" data-name="Path 1298" d="M109.578,65.013c1.931-.265,3.45,2.883,3.45,2.883a15.574,15.574,0,0,0,2.459-2.124,1.313,1.313,0,0,0,.215-.367c-.45-1.082-1.693-2.885-4.971-2.2l.02.367s-.227.227-.847.795S109.578,65.013,109.578,65.013Z" transform="translate(6.965 4.576)" opacity=".1"/><path id="Path_1299" data-name="Path 1299" d="M109.578,65.225c1.931-.265,3.45,2.883,3.45,2.883a15.636,15.636,0,0,0,2.459-2.125,1.317,1.317,0,0,0,.215-.365c-.45-1.082-1.693-2.886-4.971-2.2l.02.367s-.227.227-.847.8S109.578,65.225,109.578,65.225Z" transform="translate(6.965 4.592)" fill="#ff718d"/><path id="Path_1300" data-name="Path 1300" d="M109.578,65.225c1.931-.265,3.45,2.883,3.45,2.883a15.636,15.636,0,0,0,2.459-2.125,1.317,1.317,0,0,0,.215-.365c-.45-1.082-1.693-2.886-4.971-2.2l.02.367s-.227.227-.847.8S109.578,65.225,109.578,65.225Z" transform="translate(6.965 4.592)" fill="#636780"/><path id="Path_1301" data-name="Path 1301" d="M91.759,48.03l.511,1.65,1.609-.114,1.439-1.536s.094-.276.242-.686a7.527,7.527,0,0,1-2.44.929c-.671.034-.919-.594-1-.929C91.9,47.773,91.759,48.03,91.759,48.03Z" transform="translate(5.677 3.436)" opacity=".1"/><path id="Path_1302" data-name="Path 1302" d="M91.3,48.585l.107-.123c.379-.439.719-.778.719-.778a1.768,1.768,0,0,0,.327.815.828.828,0,0,0,.715.322,4.531,4.531,0,0,0,1.415-.418c.567-.253,1.05-.526,1.05-.526v.456l.01.454v1.043s.4,2.767-3.28,1.287c0,0,.228-1.016-1.169-.823Z" transform="translate(5.636 3.461)" opacity=".1"/><path id="Path_1303" data-name="Path 1303" d="M95.689,47.556l.019.91v1.043s.4,2.767-3.28,1.287c0,0,.267-1.18-1.513-.756s1.273-2.675,1.273-2.675.129,1.18,1.043,1.135A7.62,7.62,0,0,0,95.689,47.556Z" transform="translate(5.576 3.437)" fill="#ff718d"/><path id="Path_1304" data-name="Path 1304" d="M95.689,47.556l.019.91v1.043s.4,2.767-3.28,1.287c0,0,.267-1.18-1.513-.756s1.273-2.675,1.273-2.675.129,1.18,1.043,1.135A7.62,7.62,0,0,0,95.689,47.556Z" transform="translate(5.576 3.437)" fill="#636780"/><path id="Path_1305" data-name="Path 1305" d="M102.059,74.868c-.038-.057-.189-4.587-.778-4.7a5.794,5.794,0,0,0-2.046.492l.265,3.62Z" transform="translate(6.22 5.092)" opacity=".1"/><path id="Path_1306" data-name="Path 1306" d="M101.153,70.163c-.189.429.815,3.689.815,3.689a2.014,2.014,0,0,0,.253-.032c-.092-1.348-.29-3.679-.709-3.754a2.021,2.021,0,0,0-.772.074Z" transform="translate(6.329 5.084)" opacity=".1"/><path id="Path_1307" data-name="Path 1307" d="M102.27,74.762c-.038-.057-.189-4.587-.778-4.7a5.722,5.722,0,0,0-2.046.493l.265,3.621Z" transform="translate(6.235 5.085)" fill="#ff718d"/><path id="Path_1308" data-name="Path 1308" d="M102.27,74.762c-.038-.057-.189-4.587-.778-4.7a5.722,5.722,0,0,0-2.046.493l.265,3.621Z" transform="translate(6.235 5.085)" fill="#636780"/><path id="Path_1309" data-name="Path 1309" d="M97.31,49.588a9.946,9.946,0,0,0,.993-2.326,11.048,11.048,0,0,0,.34-1.18,4.692,4.692,0,0,0,3.218,2,9.52,9.52,0,0,1,.379.9,2.534,2.534,0,0,1-.388,2.351,1.9,1.9,0,0,1-2.24.536,4.536,4.536,0,0,0-.668-.356,3.428,3.428,0,0,0-1.549.189,2.424,2.424,0,0,1-2.022-.587A3.377,3.377,0,0,0,97.31,49.588Z" transform="translate(5.94 3.344)" fill="#3f3d56"/><circle id="Ellipse_219" data-name="Ellipse 219" cx="4.701" cy="4.701" r="4.701" transform="translate(103.805 42.372)" opacity=".1"/><circle id="Ellipse_220" data-name="Ellipse 220" cx="4.701" cy="4.701" r="4.701" transform="translate(103.805 42.065)" fill="#ecb4b6"/><path id="Path_1310" data-name="Path 1310" d="M97.068,42.35a1.454,1.454,0,0,1-.587-.77A2.781,2.781,0,0,1,98.137,38.1c.356-.119.734-.161,1.093-.27a10.33,10.33,0,0,0,2.581-1.63,7.454,7.454,0,0,1,2.908-1.169,2.952,2.952,0,0,1,2.252.342,3.5,3.5,0,0,1,1.082,2.344,4.306,4.306,0,0,0,.919,2.437,6.224,6.224,0,0,0,1.856.989,2.023,2.023,0,0,1,1.325,1.513,6.584,6.584,0,0,1-.422,1.591,3.456,3.456,0,0,0,.278,1.823,21.826,21.826,0,0,0,2.341,4.65,12.693,12.693,0,0,1-3.723,1.373A3.224,3.224,0,0,1,109,52.1a2.68,2.68,0,0,1-1.468-1.394,4.634,4.634,0,0,1-.5-1.756c-.092-1.221.29-2.529-.251-3.626a1.251,1.251,0,0,0-.475-.547,3.716,3.716,0,0,0-.79-.24,3.2,3.2,0,0,1-1.167-.8L103.1,42.568a3.537,3.537,0,0,0-.974-.716,2.418,2.418,0,0,0-2.081.233c-.555.31-1.194.775-1.754.476" transform="translate(6.01 2.536)" fill="#3f3d56"/><g id="Group_334" data-name="Group 334" transform="translate(102.341 42.279)" opacity=".1"><path id="Path_1311" data-name="Path 1311" d="M2.175-86.2l-.332-.094A.786.786,0,0,0,2.175-86.2Z" transform="translate(.132 89.112)"/><path id="Path_1312" data-name="Path 1312" d="M2.153-86.205s.24.027.164,0A1.045,1.045,0,0,1,2.153-86.205Z" transform="translate(.155 89.118)"/><path id="Path_1313" data-name="Path 1313" d="M14.45-77.188a3.273,3.273,0,0,1-1.623.01,2.68,2.68,0,0,1-1.468-1.394,4.634,4.634,0,0,1-.5-1.756c-.092-1.221.29-2.527-.25-3.626a1.27,1.27,0,0,0-.463-.547,3.574,3.574,0,0,0-.79-.238,3.249,3.249,0,0,1-1.167-.8L6.941-86.706a3.537,3.537,0,0,0-.974-.716,2.418,2.418,0,0,0-2.081.233,3.759,3.759,0,0,1-1.256.567c.075.027-.164,0-.164,0a.84.84,0,0,0,.164,0c-.536-.2-1.222,0-1.734-.3a1.453,1.453,0,0,1-.59-.773,2.484,2.484,0,0,1-.127-1.226A2.624,2.624,0,0,0,.154-87.09a1.455,1.455,0,0,0,.59.772c.511.295,1.2.094,1.734.3a3.7,3.7,0,0,0,1.256-.567,2.418,2.418,0,0,1,2.081-.233,3.537,3.537,0,0,1,.974.716l1.252,1.165a3.2,3.2,0,0,0,1.167.8,3.715,3.715,0,0,1,.79.24,1.258,1.258,0,0,1,.461.547c.536,1.1.159,2.406.252,3.626a4.634,4.634,0,0,0,.5,1.756,2.68,2.68,0,0,0,1.468,1.394,3.216,3.216,0,0,0,1.621-.01,12.694,12.694,0,0,0,3.725-1.373c-.087-.131-.173-.263-.255-.4A12.724,12.724,0,0,1,14.45-77.188Z" transform="translate(-.002 88.921)"/><path id="Path_1314" data-name="Path 1314" d="M14.767-86.04a5.479,5.479,0,0,0-.265.8,1.691,1.691,0,0,0-.025.178A3.746,3.746,0,0,0,14.767-86.04Z" transform="translate(1.049 89.13)"/></g><path id="Path_1315" data-name="Path 1315" d="M101.877,50.737a1.906,1.906,0,0,1-2.24.536,4.748,4.748,0,0,0-.668-.356,3.428,3.428,0,0,0-1.549.189,2.432,2.432,0,0,1-1.742-.379,2.847,2.847,0,0,1-.28.092,2.427,2.427,0,0,0,2.022.585,3.231,3.231,0,0,1,1.549-.189,4.931,4.931,0,0,1,.668.357,1.9,1.9,0,0,0,2.24-.536,2.41,2.41,0,0,0,.513-1.678A2.341,2.341,0,0,1,101.877,50.737Z" transform="translate(5.941 3.582)" opacity=".1"/><path id="Path_1316" data-name="Path 1316" d="M16.107,99.087s2.241,8.194,7.554,5.344a1.455,1.455,0,0,0,1.212-1.212s-.425.13-.556-.731a4.288,4.288,0,0,0-.252-.891,1.947,1.947,0,0,0-.808-.919h0a6.759,6.759,0,0,0-5.7-1.572s-1.026-.378-1.212-.281l1.036,1.162a2.606,2.606,0,0,1,1.76-.713s-1.742.638-1.616.883c.025.053.578.592.578.592a4.21,4.21,0,0,1,2.879-1.194s-2.181.485-2.673,1.4l.883.77a4.444,4.444,0,0,1,3.1-1.386s-2.259.583-2.894,1.539l.97.638a4.325,4.325,0,0,1,2.812-1.335s-2.544.942-2.581,1.465a5.451,5.451,0,0,0,1.237.556s1.068-1.026,1.849-.881c0,0-1.632.808-1.578,1a6.347,6.347,0,0,0,2.192.186,4.329,4.329,0,0,1-2.238.032,2.427,2.427,0,0,0,.99.956s-.841.153-1.326-1.047a5.561,5.561,0,0,1-1.18-.481,5.224,5.224,0,0,0,.887,1.877,2.312,2.312,0,0,1-1.152-2.039l-.988-.62a7.45,7.45,0,0,0,.808,2.277,2.931,2.931,0,0,1-1.033-2.451l-.873-.741a8.85,8.85,0,0,0,.551,2.245,3.565,3.565,0,0,1-.794-2.469l-.523-.564s.144,1.068.2,1.372,0,.356,0,.356a3.647,3.647,0,0,1-.428-1.952A8.78,8.78,0,0,0,16.107,99.087Z" transform="translate(.187 7.171)" fill="#0c9add" opacity=".1"/></g></svg>