<svg xmlns="http://www.w3.org/2000/svg" width="189.998" height="90.1" viewBox="0 0 189.998 90.1"><defs><linearGradient id="a" x1=".5" y1="1" x2=".5" gradientUnits="objectBoundingBox"><stop offset="0" stop-color="gray" stop-opacity=".251"/><stop offset=".54" stop-color="gray" stop-opacity=".122"/><stop offset="1" stop-color="gray" stop-opacity=".102"/></linearGradient></defs><g transform="translate(-4.039 -29.08)"><ellipse data-name="Ellipse 15" cx="70.627" cy="1.892" rx="70.627" ry="1.892" transform="translate(4.038 85.842)" fill="#0c9add" opacity=".1"/><g data-name="Group 244" opacity=".7"><path data-name="Rectangle 238" fill="#65617d" d="M25.839 73.771H48.36v12.432H25.839z"/><path data-name="Rectangle 239" opacity=".1" d="M33.766 75.933h6.846v1.441h-6.846z"/><path data-name="Rectangle 240" opacity=".1" d="M34.622 76.113h5.135v1.081h-5.135z"/><path data-name="Rectangle 241" fill="#65617d" d="M48.721 73.771h22.521v12.432H48.721z"/><path data-name="Rectangle 242" opacity=".1" d="M56.648 75.933h6.846v1.441h-6.846z"/><path data-name="Rectangle 243" opacity=".1" d="M57.504 76.113h5.135v1.081h-5.135z"/><path data-name="Rectangle 244" fill="#65617d" d="M25.839 60.978H48.36V73.41H25.839z"/><path data-name="Rectangle 245" opacity=".1" d="M33.766 63.141h6.846v1.441h-6.846z"/><path data-name="Rectangle 246" opacity=".1" d="M34.622 63.321h5.135v1.081h-5.135z"/><path data-name="Rectangle 247" fill="#65617d" d="M48.721 60.978h22.521V73.41H48.721z"/><path data-name="Rectangle 248" opacity=".1" d="M56.648 63.141h6.846v1.441h-6.846z"/><path data-name="Rectangle 249" opacity=".1" d="M57.504 63.321h5.135v1.081h-5.135z"/><path data-name="Rectangle 250" fill="#65617d" d="M25.839 48.006H48.36v12.432H25.839z"/><path data-name="Rectangle 251" opacity=".1" d="M33.766 50.168h6.846v1.441h-6.846z"/><path data-name="Rectangle 252" opacity=".1" d="M34.622 50.348h5.135v1.081h-5.135z"/><path data-name="Rectangle 253" fill="#65617d" d="M48.721 48.006h22.521v12.432H48.721z"/><path data-name="Rectangle 254" opacity=".1" d="M56.648 50.168h6.846v1.441h-6.846z"/><path data-name="Rectangle 255" opacity=".1" d="M57.504 50.348h5.135v1.081h-5.135z"/><path data-name="Rectangle 256" fill="#65617d" d="M48.721 35.034h22.521v12.432H48.721z"/><path data-name="Rectangle 257" opacity=".1" d="M56.648 37.196h6.846v1.441h-6.846z"/><path data-name="Rectangle 258" opacity=".1" d="M57.504 37.376h5.135v1.081h-5.135z"/></g><g data-name="Group 245" opacity=".7"><path data-name="Rectangle 259" fill="#65617d" d="M71.602 73.591h22.521v12.432H71.602z"/><path data-name="Rectangle 260" opacity=".1" d="M79.529 75.753h6.846v1.441h-6.846z"/><path data-name="Rectangle 261" opacity=".1" d="M80.385 75.933h5.135v1.081h-5.135z"/><path data-name="Rectangle 262" fill="#65617d" d="M94.484 73.591h22.521v12.432H94.484z"/><path data-name="Rectangle 263" opacity=".1" d="M102.411 75.753h6.846v1.441h-6.846z"/><path data-name="Rectangle 264" opacity=".1" d="M103.267 75.933h5.135v1.081h-5.135z"/><path data-name="Rectangle 265" fill="#65617d" d="M71.602 60.798h22.521V73.23H71.602z"/><path data-name="Rectangle 266" opacity=".1" d="M79.529 62.961h6.846v1.441h-6.846z"/><path data-name="Rectangle 267" opacity=".1" d="M80.385 63.141h5.135v1.081h-5.135z"/><path data-name="Rectangle 268" fill="#65617d" d="M94.484 60.798h22.521V73.23H94.484z"/><path data-name="Rectangle 269" opacity=".1" d="M102.411 62.961h6.846v1.441h-6.846z"/><path data-name="Rectangle 270" opacity=".1" d="M103.267 63.141h5.135v1.081h-5.135z"/><path data-name="Rectangle 271" fill="#65617d" d="M71.602 47.826h22.521v12.432H71.602z"/><path data-name="Rectangle 272" opacity=".1" d="M79.529 49.988h6.846v1.441h-6.846z"/><path data-name="Rectangle 273" opacity=".1" d="M80.385 50.168h5.135v1.081h-5.135z"/><path data-name="Rectangle 274" fill="#65617d" d="M94.484 47.826h22.521v12.432H94.484z"/><path data-name="Rectangle 275" opacity=".1" d="M102.411 49.988h6.846v1.441h-6.846z"/><path data-name="Rectangle 276" opacity=".1" d="M103.267 50.168h5.135v1.081h-5.135z"/><path data-name="Rectangle 277" fill="#65617d" d="M94.484 34.854h22.521v12.432H94.484z"/><path data-name="Rectangle 278" opacity=".1" d="M102.411 37.016h6.846v1.441h-6.846z"/><path data-name="Rectangle 279" opacity=".1" d="M103.267 37.196h5.135v1.081h-5.135z"/></g><ellipse data-name="Ellipse 16" cx="7.245" cy="1.225" rx="7.245" ry="1.225" transform="translate(33.402 115.552)" fill="#eb1c24"/><path data-name="Path 373" d="M43.644 114.774a2.1 2.1 0 00.69-1.043.93.93 0 00-.483-1.061c-.443-.169-.917.139-1.276.449a1.7 1.7 0 01-1.24.6 1.892 1.892 0 00.584-1.768.743.743 0 00-.162-.36c-.247-.263-.692-.151-.987.056a3.68 3.68 0 00-1.2 3.077 5.786 5.786 0 01-.016-1.261 1.3 1.3 0 00-.477-1.122 1.427 1.427 0 00-.721-.169 1.5 1.5 0 00-1.177.335 1.161 1.161 0 00.045 1.441 4.589 4.589 0 001.22.977 2.7 2.7 0 01.87.831.746.746 0 01.065.15h2.641a7.352 7.352 0 001.624-1.132z" fill="#eb1c24"/><path data-name="Path 374" d="M129.501 63.456a.82.82 0 00-.449-.645.838.838 0 00-1.11.468l-4 8.419-.9 33.151h1.441l.541-33.077 4.4-7.794a.856.856 0 00.077-.522z" fill="#3f3d56"/><path data-name="Path 375" d="M194.038 112.338a26.081 26.081 0 01-3.8 2.758.632.632 0 01-.07.083 1.173 1.173 0 01-.5.249 29.659 29.659 0 01-14.608 3.751H76.005c-11.35-1.167-18.276-2.715-18.276-4.414 0-1.317 4.158-2.544 11.318-3.571q1.113-.162 2.322-.314.744-.093 1.522-.18l.881-.1q.98-.112 2.012-.218h.056l.721-.072q.914-.095 1.865-.18l.461-.041 1.177-.1q1.146-.1 2.342-.2l2.018-.155c6.929-.513 14.918-.9 23.611-1.151l2.483-.085.836-.018 1.766-.04.708-.014.744-.014.53-.009 2.486-.04 1.277-.018h.261q4.531-.054 9.232-.056c6.194 0 12.2.074 17.925.214q4.929.119 9.558.3h.029c8.9.349 16.86.865 23.451 1.5l.121.013a216.9 216.9 0 014.8.519c1.414.169 2.742.348 3.975.53.427.063.841.128 1.245.191l.1.018c1.707.278 3.206.559 4.476.864z" fill="#0c9add" opacity=".1"/><path data-name="Path 376" d="M792.4 361.6a.626.626 0 01-.07.083 1.172 1.172 0 01-.5.249 4.989 4.989 0 01-1.117.18h-.113a4.849 4.849 0 01-.647-.022 3.006 3.006 0 00-.474-.031h-.022a3.372 3.372 0 00-.676.168 6 6 0 01-1.5.213h-.18c-.566 0-1.139-.02-1.706-.016h-.276c-.973.025-1.94.18-2.913.2h-.312a4.584 4.584 0 01-2.686-.8 1.061 1.061 0 01-.36-.4 1.135 1.135 0 01-.063-.541 1.272 1.272 0 01.326-.9 1.419 1.419 0 01.519-.25c.33-.106.661-.209.991-.312s.706-.213 1.061-.317l.069-.022.2-.059.128-.043a2.1 2.1 0 00.443-.2 1.468 1.468 0 00.456-.456c.02-.032.041-.067.059-.1s0-.056-.013-.085c-.031-.225-.054-.456-.094-.676a2.7 2.7 0 01-1.332-.753 4.277 4.277 0 01-.776-1.05 21.98 21.98 0 01-1.014-2.681 23.89 23.89 0 00-2.008-3.879c-.688-1.149-1.38-2.3-2.162-3.389-.521-.721-1.081-1.407-1.6-2.13a18.917 18.917 0 01-3.077-6.72 8.908 8.908 0 00-.373-1.366 13.883 13.883 0 00-1.317-2.065 6.836 6.836 0 01-.953-2.445c-.09-.494-.241-1.027-.733-1.081l-.052.1a23.621 23.621 0 01-3.6 5.618 5.941 5.941 0 00-.672.773 7.437 7.437 0 00-.432.832 5.406 5.406 0 01-.957 1.4 2.73 2.73 0 01-.378.319 2.035 2.035 0 01-.593.3 1.761 1.761 0 01-.256.058c0 .022.009.041.011.063s.011.047.014.07a8.467 8.467 0 01-.33 4.311 2.138 2.138 0 01-.043.128q-.112.3-.243.595c-.22.477-.481.935-.686 1.42-.034.083-.068.166-.1.249-.721 1.93-.541 4.084-.634 6.158a6.78 6.78 0 01-.16 1.348c-.122.5-.319 1.014-.427 1.53a2.588 2.588 0 00-.023 1.18l-.043.016a13.03 13.03 0 01-.586.2v.027l.209 1.209a1.769 1.769 0 00.371.966 1.322 1.322 0 01.18.18c.142.223.016.519.043.784.04.375.385.694.331 1.067a.7.7 0 01-.422.5 1.245 1.245 0 01-.277.088l-.06.013c-.108.02-.216.031-.324.041a15.114 15.114 0 01-4.032.04c-.263-.045-.524-.1-.791-.126a5.9 5.9 0 00-1.009.041 49.55 49.55 0 01-7.421.144 2.056 2.056 0 01-1.722-.69 2 2 0 01-.038-1.566 1.686 1.686 0 01.218-.541.347.347 0 01.04-.05 1.8 1.8 0 011.492-.422l1.755.052a1.646 1.646 0 00.515-.04 5.428 5.428 0 00.767-.438c.335-.16.757-.18 1-.454l.031-.04a2.146 2.146 0 00.119-.18c0-.013.016-.025.025-.038a.352.352 0 01.022-.032 2.854 2.854 0 01.924-.575.95.95 0 00.135-.1l.036-.032a3.7 3.7 0 01-.876-.881.885.885 0 01-.2-.35.506.506 0 01.022-.294.442.442 0 01.029-.067l.009-.018c.123-.241.375-.459.514-.706a.108.108 0 00.013-.025 1.113 1.113 0 00-.054-1.209c.144-2.373.8-4.684.94-7.064.058-.942.034-1.888.078-2.834s.144-1.863.25-2.791a42.623 42.623 0 00.733-6.328 3.855 3.855 0 01.025-.595.366.366 0 010-.043 3.656 3.656 0 01.4-1.247 9.574 9.574 0 01.885-1.247c1.108-1.441 2.44-2.883 2.834-4.656a10.062 10.062 0 011.1-2.576 4.541 4.541 0 01.964-1.353 4.227 4.227 0 00.636-.541 5.084 5.084 0 00.481-1.364c.09-.236.229-.452.3-.7a.37.37 0 01.018-.074 4.863 4.863 0 00.063-.742 1.685 1.685 0 01.02-.213 7.528 7.528 0 01.614-2.059c.038-.083.074-.168.11-.25a7.721 7.721 0 01-2.162-1.876 4.424 4.424 0 01-.524-.791 9.792 9.792 0 01-.631-2.384c-.418-1.924-1.375-3.737-1.508-5.7a6.31 6.31 0 00-.209-1.787 3.588 3.588 0 00-.2-.447c-.033-.061-.063-.122-.1-.18l-.036-.068-.092-.18-.148.115a107.937 107.937 0 01-11.585 7.913l-.346.205a1.261 1.261 0 00-.458.375c-.015.023-.027.047-.04.07-.083.171-.1.36-.18.54a1.475 1.475 0 01-1 .8 3.1 3.1 0 01-2.279-.294 2.736 2.736 0 01-.259-.144 3.514 3.514 0 01-.663.283 7.854 7.854 0 01-2.222.2 6.672 6.672 0 00-2.214.245 5.533 5.533 0 01-1.42.45 1.317 1.317 0 01-.169 0 2.454 2.454 0 01-.8-.236l-.148-.067a2.424 2.424 0 01-.223-.121 1.236 1.236 0 01-.218-.171.8.8 0 01-.2-.344.572.572 0 010-.286.18.18 0 01.061-.108.2.2 0 01.106-.027 3.242 3.242 0 01.616.052 2.222 2.222 0 00.36.02h.065a.782.782 0 00.54-.306.339.339 0 00.047-.086.4.4 0 00.032-.16.293.293 0 000-.041 2.563 2.563 0 01-.333-.173l-.022-.014a1.227 1.227 0 01-.18-.15.633.633 0 01-.092-.115.692.692 0 01-.106-.216.967.967 0 00-.449.013c-.2.054-.395.169-.589.209a.523.523 0 01-.3-.013c-.281-.1-.38-.443-.44-.737-.011-.056-.023-.113-.032-.171a.913.913 0 010-.335 1.235 1.235 0 01.474-.618l.591-.5.043-.036a1.04 1.04 0 00-.027-.146.917.917 0 010-.337 1.228 1.228 0 01.474-.616l1.308-1.1a1.536 1.536 0 01.831-.443c.474-.032.852.36 1.207.676a2.74 2.74 0 001.585.76 2.33 2.33 0 00.838-.115l.153-.05a6.212 6.212 0 00-.1-.2c-.052-.11-.1-.222-.155-.333a3.579 3.579 0 002.047-.975c.582-.5 1.081-1.1 1.668-1.6.634-.54 1.362-.942 2.005-1.463 1.5-1.213 2.488-2.994 4.088-4.063a5.313 5.313 0 001.575-1.225c.117-.18.205-.36.326-.541a5.7 5.7 0 011.584-1.164 7.878 7.878 0 001.456-1.452c.314-.376.629-.753.928-1.14.276-.513.508-1.05.8-1.557a7.644 7.644 0 01.852-1.2c.074-.144.15-.288.231-.429s.141-.236.216-.36c.052-.081.106-.159.162-.238a11.19 11.19 0 00-.395-.65l-.036-.049a5.412 5.412 0 00-.508-.476 4.81 4.81 0 01-.559-.119 5.256 5.256 0 01-3.866-5.075.048.048 0 010-.016 5.225 5.225 0 01.573-2.375c.076-.148.157-.29.245-.429a1.618 1.618 0 01-.24-.1.95.95 0 01-.335-.276.8.8 0 01-.139-.35 1.781 1.781 0 01.13-.872 4.162 4.162 0 01.168-.389.148.148 0 00.013-.023 5.007 5.007 0 014.238-2.688 7.631 7.631 0 015.111 2.038 6.848 6.848 0 011.16 1.22 7.381 7.381 0 011.21 3.759 5.765 5.765 0 01-.022 1.247 2.949 2.949 0 01-.09.436 2.813 2.813 0 01-.086.254 1.642 1.642 0 01-.081.18v.009c-.027.058-.058.112-.088.166l-.016.023-.023.038c.014.034.031.07.047.1s.031.067.049.1h.022c.36.029.694.079 1.061.108a2.442 2.442 0 01.512.079 3.423 3.423 0 01.935.584c.75.53 1.672.776 2.409 1.324a9.649 9.649 0 012.277 3.335c.865 1.6 2.274 2.962 2.9 4.674q.422 1.166.847 2.328a36.268 36.268 0 001.858 4.477c1.045 1.993 2.459 3.784 3.3 5.877a.938.938 0 00.44.486 38.247 38.247 0 013.036 5.079 9.522 9.522 0 011.036 2.942 7.1 7.1 0 01-.225 2.749 13.335 13.335 0 01-.528 1.56 2.573 2.573 0 00-.18.557v.059a5.089 5.089 0 00.132 1.034 1.914 1.914 0 01-.092.825c-.014.041-.031.083-.047.124a4.45 4.45 0 00-.283.656.657.657 0 00-.014.083 3.34 3.34 0 00.18 1.177 15.792 15.792 0 01.18 4.324c-.041.721.541 1.3 1.027 1.831a19.73 19.73 0 012.285 3.322 10.653 10.653 0 01.931 1.863 15.572 15.572 0 01.5 2.3c.46 2.378 1.96 4.479 2.367 6.863a6.127 6.127 0 001.393 2.951 6.269 6.269 0 01.6.721 2.892 2.892 0 01.3.649 4.806 4.806 0 01.247 1.645 2.475 2.475 0 00.045.8c.169.553.775.858 1.025 1.378s.078 1.187.18 1.778a1.919 1.919 0 00.721 1.2c-.144.126-.3.241-.45.36a1.8 1.8 0 01.373.393 1.776 1.776 0 01.18.319c.238.553.245 1.211.44 1.8a1.3 1.3 0 01.128.753.827.827 0 00-.061.223c0 .162.169.268.234.416a.447.447 0 01-.111.441z" transform="translate(-602.162 -246.505)" fill="url(#a)"/><path data-name="Path 377" d="M152.109 44.83a11.258 11.258 0 003.047-1.533l3.353-2.135a2.916 2.916 0 01-2.162-1.506 7.609 7.609 0 01-.818-2.6 13.584 13.584 0 00-3.854 2.522c-.461.4-1.441 1-1.584 1.621s.766 1.126 1.117 1.542c.121.143 1.257 1.99.901 2.089z" fill="#fbbebe"/><path data-name="Path 378" d="M152.109 44.83a11.258 11.258 0 003.047-1.533l3.353-2.135a2.916 2.916 0 01-2.162-1.506 7.609 7.609 0 01-.818-2.6 13.584 13.584 0 00-3.854 2.522c-.461.4-1.441 1-1.584 1.621s.766 1.126 1.117 1.542c.121.143 1.257 1.99.901 2.089z" opacity=".1"/><path data-name="Path 379" d="M133.788 62.465a3.73 3.73 0 01-1.881.569 2.734 2.734 0 01-1.584-.755c-.36-.314-.731-.7-1.205-.672a1.544 1.544 0 00-.829.44l-1.306 1.094a1.229 1.229 0 00-.474.613 1.217 1.217 0 00.031.508c.06.292.159.632.44.731s.587-.113.885-.195a1.041 1.041 0 011.022.3.607.607 0 01.18.393c0 .326-.36.541-.692.557s-.649-.092-.977-.072a.15.15 0 00-.168.133.688.688 0 00.211.627 1.828 1.828 0 00.587.36 2.4 2.4 0 00.8.234 4.265 4.265 0 001.585-.449 6.854 6.854 0 012.213-.243 7.81 7.81 0 002.218-.2 2.516 2.516 0 001.674-1.362.328.328 0 00.031-.209.346.346 0 00-.151-.18c-1.005-.744-1.413-1.649-2.544-2.184z" fill="#fbbebe"/><path data-name="Path 380" d="M133.788 62.465a3.73 3.73 0 01-1.881.569 2.734 2.734 0 01-1.584-.755c-.36-.314-.731-.7-1.205-.672a1.544 1.544 0 00-.829.44l-1.306 1.094a1.229 1.229 0 00-.474.613 1.217 1.217 0 00.031.508c.06.292.159.632.44.731s.587-.113.885-.195a1.041 1.041 0 011.022.3.607.607 0 01.18.393c0 .326-.36.541-.692.557s-.649-.092-.977-.072a.15.15 0 00-.168.133.688.688 0 00.211.627 1.828 1.828 0 00.587.36 2.4 2.4 0 00.8.234 4.265 4.265 0 001.585-.449 6.854 6.854 0 012.213-.243 7.81 7.81 0 002.218-.2 2.516 2.516 0 001.674-1.362.328.328 0 00.031-.209.346.346 0 00-.151-.18c-1.005-.744-1.413-1.649-2.544-2.184z" opacity=".1"/><path data-name="Path 381" d="M154.885 43.249a2.173 2.173 0 00-1.906-.222 4.114 4.114 0 00-1.641 1.094 7.547 7.547 0 00-1.159 1.53c-.306.541-.541 1.106-.847 1.645a17.494 17.494 0 01-1.957 2.657 7.543 7.543 0 01-1.454 1.441 5.65 5.65 0 00-1.582 1.157c-.121.169-.207.36-.326.531a5.229 5.229 0 01-1.573 1.216c-1.6 1.063-2.589 2.832-4.081 4.038-.643.519-1.369.926-2 1.456-.589.492-1.081 1.081-1.668 1.585a3.568 3.568 0 01-2.043.968 10.523 10.523 0 002 3.148 3.566 3.566 0 003.39 1.106 1.473 1.473 0 001-.793 3.377 3.377 0 01.213-.614 1.259 1.259 0 01.456-.373 107.7 107.7 0 0013.713-9.5c1.159-.944 2.308-1.789 3.5-2.7a7.644 7.644 0 001.177-1.031 3.917 3.917 0 00.476-4.315 10.23 10.23 0 00-1.092-1.479 13 13 0 00-2.596-2.545z" fill="#eb1c24"/><path data-name="Path 382" d="M154.885 43.249a2.173 2.173 0 00-1.906-.222 4.114 4.114 0 00-1.641 1.094 7.547 7.547 0 00-1.159 1.53c-.306.541-.541 1.106-.847 1.645a17.494 17.494 0 01-1.957 2.657 7.543 7.543 0 01-1.454 1.441 5.65 5.65 0 00-1.582 1.157c-.121.169-.207.36-.326.531a5.229 5.229 0 01-1.573 1.216c-1.6 1.063-2.589 2.832-4.081 4.038-.643.519-1.369.926-2 1.456-.589.492-1.081 1.081-1.668 1.585a3.568 3.568 0 01-2.043.968 10.523 10.523 0 002 3.148 3.566 3.566 0 003.39 1.106 1.473 1.473 0 001-.793 3.377 3.377 0 01.213-.614 1.259 1.259 0 01.456-.373 107.7 107.7 0 0013.713-9.5c1.159-.944 2.308-1.789 3.5-2.7a7.644 7.644 0 001.177-1.031 3.917 3.917 0 00.476-4.315 10.23 10.23 0 00-1.092-1.479 13 13 0 00-2.596-2.545z" opacity=".1"/><path data-name="Path 383" d="M147.143 110.087a2.759 2.759 0 00-.924.573c-.072.094-.121.2-.2.294-.24.281-.665.294-1 .454a4.839 4.839 0 01-.766.434 1.657 1.657 0 01-.517.04l-1.751-.052a1.742 1.742 0 00-1.528.465 1.649 1.649 0 00-.22.54 2 2 0 00.038 1.557 2.078 2.078 0 001.721.686 49.665 49.665 0 007.412-.144 5.863 5.863 0 011.005-.041c.267.022.528.081.791.126a15.151 15.151 0 004.027-.04 2.1 2.1 0 00.661-.141.7.7 0 00.42-.5c.056-.371-.292-.687-.33-1.06-.027-.263.1-.557-.045-.78a1.3 1.3 0 00-.18-.18 1.774 1.774 0 01-.371-.958l-.315-1.85a.569.569 0 00-.151-.349.52.52 0 00-.223-.092 11.958 11.958 0 00-4.144.146 11.143 11.143 0 01-2.121.106c-.306-.02-.425-.056-.654.144s-.348.455-.635.622z" fill="#3f3d56"/><path data-name="Path 384" d="M180.297 112.314a3.039 3.039 0 01-.767.3q-1.061.31-2.119.647a1.405 1.405 0 00-.517.249 1.258 1.258 0 00-.326.9 1.129 1.129 0 00.063.541 1.082 1.082 0 00.36.4 4.73 4.73 0 002.874.8c1.013 0 2.018-.171 3.031-.2a14.381 14.381 0 003.656-.2 3.106 3.106 0 01.7-.169 2.944 2.944 0 01.472.031 5.008 5.008 0 001.877-.171 1.155 1.155 0 00.5-.247.465.465 0 00.133-.508c-.065-.146-.23-.252-.232-.412a.77.77 0 01.059-.223 1.265 1.265 0 00-.128-.748 7.91 7.91 0 00-.611-2.1 2.658 2.658 0 00-1.906-.948 5.285 5.285 0 00-1.775.051c-.658.14-1.272.434-1.917.622a6.272 6.272 0 01-2.306.218c-.515-.043-.339.038-.514.47a1.533 1.533 0 01-.607.697z" fill="#3f3d56"/><circle data-name="Ellipse 17" cx="5.225" cy="5.225" r="5.225" transform="translate(146.282 31.881)" fill="#fbbebe"/><path data-name="Path 385" d="M189.386 110.446a9.258 9.258 0 01-5.946 2.023 4.883 4.883 0 01-2.6-.555c-.054-.3-.076-.614-.13-.91a3.322 3.322 0 01-2.1-1.793 21.558 21.558 0 01-1.014-2.663 23.8 23.8 0 00-2.011-3.843c-.688-1.142-1.378-2.288-2.162-3.367-.519-.721-1.081-1.4-1.594-2.117a18.742 18.742 0 01-3.072-6.677 8.726 8.726 0 00-.373-1.357 13.822 13.822 0 00-1.315-2.052 6.776 6.776 0 01-.953-2.431c-.088-.49-.24-1.02-.732-1.07a23.6 23.6 0 01-3.652 5.684 5.885 5.885 0 00-.672.768 7.376 7.376 0 00-.432.829 5.341 5.341 0 01-.955 1.391 2.227 2.227 0 01-1.229.67 8.4 8.4 0 01-.591 5.135c-.218.476-.479.93-.685 1.411-.84 1.982-.645 4.218-.733 6.367a6.693 6.693 0 01-.159 1.339 5.859 5.859 0 00-.451 2.694 14.151 14.151 0 01-7.162.445 3.452 3.452 0 01-1.335-.405 3.675 3.675 0 01-.876-.876.877.877 0 01-.2-.348c-.094-.411.36-.721.571-1.081a1.093 1.093 0 00-.041-1.227c.144-2.358.8-4.661.94-7.027.058-.937.034-1.877.077-2.816s.144-1.852.249-2.775a42.065 42.065 0 00.733-6.288 3.659 3.659 0 01.434-1.872 9.443 9.443 0 01.883-1.24c1.106-1.429 2.436-2.861 2.831-4.625a10.01 10.01 0 011.1-2.56 4.533 4.533 0 01.962-1.346 4.223 4.223 0 00.636-.54 5 5 0 00.481-1.355c.09-.234.229-.45.3-.692a3.945 3.945 0 00.081-.811 7.588 7.588 0 01.746-2.513 7.7 7.7 0 01-2.162-1.863 4.564 4.564 0 01-.522-.787 9.66 9.66 0 01-.631-2.367c-.416-1.913-1.373-3.713-1.506-5.668a6.294 6.294 0 00-.207-1.777 5.582 5.582 0 00-.335-.694 2.838 2.838 0 01-.285-.7 12.152 12.152 0 010-1.622 11.7 11.7 0 00-.348-1.391 6.6 6.6 0 01-.052-1.838 15.046 15.046 0 00.141-2.177 8.409 8.409 0 012.261-6.475l.042-.041c.344-.36.721-.679 1.031-1.061.422-.512.721-1.113 1.166-1.611.195-.222.414-.42.607-.643a5.333 5.333 0 01.586-.656.9.9 0 01.814-.218 2.255 2.255 0 00.249.767c.375.029.708.081 1.081.11a2.439 2.439 0 01.512.079 3.33 3.33 0 01.933.578c.749.528 1.67.773 2.407 1.317a9.519 9.519 0 012.274 3.313c.863 1.591 2.27 2.944 2.883 4.645l.829 2.317a36.125 36.125 0 001.856 4.448c1.043 1.982 2.456 3.767 3.294 5.841a.941.941 0 00.438.483 37.675 37.675 0 013.032 5.045 9.391 9.391 0 011.034 2.924 8.512 8.512 0 01-.751 4.283 2.227 2.227 0 00-.18.613 5.011 5.011 0 00.131 1.027 1.9 1.9 0 01-.139.944 4.34 4.34 0 00-.283.652 2.839 2.839 0 00.169 1.25 15.575 15.575 0 01.18 4.3c-.041.721.541 1.292 1.025 1.82a19.463 19.463 0 012.283 3.3 10.666 10.666 0 01.93 1.852 15.358 15.358 0 01.5 2.283c.458 2.362 1.957 4.45 2.364 6.819a6.059 6.059 0 001.391 2.931 6.381 6.381 0 01.6.721 2.9 2.9 0 01.3.645 4.752 4.752 0 01.247 1.634 2.443 2.443 0 00.045.794c.169.55.775.852 1.023 1.369s.077 1.18.18 1.768a1.9 1.9 0 00.714 1.193z" fill="#eb1c24"/><path data-name="Path 386" d="M134.869 60.843a3.728 3.728 0 01-1.881.569 2.733 2.733 0 01-1.584-.755c-.36-.314-.731-.7-1.205-.672a1.544 1.544 0 00-.829.44l-1.306 1.094a1.229 1.229 0 00-.474.613 1.215 1.215 0 00.031.508c.059.292.159.632.44.731s.587-.113.885-.195a1.041 1.041 0 011.021.3.607.607 0 01.18.393c0 .326-.36.54-.692.557s-.649-.092-.977-.072a.15.15 0 00-.168.133.688.688 0 00.211.627 1.828 1.828 0 00.587.36 2.4 2.4 0 00.8.234 4.265 4.265 0 001.586-.449 6.856 6.856 0 012.212-.243 7.808 7.808 0 002.218-.2 2.515 2.515 0 001.674-1.362.327.327 0 00.031-.209.345.345 0 00-.151-.18c-1.005-.744-1.412-1.649-2.544-2.184z" fill="#fbbebe"/><path data-name="Path 387" d="M148.966 33.895a4.468 4.468 0 00-.872.378 1.5 1.5 0 01-1.232-.065.952.952 0 01-.337-.274 1.333 1.333 0 01-.009-1.214 4.952 4.952 0 014.414-3.081 7.642 7.642 0 015.1 2.023 6.974 6.974 0 011.159 1.213 7.324 7.324 0 011.205 3.733 4.865 4.865 0 01-.11 1.672 2.032 2.032 0 01-.948 1.277 1.872 1.872 0 01-1.654-.072 6.982 6.982 0 01-1.414-1.031 2.1 2.1 0 00-.7-.449.721.721 0 00-.762.18c-.241.29-.18.766-.4 1.081a1.258 1.258 0 01-1.063.36 1.171 1.171 0 01-1.007-.339 1.267 1.267 0 01-.1-1.032 3.381 3.381 0 00.18-1.054c-.074-.721-.7-1.164-.9-1.827-.128-.434.153-.618.124-1.011a.567.567 0 00-.674-.468z" fill="#3f3d56"/><path data-name="Path 388" d="M165.381 83.59v.045a23.6 23.6 0 01-3.652 5.684 5.879 5.879 0 00-.672.768 7.366 7.366 0 00-.432.829 5.342 5.342 0 01-.955 1.391l-1.3.652 4.144-21.62z" opacity=".1"/><path data-name="Path 389" d="M159.357 50.867a7.64 7.64 0 01-1.176 1.031c-1.189.9-2.342 1.751-3.5 2.7q-1.4 1.137-2.832 2.227a2.835 2.835 0 01-.285-.7 12.152 12.152 0 010-1.622 11.721 11.721 0 00-.348-1.391 6.605 6.605 0 01-.052-1.838 15.072 15.072 0 00.141-2.176 8.408 8.408 0 012.272-6.488l.041-.041a3.162 3.162 0 01.613-.274 2.173 2.173 0 011.906.231 13 13 0 012.594 2.544 10.239 10.239 0 011.092 1.479 3.917 3.917 0 01-.469 4.315z" opacity=".1"/><path data-name="Path 390" d="M155.966 41.628a2.173 2.173 0 00-1.906-.222 4.115 4.115 0 00-1.641 1.094 7.546 7.546 0 00-1.158 1.53c-.306.54-.541 1.106-.847 1.645a17.506 17.506 0 01-1.957 2.658 7.547 7.547 0 01-1.454 1.441 5.651 5.651 0 00-1.582 1.157c-.121.169-.207.36-.326.531a5.23 5.23 0 01-1.573 1.216c-1.6 1.063-2.589 2.832-4.081 4.038-.643.519-1.369.926-2 1.456-.589.492-1.081 1.081-1.668 1.586a3.569 3.569 0 01-2.043.968 10.526 10.526 0 002 3.148 3.567 3.567 0 003.389 1.104 1.473 1.473 0 001-.793 3.391 3.391 0 01.213-.614 1.26 1.26 0 01.456-.373 107.7 107.7 0 0013.713-9.5c1.158-.944 2.308-1.789 3.5-2.7a7.641 7.641 0 001.177-1.031 3.917 3.917 0 00.476-4.315 10.245 10.245 0 00-1.092-1.479 13 13 0 00-2.596-2.545z" fill="#eb1c24"/><g data-name="Group 246" opacity=".1"><path data-name="Path 391" d="M151.702 38.898a1.2 1.2 0 01-1.007-.339 1.274 1.274 0 01-.1-1.032 3.38 3.38 0 00.18-1.054c-.074-.721-.7-1.164-.9-1.827-.128-.434.153-.618.124-1.011a.57.57 0 00-.674-.465 4.47 4.47 0 00-.872.378 1.5 1.5 0 01-1.232-.065.952.952 0 01-.337-.274 1.334 1.334 0 01-.009-1.214c0-.014.013-.027.018-.041a4.351 4.351 0 00-.378.762 1.334 1.334 0 00.009 1.214.951.951 0 00.337.274 1.5 1.5 0 001.232.065 4.47 4.47 0 01.872-.378.571.571 0 01.674.465c.029.393-.252.577-.124 1.011.193.663.823 1.113.9 1.827a3.171 3.171 0 01-.18 1.054 1.254 1.254 0 00.1 1.032 1.708 1.708 0 002.07-.022 1.517 1.517 0 00.193-.553 1.525 1.525 0 01-.896.193z"/><path data-name="Path 392" d="M157.7 38.837a1.872 1.872 0 01-1.654-.072 6.98 6.98 0 01-1.414-1.031 2.1 2.1 0 00-.7-.449.72.72 0 00-.762.18 1.364 1.364 0 00-.225.605.762.762 0 01.627-.067 2.1 2.1 0 01.7.449 7.108 7.108 0 001.414 1.031 1.877 1.877 0 001.654.072 2.006 2.006 0 00.924-1.213 1.667 1.667 0 01-.564.495z"/></g><circle data-name="Ellipse 18" cx="5.405" cy="5.405" r="5.405" transform="translate(107.456 105.48)" fill="#3f3d56"/><circle data-name="Ellipse 19" cx="5.405" cy="5.405" r="5.405" transform="translate(107.456 105.48)" opacity=".1"/><circle data-name="Ellipse 20" cx="3.423" cy="3.423" r="3.423" transform="translate(109.438 107.462)" fill="#65617d"/><circle data-name="Ellipse 21" cx="3.423" cy="3.423" r="3.423" transform="translate(109.438 107.462)" opacity=".1"/><path data-name="Path 393" d="M108.717 102.417l3.546 8.018a.688.688 0 001.249.025l4.214-8.583z" fill="#3f3d56"/><path data-name="Path 394" d="M108.717 102.417l3.546 8.018a.688.688 0 001.249.025l4.214-8.583z" opacity=".1"/><circle data-name="Ellipse 22" cx="5.405" cy="5.405" r="5.405" transform="translate(73.764 105.48)" fill="#3f3d56"/><circle data-name="Ellipse 23" cx="5.405" cy="5.405" r="5.405" transform="translate(73.764 105.48)" opacity=".1"/><circle data-name="Ellipse 24" cx="3.423" cy="3.423" r="3.423" transform="translate(75.746 107.462)" fill="#65617d"/><circle data-name="Ellipse 25" cx="3.423" cy="3.423" r="3.423" transform="translate(75.746 107.462)" opacity=".1"/><path data-name="Path 395" d="M75.025 102.417l3.546 8.018a.688.688 0 001.249.025l4.214-8.583z" fill="#3f3d56"/><path data-name="Path 396" d="M75.025 102.417l3.546 8.018a.688.688 0 001.249.025l4.214-8.583z" opacity=".1"/><path data-name="Path 397" d="M130.402 63.816a.82.82 0 00-.449-.645.838.838 0 00-1.11.468l-3.1 7.7-.9 34.593h1.441l.541-34.519 3.5-7.073a.855.855 0 00.077-.524z" fill="#3f3d56"/><path data-name="Path 398" d="M66.647 103.228l4.865-3.063 52.52-.45 1.351 3.513z" fill="#eb1c24"/><path data-name="Path 399" d="M66.647 106.472v-3.243l59.687-.576-.058 2.2H67.728v1.622z" fill="#3f3d56"/><circle data-name="Ellipse 26" cx="5.405" cy="5.405" r="5.405" transform="translate(68.809 107.372)" fill="#3f3d56"/><circle data-name="Ellipse 27" cx="3.423" cy="3.423" r="3.423" transform="translate(70.791 109.354)" fill="#65617d"/><path data-name="Path 400" d="M70.07 104.31l3.546 8.018a.688.688 0 001.249.025l4.214-8.583z" fill="#3f3d56"/><circle data-name="Ellipse 28" cx="5.405" cy="5.405" r="5.405" transform="translate(110.789 107.372)" fill="#3f3d56"/><circle data-name="Ellipse 29" cx="3.423" cy="3.423" r="3.423" transform="translate(112.771 109.354)" fill="#65617d"/><path data-name="Path 401" d="M112.05 104.31l3.546 8.018a.688.688 0 001.248.025l4.214-8.583z" fill="#3f3d56"/><path data-name="Rectangle 280" fill="#65617d" d="M73.404 89.085h22.521v12.432H73.404z"/><path data-name="Rectangle 281" opacity=".1" d="M81.331 91.247h6.846v1.441h-6.846z"/><path data-name="Rectangle 282" opacity=".1" d="M82.187 91.427h5.135v1.081h-5.135z"/><path data-name="Rectangle 283" fill="#65617d" d="M96.285 89.085h22.521v12.432H96.285z"/><path data-name="Rectangle 284" opacity=".1" d="M104.213 91.247h6.846v1.441h-6.846z"/><path data-name="Rectangle 285" opacity=".1" d="M105.068 91.427h5.135v1.081h-5.135z"/><path data-name="Rectangle 286" fill="#65617d" d="M73.404 76.293h22.521v12.432H73.404z"/><path data-name="Rectangle 287" opacity=".1" d="M81.331 78.455h6.846v1.441h-6.846z"/><path data-name="Rectangle 288" opacity=".1" d="M82.187 78.635h5.135v1.081h-5.135z"/><path data-name="Rectangle 289" fill="#65617d" d="M96.285 76.293h22.521v12.432H96.285z"/><path data-name="Rectangle 290" opacity=".1" d="M104.213 78.455h6.846v1.441h-6.846z"/><path data-name="Rectangle 291" opacity=".1" d="M105.068 78.635h5.135v1.081h-5.135z"/><path data-name="Rectangle 292" fill="#65617d" d="M73.404 63.32h22.521v12.432H73.404z"/><path data-name="Rectangle 293" opacity=".1" d="M81.331 65.483h6.846v1.441h-6.846z"/><path data-name="Rectangle 294" opacity=".1" d="M82.187 65.663h5.135v1.081h-5.135z"/><path data-name="Rectangle 295" fill="#65617d" d="M96.285 63.32h22.521v12.432H96.285z"/><path data-name="Rectangle 296" opacity=".1" d="M104.213 65.483h6.846v1.441h-6.846z"/><path data-name="Rectangle 297" opacity=".1" d="M105.068 65.663h5.135v1.081h-5.135z"/><path data-name="Rectangle 298" fill="#65617d" d="M96.285 50.348h22.521V62.78H96.285z"/><path data-name="Rectangle 299" opacity=".1" d="M104.213 52.51h6.846v1.441h-6.846z"/><path data-name="Rectangle 300" opacity=".1" d="M105.068 52.69h5.135v1.081h-5.135z"/></g></svg>