<svg xmlns="http://www.w3.org/2000/svg" width="420" height="270.448" viewBox="0 0 420 270.448"><path data-name="Path 350" d="M304.737 253.723l-2.18-27.12-6.235 28.682s.082 7.236.289 15.162h7.988c.269-9.06.138-16.724.138-16.724z" fill="#f2f2f2"/><path data-name="Path 351" d="M192.533 263.372a55.2 55.2 0 01-1.3-7.711l-.873-9.383a152.19 152.19 0 00-1.123-6.832c-2.78-14.249-5.649-14.764-5.649-14.764-.123.094-.243.2-.367.307a9.234 9.234 0 00-.939.991c-4.57 5.808-7.67 20.874-9.3 30.868-.9 5.521-1.348 9.493-1.348 9.493s.407 1.692.963 4.106h20.854a37.079 37.079 0 00-.918-7.075z" fill="#f2f2f2"/><path data-name="Path 352" d="M356.516 0H63.484A63.67 63.67 0 000 63.484v143.48a63.67 63.67 0 0063.484 63.484h92.876l-1.2-5.642s-3.083-19.893 0-35.4a116.421 116.421 0 002.045-14.744 88.827 88.827 0 012.73-16.555c.081-.313.173-.623.258-.935-.752-.2-1.1-.368-.923-.471.482-.284.747-1.156.879-2.261a108.236 108.236 0 014.673-21.535c-3.115 1.956-5.183 2.163-6.537 1.405-4.758-1.3-2.783-12-2.783-12s2.957-23.145 3.939-31.525c.565-4.817 7.8-7.547 14.2-9.029a7.113 7.113 0 00.852-4.436c-.021-.1-.051-.2-.078-.3-.814-1.809-2.47-3.3-3.091-5.17a5.455 5.455 0 01-.575-1.613c-.55-3.211 2.453-5.985 3.318-9.074a7.475 7.475 0 01-1.92-3.079c-1.319-2.706-.676-5.954 3.561-8.462a30.36 30.36 0 012.652-1.366 4.125 4.125 0 011.077-.494c3.031-1.371 6.078-2.7 7.893-5.368a4.766 4.766 0 011.633-1.847 3.149 3.149 0 011.124-.252c5.841-.448 11.13 4.561 16.944 3.843 1.761-.217 3.559-.958 5.249-.425a6.214 6.214 0 012.724 2.086 21.5 21.5 0 014.661 17.7c-.737 3.83-2.53 7.777-1.238 11.462.949 2.707 3.49 4.9 3.508 7.768.015 2.357-1.658 4.237-3.274 6.071q.315.322.614.662c3.95 4.5 3.2 8.341 2.646 9.879l-2.031 19.6-1.713 13.149s-.424 5.4-4.412 6.58a6.431 6.431 0 01-4.685.07c-1.3-.4-2.392-.79-3.321-1.174a43.854 43.854 0 012.143 14.079c-.343 7.755.685 8.429.685 8.429a1.39 1.39 0 01-.218.215 31.783 31.783 0 01-.125 27.432c-4.8 10.452.343 34.728.343 34.728s.366 3.787.53 8h73.562c-1.17-11.159-2.576-22.331-3.2-23.58-1.029-2.059.278-35.975.766-47.756a21.39 21.39 0 01-.628-.168c-.348-.1-.66-.2-.949-.31a6.922 6.922 0 00.188 1.782c.433 1.01-.605 1.753-2.37 2.26 1.026 5.009 2.294 14.329-1.995 16.135-4.412 1.858-4.5-9.426-4.258-15.308a44.24 44.24 0 01-1.666.031c-5.3 0 1.559-61.418 1.247-65.47s2.494-20.576 2.494-20.576.935-3.429 3.741-4.053 16.212-8.418 16.212-8.418a10.013 10.013 0 012.806-2.656v-.462a10.282 10.282 0 011.113-.9c-.164-2.724-.532-6.238-.8-8.613a10.882 10.882 0 01-2.925-5.6 17.175 17.175 0 01-1.632-1.45 8.506 8.506 0 01-2.091-5.309 16.776 16.776 0 01.831-5.731 6.862 6.862 0 01.722-1.75 6.334 6.334 0 011.632-1.618c.189-.14.385-.272.58-.4a5.46 5.46 0 011.764-2c1.591-1.045 3.639-.959 5.542-.912h.086q.529-.085 1.063-.141a1.09 1.09 0 00.852-.835l.773.742q.58-.008 1.159.02a8.287 8.287 0 01.6-1.129l.424 1.208c.388.041.774.093 1.159.16l.909-.722c.067-.053.309.736.43 1.006.209.054.417.111.623.174.322-.015.68-.075.879-.072a5.879 5.879 0 013.133.781 6.73 6.73 0 011.991 2.3 14.89 14.89 0 012.223 6.413 7.432 7.432 0 011.233 2.756c.515 3.13-2.459 5.745-3.049 8.861-.314 1.663.044 3.5-.8 4.969a5.186 5.186 0 01-1.428 1.5 10.766 10.766 0 01-1.055.7 27.1 27.1 0 00.645 5.6l.4 1.538c.624.45 1.3.969 2.035 1.58 0 0 8.729 3.741 11.847 5.612 2.741 1.644 5.721 1.845 6.613 3.987l.246.065s3.118 34.606 3.43 40.529 4.053 42.4 3.429 43.959c-.231.577-1.7 1.239-3.476 1.765 1.036 4.735 2.709 15.032-1.824 16.94-4.595 1.935-4.5-10.385-4.226-16.01-.613-.055-1.014-.216-1.074-.513-.051-.253-.213-1.4-.448-3.143l-1.22.188-.264.04c3.953 12.434-4.8 45.408-6.485 51.863-.88 3.373-1.829 11.712-2.684 20.151h38.562A63.67 63.67 0 00420 206.964V63.484A63.67 63.67 0 00356.516 0z" fill="#0c9add" opacity=".1"/><ellipse data-name="Ellipse 9" cx="42.537" cy="38.709" rx="42.537" ry="38.709" transform="translate(51.493 36.963)" fill="#3f3d56"/><path data-name="Path 353" d="M164.104 202.164s14.328-9.851 14.328-14.328 9.851-33.582 15.224-20.6-7.612 31.343-7.612 31.343-14.328 25.97-22.836 30.448-15.671 1.794-15.671 1.794v-12.09l8.186-12.115a10.115 10.115 0 018.381-4.452z" fill="#ffb9b9"/><path data-name="Path 354" d="M123.378 133.583s21.473 6.79 23.712 9.924 3.134-2.239 9.4 18.358a215.276 215.276 0 017.836 40.522s-15.448 5.149-13.657 25.3-2.687 42.09-2.687 42.09h-5.59l-12.321-38.06 14.776-57.761s-21.002-35.521-21.469-40.373z" fill="#575a89"/><circle data-name="Ellipse 10" cx="26.866" cy="26.866" r="26.866" transform="translate(89.328 61.119)" fill="#ffb9b9"/><path data-name="Path 355" d="M126.493 108.135s-7.612 25.075-.9 28.657 14.328 19.7 14.328 19.7l-11.642 12.985h-26.861l-12.09-13.433-4.925-22.835 6.716-5.373s7.164-17.91 7.164-27.313 28.21 7.612 28.21 7.612z" fill="#ffb9b9"/><path data-name="Path 356" d="M128.732 135.895s-5.373-1.343-2.239 4.03 6.269 15.224-4.925 15.672-22.388-5.373-25.97-17.463-4.925-11.194-6.269-10.746-15.672 15.224-15.672 15.224l4.925 27.761 1.791 99.4h65.374s2.687-28.657-1.791-35.373 4.03-23.731 4.03-23.731 7.612-11.642 1.791-34.03-18.807-40.744-21.045-40.744z" fill="#eb1c24"/><path data-name="Path 357" d="M92.463 127.388a11.784 11.784 0 00-12.537 2.239C74.105 135 61.12 139.478 61.12 142.164s11.194 79.254 3.582 92.687-15.672 34.925-15.672 34.925h37.349s6.084-22.388 12.352-34.478 5.821-46.119 4.03-56.418-10.298-51.492-10.298-51.492z" fill="#575a89"/><path data-name="Path 358" d="M53.06 246.045l2.181 23.731h24.2l-2.2-29.552z" fill="#ffb9b9"/><path data-name="Path 359" d="M163.209 233.507l5.821 36.269h129.4l11.197-72.985z" fill="#3f3d56"/><path data-name="Path 360" d="M314.552 191.866l1.343 6.716-167.462 40.299v-5.821z" fill="#3f3d56"/><path data-name="Path 361" d="M243.811 203.955l-.9 7.612 9.851-1.343-4.03-7.612z" fill="#3f3d56"/><path data-name="Path 362" d="M189.627 126.941s19.7-1.343 25.075 13.881 17.91 42.537 22.836 46.567 10.3 14.776 9.4 18.358" fill="none" stroke="#3f3d56" stroke-miterlimit="10" stroke-width="5"/><path data-name="Path 363" d="M192.537 126.716c0 2.1-2.235 3.806-5.821 3.806s-5.373-1.7-5.373-3.806 1.787-3.806 5.373-3.806 5.821 1.7 5.821 3.806z" fill="#eb1c24"/><path data-name="Path 364" d="M159.403 196.567s3.358-14.1-2.91-34.7-7.164-15.224-9.4-18.358-23.712-9.924-23.712-9.924c.154 1.594 2.525 6.5 5.64 12.369a23.818 23.818 0 00-2.525-6.027c-3.134-5.373 2.239-4.03 2.239-4.03 2.239 0 15.224 18.358 21.045 40.746s-1.791 34.03-1.791 34.03z" fill="#575a89"/><path data-name="Path 365" d="M123.582 133.433s2.651 10.056 4.907 11.52 15.64 15.369 15.64 15.369l-1.742-11.218-7.164-10.746-1.905-1.383z" fill="#575a89"/><path data-name="Path 366" d="M64.033 164.329l.624-23.06s-14.729 6.269-16.072 33.134 2.239 77.463 7.164 77.911 28.209-4.925 28.209-4.925 3.582-64.925 2.239-73.433-22.164-9.627-22.164-9.627z" opacity=".1"/><path data-name="Path 367" d="M65.149 141.269H61.52s-14.729 6.269-16.072 33.134 2.239 77.463 7.164 77.911 28.209-4.925 28.209-4.925 3.582-64.925 2.239-73.433-17.911-32.687-17.911-32.687z" fill="#575a89"/><ellipse data-name="Ellipse 11" cx="27.761" cy="31.119" rx="27.761" ry="31.119" transform="translate(56.418 49.701)" fill="#3f3d56"/><ellipse data-name="Ellipse 12" cx="5.597" cy="8.284" rx="5.597" ry="8.284" transform="translate(98.507 89.552)" fill="#ffb9b9"/><circle data-name="Ellipse 13" cx="22.836" cy="22.836" r="22.836" transform="translate(33.582 26.866)" fill="#3f3d56"/><path data-name="Path 368" d="M59.369 67.996a22.834 22.834 0 01-33.086-18.185 22.833 22.833 0 1045.3 1.271 22.8 22.8 0 01-12.214 16.914z" fill="#3f3d56"/><path data-name="Path 369" d="M43.89 53.476a22.834 22.834 0 0111.5-35.96 22.833 22.833 0 107.444 44.7 22.8 22.8 0 01-18.944-8.74z" fill="#3f3d56"/><ellipse data-name="Ellipse 14" cx="16.119" cy="11.642" rx="16.119" ry="11.642" transform="translate(101.642 55.522)" fill="#3f3d56"/></svg>