<svg xmlns="http://www.w3.org/2000/svg" width="180.002" height="109.076" viewBox="0 0 180.002 109.076"><g transform="translate(-.012)"><path data-name="Path 402" d="M153.262 73.18a3.865 3.865 0 10-1.708-7.232l.683 1.871-1.4-1.349a3.851 3.851 0 00-1.249 2.668 3.791 3.791 0 00.1 1.064 3.865 3.865 0 003.574 2.978z" fill="#57b894"/><path data-name="Path 403" d="M164.558 93.832c-.819-1.517.11-3.377 1.179-4.73s2.371-2.761 2.344-4.485c-.04-2.478-2.67-3.941-4.771-5.254a23.271 23.271 0 01-4.284-3.445 6.28 6.28 0 01-1.316-1.762 7.157 7.157 0 01-.395-3.132q.137-5.3.524-10.6" fill="none" stroke="#3f3d56" stroke-miterlimit="10"/><path data-name="Path 404" d="M153.262 72.644a3.865 3.865 0 10-1.708-7.232l.683 1.871-1.4-1.349a3.851 3.851 0 00-1.249 2.668 3.792 3.792 0 00.1 1.064 3.865 3.865 0 003.574 2.978z" fill="none" stroke="#3f3d56" stroke-miterlimit="10"/><path data-name="Path 405" d="M153.843 60.949a3.861 3.861 0 011.929-3.166l.865 1.712-.026-2.072a3.865 3.865 0 11-2.768 3.527z" fill="#57b894"/><path data-name="Path 406" d="M153.843 60.234a3.861 3.861 0 011.929-3.166l.865 1.712-.026-2.072a3.865 3.865 0 11-2.768 3.527z" fill="none" stroke="#3f3d56" stroke-miterlimit="10"/><path data-name="Path 407" d="M162.672 79.601a3.865 3.865 0 001.226-7.581l.02 1.592-.875-1.732h-.01a3.865 3.865 0 00-.361 7.721z" fill="#57b894"/><path data-name="Path 408" d="M162.644 78.886a3.865 3.865 0 001.226-7.581l.02 1.592-.875-1.732h-.01a3.865 3.865 0 10-.361 7.722z" fill="none" stroke="#3f3d56" stroke-miterlimit="10"/><path data-name="Path 409" d="M160.736 86.925a3.863 3.863 0 10-.187-3.111l2.414 1.964-2.655-.615a3.828 3.828 0 00.428 1.762z" fill="#57b894"/><path data-name="Path 410" d="M160.736 86.389a3.863 3.863 0 10-.187-3.111l2.414 1.964-2.655-.615a3.828 3.828 0 00.428 1.762z" fill="none" stroke="#3f3d56" stroke-miterlimit="10"/><path data-name="Path 411" d="M131.253 27.714a8.448 8.448 0 01-.677 5.528 18.711 18.711 0 01-3.254 4.626 4.881 4.881 0 00-1.463 2.4c-.18 1.257.667 2.394 1.236 3.529a8.671 8.671 0 01.889 3.182 3.41 3.41 0 01-.709 2.683 3.964 3.964 0 01-2.546.9 32.537 32.537 0 01-7.576-.183c.7-.935.439-1.515.373-2.684-.13-2.292-1.8-4.367-2.121-6.639-.257-1.807.938-3.465 2.069-4.9l5.183-6.569a20.054 20.054 0 002.331-3.458c.441-.892.523-2.566 1.632-2.864 2.091-.553 4.227 2.849 4.633 4.449z" fill="#47465a"/><path data-name="Path 412" d="M105.817 33.129s-3.576 10.548-5.364 11.264 10.727 13.588 10.727 13.588l9.118-4.47.358-8.582-3.576-.179s-.536-3.576 1.251-5.364-12.514-6.257-12.514-6.257z" fill="#fbbebe"/><path data-name="Path 413" d="M105.817 33.129s-3.576 10.548-5.364 11.264 10.727 13.588 10.727 13.588l9.118-4.47.358-8.582-3.576-.179s-.536-3.576 1.251-5.364-12.514-6.257-12.514-6.257z" opacity=".1"/><path data-name="Path 414" d="M109.928 51.008s-7.688-5.185-8.045-9.476c0 0-5.721 3.755-7.509 3.576s-6.615.894-6.615 1.609 4.47 20.918 4.47 20.918-3.218 8.582-1.609 11.264 2.5 15.2 2.5 15.2h37.19s-5.006-8.761-2.324-15.018 3.755-32.539 3.755-32.539a5.918 5.918 0 00-3.933-1.073c-1.967.358-4.291-1.073-5.721-1.251a20.35 20.35 0 00-4.672.553z" fill="#eb1c24"/><path data-name="Path 415" d="M180.013 93.903v7.867a5.262 5.262 0 01-5.2 5.262L9.289 109.076a3.022 3.022 0 01-3.06-3.022v-8.7a3 3 0 012.9-2.994l166.065-5.125a4.668 4.668 0 014.812 4.666z" fill="#47465a"/><path data-name="Path 416" d="M180.013 99.637v2.133a5.262 5.262 0 01-5.2 5.262L9.289 109.076a3.022 3.022 0 01-3.06-3.022v-.28z" opacity=".1"/><path data-name="Path 417" d="M147.474 94.094l-20.946-2.718-37.241 1.359 13.487 4.219z" fill="#f2f2f2"/><path data-name="Path 418" d="M91.871 92.843v2.145L71.49 99.634l-1.992-.46-.333-.077-14.659-7.863z" fill="#9493b6"/><path data-name="Path 419" d="M91.866 92.843v2.145l-20.382 4.648-1.992-.46-.333-2.222z" opacity=".1"/><path data-name="Path 420" d="M68.45 96.241c.358-.179 7.867-1.609 7.867-1.609L62.73 93.38z" fill="#47465a"/><circle data-name="Ellipse 30" cx="11.621" cy="11.621" r="11.621" transform="translate(103.85 19.004)" fill="#fbbebe"/><path data-name="Path 421" d="M81.68 83.189s-10.37 4.47-12.873 3.218-10.012-4.47-12.336 2.145c-1.874 5.335 9.067 5.67 13.373 5.6a3.6 3.6 0 002.717-1.309l14.929-5.1s-3.307-5.627-5.81-4.554z" fill="#fbbebe"/><path data-name="Path 422" d="M111.001 74.965l1.251 1.073-11.621 16.448s-1.788.179-1.252-.715z" fill="#47465a"/><path data-name="Path 423" d="M111.716 76.038l1.252-1.609-.536-.358-1.252 1.43z" fill="#47465a"/><path data-name="Path 424" d="M90.53 45.554s-6.079 1.073-5.9 5.721a26.626 26.626 0 01-2.771 12.426c-1.43 2.5-.358 4.47 0 7.867s-1.788 6.973-.715 8.761-11.621 3.039-11.621 4.827 8.045 5.185 6.615 7.509c-1.029 1.672 6.224-1.144 10.375-2.856a7.245 7.245 0 004.35-5.089 2.721 2.721 0 00.025-1.441c-.536-1.43 5.811-3.308 5.989-6.883s-.894-7.151-1.788-10.727-4.559-20.115-4.559-20.115z" fill="#eb1c24"/><path data-name="Path 425" d="M1.937 64.267l52.427.5a1.906 1.906 0 011.716 1.115l14.129 30.957a1.906 1.906 0 01-1.8 2.7l-52.61-1.828a1.906 1.906 0 01-1.659-1.094L.199 66.984a1.906 1.906 0 011.743-2.718z" fill="#7a799c"/><path data-name="Path 426" d="M125.661 83.189s-10.37 4.47-12.873 3.218-10.012-4.47-12.336 2.145c-1.874 5.335 9.067 5.67 13.373 5.6a3.6 3.6 0 002.717-1.308l15.2-1.609s-3.578-9.119-6.081-8.046z" fill="#fbbebe"/><path data-name="Path 427" d="M131.83 49.309s2.592-3.486 3.844-.268 1.073 15.733 1.073 15.733 2.145 6.258 1.43 10.37.715 4.648.715 4.648a3.064 3.064 0 01-.715 2.682c-1.073.894-1.788 4.827-1.43 5.364s-.536 3.933-1.252 3.933a18.731 18.731 0 01-2.235-.268s-3.665-6.7-11.353-7.241c0 0 1.251-1.788.536-5.364s9.387-29.589 9.387-29.589z" opacity=".1"/><path data-name="Path 428" d="M131.383 46.716a3.184 3.184 0 014.2 2.056c1.251 3.218 2.414 16 2.414 16s2.145 6.258 1.43 10.37.715 4.648.715 4.648a3.064 3.064 0 01-.715 2.682c-1.073.894-1.788 4.827-1.43 5.364s-.536 3.933-1.252 3.933-7.33 1.073-7.33 1.073 1.43-8.045-6.258-8.582c0 0 1.252-1.788.536-5.364s7.69-32.18 7.69-32.18z" fill="#eb1c24"/><path data-name="Path 429" d="M119.368 14.226a13.575 13.575 0 00-12.061-1.165 21.313 21.313 0 00-5.7 3.622 14.189 14.189 0 00-3.612 4.025c-1.3 2.425-1.3 5.311-1.26 8.062a58.033 58.033 0 00.388 7.17c.448 3.254 1.451 6.476 1.22 9.753s-2.156 6.773-5.375 7.427a43.146 43.146 0 008.982-.259 9.145 9.145 0 005.217-1.986 9.343 9.343 0 002.061-3.558 11.1 11.1 0 00.931-4.037c-.036-2.891-2.044-5.316-3.354-7.893a5.038 5.038 0 01-.678-2.313 2.121 2.121 0 011.19-1.963c.931-.37 2.008.182 2.975-.077 1.554-.415 1.958-2.574 3.385-3.317a3.034 3.034 0 013.291.655 7.873 7.873 0 001.2 1.05 4.239 4.239 0 002.1.388c1.347.015 5.946-2.1 6.917-3.031.947 4.872 7.991.632 3.949-6.557a16.274 16.274 0 00-5.758-6.269 9.148 9.148 0 00-8.259-.685" fill="#47465a"/><ellipse data-name="Ellipse 31" cx="1.609" cy="2.861" rx="1.609" ry="2.861" transform="translate(105.727 30.536)" fill="#fbbebe"/><path data-name="Path 430" d="M123.158 44.485s9.923 1.427 10.459 2.142-.536 5.006-.536 5.006l-7.151 1.251-5.5-1.187z" fill="#eb1c24"/><path data-name="Path 431" d="M92.744 51.486c-1.494-.258-2.952 1.095-3.726 2.878a16.876 16.876 0 00-1.06 6 22.949 22.949 0 00.439 6.132c.965 4.028 3.555 6.876 5.054 10.579a20.746 20.746 0 011.361 9.247" opacity=".1"/><path data-name="Path 432" d="M93.816 51.486c-1.494-.258-2.952 1.095-3.726 2.878a16.876 16.876 0 00-1.06 6 22.951 22.951 0 00.439 6.132c.965 4.028 3.555 6.876 5.054 10.579a20.744 20.744 0 011.361 9.247" fill="#eb1c24"/><path data-name="Path 433" d="M151.283 91.435l17.3 6.918 10.8-1.944-.943-7.738-.138-1.126-18.16-5.621-1.3 1.3z" fill="#eb1c24"/><path data-name="Path 434" d="M161.227 83.299v7.484l18.16 5.621-.943-7.738z" opacity=".1"/><path data-name="Path 435" d="M144.511 93.051l1.224.453 14.6 5.406 1.134.42a.239.239 0 00.218-.026l1.337-.9 13.906-9.329 1.314-.881a.241.241 0 00-.064-.431l-2.095-.642-14.725-4.511-1.286-.394a.24.24 0 00-.206.031l-1.013.682-13.119 8.835-1.271.857a.241.241 0 00.05.426z" fill="#7a799c"/><path data-name="Path 436" d="M174.628 89.003l-13.03 8.862a.479.479 0 01-.434.054l-13.833-5.05a.484.484 0 01-.1-.859l12.612-8.23a.48.48 0 01.4-.057l14.251 4.418a.484.484 0 01.128.861z" fill="#f2f2f2"/><path data-name="Path 437" d="M176.08 87.125v1.954h.845l1.314-.881a.241.241 0 00-.064-.432z" fill="#eb1c24"/><path data-name="Path 438" d="M160.331 98.298v.612l1.134.42a.239.239 0 00.218-.026l1.337-.9v-.11z" fill="#eb1c24"/><path data-name="Path 439" d="M144.511 93.051l1.224.453v-1.736l-1.271.857a.241.241 0 00.05.426z" fill="#eb1c24"/><path data-name="Path 440" d="M158.851 82.934h2.5v-.319l-1.286-.394a.24.24 0 00-.206.031z" fill="#eb1c24"/><circle data-name="Ellipse 32" cx=".179" cy=".179" r=".179" transform="translate(153.195 86.943)" fill="#f2f2f2"/><path data-name="Rectangle 301" fill="#f2f2f2" d="M6.209 5.059h71.157v36.115H6.209z"/><path data-name="Path 441" d="M18.699 37.866l16.116-26.907 16.717 26.907" fill="#eb1c24"/><path data-name="Path 442" d="M43.128 24.097l3.218-8.4 18.236 22.17H43.039z" fill="#eb1c24"/><path data-name="Path 443" d="M39.74 20.761a4.47 4.47 0 00-4.673-7.621" fill="#eb1c24"/><path data-name="Rectangle 302" fill="none" stroke="#3f3d56" stroke-miterlimit="10" d="M10.411.5h71.157v36.115H10.411z"/><path data-name="Path 444" d="M19.593 36.615L35.709 9.708l16.717 26.907" fill="none" stroke="#3f3d56" stroke-miterlimit="10"/><path data-name="Path 445" d="M43.665 22.488l3.218-8.4 18.236 22.527" fill="none" stroke="#3f3d56" stroke-miterlimit="10"/><path data-name="Path 446" d="M40.992 18.258a4.47 4.47 0 10-4.673-7.621" fill="none" stroke="#3f3d56" stroke-miterlimit="10"/></g></svg>