<svg xmlns="http://www.w3.org/2000/svg" width="180" height="131.334" viewBox="0 0 180 131.334"><g transform="translate(-26.455 -7.082)"><path data-name="Path 509" d="M205.107 134.856c0 1.3-4.471 2.514-12.274 3.559H45.245a37.187 37.187 0 01-18.7-5l-.087-.049a62.32 62.32 0 0111.8-2.267l.247-.031c2.47-.3 5.232-.589 8.249-.861a1.852 1.852 0 00.23-.021q3.592-.319 7.641-.6c.086 0 .169-.015.255-.019q1.562-.112 3.189-.213l.418-.027c7.9-.49 16.871-.882 26.6-1.14h.011q2.045-.057 4.133-.1 2.322-.055 4.7-.1c1.21-.027 2.436-.045 3.666-.065h.029a1134.71 1134.71 0 0117.139-.125c14.492 0 28.19.264 40.327.739h.034c1.866.072 3.7.152 5.484.234l1.52.072q3.023.144 5.891.31c22.483 1.284 37.086 3.361 37.086 5.704z" fill="#0c9add" opacity=".1"/><g data-name="Group 247" transform="translate(120.833 75.802)" opacity=".2" fill="#0c9add"><path data-name="Path 510" d="M11.199 51.127a3.608 3.608 0 01-.07.61q-1.984-.316-3.991-.57v-.163a3.207 3.207 0 01.475-1.612 1.768 1.768 0 013.217.1 3.2 3.2 0 01.369 1.635z"/><ellipse data-name="Ellipse 66" cx="2.662" cy="2.033" rx="2.662" ry="2.033" transform="rotate(-88.19 29.595 21.512)"/><ellipse data-name="Ellipse 67" cx="2.662" cy="2.033" rx="2.662" ry="2.033" transform="rotate(-88.19 27.968 19.832)"/><ellipse data-name="Ellipse 68" cx="2.662" cy="2.033" rx="2.662" ry="2.033" transform="rotate(-88.19 26.34 18.152)"/><ellipse data-name="Ellipse 69" cx="2.662" cy="2.033" rx="2.662" ry="2.033" transform="rotate(-88.19 24.712 16.473)"/><path data-name="Path 511" d="M2.666 15.545a9.454 9.454 0 01-.722-1.14l5.37-.709-5.781-.139a9.764 9.764 0 01.059-7.723L9.216 10.1 2.232 4.619a9.745 9.745 0 1115.742 11.4 9.651 9.651 0 011.055 1.811l-7.048 3.383 7.474-2.248a9.757 9.757 0 01-1.866 9.1 9.745 9.745 0 11-15.309-.483 9.745 9.745 0 01.38-12.044z"/><path data-name="Path 512" d="M19.87 22.117a9.691 9.691 0 01-2.28 5.956 9.745 9.745 0 11-15.309-.483c-1.249-1.697 17.623-6.566 17.589-5.473z" opacity=".1"/></g><g data-name="Group 248" transform="translate(91.948 75.802)" opacity=".2" fill="#0c9add"><path data-name="Path 513" d="M11.199 51.127a3.608 3.608 0 01-.07.61q-1.984-.316-3.991-.57v-.163a3.207 3.207 0 01.475-1.612 1.768 1.768 0 013.217.1 3.205 3.205 0 01.369 1.635z"/><ellipse data-name="Ellipse 70" cx="2.662" cy="2.033" rx="2.662" ry="2.033" transform="rotate(-88.19 29.595 21.514)"/><ellipse data-name="Ellipse 71" cx="2.662" cy="2.033" rx="2.662" ry="2.033" transform="rotate(-88.19 27.968 19.833)"/><ellipse data-name="Ellipse 72" cx="2.662" cy="2.033" rx="2.662" ry="2.033" transform="rotate(-88.19 26.34 18.154)"/><ellipse data-name="Ellipse 73" cx="2.662" cy="2.033" rx="2.662" ry="2.033" transform="rotate(-88.19 24.711 16.475)"/><path data-name="Path 514" d="M2.667 15.545a9.433 9.433 0 01-.722-1.14l5.37-.709-5.781-.139a9.764 9.764 0 01.059-7.723L9.217 10.1 2.233 4.619a9.745 9.745 0 1115.742 11.4 9.656 9.656 0 011.055 1.811l-7.048 3.383 7.474-2.248a9.756 9.756 0 01-1.866 9.1 9.745 9.745 0 11-15.309-.483 9.745 9.745 0 01.38-12.044z"/><path data-name="Path 515" d="M19.87 22.117a9.691 9.691 0 01-2.28 5.956 9.745 9.745 0 11-15.309-.483c-1.249-1.697 17.623-6.566 17.589-5.473z" opacity=".1"/></g><g data-name="Group 249" transform="translate(160.501 30.615)" opacity=".2" fill="#0c9add"><path data-name="Path 516" d="M21.546 98.392a7.1 7.1 0 01-.139 1.156q-3.819-.61-7.694-1.091v-.313a6.177 6.177 0 01.916-3.1 3.408 3.408 0 016.2.19 6.181 6.181 0 01.717 3.158z"/><ellipse data-name="Ellipse 74" cx="5.127" cy="3.917" rx="5.127" ry="3.917" transform="rotate(-88.19 56.946 41.405)"/><ellipse data-name="Ellipse 75" cx="5.127" cy="3.917" rx="5.127" ry="3.917" transform="rotate(-88.19 53.813 38.17)"/><ellipse data-name="Ellipse 76" cx="5.127" cy="3.917" rx="5.127" ry="3.917" transform="rotate(-88.19 50.68 34.936)"/><ellipse data-name="Ellipse 77" cx="5.127" cy="3.917" rx="5.127" ry="3.917" transform="rotate(-88.282 47.232 31.692)"/><path data-name="Path 517" d="M5.114 29.893a18.857 18.857 0 01-1.389-2.191l10.338-1.365-11.126-.268a18.794 18.794 0 01.11-14.868l14.68 8.211L4.284 8.861a18.76 18.76 0 1130.3 21.96 18.761 18.761 0 012.031 3.487l-13.57 6.516 14.387-4.333a18.766 18.766 0 01-3.578 17.512 18.76 18.76 0 11-29.474-.929 18.766 18.766 0 01.73-23.184z"/><path data-name="Path 518" d="M38.242 42.542a18.687 18.687 0 01-4.371 11.468 18.76 18.76 0 11-29.474-.929C1.976 49.81 38.308 40.439 38.242 42.542z" opacity=".1"/></g><path data-name="Path 519" d="M32.746 129.343l1.993-.006h2.811l3.554-57.724 35.192-58.73-1.53-1.642V7.083l-38.06 63.165z" fill="#f1c0c0"/><path data-name="Path 520" d="M34.953 129.337h2.6l3.554-57.728 35.192-58.726-1.53-1.642-36.3 59.488z" opacity=".1"/><path data-name="Path 521" d="M26.872 129.823l91.188 6.978.078.006 88.25-5.427h.067v-3.727l-97.24-1.784-81.127-.078h-.593l-.065.418z" fill="#f1c0c0"/><path data-name="Path 522" d="M26.872 129.823l91.188 6.978.078.006 88.25-5.427.067-.072v-3.58h-.078l-88.315 2.949-89.973-4.89h-.013l-.16.1-.485.314z" opacity=".1"/><path data-name="Path 523" d="M26.872 129.822l91.19 6.98v-6.125l-90.146-4.785-.485.313z" opacity=".1"/><path data-name="Path 524" d="M74.755 11.162l40.2 43.149-1.243 75.9 3.415.412.057.008h3.415l.409-73.06 75.278 25.145 1.269 44.772 2.748.308.931.1-2.155-48.289-78.691-27.624L77.239 7.126h-2.484z" fill="#f1c0c0"/><path data-name="Path 525" d="M120.7 56.174l.31 1.4 75.278 25.145 1.27 44.772 2.748.308-2.156-46.014z" opacity=".1"/><path data-name="Path 526" d="M74.755 11.162l40.2 43.149-1.243 75.9 3.415.412.931-78.8-43.3-44.7z" opacity=".1"/><path data-name="Path 527" d="M120.846 86.634l27.61 5.437h.009l48.358 9.526 2.214-.887-.008-.156-.144-3.088-78.011-15.761z" fill="#f1c0c0"/><path data-name="Path 528" d="M148.466 92.073l48.358 9.526 2.214-.887-.008-.156z" opacity=".1"/><path data-name="Path 529" d="M150.315 67.359l.747 41.112.386 21.092 3.4-.114 2.14-.072-.665-61.423-1.475-.49-.323-.1z" fill="#f1c0c0"/><path data-name="Path 530" d="M150.345 67.35v.01l.716 41.112.386 21.092 3.4-.114v-62.1z" opacity=".1"/><path data-name="Path 531" d="M97.061 77.859a4.328 4.328 0 01.57.371 3.772 3.772 0 01.57.625 5.625 5.625 0 011.488 3.611 1.469 1.469 0 01-.424 1.045 1.9 1.9 0 01-1.26.3 2.682 2.682 0 01-1.4-.247c-.414-.247-.76-.728-1.251-.716a.637.637 0 01-.209 0c-.169-.055-.2-.277-.314-.418-.19-.253-.591-.19-.889-.08a1.289 1.289 0 01-.924.148.959.959 0 01-.4-.4 8.827 8.827 0 01-.988-3.835c-.082-.806-.7-3.554 1.015-2.928a14.256 14.256 0 012.163 1.222z" fill="#3a4a61"/><path data-name="Path 532" d="M95.362 78.13a.848.848 0 001.043-.042 1.571 1.571 0 00.507-.984c.19-.059.287.19.409.342.213.258.646.255.84.53.135.19.1.454.2.669.124.277.43.422.639.646a2.2 2.2 0 01.418.834l.312.935a4.622 4.622 0 01.285 1.21 1.568 1.568 0 01-.361 1.157 3.068 3.068 0 01-2.311.414 1.7 1.7 0 01-1.024-1.254 15.823 15.823 0 01-.211-1.676 6.567 6.567 0 00-.475-1.593c-.167-.4-.627-.984-.62-1.4.136-.002.235.124.349.212z" fill="#3a4a61"/><path data-name="Path 533" d="M96.044 76.206a3.137 3.137 0 01-.154-.834 3.632 3.632 0 01.523-1.615l-2.172.295a.962.962 0 00-.7.308.76.76 0 000 .7 3.586 3.586 0 01.258.678 3.384 3.384 0 00.07.61 1.292 1.292 0 00.279.393 13.173 13.173 0 011.551 2.3c-.013-.023 1.309-1.047 1.256-1.382-.03-.19-.412-.418-.534-.6a3.06 3.06 0 01-.377-.853z" fill="#be6f72"/><path data-name="Path 534" d="M114.668 68.781v1.872l-32.053 6.252-1.663 1.007h-5.737v-1.055l31.492-7.609z" fill="#f1c0c0"/><path data-name="Path 535" d="M114.668 70.653l-32.053 6.252-1.663 1.007h-5.737l31.726-6.79z" opacity=".1"/><path data-name="Path 536" d="M88.934 121.918a2.484 2.484 0 00-3.022-.642.8.8 0 00-.277.217c-.19.266-.068.633-.051.962a2.879 2.879 0 01-1.169 2.014 2.762 2.762 0 00-.76 1.03.965.965 0 00.336 1.14 1.4 1.4 0 00.521.144 5.62 5.62 0 001.843.051 2 2 0 001.463-1.019 1.073 1.073 0 01.245-.4c.334-.264.848.046 1.228-.143.314-.156.327-.4.331-.724a4.193 4.193 0 00-.688-2.63z" fill="#eb1c24"/><path data-name="Path 537" d="M93.494 121.884a6.255 6.255 0 01.3 1.944 1.876 1.876 0 01-.177 1.108 1.514 1.514 0 01-.99.57 2.27 2.27 0 01-2.222-.619 2.345 2.345 0 01-.4-1.764c.061-.511.19-1.11-.177-1.473-.1-.1-.219-.165-.306-.27a.905.905 0 01-.057-.866 3.768 3.768 0 00.3-.857 11.067 11.067 0 012.809.215c.321.158.272.422.369.741.129.444.388.845.551 1.271z" fill="#eb1c24"/><path data-name="Path 538" d="M93.964 94.583a2.111 2.111 0 01.773 1.556 33.176 33.176 0 01-.19 4.907c-.027 2.3.639 4.637.07 6.862-.34 1.33-.051 2.85-.371 4.194-.1.4-.27.775-.361 1.174a5.125 5.125 0 00.277 2.615 2.7 2.7 0 01.162.709 2.55 2.55 0 01-.277 1.072l-1.14 2.7c-.127.3-.629.352-.95.392a2.376 2.376 0 01-1.76-.251 2.252 2.252 0 01-.671-1.587 24.334 24.334 0 01-.19-3.388 2.79 2.79 0 00-.078-.88 7.716 7.716 0 01-.4-.95 3.817 3.817 0 01.23-1.33 4.006 4.006 0 00-.019-1.233 48.611 48.611 0 00-.257-1.821 8.066 8.066 0 01.19-2.527 6.971 6.971 0 00-.19-2.4 6.612 6.612 0 01-.238 1.9c-.1.3-.245.591-.333.9-.39 1.382.441 2.831.323 4.263a10.569 10.569 0 00-.243 1.99 6.715 6.715 0 00.43 1.385 1.8 1.8 0 010 1.416c-.618 1.167-.156 2.753.4 3.951a5.327 5.327 0 01.293.658 7.859 7.859 0 01.07 1.682 1.061 1.061 0 01-.891-.268c-.084-.087-.152-.19-.234-.281a2.321 2.321 0 00-.794-.5 1.043 1.043 0 00-.57-.131 1.141 1.141 0 00-.542.336 5.292 5.292 0 01-.6.454.707.707 0 01-.3.135.268.268 0 01-.279-.143.335.335 0 01-.021-.1 15.055 15.055 0 01-.112-1.729c0-.994-1.19-1.678-1.34-2.66-.12-.793.1-1.6.029-2.4a11.686 11.686 0 01-.142-1.224c0-.266.061-.526.082-.79a5.911 5.911 0 00-.013-.88l-.059-.918a7.932 7.932 0 00-.477-2.661 9.04 9.04 0 01-.741-3.056c-.038-.665-.013-1.33-.089-2a9.833 9.833 0 01-.177-1.805c.036-.468.19-.92.226-1.387a7.091 7.091 0 00-.536-2.634 3.9 3.9 0 01-.114-2.645.868.868 0 01.243-.353 1.061 1.061 0 01.448-.167 34.793 34.793 0 019.924-.633 3.3 3.3 0 011.529.481z" fill="#3a4a61"/><circle data-name="Ellipse 78" cx="3.044" cy="3.044" r="3.044" transform="translate(80.131 68.311)" fill="#be6f72"/><path data-name="Path 539" d="M82.586 75.159a1.085 1.085 0 010 .53 1.2 1.2 0 01-.2.334 8.588 8.588 0 01-.975 1.06 1.765 1.765 0 00.91.9 5.282 5.282 0 001.256.359 1.316 1.316 0 001.231-.213l1.691-1.013a3.378 3.378 0 00.7-.507 1.731 1.731 0 00.49-1.19.327.327 0 00-.061-.224.4.4 0 00-.232-.1 2.061 2.061 0 01-1.33-1.161 6.152 6.152 0 01-.462-1.762l-1.8.95c-.268.142-.534.285-.811.409-.177.08-.534.146-.659.308-.238.301.19.96.252 1.32z" fill="#be6f72"/><path data-name="Path 540" d="M81.423 76.53a2.005 2.005 0 00-.583.789 2.055 2.055 0 00.106 1.157 34.534 34.534 0 011.14 4.9c.16 1.14.219 2.3.3 3.451.16 2.353.391 6.1.7 8.441a22.426 22.426 0 003.383-.4c2.113-.224 4.289.289 6.358-.19-.5-1.982-1-5.367-1.505-7.347a14.016 14.016 0 01-.46-2.385c-.044-.58-.017-1.161-.01-1.745.017-1.14-.046-2.28-.108-3.421a21.709 21.709 0 00-.46-3.962.738.738 0 00-.22-.435.892.892 0 00-.663-.059 2.885 2.885 0 01-1.973-.468c-.251-.171-.587-.38-.821-.19a.817.817 0 00-.19.4 2.024 2.024 0 01-1.19 1.173 5.954 5.954 0 01-1.684.346.827.827 0 01-.523-.059c-.27-.165-.289-.76-.629-.8-.299-.03-.766.612-.968.804z" fill="#3a4a61"/><path data-name="Path 541" d="M85.92 81.171a11.561 11.561 0 01-1.52-2.47 5.5 5.5 0 00-1.313-1.444 3.919 3.919 0 01-.715-.606c-.181-.222-.317-.519-.591-.6a.715.715 0 00-.64.177 6.29 6.29 0 00-.475.505c-.806.834-2.221.95-2.86 1.916a1.57 1.57 0 00-.34.713 5.523 5.523 0 001.015 3.972 1.349 1.349 0 00.7.57 2.2 2.2 0 00.137 1.045 27.928 27.928 0 001.294 3.525 8.521 8.521 0 00-.255 1.366c-.133 1.161-.009 2.339-.135 3.5-.1.95-.38 1.876-.39 2.828 0 .152.013.333.144.41a.437.437 0 00.226.048l2.337.07a18.968 18.968 0 004.063-.171 1.69 1.69 0 00.511-.161 1.717 1.717 0 00.675-1.33 11.594 11.594 0 00.112-1.988 3.242 3.242 0 001.475 2.208 3.309 3.309 0 001.465.177 27.6 27.6 0 003.191-.329.42.42 0 00.466-.488l.011-1.038a57.9 57.9 0 00-.7-6.22 13.534 13.534 0 00-.22-1.978c-.067-.272-.163-.538-.222-.811a5.786 5.786 0 01-.095-.811l-.148-2.09c-.07-.967-.171-1.9-.245-2.866a13.878 13.878 0 00-.407-2.786c-.165-.57-.509-1.216-1.1-1.286a2.276 2.276 0 00-.927.2 3.747 3.747 0 01-2.28-.009 3.208 3.208 0 00-.711-.19.7.7 0 00-.65.27.975.975 0 00-.1.479 25.351 25.351 0 01-.783 5.693z" fill="#eb1c24"/><path data-name="Path 542" d="M82.862 81.228a11.537 11.537 0 00-2.9-2.451 2.319 2.319 0 00-1.442-.319 1.08 1.08 0 00-.927 1.015 6.568 6.568 0 00.262.887 9.311 9.311 0 00.076 1.038 1.757 1.757 0 00.38.583l1.345 1.594a8.659 8.659 0 001.874 1.8 2.816 2.816 0 002.489.348 3.06 3.06 0 001.365-1.252c.334-.532.57-1.114.884-1.663a8.256 8.256 0 011.9-2.305 2.112 2.112 0 01-1.14-.57 1.879 1.879 0 01-.18-.327l-.308-.665a.76.76 0 00-.57.215 4.771 4.771 0 01-.424.431c-.268.2-.631.257-.874.487a2.31 2.31 0 00-.255.319 2.132 2.132 0 01-1.555.835z" fill="#3a4a61"/><path data-name="Path 543" d="M88.234 77.254a11.384 11.384 0 00.817-4 1.829 1.829 0 01.363-.994 1.894 1.894 0 011.625-.38c.169.019.38.1.371.268a.342.342 0 01-.086.161 4.521 4.521 0 00-.939 2.493c.3.207.76-.219 1.047 0 .19.16.1.475-.011.7q-.4.792-.819 1.573a5.055 5.055 0 01-.868 1.252c-.241.232-.525.414-.77.642-.57.534-.914 1.288-1.5 1.809a.308.308 0 01-.19.1.319.319 0 01-.2-.089 2.882 2.882 0 01-.718-.868c-.224-.414-.19-.536.163-.829a6.28 6.28 0 001.715-1.838z" fill="#be6f72"/><path data-name="Path 544" d="M81.76 80.411c.114.07.255.15.38.091a.4.4 0 00.127-.124 4.473 4.473 0 00.54-.939.362.362 0 00.04-.152c0-.122-.108-.211-.209-.281a7.75 7.75 0 00-1.727-.821 3.566 3.566 0 00-1.558-.308 1.486 1.486 0 00-1.039.528c-.38.488.257.637.656.813a25.339 25.339 0 012.79 1.193z" fill="#eb1c24"/><path data-name="Path 545" d="M81.161 83.641a.28.28 0 00.08.24c.055-.27-.017-.555.04-.827.084-.409.481-.717.515-1.127-.728-.142-.629 1.274-.635 1.714z" opacity=".1"/><path data-name="Path 546" d="M114.668 68.781v1.872l-7.727.469-.234-1.874z" opacity=".2"/><path data-name="Path 547" d="M80.433 71.808c.483-.393.2-1.218.53-1.746a1.7 1.7 0 01.827-.57 3.76 3.76 0 011.207-.335 1.4 1.4 0 011.14.42c.124.141.207.312.323.458a1.235 1.235 0 001.2.414c.253-.057.515-.249.5-.507a.716.716 0 00-.228-.407l-.543-.6a4.313 4.313 0 00-2.21-1.581 3.79 3.79 0 00-1.885.253c-.245.082-.521.2-.589.452-.046.171.023.357-.017.53-.078.344-.519.46-.724.749s-.143.631-.2.95a8.319 8.319 0 00-.251.962c-.013.2.087.57.312.642s.472-.321.608-.084z" fill="#3a4a61"/><path data-name="Path 548" d="M85.973 69.669a5.7 5.7 0 00-1.011-2.311 4.05 4.05 0 00-1.8-1.429 2.577 2.577 0 00-2.241.177 3.253 3.253 0 00-1.119 1.412 3.775 3.775 0 00-.1 3.375c.228-.277.62-.152.965-.253a10.06 10.06 0 001.212-.593c1.243-.55 2.764-.105 4.094-.378z" fill="#fed253"/><path data-name="Path 549" d="M79.99 69.61a1.161 1.161 0 01.171-.982.123.123 0 01.1-.046.131.131 0 01.078.068 4.263 4.263 0 01.357.7.726.726 0 00-.76.295" opacity=".1"/><path data-name="Path 550" d="M84.431 68.644l-.068-.678a.309.309 0 01.013-.167.215.215 0 01.277-.076.571.571 0 01.222.222 3.993 3.993 0 01.391.773 2.3 2.3 0 00-.925.011" opacity=".1"/><path data-name="Path 551" d="M86.132 96.178v1.551l-1.309.087h-6.887v-1.638z" opacity=".1"/><path data-name="Path 552" d="M86.132 96.178v1.638h-8.2L56.162 70.54v-1.288h4.56z" fill="#f1c0c0"/><path data-name="Path 553" d="M86.132 96.178v1.638h-8.2L56.162 70.54v-1.288h4.56z" opacity=".1"/><path data-name="Path 554" d="M86.132 96.178v1.638h-8.2L56.162 70.54v-1.288l21.892 26.926z" opacity=".1"/><path data-name="Path 555" d="M59.016 123.516a.57.57 0 01-.5.671 3.386 3.386 0 00-1.463.76 1.046 1.046 0 000 1.484 1.442 1.442 0 00.76.207 5.151 5.151 0 002.539-.317 3.764 3.764 0 011.7-.659c.317.019.656.167.939.023s.363-.547.365-.884a6.542 6.542 0 00-.314-2.07 8.316 8.316 0 00-1.382-.19l-1.465-.19c-.277-.036-.876-.245-1.095-.013s-.084.903-.084 1.178z" fill="#eb1c24"/><path data-name="Path 556" d="M67.76 118.773a4.59 4.59 0 00.3 1 2.318 2.318 0 00.962 1.317 1.716 1.716 0 001.467-.07 1.209 1.209 0 00.488-.371 1.47 1.47 0 00.19-.853 4.661 4.661 0 00-.38-2.149c-.289-.57-.792-1.06-.8-1.691l-1.731.334a.493.493 0 00-.255.1.438.438 0 00-.11.207 5.658 5.658 0 00-.131 2.176z" fill="#eb1c24"/><path data-name="Path 557" d="M47.087 100.72a2.829 2.829 0 00.277 1.8 1.39 1.39 0 001.574.667.229.229 0 00.142-.108.268.268 0 00-.025-.19 2.8 2.8 0 01.059-2.113c.038-.087.12-.19.209-.156a.19.19 0 01.085.087.993.993 0 01.133.525 1.95 1.95 0 00-.015.5c.036.163.211.317.363.247a.38.38 0 00.173-.245 8.1 8.1 0 00.038-3.848.2.2 0 00-.226-.211c-.9-.089-1.387-.3-1.9.53a5.209 5.209 0 00-.887 2.515z" fill="#eb1c24"/><path data-name="Path 558" d="M57.571 97.601a11.653 11.653 0 00-.391 5.477l.2 1.646c.068.555.135 1.108.232 1.657a4.408 4.408 0 01.1.861 4.612 4.612 0 01-.135.846 9.877 9.877 0 00-.2 1.767c-.021.95.1 1.9.171 2.85a31.743 31.743 0 01-.066 5.686 2.132 2.132 0 00.312 1.465 1.886 1.886 0 01.276.452c.143.435-.19.87-.276 1.317a1.33 1.33 0 001.106 1.52c1.52.181 3.082.1 4.452.794.145-.422-.171-.9-.027-1.33.091-.266.342-.439.513-.663a1.931 1.931 0 00.327-1.159 4.237 4.237 0 00-.281-1.572 3.4 3.4 0 01-.38-1.279 1.615 1.615 0 00-.011-.656 1.024 1.024 0 00-.245-.306 3.863 3.863 0 01-.994-2.252 10.374 10.374 0 01.08-2.5 4.242 4.242 0 01.718-2.231 14.313 14.313 0 01.4-5.558c.049-.167.127-.361.3-.4a.426.426 0 01.365.144 2.491 2.491 0 01.57 1.072 2.337 2.337 0 01.179 1.3c-.046.19-.137.357-.19.54a1.6 1.6 0 00.057 1.115 1.072 1.072 0 01.137.42 1.164 1.164 0 01-.114.365 1.68 1.68 0 00.158 1.359 4.92 4.92 0 00.887 1.089 3.991 3.991 0 00.124 2.2.277.277 0 01.025.211c-.034.072-.122.1-.19.15-.19.156-.072.45.055.654a15 15 0 001.154 1.6c.38.454.346 1.33.912 1.494a1.708 1.708 0 00.722 0 1.893 1.893 0 001.456-.741 2 2 0 01.333-.6c.175-.152.4-.179.5-.361s-.011-.422.021-.633.217-.38.276-.6c.141-.513-.458-.935-.54-1.459-.118-.76.84-1.33.8-2.09-.084-1.651-.137-3.31-.222-4.962a35.771 35.771 0 01-.046-4.445 6.251 6.251 0 00-.148-2.744 3.676 3.676 0 00-3.126-2.016 15.39 15.39 0 00-3.879.38 24.51 24.51 0 01-6.457.126z" fill="#3a4a61"/><circle data-name="Ellipse 79" cx="3.044" cy="3.044" r="3.044" transform="translate(58.386 73.349)" fill="#fbbebe"/><path data-name="Path 559" d="M60.191 80.006a1.3 1.3 0 01-1.241.785 1.53 1.53 0 00.456 1.275 5.412 5.412 0 005.18 1.777 2.554 2.554 0 001.02-.426 2.263 2.263 0 00.779-1.349 6.7 6.7 0 00.074-1.587.41.41 0 00-.084-.293.418.418 0 00-.266-.087 4.613 4.613 0 01-1.878-.4 1.338 1.338 0 01-.694-1.613 6.809 6.809 0 01-1.3.154 33.75 33.75 0 00-1.372.221 2.5 2.5 0 00-.644.122c-.276.143-.173.072-.108.331a1.572 1.572 0 01.078 1.09z" fill="#fbbebe"/><path data-name="Path 560" d="M62.507 81.857a5.039 5.039 0 01-1.218-.135 1.71 1.71 0 01-1-.667c-.141-.213-.232-.481-.456-.6-.367-.19-.785.131-1.077.426a3.915 3.915 0 01-.916.737c-.407.215-.882.291-1.266.543a3.183 3.183 0 00-.76.821l-2.693 3.668c-1.081 1.475-2.022 3.058-2.985 4.614a32.619 32.619 0 00-1.9 4.352.486.486 0 00-.059.293c.023.1.143.179.226.122-.283.281-.034.76-.1 1.156a1.417 1.417 0 01-.452.709 3.573 3.573 0 011.254.059 3.846 3.846 0 011.186.57c.23-.036.209-.445.38-.6.1-.089.255-.078.39-.1.507-.1.709-.709 1.1-1.053.325-.287.785-.38 1.129-.65.559-.439.678-1.22.971-1.868.249-.549.64-1.028.859-1.591a6.86 6.86 0 01.414-1.1 3.14 3.14 0 011.52-1.093 2.518 2.518 0 011.157-.31 10.749 10.749 0 00.059 2.617c.066.3.16.6.239.9a16.993 16.993 0 01.466 4.181 12.714 12.714 0 012.661-.319c.705-.021 1.408.07 2.113.057.836-.015 1.663-.177 2.5-.234a4.669 4.669 0 012.45.38 23.27 23.27 0 01.1-3.611l.2-1.889a11.611 11.611 0 01.253-1.631c.11-.433.27-.851.391-1.283a14.682 14.682 0 00.268-4.726 5.958 5.958 0 00-.724-2.337 6.331 6.331 0 00-.456-.775 4.491 4.491 0 00-3.926-1.843.8.8 0 00-.281.061.937.937 0 00-.359.428 4.656 4.656 0 01-1.658 1.721z" fill="#3a4a61"/><path data-name="Path 561" d="M58.752 77.403c.086-.19.315-.26.456-.412.27-.289.148-.751.19-1.14a1.638 1.638 0 011.083-1.25 3.5 3.5 0 011.71-.108 1.654 1.654 0 01.772.256c.1.072.19.165.283.232a.76.76 0 001.034-.241 3.741 3.741 0 00-3.506-2.014 3.462 3.462 0 00-1.4.163 2.331 2.331 0 00-1.228 1.418 6.891 6.891 0 00-.3 1.9 7.156 7.156 0 000 1.292 3.573 3.573 0 00.635 1.629.493.493 0 00.19.177c.87.378.011-1.745.081-1.902z" fill="#3a4a61"/><path data-name="Path 562" d="M64.181 74.269a3.73 3.73 0 00-1.421-2.229 5.24 5.24 0 00-1.91-1.15 2.552 2.552 0 00-2.155.262 3.311 3.311 0 00-1.049 1.442 4.539 4.539 0 00-.458 2.09 2.254 2.254 0 001.02 1.809 1.92 1.92 0 01.988-.637 48.39 48.39 0 014.985-1.589z" fill="#fed253"/><path data-name="Path 563" d="M58.418 73.897c.061 0 .1.063.131.114a4.81 4.81 0 01.4.76c-.222.048-.6.1-.715-.095-.061-.099.009-.789.184-.779z" opacity=".1"/><path data-name="Path 564" d="M62.749 73.467c-.046.044-.1-.046-.1-.11v-.737a.108.108 0 01.013-.059.089.089 0 01.063-.03c.154-.017.281.114.38.239a4.021 4.021 0 01.39.648l-.8-.025" opacity=".1"/><path data-name="Path 565" d="M72.781 85.677a4.959 4.959 0 01.559-.458 8.432 8.432 0 011.754-.715 2.315 2.315 0 001.421-1.176 2.794 2.794 0 00.11-1.14 1.139 1.139 0 00-.084-.469.933.933 0 00-.3-.327 4.343 4.343 0 00-2.873-.58 18.008 18.008 0 00-6.349 1.585.552.552 0 00-.266.19.544.544 0 00-.051.264 4.372 4.372 0 00.215 1.655c.262.677.8 1.222 1.028 1.912.1.31.137.638.226.95a1.33 1.33 0 00.534.794c.751.449 1.459-.154 1.98-.621z" fill="#3a4a61"/><path data-name="Path 566" d="M62.95 88.308l-.963-2.1a7.362 7.362 0 01-.365-.9c-.11-.367-.163-.747-.266-1.116-.338-1.228-1.191-2.25-1.608-3.453a.655.655 0 00-.156-.291.507.507 0 00-.424-.076 6.617 6.617 0 00-1.568.794c-.247.114-.513.19-.76.321a.95.95 0 00-.509.606 1.481 1.481 0 00.207.853 9.636 9.636 0 01.658 3.748 3.985 3.985 0 01-.534 2.47c-.975 1.33-.352 3.284.013 4.893.044.19.1.4.125.6a5.485 5.485 0 01.044.76 5.948 5.948 0 01-.4 2.507 2.806 2.806 0 001.14.323q1.655.211 3.324.3a3.626 3.626 0 001.043-.053 1.9 1.9 0 001.4-1.862 2.35 2.35 0 00.555 1.463 2.21 2.21 0 001.458.449 27.1 27.1 0 004.39-.124.758.758 0 00.27-.063c.281-.141.3-.528.274-.84a36.27 36.27 0 00-.156-1.746 7.145 7.145 0 01-.091-1.117 6.431 6.431 0 01.19-1.14 12.936 12.936 0 00.371-3.611 6.084 6.084 0 01-.036-.891 11.807 11.807 0 00.336-1.976 32.348 32.348 0 00-.891-5.866 1.52 1.52 0 00-.519-.9c-.38-.255-.914-.122-1.349-.283a3.371 3.371 0 01-.58-.344 2.66 2.66 0 00-1.309-.4 1.112 1.112 0 00-.95.346 1.381 1.381 0 00-.19.519c-.276 1.159-.6 2.305-.922 3.451l-.31 1.1-.83 2.949c-.083.306-.028.406-.112.7z" fill="#eb1c24"/><path data-name="Path 567" d="M67.81 76.802l18.382 19.317v1.633h-8.2l-13.81-18.023" fill="#f1c0c0"/><path data-name="Path 568" d="M67.81 76.802l18.382 19.317v1.633h-8.2l-13.81-18.023" opacity=".1"/><path data-name="Path 569" d="M64.475 79.474l.059.021 13.58 16.624h8.078v1.638h-8.2l-13.81-18.028z" opacity=".1"/><path data-name="Path 570" d="M66.585 79.881c-.665.291-1.4.663-1.6 1.363a.784.784 0 00-.025.38.775.775 0 00.7.534 2.281 2.281 0 00.914-.167l3.924-1.3c.106-.034.228-.086.255-.19a.328.328 0 00-.038-.19c-.122-.3-.241-.9-.5-1.11-.209-.167-.623-.108-.876-.1a7.1 7.1 0 00-2.754.78z" fill="#eb1c24"/><path data-name="Path 571" d="M70.088 80.845a6.309 6.309 0 011.948.3 3.469 3.469 0 011.613 1.1 1.209 1.209 0 01.255.5c.038.19.658.3.521.433.416-.067.317.129.739.125a1.4 1.4 0 001.131-.448 1.469 1.469 0 00.222-.929 1.582 1.582 0 00-.125-.657 1.941 1.941 0 00-1.03-.8l-3.394-1.553a2.259 2.259 0 00-.627-.222 2.349 2.349 0 00-.553.013l-1.537.177a2.3 2.3 0 011.051 2.028" fill="#3a4a61"/></g></svg>