<svg xmlns="http://www.w3.org/2000/svg" width="200" height="118.184" viewBox="0 0 200 118.184"><path data-name="Path 1346" d="M161.704 42.889l-8.8 5.57 5.333-9.7a8.687 8.687 0 00-5.312-1.9h-.141a9.656 9.656 0 01-1.824-.136l-2.98 1.89 1.273-2.321a10.633 10.633 0 01-5.209-3.964l-5.327 3.4 3.362-6.124a15.584 15.584 0 00-11.938-6.034 16.362 16.362 0 00-13.669 8.433 10.231 10.231 0 01-9.059 4.869h-.3c-6.121 0-11.081 6.922-11.081 15.5s4.96 15.5 11.081 15.5a8.277 8.277 0 003.856-.969 16.007 16.007 0 0113.413-.262 13.992 13.992 0 0011.4.028 16.005 16.005 0 0113.287.255 8.328 8.328 0 003.822.945c6.121 0 11.081-6.922 11.081-15.5a19.694 19.694 0 00-2.275-9.483z" fill="#0c9add" opacity=".1"/><path data-name="Path 1347" d="M145.145 65.564a16.414 16.414 0 00-9.5 1.029 13.949 13.949 0 01-11.4 0 15.973 15.973 0 00-13.413.262 8.342 8.342 0 01-3.862.969c-5.435 0-9.959-5.48-10.9-12.7a10.33 10.33 0 002.709-2.929 15.291 15.291 0 0127.279-.108 10.472 10.472 0 009.059 4.965h.141c4.315-.017 8.064 3.449 9.887 8.512z" fill="#0c9add" opacity=".1"/><path data-name="Path 1348" d="M172.97 77.655a46.018 46.018 0 01-8.992 1.719c-10.381 1.246-24.607 1.688-24.607 1.688S66.243 87.127 11.434 64.57c0 0-7.971-4.179-.576-9.8a24.083 24.083 0 013.617-2.207l.09-.09a20.113 20.113 0 0116.186-5.121L174.7 70.63s5.258 4.444-1.73 7.025z" fill="#3a4a61"/><path data-name="Path 1349" d="M144.289 67.1l30.135-21.381 13.284 2.3-13 22.611s-30.073.24-30.419-3.53z" fill="#3a4a61"/><path data-name="Path 1350" d="M68.421 54.11l60.025-16.834 9.675 2.022-27.114 12.199-8.473 9.481z" fill="#3a4a61"/><path data-name="Path 1351" d="M163.975 79.371c-10.381 1.246-24.606 1.688-24.606 1.688S66.241 87.125 11.432 64.571c0 0-7.971-4.179-.576-9.8l.025.1s11.825 7.989 68.331 14.662z" fill="#eb1c24"/><path data-name="Path 1352" d="M154.328 78.912l26.836 10.957 6.744-.748-16.058-12.064s-19.416-4.139-17.522 1.855z" fill="#3a4a61"/><path data-name="Path 1353" d="M20.613 56.04c-1.28.021-4.214-2.127-6.038-3.577a19.182 19.182 0 012.716-2.094c1.47 1.124 4.087 2.954 5.543 2.884 2.101-.081-.293 2.753-2.221 2.787z" fill="#eb1c24"/><path data-name="Path 1354" d="M142.53 116.788l-17.23.9-48.443-32.663-8.992-6.065-4.367-2.947c8.2-6.92 41.631 2.624 41.631 2.624a2.95 2.95 0 01.817 2.43 15.007 15.007 0 01-1.265 4.821c-.081.192-.131.294-.131.294z" fill="#3a4a61"/><path data-name="Path 1355" d="M73.696 98.446l-2.989 1.892 1.81-3.294a2.954 2.954 0 00-1.8-.644h-.048a3.308 3.308 0 01-.619-.046l-1.012.642.432-.788a3.611 3.611 0 01-1.771-1.343l-1.809 1.154 1.141-2.079a5.291 5.291 0 00-4.054-2.049 5.554 5.554 0 00-4.64 2.861 3.474 3.474 0 01-3.076 1.653h-.1c-2.078 0-3.763 2.35-3.763 5.262s1.684 5.262 3.763 5.262a2.81 2.81 0 001.309-.329 5.436 5.436 0 014.554-.089 4.751 4.751 0 003.872 0 5.433 5.433 0 014.512.087 2.828 2.828 0 001.3.321c2.078 0 3.763-2.35 3.763-5.262a6.678 6.678 0 00-.775-3.211z" fill="#0c9add" opacity=".1"/><path data-name="Path 1356" d="M68.073 106.145a5.578 5.578 0 00-3.224.349 4.738 4.738 0 01-3.87 0 5.421 5.421 0 00-4.554.089 2.833 2.833 0 01-1.311.329c-1.845 0-3.381-1.861-3.7-4.313a3.513 3.513 0 00.92-.994 5.192 5.192 0 019.262-.037 3.557 3.557 0 003.066 1.686h.048c1.471-.005 2.744 1.173 3.363 2.891z" fill="#0c9add" opacity=".1"/><path data-name="Path 1357" d="M18.092 32.643l-2.424 1.536 1.469-2.672a2.376 2.376 0 00-1.463-.525h-.038a3.018 3.018 0 01-.5-.038l-.82.519.351-.625a2.93 2.93 0 01-1.435-1.092l-1.464.938.938-1.686a4.286 4.286 0 00-3.288-1.664 4.472 4.472 0 00-3.752 2.328 2.815 2.815 0 01-2.497 1.342h-.082c-1.686 0-3.052 1.914-3.052 4.272s1.366 4.269 3.052 4.269a2.285 2.285 0 001.064-.261 4.4 4.4 0 013.7-.072 3.849 3.849 0 003.127 0 4.4 4.4 0 013.657.072 2.334 2.334 0 001.05.26c1.686 0 3.052-1.91 3.052-4.269a5.439 5.439 0 00-.645-2.632z" fill="#0c9add" opacity=".1"/><path data-name="Path 1358" d="M13.528 38.895a4.487 4.487 0 00-2.619.284 3.891 3.891 0 01-1.564.332 3.831 3.831 0 01-1.58-.341 4.413 4.413 0 00-3.7.075 2.273 2.273 0 01-1.061.266c-1.5 0-2.747-1.511-3.006-3.5a2.953 2.953 0 00.75-.806 4.2 4.2 0 017.507-.029 2.881 2.881 0 002.494 1.366h.04a3.154 3.154 0 012.739 2.353z" fill="#0c9add" opacity=".1"/><path data-name="Path 1359" d="M162.198 106.435l-1.49.944.9-1.642a1.465 1.465 0 00-.9-.323h-.023a1.814 1.814 0 01-.307-.024l-.5.319.216-.384a1.8 1.8 0 01-.882-.67l-.9.576.576-1.036a2.634 2.634 0 00-2.022-1.022 2.75 2.75 0 00-2.306 1.431 1.729 1.729 0 01-1.538.825h-.05c-1.036 0-1.876 1.176-1.876 2.626s.84 2.624 1.876 2.624a1.416 1.416 0 00.654-.164 2.706 2.706 0 012.273-.044 2.367 2.367 0 001.922 0 2.707 2.707 0 012.248.044 1.433 1.433 0 00.646.159c1.036 0 1.876-1.174 1.876-2.624a3.346 3.346 0 00-.39-1.613z" fill="#0c9add" opacity=".1"/><path data-name="Path 1360" d="M159.392 110.28a2.759 2.759 0 00-1.609.175 2.4 2.4 0 01-.962.2 2.356 2.356 0 01-.971-.209 2.71 2.71 0 00-2.273.046 1.411 1.411 0 01-.652.164c-.92 0-1.688-.929-1.848-2.151a1.809 1.809 0 00.462-.5 2.585 2.585 0 014.614-.017 1.771 1.771 0 001.533.84h.025a1.936 1.936 0 011.681 1.452z" fill="#0c9add" opacity=".1"/><path data-name="Path 1361" d="M29.011 113.94l-1.49.944.9-1.642a1.464 1.464 0 00-.9-.323H27.5a1.814 1.814 0 01-.307-.024l-.5.319.216-.384a1.8 1.8 0 01-.882-.67l-.9.576.576-1.036a2.634 2.634 0 00-2.022-1.022 2.75 2.75 0 00-2.306 1.431 1.731 1.731 0 01-1.533.825h-.05c-1.036 0-1.876 1.176-1.876 2.626s.84 2.624 1.876 2.624a1.416 1.416 0 00.654-.163 2.706 2.706 0 012.273-.044 2.367 2.367 0 001.922 0 2.707 2.707 0 012.248.044 1.433 1.433 0 00.646.159c1.036 0 1.876-1.174 1.876-2.624a3.338 3.338 0 00-.4-1.616z" fill="#0c9add" opacity=".1"/><path data-name="Path 1362" d="M26.206 117.78a2.759 2.759 0 00-1.609.175 2.4 2.4 0 01-.962.2 2.356 2.356 0 01-.971-.209 2.71 2.71 0 00-2.273.046 1.408 1.408 0 01-.652.164c-.92 0-1.688-.929-1.848-2.151a1.79 1.79 0 00.461-.5 2.585 2.585 0 014.614-.017 1.771 1.771 0 001.533.84h.025a1.935 1.935 0 011.682 1.452z" fill="#0c9add" opacity=".1"/><path data-name="Path 1363" d="M97.15 11.452l-5.219 3.3 3.162-5.753a5.153 5.153 0 00-3.149-1.124h-.081a5.719 5.719 0 01-1.084-.076L89.012 8.92l.751-1.376a6.307 6.307 0 01-3.085-2.345L83.52 7.208l1.993-3.631a9.239 9.239 0 00-7.079-3.578 9.7 9.7 0 00-8.1 5 6.065 6.065 0 01-5.371 2.884h-.179c-3.63 0-6.57 4.1-6.57 9.188s2.941 9.188 6.57 9.188a4.914 4.914 0 002.286-.574 9.494 9.494 0 017.952-.155 8.3 8.3 0 006.761.016 9.491 9.491 0 017.878.151 4.944 4.944 0 002.267.56c3.63 0 6.57-4.1 6.57-9.188a11.68 11.68 0 00-1.349-5.622z" fill="#0c9add" opacity=".1"/><path data-name="Path 1364" d="M87.332 24.895a9.741 9.741 0 00-5.629.61 8.268 8.268 0 01-6.758 0 9.467 9.467 0 00-7.952.155 4.939 4.939 0 01-2.289.574c-3.222 0-5.9-3.25-6.461-7.531a6.122 6.122 0 001.605-1.736 9.066 9.066 0 0116.173-.064 6.208 6.208 0 005.371 2.944h.084c2.552-.01 4.775 2.046 5.856 5.048z" fill="#0c9add" opacity=".1"/><path data-name="Path 1365" d="M199.607 39.547l-1.49.944.9-1.642a1.464 1.464 0 00-.9-.323h-.023a1.814 1.814 0 01-.307-.024l-.5.319.216-.384a1.807 1.807 0 01-.883-.671l-.9.576.576-1.036a2.634 2.634 0 00-2.022-1.022 2.747 2.747 0 00-2.307 1.431 1.731 1.731 0 01-1.533.825h-.05c-1.036 0-1.876 1.176-1.876 2.626s.84 2.624 1.876 2.624a1.412 1.412 0 00.653-.163 2.706 2.706 0 012.273-.044 2.367 2.367 0 001.922 0 2.707 2.707 0 012.248.044 1.433 1.433 0 00.646.159c1.036 0 1.876-1.174 1.876-2.624a3.354 3.354 0 00-.395-1.615z" fill="#0c9add" opacity=".1"/><path data-name="Path 1366" d="M196.802 43.388a2.759 2.759 0 00-1.609.175 2.4 2.4 0 01-.962.2 2.347 2.347 0 01-.962-.209 2.709 2.709 0 00-2.273.046 1.408 1.408 0 01-.652.163c-.92 0-1.688-.929-1.848-2.151a1.79 1.79 0 00.461-.5 2.585 2.585 0 014.614-.017 1.771 1.771 0 001.533.84h.025a1.935 1.935 0 011.673 1.453z" fill="#0c9add" opacity=".1"/></svg>