<svg xmlns="http://www.w3.org/2000/svg" width="450" height="288.426" viewBox="0 0 450 288.426"><g id="строительство_стендов-01_1_" data-name="строительство стендов-01 (1)" transform="translate(-9.492 -23.818)"><g id="Group_424" data-name="Group 424" transform="translate(246.5 23.819)" opacity=".1" fill="#0c9add"><path id="Path_1963" data-name="Path 1963" d="M91.8,23.819V266.882h80.373V23.819Zm75.962,233.589H96.215v-71.55h71.55Zm0-77.972H96.215v-71.55h71.55Zm0-77.972H96.215V29.915h71.55Z" transform="translate(-91.804 -23.819)"/><path id="Path_1964" data-name="Path 1964" d="M121.645,23.819V266.882h80.373V23.819Zm75.962,233.589h-71.55v-71.55h71.55Zm0-77.972h-71.55v-71.55h71.55Zm0-77.972h-71.55V29.915h71.55Z" transform="translate(-35.721 -23.819)"/><circle id="Ellipse_332" data-name="Ellipse 332" cx="18.477" cy="18.477" r="18.477" transform="rotate(-45 121.415 -91.099)"/><path id="Path_1965" data-name="Path 1965" d="M137.833,71.447a18.477,18.477,0,0,1-36.954,0Z" transform="translate(-74.748 65.694)"/><path id="Path_1966" data-name="Path 1966" d="M137.833,66.65a18.477,18.477,0,0,1-36.954,0Z" transform="translate(-74.748 56.678)"/><path id="Rectangle_709" data-name="Rectangle 709" transform="rotate(180 76.646 116.794)" d="M0 0H58.098V61.236H0z"/></g><g id="Group_425" data-name="Group 425" transform="translate(56.669 23.819)" opacity=".1" fill="#0c9add"><path id="Path_1967" data-name="Path 1967" d="M25.877,23.819V266.882H106.25V23.819Zm75.962,233.589H30.288v-71.55h71.55Zm0-77.972H30.288v-71.55h71.55Zm0-77.972H30.288V29.915h71.55Z" transform="translate(-25.877 -23.819)"/><path id="Path_1968" data-name="Path 1968" d="M55.719,23.819V266.882h80.373V23.819Zm75.962,233.589H60.13v-71.55h71.55Zm0-77.972H60.13v-71.55h71.55Zm0-77.972H60.13V29.915h71.55Z" transform="translate(30.208 -23.819)"/><circle id="Ellipse_333" data-name="Ellipse 333" cx="18.477" cy="18.477" r="18.477" transform="rotate(-45 121.414 -91.104)"/><path id="Path_1969" data-name="Path 1969" d="M71.906,71.447a18.477,18.477,0,1,1-36.954,0Z" transform="translate(-8.821 65.694)"/><path id="Path_1970" data-name="Path 1970" d="M71.906,66.65a18.477,18.477,0,1,1-36.954,0Z" transform="translate(-8.821 56.678)"/><path id="Rectangle_710" data-name="Rectangle 710" transform="rotate(180 76.646 116.794)" d="M0 0H58.098V61.236H0z"/></g><path id="Rectangle_711" data-name="Rectangle 711" transform="translate(262.478 195.979)" fill="#fff" d="M0 0H82.207V2.027H0z"/><path id="Rectangle_712" data-name="Rectangle 712" transform="translate(262.478 200.908)" fill="#fff" d="M0 0H40.66V2.027H0z"/><path id="Rectangle_713" data-name="Rectangle 713" transform="translate(262.478 205.835)" fill="#fff" d="M0 0H53.571V2.027H0z"/><g id="Group_426" data-name="Group 426" transform="translate(183.469 92.726)"><path id="Path_1971" data-name="Path 1971" d="M76.142,78.255A12.852,12.852,0,0,0,77.19,80.51c.708,1.054,1.3,2.543,1.042,2.583-.973.15-1.935-1.785-2.951-2.139C72.306,79.919,76.142,78.255,76.142,78.255Z" transform="translate(-61.951 9.582)" fill="#fbbebe"/><path id="Path_1972" data-name="Path 1972" d="M79.218,78.142a11.483,11.483,0,0,1-3.251,2.139C73.514,81.447,70.347,81.85,70,82.705s.4.792.4.792,8.73.3,8.958-.075,3.651-1.987,4.437-4.169C84.312,77.825,79.218,78.142,79.218,78.142Z" transform="translate(-69.914 9.313)" fill="#fbbebe"/><path id="Path_1973" data-name="Path 1973" d="M97.987,78.812a7.479,7.479,0,0,0,.383,2.35c.622,1.209,1.7,2.206,1.9,2.033.734-.657-.524-1.621-.153-2.629C101.2,77.611,97.987,78.812,97.987,78.812Z" transform="translate(-17.152 10.174)" fill="#fbbebe"/><path id="Path_1974" data-name="Path 1974" d="M101.887,77.958s.893,1.762,4.285,2.612c2.635.659,4.538,2.013,4.881,2.868s-1.69.461-1.69.461-6.358.184-6.585-.187-3.939-2.191-4.722-4.374C97.539,77.909,101.887,77.958,101.887,77.958Z" transform="translate(-17.105 9.024)" fill="#fbbebe"/><path id="Path_1975" data-name="Path 1975" d="M80.094,122.962s-4.823,6.51-4.166,7.53,5.681,1.166,8.739,0,3.13-8.7,4.515-11.944c.579-1.356-.659-5.359-2.4-5.649a7.351,7.351,0,0,0-3.64.561S84.991,117.946,80.094,122.962Z" transform="translate(-58.727 74.578)" fill="#494f80"/><path id="Path_1976" data-name="Path 1976" d="M81.406,113.468a50.484,50.484,0,0,0-1.063,5.212c-.305,2.168-3.714,6.919-3.568,7.5s4.077,1.111,5.681-.392,2.629-5.871,2.986-8.483a20.834,20.834,0,0,1,.743-3.634S82.935,111.867,81.406,113.468Z" transform="translate(-57.025 74.518)" fill="#494f80"/><path id="Path_1977" data-name="Path 1977" d="M81.059,114.821v6.735h-.872V116.35Z" transform="translate(-50.606 78.305)" fill="#494f80"/><path id="Path_1978" data-name="Path 1978" d="M101.481,123.144s4.607,6.326,3.951,7.345-5.681,1.166-8.739,0-3.133-8.7-4.515-11.944c-.579-1.356.659-5.359,2.4-5.649a7.818,7.818,0,0,1,3.786.625S96.584,118.128,101.481,123.144Z" transform="translate(-28.34 74.58)" fill="#494f80"/><path id="Path_1979" data-name="Path 1979" d="M96.961,113.676a42.717,42.717,0,0,0,.947,5.1c.582,2.111,3.714,6.919,3.568,7.5s-4.077,1.111-5.681-.392-2.839-5.851-2.986-8.483a13.98,13.98,0,0,1,.363-4.348A3.565,3.565,0,0,1,96.961,113.676Z" transform="translate(-26.933 74.425)" fill="#494f80"/><path id="Path_1980" data-name="Path 1980" d="M92.084,114.821v6.735h.872V116.35Z" transform="translate(-28.246 78.305)" fill="#494f80"/><path id="Path_1981" data-name="Path 1981" d="M96.583,89.08s-3.484,19.2-4.426,24S88.578,141.143,88.3,145.1s-4.279,18.857-4.089,20.271-5.926,29.788-5.926,29.788a3.673,3.673,0,0,0,4.287.153c1.132-.786,10.4-24.328,12.177-31.164,1.731-6.672,5.246-10.412,9.174-25.794.587-2.3,5.566-27.795,6.7-29.114s2.825.754,3.484,3.674,2.07,28.158,2.917,31.36.19,14.031.659,19.494,2.479,30.032,2.479,30.032a2.745,2.745,0,0,0,4.02.225c.521-.487,3.766-27.544,3.858-34.043s.2-15.46.377-18.27c1.745-26.925,5.039-30.45-.72-49.828C113.6,44.461,96.583,89.08,96.583,89.08Z" transform="translate(-54.188 -5.83)" fill="#2b223d"/><path id="Path_1982" data-name="Path 1982" d="M103.079,76.427s-.009.017-.026.046c-.513.93-9.827,18.725-10.484,19.787-.864,1.4-2.165,6.217-6.729,11.495l-8.134,10.3-4.561-.8L81.9,102.106c4.109-8.183,2.246-4.115,6.672-12.871,1.345-2.663,8.307-20.409,9.75-21.915a37.466,37.466,0,0,1,5.264-3.861,56.739,56.739,0,0,1,8.589-4.607c.645-.265,1.276-.5,1.88-.688l.026-.009c5.963-1.883,9.355-.063,9.355-.063a65.021,65.021,0,0,0,11.091,3.487c.132.023.265.046.394.066a2.344,2.344,0,0,1,.921.449h0c5.013,3.579,12.045,27.651,12.183,30.257.461,8.719.052,3.622.6,24.734.035,1.316-4.12,2.174-3.956,1.7.147-.42-3.032-23.441-3.576-25.667a141.847,141.847,0,0,0-5.252-16.416,28.032,28.032,0,0,0-3.225,10.262c-.521,4.037-1.106,7.069-.593,12.07.426,4.161,1.325,7.026,2.609,8.88l-28.4,5.131a36.618,36.618,0,0,0,.567-3.856c.688-6.067,1.984-18.543.035-21.086-1.572-2.047-2.678-3.15-3.11-5.514a27.868,27.868,0,0,1-.547-5.837Z" transform="translate(-63.841 -29.8)" fill="#fbbebe"/><path id="Path_1983" data-name="Path 1983" d="M100.54,59.053s-5.914,14.126-9.424,16.669c0,0-4.613-14.924-4.29-17.107C86.823,58.615,93.825,55.508,100.54,59.053Z" transform="translate(-38.16 -29.697)" fill="#eea886"/><path id="Path_1984" data-name="Path 1984" d="M95.5,53.395s6.525,14.077,2.016,14.446-8.584-10.17-8.584-10.17Z" transform="translate(-34.161 -37.14)" fill="#323657"/><path id="Path_1985" data-name="Path 1985" d="M96.7,55.443s-.515,6.4.717,8.313-1.054,4.518-5.762,3.628-4.434-3.559-4.434-3.559a19.514,19.514,0,0,0,.933-7.106C87.768,53.557,96.7,55.443,96.7,55.443Z" transform="translate(-37.386 -34.34)" fill="#fbbebe"/><path id="Path_1986" data-name="Path 1986" d="M87,51.551s-.849-1.022-1.169.009.723,4.086.835,4.529c0,0,.515,1.716.72,1.5S87,51.551,87,51.551Z" transform="translate(-40.12 -41.455)" fill="#fbbebe"/><path id="Path_1987" data-name="Path 1987" d="M91.634,51.595s.849-1.022,1.169.009-.723,4.086-.835,4.529c0,0-.515,1.716-.72,1.5S91.634,51.595,91.634,51.595Z" transform="translate(-29.901 -41.372)" fill="#fbbebe"/><path id="Path_1988" data-name="Path 1988" d="M95.308,47.9s7.806,1.2,6.663,13.5-8.034,11.322-8.494,11.31-6.911.256-7.469-14.748C86.007,57.965,85.748,46.871,95.308,47.9Z" transform="translate(-39.668 -47.587)" fill="#fbbebe"/><path id="Path_1989" data-name="Path 1989" d="M87.59,57.394s8.664,2.577,12.813,1.754c0,0,.757,1.647,1.353,1.739s.409-3.041.409-3.041.2-10-8.843-10.1-7.207,10.832-7.207,10.832l.124,1.869S87.532,60.961,87.59,57.394Z" transform="translate(-39.753 -47.75)" fill="#323657"/><path id="Path_1990" data-name="Path 1990" d="M125.223,134.664c-.3,16.49,2.243,23.64,2.243,23.64s-8.4,4.215-26.508,3.308c-8.146-.409-15.549-4.575-19.635-3.012,0,0,.593-4.169,2.352-13.81,2.128-11.673,2-9.332,2.427-13.121.671-5.886,3.069-17.988,5.134-23.375.688-6.067,1.287-18.9-.662-21.446-1.569-2.047-2.905-3.824-3.058-6.268A33.812,33.812,0,0,1,87.7,76.2v-.006a1.03,1.03,0,0,1-.012-.23A130.123,130.123,0,0,0,89.2,62.328c1.425-1.7,5-2.995,7.613-3.994,1.016-.389,1.742-.639,1.88-.688l.026-.009c3.242,1.117,9.355-.063,9.355-.063a47.733,47.733,0,0,1,9.108,2.773,11.742,11.742,0,0,0,1.224.412,9.294,9.294,0,0,1,1.014.343c-1.356,5.284,1.4,15.946,1.4,15.946a26.012,26.012,0,0,0-3.231,9.324,43.46,43.46,0,0,0-.694,10.939,26.066,26.066,0,0,0,2.7,10.539C119.589,107.851,125.575,115.2,125.223,134.664Z" transform="translate(-48.469 -29.286)" fill="#eb1c24"/><path id="Path_1991" data-name="Path 1991" d="M86.808,58.876s-1.051,12.9,2.165,14.616S99.541,74.065,102,59.057c0,0-3.219-.936-4.437-1.322A16.109,16.109,0,0,0,86.808,58.876Z" transform="translate(-38.47 -29.828)" fill="#fbbebe"/><path id="Path_1992" data-name="Path 1992" d="M87.776,56.737a6.126,6.126,0,0,0,6.922-.766s-1.345,2.4-3.579,2.424A4.113,4.113,0,0,1,87.776,56.737Z" transform="translate(-36.343 -32.299)" opacity=".1"/></g><path id="Rectangle_714" data-name="Rectangle 714" transform="translate(154.722 213.63)" fill="#a2a6af" d="M0 0H172.125V87.517H0z"/><path id="Rectangle_715" data-name="Rectangle 715" transform="translate(176.133 221.634)" fill="#fff" d="M0 0H123.429V62.757H0z"/><path id="Path_1993" data-name="Path 1993" d="M68.338,188.679V101.162H240.464v-17.5H55.456V188.679Z" transform="translate(86.383 112.468)" fill="#3a4a61"/><path id="Rectangle_716" data-name="Rectangle 716" transform="rotate(-90 171.927 24.201)" fill="#a2a6af" d="M0 0H140.659V11.777H0z"/><path id="Rectangle_717" data-name="Rectangle 717" transform="rotate(-90 252.655 -56.528)" fill="#a2a6af" d="M0 0H140.659V13.225H0z"/><path id="Rectangle_718" data-name="Rectangle 718" transform="rotate(180 40.186 146.821)" fill="#a2a6af" d="M0 0H16.703V223.949H0z"/><path id="Rectangle_719" data-name="Rectangle 719" transform="rotate(180 40.186 146.723)" opacity=".1" d="M0 0H16.703V223.949H0z"/><path id="Path_1994" data-name="Path 1994" d="M11.578,263.7h55.44L75.391,39.75H19.951Z" transform="translate(3.919 29.941)" opacity=".1"/><path id="Path_1995" data-name="Path 1995" d="M9.493,263.7H66.759L75.132,39.75H17.866Z" transform="translate(0 29.941)" fill="#a2a6af"/><path id="Path_1996" data-name="Path 1996" d="M32,166.98H43.117l-12.8-75.766H19.2Z" transform="translate(18.249 126.663)" opacity=".1"/><path id="Path_1997" data-name="Path 1997" d="M28.567,166.98h4.31l-12.8-75.766h-4.31Z" transform="translate(11.782 126.663)" opacity=".1"/><path id="Rectangle_720" data-name="Rectangle 720" transform="translate(388.616 77.198)" fill="#a2a6af" d="M0 0H16.703V223.949H0z"/><path id="Path_1998" data-name="Path 1998" d="M205.341,266.306H149.9L141.528,42.357h55.44Z" transform="translate(248.148 34.84)" opacity=".1"/><path id="Path_1999" data-name="Path 1999" d="M208.616,266.306H151.353L142.98,42.357h57.266Z" transform="translate(250.877 34.84)" fill="#a2a6af"/><path id="Path_2000" data-name="Path 2000" d="M164.006,169.586h11.109l-12.8-75.766H151.2Z" transform="translate(266.327 131.561)" opacity=".1"/><path id="Path_2001" data-name="Path 2001" d="M160.565,169.586h4.31L152.07,93.82h-4.31Z" transform="translate(259.86 131.561)" opacity=".1"/><path id="Rectangle_721" data-name="Rectangle 721" transform="translate(142.516 41.617)" fill="#3a4a61" d="M0 0H184.331V42.399H0z"/><path id="Rectangle_722" data-name="Rectangle 722" transform="translate(391.585 34.795)" fill="#a2a6af" d="M0 0H59.558V42.399H0z"/><path id="Path_2002" data-name="Path 2002" d="M60.3,165.5H12.61L17.142,45.28H64.831Z" transform="translate(5.858 40.334)" fill="#3a4a61"/><path id="Path_2003" data-name="Path 2003" d="M147.045,102.824h45.777l-2.174-57.7H144.871Z" transform="translate(254.431 40.035)" fill="#fff"/><path id="Path_2004" data-name="Path 2004" d="M148.012,128.928h45.777l-2.174-57.7H145.838Z" transform="translate(256.248 89.095)" fill="#fff"/><path id="Path_2005" data-name="Path 2005" d="M198.329,92.357H145.789l-.53-5.592H197.8Z" transform="translate(255.16 118.301)" fill="#3a4a61"/><path id="Path_2006" data-name="Path 2006" d="M197.13,67.31H144.59l-.53-5.592H196.6Z" transform="translate(252.907 71.228)" fill="#3a4a61"/><ellipse id="Ellipse_334" data-name="Ellipse 334" cx="24.495" cy="4.141" rx="24.495" ry="4.141" transform="translate(76.785 303.963)" fill="#039de6"/><path id="Path_2007" data-name="Path 2007" d="M59.66,127.563a7.091,7.091,0,0,0,2.332-3.527,3.146,3.146,0,0,0-1.633-3.588c-1.5-.57-3.1.469-4.313,1.517a5.734,5.734,0,0,1-4.192,2.027,6.4,6.4,0,0,0,1.975-5.978,2.536,2.536,0,0,0-.547-1.218c-.835-.89-2.341-.51-3.337.19a12.447,12.447,0,0,0-4.057,10.4,19.732,19.732,0,0,1-.055-4.264,4.388,4.388,0,0,0-1.612-3.792,4.827,4.827,0,0,0-2.439-.57A5.08,5.08,0,0,0,37.8,119.9a3.926,3.926,0,0,0,.153,4.872,15.506,15.506,0,0,0,4.123,3.3,9.081,9.081,0,0,1,2.94,2.81,2.542,2.542,0,0,1,.219.507h8.929A24.75,24.75,0,0,0,59.66,127.563Z" transform="translate(51.752 173.768)" fill="#039de6"/><ellipse id="Ellipse_335" data-name="Ellipse 335" cx="16.156" cy="2.733" rx="16.156" ry="2.733" transform="translate(337.164 291.483)" fill="#039de6"/><path id="Path_2008" data-name="Path 2008" d="M140.963,121.032a4.691,4.691,0,0,0,1.538-2.327,2.074,2.074,0,0,0-1.077-2.367c-.988-.377-2.044.311-2.845,1a3.8,3.8,0,0,1-2.764,1.339,4.22,4.22,0,0,0,1.3-3.942,1.66,1.66,0,0,0-.36-.8c-.55-.587-1.543-.337-2.2.124a8.207,8.207,0,0,0-2.675,6.862,12.761,12.761,0,0,1-.035-2.813,2.9,2.9,0,0,0-1.062-2.5,3.186,3.186,0,0,0-1.607-.377,3.351,3.351,0,0,0-2.626.746,2.589,2.589,0,0,0,.1,3.213,10.28,10.28,0,0,0,2.721,2.18,6.03,6.03,0,0,1,1.941,1.854,1.623,1.623,0,0,1,.144.334h5.888A16.342,16.342,0,0,0,140.963,121.032Z" transform="translate(219.041 168.718)" fill="#039de6"/></g></svg>