<svg xmlns="http://www.w3.org/2000/svg" width="200" height="118.184" viewBox="0 0 200 118.184"><g id="самолетом-01" transform="translate(-4.283 -.001)"><path id="Path_1346" data-name="Path 1346" d="M163.932,42.386l-8.8,5.57,5.333-9.7a8.687,8.687,0,0,0-5.312-1.9h-.141a9.656,9.656,0,0,1-1.824-.136l-2.98,1.89,1.273-2.321a10.633,10.633,0,0,1-5.209-3.964l-5.327,3.4,3.362-6.124a15.584,15.584,0,0,0-11.938-6.034A16.362,16.362,0,0,0,118.7,31.5a10.231,10.231,0,0,1-9.059,4.869h-.3c-6.121,0-11.081,6.922-11.081,15.5s4.96,15.5,11.081,15.5a8.277,8.277,0,0,0,3.856-.969,16.007,16.007,0,0,1,13.413-.262,13.992,13.992,0,0,0,11.4.028,16.005,16.005,0,0,1,13.287.255,8.328,8.328,0,0,0,3.822.945c6.121,0,11.081-6.922,11.081-15.5a19.694,19.694,0,0,0-2.275-9.483Z" transform="translate(2.055 .504)" fill="#0c9add" opacity=".1"/><path id="Path_1347" data-name="Path 1347" d="M147.372,64.629a16.414,16.414,0,0,0-9.5,1.029,13.949,13.949,0,0,1-11.4,0,15.973,15.973,0,0,0-13.413.262,8.342,8.342,0,0,1-3.862.969c-5.435,0-9.959-5.48-10.9-12.7a10.33,10.33,0,0,0,2.709-2.929,15.291,15.291,0,0,1,27.279-.108,10.472,10.472,0,0,0,9.059,4.965h.141C141.8,56.1,145.549,59.566,147.372,64.629Z" transform="translate(2.056 .936)" fill="#0c9add" opacity=".1"/><path id="Path_1348" data-name="Path 1348" d="M177.088,76.647a46.018,46.018,0,0,1-8.992,1.719c-10.381,1.246-24.607,1.688-24.607,1.688S70.361,86.119,15.552,63.562c0,0-7.971-4.179-.576-9.8a24.083,24.083,0,0,1,3.617-2.207l.09-.09a20.113,20.113,0,0,1,16.186-5.121L178.818,69.622S184.076,74.066,177.088,76.647Z" transform="translate(.165 1.009)" fill="#3a4a61"/><path id="Path_1349" data-name="Path 1349" d="M145.484,66.123l30.135-21.381,13.284,2.3-13,22.611S145.83,69.893,145.484,66.123Z" transform="translate(3.088 .978)" fill="#3a4a61"/><path id="Path_1350" data-name="Path 1350" d="M71.24,53.313l60.025-16.834,9.675,2.022L113.826,50.7l-8.473,9.481Z" transform="translate(1.464 .798)" fill="#3a4a61"/><path id="Path_1351" data-name="Path 1351" d="M168.093,78.2c-10.381,1.246-24.606,1.688-24.606,1.688S70.359,85.954,15.55,63.4c0,0-7.971-4.179-.576-9.8l.025.1S26.824,61.689,83.33,68.362Z" transform="translate(.165 1.172)" fill="#eb1c24"/><path id="Path_1352" data-name="Path 1352" d="M155.311,77.294l26.836,10.957,6.744-.748L172.833,75.439S153.417,71.3,155.311,77.294Z" transform="translate(3.3 1.619)" fill="#3a4a61"/><path id="Path_1353" data-name="Path 1353" d="M24.584,54.963c-1.28.021-4.214-2.127-6.038-3.577a19.182,19.182,0,0,1,2.716-2.094c1.47,1.124,4.087,2.954,5.543,2.884C28.906,52.095,26.512,54.929,24.584,54.963Z" transform="translate(.312 1.078)" fill="#eb1c24"/><path id="Path_1354" data-name="Path 1354" d="M145.454,115.216l-17.23.9L79.781,83.453l-8.992-6.065-4.367-2.947c8.2-6.92,41.631,2.624,41.631,2.624a2.95,2.95,0,0,1,.817,2.43,15.007,15.007,0,0,1-1.265,4.821c-.081.192-.131.294-.131.294Z" transform="translate(1.359 1.573)" fill="#3a4a61"/><path id="Path_1355" data-name="Path 1355" d="M76.879,96.481,73.89,98.373,75.7,95.079a2.954,2.954,0,0,0-1.8-.644h-.048a3.308,3.308,0,0,1-.619-.046l-1.012.642.432-.788A3.611,3.611,0,0,1,70.882,92.9l-1.809,1.154,1.141-2.079a5.291,5.291,0,0,0-4.054-2.049,5.554,5.554,0,0,0-4.64,2.861,3.474,3.474,0,0,1-3.076,1.653h-.1c-2.078,0-3.763,2.35-3.763,5.262s1.684,5.262,3.763,5.262a2.81,2.81,0,0,0,1.309-.329,5.436,5.436,0,0,1,4.554-.089,4.751,4.751,0,0,0,3.872,0,5.433,5.433,0,0,1,4.512.087,2.828,2.828,0,0,0,1.3.321c2.078,0,3.763-2.35,3.763-5.262A6.678,6.678,0,0,0,76.879,96.481Z" transform="translate(1.1 1.966)" fill="#0c9add" opacity=".1"/><path id="Path_1356" data-name="Path 1356" d="M71.256,104.033a5.578,5.578,0,0,0-3.224.349,4.738,4.738,0,0,1-3.87,0,5.421,5.421,0,0,0-4.554.089,2.833,2.833,0,0,1-1.311.329c-1.845,0-3.381-1.861-3.7-4.313a3.513,3.513,0,0,0,.92-.994,5.192,5.192,0,0,1,9.262-.037,3.557,3.557,0,0,0,3.066,1.686h.048C69.364,101.137,70.637,102.315,71.256,104.033Z" transform="translate(1.1 2.113)" fill="#0c9add" opacity=".1"/><path id="Path_1357" data-name="Path 1357" d="M22.374,32.059l-2.424,1.536,1.469-2.672a2.376,2.376,0,0,0-1.463-.525h-.038a3.018,3.018,0,0,1-.5-.038l-.82.519.351-.625a2.93,2.93,0,0,1-1.435-1.092L16.05,30.1l.938-1.686A4.286,4.286,0,0,0,13.7,26.75a4.472,4.472,0,0,0-3.752,2.328A2.815,2.815,0,0,1,7.451,30.42H7.369c-1.686,0-3.052,1.914-3.052,4.272s1.366,4.269,3.052,4.269A2.285,2.285,0,0,0,8.433,38.7a4.4,4.4,0,0,1,3.7-.072,3.849,3.849,0,0,0,3.127,0,4.4,4.4,0,0,1,3.657.072,2.334,2.334,0,0,0,1.05.26c1.686,0,3.052-1.91,3.052-4.269A5.439,5.439,0,0,0,22.374,32.059Z" transform="translate(.001 .585)" fill="#0c9add" opacity=".1"/><path id="Path_1358" data-name="Path 1358" d="M17.811,38.192a4.487,4.487,0,0,0-2.619.284,3.891,3.891,0,0,1-1.564.332,3.831,3.831,0,0,1-1.58-.341,4.413,4.413,0,0,0-3.7.075,2.273,2.273,0,0,1-1.061.266c-1.5,0-2.747-1.511-3.006-3.5a2.953,2.953,0,0,0,.75-.806,4.2,4.2,0,0,1,7.507-.029,2.881,2.881,0,0,0,2.494,1.366h.04A3.154,3.154,0,0,1,17.811,38.192Z" transform="translate(0 .704)" fill="#0c9add" opacity=".1"/><path id="Path_1359" data-name="Path 1359" d="M163.248,104.228l-1.49.944.9-1.642a1.465,1.465,0,0,0-.9-.323h-.023a1.814,1.814,0,0,1-.307-.024l-.5.319.216-.384a1.8,1.8,0,0,1-.882-.67l-.9.576.576-1.036a2.634,2.634,0,0,0-2.022-1.022,2.75,2.75,0,0,0-2.306,1.431,1.729,1.729,0,0,1-1.538.825h-.05c-1.036,0-1.876,1.176-1.876,2.626s.84,2.624,1.876,2.624a1.416,1.416,0,0,0,.654-.164,2.706,2.706,0,0,1,2.273-.044,2.367,2.367,0,0,0,1.922,0,2.707,2.707,0,0,1,2.248.044,1.433,1.433,0,0,0,.646.159c1.036,0,1.876-1.174,1.876-2.624a3.346,3.346,0,0,0-.39-1.613Z" transform="translate(3.233 2.208)" fill="#0c9add" opacity=".1"/><path id="Path_1360" data-name="Path 1360" d="M160.442,108a2.759,2.759,0,0,0-1.609.175,2.4,2.4,0,0,1-.962.2,2.356,2.356,0,0,1-.971-.209,2.71,2.71,0,0,0-2.273.046,1.411,1.411,0,0,1-.652.164c-.92,0-1.688-.929-1.848-2.151a1.809,1.809,0,0,0,.462-.5,2.585,2.585,0,0,1,4.614-.017,1.771,1.771,0,0,0,1.533.84h.025A1.936,1.936,0,0,1,160.442,108Z" transform="translate(3.233 2.281)" fill="#0c9add" opacity=".1"/><path id="Path_1361" data-name="Path 1361" d="M32.911,111.573l-1.49.944.9-1.642a1.464,1.464,0,0,0-.9-.323H31.4a1.814,1.814,0,0,1-.307-.024l-.5.319.216-.384a1.8,1.8,0,0,1-.882-.67l-.9.576.576-1.036a2.634,2.634,0,0,0-2.022-1.022,2.75,2.75,0,0,0-2.306,1.431,1.731,1.731,0,0,1-1.533.825h-.05c-1.036,0-1.876,1.176-1.876,2.626s.84,2.624,1.876,2.624a1.416,1.416,0,0,0,.654-.163,2.706,2.706,0,0,1,2.273-.044,2.367,2.367,0,0,0,1.922,0,2.707,2.707,0,0,1,2.248.044,1.433,1.433,0,0,0,.646.159c1.036,0,1.876-1.174,1.876-2.624A3.338,3.338,0,0,0,32.911,111.573Z" transform="translate(.383 2.368)" fill="#0c9add" opacity=".1"/><path id="Path_1362" data-name="Path 1362" d="M30.106,115.34a2.759,2.759,0,0,0-1.609.175,2.4,2.4,0,0,1-.962.2,2.356,2.356,0,0,1-.971-.209,2.71,2.71,0,0,0-2.273.046,1.408,1.408,0,0,1-.652.164c-.92,0-1.688-.929-1.848-2.151a1.79,1.79,0,0,0,.461-.5,2.585,2.585,0,0,1,4.614-.017,1.771,1.771,0,0,0,1.533.84h.025A1.935,1.935,0,0,1,30.106,115.34Z" transform="translate(.383 2.441)" fill="#0c9add" opacity=".1"/><path id="Path_1363" data-name="Path 1363" d="M100.187,11.453l-5.219,3.3L98.13,9a5.153,5.153,0,0,0-3.149-1.124H94.9A5.719,5.719,0,0,1,93.816,7.8L92.049,8.921,92.8,7.545A6.307,6.307,0,0,1,89.715,5.2L86.557,7.209l1.993-3.631A9.239,9.239,0,0,0,81.471,0a9.7,9.7,0,0,0-8.1,5A6.065,6.065,0,0,1,68,7.884h-.179c-3.63,0-6.57,4.1-6.57,9.188s2.941,9.188,6.57,9.188a4.914,4.914,0,0,0,2.286-.574,9.494,9.494,0,0,1,7.952-.155,8.3,8.3,0,0,0,6.761.016,9.491,9.491,0,0,1,7.878.151,4.944,4.944,0,0,0,2.267.56c3.63,0,6.57-4.1,6.57-9.188a11.68,11.68,0,0,0-1.349-5.622Z" transform="translate(1.246)" fill="#0c9add" opacity=".1"/><path id="Path_1364" data-name="Path 1364" d="M90.369,24.64a9.741,9.741,0,0,0-5.629.61,8.268,8.268,0,0,1-6.758,0,9.467,9.467,0,0,0-7.952.155,4.939,4.939,0,0,1-2.289.574c-3.222,0-5.9-3.25-6.461-7.531a6.122,6.122,0,0,0,1.605-1.736,9.066,9.066,0,0,1,16.173-.064,6.208,6.208,0,0,0,5.371,2.944h.084C87.065,19.582,89.288,21.638,90.369,24.64Z" transform="translate(1.246 .256)" fill="#0c9add" opacity=".1"/><path id="Path_1365" data-name="Path 1365" d="M199.856,38.772l-1.49.944.9-1.642a1.464,1.464,0,0,0-.9-.323h-.023a1.814,1.814,0,0,1-.307-.024l-.5.319.216-.384a1.807,1.807,0,0,1-.883-.671l-.9.576.576-1.036a2.634,2.634,0,0,0-2.022-1.022,2.747,2.747,0,0,0-2.307,1.431,1.731,1.731,0,0,1-1.533.825h-.05c-1.036,0-1.876,1.176-1.876,2.626s.84,2.624,1.876,2.624a1.412,1.412,0,0,0,.653-.163,2.706,2.706,0,0,1,2.273-.044,2.367,2.367,0,0,0,1.922,0,2.707,2.707,0,0,1,2.248.044,1.433,1.433,0,0,0,.646.159c1.036,0,1.876-1.174,1.876-2.624A3.354,3.354,0,0,0,199.856,38.772Z" transform="translate(4.034 .776)" fill="#0c9add" opacity=".1"/><path id="Path_1366" data-name="Path 1366" d="M197.051,42.54a2.759,2.759,0,0,0-1.609.175,2.4,2.4,0,0,1-.962.2,2.347,2.347,0,0,1-.962-.209,2.709,2.709,0,0,0-2.273.046,1.408,1.408,0,0,1-.652.163c-.92,0-1.688-.929-1.848-2.151a1.79,1.79,0,0,0,.461-.5,2.585,2.585,0,0,1,4.614-.017,1.771,1.771,0,0,0,1.533.84h.025A1.935,1.935,0,0,1,197.051,42.54Z" transform="translate(4.034 .849)" fill="#0c9add" opacity=".1"/></g></svg>