<svg xmlns="http://www.w3.org/2000/svg" width="450" height="288.426" viewBox="0 0 450 288.426"><g data-name="строительство стендов-01 (1)" transform="translate(-9.492 -23.818)"><g data-name="Group 424" transform="translate(246.5 23.819)" opacity=".1" fill="#0c9add"><path data-name="Path 1963" d="M-.004 0v243.063h80.373V0zm75.962 233.589H4.411v-71.55h71.55zm0-77.972H4.411v-71.55h71.55zm0-77.972H4.411V6.096h71.55z"/><path data-name="Path 1964" d="M85.924 0v243.063h80.373V0zm75.962 233.589h-71.55v-71.55h71.55zm0-77.972h-71.55v-71.55h71.55zm0-77.972h-71.55V6.096h71.55z"/><circle data-name="Ellipse 332" cx="18.477" cy="18.477" r="18.477" transform="rotate(-45 121.415 -91.099)"/><path data-name="Path 1965" d="M63.085 137.141a18.477 18.477 0 01-36.954 0z"/><path data-name="Path 1966" d="M63.085 123.328a18.477 18.477 0 01-36.954 0z"/><path data-name="Rectangle 709" d="M153.292 233.589H95.194v-61.236h58.098z"/></g><g data-name="Group 425" transform="translate(56.669 23.819)" opacity=".1" fill="#0c9add"><path data-name="Path 1967" d="M0 0v243.063h80.373V0zm75.962 233.589H4.411v-71.55h71.55zm0-77.972H4.411v-71.55h71.55zm0-77.972H4.411V6.096h71.55z"/><path data-name="Path 1968" d="M85.927 0v243.063H166.3V0zm75.962 233.589H90.338v-71.55h71.55zm0-77.972H90.338v-71.55h71.55zm0-77.972H90.338V6.096h71.55z"/><circle data-name="Ellipse 333" cx="18.477" cy="18.477" r="18.477" transform="rotate(-45 121.414 -91.104)"/><path data-name="Path 1969" d="M63.085 137.141a18.477 18.477 0 11-36.954 0z"/><path data-name="Path 1970" d="M63.085 123.328a18.477 18.477 0 11-36.954 0z"/><path data-name="Rectangle 710" d="M153.293 233.589H95.195v-61.236h58.098z"/></g><path data-name="Rectangle 711" fill="#fff" d="M262.478 195.979h82.207v2.027h-82.207z"/><path data-name="Rectangle 712" fill="#fff" d="M262.478 200.908h40.66v2.027h-40.66z"/><path data-name="Rectangle 713" fill="#fff" d="M262.478 205.835h53.571v2.027h-53.571z"/><g data-name="Group 426"><path data-name="Path 1971" d="M197.66 180.563a12.852 12.852 0 001.048 2.255c.708 1.054 1.3 2.543 1.042 2.583-.973.15-1.935-1.785-2.951-2.139-2.975-1.035.861-2.699.861-2.699z" fill="#fbbebe"/><path data-name="Path 1972" d="M192.773 180.181a11.483 11.483 0 01-3.251 2.139c-2.453 1.166-5.62 1.569-5.967 2.424s.4.792.4.792 8.73.3 8.958-.075 3.651-1.987 4.437-4.169c.517-1.428-4.577-1.111-4.577-1.111z" fill="#fbbebe"/><path data-name="Path 1973" d="M264.304 181.712a7.479 7.479 0 00.383 2.35c.622 1.209 1.7 2.206 1.9 2.033.734-.657-.524-1.621-.153-2.629 1.083-2.955-2.13-1.754-2.13-1.754z" fill="#fbbebe"/><path data-name="Path 1974" d="M268.251 179.708s.893 1.762 4.285 2.612c2.635.659 4.538 2.013 4.881 2.868s-1.69.461-1.69.461-6.358.184-6.585-.187-3.939-2.191-4.722-4.374c-.517-1.429 3.831-1.38 3.831-1.38z" fill="#fbbebe"/><path data-name="Path 1975" d="M204.836 290.266s-4.823 6.51-4.166 7.53 5.681 1.166 8.739 0 3.13-8.7 4.515-11.944c.579-1.356-.659-5.359-2.4-5.649a7.351 7.351 0 00-3.64.561s1.849 4.486-3.048 9.502z" fill="#494f80"/><path data-name="Path 1976" d="M207.85 280.712a50.484 50.484 0 00-1.063 5.212c-.305 2.168-3.714 6.919-3.568 7.5s4.077 1.111 5.681-.392 2.629-5.871 2.986-8.483a20.834 20.834 0 01.743-3.634s-3.25-1.804-4.779-.203z" fill="#494f80"/><path data-name="Path 1977" d="M213.922 285.852v6.735h-.872v-5.206z" fill="#494f80"/><path data-name="Path 1978" d="M256.61 290.45s4.607 6.326 3.951 7.345-5.681 1.166-8.739 0-3.133-8.7-4.515-11.944c-.579-1.356.659-5.359 2.4-5.649a7.818 7.818 0 013.786.625s-1.78 4.607 3.117 9.623z" fill="#494f80"/><path data-name="Path 1979" d="M253.497 280.827a42.717 42.717 0 00.947 5.1c.582 2.111 3.714 6.919 3.568 7.5s-4.077 1.111-5.681-.392-2.839-5.851-2.986-8.483a13.98 13.98 0 01.363-4.348 3.565 3.565 0 013.789.623z" fill="#494f80"/><path data-name="Path 1980" d="M247.307 285.852v6.735h.872v-5.206z" fill="#494f80"/><path data-name="Path 1981" d="M225.864 175.976s-3.484 19.2-4.426 24-3.579 28.063-3.857 32.02-4.279 18.857-4.089 20.271-5.926 29.788-5.926 29.788a3.673 3.673 0 004.287.153c1.132-.786 10.4-24.328 12.177-31.164 1.731-6.672 5.246-10.412 9.174-25.794.587-2.3 5.566-27.795 6.7-29.114s2.825.754 3.484 3.674 2.07 28.158 2.917 31.36.19 14.031.659 19.494 2.479 30.032 2.479 30.032a2.745 2.745 0 004.02.225c.521-.487 3.766-27.544 3.858-34.043s.2-15.46.377-18.27c1.745-26.925 5.039-30.45-.72-49.828-14.097-47.423-31.114-2.804-31.114-2.804z" fill="#2b223d"/><path data-name="Path 1982" d="M222.707 139.353l-.026.046c-.513.93-9.827 18.725-10.484 19.787-.864 1.4-2.165 6.217-6.729 11.495l-8.134 10.3-4.561-.8 8.755-15.149c4.109-8.183 2.246-4.115 6.672-12.871 1.345-2.663 8.307-20.409 9.75-21.915a37.466 37.466 0 015.264-3.861 56.739 56.739 0 018.589-4.607c.645-.265 1.276-.5 1.88-.688l.026-.009c5.963-1.883 9.355-.063 9.355-.063a65.021 65.021 0 0011.091 3.487c.132.023.265.046.394.066a2.344 2.344 0 01.921.449c5.013 3.579 12.045 27.651 12.183 30.257.461 8.719.052 3.622.6 24.734.035 1.316-4.12 2.174-3.956 1.7.147-.42-3.032-23.441-3.576-25.667a141.847 141.847 0 00-5.252-16.416 28.032 28.032 0 00-3.225 10.262c-.521 4.037-1.106 7.069-.593 12.07.426 4.161 1.325 7.026 2.609 8.88l-28.4 5.131a36.618 36.618 0 00.567-3.856c.688-6.067 1.984-18.543.035-21.086-1.572-2.047-2.678-3.15-3.11-5.514a27.868 27.868 0 01-.547-5.837z" fill="#fbbebe"/><path data-name="Path 1983" d="M245.849 122.082s-5.914 14.126-9.424 16.669c0 0-4.613-14.924-4.29-17.107-.003 0 6.999-3.107 13.714.438z" fill="#eea886"/><path data-name="Path 1984" d="M244.808 108.981s6.525 14.077 2.016 14.446-8.584-10.17-8.584-10.17z" fill="#323657"/><path data-name="Path 1985" d="M242.783 113.829s-.515 6.4.717 8.313-1.054 4.518-5.762 3.628-4.434-3.559-4.434-3.559a19.514 19.514 0 00.933-7.106c-.386-3.162 8.546-1.276 8.546-1.276z" fill="#fbbebe"/><path data-name="Path 1986" d="M230.349 102.822s-.849-1.022-1.169.009.723 4.086.835 4.529c0 0 .515 1.716.72 1.5s-.386-6.038-.386-6.038z" fill="#fbbebe"/><path data-name="Path 1987" d="M245.202 102.949s.849-1.022 1.169.009-.723 4.086-.835 4.529c0 0-.515 1.716-.72 1.5s.386-6.038.386-6.038z" fill="#fbbebe"/><path data-name="Path 1988" d="M239.109 93.039s7.806 1.2 6.663 13.5-8.034 11.322-8.494 11.31-6.911.256-7.469-14.748c-.001.003-.26-11.091 9.3-10.062z" fill="#fbbebe"/><path data-name="Path 1989" d="M231.306 102.37s8.664 2.577 12.813 1.754c0 0 .757 1.647 1.353 1.739s.409-3.041.409-3.041.2-10-8.843-10.1-7.207 10.832-7.207 10.832l.124 1.869s1.293.514 1.351-3.053z" fill="#323657"/><path data-name="Path 1990" d="M260.223 198.104c-.3 16.49 2.243 23.64 2.243 23.64s-8.4 4.215-26.508 3.308c-8.146-.409-15.549-4.575-19.635-3.012 0 0 .593-4.169 2.352-13.81 2.128-11.673 2-9.332 2.427-13.121.671-5.886 3.069-17.988 5.134-23.375.688-6.067 1.287-18.9-.662-21.446-1.569-2.047-2.905-3.824-3.058-6.268a33.812 33.812 0 01.184-4.38v-.006a1.03 1.03 0 01-.012-.23 130.123 130.123 0 001.512-13.636c1.425-1.7 5-2.995 7.613-3.994 1.016-.389 1.742-.639 1.88-.688l.026-.009c3.242 1.117 9.355-.063 9.355-.063a47.733 47.733 0 019.108 2.773 11.742 11.742 0 001.224.412 9.294 9.294 0 011.014.343c-1.356 5.284 1.4 15.946 1.4 15.946a26.012 26.012 0 00-3.231 9.324 43.46 43.46 0 00-.694 10.939 26.066 26.066 0 002.7 10.539c-.006.001 5.98 7.35 5.628 26.814z" fill="#eb1c24"/><path data-name="Path 1991" d="M231.807 121.774s-1.051 12.9 2.165 14.616 10.568.573 13.027-14.435c0 0-3.219-.936-4.437-1.322a16.109 16.109 0 00-10.755 1.141z" fill="#fbbebe"/><path data-name="Path 1992" d="M234.902 117.164a6.126 6.126 0 006.922-.766s-1.345 2.4-3.579 2.424a4.113 4.113 0 01-3.343-1.658z" opacity=".1"/></g><path data-name="Rectangle 714" fill="#a2a6af" d="M154.722 213.63h172.125v87.517H154.722z"/><path data-name="Rectangle 715" fill="#fff" d="M176.133 221.634h123.429v62.757H176.133z"/><path data-name="Path 1993" d="M154.721 301.147V213.63h172.126v-17.5H141.839v105.017z" fill="#3a4a61"/><path data-name="Rectangle 716" fill="#a2a6af" d="M147.726 196.128V55.469h11.777v140.659z"/><path data-name="Rectangle 717" fill="#a2a6af" d="M309.183 196.128V55.469h13.225v140.659z"/><path data-name="Rectangle 718" fill="#a2a6af" d="M80.373 293.642H63.67V69.693h16.703z"/><path data-name="Rectangle 719" opacity=".1" d="M80.373 293.446H63.67V69.497h16.703z"/><path data-name="Path 1994" d="M15.497 293.641h55.44l8.373-223.95H23.87z" opacity=".1"/><path data-name="Path 1995" d="M9.493 293.641h57.266l8.373-223.95H17.866z" fill="#a2a6af"/><path data-name="Path 1996" d="M50.249 293.643h11.117l-12.8-75.766H37.449z" opacity=".1"/><path data-name="Path 1997" d="M40.349 293.643h4.31l-12.8-75.766h-4.31z" opacity=".1"/><path data-name="Rectangle 720" fill="#a2a6af" d="M388.616 77.198h16.703v223.949h-16.703z"/><path data-name="Path 1998" d="M453.489 301.146h-55.441l-8.372-223.949h55.44z" opacity=".1"/><path data-name="Path 1999" d="M459.493 301.146H402.23l-8.373-223.949h57.266z" fill="#a2a6af"/><path data-name="Path 2000" d="M430.333 301.147h11.109l-12.8-75.766h-11.115z" opacity=".1"/><path data-name="Path 2001" d="M420.425 301.147h4.31l-12.805-75.766h-4.31z" opacity=".1"/><path data-name="Rectangle 721" fill="#3a4a61" d="M142.516 41.617h184.331v42.399H142.516z"/><path data-name="Rectangle 722" fill="#a2a6af" d="M391.585 34.795h59.558v42.399h-59.558z"/><path data-name="Path 2002" d="M66.158 205.834h-47.69L23 85.614h47.689z" fill="#3a4a61"/><path data-name="Path 2003" d="M401.476 142.859h45.777l-2.174-57.7h-45.777z" fill="#fff"/><path data-name="Path 2004" d="M404.26 218.023h45.777l-2.174-57.7h-45.777z" fill="#fff"/><path data-name="Path 2005" d="M453.489 210.658h-52.54l-.53-5.592h52.541z" fill="#3a4a61"/><path data-name="Path 2006" d="M450.037 138.538h-52.54l-.53-5.592h52.54z" fill="#3a4a61"/><ellipse data-name="Ellipse 334" cx="24.495" cy="4.141" rx="24.495" ry="4.141" transform="translate(76.785 303.963)" fill="#039de6"/><path data-name="Path 2007" d="M111.412 301.331a7.091 7.091 0 002.332-3.527 3.146 3.146 0 00-1.633-3.588c-1.5-.57-3.1.469-4.313 1.517a5.734 5.734 0 01-4.192 2.027 6.4 6.4 0 001.975-5.978 2.536 2.536 0 00-.547-1.218c-.835-.89-2.341-.51-3.337.19a12.447 12.447 0 00-4.057 10.4 19.732 19.732 0 01-.055-4.264 4.388 4.388 0 00-1.612-3.792 4.827 4.827 0 00-2.439-.57 5.08 5.08 0 00-3.982 1.14 3.926 3.926 0 00.153 4.872 15.506 15.506 0 004.123 3.3 9.081 9.081 0 012.94 2.81 2.542 2.542 0 01.219.507h8.929a24.75 24.75 0 005.496-3.826z" fill="#039de6"/><ellipse data-name="Ellipse 335" cx="16.156" cy="2.733" rx="16.156" ry="2.733" transform="translate(337.164 291.483)" fill="#039de6"/><path data-name="Path 2008" d="M360.004 289.75a4.691 4.691 0 001.538-2.327 2.074 2.074 0 00-1.077-2.367c-.988-.377-2.044.311-2.845 1a3.8 3.8 0 01-2.764 1.339 4.22 4.22 0 001.3-3.942 1.66 1.66 0 00-.36-.8c-.55-.587-1.543-.337-2.2.124a8.207 8.207 0 00-2.675 6.862 12.761 12.761 0 01-.035-2.813 2.9 2.9 0 00-1.062-2.5 3.186 3.186 0 00-1.607-.377 3.351 3.351 0 00-2.626.746 2.589 2.589 0 00.1 3.213 10.28 10.28 0 002.721 2.18 6.03 6.03 0 011.941 1.854 1.623 1.623 0 01.144.334h5.888a16.342 16.342 0 003.619-2.526z" fill="#039de6"/></g></svg>