<svg id="undraw_special_event_4aj8" xmlns="http://www.w3.org/2000/svg" width="180" height="139.338" viewBox="0 0 180 139.338"><path id="Path_447" data-name="Path 447" d="M180.815,107.336a66.358,66.358,0,0,1-21.767-3.654c-9.386-3.245-17.074-7.721-22.853-13.3-10.931-10.56-19.892-12.151-25.484-11.627a17.92,17.92,0,0,0-9.611,3.7l-.241-.268a18.281,18.281,0,0,1,9.8-3.787,24.193,24.193,0,0,1,11.234,1.776,45.8,45.8,0,0,1,14.557,9.949c5.74,5.546,13.385,9.994,22.72,13.222A68.25,68.25,0,0,0,212.158,99.4a59.745,59.745,0,0,1,16.087-5.661,38.187,38.187,0,0,1,18.478.84c12.54,3.9,21.106,3.694,26.083,2.834,5.37-.928,7.807-2.786,7.831-2.8l.222.285c-.1.078-2.533,1.932-7.991,2.875-5.017.867-13.643,1.077-26.252-2.845-12.766-3.971-25.7.417-34.294,4.8a69.217,69.217,0,0,1-26.26,7.408Q183.429,107.336,180.815,107.336Z" transform="translate(-100.859 -75.652)" fill="#3f3d56"/><circle id="Ellipse_33" data-name="Ellipse 33" cx="3.654" cy="3.654" r="3.654" transform="translate(75.574 28.85)" fill="#eb1c24"/><circle id="Ellipse_34" data-name="Ellipse 34" cx="3.654" cy="3.654" r="3.654" transform="translate(132.191 14.244)" fill="#eb1c24"/><circle id="Ellipse_35" data-name="Ellipse 35" cx="3.654" cy="3.654" r="3.654" transform="translate(14.449)" fill="#eb1c24"/><path id="Path_448" data-name="Path 448" d="M685.6,387.579v35.31h5.552v-32.2h22.207v32.2h5.552V352.269h-5.552c-1.84,0-4.664,9.581-4.664,19.209,0,7.257.848,13.476,2.053,16.1Zm27.759,0h-.054c.018-.04.036-.081.054-.122Z" transform="translate(-580.168 -300.221)" fill="#3f3d56"/><path id="Path_449" data-name="Path 449" d="M762.193,255.342h0c-4.557,0-8.251,4.1-8.251,9.157v6.425h1.976l1.144-2.381-.286,2.381h12.7l1.04-2.164-.26,2.164h1.43v-5.045C771.688,260.06,767.437,255.342,762.193,255.342Z" transform="translate(-636.184 -220.771)" fill="#2f2e41"/><path id="Path_450" data-name="Path 450" d="M621.036,488.168l-5.066,2.153-17.605,14.312a5.182,5.182,0,0,0-1.14,2.786c-.127,1.647-5.446,10.259-3.546,11.4s8.739,4.56,9.119,2.28,2.406-12.032,2.406-12.032l16.972-15.2Z" transform="translate(-504.482 -411.617)" fill="#2f2e41"/><path id="Path_451" data-name="Path 451" d="M578.631,657.963l-2.153,6.333s2.28,2.406,1.14,4.433v6.966h-1.773l-.507-3.673s-2.02,3.627-3.04,3.673c-2.138.1-6.373.858-6.5-.282s3.207-2.251,3.207-2.251l3.546-9.753,1.52-5.953Z" transform="translate(-481.962 -550.38)" fill="#2f2e41"/><path id="Path_452" data-name="Path 452" d="M678.874,451.4s1.14,11.146-2.153,13.172-17.859,8.486-17.859,8.486,6.206,5.826,4.94,7.219-6.966,5.193-7.726,4.433-9.246-9.879-8.233-12.792S662.915,459.5,662.915,459.5l1.647-5.953.507-4.813,5.32-3.42Z" transform="translate(-549.147 -376.493)" fill="#2f2e41"/><circle id="Ellipse_36" data-name="Ellipse 36" cx="5.28" cy="5.28" r="5.28" transform="translate(118.644 38.394)" fill="#ffb9b9"/><path id="Path_453" data-name="Path 453" d="M783.2,317.825s-.253,4.813,3.673,6.333-9.753,11.4-9.753,11.4V324.538s1.773-1.9,0-4.813Z" transform="translate(-655.186 -271.988)" fill="#ffb9b9"/><path id="Path_454" data-name="Path 454" d="M825.234,443.211l-1.013,4.94-3.04,16.972s2.533,7.219-.887,7.093-1.773-7.853-1.773-7.853l1.773-14.059v-5.446Z" transform="translate(-688.795 -374.766)" fill="#ffb9b9"/><path id="Path_455" data-name="Path 455" d="M699.842,429.865,698.7,434.3l-5.193,12.539s-3.546,5.953-.633,5.826,2.913-5.826,2.913-5.826l5.953-10.133V431Z" transform="translate(-585.187 -363.826)" fill="#ffb9b9"/><path id="Path_456" data-name="Path 456" d="M713.389,634.978l4.18,3.926s2.913-.633,4.053,2.786,1.9,5.573,1.9,5.573l-1.52.887-1.9-2.66s-1.14,4.813-2.28,5.193-6.839,2.913-6.333,0l2.786-4.053s.38-4.56-.76-4.94-4.18-4.18-4.18-4.18Z" transform="translate(-599.622 -531.955)" fill="#2f2e41"/><path id="Path_457" data-name="Path 457" d="M755.747,473.56s-11.906-4.306-12.666-3.926a5.713,5.713,0,0,1-1.784.463l.011-1.73s3.926-1.393,6.08-.507,8.739,4.813,8.739,4.813Z" transform="translate(-625.82 -394.728)" fill="#3f3d56"/><path id="Path_458" data-name="Path 458" d="M748.473,358.634s3.42-3.926,4.433-6.333a6.218,6.218,0,0,1,3.287-3.232s7.605,1.713,7.479,4.752-4.813,7.726-4.813,7.726.633,16.845-2.787,16.592a7.336,7.336,0,0,1-1.52-3.04c-.38-1.773-12.159-3.673-12.159-3.673s-1.013,1.773-1.14,1.013,1.013-19.379,1.013-19.379l6.04-3.992Z" transform="translate(-625.776 -297.599)" fill="#d0cde1"/><path id="Path_459" data-name="Path 459" d="M832.074,367.623l.085.048a1.747,1.747,0,0,1,.892,1.524v9.4a1.761,1.761,0,0,0,.627,1.34c.488.415.94,1.013.007,1.324-1.52.507-7.473,3.04-7.6,2.153s-.38-1.9,0-1.9c.3,0,2.07-9.082,3.494-12.966a1.748,1.748,0,0,1,2.5-.924Z" transform="translate(-695.154 -312.624)" fill="#d0cde1"/><path id="Path_460" data-name="Path 460" d="M730.967,368.752l-1.773.507L727.167,378s-2.406.507-1.646,1.393a38.681,38.681,0,0,0,3.926,3.167Z" transform="translate(-612.766 -313.733)" fill="#d0cde1"/><path id="Path_461" data-name="Path 461" d="M770.745,261.411a4.327,4.327,0,0,0-3.414-1.742h-.162c-3.123,0-5.656,2.826-5.656,6.313h1.047l.169-1.287.248,1.287h6.207l.52-1.088-.13,1.088h1.221q.855,4.245-2.456,8.49h2.08l1.04-2.177-.26,2.177h3.965l.78-5.007A8.462,8.462,0,0,0,770.745,261.411Z" transform="translate(-642.39 -224.318)" fill="#2f2e41"/><path id="Path_462" data-name="Path 462" d="M183.365,415.863c1.332-2.9,2.27-9.778,2.27-17.8,0-10.645-3.122-21.239-5.156-21.239H174.34V454.9h6.138V419.3h24.554v35.6h6.138v-39.04Zm-2.887-.135c.02.045.04.091.06.135h-.06Z" transform="translate(-161.091 -320.348)" fill="#3f3d56"/><path id="Path_463" data-name="Path 463" d="M354,514.342s7.393,3.065,5.049,4.868-7.212-2.164-7.032-2.7-.721-1.8-.721-1.8Z" transform="translate(-306.136 -433.071)" fill="#9f616a"/><path id="Path_464" data-name="Path 464" d="M326.194,380.342l2.344,2.164.541,6.311,1.8,6.671s3.065,6.311,2.524,7.573a1.094,1.094,0,0,0,.541,1.623l-4.147,1.623s-4.508-5.049-4.508-6.131S326.194,380.342,326.194,380.342Z" transform="translate(-284.824 -323.233)" fill="#575a88"/><path id="Path_465" data-name="Path 465" d="M326.194,380.342l2.344,2.164.541,6.311,1.8,6.671s3.065,6.311,2.524,7.573a1.094,1.094,0,0,0,.541,1.623l-4.147,1.623s-4.508-5.049-4.508-6.131S326.194,380.342,326.194,380.342Z" transform="translate(-284.824 -323.233)" opacity=".1"/><path id="Path_466" data-name="Path 466" d="M448.344,732.965s-.9,4.147-1.082,4.508,3.426,1.623,3.426,1.623l4.327-3.065a32.2,32.2,0,0,1-1.8-4.688Z" transform="translate(-384.797 -610.944)" fill="#575a88"/><path id="Path_467" data-name="Path 467" d="M264.815,516.342l1.262,1.442s26.145,3.246,26.686,8.294,4.327,28.849,2.164,29.571-7.753,3.426-7.753,1.983-3.606-21.277-2.885-24.883c0,0-31.194-3.967-31.915-8.475s.721-6.491.721-6.491Z" transform="translate(-224.889 -434.711)" fill="#2f2e41"/><path id="Path_468" data-name="Path 468" d="M264.815,516.342l1.262,1.442s26.145,3.246,26.686,8.294,4.327,28.849,2.164,29.571-7.753,3.426-7.753,1.983-3.606-21.277-2.885-24.883c0,0-31.194-3.967-31.915-8.475s.721-6.491.721-6.491Z" transform="translate(-224.889 -434.711)" opacity=".1"/><path id="Path_469" data-name="Path 469" d="M442.241,752.167s-.721-1.623-1.082-1.082-1.623,6.852-.361,6.852,12.8,2.885,14.425,2.524,4.688.18,4.327-1.623a2.531,2.531,0,0,0-2.164-1.983s-6.672-3.967-7.032-5.95-2.344-.9-2.344-.9v1.262S444.225,754.15,442.241,752.167Z" transform="translate(-379.054 -625.999)" fill="#2f2e41"/><path id="Path_470" data-name="Path 470" d="M251.6,298.934s1.262,6.13-1.443,6.671,3.426,4.147,3.426,4.147l3.967,2.164,2.885-2.885s-2.615-5.319-.631-9.286S251.6,298.934,251.6,298.934Z" transform="translate(-222.674 -255.528)" fill="#9f616a"/><path id="Path_471" data-name="Path 471" d="M260.437,309.031l-2.885,2.885-3.967-2.164s-6.131-3.606-3.426-4.147c1.74-.348,1.837-3.009,1.688-4.863a16.757,16.757,0,0,0-.245-1.808s10.187-3.155,8.2.811a6.919,6.919,0,0,0-.62,1.94A13.916,13.916,0,0,0,260.437,309.031Z" transform="translate(-222.674 -255.528)" fill="#9f616a"/><path id="Path_472" data-name="Path 472" d="M265.433,697.531v4.147h6.852l.541-1.623-.721-4.328Z" transform="translate(-217.573 -570.281)" fill="#575a88"/><path id="Path_473" data-name="Path 473" d="M209.292,526.506s0,10.638,4.327,11,19.834,2.344,19.834,2.344.9,17.67,2.524,23.44.18,6.13,1.623,6.491,7.573-.9,7.393-2.164-.9-33.177-.9-33.177,1.623-6.852-20.014-10.1Z" transform="translate(-189.74 -441.268)" fill="#2f2e41"/><path id="Path_474" data-name="Path 474" d="M358.393,772.064s-1.082-2.344-1.262-1.623-2.344,7.032-.18,7.573,9.016,3.426,13.523,3.246a33.554,33.554,0,0,0,5.049-.361s1.262-1.8-.361-2.885a77.862,77.862,0,0,1-8.655-8.114c-.361-.721-3.065-1.262-3.065,0S359.655,773.686,358.393,772.064Z" transform="translate(-309.991 -641.929)" fill="#2f2e41"/><path id="Path_475" data-name="Path 475" d="M269.5,299.745a6.921,6.921,0,0,0-.62,1.94,4.218,4.218,0,0,1-2.625.4c-1.671,0-2.346-2.137-3.426-3.246-.085-1.03-1.533.09-1.533.09S271.479,295.778,269.5,299.745Z" transform="translate(-232.364 -255.528)" opacity=".1"/><circle id="Ellipse_37" data-name="Ellipse 37" cx="5.95" cy="5.95" r="5.95" transform="translate(27.485 34.57)" fill="#9f616a"/><path id="Path_476" data-name="Path 476" d="M223.306,348.723s-.9,6.491-1.442,8.835-1.262,13.163-1.623,14.605-2.524,1.8-6.852,1.262a8.142,8.142,0,0,0-.819-.061c-2.665-.085-5.714.912-8.536,1.695a21.457,21.457,0,0,1-4.529.891c-2.056.094-2.658-2.185-2.587-4.652a12.863,12.863,0,0,1,1.325-5.626c1.094-1.565.018-15.617.422-20.251v0a3.357,3.357,0,0,1,.3-1.385c1.082-1.443,8.114-5.049,8.9-4.9s7.506,4.362,7.506,4.362c1.623,0,1.57-1.76,1.57-1.76a5.79,5.79,0,0,0,3.3,2.661C222.4,344.937,223.306,348.723,223.306,348.723Z" transform="translate(-179.593 -289.45)" fill="#575a88"/><path id="Path_477" data-name="Path 477" d="M268.886,521.984s11.615.37,9.58,1.75-11.05,2.642-11.231.839A2.726,2.726,0,0,1,268.886,521.984Z" transform="translate(-237.226 -439.335)" fill="#9f616a"/><path id="Path_478" data-name="Path 478" d="M212.595,401.409c.038.692-1.825,2.252-2.427,3.307-.334.584-2.916-.186-6.109-1.612a62.628,62.628,0,0,1-7.117-3.761,12.863,12.863,0,0,1,1.325-5.626c1.095-1.565.018-15.617.422-20.251v0a2,2,0,0,1,.3-.123h2.164c7.393,3.426-1.082,18.211-1.082,18.211s11.179,9.2,12.261,9.556A.324.324,0,0,1,212.595,401.409Z" transform="translate(-179.617 -317.495)" opacity=".1"/><path id="Path_479" data-name="Path 479" d="M173.827,367.342h-2.164s-1.983.541-3.606,4.147-7.573,14.785-2.344,19.113,16.408,9.376,17.129,8.114,3.246-3.246,2.164-3.606-12.261-9.556-12.261-9.556S181.219,370.768,173.827,367.342Z" transform="translate(-152.292 -312.577)" fill="#575a88"/><path id="Path_480" data-name="Path 480" d="M246.409,245.111s.261-3.615,3.482-2.141,3.011-2.589,2.038-3.307-.943-.9-4.5-.415-10.473,1.294-8.238,8.453,4.259,5.317,4.259,5.317-1.777-6.442.024-5.215l1.8,1.227.95-.2Z" transform="translate(-213.889 -207.36)" fill="#2f2e41"/><path id="Path_481" data-name="Path 481" d="M527.253,534.871c0-3.255-24.185-5.893-54.018-5.893s-54.018,2.638-54.018,5.893c0,1.261,3.635,2.43,9.822,3.389v40.317h2.946v-39.9c9.909,1.277,24.71,2.089,41.25,2.089,16.677,0,31.587-.825,41.5-2.12v39.933h2.946V538.22C523.714,537.269,527.253,536.115,527.253,534.871Z" transform="translate(-361.813 -445.068)" fill="#3f3d56"/><ellipse id="Ellipse_38" data-name="Ellipse 38" cx="10.999" cy="2.705" rx="10.999" ry="2.705" transform="translate(107.191 84.516)" fill="#f2f2f2"/><ellipse id="Ellipse_39" data-name="Ellipse 39" cx="9.015" cy="2.217" rx="9.015" ry="2.217" transform="translate(109.174 85.004)" fill="#d0cde1"/><ellipse id="Ellipse_40" data-name="Ellipse 40" cx="10.999" cy="2.705" rx="10.999" ry="2.705" transform="translate(66.261 86.68)" fill="#f2f2f2"/><ellipse id="Ellipse_41" data-name="Ellipse 41" cx="9.015" cy="2.217" rx="9.015" ry="2.217" transform="translate(68.244 87.168)" fill="#d0cde1"/><ellipse id="Ellipse_42" data-name="Ellipse 42" cx="5.243" cy=".828" rx="5.243" ry=".828" transform="translate(112.69 85.374)" fill="#9f616a"/><ellipse id="Ellipse_43" data-name="Ellipse 43" cx="1.656" cy=".897" rx="1.656" ry=".897" transform="translate(113.484 84.098)" fill="#eb1c24"/><ellipse id="Ellipse_44" data-name="Ellipse 44" cx="1.656" cy=".897" rx="1.656" ry=".897" transform="translate(112.863 84.098)" fill="#eb1c24"/><ellipse id="Ellipse_45" data-name="Ellipse 45" cx="1.656" cy=".897" rx="1.656" ry=".897" transform="translate(120.107 84.305)" fill="#eb1c24"/><ellipse id="Ellipse_46" data-name="Ellipse 46" cx="1.656" cy=".897" rx="1.656" ry=".897" transform="translate(116.313 84.098)" fill="#eb1c24"/><ellipse id="Ellipse_47" data-name="Ellipse 47" cx="1.656" cy=".897" rx="1.656" ry=".897" transform="translate(119.141 84.098)" fill="#eb1c24"/><path id="Path_482" data-name="Path 482" d="M736.869,512.457a16.985,16.985,0,0,1-10.073,0v-.14a4.115,4.115,0,0,1,3.907-4.112,25.838,25.838,0,0,1,2.664,0,3.718,3.718,0,0,1,3.5,3.721Z" transform="translate(-613.933 -428.014)" fill="#3f3d56"/><path id="Path_483" data-name="Path 483" d="M735.557,543.42a33.094,33.094,0,0,1-6.652,0,2.125,2.125,0,0,1-1.918-2.112h10.487A2.125,2.125,0,0,1,735.557,543.42Z" transform="translate(-614.09 -455.175)" fill="#3f3d56"/><path id="Path_484" data-name="Path 484" d="M740.176,514.79a1.973,1.973,0,0,1-1.518,0,1.973,1.973,0,0,1,1.518,0Z" transform="translate(-623.656 -433.314)" fill="#d0cde1"/><path id="Path_485" data-name="Path 485" d="M748.594,518.234a1.974,1.974,0,0,1-1.518,0,1.974,1.974,0,0,1,1.518,0Z" transform="translate(-630.557 -436.137)" fill="#d0cde1"/><path id="Path_486" data-name="Path 486" d="M749.36,512.112a1.973,1.973,0,0,1-1.518,0A1.973,1.973,0,0,1,749.36,512.112Z" transform="translate(-631.185 -431.119)" fill="#d0cde1"/><path id="Path_487" data-name="Path 487" d="M765.048,512.112a1.974,1.974,0,0,1-1.518,0A1.974,1.974,0,0,1,765.048,512.112Z" transform="translate(-644.044 -431.119)" fill="#d0cde1"/><path id="Path_488" data-name="Path 488" d="M760.839,515.556a1.973,1.973,0,0,1-1.518,0,1.973,1.973,0,0,1,1.518,0Z" transform="translate(-640.594 -433.942)" fill="#d0cde1"/><ellipse id="Ellipse_48" data-name="Ellipse 48" cx="5.243" cy=".828" rx="5.243" ry=".828" transform="translate(71.94 87.538)" fill="#9f616a"/><ellipse id="Ellipse_49" data-name="Ellipse 49" cx="1.656" cy=".897" rx="1.656" ry=".897" transform="translate(72.734 86.261)" fill="#eb1c24"/><ellipse id="Ellipse_50" data-name="Ellipse 50" cx="1.656" cy=".897" rx="1.656" ry=".897" transform="translate(72.113 86.261)" fill="#eb1c24"/><ellipse id="Ellipse_51" data-name="Ellipse 51" cx="1.656" cy=".897" rx="1.656" ry=".897" transform="translate(79.357 86.468)" fill="#eb1c24"/><ellipse id="Ellipse_52" data-name="Ellipse 52" cx="1.656" cy=".897" rx="1.656" ry=".897" transform="translate(75.563 86.261)" fill="#eb1c24"/><ellipse id="Ellipse_53" data-name="Ellipse 53" cx="1.656" cy=".897" rx="1.656" ry=".897" transform="translate(78.391 86.261)" fill="#eb1c24"/><path id="Path_489" data-name="Path 489" d="M510.869,524.457a16.984,16.984,0,0,1-10.073,0v-.14a4.115,4.115,0,0,1,3.907-4.112,25.872,25.872,0,0,1,2.664,0,3.718,3.718,0,0,1,3.5,3.721Z" transform="translate(-428.683 -437.851)" fill="#3f3d56"/><path id="Path_490" data-name="Path 490" d="M509.557,555.42a33.093,33.093,0,0,1-6.652,0,2.125,2.125,0,0,1-1.918-2.112h10.487A2.125,2.125,0,0,1,509.557,555.42Z" transform="translate(-428.84 -465.012)" fill="#3f3d56"/><path id="Path_491" data-name="Path 491" d="M514.176,526.79a1.973,1.973,0,0,1-1.518,0A1.973,1.973,0,0,1,514.176,526.79Z" transform="translate(-438.406 -443.15)" fill="#d0cde1"/><path id="Path_492" data-name="Path 492" d="M522.594,530.234a1.974,1.974,0,0,1-1.518,0A1.974,1.974,0,0,1,522.594,530.234Z" transform="translate(-445.307 -445.973)" fill="#d0cde1"/><path id="Path_493" data-name="Path 493" d="M523.36,524.112a1.973,1.973,0,0,1-1.518,0A1.973,1.973,0,0,1,523.36,524.112Z" transform="translate(-445.935 -440.955)" fill="#d0cde1"/><path id="Path_494" data-name="Path 494" d="M539.048,524.112a1.973,1.973,0,0,1-1.518,0A1.973,1.973,0,0,1,539.048,524.112Z" transform="translate(-458.794 -440.955)" fill="#d0cde1"/><path id="Path_495" data-name="Path 495" d="M534.839,527.556a1.973,1.973,0,0,1-1.518,0A1.973,1.973,0,0,1,534.839,527.556Z" transform="translate(-455.344 -443.778)" fill="#d0cde1"/><path id="Path_496" data-name="Path 496" d="M784.64,543.277l.025.559.032.724s-3.327.188-4,.9a.405.405,0,0,0-.043.049l-1.333-.292,0-.656.054-.029.029-.015A12.13,12.13,0,0,1,784.64,543.277Z" transform="translate(-656.988 -456.789)" fill="#eb1c24"/><path id="Path_497" data-name="Path 497" d="M784.886,543.277l.025.558a22.3,22.3,0,0,0-4.267.925l-1.022-.233a12.1,12.1,0,0,1,5.264-1.251Z" transform="translate(-657.234 -456.789)" opacity=".1"/><path id="Path_498" data-name="Path 498" d="M779.4,550.13l.993.248.3.7a.4.4,0,0,0-.043.049l-1.333-.292,0-.656.054-.029Z" transform="translate(-656.988 -462.406)" fill="#fff" opacity=".1"/><path id="Path_499" data-name="Path 499" d="M561.64,556.277l.025.558.032.724s-3.327.188-4,.9a.4.4,0,0,0-.043.049l-1.333-.292,0-.656.054-.03.029-.015A12.129,12.129,0,0,1,561.64,556.277Z" transform="translate(-474.197 -467.445)" fill="#eb1c24"/><path id="Path_500" data-name="Path 500" d="M561.886,556.277l.025.558a22.3,22.3,0,0,0-4.268.925l-1.022-.233A12.1,12.1,0,0,1,561.886,556.277Z" transform="translate(-474.443 -467.445)" opacity=".1"/><path id="Path_501" data-name="Path 501" d="M556.4,563.13l.993.248.3.7a.4.4,0,0,0-.043.049l-1.333-.292,0-.657.054-.029Z" transform="translate(-474.197 -473.062)" fill="#fff" opacity=".1"/><path id="Path_502" data-name="Path 502" d="M894.985,414.154a3.327,3.327,0,0,0-.982-.679v-7.006a.31.31,0,0,0-.31-.31h-1.734a.31.31,0,0,0-.31.31v6.872a3.145,3.145,0,0,0-2.154,2.983v15.029a1.377,1.377,0,0,0,1.377,1.377h3.715a1.371,1.371,0,0,0,1.371-1.371V416.5A3.309,3.309,0,0,0,894.985,414.154Z" transform="translate(-747.295 -344.395)" fill="#3f3d56"/><path id="Rectangle_303" data-name="Rectangle 303" transform="translate(142.199 74.132)" fill="#eb1c24" d="M0 0H6.463V8.538H0z"/><path id="Path_503" data-name="Path 503" d="M903.3,406.639h-.14v-.169a.31.31,0,0,0-.31-.31h-1.734a.31.31,0,0,0-.31.31v.169h-.14v.718h.14v3.671h2.354v-3.671h.14Z" transform="translate(-756.455 -344.395)" fill="#eb1c24"/><path id="Path_504" data-name="Path 504" d="M600.589,480.986c-.171-.365-.306-.623-.353-.712a9.4,9.4,0,0,1-5.142,0,17.053,17.053,0,0,0-1.458,3.811c-.34,1.558-.143,2.6.587,3.105l.022.015,0,0c.806.531,1.574,1,2.284,1.4l.271.148.009,0,.006.008a4.334,4.334,0,0,1,.272.383,1.508,1.508,0,0,1,.276.745v7.74h-.049c-1.851.038-3,.352-3,.62,0,.3,1.373.624,3.344.624s3.344-.329,3.344-.624c0-.265-1.126-.577-2.945-.619h-.049l.046-7.159a3.158,3.158,0,0,1,.329-1.4c.037-.073.076-.144.117-.211s.068-.106.1-.156l.007-.009.01-.005q.137-.075.29-.162l.012-.007c.672-.379,1.4-.824,2.152-1.323.675-.445.91-1.344.7-2.673A14.273,14.273,0,0,0,600.589,480.986Z" transform="translate(-504.651 -405.145)" fill="#d0cde1"/><path id="Path_505" data-name="Path 505" d="M602.486,504.745c-.793.522-1.447.914-1.947,1.2h0a11.394,11.394,0,0,0-2.189.061c-.513-.286-1.2-.7-2.056-1.258l-.024-.017h0c-.781-.537-.8-1.675-.546-2.838a6.882,6.882,0,0,1,3.061.454,7.146,7.146,0,0,0,4.35-.047A2.332,2.332,0,0,1,602.486,504.745Z" transform="translate(-506.374 -422.841)" fill="#eb1c24"/><circle id="Ellipse_54" data-name="Ellipse 54" cx=".224" cy=".224" r=".224" transform="translate(91.175 78.18)" fill="#eb1c24"/><circle id="Ellipse_55" data-name="Ellipse 55" cx=".224" cy=".224" r=".224" transform="translate(90.547 80.244)" fill="#fff"/><circle id="Ellipse_56" data-name="Ellipse 56" cx=".135" cy=".135" r=".135" transform="translate(91.803 78.808)" fill="#eb1c24"/><circle id="Ellipse_57" data-name="Ellipse 57" cx=".135" cy=".135" r=".135" transform="translate(92.342 81.366)" fill="#fff"/><circle id="Ellipse_58" data-name="Ellipse 58" cx=".135" cy=".135" r=".135" transform="translate(91.399 81.501)" fill="#fff"/><circle id="Ellipse_59" data-name="Ellipse 59" cx=".135" cy=".135" r=".135" transform="translate(94.137 77.013)" fill="#eb1c24"/><path id="Path_506" data-name="Path 506" d="M658.968,440.52c-.171-.365-.306-.623-.353-.712a9.4,9.4,0,0,1-5.142,0,17.05,17.05,0,0,0-1.458,3.811c-.34,1.558-.143,2.6.587,3.105l.022.015,0,0c.806.531,1.574,1,2.284,1.4l.271.148.009,0,.006.008a4.34,4.34,0,0,1,.272.383,1.508,1.508,0,0,1,.276.745v7.74H655.7c-1.851.038-3,.351-3,.62,0,.3,1.374.624,3.344.624s3.344-.329,3.344-.624c0-.265-1.126-.577-2.945-.619H656.4l.046-7.159a3.156,3.156,0,0,1,.329-1.4c.037-.073.076-.144.117-.211s.068-.106.1-.156l.007-.009.01-.005q.137-.075.29-.162l.012-.007c.672-.379,1.4-.824,2.151-1.323.675-.445.91-1.344.7-2.673A14.286,14.286,0,0,0,658.968,440.52Z" transform="translate(-552.503 -371.977)" fill="#d0cde1"/><path id="Path_507" data-name="Path 507" d="M660.865,464.279c-.793.522-1.447.914-1.947,1.2h0a11.4,11.4,0,0,0-2.189.061c-.513-.286-1.2-.7-2.056-1.258l-.024-.017h0c-.781-.537-.8-1.675-.546-2.838a6.883,6.883,0,0,1,3.061.454,7.146,7.146,0,0,0,4.35-.047A2.332,2.332,0,0,1,660.865,464.279Z" transform="translate(-554.226 -389.671)" fill="#eb1c24"/><circle id="Ellipse_60" data-name="Ellipse 60" cx=".224" cy=".224" r=".224" transform="translate(101.701 70.883)" fill="#eb1c24"/><circle id="Ellipse_61" data-name="Ellipse 61" cx=".224" cy=".224" r=".224" transform="translate(101.073 72.948)" fill="#fff"/><circle id="Ellipse_62" data-name="Ellipse 62" cx=".135" cy=".135" r=".135" transform="translate(102.33 71.511)" fill="#eb1c24"/><circle id="Ellipse_63" data-name="Ellipse 63" cx=".135" cy=".135" r=".135" transform="translate(102.868 74.07)" fill="#fff"/><circle id="Ellipse_64" data-name="Ellipse 64" cx=".135" cy=".135" r=".135" transform="translate(101.926 74.204)" fill="#fff"/><circle id="Ellipse_65" data-name="Ellipse 65" cx=".135" cy=".135" r=".135" transform="translate(104.663 69.716)" fill="#eb1c24"/></svg>