<svg xmlns="http://www.w3.org/2000/svg" width="200.001" height="100.618" viewBox="0 0 200.001 100.618"><g id="услуги_специалистов_автобус" data-name="услуги специалистов_автобус" transform="translate(-3.674 -5.578)"><g id="Group_336" data-name="Group 336" transform="translate(74.753 56.417)" opacity=".1" fill="#0c9add"><path id="Path_1367" data-name="Path 1367" d="M66.544,83.28h4.6c2.4-4.186,3.729-15.4.359-27.587a55.267,55.267,0,0,0-2.088-6.133C68.137,66.677,62.643,78.2,66.544,83.28Z" transform="translate(-65.166 -49.56)"/><path id="Path_1368" data-name="Path 1368" d="M74.545,82.094h-4.6C67.817,79,67.188,70.71,71.322,61.7A37.838,37.838,0,0,1,73.8,57.17C74,69.821,78.766,78.34,74.545,82.094Z" transform="translate(-64.681 -48.374)"/></g><g id="Group_337" data-name="Group 337" transform="translate(8.53 64.502)" opacity=".1" fill="#0c9add"><path id="Path_1369" data-name="Path 1369" d="M16.062,82.244H12.216c-2-3.189-3.119-11.732-.3-21.017a39.585,39.585,0,0,1,1.747-4.672C14.729,69.595,19.325,78.375,16.062,82.244Z" transform="translate(-7.509 -56.555)"/><path id="Path_1370" data-name="Path 1370" d="M9.328,81.34h3.846c1.785-2.357,2.309-8.672-1.148-15.534a28.135,28.135,0,0,0-2.069-3.454C9.788,71.991,5.8,78.48,9.328,81.34Z" transform="translate(-7.875 -55.651)"/><path id="Path_1371" data-name="Path 1371" d="M18.255,80.9H15.074c-1.476-1.95-1.911-7.174.95-12.849a23.171,23.171,0,0,1,1.712-2.856C17.875,73.164,21.176,78.532,18.255,80.9Z" transform="translate(-6.933 -55.208)"/></g><g id="Group_340" data-name="Group 340" transform="translate(3.674 84.167)" opacity=".1" fill="#0c9add"><path id="Path_1372" data-name="Path 1372" d="M62.655,79.051s.216-1.56,2.573-2.363a3.1,3.1,0,0,0-.755,2.363Z" transform="translate(5.521 -73.08)"/><path id="Path_1373" data-name="Path 1373" d="M53.285,79.051s-.216-1.56-2.573-2.363a3.1,3.1,0,0,1,.755,2.363Z" transform="translate(3.659 -73.08)"/><path id="Path_1374" data-name="Path 1374" d="M27.147,79.351s-.15-3.03-1.782-4.589a14.9,14.9,0,0,1,.524,4.589Z" transform="translate(-.292 -73.381)"/><path id="Path_1375" data-name="Path 1375" d="M7.96,79.177S7.2,77,3.674,75.876a5.235,5.235,0,0,1,1.747,3.3Z" transform="translate(-3.674 -73.207)"/><path id="Path_1376" data-name="Path 1376" d="M76.557,79.387s.6-3.2-3.7-4.854a5.817,5.817,0,0,1-.028,4.854Z" transform="translate(7.107 -73.416)"/><path id="Path_1377" data-name="Path 1377" d="M73.985,79.267S75.2,76.65,79.591,75.3a7.206,7.206,0,0,0-2.557,3.965Z" transform="translate(7.288 -73.297)"/><path id="Path_1378" data-name="Path 1378" d="M61.484,79.214a4.252,4.252,0,0,1,3.026-3.571A5.549,5.549,0,0,0,63.3,79.214Z" transform="translate(5.339 -73.243)"/><g id="Group_338" data-name="Group 338" transform="translate(37.617)"><path id="Path_1379" data-name="Path 1379" d="M40.036,79.265s.362-2.609,4.3-3.952a5.191,5.191,0,0,0-1.263,3.952Z" transform="translate(-35.622 -73.295)"/><path id="Path_1380" data-name="Path 1380" d="M40.519,79.265s-.362-2.609-4.3-3.952a5.191,5.191,0,0,1,1.263,3.952Z" transform="translate(-36.217 -73.295)"/><path id="Path_1381" data-name="Path 1381" d="M38.078,79.537a7.112,7.112,0,0,1,5.059-5.97c-2.143,2.247-2.021,5.97-2.021,5.97Z" transform="translate(-35.927 -73.567)"/></g><g id="Group_339" data-name="Group 339" transform="translate(10.19 2.4)"><path id="Path_1382" data-name="Path 1382" d="M14.662,78.993s.185-1.133-2.172-1.936c.966,1.13.354,1.936.354,1.936Z" transform="translate(-12.49 -75.423)"/><path id="Path_1383" data-name="Path 1383" d="M14.427,79.051s.216-1.56,2.573-2.363a3.1,3.1,0,0,0-.755,2.363Z" transform="translate(-12.188 -75.48)"/><path id="Path_1384" data-name="Path 1384" d="M15.948,79.214a4.252,4.252,0,0,0-3.026-3.571,5.549,5.549,0,0,1,1.208,3.571Z" transform="translate(-12.423 -75.643)"/></g></g><g id="Group_341" data-name="Group 341" transform="translate(49.252 5.578)" opacity=".1" fill="#0c9add"><path id="Path_1385" data-name="Path 1385" d="M43.225,13.719a4.021,4.021,0,0,1,3.145-2.1,1.012,1.012,0,0,1,.836.437A9.317,9.317,0,0,1,53.093,9.7a3.083,3.083,0,0,1,2.123.875c2.038-2.293,4.635-3.919,6.519-3.919a1.852,1.852,0,0,1,1.973,1.4,10.99,10.99,0,0,1,5.973-2.485c2.763,0,3.66,2.4,2.529,5.776.453.636,2.631,1.525,2.542,2.588H43.1C43.143,13.869,43.182,13.8,43.225,13.719Z" transform="translate(-43.105 -5.578)"/><path id="Path_1386" data-name="Path 1386" d="M70.426,24.833a1.2,1.2,0,0,1,1.067.711c2.585-2.475,5.5-3.994,7.847-3.825a3.518,3.518,0,0,1,2.718,1.428s0,0,0,0c2.81-3.729,6.314-6.372,8.779-6.372a2.416,2.416,0,0,1,2.488,2.283c2.835-2.508,5.706-4.047,7.973-4.047,2.81,0,4.051,2.364,3.664,6a6.7,6.7,0,0,1,3.767-1.682c1.5,0,2.2,1.2,2.083,3.071a2.569,2.569,0,0,1,.391.029c2.291.312,3.168,2.735,2.067,5.5H66.345C67.374,26.107,69.142,24.742,70.426,24.833Z" transform="translate(-39.482 -4.108)"/><path id="Path_1387" data-name="Path 1387" d="M109.578,14.076a.585.585,0,0,1,.52.347,5.588,5.588,0,0,1,3.826-1.864,1.71,1.71,0,0,1,1.325.7s0,0,0,0c1.37-1.818,3.078-3.107,4.28-3.107a1.178,1.178,0,0,1,1.213,1.113,6.628,6.628,0,0,1,3.887-1.973c1.37,0,1.975,1.152,1.787,2.927a3.264,3.264,0,0,1,1.837-.82c.732,0,1.075.584,1.015,1.5a1.3,1.3,0,0,1,.191.014c1.117.153,1.544,1.333,1.008,2.683h-22.88A2.645,2.645,0,0,1,109.578,14.076Z" transform="translate(-33.052 -5)"/></g><g id="Group_342" data-name="Group 342" transform="translate(141.313 14.456)" opacity=".1" fill="#0c9add"><path id="Path_1388" data-name="Path 1388" d="M122.815,25.825a2.178,2.178,0,0,1,1.706-1.141.549.549,0,0,1,.453.237,5.049,5.049,0,0,1,3.193-1.274,1.68,1.68,0,0,1,1.151.474A5.649,5.649,0,0,1,132.854,22a1,1,0,0,1,1.07.762,5.964,5.964,0,0,1,3.239-1.348c1.5,0,1.985,1.3,1.372,3.134.245.344,1.426.826,1.379,1.4H122.749C122.77,25.906,122.791,25.867,122.815,25.825Z" transform="translate(-122.749 -11.988)"/><path id="Path_1389" data-name="Path 1389" d="M137.569,31.854a.654.654,0,0,1,.579.386,6.22,6.22,0,0,1,4.257-2.075,1.9,1.9,0,0,1,1.474.774s0,0,0,0c1.523-2.023,3.424-3.456,4.761-3.456a1.309,1.309,0,0,1,1.349,1.238,7.37,7.37,0,0,1,4.324-2.2c1.525,0,2.2,1.282,1.987,3.255a3.635,3.635,0,0,1,2.044-.912c.814,0,1.2.65,1.129,1.666a1.452,1.452,0,0,1,.213.016c1.243.17,1.719,1.483,1.121,2.985H135.355A2.944,2.944,0,0,1,137.569,31.854Z" transform="translate(-120.784 -11.191)"/><path id="Path_1390" data-name="Path 1390" d="M154.657,15.856a.317.317,0,0,1,.282.188,3.029,3.029,0,0,1,2.075-1.011.93.93,0,0,1,.719.378s0,0,0,0a3.725,3.725,0,0,1,2.321-1.685.639.639,0,0,1,.658.6,3.594,3.594,0,0,1,2.108-1.07c.743,0,1.072.625.969,1.587a1.772,1.772,0,0,1,1-.445c.4,0,.583.317.55.813a.631.631,0,0,1,.1.008c.606.082.838.724.547,1.455h-12.41A1.439,1.439,0,0,1,154.657,15.856Z" transform="translate(-117.943 -13.259)"/></g><g id="Group_343" data-name="Group 343" transform="translate(13.099 23.16)" opacity=".1" fill="#0c9add"><path id="Path_1391" data-name="Path 1391" d="M11.894,25.2A2.178,2.178,0,0,1,13.6,24.063a.549.549,0,0,1,.453.237,5.049,5.049,0,0,1,3.193-1.274A1.68,1.68,0,0,1,18.4,23.5a5.649,5.649,0,0,1,3.536-2.125,1,1,0,0,1,1.07.762,5.961,5.961,0,0,1,3.239-1.348c1.5,0,1.985,1.3,1.372,3.134.245.344,1.426.826,1.379,1.4H11.828C11.85,25.285,11.871,25.245,11.894,25.2Z" transform="translate(-11.828 -20.789)"/><path id="Path_1392" data-name="Path 1392" d="M26.648,31.232a.654.654,0,0,1,.579.386,6.22,6.22,0,0,1,4.257-2.075,1.9,1.9,0,0,1,1.474.774s0,0,0,0c1.523-2.023,3.424-3.456,4.761-3.456A1.309,1.309,0,0,1,39.07,28.1a7.37,7.37,0,0,1,4.324-2.2c1.525,0,2.2,1.282,1.987,3.255a3.635,3.635,0,0,1,2.044-.912c.814,0,1.2.65,1.129,1.666a1.452,1.452,0,0,1,.213.016c1.243.17,1.719,1.483,1.121,2.985H24.434A2.946,2.946,0,0,1,26.648,31.232Z" transform="translate(-9.863 -19.992)"/><path id="Path_1393" data-name="Path 1393" d="M47.884,25.4a.317.317,0,0,1,.282.188,3.029,3.029,0,0,1,2.075-1.011.93.93,0,0,1,.719.378s0,0,0,0a3.725,3.725,0,0,1,2.321-1.685.639.639,0,0,1,.658.6,3.594,3.594,0,0,1,2.108-1.07c.743,0,1.072.625.969,1.587a1.772,1.772,0,0,1,1-.445c.4,0,.583.317.55.813a.631.631,0,0,1,.1.008c.606.082.838.724.547,1.455H46.8A1.434,1.434,0,0,1,47.884,25.4Z" transform="translate(-6.375 -20.475)"/></g><ellipse id="Ellipse_236" data-name="Ellipse 236" cx="32.787" cy="1.915" rx="32.787" ry="1.915" transform="translate(6.136 90.7)" fill="#0c9add" opacity=".1"/><ellipse id="Ellipse_237" data-name="Ellipse 237" cx="61.942" cy="3.019" rx="61.942" ry="3.019" transform="translate(76.646 100.157)" fill="#0c9add" opacity=".1"/><path id="Path_1394" data-name="Path 1394" d="M15.246,63.153l1.393,9.829.14.984h.892l-.139-.984-1.394-9.829Z" transform="translate(1.804 8.976)" fill="#3b4b60"/><path id="Path_1395" data-name="Path 1395" d="M48.367,63.153l1.393,9.829.14.984h.892l-.139-.984-1.394-9.829Z" transform="translate(6.968 8.976)" fill="#3b4b60"/><path id="Path_1396" data-name="Path 1396" d="M20.2,71.656l.14.984.752,9.674h.892l-.75-9.674-.139-.984Z" transform="translate(2.576 10.302)" fill="#3b4b60"/><path id="Path_1397" data-name="Path 1397" d="M53.319,71.656l.14.984.75,9.674H55.1l-.75-9.674-.139-.984Z" transform="translate(7.74 10.302)" fill="#3b4b60"/><path id="Path_1398" data-name="Path 1398" d="M49.657,71.656l-.14.984-.752,9.674h-.892l.75-9.674.139-.984Z" transform="translate(6.891 10.302)" fill="#3b4b60"/><path id="Path_1399" data-name="Path 1399" d="M16.533,71.656l-.14.984-.75,9.674h-.892l.75-9.674.139-.984Z" transform="translate(1.727 10.302)" fill="#3b4b60"/><path id="Path_1400" data-name="Path 1400" d="M14.236,64.705H55.155l-.761-2.737H13.477Z" transform="translate(1.528 8.791)" fill="#3b4b60"/><path id="Path_1401" data-name="Path 1401" d="M15.046,64.705H55.963L55.2,61.968H14.285Z" transform="translate(1.654 8.791)" fill="#a2a6af"/><path id="Path_1402" data-name="Path 1402" d="M14.729,67.658H55.648l-.761-2.736H13.97Z" transform="translate(1.605 9.252)" fill="#3b4b60"/><path id="Path_1403" data-name="Path 1403" d="M15.539,67.658H56.456L55.7,64.922H14.778Z" transform="translate(1.731 9.252)" fill="#a2a6af"/><path id="Path_1404" data-name="Path 1404" d="M15.222,70.615H56.141l-.761-2.736H14.463Z" transform="translate(1.682 9.713)" fill="#3b4b60"/><path id="Path_1405" data-name="Path 1405" d="M16.032,70.615H56.949l-.759-2.736H15.271Z" transform="translate(1.808 9.713)" fill="#a2a6af"/><path id="Rectangle_554" data-name="Rectangle 554" transform="translate(21.743 81.958)" fill="#a2a6af" d="M0 0H40.737V0.984H0z"/><path id="Rectangle_555" data-name="Rectangle 555" transform="translate(16.144 81.958)" fill="#3b4b60" d="M0 0H5.599V0.984H0z"/><path id="Path_1406" data-name="Path 1406" d="M41.319,81.61H40.1l-.153-2.831h1.222Z" transform="translate(5.654 11.412)" fill="#ff8b7b"/><path id="Path_1407" data-name="Path 1407" d="M41.42,80.6H40.047a.1.1,0,0,0-.1.083l-.185,1.087a.191.191,0,0,0,.191.217c.479-.008.711-.036,1.314-.036.371,0,1.6.038,2.112.038s.554-.507.341-.554a5.8,5.8,0,0,1-2.1-.761A.316.316,0,0,0,41.42,80.6Z" transform="translate(5.626 11.696)" fill="#a2a6af"/><path id="Path_1408" data-name="Path 1408" d="M30.968,60.411c.428.907.874,1.8,1.337,2.686s.941,1.767,1.448,2.642l.193.328L34,66.15l.074.117c.053.084.1.14.154.21a5.3,5.3,0,0,0,.61.622,13.4,13.4,0,0,0,1.245.961A23.842,23.842,0,0,0,38.7,69.621l.5-.769c-.754-.631-1.517-1.268-2.239-1.913-.359-.322-.713-.652-1.023-.981a4.549,4.549,0,0,1-.4-.48,1,1,0,0,1-.058-.1l-.065-.125-.165-.327c-.874-1.759-1.725-3.561-2.617-5.328Z" transform="translate(4.255 8.423)" fill="#ff8b7b"/><path id="Path_1409" data-name="Path 1409" d="M30.531,59.653c-.355,1.093,1.9,4.314,1.9,4.314L34.8,62.639a15.849,15.849,0,0,0-1.56-2.861C32.312,58.489,30.921,58.453,30.531,59.653Z" transform="translate(4.181 8.294)" fill="#0c9add"/><path id="Path_1410" data-name="Path 1410" d="M30.5,59.667c.468-.227,1.015-.037,1.6.866a10.1,10.1,0,0,1,1.161,2.844l-.835.466S30.348,60.869,30.5,59.667Z" transform="translate(4.181 8.419)" opacity=".1"/><path id="Path_1411" data-name="Path 1411" d="M38.142,67.582l1.139.657-.823,1.211a1.887,1.887,0,0,1-.976-1.348Z" transform="translate(5.271 9.667)" fill="#ff8b7b"/><path id="Path_1412" data-name="Path 1412" d="M39.875,69.638l-.933-.092-.616-.184.823-1.211Z" transform="translate(5.402 9.755)" fill="#ff8b7b"/><g id="Group_344" data-name="Group 344" transform="translate(45.596 90.192)"><path id="Path_1413" data-name="Path 1413" d="M41.165,78.78H39.942l.08,1.459h1.223Z" transform="translate(-39.942 -78.78)" fill="#ea7063"/></g><path id="Path_1414" data-name="Path 1414" d="M25.817,58.8c.04.157.08.314.116.472a.08.08,0,0,0,0,.014,28.593,28.593,0,0,1,.565,3.382c.357,3.267.179,6.035.249,6.761h6.538c1.015-6.874-.618-10.564-.618-10.564a12.586,12.586,0,0,0-1.239-.257c-.209-.034-.433-.062-.658-.083a23.692,23.692,0,0,0-2.779,0c-.2.01-.4.025-.6.044C26.551,58.651,25.817,58.8,25.817,58.8Z" transform="translate(3.452 8.248)" fill="#0c9add"/><path id="Path_1415" data-name="Path 1415" d="M25.917,59.158v.01a.081.081,0,0,0,0,.014,28.593,28.593,0,0,1,.565,3.382,3.809,3.809,0,0,0,.8-2.7C27.141,59.134,26.345,59.114,25.917,59.158Z" transform="translate(3.468 8.351)" opacity=".1"/><path id="Path_1416" data-name="Path 1416" d="M27.184,58.568l.184.253a4.359,4.359,0,0,0,2.671,1.513l.16.029.147-.069a1.483,1.483,0,0,0,.954-1.059,1.123,1.123,0,0,0-.084-.629c-.209-.034-.433-.062-.658-.083a23.692,23.692,0,0,0-2.779,0C27.579,58.534,27.378,58.549,27.184,58.568Z" transform="translate(3.665 8.248)" fill="#d1e3ff"/><path id="Path_1417" data-name="Path 1417" d="M27.812,55.811c.222.895.481,2.533-.113,3.129a3.854,3.854,0,0,0,2.35,1.312c1.211-.571.429-1.312.429-1.312-1.009-.238-1.022-.978-.884-1.673Z" transform="translate(3.746 7.831)" fill="#ff8b7b"/><path id="Path_1418" data-name="Path 1418" d="M28.428,56.325l1.054.861a2.781,2.781,0,0,0-.06.494,1.129,1.129,0,0,1-.994-1.355Z" transform="translate(3.856 7.912)" fill="#ea7063"/><path id="Path_1419" data-name="Path 1419" d="M30.216,53.438c.615.254,1.029,1.941.28,2.328S29.052,52.956,30.216,53.438Z" transform="translate(4.041 7.454)" fill="#0f264c"/><path id="Path_1420" data-name="Path 1420" d="M27.646,54.887c.136,1.21.156,1.923.8,2.544a1.567,1.567,0,0,0,2.661-.829c.2-1.088-.054-2.885-1.265-3.367A1.575,1.575,0,0,0,27.646,54.887Z" transform="translate(3.735 7.41)" fill="#ff8b7b"/><path id="Path_1421" data-name="Path 1421" d="M27.259,52.976c.327.921-.516.038-.506,1.129.006.712.8,2.4,1.311,2.355s.7-.941.4-1.94c-.231-.75.4-.454,1.326-.363,1.87.184,3.157-2.267,1-2.135C28.706,52.149,27.055,52.4,27.259,52.976Z" transform="translate(3.598 7.24)" fill="#47465a"/><path id="Path_1422" data-name="Path 1422" d="M27.421,55.645a1.051,1.051,0,0,0,.561.421c.292.083.391-.183.268-.465-.11-.253-.4-.6-.669-.562S27.253,55.393,27.421,55.645Z" transform="translate(3.687 7.711)" fill="#ff8b7b"/><path id="Path_1423" data-name="Path 1423" d="M32.844,67.952s8.453-.29,9.585,3.071c1.239,3.682.981,10.5.981,10.5H41.291s-.817-4.868-1.378-7.338c-.581-2.564-8.837-1.4-9.886-2.335-.837-.748-1.26-2.012-1.371-3.9Z" transform="translate(3.895 9.723)" fill="#3f3d56"/><path id="Path_1424" data-name="Path 1424" d="M39.485,79.843h2.4l.066-.762-2.625.067Z" transform="translate(5.559 11.459)" fill="#3a4a61"/><path id="Path_1425" data-name="Path 1425" d="M31.392,81.61h1.223l.894-2.831H32.286Z" transform="translate(4.321 11.412)" fill="#ff8b7b"/><path id="Path_1426" data-name="Path 1426" d="M32.872,80.6H31.5a.1.1,0,0,0-.1.083l-.185,1.087a.191.191,0,0,0,.191.217c.479-.008.711-.036,1.314-.036.371,0,1.6.038,2.112.038s.554-.507.341-.554a5.8,5.8,0,0,1-2.1-.761A.321.321,0,0,0,32.872,80.6Z" transform="translate(4.293 11.696)" fill="#a2a6af"/><g id="Group_345" data-name="Group 345" transform="translate(36.146 90.192)"><path id="Path_1427" data-name="Path 1427" d="M32.227,78.78H33.45l-.461,1.459H31.766Z" transform="translate(-31.766 -78.78)" fill="#ea7063"/></g><path id="Path_1428" data-name="Path 1428" d="M32.73,80.787a.033.033,0,0,1-.023-.025.03.03,0,0,1,.014-.031c.043-.028.423-.269.564-.2a.1.1,0,0,1,.057.083.169.169,0,0,1-.053.155.36.36,0,0,1-.236.064A1.38,1.38,0,0,1,32.73,80.787Zm.089-.044a.581.581,0,0,0,.427-.022.112.112,0,0,0,.032-.1.036.036,0,0,0-.021-.034.084.084,0,0,0-.037-.007A1.074,1.074,0,0,0,32.819,80.743Z" transform="translate(4.526 11.683)" fill="#a2a6af"/><path id="Path_1429" data-name="Path 1429" d="M32.721,80.822a.033.033,0,0,1-.015-.028c0-.015.012-.368.148-.485a.151.151,0,0,1,.125-.038.1.1,0,0,1,.1.081c.028.138-.2.4-.324.472a.036.036,0,0,1-.015,0A.026.026,0,0,1,32.721,80.822Zm.173-.466a.661.661,0,0,0-.123.378c.117-.095.259-.291.243-.371,0-.008-.006-.027-.044-.031h-.013A.093.093,0,0,0,32.894,80.356Z" transform="translate(4.526 11.644)" fill="#a2a6af"/><path id="Path_1430" data-name="Path 1430" d="M30.842,67.951s8.3.425,7.718,3.924c-.636,3.832-4.214,9.649-4.214,9.649H32.209s1.458-5.592,2.131-8.032c.466-1.686-5.3-.7-6.346-1.64-.837-.748-1.26-2.012-1.371-3.9Z" transform="translate(3.578 9.724)" fill="#3f3d56"/><path id="Path_1431" data-name="Path 1431" d="M31.346,79.843h2.4l.466-.762H31.361Z" transform="translate(4.314 11.459)" fill="#3a4a61"/><path id="Path_1432" data-name="Path 1432" d="M26.808,59.155c-.229.047-.421.094-.625.149s-.4.112-.6.172q-.595.186-1.177.422a12.6,12.6,0,0,0-1.147.525c-.188.094-.375.2-.559.307-.092.053-.183.113-.274.169l-.136.086c-.009,0-.082.053-.129.088a1.438,1.438,0,0,0-.148.132,1.371,1.371,0,0,0-.346.635,1.753,1.753,0,0,0-.04.531,3.136,3.136,0,0,0,.166.773,6.772,6.772,0,0,0,.569,1.192,13.007,13.007,0,0,0,1.462,2l.751-.528c-.349-.684-.691-1.394-.973-2.084a6.519,6.519,0,0,1-.328-1.007,1.5,1.5,0,0,1-.043-.394c0-.044.015-.071.017-.059a.222.222,0,0,1-.062.12.2.2,0,0,1-.036.035c-.006.008-.039.027,0,.008l.121-.061c.082-.04.161-.083.244-.121.168-.076.332-.155.5-.227.339-.147.688-.279,1.041-.4s.712-.242,1.073-.349c.18-.054.361-.107.542-.157l.527-.139Z" transform="translate(2.798 8.353)" fill="#ff8b7b"/><path id="Path_1433" data-name="Path 1433" d="M27.415,58.874c-.894-.74-4.147,1.007-4.147,1.007l1.918,2.4a12.824,12.824,0,0,0,1.686-.687C28.293,60.958,28.372,59.667,27.415,58.874Z" transform="translate(3.055 8.28)" fill="#0c9add"/><path id="Path_1434" data-name="Path 1434" d="M41.278,80.787a.029.029,0,0,1-.023-.025.03.03,0,0,1,.014-.031c.043-.028.423-.269.564-.2a.1.1,0,0,1,.055.083.171.171,0,0,1-.052.155.36.36,0,0,1-.236.064A1.4,1.4,0,0,1,41.278,80.787Zm.09-.044a.581.581,0,0,0,.427-.022.112.112,0,0,0,.032-.1.036.036,0,0,0-.021-.034.084.084,0,0,0-.037-.007A1.067,1.067,0,0,0,41.368,80.743Z" transform="translate(5.859 11.683)" fill="#a2a6af"/><path id="Path_1435" data-name="Path 1435" d="M41.27,80.822a.033.033,0,0,1-.015-.028c0-.015.012-.368.148-.485a.15.15,0,0,1,.125-.038.1.1,0,0,1,.1.081c.027.138-.2.4-.324.472a.036.036,0,0,1-.015,0A.026.026,0,0,1,41.27,80.822Zm.173-.466a.661.661,0,0,0-.123.378c.117-.095.259-.291.243-.371,0-.008,0-.027-.044-.031h-.013A.093.093,0,0,0,41.443,80.356Z" transform="translate(5.859 11.644)" fill="#a2a6af"/><path id="Path_1436" data-name="Path 1436" d="M24.421,64.955l.741.985-1.528.105s-.5-.993.029-1.216Z" transform="translate(3.078 9.237)" fill="#ff8b7b"/><path id="Path_1437" data-name="Path 1437" d="M25.046,67.168l-1.265.025L23.6,65.9l1.528-.105Z" transform="translate(3.107 9.387)" fill="#ff8b7b"/><path id="Path_1438" data-name="Path 1438" d="M192.429,85.772a4.978,4.978,0,0,1-4.977,4.977H74.162c-2.749,0-5.583-.067-5.583-2.816V67.472l5.019-18.3c1.362-3.992,3.023-4.977,5.773-4.977h108.08a4.977,4.977,0,0,1,4.977,4.977v36.6Z" transform="translate(10.119 6.02)" fill="#eb1c24"/><path id="Path_1439" data-name="Path 1439" d="M190.937,85.379H71.2a2.618,2.618,0,0,1-2.618-2.618v-4.12H190.937a2.618,2.618,0,0,1,2.618,2.618v1.5A2.618,2.618,0,0,1,190.937,85.379Z" transform="translate(10.119 11.391)" fill="#3a4a61"/><path id="Path_1440" data-name="Path 1440" d="M96.588,83.622a8.81,8.81,0,1,1-8.81-8.81A8.809,8.809,0,0,1,96.588,83.622Z" transform="translate(11.738 10.794)" fill="#3f3d56"/><path id="Path_1441" data-name="Path 1441" d="M92.735,83.164a5.415,5.415,0,1,1-5.415-5.414A5.414,5.414,0,0,1,92.735,83.164Z" transform="translate(12.196 11.252)" fill="#434041"/><path id="Path_1442" data-name="Path 1442" d="M91.309,82.995a4.159,4.159,0,1,1-4.159-4.159A4.158,4.158,0,0,1,91.309,82.995Z" transform="translate(12.366 11.421)" fill="#9b999e"/><path id="Path_1443" data-name="Path 1443" d="M152.911,83.622a8.81,8.81,0,1,1-8.81-8.81A8.809,8.809,0,0,1,152.911,83.622Z" transform="translate(20.52 10.794)" fill="#3f3d56"/><path id="Path_1444" data-name="Path 1444" d="M149.059,83.164a5.415,5.415,0,1,1-5.415-5.414A5.414,5.414,0,0,1,149.059,83.164Z" transform="translate(20.977 11.252)" fill="#434041"/><path id="Path_1445" data-name="Path 1445" d="M147.633,82.995a4.159,4.159,0,1,1-4.159-4.159A4.158,4.158,0,0,1,147.633,82.995Z" transform="translate(21.147 11.421)" fill="#9b999e"/><path id="Path_1446" data-name="Path 1446" d="M169.374,83.622a8.81,8.81,0,1,1-8.81-8.81A8.809,8.809,0,0,1,169.374,83.622Z" transform="translate(23.086 10.794)" fill="#3f3d56"/><path id="Path_1447" data-name="Path 1447" d="M165.522,83.164a5.415,5.415,0,1,1-5.415-5.414A5.414,5.414,0,0,1,165.522,83.164Z" transform="translate(23.544 11.252)" fill="#434041"/><path id="Path_1448" data-name="Path 1448" d="M164.1,82.995a4.159,4.159,0,1,1-4.159-4.159A4.158,4.158,0,0,1,164.1,82.995Z" transform="translate(23.713 11.421)" fill="#9b999e"/><path id="Path_1449" data-name="Path 1449" d="M69.995,77.3H68.579v-7.18h1.416a2.618,2.618,0,0,1,2.618,2.618v1.944A2.619,2.619,0,0,1,69.995,77.3Z" transform="translate(10.119 10.062)" fill="#fff"/><path id="Path_1450" data-name="Path 1450" d="M173.98,70.853h2.289v7.18H173.98a1.745,1.745,0,0,1-1.745-1.745V72.6A1.745,1.745,0,0,1,173.98,70.853Z" transform="translate(26.279 10.177)" fill="#fff"/><path id="Rectangle_556" data-name="Rectangle 556" transform="translate(78.697 74.992)" opacity=".1" d="M0 0H123.85V2.253H0z"/><path id="Rectangle_557" data-name="Rectangle 557" transform="translate(78.697 77.926)" opacity=".1" d="M0 0H123.85V2.253H0z"/><path id="Path_1451" data-name="Path 1451" d="M91.744,64.648a1.447,1.447,0,0,1-1.484,1.408H72.944a1.447,1.447,0,0,1-1.484-1.408l5.046-15.393a1.447,1.447,0,0,1,1.484-1.408H90.26a1.447,1.447,0,0,1,1.484,1.408V64.648Z" transform="translate(10.568 6.59)" fill="#fff"/><path id="Path_1452" data-name="Path 1452" d="M107.615,64.038a1.447,1.447,0,0,1-1.484,1.408H92.687A1.447,1.447,0,0,1,91.2,64.038V49.254a1.447,1.447,0,0,1,1.484-1.408H106.13a1.447,1.447,0,0,1,1.484,1.408Z" transform="translate(13.646 6.59)" fill="#fff"/><path id="Path_1453" data-name="Path 1453" d="M124.323,64.038a1.447,1.447,0,0,1-1.484,1.408H109.4a1.447,1.447,0,0,1-1.484-1.408V49.254a1.447,1.447,0,0,1,1.484-1.408h13.443a1.447,1.447,0,0,1,1.484,1.408Z" transform="translate(16.251 6.59)" fill="#fff"/><path id="Path_1454" data-name="Path 1454" d="M141.031,64.038a1.447,1.447,0,0,1-1.484,1.408H126.1a1.447,1.447,0,0,1-1.484-1.408V49.254a1.447,1.447,0,0,1,1.484-1.408h13.443a1.447,1.447,0,0,1,1.484,1.408Z" transform="translate(18.856 6.59)" fill="#fff"/><path id="Path_1455" data-name="Path 1455" d="M157.74,64.038a1.447,1.447,0,0,1-1.484,1.408H142.811a1.447,1.447,0,0,1-1.484-1.408V49.254a1.447,1.447,0,0,1,1.484-1.408h13.444a1.447,1.447,0,0,1,1.484,1.408Z" transform="translate(21.46 6.59)" fill="#fff"/><path id="Path_1456" data-name="Path 1456" d="M174.449,64.038a1.447,1.447,0,0,1-1.484,1.408H159.521a1.447,1.447,0,0,1-1.484-1.408V49.254a1.447,1.447,0,0,1,1.484-1.408h13.443a1.447,1.447,0,0,1,1.484,1.408Z" transform="translate(24.066 6.59)" fill="#fff"/><path id="Path_1457" data-name="Path 1457" d="M89.883,47.846H88.446a16.3,16.3,0,0,1-1.09,3.624,29.635,29.635,0,0,1-5.636,8.988,26.807,26.807,0,0,1-7.85,5.6H89.882a1.447,1.447,0,0,0,1.484-1.408V49.254A1.446,1.446,0,0,0,89.883,47.846Z" transform="translate(10.944 6.59)" fill="#0c9add" opacity=".1"/><path id="Path_1458" data-name="Path 1458" d="M106.911,48.032a24.64,24.64,0,0,1-4.162,6.754,34.841,34.841,0,0,1-8.16,6.42q-1.651.971-3.386,1.782v1.02a1.447,1.447,0,0,0,1.484,1.408H106.13a1.447,1.447,0,0,0,1.484-1.408V49.224A1.39,1.39,0,0,0,106.911,48.032Z" transform="translate(13.646 6.619)" fill="#0c9add" opacity=".1"/><path id="Path_1459" data-name="Path 1459" d="M122.835,47.846h-.08c.481,6.793-5.544,13.5-11.691,15.554-1.02.34-2.066.637-3.129.9a1.466,1.466,0,0,0,1.456,1.144h13.443a1.447,1.447,0,0,0,1.484-1.408V49.254A1.448,1.448,0,0,0,122.835,47.846Z" transform="translate(16.255 6.59)" fill="#0c9add" opacity=".1"/><path id="Path_1460" data-name="Path 1460" d="M139.653,47.855c-.35,3.208-2.9,6.355-4.861,8.591a25.253,25.253,0,0,1-10.172,6.737v.854a1.447,1.447,0,0,0,1.484,1.408h13.443a1.447,1.447,0,0,0,1.484-1.408V49.252A1.438,1.438,0,0,0,139.653,47.855Z" transform="translate(18.856 6.591)" fill="#0c9add" opacity=".1"/><path id="Path_1461" data-name="Path 1461" d="M156.255,47.846h-.973c-.6,4.3-3.315,8.25-6.638,11.022a29.668,29.668,0,0,1-7.317,4.451v.718a1.447,1.447,0,0,0,1.484,1.408h13.444a1.447,1.447,0,0,0,1.484-1.408V49.253A1.448,1.448,0,0,0,156.255,47.846Z" transform="translate(21.46 6.59)" fill="#0c9add" opacity=".1"/><path id="Path_1462" data-name="Path 1462" d="M172.908,47.846h-.5c-.921,3.615-1.874,7.221-4.144,10.271-2.293,3.08-5.81,5.166-9.283,6.649-.194.083-.394.158-.592.238a1.514,1.514,0,0,0,1.074.44h13.443a1.447,1.447,0,0,0,1.484-1.408V49.253A1.445,1.445,0,0,0,172.908,47.846Z" transform="translate(24.121 6.59)" fill="#0c9add" opacity=".1"/><g id="Group_346" data-name="Group 346" transform="translate(81.615 61.172)"><path id="Path_1463" data-name="Path 1463" d="M71.1,64.867l3.062-9.621v9.621Z" transform="translate(-71.103 -53.429)" fill="#434041"/><path id="Path_1464" data-name="Path 1464" d="M78.4,66.677a1.638,1.638,0,0,1-1.638,1.639H75.391a1.639,1.639,0,0,1-1.639-1.639V55.314a1.639,1.639,0,0,1,1.639-1.639h1.365a1.638,1.638,0,0,1,1.638,1.639V66.677Z" transform="translate(-70.69 -53.674)" fill="#434041"/><path id="Path_1465" data-name="Path 1465" d="M77.363,67.7c-2.026-2.4-2.444-6.216-2.572-9.262a10.03,10.03,0,0,1,.665-4.759h-.065a1.639,1.639,0,0,0-1.639,1.639V66.676a1.639,1.639,0,0,0,1.639,1.639h1.365a1.625,1.625,0,0,0,.92-.283C77.572,67.92,77.465,67.813,77.363,67.7Z" transform="translate(-70.69 -53.674)" fill="#2b2422"/></g></g></svg>