<svg xmlns="http://www.w3.org/2000/svg" width="180" height="131.334" viewBox="0 0 180 131.334"><g id="undraw_under_construction_46pa" transform="translate(-26.455 -7.082)"><path id="Path_509" data-name="Path 509" d="M314.453,763.434c0,1.3-4.471,2.514-12.274,3.559H154.591a37.187,37.187,0,0,1-18.7-5l-.087-.049a62.32,62.32,0,0,1,11.8-2.267h0l.247-.031c2.47-.3,5.232-.589,8.249-.861a1.852,1.852,0,0,0,.23-.021h0q3.592-.319,7.641-.6c.086,0,.169-.015.255-.019q1.562-.112,3.189-.213h0l.418-.027c7.9-.49,16.871-.882,26.6-1.14h.011q2.045-.057,4.133-.1,2.322-.055,4.7-.1c1.21-.027,2.436-.045,3.666-.065h.029c5.547-.084,11.279-.125,17.139-.125,14.492,0,28.19.264,40.327.739h.034c1.866.072,3.7.152,5.484.234l1.52.072q3.023.144,5.891.31h0C299.85,759.014,314.453,761.091,314.453,763.434Z" transform="translate(-109.346 -628.578)" fill="#0c9add" opacity=".1"/><g id="Group_247" data-name="Group 247" transform="translate(120.833 75.802)" opacity=".2" fill="#0c9add"><path id="Path_510" data-name="Path 510" d="M674.061,740.188a3.608,3.608,0,0,1-.07.61q-1.984-.316-3.991-.57v-.163a3.207,3.207,0,0,1,.475-1.612,1.768,1.768,0,0,1,3.217.1A3.2,3.2,0,0,1,674.061,740.188Z" transform="translate(-662.862 -689.061)"/><ellipse id="Ellipse_66" data-name="Ellipse 66" cx="2.662" cy="2.033" rx="2.662" ry="2.033" transform="rotate(-88.19 29.595 21.512)"/><ellipse id="Ellipse_67" data-name="Ellipse 67" cx="2.662" cy="2.033" rx="2.662" ry="2.033" transform="rotate(-88.19 27.968 19.832)"/><ellipse id="Ellipse_68" data-name="Ellipse 68" cx="2.662" cy="2.033" rx="2.662" ry="2.033" transform="rotate(-88.19 26.34 18.152)"/><ellipse id="Ellipse_69" data-name="Ellipse 69" cx="2.662" cy="2.033" rx="2.662" ry="2.033" transform="rotate(-88.19 24.712 16.473)"/><path id="Path_511" data-name="Path 511" d="M635.106,498.292a9.454,9.454,0,0,1-.722-1.14l5.37-.709-5.781-.139a9.764,9.764,0,0,1,.059-7.723l7.624,4.266-6.984-5.481a9.745,9.745,0,1,1,15.742,11.4,9.651,9.651,0,0,1,1.055,1.811l-7.048,3.383,7.474-2.248a9.757,9.757,0,0,1-1.866,9.1,9.745,9.745,0,1,1-15.309-.483,9.745,9.745,0,0,1,.38-12.044Z" transform="translate(-632.44 -482.747)"/><path id="Path_512" data-name="Path 512" d="M652.31,598.456a9.691,9.691,0,0,1-2.28,5.956,9.745,9.745,0,1,1-15.309-.483C633.472,602.232,652.344,597.363,652.31,598.456Z" transform="translate(-632.44 -576.339)" opacity=".1"/></g><g id="Group_248" data-name="Group 248" transform="translate(91.948 75.802)" opacity=".2" fill="#0c9add"><path id="Path_513" data-name="Path 513" d="M522.061,740.188a3.608,3.608,0,0,1-.07.61q-1.984-.316-3.991-.57v-.163a3.207,3.207,0,0,1,.475-1.612,1.768,1.768,0,0,1,3.217.1A3.205,3.205,0,0,1,522.061,740.188Z" transform="translate(-510.862 -689.061)"/><ellipse id="Ellipse_70" data-name="Ellipse 70" cx="2.662" cy="2.033" rx="2.662" ry="2.033" transform="rotate(-88.19 29.595 21.514)"/><ellipse id="Ellipse_71" data-name="Ellipse 71" cx="2.662" cy="2.033" rx="2.662" ry="2.033" transform="rotate(-88.19 27.968 19.833)"/><ellipse id="Ellipse_72" data-name="Ellipse 72" cx="2.662" cy="2.033" rx="2.662" ry="2.033" transform="rotate(-88.19 26.34 18.154)"/><ellipse id="Ellipse_73" data-name="Ellipse 73" cx="2.662" cy="2.033" rx="2.662" ry="2.033" transform="rotate(-88.19 24.711 16.475)"/><path id="Path_514" data-name="Path 514" d="M483.107,498.292a9.433,9.433,0,0,1-.722-1.14l5.37-.709-5.781-.139a9.764,9.764,0,0,1,.059-7.723l7.624,4.266-6.984-5.481a9.745,9.745,0,1,1,15.742,11.4,9.656,9.656,0,0,1,1.055,1.811l-7.048,3.383,7.474-2.248a9.756,9.756,0,0,1-1.866,9.1,9.745,9.745,0,1,1-15.309-.483,9.745,9.745,0,0,1,.38-12.044Z" transform="translate(-480.44 -482.747)"/><path id="Path_515" data-name="Path 515" d="M500.31,598.456a9.691,9.691,0,0,1-2.28,5.956,9.745,9.745,0,1,1-15.309-.483C481.472,602.232,500.344,597.363,500.31,598.456Z" transform="translate(-480.44 -576.339)" opacity=".1"/></g><g id="Group_249" data-name="Group 249" transform="translate(160.501 30.615)" opacity=".2" fill="#0c9add"><path id="Path_516" data-name="Path 516" d="M921.183,740.336a7.1,7.1,0,0,1-.139,1.156q-3.819-.61-7.694-1.091v-.313a6.177,6.177,0,0,1,.916-3.1,3.408,3.408,0,0,1,6.2.19A6.181,6.181,0,0,1,921.183,740.336Z" transform="translate(-899.637 -641.944)"/><ellipse id="Ellipse_74" data-name="Ellipse 74" cx="5.127" cy="3.917" rx="5.127" ry="3.917" transform="rotate(-88.19 56.946 41.405)"/><ellipse id="Ellipse_75" data-name="Ellipse 75" cx="5.127" cy="3.917" rx="5.127" ry="3.917" transform="rotate(-88.19 53.813 38.17)"/><ellipse id="Ellipse_76" data-name="Ellipse 76" cx="5.127" cy="3.917" rx="5.127" ry="3.917" transform="rotate(-88.19 50.68 34.936)"/><ellipse id="Ellipse_77" data-name="Ellipse 77" cx="5.127" cy="3.917" rx="5.127" ry="3.917" transform="rotate(-88.282 47.232 31.692)"/><path id="Path_517" data-name="Path 517" d="M846.3,274.858a18.857,18.857,0,0,1-1.389-2.191l10.338-1.365-11.126-.268a18.794,18.794,0,0,1,.11-14.868l14.68,8.211-13.443-10.551a18.76,18.76,0,1,1,30.3,21.96,18.761,18.761,0,0,1,2.031,3.487l-13.57,6.516,14.387-4.333a18.766,18.766,0,0,1-3.578,17.512,18.76,18.76,0,1,1-29.474-.929,18.766,18.766,0,0,1,.73-23.184Z" transform="translate(-841.186 -244.965)"/><path id="Path_518" data-name="Path 518" d="M879.46,467.532A18.687,18.687,0,0,1,875.089,479a18.76,18.76,0,1,1-29.474-.929C843.194,474.8,879.526,465.429,879.46,467.532Z" transform="translate(-841.218 -424.99)" opacity=".1"/></g><path id="Path_519" data-name="Path 519" d="M157.82,155.63l1.993-.006h2.811L166.178,97.9,201.37,39.17l-1.53-1.642V33.37L161.78,96.535Z" transform="translate(-125.074 -26.287)" fill="#f1c0c0"/><path id="Path_520" data-name="Path 520" d="M169.43,173.346h2.6l3.554-57.728,35.192-58.726-1.53-1.642-36.3,59.488Z" transform="translate(-134.477 -44.009)" opacity=".1"/><path id="Path_521" data-name="Path 521" d="M126.91,662.056l91.188,6.978.078.006,88.25-5.427.067,0v-3.727l-97.24-1.784-81.127-.078h-.593l-.065.418Z" transform="translate(-100.038 -532.233)" fill="#f1c0c0"/><path id="Path_522" data-name="Path 522" d="M126.91,662.056l91.188,6.978.078.006,88.25-5.427.067-.072v-3.58h-.078L218.1,662.91l-89.973-4.89h-.013l-.16.1-.485.314Z" transform="translate(-100.038 -532.233)" opacity=".1"/><path id="Path_523" data-name="Path 523" d="M126.91,662.5,218.1,669.48v-6.125l-90.146-4.785-.485.313Z" transform="translate(-100.038 -532.678)" opacity=".1"/><path id="Path_524" data-name="Path 524" d="M378.88,37.636l40.2,43.149-1.243,75.9,3.415.412.057.008h3.415l.409-73.06,75.278,25.145,1.269,44.772,2.748.308.931.1-2.155-48.289L424.513,78.457,381.364,33.6H378.88Z" transform="translate(-304.125 -26.474)" fill="#f1c0c0"/><path id="Path_525" data-name="Path 525" d="M620.65,291.7l.31,1.4,75.278,25.145,1.27,44.772,2.748.308L698.1,317.311Z" transform="translate(-499.95 -235.526)" opacity=".1"/><path id="Path_526" data-name="Path 526" d="M378.88,37.636l40.2,43.149-1.243,75.9,3.415.412.931-78.8-43.3-44.7Z" transform="translate(-304.125 -26.474)" opacity=".1"/><path id="Path_527" data-name="Path 527" d="M621.42,430.979l27.61,5.437.009,0,48.358,9.526,2.214-.887-.008-.156-.144-3.088L621.448,426.05Z" transform="translate(-500.574 -344.345)" fill="#f1c0c0"/><path id="Path_528" data-name="Path 528" d="M766.76,480.61l48.358,9.526,2.214-.887-.008-.156Z" transform="translate(-618.294 -388.537)" opacity=".1"/><path id="Path_529" data-name="Path 529" d="M776.49,350.56l.747,41.112.386,21.092,3.4-.114,2.14-.072-.665-61.423-1.475-.49-.323-.1Z" transform="translate(-626.175 -283.201)" fill="#f1c0c0"/><path id="Path_530" data-name="Path 530" d="M776.65,350.51v.01l.716,41.112.386,21.092,3.4-.114v-62.1Z" transform="translate(-626.305 -283.16)" opacity=".1"/><path id="Path_531" data-name="Path 531" d="M483.464,482.415a4.328,4.328,0,0,1,.57.371,3.772,3.772,0,0,1,.57.625,5.625,5.625,0,0,1,1.488,3.611,1.469,1.469,0,0,1-.424,1.045,1.9,1.9,0,0,1-1.26.3,2.682,2.682,0,0,1-1.4-.247c-.414-.247-.76-.728-1.251-.716a.637.637,0,0,1-.209,0c-.169-.055-.2-.277-.314-.418-.19-.253-.591-.19-.889-.08a1.289,1.289,0,0,1-.924.148.959.959,0,0,1-.4-.4,8.827,8.827,0,0,1-.988-3.835c-.082-.806-.7-3.554,1.015-2.928a14.256,14.256,0,0,1,2.163,1.222Z" transform="translate(-386.403 -404.556)" fill="#3a4a61"/><path id="Path_532" data-name="Path 532" d="M496.919,490.588a.848.848,0,0,0,1.043-.042,1.571,1.571,0,0,0,.507-.984c.19-.059.287.19.409.342.213.258.646.255.84.53.135.19.1.454.2.669.124.277.43.422.639.646a2.2,2.2,0,0,1,.418.834l.312.935a4.622,4.622,0,0,1,.285,1.21,1.568,1.568,0,0,1-.361,1.157,3.068,3.068,0,0,1-2.311.414,1.7,1.7,0,0,1-1.024-1.254,15.823,15.823,0,0,1-.211-1.676,6.567,6.567,0,0,0-.475-1.593c-.167-.4-.627-.984-.62-1.4C496.706,490.374,496.805,490.5,496.919,490.588Z" transform="translate(-401.557 -412.458)" fill="#3a4a61"/><path id="Path_533" data-name="Path 533" d="M490.951,474.43a3.137,3.137,0,0,1-.154-.834,3.632,3.632,0,0,1,.523-1.615l-2.172.295a.962.962,0,0,0-.7.308.76.76,0,0,0,0,.7,3.586,3.586,0,0,1,.258.678,3.384,3.384,0,0,0,.07.61,1.292,1.292,0,0,0,.279.393,13.173,13.173,0,0,1,1.551,2.3c-.013-.023,1.309-1.047,1.256-1.382-.03-.19-.412-.418-.534-.6A3.06,3.06,0,0,1,490.951,474.43Z" transform="translate(-394.907 -398.224)" fill="#be6f72"/><path id="Path_534" data-name="Path 534" d="M420.753,358.04v1.872L388.7,366.164l-1.663,1.007H381.3v-1.055l31.492-7.609Z" transform="translate(-306.085 -289.259)" fill="#f1c0c0"/><path id="Path_535" data-name="Path 535" d="M420.753,367.89,388.7,374.142l-1.663,1.007H381.3l31.726-6.79Z" transform="translate(-306.085 -297.237)" opacity=".1"/><path id="Path_536" data-name="Path 536" d="M441.827,721.574a2.484,2.484,0,0,0-3.022-.642.8.8,0,0,0-.277.217c-.19.266-.068.633-.051.962a2.879,2.879,0,0,1-1.169,2.014,2.762,2.762,0,0,0-.76,1.03.965.965,0,0,0,.336,1.14,1.4,1.4,0,0,0,.521.144,5.62,5.62,0,0,0,1.843.051,2,2,0,0,0,1.463-1.019,1.073,1.073,0,0,1,.245-.4c.334-.264.848.046,1.228-.143.314-.156.327-.4.331-.724A4.193,4.193,0,0,0,441.827,721.574Z" transform="translate(-352.893 -599.656)" fill="#eb1c24"/><path id="Path_537" data-name="Path 537" d="M471.045,715.564a6.255,6.255,0,0,1,.3,1.944,1.876,1.876,0,0,1-.177,1.108,1.514,1.514,0,0,1-.99.57,2.27,2.27,0,0,1-2.222-.619,2.345,2.345,0,0,1-.4-1.764c.061-.511.19-1.11-.177-1.473-.1-.1-.219-.165-.306-.27a.905.905,0,0,1-.057-.866,3.768,3.768,0,0,0,.3-.857,11.067,11.067,0,0,1,2.809.215c.321.158.272.422.369.741C470.623,714.737,470.882,715.138,471.045,715.564Z" transform="translate(-377.551 -593.68)" fill="#eb1c24"/><path id="Path_538" data-name="Path 538" d="M438.479,579.076a2.111,2.111,0,0,1,.773,1.556,33.176,33.176,0,0,1-.19,4.907c-.027,2.3.639,4.637.07,6.862-.34,1.33-.051,2.85-.371,4.194-.1.4-.27.775-.361,1.174a5.125,5.125,0,0,0,.277,2.615,2.7,2.7,0,0,1,.162.709,2.55,2.55,0,0,1-.277,1.072l-1.14,2.7c-.127.3-.629.352-.95.392a2.376,2.376,0,0,1-1.76-.251,2.252,2.252,0,0,1-.671-1.587,24.334,24.334,0,0,1-.19-3.388,2.79,2.79,0,0,0-.078-.88,7.716,7.716,0,0,1-.4-.95,3.817,3.817,0,0,1,.23-1.33,4.006,4.006,0,0,0-.019-1.233c-.074-.608-.16-1.216-.257-1.821a8.066,8.066,0,0,1,.19-2.527,6.971,6.971,0,0,0-.19-2.4,6.612,6.612,0,0,1-.238,1.9c-.1.3-.245.591-.333.9-.39,1.382.441,2.831.323,4.263a10.569,10.569,0,0,0-.243,1.99,6.715,6.715,0,0,0,.43,1.385,1.8,1.8,0,0,1,0,1.416c-.618,1.167-.156,2.753.4,3.951a5.327,5.327,0,0,1,.293.658,7.859,7.859,0,0,1,.07,1.682,1.061,1.061,0,0,1-.891-.268c-.084-.087-.152-.19-.234-.281a2.321,2.321,0,0,0-.794-.5,1.043,1.043,0,0,0-.57-.131,1.141,1.141,0,0,0-.542.336,5.292,5.292,0,0,1-.6.454.707.707,0,0,1-.3.135.268.268,0,0,1-.279-.143.335.335,0,0,1-.021-.1,15.055,15.055,0,0,1-.112-1.729c0-.994-1.19-1.678-1.34-2.66-.12-.793.1-1.6.029-2.4a11.686,11.686,0,0,1-.142-1.224c0-.266.061-.526.082-.79a5.911,5.911,0,0,0-.013-.88l-.059-.918a7.932,7.932,0,0,0-.477-2.661,9.04,9.04,0,0,1-.741-3.056c-.038-.665-.013-1.33-.089-2a9.833,9.833,0,0,1-.177-1.805c.036-.468.19-.92.226-1.387a7.091,7.091,0,0,0-.536-2.634,3.9,3.9,0,0,1-.114-2.645.868.868,0,0,1,.243-.353,1.061,1.061,0,0,1,.448-.167,34.793,34.793,0,0,1,9.924-.633A3.3,3.3,0,0,1,438.479,579.076Z" transform="translate(-344.515 -484.493)" fill="#3a4a61"/><circle id="Ellipse_78" data-name="Ellipse 78" cx="3.044" cy="3.044" r="3.044" transform="translate(80.131 68.311)" fill="#be6f72"/><path id="Path_539" data-name="Path 539" d="M426.174,466.644a1.085,1.085,0,0,1,0,.53,1.2,1.2,0,0,1-.2.334,8.588,8.588,0,0,1-.975,1.06,1.765,1.765,0,0,0,.91.9,5.282,5.282,0,0,0,1.256.359,1.316,1.316,0,0,0,1.231-.213l1.691-1.013a3.378,3.378,0,0,0,.7-.507,1.731,1.731,0,0,0,.49-1.19.327.327,0,0,0-.061-.224.4.4,0,0,0-.232-.1,2.061,2.061,0,0,1-1.33-1.161,6.152,6.152,0,0,1-.462-1.762l-1.8.95c-.268.142-.534.285-.811.409-.177.08-.534.146-.659.308C425.684,465.625,426.112,466.284,426.174,466.644Z" transform="translate(-343.588 -391.485)" fill="#be6f72"/><path id="Path_540" data-name="Path 540" d="M422.364,478.313a2.005,2.005,0,0,0-.583.789,2.055,2.055,0,0,0,.106,1.157,34.534,34.534,0,0,1,1.14,4.9c.16,1.14.219,2.3.3,3.451.16,2.353.391,6.1.7,8.441a22.426,22.426,0,0,0,3.383-.4c2.113-.224,4.289.289,6.358-.19-.5-1.982-1-5.367-1.505-7.347a14.016,14.016,0,0,1-.46-2.385c-.044-.58-.017-1.161-.01-1.745.017-1.14-.046-2.28-.108-3.421a21.709,21.709,0,0,0-.46-3.962.738.738,0,0,0-.22-.435.892.892,0,0,0-.663-.059,2.885,2.885,0,0,1-1.973-.468c-.251-.171-.587-.38-.821-.19a.817.817,0,0,0-.19.4,2.024,2.024,0,0,1-1.19,1.173,5.954,5.954,0,0,1-1.684.346.827.827,0,0,1-.523-.059c-.27-.165-.289-.76-.629-.8C423.033,477.479,422.566,478.121,422.364,478.313Z" transform="translate(-340.941 -401.783)" fill="#3a4a61"/><path id="Path_541" data-name="Path 541" d="M412.486,483.491a11.561,11.561,0,0,1-1.52-2.47,5.5,5.5,0,0,0-1.313-1.444,3.919,3.919,0,0,1-.715-.606c-.181-.222-.317-.519-.591-.6a.715.715,0,0,0-.64.177,6.29,6.29,0,0,0-.475.505c-.806.834-2.221.95-2.86,1.916a1.57,1.57,0,0,0-.34.713,5.523,5.523,0,0,0,1.015,3.972,1.349,1.349,0,0,0,.7.57,2.2,2.2,0,0,0,.137,1.045,27.928,27.928,0,0,0,1.294,3.525,8.521,8.521,0,0,0-.255,1.366c-.133,1.161-.009,2.339-.135,3.5-.1.95-.38,1.876-.39,2.828,0,.152.013.333.144.41a.437.437,0,0,0,.226.048l2.337.07a18.968,18.968,0,0,0,4.063-.171,1.69,1.69,0,0,0,.511-.161,1.717,1.717,0,0,0,.675-1.33,11.594,11.594,0,0,0,.112-1.988,3.242,3.242,0,0,0,1.475,2.208,3.309,3.309,0,0,0,1.465.177,27.6,27.6,0,0,0,3.191-.329.42.42,0,0,0,.466-.488l.011-1.038a57.9,57.9,0,0,0-.7-6.22,13.534,13.534,0,0,0-.22-1.978c-.067-.272-.163-.538-.222-.811a5.786,5.786,0,0,1-.095-.811l-.148-2.09c-.07-.967-.171-1.9-.245-2.866a13.878,13.878,0,0,0-.407-2.786c-.165-.57-.509-1.216-1.1-1.286a2.276,2.276,0,0,0-.927.2,3.747,3.747,0,0,1-2.28-.009,3.208,3.208,0,0,0-.711-.19.7.7,0,0,0-.65.27.975.975,0,0,0-.1.479A25.351,25.351,0,0,1,412.486,483.491Z" transform="translate(-326.566 -402.32)" fill="#eb1c24"/><path id="Path_542" data-name="Path 542" d="M410.15,499.393a11.537,11.537,0,0,0-2.9-2.451,2.319,2.319,0,0,0-1.442-.319,1.08,1.08,0,0,0-.927,1.015,6.568,6.568,0,0,0,.262.887,9.311,9.311,0,0,0,.076,1.038,1.757,1.757,0,0,0,.38.583l1.345,1.594a8.659,8.659,0,0,0,1.874,1.8,2.816,2.816,0,0,0,2.489.348,3.06,3.06,0,0,0,1.365-1.252c.334-.532.57-1.114.884-1.663a8.256,8.256,0,0,1,1.9-2.305,2.112,2.112,0,0,1-1.14-.57,1.879,1.879,0,0,1-.18-.327l-.308-.665a.76.76,0,0,0-.57.215,4.771,4.771,0,0,1-.424.431c-.268.2-.631.257-.874.487a2.31,2.31,0,0,0-.255.319A2.132,2.132,0,0,1,410.15,499.393Z" transform="translate(-327.288 -418.165)" fill="#3a4a61"/><path id="Path_543" data-name="Path 543" d="M452.279,467.364a11.384,11.384,0,0,0,.817-4,1.829,1.829,0,0,1,.363-.994,1.894,1.894,0,0,1,1.625-.38c.169.019.38.1.371.268a.342.342,0,0,1-.086.161,4.521,4.521,0,0,0-.939,2.493c.3.207.76-.219,1.047,0,.19.16.1.475-.011.7q-.4.792-.819,1.573a5.055,5.055,0,0,1-.868,1.252c-.241.232-.525.414-.77.642-.57.534-.914,1.288-1.5,1.809a.308.308,0,0,1-.19.1.319.319,0,0,1-.2-.089,2.882,2.882,0,0,1-.718-.868c-.224-.414-.19-.536.163-.829A6.28,6.28,0,0,0,452.279,467.364Z" transform="translate(-364.045 -390.11)" fill="#be6f72"/><path id="Path_544" data-name="Path 544" d="M411.64,496.168c.114.07.255.15.38.091a.4.4,0,0,0,.127-.124,4.473,4.473,0,0,0,.54-.939.362.362,0,0,0,.04-.152c0-.122-.108-.211-.209-.281a7.75,7.75,0,0,0-1.727-.821,3.566,3.566,0,0,0-1.558-.308,1.486,1.486,0,0,0-1.039.528c-.38.488.257.637.656.813A25.339,25.339,0,0,1,411.64,496.168Z" transform="translate(-329.88 -415.757)" fill="#eb1c24"/><path id="Path_545" data-name="Path 545" d="M423.667,516.651a.28.28,0,0,0,.08.24c.055-.27-.017-.555.04-.827.084-.409.481-.717.515-1.127C423.574,514.795,423.673,516.211,423.667,516.651Z" transform="translate(-342.506 -433.01)" opacity=".1"/><path id="Path_546" data-name="Path 546" d="M554.98,358.04v1.872l-7.727.469-.234-1.874Z" transform="translate(-440.312 -289.259)" opacity=".2"/><path id="Path_547" data-name="Path 547" d="M415.9,442.566c.483-.393.2-1.218.53-1.746a1.7,1.7,0,0,1,.827-.57,3.76,3.76,0,0,1,1.207-.335,1.4,1.4,0,0,1,1.14.42c.124.141.207.312.323.458a1.235,1.235,0,0,0,1.2.414c.253-.057.515-.249.5-.507a.716.716,0,0,0-.228-.407l-.543-.6a4.313,4.313,0,0,0-2.21-1.581,3.79,3.79,0,0,0-1.885.253c-.245.082-.521.2-.589.452-.046.171.023.357-.017.53-.078.344-.519.46-.724.749s-.143.631-.2.95a8.319,8.319,0,0,0-.251.962c-.013.2.087.57.312.642S415.764,442.329,415.9,442.566Z" transform="translate(-335.467 -370.758)" fill="#3a4a61"/><path id="Path_548" data-name="Path 548" d="M420.751,433.777a5.7,5.7,0,0,0-1.011-2.311,4.05,4.05,0,0,0-1.8-1.429,2.577,2.577,0,0,0-2.241.177,3.253,3.253,0,0,0-1.119,1.412,3.775,3.775,0,0,0-.1,3.375c.228-.277.62-.152.965-.253a10.06,10.06,0,0,0,1.212-.593C417.9,433.605,419.421,434.05,420.751,433.777Z" transform="translate(-334.778 -364.108)" fill="#fed253"/><path id="Path_549" data-name="Path 549" d="M417.293,445.778a1.161,1.161,0,0,1,.171-.982.123.123,0,0,1,.1-.046.131.131,0,0,1,.078.068,4.263,4.263,0,0,1,.357.7.726.726,0,0,0-.76.295" transform="translate(-337.303 -376.168)" opacity=".1"/><path id="Path_550" data-name="Path 550" d="M440.509,441.054l-.068-.678a.309.309,0,0,1,.013-.167.215.215,0,0,1,.277-.076.571.571,0,0,1,.222.222,3.993,3.993,0,0,1,.391.773,2.3,2.3,0,0,0-.925.011" transform="translate(-356.078 -372.41)" opacity=".1"/><path id="Path_551" data-name="Path 551" d="M403.816,502.21v1.551l-1.309.087H395.62V502.21Z" transform="translate(-317.684 -406.032)" opacity=".1"/><path id="Path_552" data-name="Path 552" d="M311.01,387.446v1.638h-8.2L281.04,361.808V360.52H285.6Z" transform="translate(-224.878 -291.268)" fill="#f1c0c0"/><path id="Path_553" data-name="Path 553" d="M311.01,387.446v1.638h-8.2L281.04,361.808V360.52H285.6Z" transform="translate(-224.878 -291.268)" opacity=".1"/><path id="Path_554" data-name="Path 554" d="M311.01,387.446v1.638h-8.2L281.04,361.808V360.52l21.892,26.926Z" transform="translate(-224.878 -291.268)" opacity=".1"/><path id="Path_555" data-name="Path 555" d="M297.473,728.349a.57.57,0,0,1-.5.671,3.386,3.386,0,0,0-1.463.76,1.046,1.046,0,0,0,0,1.484,1.442,1.442,0,0,0,.76.207,5.151,5.151,0,0,0,2.539-.317,3.764,3.764,0,0,1,1.7-.659c.317.019.656.167.939.023s.363-.547.365-.884a6.542,6.542,0,0,0-.314-2.07,8.316,8.316,0,0,0-1.382-.19l-1.465-.19c-.277-.036-.876-.245-1.095-.013S297.473,728.074,297.473,728.349Z" transform="translate(-238.457 -604.833)" fill="#eb1c24"/><path id="Path_556" data-name="Path 556" d="M352.943,696.842a4.59,4.59,0,0,0,.3,1,2.318,2.318,0,0,0,.962,1.317,1.716,1.716,0,0,0,1.467-.07,1.209,1.209,0,0,0,.488-.371,1.47,1.47,0,0,0,.19-.853,4.661,4.661,0,0,0-.38-2.149c-.289-.57-.792-1.06-.8-1.691l-1.731.334a.493.493,0,0,0-.255.1.438.438,0,0,0-.11.207A5.658,5.658,0,0,0,352.943,696.842Z" transform="translate(-285.183 -578.069)" fill="#eb1c24"/><path id="Path_557" data-name="Path 557" d="M244.232,600.493a2.829,2.829,0,0,0,.277,1.8,1.39,1.39,0,0,0,1.574.667.229.229,0,0,0,.142-.108.268.268,0,0,0-.025-.19,2.8,2.8,0,0,1,.059-2.113c.038-.087.12-.19.209-.156a.19.19,0,0,1,.085.087.993.993,0,0,1,.133.525,1.95,1.95,0,0,0-.015.5c.036.163.211.317.363.247a.38.38,0,0,0,.173-.245,8.1,8.1,0,0,0,.038-3.848.2.2,0,0,0-.226-.211c-.9-.089-1.387-.3-1.9.53A5.209,5.209,0,0,0,244.232,600.493Z" transform="translate(-197.145 -499.773)" fill="#eb1c24"/><path id="Path_558" data-name="Path 558" d="M297.2,595.134a11.653,11.653,0,0,0-.391,5.477l.2,1.646c.068.555.135,1.108.232,1.657a4.408,4.408,0,0,1,.1.861,4.612,4.612,0,0,1-.135.846,9.877,9.877,0,0,0-.2,1.767c-.021.95.1,1.9.171,2.85a31.743,31.743,0,0,1-.066,5.686,2.132,2.132,0,0,0,.312,1.465,1.886,1.886,0,0,1,.276.452c.143.435-.19.87-.276,1.317a1.33,1.33,0,0,0,1.106,1.52c1.52.181,3.082.1,4.452.794.145-.422-.171-.9-.027-1.33.091-.266.342-.439.513-.663a1.931,1.931,0,0,0,.327-1.159,4.237,4.237,0,0,0-.281-1.572,3.4,3.4,0,0,1-.38-1.279,1.615,1.615,0,0,0-.011-.656,1.024,1.024,0,0,0-.245-.306,3.863,3.863,0,0,1-.994-2.252,10.374,10.374,0,0,1,.08-2.5,4.242,4.242,0,0,1,.718-2.231,14.313,14.313,0,0,1,.4-5.558c.049-.167.127-.361.3-.4a.426.426,0,0,1,.365.144,2.491,2.491,0,0,1,.57,1.072,2.337,2.337,0,0,1,.179,1.3c-.046.19-.137.357-.19.54a1.6,1.6,0,0,0,.057,1.115,1.072,1.072,0,0,1,.137.42,1.164,1.164,0,0,1-.114.365,1.68,1.68,0,0,0,.158,1.359,4.92,4.92,0,0,0,.887,1.089,3.991,3.991,0,0,0,.124,2.2.277.277,0,0,1,.025.211c-.034.072-.122.1-.19.15-.19.156-.072.45.055.654a15,15,0,0,0,1.154,1.6c.38.454.346,1.33.912,1.494a1.708,1.708,0,0,0,.722,0,1.893,1.893,0,0,0,1.456-.741,2,2,0,0,1,.333-.6c.175-.152.4-.179.5-.361s-.011-.422.021-.633.217-.38.276-.6c.141-.513-.458-.935-.54-1.459-.118-.76.84-1.33.8-2.09-.084-1.651-.137-3.31-.222-4.962a35.771,35.771,0,0,1-.046-4.445,6.251,6.251,0,0,0-.148-2.744,3.676,3.676,0,0,0-3.126-2.016,15.39,15.39,0,0,0-3.879.38A24.51,24.51,0,0,1,297.2,595.134Z" transform="translate(-239.629 -497.533)" fill="#3a4a61"/><circle id="Ellipse_79" data-name="Ellipse 79" cx="3.044" cy="3.044" r="3.044" transform="translate(58.386 73.349)" fill="#fbbebe"/><path id="Path_559" data-name="Path 559" d="M307.932,496.705a1.3,1.3,0,0,1-1.241.785,1.53,1.53,0,0,0,.456,1.275,5.412,5.412,0,0,0,5.18,1.777,2.554,2.554,0,0,0,1.02-.426,2.263,2.263,0,0,0,.779-1.349,6.7,6.7,0,0,0,.074-1.587.41.41,0,0,0-.084-.293.418.418,0,0,0-.266-.087,4.613,4.613,0,0,1-1.878-.4,1.338,1.338,0,0,1-.694-1.613,6.809,6.809,0,0,1-1.3.154c-.458.065-.916.137-1.372.221a2.5,2.5,0,0,0-.644.122c-.276.143-.173.072-.108.331A1.572,1.572,0,0,1,307.932,496.705Z" transform="translate(-247.741 -416.699)" fill="#fbbebe"/><path id="Path_560" data-name="Path 560" d="M263.047,505.166a5.039,5.039,0,0,1-1.218-.135,1.71,1.71,0,0,1-1-.667c-.141-.213-.232-.481-.456-.6-.367-.19-.785.131-1.077.426a3.915,3.915,0,0,1-.916.737c-.407.215-.882.291-1.266.543a3.183,3.183,0,0,0-.76.821l-2.693,3.668c-1.081,1.475-2.022,3.058-2.985,4.614a32.619,32.619,0,0,0-1.9,4.352.486.486,0,0,0-.059.293c.023.1.143.179.226.122-.283.281-.034.76-.1,1.156a1.417,1.417,0,0,1-.452.709,3.573,3.573,0,0,1,1.254.059,3.846,3.846,0,0,1,1.186.57c.23-.036.209-.445.38-.6.1-.089.255-.078.39-.1.507-.1.709-.709,1.1-1.053.325-.287.785-.38,1.129-.65.559-.439.678-1.22.971-1.868.249-.549.64-1.028.859-1.591a6.86,6.86,0,0,1,.414-1.1,3.14,3.14,0,0,1,1.52-1.093,2.518,2.518,0,0,1,1.157-.31,10.749,10.749,0,0,0,.059,2.617c.066.3.16.6.239.9a16.993,16.993,0,0,1,.466,4.181,12.714,12.714,0,0,1,2.661-.319c.705-.021,1.408.07,2.113.057.836-.015,1.663-.177,2.5-.234a4.669,4.669,0,0,1,2.45.38,23.27,23.27,0,0,1,.1-3.611l.2-1.889a11.611,11.611,0,0,1,.253-1.631c.11-.433.27-.851.391-1.283a14.682,14.682,0,0,0,.268-4.726,5.958,5.958,0,0,0-.724-2.337,6.331,6.331,0,0,0-.456-.775,4.491,4.491,0,0,0-3.926-1.843.8.8,0,0,0-.281.061.937.937,0,0,0-.359.428A4.656,4.656,0,0,1,263.047,505.166Z" transform="translate(-200.54 -423.309)" fill="#3a4a61"/><path id="Path_561" data-name="Path 561" d="M301.788,471.212c.086-.19.315-.26.456-.412.27-.289.148-.751.19-1.14a1.638,1.638,0,0,1,1.083-1.25,3.5,3.5,0,0,1,1.71-.108,1.654,1.654,0,0,1,.772.256c.1.072.19.165.283.232a.76.76,0,0,0,1.034-.241,3.741,3.741,0,0,0-3.506-2.014,3.462,3.462,0,0,0-1.4.163,2.331,2.331,0,0,0-1.228,1.418,6.891,6.891,0,0,0-.3,1.9,7.156,7.156,0,0,0,0,1.292,3.573,3.573,0,0,0,.635,1.629.493.493,0,0,0,.19.177C302.577,473.492,301.718,471.369,301.788,471.212Z" transform="translate(-243.036 -393.809)" fill="#3a4a61"/><path id="Path_562" data-name="Path 562" d="M304.518,459.757a3.73,3.73,0,0,0-1.421-2.229,5.24,5.24,0,0,0-1.91-1.15,2.552,2.552,0,0,0-2.155.262,3.311,3.311,0,0,0-1.049,1.442,4.539,4.539,0,0,0-.458,2.09,2.254,2.254,0,0,0,1.02,1.809,1.92,1.92,0,0,1,.988-.637,48.39,48.39,0,0,1,4.985-1.589Z" transform="translate(-240.337 -385.488)" fill="#fed253"/><path id="Path_563" data-name="Path 563" d="M303.119,472.72c.061,0,.1.063.131.114a4.81,4.81,0,0,1,.4.76c-.222.048-.6.1-.715-.095C302.874,473.4,302.944,472.71,303.119,472.72Z" transform="translate(-244.701 -398.823)" opacity=".1"/><path id="Path_564" data-name="Path 564" d="M326.368,466.46c-.046.044-.1-.046-.1-.11v-.737a.108.108,0,0,1,.013-.059.089.089,0,0,1,.063-.03c.154-.017.281.114.38.239a4.021,4.021,0,0,1,.39.648l-.8-.025" transform="translate(-263.619 -392.993)" opacity=".1"/><path id="Path_565" data-name="Path 565" d="M353.632,513.89a4.959,4.959,0,0,1,.559-.458,8.432,8.432,0,0,1,1.754-.715,2.315,2.315,0,0,0,1.421-1.176,2.794,2.794,0,0,0,.11-1.14,1.139,1.139,0,0,0-.084-.469.933.933,0,0,0-.3-.327,4.343,4.343,0,0,0-2.873-.58,18.008,18.008,0,0,0-6.349,1.585.552.552,0,0,0-.266.19.544.544,0,0,0-.051.264,4.372,4.372,0,0,0,.215,1.655c.262.677.8,1.222,1.028,1.912.1.31.137.638.226.95a1.33,1.33,0,0,0,.534.794c.751.449,1.459-.154,1.98-.621Z" transform="translate(-280.851 -428.213)" fill="#3a4a61"/><path id="Path_566" data-name="Path 566" d="M298.825,509.894l-.963-2.1a7.362,7.362,0,0,1-.365-.9c-.11-.367-.163-.747-.266-1.116-.338-1.228-1.191-2.25-1.608-3.453a.655.655,0,0,0-.156-.291.507.507,0,0,0-.424-.076,6.617,6.617,0,0,0-1.568.794c-.247.114-.513.19-.76.321a.95.95,0,0,0-.509.606,1.481,1.481,0,0,0,.207.853,9.636,9.636,0,0,1,.658,3.748,3.985,3.985,0,0,1-.534,2.47c-.975,1.33-.352,3.284.013,4.893.044.19.1.4.125.6a5.485,5.485,0,0,1,.044.76,5.948,5.948,0,0,1-.4,2.507,2.806,2.806,0,0,0,1.14.323q1.655.211,3.324.3a3.626,3.626,0,0,0,1.043-.053,1.9,1.9,0,0,0,1.4-1.862,2.35,2.35,0,0,0,.555,1.463,2.21,2.21,0,0,0,1.458.449,27.1,27.1,0,0,0,4.39-.124.758.758,0,0,0,.27-.063c.281-.141.3-.528.274-.84-.042-.583-.086-1.167-.156-1.746a7.145,7.145,0,0,1-.091-1.117,6.431,6.431,0,0,1,.19-1.14,12.936,12.936,0,0,0,.371-3.611,6.084,6.084,0,0,1-.036-.891,11.807,11.807,0,0,0,.336-1.976,32.348,32.348,0,0,0-.891-5.866,1.52,1.52,0,0,0-.519-.9c-.38-.255-.914-.122-1.349-.283a3.371,3.371,0,0,1-.58-.344,2.66,2.66,0,0,0-1.309-.4,1.112,1.112,0,0,0-.95.346,1.381,1.381,0,0,0-.19.519c-.276,1.159-.6,2.305-.922,3.451l-.31,1.1-.83,2.949C298.854,509.5,298.909,509.6,298.825,509.894Z" transform="translate(-235.875 -421.586)" fill="#eb1c24"/><path id="Path_567" data-name="Path 567" d="M326.868,400.25l18.382,19.317V421.2h-8.2L323.24,403.177" transform="translate(-259.058 -323.448)" fill="#f1c0c0"/><path id="Path_568" data-name="Path 568" d="M326.868,400.25l18.382,19.317V421.2h-8.2L323.24,403.177" transform="translate(-259.058 -323.448)" opacity=".1"/><path id="Path_569" data-name="Path 569" d="M323.533,414.31l.059.021,13.58,16.624h8.078v1.638h-8.2L323.24,414.565Z" transform="translate(-259.058 -334.836)" opacity=".1"/><path id="Path_570" data-name="Path 570" d="M340,500.825c-.665.291-1.4.663-1.6,1.363a.784.784,0,0,0-.025.38.775.775,0,0,0,.7.534,2.281,2.281,0,0,0,.914-.167l3.924-1.3c.106-.034.228-.086.255-.19a.328.328,0,0,0-.038-.19c-.122-.3-.241-.9-.5-1.11-.209-.167-.623-.108-.876-.1A7.1,7.1,0,0,0,340,500.825Z" transform="translate(-273.415 -420.944)" fill="#eb1c24"/><path id="Path_571" data-name="Path 571" d="M361.838,500.1a6.309,6.309,0,0,1,1.948.3,3.469,3.469,0,0,1,1.613,1.1,1.209,1.209,0,0,1,.255.5c.038.19.658.3.521.433.416-.067.317.129.739.125a1.4,1.4,0,0,0,1.131-.448,1.469,1.469,0,0,0,.222-.929,1.582,1.582,0,0,0-.125-.657,1.941,1.941,0,0,0-1.03-.8l-3.394-1.553a2.259,2.259,0,0,0-.627-.222,2.349,2.349,0,0,0-.553.013l-1.537.177a2.3,2.3,0,0,1,1.051,2.028" transform="translate(-291.75 -419.255)" fill="#3a4a61"/></g></svg>