<svg xmlns="http://www.w3.org/2000/svg" width="200" height="113.749" viewBox="0 0 200 113.749"><defs><linearGradient id="linear-gradient" x1="-5.376" y1=".5" x2="-4.376" y2=".5" gradientUnits="objectBoundingBox"><stop offset="0" stop-color="#fff" stop-opacity="0"/><stop offset="1" stop-color="#fff"/></linearGradient></defs><g id="услуги_специалистов_поезд" data-name="услуги специалистов_поезд" transform="translate(-.554 .246)"><circle id="XMLID_1_" cx="32.354" cy="32.354" r="32.354" transform="rotate(-80.5 69.035 -5.383)" fill="#eb1c24" opacity=".1"/><path id="Rectangle_558" data-name="Rectangle 558" transform="translate(1.798 92.385)" fill="#7a799c" d="M0 0H198.756V2.256H0z"/><path id="Path_1466" data-name="Path 1466" d="M6.543,83.374H4.8L3.489,88.662H5.234Z" transform="translate(.336 9.577)" fill="#7a799c"/><path id="Path_1467" data-name="Path 1467" d="M11.24,83.374H9.494L8.186,88.662H9.93Z" transform="translate(.874 9.577)" fill="#7a799c"/><path id="Path_1468" data-name="Path 1468" d="M15.936,83.374H14.192l-1.31,5.288h1.745Z" transform="translate(1.412 9.577)" fill="#7a799c"/><path id="Path_1469" data-name="Path 1469" d="M20.633,83.374H18.887l-1.308,5.288h1.745Z" transform="translate(1.95 9.577)" fill="#7a799c"/><path id="Path_1470" data-name="Path 1470" d="M25.329,83.374H23.584l-1.308,5.288H24.02Z" transform="translate(2.488 9.577)" fill="#7a799c"/><path id="Path_1471" data-name="Path 1471" d="M30.026,83.374H28.28l-1.308,5.288h1.745Z" transform="translate(3.026 9.577)" fill="#7a799c"/><path id="Path_1472" data-name="Path 1472" d="M34.722,83.374H32.977l-1.308,5.288h1.744Z" transform="translate(3.564 9.577)" fill="#7a799c"/><path id="Path_1473" data-name="Path 1473" d="M39.419,83.374H37.673l-1.308,5.288H38.11Z" transform="translate(4.101 9.577)" fill="#7a799c"/><path id="Path_1474" data-name="Path 1474" d="M44.116,83.374H42.37l-1.308,5.288h1.744Z" transform="translate(4.639 9.577)" fill="#7a799c"/><path id="Path_1475" data-name="Path 1475" d="M48.812,83.374H47.068l-1.31,5.288H47.5Z" transform="translate(5.177 9.577)" fill="#7a799c"/><path id="Path_1476" data-name="Path 1476" d="M53.509,83.374H51.763l-1.308,5.288H52.2Z" transform="translate(5.715 9.577)" fill="#7a799c"/><path id="Path_1477" data-name="Path 1477" d="M58.2,83.374H56.46l-1.308,5.288H56.9Z" transform="translate(6.253 9.577)" fill="#7a799c"/><path id="Path_1478" data-name="Path 1478" d="M62.9,83.374H61.156l-1.308,5.288h1.745Z" transform="translate(6.791 9.577)" fill="#7a799c"/><path id="Path_1479" data-name="Path 1479" d="M67.6,83.374H65.853l-1.308,5.288h1.744Z" transform="translate(7.329 9.577)" fill="#7a799c"/><path id="Path_1480" data-name="Path 1480" d="M72.295,83.374H70.549l-1.308,5.288h1.745Z" transform="translate(7.867 9.577)" fill="#7a799c"/><path id="Path_1481" data-name="Path 1481" d="M76.992,83.374H75.246l-1.308,5.288h1.744Z" transform="translate(8.405 9.577)" fill="#7a799c"/><path id="Path_1482" data-name="Path 1482" d="M81.688,83.374H79.944l-1.31,5.288h1.745Z" transform="translate(8.942 9.577)" fill="#7a799c"/><path id="Path_1483" data-name="Path 1483" d="M86.385,83.374H84.639l-1.308,5.288h1.744Z" transform="translate(9.48 9.577)" fill="#7a799c"/><path id="Path_1484" data-name="Path 1484" d="M91.081,83.374H89.336l-1.308,5.288h1.744Z" transform="translate(10.018 9.577)" fill="#7a799c"/><path id="Path_1485" data-name="Path 1485" d="M95.778,83.374H94.032l-1.308,5.288h1.745Z" transform="translate(10.556 9.577)" fill="#7a799c"/><path id="Path_1486" data-name="Path 1486" d="M100.474,83.374H98.729l-1.308,5.288h1.744Z" transform="translate(11.094 9.577)" fill="#7a799c"/><path id="Path_1487" data-name="Path 1487" d="M105.171,83.374h-1.745l-1.308,5.288h1.745Z" transform="translate(11.632 9.577)" fill="#7a799c"/><path id="Path_1488" data-name="Path 1488" d="M109.867,83.374h-1.744l-1.308,5.288h1.744Z" transform="translate(12.17 9.577)" fill="#7a799c"/><path id="Path_1489" data-name="Path 1489" d="M114.564,83.374H112.82l-1.31,5.288h1.745Z" transform="translate(12.708 9.577)" fill="#7a799c"/><path id="Path_1490" data-name="Path 1490" d="M119.261,83.374h-1.745l-1.308,5.288h1.744Z" transform="translate(13.246 9.577)" fill="#7a799c"/><path id="Path_1491" data-name="Path 1491" d="M123.957,83.374h-1.744L120.9,88.662h1.744Z" transform="translate(13.784 9.577)" fill="#7a799c"/><path id="Path_1492" data-name="Path 1492" d="M128.654,83.374h-1.745L125.6,88.662h1.745Z" transform="translate(14.321 9.577)" fill="#7a799c"/><path id="Path_1493" data-name="Path 1493" d="M133.35,83.374h-1.744L130.3,88.662h1.744Z" transform="translate(14.859 9.577)" fill="#7a799c"/><path id="Path_1494" data-name="Path 1494" d="M138.047,83.374H136.3l-1.308,5.288h1.745Z" transform="translate(15.397 9.577)" fill="#7a799c"/><path id="Path_1495" data-name="Path 1495" d="M142.743,83.374H141l-1.308,5.288h1.744Z" transform="translate(15.935 9.577)" fill="#7a799c"/><path id="Path_1496" data-name="Path 1496" d="M147.44,83.374H145.7l-1.31,5.288h1.745Z" transform="translate(16.473 9.577)" fill="#7a799c"/><path id="Path_1497" data-name="Path 1497" d="M152.137,83.374h-1.745l-1.308,5.288h1.744Z" transform="translate(17.011 9.577)" fill="#7a799c"/><path id="Path_1498" data-name="Path 1498" d="M156.833,83.374h-1.744l-1.31,5.288h1.745Z" transform="translate(17.549 9.577)" fill="#7a799c"/><path id="Path_1499" data-name="Path 1499" d="M161.53,83.374h-1.745l-1.308,5.288h1.745Z" transform="translate(18.087 9.577)" fill="#7a799c"/><path id="Path_1500" data-name="Path 1500" d="M166.226,83.374h-1.744l-1.308,5.288h1.744Z" transform="translate(18.625 9.577)" fill="#7a799c"/><path id="Path_1501" data-name="Path 1501" d="M170.923,83.374h-1.745l-1.308,5.288h1.745Z" transform="translate(19.162 9.577)" fill="#7a799c"/><path id="Path_1502" data-name="Path 1502" d="M175.619,83.374h-1.744l-1.308,5.288h1.744Z" transform="translate(19.7 9.577)" fill="#7a799c"/><path id="Path_1503" data-name="Path 1503" d="M180.316,83.374H178.57l-1.308,5.288h1.745Z" transform="translate(20.238 9.577)" fill="#7a799c"/><g id="XMLID_18_" transform="translate(7.181 19.341)" opacity=".1"><g id="XMLID_11_" transform="translate(128.167 18.386)"><g id="Group_347" data-name="Group 347" fill="#0c9add"><path id="XMLID_57_" d="M140.075,53.087a17.962,17.962,0,0,0,8.41-1.9c-6.239,0-8.41-17.358-8.41-17.363h0c0,.006-2.171,17.363-8.41,17.363a17.962,17.962,0,0,0,8.41,1.9Z" transform="translate(-120.332 -33.825)"/><path id="XMLID_56_" d="M140.446,62.376a20.985,20.985,0,0,0,12.019-3.755c-8.166,0-12.019-13.518-12.019-13.518s-3.853,13.518-12.019,13.518a20.985,20.985,0,0,0,12.019,3.755Z" transform="translate(-120.703 -32.533)"/><path id="XMLID_55_" d="M140.692,70.844a25.16,25.16,0,0,0,14.41-4.5c-9.791,0-14.41-16.207-14.41-16.207s-4.619,16.207-14.41,16.207a25.169,25.169,0,0,0,14.41,4.5Z" transform="translate(-120.949 -31.957)"/><path id="XMLID_54_" d="M141.24,85.538a34.465,34.465,0,0,0,19.743-6.169c-13.414,0-19.743-22.206-19.743-22.206S134.911,79.369,121.5,79.369a34.46,34.46,0,0,0,19.743,6.169Z" transform="translate(-121.497 -31.152)"/></g></g><g id="XMLID_193_" transform="translate(0 36.438)"><g id="Group_348" data-name="Group 348" fill="#0c9add"><path id="XMLID_53_" d="M18.912,62.89a12.007,12.007,0,0,0,5.619-1.268c-4.168,0-5.618-11.6-5.619-11.6h0s-1.451,11.6-5.619,11.6a12.024,12.024,0,0,0,5.619,1.268Z" transform="translate(-5.722 -50.022)"/><path id="XMLID_52_" d="M19.16,69.1a14.017,14.017,0,0,0,8.029-2.509c-5.456,0-8.029-9.031-8.029-9.031s-2.573,9.031-8.029,9.031A14.018,14.018,0,0,0,19.16,69.1Z" transform="translate(-5.97 -49.159)"/><path id="XMLID_51_" d="M19.324,74.753a16.809,16.809,0,0,0,9.627-3.008c-6.541,0-9.627-10.828-9.627-10.828S16.238,71.745,9.7,71.745a16.809,16.809,0,0,0,9.627,3.008Z" transform="translate(-6.134 -48.774)"/><path id="XMLID_50_" d="M19.69,84.57a23.028,23.028,0,0,0,13.19-4.122c-8.962,0-13.19-14.835-13.19-14.835S15.462,80.448,6.5,80.448A23.028,23.028,0,0,0,19.69,84.57Z" transform="translate(-6.5 -48.236)"/></g></g><g id="XMLID_14_" transform="translate(38.987 47.483)"><g id="Group_349" data-name="Group 349" fill="#0c9add"><path id="XMLID_49_" d="M50.12,68.888a8.354,8.354,0,0,0,3.911-.883c-2.9,0-3.911-8.071-3.911-8.074h0s-1.01,8.074-3.911,8.074a8.359,8.359,0,0,0,3.911.883Z" transform="translate(-40.94 -59.932)"/><path id="XMLID_48_" d="M50.292,73.208a9.755,9.755,0,0,0,5.588-1.746c-3.8,0-5.588-6.286-5.588-6.286S48.5,71.462,44.7,71.462a9.755,9.755,0,0,0,5.588,1.746Z" transform="translate(-41.112 -59.331)"/><path id="XMLID_47_" d="M50.407,77.146a11.7,11.7,0,0,0,6.7-2.093c-4.553,0-6.7-7.536-6.7-7.536s-2.148,7.536-6.7,7.536a11.711,11.711,0,0,0,6.7,2.093Z" transform="translate(-41.226 -59.063)"/><path id="XMLID_46_" d="M50.661,83.978a16.032,16.032,0,0,0,9.18-2.868c-6.238,0-9.18-10.326-9.18-10.326S47.719,81.11,41.481,81.11a16.041,16.041,0,0,0,9.18,2.868Z" transform="translate(-41.481 -58.689)"/></g></g><g id="XMLID_15_" transform="translate(29.895 7.198)"><g id="Group_350" data-name="Group 350" fill="#0c9add"><path id="XMLID_45_" d="M54.773,46.025a20.737,20.737,0,0,0,9.71-2.192c-7.2,0-9.71-20.04-9.71-20.047h0c0,.007-2.507,20.047-9.71,20.047a20.737,20.737,0,0,0,9.71,2.192Z" transform="translate(-31.978 -23.786)"/><path id="XMLID_44_" d="M55.2,56.75a24.227,24.227,0,0,0,13.876-4.336c-9.428,0-13.876-15.607-13.876-15.607S50.753,52.415,41.325,52.415A24.227,24.227,0,0,0,55.2,56.75Z" transform="translate(-32.407 -22.295)"/><path id="XMLID_43_" d="M55.485,66.526a29.044,29.044,0,0,0,16.637-5.2c-11.3,0-16.637-18.712-16.637-18.712S50.152,61.329,38.848,61.329a29.048,29.048,0,0,0,16.637,5.2Z" transform="translate(-32.69 -21.629)"/><path id="XMLID_42_" d="M56.117,83.49a39.8,39.8,0,0,0,22.794-7.122c-15.487,0-22.794-25.639-22.794-25.639S48.811,76.369,33.323,76.369A39.785,39.785,0,0,0,56.117,83.49Z" transform="translate(-33.323 -20.7)"/></g></g><g id="XMLID_213_" transform="translate(162.493 47.483)"><g id="Group_351" data-name="Group 351" fill="#0c9add"><path id="XMLID_58_" d="M160.934,68.888a8.354,8.354,0,0,0,3.911-.883c-2.9,0-3.911-8.071-3.911-8.074h0s-1.01,8.074-3.911,8.074a8.354,8.354,0,0,0,3.911.883Z" transform="translate(-151.754 -59.932)"/><path id="XMLID_41_" d="M161.106,73.208a9.755,9.755,0,0,0,5.588-1.746c-3.8,0-5.588-6.286-5.588-6.286s-1.791,6.286-5.588,6.286a9.751,9.751,0,0,0,5.588,1.746Z" transform="translate(-151.926 -59.331)"/><path id="XMLID_40_" d="M161.221,77.146a11.7,11.7,0,0,0,6.7-2.093c-4.553,0-6.7-7.536-6.7-7.536s-2.148,7.536-6.7,7.536a11.711,11.711,0,0,0,6.7,2.093Z" transform="translate(-152.04 -59.063)"/><path id="XMLID_39_" d="M161.475,83.978a16.032,16.032,0,0,0,9.18-2.868c-6.238,0-9.18-10.326-9.18-10.326s-2.942,10.326-9.18,10.326a16.037,16.037,0,0,0,9.18,2.868Z" transform="translate(-152.295 -58.689)"/></g></g><g id="XMLID_13_" transform="translate(76.471)"><g id="Group_352" data-name="Group 352" fill="#0c9add"><path id="XMLID_75_" d="M99.207,36.811a18.176,18.176,0,0,0,8.507-1.92c-6.31,0-8.506-17.556-8.507-17.563h0c0,.006-2.2,17.563-8.507,17.563a18.181,18.181,0,0,0,8.507,1.92Z" transform="translate(-73.328 -17.328)"/><path id="XMLID_74_" d="M99.582,46.207a21.221,21.221,0,0,0,12.156-3.8c-8.26,0-12.156-13.673-12.156-13.673s-3.9,13.673-12.156,13.673a21.226,21.226,0,0,0,12.156,3.8Z" transform="translate(-73.703 -16.021)"/><path id="XMLID_73_" d="M99.831,54.772a25.444,25.444,0,0,0,14.575-4.554c-9.9,0-14.575-16.394-14.575-16.394S95.159,50.218,85.256,50.218a25.444,25.444,0,0,0,14.575,4.554Z" transform="translate(-73.951 -15.439)"/><path id="XMLID_72_" d="M100.385,69.633a34.865,34.865,0,0,0,19.969-6.239c-13.568,0-19.969-22.461-19.969-22.461s-6.4,22.461-19.969,22.461a34.865,34.865,0,0,0,19.969,6.239Z" transform="translate(-74.506 -14.625)"/><path id="XMLID_71_" d="M100.992,86.444a45.181,45.181,0,0,0,25.879-8.086c-17.584,0-25.879-29.108-25.879-29.108S92.7,78.358,75.113,78.358a45.19,45.19,0,0,0,25.879,8.086Z" transform="translate(-75.113 -13.672)"/></g></g></g><g id="XMLID_17_" transform="translate(2.341 34.872)"><path id="XMLID_327_" d="M2.157,85.472s1.037,1.22,5.791,1.246A1.943,1.943,0,1,0,11.385,85h.444a3.9,3.9,0,0,0,7.61,0h1.343a3.9,3.9,0,0,0,7.61,0h2.062a3.9,3.9,0,0,0,7.61,0H39.4a3.9,3.9,0,0,0,7.614,0h3.246a3.637,3.637,0,0,0,7.022.632h6.776a2.43,2.43,0,0,0,4.859,0h1.917a2.431,2.431,0,0,0,4.863,0h39.617a2.43,2.43,0,0,0,4.859,0h1.917a2.43,2.43,0,0,0,4.859,0h1.185V83.2h3.087v2.43h1.535a2.43,2.43,0,0,0,4.859,0h1.917a2.43,2.43,0,0,0,4.859,0h39.617a2.43,2.43,0,1,0,4.859,0h1.92a2.43,2.43,0,1,0,4.859,0h1.185V83.2h1.8V81.92h-1.8V71.027a3.112,3.112,0,0,0-3.112-3.112H134.332a3.109,3.109,0,0,0-3.108,3.112V81.92h-3.087V71.027a3.111,3.111,0,0,0-3.108-3.112H65.636a3.109,3.109,0,0,0-3.108,3.112v13.16H57.491c-.007-.108-.021-.216-.036-.321a4.429,4.429,0,0,0,1.491-3.315V76.584a1.313,1.313,0,0,0-1.311-1.311H49.7a.608.608,0,0,1-.606-.606V70.8a2.366,2.366,0,0,1,2.368-2.365h5.893a1.556,1.556,0,0,0,1.585-1.422,1.5,1.5,0,0,0-1.5-1.582H41.168a2.428,2.428,0,0,0-2.43,2.43v2.621H32.662V68.017H30.553v2.462H28.712v-.7H27.275v-1.2a1.4,1.4,0,0,0-1.1-1.4A1.341,1.341,0,0,0,24.589,68.5v1.278H23.148v.7H15.635V67.41H16.5V65.428h-4.09V67.41h.863v3.069H9.894a4.8,4.8,0,0,0-.921,9.5H7.337ZM153.705,83.2h20.656v.99H153.705Zm-68.7,0h20.656v.99H85.006Z" transform="translate(-2.157 -27.35)" fill="#3f3d56"/><path id="XMLID_16_" d="M40.717,74.584H38.683a1.668,1.668,0,0,1-1.668-1.668V70.881a1.668,1.668,0,0,1,1.668-1.668h2.034a1.668,1.668,0,0,1,1.668,1.668v2.034A1.668,1.668,0,0,1,40.717,74.584Z" transform="translate(1.835 -26.916)" fill="#fff"/><g id="XMLID_217_" transform="translate(66.349 45.999)" fill="#fff"><path id="XMLID_203_" d="M64.783,77.042H63.356a1.668,1.668,0,0,1-1.668-1.668V74.2a1.668,1.668,0,0,1,1.668-1.668h1.427A1.668,1.668,0,0,1,66.451,74.2v1.17A1.667,1.667,0,0,1,64.783,77.042Z" transform="translate(-61.688 -72.535)"/><path id="XMLID_206_" d="M71.238,77.042H69.811a1.668,1.668,0,0,1-1.668-1.668V74.2a1.668,1.668,0,0,1,1.668-1.668h1.427A1.668,1.668,0,0,1,72.906,74.2v1.17A1.667,1.667,0,0,1,71.238,77.042Z" transform="translate(-60.949 -72.535)"/><path id="XMLID_207_" d="M77.449,77.042H76.022a1.668,1.668,0,0,1-1.668-1.668V74.2a1.668,1.668,0,0,1,1.668-1.668h1.427A1.668,1.668,0,0,1,79.117,74.2v1.17A1.667,1.667,0,0,1,77.449,77.042Z" transform="translate(-60.237 -72.535)"/><path id="XMLID_208_" d="M83.661,77.042H82.234a1.668,1.668,0,0,1-1.668-1.668V74.2a1.668,1.668,0,0,1,1.668-1.668h1.427A1.668,1.668,0,0,1,85.33,74.2v1.17A1.668,1.668,0,0,1,83.661,77.042Z" transform="translate(-59.526 -72.535)"/><path id="XMLID_209_" d="M89.872,77.042H88.445a1.668,1.668,0,0,1-1.668-1.668V74.2a1.668,1.668,0,0,1,1.668-1.668h1.427A1.668,1.668,0,0,1,91.54,74.2v1.17A1.668,1.668,0,0,1,89.872,77.042Z" transform="translate(-58.815 -72.535)"/><path id="XMLID_214_" d="M96.083,77.042H94.656a1.668,1.668,0,0,1-1.668-1.668V74.2a1.668,1.668,0,0,1,1.668-1.668h1.427A1.668,1.668,0,0,1,97.751,74.2v1.17A1.667,1.667,0,0,1,96.083,77.042Z" transform="translate(-58.103 -72.535)"/><path id="XMLID_215_" d="M102.294,77.042h-1.427A1.668,1.668,0,0,1,99.2,75.374V74.2a1.668,1.668,0,0,1,1.668-1.668h1.427a1.668,1.668,0,0,1,1.668,1.668v1.17A1.667,1.667,0,0,1,102.294,77.042Z" transform="translate(-57.392 -72.535)"/><path id="XMLID_216_" d="M108.506,77.042h-1.427a1.668,1.668,0,0,1-1.668-1.668V74.2a1.668,1.668,0,0,1,1.668-1.668h1.427a1.668,1.668,0,0,1,1.668,1.668v1.17A1.668,1.668,0,0,1,108.506,77.042Z" transform="translate(-56.68 -72.535)"/></g><g id="XMLID_227_" transform="translate(135.047 45.999)" fill="#fff"><path id="XMLID_281_" d="M126.422,77.042H125a1.668,1.668,0,0,1-1.668-1.668V74.2A1.668,1.668,0,0,1,125,72.535h1.427A1.668,1.668,0,0,1,128.09,74.2v1.17A1.667,1.667,0,0,1,126.422,77.042Z" transform="translate(-123.327 -72.535)"/><path id="XMLID_280_" d="M132.877,77.042H131.45a1.668,1.668,0,0,1-1.668-1.668V74.2a1.668,1.668,0,0,1,1.668-1.668h1.427a1.668,1.668,0,0,1,1.668,1.668v1.17A1.667,1.667,0,0,1,132.877,77.042Z" transform="translate(-122.588 -72.535)"/><path id="XMLID_278_" d="M139.089,77.042h-1.427a1.668,1.668,0,0,1-1.668-1.668V74.2a1.668,1.668,0,0,1,1.668-1.668h1.427a1.668,1.668,0,0,1,1.668,1.668v1.17A1.668,1.668,0,0,1,139.089,77.042Z" transform="translate(-121.876 -72.535)"/><path id="XMLID_240_" d="M145.3,77.042h-1.427a1.668,1.668,0,0,1-1.668-1.668V74.2a1.668,1.668,0,0,1,1.668-1.668H145.3a1.668,1.668,0,0,1,1.668,1.668v1.17A1.668,1.668,0,0,1,145.3,77.042Z" transform="translate(-121.165 -72.535)"/><path id="XMLID_239_" d="M151.511,77.042h-1.427a1.668,1.668,0,0,1-1.668-1.668V74.2a1.668,1.668,0,0,1,1.668-1.668h1.427a1.668,1.668,0,0,1,1.668,1.668v1.17A1.667,1.667,0,0,1,151.511,77.042Z" transform="translate(-120.454 -72.535)"/><path id="XMLID_238_" d="M157.722,77.042H156.3a1.668,1.668,0,0,1-1.668-1.668V74.2a1.668,1.668,0,0,1,1.668-1.668h1.427a1.668,1.668,0,0,1,1.668,1.668v1.17A1.667,1.667,0,0,1,157.722,77.042Z" transform="translate(-119.742 -72.535)"/><path id="XMLID_237_" d="M163.934,77.042h-1.427a1.668,1.668,0,0,1-1.668-1.668V74.2a1.668,1.668,0,0,1,1.668-1.668h1.427A1.668,1.668,0,0,1,165.6,74.2v1.17A1.668,1.668,0,0,1,163.934,77.042Z" transform="translate(-119.031 -72.535)"/><path id="XMLID_234_" d="M170.145,77.042h-1.427a1.668,1.668,0,0,1-1.668-1.668V74.2a1.668,1.668,0,0,1,1.668-1.668h1.427a1.668,1.668,0,0,1,1.668,1.668v1.17A1.668,1.668,0,0,1,170.145,77.042Z" transform="translate(-118.319 -72.535)"/></g><path id="XMLID_4_" d="M12.636,68.5c-.544-5.2-.145-10.677,2.333-15.286s7.349-8.163,12.579-7.988c3.54.118,6.792,1.843,10.131,3.026A34.083,34.083,0,0,0,48.5,50.2a11.779,11.779,0,0,0,5.614-1c2.824-1.456,4.32-4.565,6.54-6.837,5.58-5.712,14.951-5.4,22.509-2.821,3.463,1.181,7.03,2.774,10.634,2.137,2.472-.438,4.631-1.882,6.707-3.292,6-4.07,12.905-8.324,19.992-6.81,3.457.739,6.463,2.785,9.605,4.408a30.618,30.618,0,0,0,14.7,3.723,19.924,19.924,0,0,0,13.8-5.719c-.4,2.618-2.332,4.418-4.732,5.535A25.5,25.5,0,0,1,137.812,41.3c-4.606-1.008-8.83-3.276-13.316-4.728s-9.626-2.012-13.735.3c-2.939,1.653-4.954,4.548-7.616,6.618-6.994,5.44-17.1,4.288-25.39,1.171a37.847,37.847,0,0,0-8.013-2.536c-2.783-.381-5.859.152-7.837,2.144-2.082,2.1-2.56,5.35-4.454,7.618-1.878,2.25-4.9,3.221-7.808,3.551-7.964.9-13.446-4.087-21.037-4.4a12.053,12.053,0,0,0-8.1,2.328A16.013,16.013,0,0,0,16.8,58.316a33.648,33.648,0,0,0-3.891,10.16" transform="translate(-.981 -31.263)" fill="url(#linear-gradient)"/></g><g id="Group_353" data-name="Group 353" transform="translate(12.073 88.779)"><circle id="Ellipse_238" data-name="Ellipse 238" cx="3.766" cy="3.766" r="3.766" fill="#3f3d56"/><circle id="Ellipse_239" data-name="Ellipse 239" cx="2.385" cy="2.385" r="2.385" transform="translate(1.381 1.381)" fill="#eb1c24"/></g><circle id="Ellipse_240" data-name="Ellipse 240" cx="3.766" cy="3.766" r="3.766" transform="translate(21.083 88.779)" fill="#3f3d56"/><circle id="Ellipse_241" data-name="Ellipse 241" cx="2.385" cy="2.385" r="2.385" transform="translate(22.463 90.16)" fill="#eb1c24"/><circle id="Ellipse_242" data-name="Ellipse 242" cx="3.766" cy="3.766" r="3.766" transform="translate(30.611 88.779)" fill="#3f3d56"/><circle id="Ellipse_243" data-name="Ellipse 243" cx="2.385" cy="2.385" r="2.385" transform="translate(31.992 90.16)" fill="#eb1c24"/><circle id="Ellipse_244" data-name="Ellipse 244" cx="3.766" cy="3.766" r="3.766" transform="translate(39.576 88.779)" fill="#3f3d56"/><circle id="Ellipse_245" data-name="Ellipse 245" cx="2.385" cy="2.385" r="2.385" transform="translate(40.957 90.16)" fill="#eb1c24"/><circle id="Ellipse_246" data-name="Ellipse 246" cx="3.075" cy="3.075" r="3.075" transform="translate(63.612 90.16)" fill="#3f3d56"/><circle id="Ellipse_247" data-name="Ellipse 247" cx="1.947" cy="1.947" r="1.947" transform="translate(64.74 91.288)" fill="#eb1c24"/><circle id="Ellipse_248" data-name="Ellipse 248" cx="3.075" cy="3.075" r="3.075" transform="translate(70.579 90.16)" fill="#3f3d56"/><circle id="Ellipse_249" data-name="Ellipse 249" cx="1.947" cy="1.947" r="1.947" transform="translate(71.707 91.288)" fill="#eb1c24"/><circle id="Ellipse_250" data-name="Ellipse 250" cx="3.075" cy="3.075" r="3.075" transform="translate(114.828 90.16)" fill="#3f3d56"/><circle id="Ellipse_251" data-name="Ellipse 251" cx="1.947" cy="1.947" r="1.947" transform="translate(115.956 91.288)" fill="#eb1c24"/><circle id="Ellipse_252" data-name="Ellipse 252" cx="3.075" cy="3.075" r="3.075" transform="translate(121.794 90.16)" fill="#3f3d56"/><circle id="Ellipse_253" data-name="Ellipse 253" cx="1.947" cy="1.947" r="1.947" transform="translate(122.921 91.288)" fill="#eb1c24"/><circle id="Ellipse_254" data-name="Ellipse 254" cx="3.075" cy="3.075" r="3.075" transform="translate(132.167 90.16)" fill="#3f3d56"/><circle id="Ellipse_255" data-name="Ellipse 255" cx="1.947" cy="1.947" r="1.947" transform="translate(133.294 91.288)" fill="#eb1c24"/><circle id="Ellipse_256" data-name="Ellipse 256" cx="3.075" cy="3.075" r="3.075" transform="translate(139.133 90.16)" fill="#3f3d56"/><circle id="Ellipse_257" data-name="Ellipse 257" cx="1.947" cy="1.947" r="1.947" transform="translate(140.261 91.288)" fill="#eb1c24"/><circle id="Ellipse_258" data-name="Ellipse 258" cx="3.075" cy="3.075" r="3.075" transform="translate(183.367 90.16)" fill="#3f3d56"/><circle id="Ellipse_259" data-name="Ellipse 259" cx="1.947" cy="1.947" r="1.947" transform="translate(184.495 91.288)" fill="#eb1c24"/><circle id="Ellipse_260" data-name="Ellipse 260" cx="3.075" cy="3.075" r="3.075" transform="translate(190.333 90.16)" fill="#3f3d56"/><circle id="Ellipse_261" data-name="Ellipse 261" cx="1.947" cy="1.947" r="1.947" transform="translate(191.461 91.288)" fill="#eb1c24"/><path id="Rectangle_559" data-name="Rectangle 559" transform="translate(.554 96.311)" fill="#3f3d56" d="M0 0H199.237V2.256H0z"/><ellipse id="Ellipse_262" data-name="Ellipse 262" cx="9.481" cy="1.603" rx="9.481" ry="1.603" transform="translate(22.043 110.297)" fill="#039de6"/><path id="Path_1504" data-name="Path 1504" d="M32.761,98.473a2.745,2.745,0,0,0,.9-1.365,1.218,1.218,0,0,0-.632-1.389,1.779,1.779,0,0,0-1.67.587,2.219,2.219,0,0,1-1.623.785,2.477,2.477,0,0,0,.765-2.314.981.981,0,0,0-.212-.471c-.323-.344-.906-.2-1.292.074a4.818,4.818,0,0,0-1.57,4.027,7.638,7.638,0,0,1-.021-1.651,1.7,1.7,0,0,0-.624-1.468,1.868,1.868,0,0,0-.944-.221,1.966,1.966,0,0,0-1.54.438,1.52,1.52,0,0,0,.059,1.886,6,6,0,0,0,1.6,1.278,3.515,3.515,0,0,1,1.138,1.088.984.984,0,0,1,.085.2h3.456A9.554,9.554,0,0,0,32.761,98.473Z" transform="translate(2.685 10.806)" fill="#039de6"/><ellipse id="Ellipse_263" data-name="Ellipse 263" cx="7.392" cy="1.249" rx="7.392" ry="1.249" transform="translate(156.613 109.633)" fill="#039de6"/><path id="Path_1505" data-name="Path 1505" d="M150.653,97.979a2.145,2.145,0,0,0,.7-1.064.949.949,0,0,0-.493-1.082c-.451-.173-.935.142-1.3.458a1.735,1.735,0,0,1-1.265.612,1.931,1.931,0,0,0,.6-1.8.767.767,0,0,0-.165-.368c-.252-.269-.705-.154-1.006.057a3.751,3.751,0,0,0-1.224,3.139,5.908,5.908,0,0,1-.017-1.286,1.326,1.326,0,0,0-.487-1.145,1.459,1.459,0,0,0-.736-.173,1.527,1.527,0,0,0-1.2.342,1.185,1.185,0,0,0,.046,1.47,4.663,4.663,0,0,0,1.245,1,2.745,2.745,0,0,1,.887.848.711.711,0,0,1,.066.153H149A7.441,7.441,0,0,0,150.653,97.979Z" transform="translate(16.409 10.86)" fill="#039de6"/></g></svg>