<svg data-name="размещение в гостицах -01" xmlns="http://www.w3.org/2000/svg" width="160" height="121.093" viewBox="0 0 160 121.093"><path data-name="Rectangle 569" fill="#eb1c24" d="M100.564 47.991h11.123v4.93h-11.123z"/><path data-name="Path 1542" d="M153.325 49.741V31.147h-10.333V19.07H136v12.077h-10.327V49.74h-5.722V7.946h-11.6V3.973H92.936V0H77.68v3.973H63.218v3.974H50.665v41.635h-6.673V30.988H33.659V18.911h-6.992v12.077H16.339v18.594H9.664v65.951H24.92V92.172h10.489v23.361h41V88.355h17.8v27.175H119v.159h15.256V92.33h10.489v23.361h15.256v-65.95zM15.147 57.689h6.039v4.767h-6.039zm.079 13.349h6.039V75.8h-6.039zm6.118 18.116h-6.039v-4.767h6.039zm15.812-43.066H23.17v-2.86h13.985zm0-4.132H23.17v-2.863h13.985zm0-4.132H23.17v-2.86h13.985zm1.987 19.864h6.039v4.767h-6.039zm.079 13.349h6.039V75.8h-6.039zm6.118 18.116h-6.039v-4.766h6.039zm24.711-7.946H58.928v-4.925h11.124zm0-14.144H58.928v-4.93h11.124zm0-14.144H58.928v-4.925h11.124zm0-14.144H58.928V33.85h11.124zm0-14.144H58.928v-4.925h11.124zm20.818 56.576H79.746V76.28h11.125zm0-14.144H79.746v-4.93h11.125zm0-14.144H79.746v-4.926h11.125zm0-14.144H79.746v-4.926h11.125zm0-14.144H79.746v-4.925h11.125zM111.687 81.2h-11.123v-4.921h11.128zm0-14.144h-11.123v-4.923h11.128zm0-14.144h-11.123v-4.921h11.128zm0-14.144h-11.123v-4.921h11.128zm0-14.144h-11.123v-4.918h11.128zm12.793 33.213h6.039v4.767h-6.039zm.079 13.349h6.039v4.767h-6.039zm6.118 18.116h-6.039v-4.761h6.039zm15.815-43.06h-13.99v-2.86h13.99zm0-4.132h-13.99v-2.86h13.99zm0-4.132h-13.99v-2.86h13.99zm1.987 19.865h6.039v4.767h-6.039zm.079 13.349h6.034v4.768h-6.039zm6.118 18.116h-6.039v-4.766h6.039z" fill="#0c9add" opacity=".1"/><path data-name="Path 1543" d="M19.07 99.437a28.328 28.328 0 01-.221 2.071l1.943-2.155.011.036a5.684 5.684 0 00-.568-1.483l.012.034z" fill="#0c9add"/><path data-name="Path 1544" d="M19.078 99.325l1.14-1.45a2.986 2.986 0 00-1.019-1.086l-.063-.036c.006.172.035 1.177-.058 2.572z" fill="#0c9add"/><path data-name="Path 1545" d="M18.05 105.009c-.05.152-.1.3-.155.449l2.861-1.677v.042c.06-.26.109-.522.149-.782l-2.857 1.988z" fill="#0c9add"/><path data-name="Path 1546" d="M18.448 103.601l2.578-2.125.007.04a8.928 8.928 0 00-.221-2.089l-1.98 2.2q-.156 1.033-.384 1.974z" fill="#0c9add"/><path data-name="Path 1547" d="M18.787 101.58l-3.083-3.443.017-.039a7.413 7.413 0 00-.74 1.3l3.519 3.747c.119-.542.213-1.072.287-1.565z" fill="#0c9add"/><path data-name="Path 1548" d="M14.947 99.48l.016-.039z" fill="#eb1c24"/><path data-name="Path 1549" d="M14.775 99.903l-.016.039z" fill="#eb1c24"/><path data-name="Path 1550" d="M18.479 103.241l-3.532-3.756q-.089.205-.172.422l3.61 3.733c.034-.134.068-.267.094-.399z" fill="#0c9add"/><path data-name="Path 1551" d="M20.917 102.993a10.671 10.671 0 00.115-1.428l-2.612 2.154q-.156.627-.341 1.2l2.833-1.972z" fill="#0c9add"/><path data-name="Path 1552" d="M14.307 103.259l2.859 3.733a12.792 12.792 0 00.622-1.4l-3.488-3.664a10.3 10.3 0 00-.012 1.376z" fill="#0c9add"/><path data-name="Path 1553" d="M19.084 96.751l.026-.012a2.016 2.016 0 00-1.956.041l1.872 2.543a25.722 25.722 0 00.058-2.572z" fill="#0c9add"/><path data-name="Path 1554" d="M17.802 105.705a12.819 12.819 0 01-.562 1.263l2.876-1.488v.042a5.025 5.025 0 00.5-1.166q.068-.241.125-.484l-2.9 1.7a.515.515 0 01-.039.133z" fill="#0c9add"/><path data-name="Path 1555" d="M19.02 99.435l-1.916-2.6.018-.037a4.286 4.286 0 00-1.38 1.273l3.059 3.412c.106-.731.179-1.427.219-2.048z" fill="#0c9add"/><path data-name="Path 1556" d="M17.818 105.502a17.228 17.228 0 00.544-1.778l-3.619-3.745q-.129.351-.237.73a6.251 6.251 0 00-.2 1.108l3.506 3.685z" fill="#0c9add"/><path data-name="Path 1557" d="M21.537 109.543c-.436.456-.937.953-1.492 1.453l2.871-.42-.015.035a5.674 5.674 0 00.508-1.5l-.012.034z" fill="#0c9add"/><path data-name="Path 1558" d="M23.321 107.587l-.026-.068c-.1.136-.723.929-1.684 1.944l1.8-.39a2.98 2.98 0 00-.09-1.486z" fill="#0c9add"/><path data-name="Path 1559" d="M17.193 113.186q-.2.128-.406.247l3.274.533-.024.035q.319-.244.614-.508l-3.467-.291z" fill="#0c9add"/><path data-name="Path 1560" d="M18.4 112.355l3.34.007-.02.036a8.9 8.9 0 001.163-1.75l-2.925.428q-.783.699-1.558 1.279z" fill="#0c9add"/><path data-name="Path 1561" d="M17.273 113.135l3.44.289-.022.036a10.578 10.578 0 001-1.027l-3.386-.007q-.52.383-1.032.709z" fill="#0c9add"/><path data-name="Path 1562" d="M13.06 114.837l.076-.077a8.839 8.839 0 002.044-.583l.093-2.479c.028-.063.055-.126.081-.19l-.1 2.638a12.792 12.792 0 001.372-.683l-.319-4.608.075-.039.319 4.6a17.223 17.223 0 001.552-1.02l-.348-4.533.074-.054.348 4.533q.165-.123.326-.246l-.287-4.59.074-.06.287 4.594c.444-.344.852-.692 1.223-1.025l-.178-4.617.037-.02a7.102 7.102 0 00-.39.116 6.491 6.491 0 00.664-.906l-2.9 1.5a9.777 9.777 0 01-.676 1.1c-.052.049-.1.1-.155.149v.055l-.071.089-.005-.075c-.036.037-.072.077-.108.116a9.107 9.107 0 00.964-1.473l-2.837-3.7c.02.331.052.664.089.995a5.583 5.583 0 00-.951-1.162l.022.028-.656 1.787c.152.612.3 1.3.429 2.038l1.165-2.613.017.122-1.163 2.607q.172 1.036.247 2l1.4-2.192.024.094-1.405 2.219q.047.644.047 1.252l1.706-2.251.027.089-1.724 2.275-.008-.018c0 .161 0 .319-.009.475l1.924-2.166.028.084-1.956 2.2a1.122 1.122 0 01-.006.145 12.722 12.722 0 01-.144 1.374l.186-.188-.1.216-.106.107c-.012.069-.026.138-.039.206l-.113.251c.035-.156.068-.314.1-.472l-3.844-2.644a23.687 23.687 0 003.012 5.16 6.173 6.173 0 00.267-.564l.055-.002-.03.07h-.036l.03.009c-.058.134-.117.267-.178.395.084-.076.212-.195.364-.346a10.144 10.144 0 005.422 0l-3.194-.7a8.911 8.911 0 01-2.133.6zm2.244-4.042l.076-.077v.116l-.076.077z" fill="#0c9add"/><path data-name="Path 1563" d="M23.258 107.484l.027.007a2.018 2.018 0 00-1.531-1.215l-.178 3.153a26.288 26.288 0 001.682-1.945z" fill="#0c9add"/><path data-name="Path 1564" d="M16.558 113.566a12.725 12.725 0 01-1.238.614l3.164.688-.024.034a5.074 5.074 0 001.132-.577c.138-.1.272-.192.4-.292l-3.313-.54z" fill="#0c9add"/><path data-name="Path 1565" d="M20.019 110.949c.548-.5 1.044-.987 1.474-1.437l.184-3.225.037-.017a4.292 4.292 0 00-1.874.1z" fill="#0c9add"/><path data-name="Path 1566" d="M13.407 103.163a2.982 2.982 0 00-1.3-.717l-.071-.014c.059.161.4 1.108.74 2.463z" fill="#eb1c24"/><path data-name="Path 1567" d="M13.189 107.132l-4-2.319v-.042a7.457 7.457 0 00-.3 1.468l4.5 2.476a15.563 15.563 0 00-.2-1.583z" fill="#0c9add"/><path data-name="Path 1568" d="M13.414 108.809l-4.521-2.486c-.014.148-.025.3-.033.454l4.587 2.436a25.4 25.4 0 00-.033-.404z" fill="#0c9add"/><path data-name="Path 1569" d="M13.48 111.252l-4.45-2.406a10.273 10.273 0 00.414 1.313l.006-.046 3.871 2.667a12.756 12.756 0 00.159-1.528z" fill="#0c9add"/><path data-name="Path 1570" d="M11.981 102.447l.02-.019a2.017 2.017 0 00-1.845.643l2.566 1.84c-.37-1.467-.736-2.45-.741-2.464z" fill="#eb1c24"/><path data-name="Path 1571" d="M12.748 105.021l-2.626-1.882.005-.041a4.29 4.29 0 00-.918 1.636l3.964 2.3a27.11 27.11 0 00-.425-2.013z" fill="#0c9add"/><path data-name="Path 1572" d="M13.484 111.162a17.256 17.256 0 00-.031-1.857l-4.6-2.444q-.015.373 0 .768a6.206 6.206 0 00.153 1.115l4.476 2.42z" fill="#0c9add"/><path data-name="Path 1573" d="M155.102 98.961a28.328 28.328 0 01-.221 2.071l1.943-2.155.011.036a5.684 5.684 0 00-.568-1.483l.012.034z" fill="#0c9add"/><path data-name="Path 1574" d="M155.11 98.849l1.14-1.45a2.986 2.986 0 00-1.019-1.086l-.063-.036c.006.172.035 1.177-.058 2.572z" fill="#0c9add"/><path data-name="Path 1575" d="M154.083 104.533c-.05.152-.1.3-.155.449l2.861-1.677v.042c.06-.26.109-.522.149-.782l-2.857 1.988z" fill="#0c9add"/><path data-name="Path 1576" d="M154.48 103.125l2.578-2.125.007.04a8.931 8.931 0 00-.22-2.09l-1.98 2.2q-.157 1.034-.385 1.975z" fill="#0c9add"/><path data-name="Path 1577" d="M154.822 101.103l-3.084-3.441.017-.039a7.413 7.413 0 00-.74 1.3l3.518 3.747c.118-.544.212-1.074.289-1.567z" fill="#0c9add"/><path data-name="Path 1578" d="M150.98 99.004l.016-.039z" fill="#eb1c24"/><path data-name="Path 1579" d="M154.511 102.765l-3.532-3.76q-.089.205-.172.422l3.61 3.733c.031-.136.065-.263.094-.395z" fill="#0c9add"/><path data-name="Path 1580" d="M150.808 99.426l-.016.039z" fill="#eb1c24"/><path data-name="Path 1581" d="M156.949 102.516a10.672 10.672 0 00.115-1.428l-2.612 2.154q-.156.623-.341 1.2l2.833-1.972z" fill="#0c9add"/><path data-name="Path 1582" d="M150.339 102.782l2.859 3.733a12.793 12.793 0 00.622-1.4l-3.488-3.664a10.3 10.3 0 00-.012 1.376z" fill="#0c9add"/><path data-name="Path 1583" d="M155.116 96.273l.026-.012a2.016 2.016 0 00-1.956.041l1.872 2.543c.102-1.508.058-2.556.058-2.572z" fill="#0c9add"/><path data-name="Path 1584" d="M153.835 105.229a12.818 12.818 0 01-.562 1.263l2.876-1.488v.042a5.024 5.024 0 00.5-1.166q.068-.241.125-.484l-2.9 1.7a.545.545 0 01-.039.133z" fill="#0c9add"/><path data-name="Path 1585" d="M155.052 98.959l-1.916-2.6.018-.037a4.286 4.286 0 00-1.38 1.273l3.059 3.412c.106-.732.179-1.428.219-2.048z" fill="#0c9add"/><path data-name="Path 1586" d="M153.851 105.026a17.23 17.23 0 00.544-1.778l-3.619-3.745q-.129.351-.237.73a6.251 6.251 0 00-.2 1.108l3.508 3.684z" fill="#0c9add"/><path data-name="Path 1587" d="M157.57 109.067c-.436.456-.938.953-1.492 1.453l2.87-.42-.015.035a5.673 5.673 0 00.508-1.5l-.012.034z" fill="#0c9add"/><path data-name="Path 1588" d="M159.354 107.111l-.026-.068c-.1.136-.723.929-1.684 1.944l1.8-.39a2.99 2.99 0 00-.09-1.486z" fill="#0c9add"/><path data-name="Path 1589" d="M153.226 112.711q-.2.128-.406.247l3.274.533-.024.035q.319-.244.614-.508l-3.467-.291z" fill="#0c9add"/><path data-name="Path 1590" d="M154.432 111.878l3.34.007-.02.036a8.9 8.9 0 001.163-1.75l-2.925.428q-.782.699-1.558 1.279z" fill="#0c9add"/><path data-name="Path 1591" d="M153.305 112.659l3.44.288-.022.036a10.579 10.579 0 001-1.027l-3.386-.007q-.52.384-1.032.71z" fill="#0c9add"/><path data-name="Path 1592" d="M149.093 114.361l.076-.077a8.839 8.839 0 002.044-.583l.093-2.479c.028-.063.055-.126.081-.19l-.1 2.638a12.792 12.792 0 001.372-.683l-.319-4.608.075-.039.319 4.6a17.222 17.222 0 001.552-1.02l-.348-4.533.074-.054.348 4.533q.165-.123.326-.246l-.287-4.59.074-.06.287 4.594c.444-.344.852-.692 1.223-1.025l-.178-4.616.037-.02a7.102 7.102 0 00-.39.116 6.489 6.489 0 00.664-.906l-2.9 1.5a9.778 9.778 0 01-.676 1.1c-.052.049-.1.1-.155.149v.055l-.071.089-.005-.075c-.036.037-.072.077-.108.116a9.107 9.107 0 00.964-1.473l-2.838-3.7c.02.331.052.664.089.995a5.583 5.583 0 00-.951-1.162l.022.028-.656 1.787c.152.612.3 1.3.429 2.038l1.165-2.613.017.122-1.163 2.607q.172 1.036.247 2l1.4-2.192.024.094-1.411 2.215q.047.644.047 1.252l1.706-2.251.027.089-1.732 2.278-.008-.018c0 .161 0 .319-.009.475l1.924-2.166.028.084-1.956 2.2a1.121 1.121 0 01-.006.145 12.722 12.722 0 01-.144 1.374l.186-.188-.1.216-.106.107c-.012.069-.026.138-.039.206l-.113.251c.035-.156.068-.314.1-.472l-3.844-2.644a23.688 23.688 0 003.012 5.16 6.171 6.171 0 00.267-.564l.071-.007-.03.07h-.036l.03.009c-.058.134-.117.267-.178.395.084-.076.212-.195.364-.346a10.144 10.144 0 005.422 0l-3.194-.7a8.917 8.917 0 01-2.135.613zm2.244-4.042l.076-.077v.116l-.076.077z" fill="#0c9add"/><path data-name="Path 1593" d="M159.29 107.007l.027.007a2.018 2.018 0 00-1.531-1.215l-.178 3.153a26.288 26.288 0 001.682-1.945z" fill="#0c9add"/><path data-name="Path 1594" d="M152.59 113.089a12.726 12.726 0 01-1.238.614l3.164.688-.024.034a5.056 5.056 0 001.132-.577c.138-.1.273-.192.4-.292l-3.313-.54z" fill="#0c9add"/><path data-name="Path 1595" d="M156.055 110.472a29.79 29.79 0 001.473-1.437l.184-3.225.037-.017a4.282 4.282 0 00-1.875.1z" fill="#0c9add"/><path data-name="Path 1596" d="M149.439 102.686a2.982 2.982 0 00-1.3-.717l-.071-.014c.059.161.4 1.108.74 2.463z" fill="#eb1c24"/><path data-name="Path 1597" d="M149.226 106.656l-4-2.319v-.042a7.456 7.456 0 00-.3 1.468l4.5 2.476a17.831 17.831 0 00-.2-1.583z" fill="#eb1c24"/><path data-name="Path 1598" d="M149.446 108.33l-4.521-2.484c-.014.148-.025.3-.033.454l4.588 2.437c-.01-.136-.022-.268-.034-.407z" fill="#eb1c24"/><path data-name="Path 1599" d="M149.513 110.775l-4.45-2.406a10.27 10.27 0 00.414 1.313l.006-.046 3.871 2.667a12.761 12.761 0 00.159-1.528z" fill="#eb1c24"/><path data-name="Path 1600" d="M148.014 101.97l.02-.019a2.017 2.017 0 00-1.845.643l2.567 1.84c-.371-1.467-.737-2.449-.742-2.464z" fill="#eb1c24"/><path data-name="Path 1601" d="M148.784 104.544l-2.626-1.882.005-.041a4.29 4.29 0 00-.918 1.636l3.964 2.3a29.315 29.315 0 00-.425-2.013z" fill="#eb1c24"/><path data-name="Path 1602" d="M149.516 110.685a17.252 17.252 0 00-.031-1.857l-4.6-2.444q-.015.373 0 .768a6.2 6.2 0 00.153 1.115l4.476 2.42z" fill="#eb1c24"/><path data-name="Path 1603" d="M9.665 115.532h150.334v2.151a3.412 3.412 0 01-3.411 3.411H13.076a3.411 3.411 0 01-3.411-3.411z" fill="#2f2e41"/><path data-name="Rectangle 570" fill="#3f3d56" d="M9.664 113.784h150.335v3.02H9.664z"/><path data-name="Path 1604" d="M126.173 10.484l1.726 1.1-1.048-1.906a1.7 1.7 0 011.044-.372h.028a1.983 1.983 0 00.356-.027l.585.371-.251-.456a2.079 2.079 0 001.024-.777l1.047.664-.661-1.2a3.063 3.063 0 012.347-1.186 3.215 3.215 0 012.685 1.657 2.008 2.008 0 001.778.957h.059c1.2 0 2.177 1.364 2.177 3.044s-.978 3.044-2.177 3.044a1.636 1.636 0 01-.758-.19 3.141 3.141 0 00-2.635-.052 2.747 2.747 0 01-2.24.005 3.144 3.144 0 00-2.612.051 1.635 1.635 0 01-.75.186c-1.2 0-2.177-1.364-2.177-3.044a3.869 3.869 0 01.454-1.861z" fill="#0c9add" opacity=".1"/><path data-name="Path 1605" d="M38.334 19.426l1.1.7-.667-1.212a1.08 1.08 0 01.664-.237h.013a1.3 1.3 0 00.228-.017l.372.236-.159-.29a1.324 1.324 0 00.652-.494l.666.422-.421-.765a1.948 1.948 0 011.492-.755 2.045 2.045 0 011.708 1.054 1.277 1.277 0 001.129.609h.037c.764 0 1.385.868 1.385 1.937s-.622 1.937-1.385 1.937a1.039 1.039 0 01-.483-.121 2 2 0 00-1.676-.033 1.746 1.746 0 01-1.422 0 2 2 0 00-1.661.032 1.039 1.039 0 01-.477.118c-.764 0-1.385-.868-1.385-1.937a2.464 2.464 0 01.29-1.184z" fill="#0c9add" opacity=".1"/><path data-name="Path 1606" d="M8.775 23.16l1.1.7-.667-1.212a1.08 1.08 0 01.663-.241h.018a1.3 1.3 0 00.228-.017l.372.236-.16-.29a1.324 1.324 0 00.652-.494l.666.422-.42-.765a1.948 1.948 0 011.492-.755 2.045 2.045 0 011.708 1.054 1.277 1.277 0 001.128.609h.037c.764 0 1.385.868 1.385 1.937s-.622 1.937-1.385 1.937a1.039 1.039 0 01-.483-.121 2 2 0 00-1.676-.033 1.746 1.746 0 01-1.422 0 2 2 0 00-1.661.032 1.039 1.039 0 01-.477.118c-.764 0-1.385-.868-1.385-1.937a2.464 2.464 0 01.287-1.18z" fill="#0c9add" opacity=".1"/><path data-name="Path 1607" d="M48.426 94.852l-.192.192s.064 2.11.128 2.557a4.106 4.106 0 01.128 1.79 2.189 2.189 0 00-.192 1.087c.064.064-.064.32-.064.32l.512-.32.831-1.918-.384-2.044z" fill="#eb1c24"/><path data-name="Path 1608" d="M48.426 94.852l-.192.192s.064 2.11.128 2.557a4.106 4.106 0 01.128 1.79 2.189 2.189 0 00-.192 1.087c.064.064-.064.32-.064.32l.512-.32.831-1.918-.384-2.044z" opacity=".1"/><path data-name="Path 1609" d="M51.815 114.733s0-.7-.128-.831-.32-.575-.575-.575a3.607 3.607 0 00-1.151.32 1.175 1.175 0 01-.128.575c-.128.192-.831.959-.128 1.087a1.786 1.786 0 001.343-.32c.064-.064.32-.128.384-.064s.383-.192.383-.192z" fill="#eb1c24"/><path data-name="Path 1610" d="M53.604 113.587l.384.7s.128.639.32.7h.191s.192.7.639.639.959-.32.959-.444 0-.511-.192-.639a8.974 8.974 0 01-.767-.7l-.32-.32z" fill="#eb1c24"/><path data-name="Path 1611" d="M48.698 90.164a.864.864 0 00-.462.646c-.036.457.416.889.267 1.321-.083.246-.34.406-.413.655a.9.9 0 00.083.585 4.447 4.447 0 00.367.711 3.591 3.591 0 01.692 1.321.561.561 0 01-.124.5 1.191 1.191 0 01.436-.207 5.553 5.553 0 001.79-1 1.115 1.115 0 00.414-.55c.1-.393-.2-.786-.172-1.189a2.969 2.969 0 01.252-.732 1.888 1.888 0 00-.164-1.472 1.753 1.753 0 00-1.045-.909 2.075 2.075 0 00-1.056.03 3.855 3.855 0 00-.865.29z" fill="#2f2e41"/><path data-name="Path 1612" d="M49.057 93.71a1.658 1.658 0 011.446-.873c1.023 0 .831-.064.831-.064l-.32 1.279-.639.639z" fill="#eb1c24"/><path data-name="Path 1613" d="M49.321 92.357s.575.959.192 1.343a.622.622 0 00-.128.831c.064.064 1.854.192 1.854.192l.064-.9.192-.767s-1.023-.192-.9-.639-1.274-.06-1.274-.06z" fill="#fbbebe"/><path data-name="Path 1614" d="M49.321 92.357s.575.959.192 1.343a.622.622 0 00-.128.831c.064.064 1.854.192 1.854.192l.064-.9.192-.767s-1.023-.192-.9-.639-1.274-.06-1.274-.06z" opacity=".1"/><path data-name="Path 1615" d="M53.796 101.438a4.358 4.358 0 01-.256.639c-.064.064-.256-.444-.256-.444l.192-.444z" fill="#fbbebe"/><path data-name="Path 1616" d="M53.061 98.528l.256 1.471h-3.836l.192-1.471z" fill="#fbbebe"/><circle data-name="Ellipse 267" cx="1.215" cy="1.215" r="1.215" transform="translate(48.809 90.439)" fill="#fbbebe"/><path data-name="Path 1617" d="M50.28 94.149s-.7.064-.7-.064-.064-.512-.192-.444-.959.128-.9.32.192.575.064.575a.416.416 0 00-.325.491l.005.021c.064.32.767 2.238.767 2.238a1.92 1.92 0 00.256.831.575.575 0 010 .7c-.128.128.32.256.512.511s1.662.064 1.726 0 1.6-.064 1.726-.192-.064-.512-.064-.512a3 3 0 010-.767 16.562 16.562 0 00-.444-3.516c-.192-.192.575-.767.575-.767s-.128-.512-.959-.575c0 0-.256-.384-.512-.384a2.71 2.71 0 00-.812.3s-.148.853-.34.917a1.049 1.049 0 00-.383.317z" fill="#eb1c24"/><path data-name="Path 1618" d="M52.834 93.381l.444.192s1.279 3.964 1.151 4.732a18.64 18.64 0 01-.639 3.389c-.195 0-.575-.384-.575-.384v-.639c0-.128-.192-.512-.064-.512s.32-.128.192-.256-.256-.32-.128-.512.192-.256.128-.444-.192-.384-.064-.511-.32-.767-.32-.767l-.7-2.813.128-1.151z" fill="#eb1c24"/><path data-name="Path 1619" d="M53.093 99.455s-2.43-.192-2.749-.192a4.182 4.182 0 01-1.037-.3 5.457 5.457 0 00-1.2 4.841c.639 3.005.767 6.714 1.151 7.8a20.34 20.34 0 01.639 2.366s.639-1.151 1.854.128a3.338 3.338 0 00-.064-1.343 16.835 16.835 0 01-.444-2.43s-.444-3.261-.444-3.644-.256-3.644-.192-3.708.384 2.493.444 2.941.256 3.9.444 4.284 1.087 3.453 1.6 3.644a4.229 4.229 0 002.174-.192 24.765 24.765 0 00-.639-1.023l-.512-.767-1.213-4.156.575-5.052s.316-3.261-.387-3.197z" fill="#2f2e41"/><path data-name="Path 1620" d="M50.764 91.495h-1.562a.278.278 0 01-.274-.234l-.155-.978h2.43l-.217 1.032a.23.23 0 01-.222.18z" fill="#2f2e41"/><path data-name="Path 1621" d="M131.061 91.191h2.456V94.7a2.458 2.458 0 01-2.459-2.459z" fill="#2f2e41"/><path data-name="Path 1622" d="M129.628 111.765l-.178.878h1.229l.059-.878z" fill="#a0616a"/><path data-name="Path 1623" d="M129.628 112.467s-.234-.178-.356-.059-.527 2.4-.586 2.459-1.814.936-1.4.995a9.386 9.386 0 002.222 0 6.145 6.145 0 00.878-1.229v.995h.117a3.3 3.3 0 01.41-1.346c.292-.292-.234-1.288-.234-1.288s.117-.644.059-.644-1.11.117-1.11.117z" fill="#eb1c24"/><path data-name="Path 1624" d="M133.256 111.15l-.178.878h1.228l.059-.878z" fill="#a0616a"/><path data-name="Path 1625" d="M131.851 105.443s.586 1.756.7 1.932.527 3.453.527 3.453-.41.644.117.7.292-.117.644 0a.66.66 0 00.585-.059s.178-.356.059-.468a27.59 27.59 0 01.117-3.161l-.356-1.053-.292-3.336s.356-.878.178-1.112-.761.178-.761.178z" fill="#2f2e41"/><path data-name="Path 1626" d="M131.089 100.878a13.548 13.548 0 01-.292 1.99c-.117.117-1.4 3.395-1.4 3.395s-.356.41-.234 1.932.41 3.044.41 3.044-.234.878.178.878.585-.234.761-.059.292 0 .356-.117a3.112 3.112 0 00.292-.644c0-.117.234-3.1.234-3.1s1.932-4.273 2.107-4.507a4.831 4.831 0 001.112-2.4z" fill="#2f2e41"/><circle data-name="Ellipse 268" cx="1.229" cy="1.229" r="1.229" transform="translate(131.325 90.519)" fill="#a0616a"/><path data-name="Path 1627" d="M132.319 92.801a13.231 13.231 0 01.527 1.346c.059.292 1.171-.585 1.171-.585s-.585-.995-.41-1.463z" fill="#a0616a"/><path data-name="Path 1628" d="M134.193 93.386s-.878-.644-1.522.7-.82 1.288-.82 1.288-.761.234-.527 1.873-.761 3.8-.356 3.922 4.214.761 4.214.292a12.478 12.478 0 01-.059-3.395c.299-1.11-.404-4.973-.93-4.68z" fill="#3f3d56"/><path data-name="Path 1629" d="M133.314 93.679a3.8 3.8 0 00-.644 1.873c.059.82.059 1.346.059 1.346s-1.171 5.619-.937 5.619.937.292.995.117 1.522-3.746 1.522-3.746.356-3.571-.059-4.389-.936-.82-.936-.82z" fill="#3f3d56"/><path data-name="Path 1630" d="M131.907 102.345s-.585 1.99.234 2.044.356-1.932.356-1.932z" fill="#a0616a"/><path data-name="Path 1631" d="M133.467 111.572s-.205-.154-.308-.052-.461 2.1-.513 2.153-1.589.82-1.23.871a8.2 8.2 0 001.948 0 5.372 5.372 0 00.769-1.076v.871h.1a2.894 2.894 0 01.356-1.179c.256-.256-.205-1.128-.205-1.128s.1-.564.052-.564-.969.104-.969.104z" fill="#eb1c24"/><path data-name="Path 1632" d="M131.946 90.945a.337.337 0 01.148-.1.313.313 0 01.162.014 1.648 1.648 0 01.9.655.511.511 0 00.178.2 1.083 1.083 0 01.147.056c.137.089.055.3-.023.444a2.24 2.24 0 00-.267 1.21.346.346 0 00.061.205.364.364 0 00.244.1 6.007 6.007 0 00.857.046 1.006 1.006 0 00.772-.258.813.813 0 00.037-.854c-.127-.273-.333-.5-.48-.764a4.485 4.485 0 01-.327-.87 3.656 3.656 0 00-.484-1.08 1.447 1.447 0 00-.972-.622 3.028 3.028 0 00-2.478 2 3.855 3.855 0 00.412 1.388 5.01 5.01 0 01.036 2.233c.434-.26.924-.622.9-1.124a2.416 2.416 0 00-.436-.913c-.445-.847.063-1.402.613-1.966z" fill="#2f2e41"/><path data-name="Path 1633" d="M149.23 96.924a4.214 4.214 0 00.556-2.133c0-1.929-1.195-3.492-2.667-3.492s-2.667 1.564-2.667 3.492a4.214 4.214 0 00.556 2.133 4.371 4.371 0 000 4.267 4.371 4.371 0 000 4.267 4.371 4.371 0 000 4.267 4.214 4.214 0 00-.556 2.133c0 1.929 1.195 3.492 2.667 3.492s2.667-1.564 2.667-3.492a4.214 4.214 0 00-.556-2.133 4.366 4.366 0 000-4.267 4.366 4.366 0 000-4.267 4.366 4.366 0 000-4.267z" fill="#3f3d56"/><ellipse data-name="Ellipse 269" cx="2.668" cy="3.492" rx="2.668" ry="3.492" transform="translate(144.452 87.03)" fill="#3f3d56"/><ellipse data-name="Ellipse 270" cx="2.668" cy="3.492" rx="2.668" ry="3.492" transform="translate(144.452 82.762)" fill="#3f3d56"/><path data-name="Path 1634" d="M157.106 57.045a12.822 12.822 0 00.994-1.462l-7.01-1.156 7.581.056a12.8 12.8 0 00.243-10.128l-10.17 5.28 9.38-6.9a12.779 12.779 0 10-21.1 14.3 12.83 12.83 0 00-1.457 2.331l9.1 4.727-9.7-3.256a12.786 12.786 0 002.06 12 12.777 12.777 0 1020.089 0 12.779 12.779 0 000-15.8z" fill="#f2f2f2"/><path data-name="Path 1635" d="M134.285 64.946a12.725 12.725 0 002.734 7.9 12.777 12.777 0 1020.089 0c1.711-2.173-22.823-9.334-22.823-7.9z" fill="#f2f2f2"/><path data-name="Path 1636" d="M157.106 57.045a12.822 12.822 0 00.994-1.462l-7.01-1.156 7.581.056a12.8 12.8 0 00.243-10.128l-10.17 5.28 9.38-6.9a12.779 12.779 0 10-21.1 14.3 12.83 12.83 0 00-1.457 2.331l9.1 4.727-9.7-3.256a12.786 12.786 0 002.06 12 12.777 12.777 0 1020.089 0 12.779 12.779 0 000-15.8z" fill="#0c9add"/><path data-name="Path 1637" d="M134.285 64.946a12.725 12.725 0 002.734 7.9 12.777 12.777 0 1020.089 0c1.711-2.173-22.823-9.334-22.823-7.9z" opacity=".1"/><path data-name="Path 1638" d="M14.946 96.924a4.214 4.214 0 00.556-2.133c0-1.929-1.195-3.492-2.667-3.492s-2.667 1.564-2.667 3.492a4.214 4.214 0 00.561 2.133 4.366 4.366 0 000 4.267 4.366 4.366 0 000 4.267 4.366 4.366 0 000 4.267 4.214 4.214 0 00-.556 2.133c0 1.929 1.195 3.492 2.667 3.492s2.667-1.564 2.667-3.492a4.214 4.214 0 00-.556-2.133 4.366 4.366 0 000-4.267c-.005-2.845.006-5.69-.005-8.534z" fill="#3f3d56"/><ellipse data-name="Ellipse 271" cx="2.668" cy="3.492" rx="2.668" ry="3.492" transform="translate(10.168 87.03)" fill="#3f3d56"/><ellipse data-name="Ellipse 272" cx="2.668" cy="3.492" rx="2.668" ry="3.492" transform="translate(10.168 82.762)" fill="#3f3d56"/><path data-name="Path 1639" d="M22.821 57.045a12.822 12.822 0 00.994-1.462l-7.01-1.156 7.58.056a12.8 12.8 0 00.244-10.124L14.46 49.635l9.38-6.9a12.779 12.779 0 10-21.1 14.306 12.831 12.831 0 00-1.457 2.331l9.1 4.727-9.7-3.256a12.786 12.786 0 002.06 12 12.777 12.777 0 1020.089 0 12.779 12.779 0 000-15.8z" fill="#f2f2f2"/><path data-name="Path 1640" d="M0 64.946a12.725 12.725 0 002.735 7.9 12.777 12.777 0 1020.089 0C24.534 70.673 0 63.512 0 64.946z" fill="#f2f2f2"/><path data-name="Path 1641" d="M22.821 57.045a12.822 12.822 0 00.994-1.462l-7.01-1.156 7.58.056a12.8 12.8 0 00.244-10.124L14.46 49.635l9.38-6.9a12.779 12.779 0 10-21.1 14.306 12.831 12.831 0 00-1.457 2.331l9.1 4.727-9.7-3.256a12.786 12.786 0 002.06 12 12.777 12.777 0 1020.089 0 12.779 12.779 0 000-15.8z" fill="#0c9add"/><path data-name="Path 1642" d="M0 64.946a12.725 12.725 0 002.735 7.9 12.777 12.777 0 1020.089 0C24.534 70.673 0 63.512 0 64.946z" opacity=".1"/><path data-name="Path 1643" d="M111.946 44.811l-6.036 6.036-2.86-2.86-1.115 1.111 3.97 3.97 7.153-7.146z" fill="#fff"/><path data-name="Rectangle 571" fill="#eb1c24" d="M58.928 62.213h11.123v4.93H58.928z"/><path data-name="Path 1644" d="M70.31 59.033l-6.036 6.036-2.86-2.86-1.115 1.111 3.97 3.97 7.153-7.146z" fill="#fff"/><path data-name="Rectangle 572" fill="#eb1c24" d="M79.746 19.711h11.123v4.93H79.746z"/><path data-name="Path 1645" d="M91.129 16.533l-6.036 6.036-2.86-2.86-1.114 1.114 3.97 3.97 7.153-7.146z" fill="#fff"/></svg>