<svg xmlns="http://www.w3.org/2000/svg" width="180" height="115.906" viewBox="0 0 180 115.906"><path data-name="Path 350" d="M130.602 108.735l-.935-11.624-2.672 12.292s.035 3.1.124 6.5h3.424c.115-3.88.059-7.168.059-7.168z" fill="#f2f2f2"/><path data-name="Path 351" d="M82.514 112.874a23.662 23.662 0 01-.556-3.3l-.374-4.021a65.737 65.737 0 00-.481-2.928c-1.191-6.107-2.421-6.328-2.421-6.328-.053.04-.1.085-.157.132a3.959 3.959 0 00-.4.425c-1.959 2.489-3.287 8.946-3.985 13.229-.385 2.366-.578 4.068-.578 4.068s.175.725.413 1.76h8.938a15.89 15.89 0 00-.399-3.037z" fill="#f2f2f2"/><path data-name="Path 352" d="M152.793 0H27.207A27.287 27.287 0 000 27.207V88.7a27.287 27.287 0 0027.207 27.207h39.8l-.514-2.418s-1.321-8.525 0-15.172a49.9 49.9 0 00.876-6.319 38.067 38.067 0 011.17-7.095c.035-.134.074-.267.111-.4-.322-.088-.47-.158-.4-.2.206-.122.32-.5.377-.969a46.385 46.385 0 012-9.229c-1.335.838-2.221.927-2.8.6-2.039-.557-1.193-5.143-1.193-5.143s1.267-9.919 1.688-13.511c.242-2.064 3.343-3.234 6.088-3.869a3.048 3.048 0 00.365-1.9c-.009-.044-.022-.087-.033-.13-.349-.775-1.058-1.413-1.325-2.216a2.337 2.337 0 01-.246-.691c-.236-1.376 1.051-2.565 1.422-3.889a3.2 3.2 0 01-.823-1.32c-.565-1.16-.29-2.552 1.526-3.626.362-.215.747-.4 1.137-.586a1.768 1.768 0 01.462-.212 7.54 7.54 0 003.383-2.3 2.042 2.042 0 01.7-.791 1.35 1.35 0 01.482-.108c2.5-.192 4.77 1.955 7.262 1.647a5.4 5.4 0 012.25-.182 2.663 2.663 0 011.168.894 9.212 9.212 0 012 7.586c-.316 1.641-1.084 3.333-.531 4.912.407 1.16 1.5 2.1 1.5 3.329a4.167 4.167 0 01-1.4 2.6q.135.138.263.284c1.693 1.929 1.373 3.575 1.134 4.234l-.871 8.4-.734 5.635s-.182 2.313-1.891 2.82a2.756 2.756 0 01-2.008.03 16.828 16.828 0 01-1.423-.5 18.794 18.794 0 01.918 6.034c-.147 3.323.294 3.612.294 3.612a.6.6 0 01-.093.092 13.621 13.621 0 01-.053 11.757c-2.055 4.479.147 14.883.147 14.883s.157 1.623.227 3.43h31.526a92.283 92.283 0 00-1.365-10.11c-.441-.882.119-15.418.328-20.467-.093-.024-.184-.047-.269-.072a5.749 5.749 0 01-.407-.133 2.965 2.965 0 00.081.764c.186.433-.259.751-1.016.968.44 2.147.983 6.141-.855 6.915-1.891.8-1.929-4.04-1.825-6.56-.238.009-.478.013-.714.013-2.271 0 .668-26.322.534-28.059s1.069-8.818 1.069-8.818.4-1.47 1.6-1.737 6.948-3.608 6.948-3.608a4.291 4.291 0 011.2-1.138v-.2a4.407 4.407 0 01.477-.386 77.992 77.992 0 00-.343-3.691 4.664 4.664 0 01-1.254-2.4 7.359 7.359 0 01-.7-.622 3.645 3.645 0 01-.9-2.275 7.189 7.189 0 01.356-2.456 2.94 2.94 0 01.31-.75 2.714 2.714 0 01.7-.693c.081-.06.165-.117.248-.173a2.34 2.34 0 01.756-.858 4.084 4.084 0 012.375-.391h.037q.227-.037.455-.06a.467.467 0 00.365-.358l.331.318q.248 0 .5.009a3.551 3.551 0 01.258-.484l.182.518c.166.018.332.04.5.069l.39-.31c.029-.023.132.315.184.431.089.023.179.047.267.075.138-.006.291-.032.377-.031a2.52 2.52 0 011.343.335 2.884 2.884 0 01.853.985 6.381 6.381 0 01.953 2.748 3.185 3.185 0 01.529 1.181c.221 1.341-1.054 2.462-1.307 3.8a6.538 6.538 0 01-.344 2.129 2.223 2.223 0 01-.612.642 4.614 4.614 0 01-.452.3 11.614 11.614 0 00.277 2.4l.172.659c.267.193.556.415.872.677 0 0 3.741 1.6 5.077 2.405 1.175.7 2.452.791 2.834 1.709l.105.028s1.336 14.831 1.47 17.37 1.737 18.171 1.47 18.839c-.1.247-.729.531-1.49.757.444 2.029 1.161 6.442-.782 7.26-1.969.829-1.929-4.451-1.811-6.862-.263-.024-.435-.092-.46-.22-.022-.109-.091-.6-.192-1.347l-.523.081-.113.017c1.694 5.329-2.058 19.461-2.779 22.227a82.331 82.331 0 00-1.15 8.636h16.526A27.287 27.287 0 00180 88.7V27.207A27.287 27.287 0 00152.793 0z" fill="#0c9add" opacity=".1"/><ellipse data-name="Ellipse 9" cx="18.23" cy="16.59" rx="18.23" ry="16.59" transform="translate(22.068 15.841)" fill="#3f3d56"/><path data-name="Path 353" d="M70.33 86.641s6.141-4.222 6.141-6.141 4.222-14.392 6.525-8.827-3.266 13.433-3.266 13.433-6.141 11.13-9.787 13.049a8.752 8.752 0 01-6.716.768v-5.181l3.508-5.192a4.335 4.335 0 013.595-1.909z" fill="#ffb9b9"/><path data-name="Path 354" d="M52.876 57.25s9.2 2.91 10.162 4.253 1.343-.959 4.03 7.868a92.261 92.261 0 013.358 17.367s-6.62 2.207-5.853 10.842a72.6 72.6 0 01-1.151 18.034h-2.4l-5.28-16.311 6.333-24.755S53.076 59.33 52.876 57.25z" fill="#575a89"/><circle data-name="Ellipse 10" cx="11.514" cy="11.514" r="11.514" transform="translate(38.284 26.194)" fill="#ffb9b9"/><path data-name="Path 355" d="M54.211 46.343s-3.262 10.746-.384 12.281 6.141 8.444 6.141 8.444l-4.989 5.565H43.465l-5.181-5.757-2.111-9.782 2.878-2.3s3.07-7.676 3.07-11.706 12.09 3.255 12.09 3.255z" fill="#ffb9b9"/><path data-name="Path 356" d="M55.167 58.24s-2.3-.576-.96 1.727 2.687 6.525-2.111 6.716-9.595-2.3-11.13-7.484-2.111-4.8-2.687-4.606-6.716 6.525-6.716 6.525l2.111 11.9.768 42.6h28.025s1.151-12.281-.768-15.16 1.727-10.171 1.727-10.171 3.262-4.989.768-14.584S56.13 58.24 55.167 58.24z" fill="#eb1c24"/><path data-name="Path 357" d="M39.627 54.595a5.05 5.05 0 00-5.373.96c-2.495 2.3-8.06 4.222-8.06 5.373s4.8 33.966 1.535 39.723a131.822 131.822 0 00-6.716 14.968H37.02s2.607-9.595 5.294-14.776 2.495-19.765 1.727-24.179-4.414-22.069-4.414-22.069z" fill="#575a89"/><path data-name="Path 358" d="M22.74 105.448l.935 10.171h10.371l-.944-12.665z" fill="#ffb9b9"/><path data-name="Path 359" d="M69.947 100.075l2.495 15.544H127.9l4.8-31.279z" fill="#3f3d56"/><path data-name="Path 360" d="M134.808 82.228l.576 2.878-71.77 17.271v-2.495z" fill="#3f3d56"/><path data-name="Path 361" d="M104.488 87.41l-.384 3.262 4.222-.576-1.727-3.262z" fill="#3f3d56"/><path data-name="Path 362" d="M81.269 54.403s8.443-.576 10.746 5.949 7.676 18.23 9.787 19.957 4.414 6.333 4.03 7.868" fill="none" stroke="#3f3d56" stroke-miterlimit="10" stroke-width="5"/><path data-name="Path 363" d="M82.519 54.307c0 .9-.958 1.631-2.495 1.631s-2.3-.73-2.3-1.631.766-1.631 2.3-1.631 2.495.73 2.495 1.631z" fill="#eb1c24"/><path data-name="Path 364" d="M68.315 84.243s1.439-6.045-1.247-14.872-3.07-6.525-4.03-7.868-10.162-4.253-10.162-4.253a26.462 26.462 0 002.417 5.3 10.207 10.207 0 00-1.082-2.583c-1.343-2.3.96-1.727.96-1.727.96 0 6.525 7.868 9.019 17.463s-.768 14.584-.768 14.584z" fill="#575a89"/><path data-name="Path 365" d="M52.964 57.185s1.136 4.31 2.1 4.937 6.7 6.587 6.7 6.587l-.746-4.808-3.07-4.606-.817-.593z" fill="#575a89"/><path data-name="Path 366" d="M27.442 70.427l.268-9.883s-6.312 2.687-6.888 14.2.959 33.2 3.07 33.39 12.09-2.111 12.09-2.111 1.535-27.825.959-31.471-9.499-4.125-9.499-4.125z" opacity=".1"/><path data-name="Path 367" d="M27.921 60.544h-1.555s-6.312 2.687-6.888 14.2.959 33.2 3.07 33.39 12.09-2.111 12.09-2.111 1.535-27.825.959-31.471-7.676-14.008-7.676-14.008z" fill="#575a89"/><ellipse data-name="Ellipse 11" cx="11.898" cy="13.337" rx="11.898" ry="13.337" transform="translate(24.179 21.301)" fill="#3f3d56"/><ellipse data-name="Ellipse 12" cx="2.399" cy="3.55" rx="2.399" ry="3.55" transform="translate(42.217 38.38)" fill="#ffb9b9"/><circle data-name="Ellipse 13" cx="9.787" cy="9.787" r="9.787" transform="translate(14.392 11.514)" fill="#3f3d56"/><path data-name="Path 368" d="M25.444 29.141a9.786 9.786 0 01-14.18-7.794 9.786 9.786 0 1019.415.545 9.772 9.772 0 01-5.235 7.249z" fill="#3f3d56"/><path data-name="Path 369" d="M18.81 22.918a9.786 9.786 0 014.928-15.412 9.786 9.786 0 103.19 19.159 9.772 9.772 0 01-8.118-3.747z" fill="#3f3d56"/><ellipse data-name="Ellipse 14" cx="6.908" cy="4.989" rx="6.908" ry="4.989" transform="translate(43.561 23.795)" fill="#3f3d56"/></svg>