<svg xmlns="http://www.w3.org/2000/svg" width="180" height="130.955" viewBox="0 0 180 130.955"><g id="undraw_QA_engineers_dg5p" transform="translate(-.01)"><path id="Path_223" data-name="Path 223" d="M97.439,302.878v63.646l-.218.06a32.381,32.381,0,0,1-4.3.9,23.954,23.954,0,0,1-9.838-.792l-.111-.032-.2-.06-.28-.087q-.705-.222-1.4-.485l-.28-.107q-.671-.258-1.314-.556l-.28-.128q-.671-.312-1.314-.66c-.154-.081-.307-.168-.458-.25q-.685-.383-1.343-.8-.7-.445-1.366-.928-.309-.222-.611-.455a27.084,27.084,0,0,1-3.251-2.933c-.055-.055-.107-.112-.159-.168-.267-.289-.529-.582-.782-.883-.094-.111-.188-.222-.28-.336q-.452-.551-.871-1.126c-.042-.055-.082-.112-.123-.168a24.271,24.271,0,0,1-2.832-5.12c-.023-.055-.045-.112-.065-.168q-.336-.864-.613-1.757c-.076-.248-.148-.5-.212-.752-.022-.074-.042-.149-.06-.223A45.4,45.4,0,0,1,63.84,337.3V335.98a128.178,128.178,0,0,1,1.021-18.315.764.764,0,0,1,.018-.124,57.2,57.2,0,0,1,1.227-6.013H83.248v-8.65h3.418V295.93h7.356v6.948Z" transform="translate(-63.83 -256.315)" fill="#0c9add" opacity=".1"/><path id="Path_224" data-name="Path 224" d="M523.145,333.545c-4.458,9.2-13.516,15.352-22.9,19.41a84.489,84.489,0,0,1-23.576,6.291q-2.333.277-4.682.43a90.8,90.8,0,0,1-12.014-.013q-3.609-.24-7.193-.767a90.718,90.718,0,0,1-24.049-7q-3.314-1.492-6.493-3.258A83.061,83.061,0,0,1,412.09,342q-1.068-.816-2.108-1.667l-.285-.233c-.546-.45-1.086-.91-1.635-1.356a23.767,23.767,0,0,0-2.9-2.078c-.069-.04-.138-.081-.208-.119-.188-.109-.379-.212-.574-.309a13.14,13.14,0,0,0-1.232-.544V309.653H434.3v5.8h13.672v-42.4h16.093v16.954h7.96V279.967H478.6V269.244h3.021V263c.262.1.524.195.784.294v5.951h2.941v10.73h6.572v10.038h9.691v38.244h15.4V300.443h4.964C526.49,310.963,528.115,323.292,523.145,333.545Z" transform="translate(-346.183 -228.913)" fill="#0c9add" opacity=".1"/><path id="Rectangle_180" data-name="Rectangle 180" transform="translate(106.601 50.519)" fill="#0c9add" opacity=".1" d="M0 0H7.193V7.193H0z"/><path id="Rectangle_181" data-name="Rectangle 181" transform="translate(106.601 65.428)" fill="#0c9add" opacity=".1" d="M0 0H7.193V7.193H0z"/><path id="Rectangle_182" data-name="Rectangle 182" transform="translate(106.601 80.339)" fill="#0c9add" opacity=".1" d="M0 0H7.193V7.193H0z"/><path id="Rectangle_183" data-name="Rectangle 183" transform="translate(106.601 95.25)" fill="#0c9add" opacity=".1" d="M0 0H7.193V7.193H0z"/><path id="Rectangle_184" data-name="Rectangle 184" transform="translate(106.601 110.16)" fill="#0c9add" opacity=".1" d="M0 0H7.193V7.193H0z"/><path id="Path_225" data-name="Path 225" d="M706.033,805v5.68q-3.609-.24-7.193-.767V805Z" transform="translate(-592.239 -679.933)" fill="#0c9add" opacity=".1"/><path id="Rectangle_185" data-name="Rectangle 185" transform="translate(59.339 90.037)" fill="#0c9add" opacity=".1" d="M0 0H25.177V3.258H0z"/><path id="Rectangle_186" data-name="Rectangle 186" transform="translate(59.339 99.932)" fill="#eb1c24" opacity=".1" d="M0 0H25.177V3.258H0z"/><path id="Path_226" data-name="Path 226" d="M455.064,714.21v3.256H436.459q-1.068-.816-2.108-1.667l-.285-.233c-.546-.45-1.086-.91-1.635-1.356Z" transform="translate(-370.548 -604.383)" fill="#0c9add" opacity=".1"/><path id="Path_227" data-name="Path 227" d="M525.347,773.15v3.258h-1.964q-3.314-1.492-6.493-3.258Z" transform="translate(-440.831 -653.429)" fill="#0c9add" opacity=".1"/><path id="Rectangle_187" data-name="Rectangle 187" transform="translate(125.808 69.996)" fill="#0c9add" opacity=".1" d="M0 0H4.682V4.682H0z"/><path id="Rectangle_188" data-name="Rectangle 188" transform="translate(24.42 48.177)" fill="#eb1c24" opacity=".1" d="M0 0H4.682V4.682H0z"/><path id="Rectangle_189" data-name="Rectangle 189" transform="translate(24.42 59.055)" fill="#eb1c24" opacity=".1" d="M0 0H4.682V4.682H0z"/><path id="Rectangle_190" data-name="Rectangle 190" transform="translate(24.42 69.93)" fill="#eb1c24" opacity=".1" d="M0 0H4.682V4.682H0z"/><path id="Rectangle_191" data-name="Rectangle 191" transform="translate(24.42 80.808)" fill="#eb1c24" opacity=".1" d="M0 0H4.682V4.682H0z"/><path id="Rectangle_192" data-name="Rectangle 192" transform="translate(24.42 91.685)" fill="#eb1c24" opacity=".1" d="M0 0H4.682V4.682H0z"/><path id="Rectangle_193" data-name="Rectangle 193" transform="translate(24.42 102.561)" fill="#eb1c24" opacity=".1" d="M0 0H4.682V4.682H0z"/><path id="Rectangle_194" data-name="Rectangle 194" transform="translate(143.683 69.996)" fill="#0c9add" opacity=".1" d="M0 0H4.682V4.682H0z"/><path id="Rectangle_195" data-name="Rectangle 195" transform="translate(125.808 81.545)" fill="#0c9add" opacity=".1" d="M0 0H4.682V4.682H0z"/><path id="Rectangle_196" data-name="Rectangle 196" transform="translate(143.683 81.545)" fill="#0c9add" opacity=".1" d="M0 0H4.682V4.682H0z"/><path id="Rectangle_197" data-name="Rectangle 197" transform="translate(125.808 93.095)" fill="#0c9add" opacity=".1" d="M0 0H4.682V4.682H0z"/><path id="Rectangle_198" data-name="Rectangle 198" transform="translate(143.683 93.095)" fill="#0c9add" opacity=".1" d="M0 0H4.682V4.682H0z"/><path id="Rectangle_199" data-name="Rectangle 199" transform="translate(125.808 104.646)" fill="#0c9add" opacity=".1" d="M0 0H4.682V4.682H0z"/><path id="Rectangle_200" data-name="Rectangle 200" transform="translate(143.683 104.646)" fill="#0c9add" opacity=".1" d="M0 0H4.682V4.682H0z"/><path id="Rectangle_201" data-name="Rectangle 201" transform="translate(125.808 116.194)" fill="#0c9add" opacity=".1" d="M0 0H4.682V4.682H0z"/><path id="Rectangle_202" data-name="Rectangle 202" transform="translate(143.683 116.194)" fill="#0c9add" opacity=".1" d="M0 0H4.682V4.682H0z"/><path id="Path_228" data-name="Path 228" d="M749.43,764.03v-3.02h4.682v2.59Z" transform="translate(-623.622 -633.267)" fill="#0c9add" opacity=".1"/><path id="Path_229" data-name="Path 229" d="M69.93,424.68v2.686H87.836V424.68Zm1.595,2.518H70.21v-2.35h1.314Zm1.595,0H71.805v-2.35h1.314Zm1.595,0H73.4v-2.35h1.314Zm1.595,0H74.994v-2.35h1.314Zm1.595,0H76.589v-2.35H77.9Zm1.595,0H78.184v-2.35H79.5Zm1.595,0H79.778v-2.35h1.314Zm1.595,0H81.373v-2.35h1.314Zm1.595,0H82.968v-2.35h1.314Zm1.595,0H84.562v-2.35h1.314Zm1.679,0h-1.4v-2.35h1.4Z" transform="translate(-68.898 -363.453)" fill="#eb1c24" opacity=".1"/><path id="Path_230" data-name="Path 230" d="M69.93,471.14v2.677H87.836V471.14Zm1.595,2.509H70.21v-2.342h1.314Zm1.595,0H71.805v-2.342h1.314Zm1.595,0H73.4v-2.342h1.314Zm1.595,0H74.994v-2.342h1.314Zm1.595,0H76.589v-2.342H77.9Zm1.595,0H78.184v-2.342H79.5Zm1.595,0H79.778v-2.342h1.314Zm1.595,0H81.373v-2.342h1.314Zm1.595,0H82.968v-2.342h1.314Zm1.595,0H84.562v-2.342h1.314Zm1.679,0h-1.4v-2.342h1.4Z" transform="translate(-68.898 -402.114)" fill="#eb1c24" opacity=".1"/><path id="Path_231" data-name="Path 231" d="M69.93,517.59v2.677H87.836V517.59Zm1.595,2.51H70.21v-2.342h1.314Zm1.595,0H71.805v-2.342h1.314Zm1.595,0H73.4v-2.342h1.314Zm1.595,0H74.994v-2.342h1.314Zm1.595,0H76.589v-2.342H77.9Zm1.595,0H78.184v-2.342H79.5Zm1.595,0H79.778v-2.342h1.314Zm1.595,0H81.373v-2.342h1.314Zm1.595,0H82.968v-2.342h1.314Zm1.595,0H84.562v-2.342h1.314Zm1.679,0h-1.4v-2.342h1.4Z" transform="translate(-68.898 -440.767)" fill="#eb1c24" opacity=".1"/><path id="Path_232" data-name="Path 232" d="M69.93,564v2.686H87.836V564Zm1.595,2.518H70.21v-2.35h1.314Zm1.595,0H71.805v-2.35h1.314Zm1.595,0H73.4v-2.35h1.314Zm1.595,0H74.994v-2.35h1.314Zm1.595,0H76.589v-2.35H77.9Zm1.595,0H78.184v-2.35H79.5Zm1.595,0H79.778v-2.35h1.314Zm1.595,0H81.373v-2.35h1.314Zm1.595,0H82.968v-2.35h1.314Zm1.595,0H84.562v-2.35h1.314Zm1.679,0h-1.4v-2.35h1.4Z" transform="translate(-68.898 -479.387)" fill="#eb1c24" opacity=".1"/><path id="Path_233" data-name="Path 233" d="M70.34,610.49c.064.252.136.5.212.752v-.584h1.314v2.35h-.7c.02.055.042.112.065.168H88.184V610.49Zm3.121,2.518H72.146v-2.35h1.314Zm1.595,0H73.741v-2.35h1.314Zm1.595,0H75.336v-2.35H76.65Zm1.595,0H76.93v-2.35h1.314Zm1.595,0H78.525v-2.35h1.314Zm1.595,0H80.12v-2.35h1.314Zm1.595,0H81.714v-2.35h1.314Zm1.595,0H83.309v-2.35h1.314Zm1.595,0H84.9v-2.35h1.314Zm1.679,0H86.5v-2.35h1.4Z" transform="translate(-69.239 -518.073)" fill="#eb1c24" opacity=".1"/><path id="Path_234" data-name="Path 234" d="M92.51,656.94c.04.055.081.112.123.168H93.5v1.126c.092.112.186.223.28.336v-1.46H95.1v2.35h-.532c.052.055.1.112.159.168h11.9v-2.686Zm4.183,2.518H95.379v-2.35h1.314Zm1.595,0H96.973v-2.35h1.314Zm1.595,0H98.568v-2.35h1.314Zm1.595,0h-1.314v-2.35h1.314Zm1.595,0h-1.314v-2.35h1.314Zm1.595,0h-1.314v-2.35h1.314Zm1.679,0h-1.4v-2.35h1.4Z" transform="translate(-87.687 -556.726)" fill="#eb1c24" opacity=".1"/><path id="Path_235" data-name="Path 235" d="M144.87,703.39c.151.086.3.168.458.25v-.082h1.314v.742l.28.128v-.87h1.314v1.425l.28.107v-1.533h1.4v2.014l.28.087v-2.27Z" transform="translate(-131.258 -595.379)" fill="#eb1c24" opacity=".1"/><path id="Path_236" data-name="Path 236" d="M456.12,286.144s-4-.242-3.525,2.561a.685.685,0,0,0,.356.722s0-.208.41-.138a1.872,1.872,0,0,0,.435.02.9.9,0,0,0,.532-.218h0a3.177,3.177,0,0,0,1.563-2.3s.322-.4.31-.5l-.671.289a1.208,1.208,0,0,1,.05.891s-.022-.873-.153-.853c-.025,0-.351.168-.351.168a1.992,1.992,0,0,1,.1,1.465s.114-1.044-.22-1.4l-.487.28a2.093,2.093,0,0,1,.149,1.591,2.968,2.968,0,0,0-.248-1.523l-.431.336a2.04,2.04,0,0,1,.168,1.457s-.035-1.277-.264-1.375a2.591,2.591,0,0,0-.435.47s.3.626.114.957c0,0-.114-.849-.208-.854a2.828,2.828,0,0,0-.413.95,2.045,2.045,0,0,1,.322-1.007,1.128,1.128,0,0,0-.574.3s.059-.4.671-.433a2.621,2.621,0,0,1,.395-.453,2.474,2.474,0,0,0-.974.113,1.093,1.093,0,0,1,1.084-.2l.425-.347a3.5,3.5,0,0,0-1.135.012,1.366,1.366,0,0,1,1.249-.091l.463-.277a4.228,4.228,0,0,0-1.084-.094,1.663,1.663,0,0,1,1.22.02l.336-.149s-.5-.1-.643-.112-.154-.055-.154-.055a1.726,1.726,0,0,1,.935.1A4.233,4.233,0,0,0,456.12,286.144Z" transform="translate(-387.295 -248.168)" fill="#0c9add" opacity=".1"/><path id="Path_237" data-name="Path 237" d="M409.567,367.274s-1.368,3.767,1.455,4.111a.683.683,0,0,0,.791-.136s-.2-.065-.015-.433a1.912,1.912,0,0,0,.144-.41.908.908,0,0,0-.06-.572h0a3.174,3.174,0,0,0-1.764-2.152s-.292-.425-.394-.442l.084.73a1.21,1.21,0,0,1,.87.2s-.839-.227-.861-.1c0,.025.062.384.062.384a1.987,1.987,0,0,1,1.432.322s-.97-.406-1.408-.186l.131.534a2.1,2.1,0,0,1,1.568.309,2.985,2.985,0,0,0-1.531-.193l.2.5a2.082,2.082,0,0,1,1.445.25s-1.235-.336-1.392-.138a2.641,2.641,0,0,0,.326.549s.687-.107.95.168c0,0-.848-.133-.878-.045a2.9,2.9,0,0,0,.794.671,2.055,2.055,0,0,1-.871-.6,1.128,1.128,0,0,0,.123.636s-.366-.168-.227-.764a2.57,2.57,0,0,1-.322-.5,2.434,2.434,0,0,0-.168.965,1.094,1.094,0,0,1,.111-1.1l-.212-.5a3.4,3.4,0,0,0-.312,1.093,1.384,1.384,0,0,1,.269-1.225l-.133-.522a4.184,4.184,0,0,0-.4,1.007,1.658,1.658,0,0,1,.364-1.165l-.049-.359s-.235.45-.29.586-.1.131-.1.131a1.726,1.726,0,0,1,.364-.868A4.237,4.237,0,0,0,409.567,367.274Z" transform="translate(-351.248 -315.655)" fill="#eb1c24" opacity=".1"/><path id="Path_238" data-name="Path 238" d="M567.6,348.345s-1.366,3.773,1.455,4.109a.685.685,0,0,0,.792-.138s-.2-.065-.015-.431a1.794,1.794,0,0,0,.143-.411.907.907,0,0,0-.059-.572h0a3.175,3.175,0,0,0-1.764-2.152s-.294-.423-.4-.44l.086.729a1.215,1.215,0,0,1,.87.206s-.839-.227-.863-.1c0,.027.062.384.062.384a2,2,0,0,1,1.434.322s-.97-.4-1.41-.186l.133.535a2.094,2.094,0,0,1,1.568.309,2.989,2.989,0,0,0-1.533-.195l.2.5a2.083,2.083,0,0,1,1.445.25s-1.234-.336-1.392-.136a2.6,2.6,0,0,0,.336.549s.685-.109.95.168c0,0-.848-.133-.878-.044a2.907,2.907,0,0,0,.792.671,2.037,2.037,0,0,1-.87-.6,1.138,1.138,0,0,0,.121.636s-.364-.168-.225-.762a2.705,2.705,0,0,1-.324-.5,2.475,2.475,0,0,0-.168.965,1.093,1.093,0,0,1,.111-1.1l-.212-.5a3.4,3.4,0,0,0-.312,1.091,1.38,1.38,0,0,1,.268-1.224l-.134-.524a4.184,4.184,0,0,0-.4,1.007,1.666,1.666,0,0,1,.366-1.165l-.049-.359s-.235.45-.292.586-.1.131-.1.131a1.736,1.736,0,0,1,.366-.868A4.128,4.128,0,0,0,567.6,348.345Z" transform="translate(-482.754 -299.903)" fill="#0c9add" opacity=".1"/><path id="Path_239" data-name="Path 239" d="M341.7,531.842s-1.368,3.768,1.455,4.113a.682.682,0,0,0,.791-.138s-.2-.066-.015-.431a1.807,1.807,0,0,0,.144-.411.9.9,0,0,0-.06-.572h0a3.17,3.17,0,0,0-1.764-2.15s-.292-.425-.394-.441l.084.728a1.214,1.214,0,0,1,.87.207s-.839-.227-.861-.1c0,.027.062.384.062.384a2,2,0,0,1,1.432.322s-.97-.4-1.408-.186l.131.535a2.094,2.094,0,0,1,1.568.309,2.983,2.983,0,0,0-1.531-.195l.2.5a2.083,2.083,0,0,1,1.445.25s-1.234-.336-1.392-.136a2.64,2.64,0,0,0,.326.549s.686-.109.952.168c0,0-.849-.133-.88-.044a2.923,2.923,0,0,0,.794.671,2.042,2.042,0,0,1-.871-.594,1.124,1.124,0,0,0,.123.635s-.366-.168-.227-.762a2.706,2.706,0,0,1-.322-.5,2.442,2.442,0,0,0-.168.965,1.094,1.094,0,0,1,.111-1.1l-.212-.5a3.364,3.364,0,0,0-.311,1.091,1.38,1.38,0,0,1,.269-1.224l-.134-.522a4.152,4.152,0,0,0-.4,1.007,1.657,1.657,0,0,1,.364-1.165l-.049-.361s-.235.45-.29.586-.1.131-.1.131a1.719,1.719,0,0,1,.366-.868A4.28,4.28,0,0,0,341.7,531.842Z" transform="translate(-294.77 -452.6)" fill="#eb1c24" opacity=".1"/><path id="Path_240" data-name="Path 240" d="M309.36,320.244s-1.366,3.767,1.455,4.111a.686.686,0,0,0,.792-.136s-.2-.065-.015-.433a1.884,1.884,0,0,0,.143-.411.9.9,0,0,0-.059-.571h0a3.174,3.174,0,0,0-1.766-2.152s-.292-.425-.394-.441l.086.73a1.205,1.205,0,0,1,.868.2s-.839-.227-.861-.1c0,.025.062.384.062.384a1.992,1.992,0,0,1,1.434.322s-.97-.406-1.41-.186l.131.534a2.1,2.1,0,0,1,1.569.309,2.975,2.975,0,0,0-1.533-.193l.2.5a2.077,2.077,0,0,1,1.445.252s-1.234-.336-1.392-.138a2.641,2.641,0,0,0,.326.549s.687-.107.952.168c0,0-.848-.133-.878-.045a2.878,2.878,0,0,0,.792.671,2.064,2.064,0,0,1-.871-.6,1.128,1.128,0,0,0,.122.636s-.366-.168-.225-.764a2.648,2.648,0,0,1-.324-.5,2.468,2.468,0,0,0-.168.965,1.089,1.089,0,0,1,.111-1.1l-.213-.5a3.364,3.364,0,0,0-.311,1.093,1.384,1.384,0,0,1,.269-1.225l-.134-.522a4.185,4.185,0,0,0-.4,1.007,1.669,1.669,0,0,1,.364-1.165l-.047-.359s-.237.45-.292.584-.1.133-.1.133a1.719,1.719,0,0,1,.366-.868A4.107,4.107,0,0,0,309.36,320.244Z" transform="translate(-267.862 -276.52)" fill="#eb1c24" opacity=".1"/><path id="Path_241" data-name="Path 241" d="M371.44,441.991s1.056,3.861,3.56,2.518a.683.683,0,0,0,.567-.567s-.2.06-.26-.344a1.847,1.847,0,0,0-.121-.418.888.888,0,0,0-.378-.433h0a3.18,3.18,0,0,0-2.686-.742s-.483-.176-.577-.131l.49.546a1.226,1.226,0,0,1,.829-.336s-.821.3-.76.418c.013.023.272.279.272.279a1.983,1.983,0,0,1,1.356-.564s-1.026.228-1.257.661l.415.361a2.1,2.1,0,0,1,1.46-.653s-1.066.275-1.365.725l.457.3a2.03,2.03,0,0,1,1.326-.628s-1.2.441-1.217.69a2.619,2.619,0,0,0,.584.26s.5-.483.871-.415c0,0-.77.381-.744.47a2.987,2.987,0,0,0,1.032.087,2.048,2.048,0,0,1-1.054.017,1.118,1.118,0,0,0,.467.448s-.4.072-.624-.494a2.658,2.658,0,0,1-.557-.227,2.482,2.482,0,0,0,.42.886,1.1,1.1,0,0,1-.542-.962l-.465-.29a3.519,3.519,0,0,0,.374,1.071,1.381,1.381,0,0,1-.487-1.155l-.41-.349a4.2,4.2,0,0,0,.259,1.058,1.683,1.683,0,0,1-.373-1.162l-.247-.267s.067.5.1.646,0,.168,0,.168a1.724,1.724,0,0,1-.2-.92A4.2,4.2,0,0,0,371.44,441.991Z" transform="translate(-319.796 -377.754)" fill="#eb1c24" opacity=".1"/><path id="Path_242" data-name="Path 242" d="M542.08,462.572s1.056,3.861,3.559,2.518a.681.681,0,0,0,.569-.567s-.2.06-.262-.336a1.766,1.766,0,0,0-.119-.418.9.9,0,0,0-.379-.433h0a3.177,3.177,0,0,0-2.686-.74s-.483-.178-.576-.133l.488.546a1.226,1.226,0,0,1,.829-.336s-.821.3-.759.418c.012.024.272.279.272.279a1.983,1.983,0,0,1,1.356-.564s-1.027.228-1.259.661l.416.361a2.078,2.078,0,0,1,1.459-.653s-1.064.275-1.363.725l.457.3a2.029,2.029,0,0,1,1.324-.628s-1.2.441-1.215.69a2.6,2.6,0,0,0,.583.26s.5-.483.871-.415c0,0-.769.381-.744.47a2.993,2.993,0,0,0,1.034.087,2.056,2.056,0,0,1-1.056.017,1.129,1.129,0,0,0,.467.448s-.4.072-.624-.493a2.617,2.617,0,0,1-.556-.227,2.464,2.464,0,0,0,.418.886,1.1,1.1,0,0,1-.542-.962l-.465-.294a3.487,3.487,0,0,0,.376,1.071,1.381,1.381,0,0,1-.487-1.155l-.411-.349a4.145,4.145,0,0,0,.26,1.057,1.678,1.678,0,0,1-.374-1.162l-.247-.267s.067.5.1.646,0,.168,0,.168a1.724,1.724,0,0,1-.2-.92A4.21,4.21,0,0,0,542.08,462.572Z" transform="translate(-461.792 -394.888)" fill="#0c9add" opacity=".1"/><path id="Path_243" data-name="Path 243" d="M444.725,613.845s8.709-2.933,6.906-13.323l-11.062-2.872L438,606.176Z" transform="translate(-375.183 -507.388)" fill="#ced7e7"/><path id="Path_244" data-name="Path 244" d="M438,620.414l6.723,7.67s8.709-2.933,6.906-13.323Z" transform="translate(-375.183 -521.626)" opacity=".1"/><path id="Path_245" data-name="Path 245" d="M219.939,177.97s1.175,1.912,2.781.957.065-3.594.065-3.594S219.709,174.911,219.939,177.97Z" transform="translate(-193.716 -155.945)" fill="#fed253"/><path id="Path_246" data-name="Path 246" d="M222.72,178.931a1.657,1.657,0,0,1-1.294.218,2.609,2.609,0,0,1-1.286-.9,2.808,2.808,0,0,1-.2-.274,2.321,2.321,0,0,1,.727-2.123h0a2.959,2.959,0,0,1,1.927-.53.874.874,0,0,1,.188.017l.032.054c.045.086.144.275.25.529C223.422,176.752,223.85,178.258,222.72,178.931Z" transform="translate(-193.716 -155.95)" opacity=".1"/><path id="Path_247" data-name="Path 247" d="M458.445,611.85l6.043.488,11.247.092-8.861,10.911a12.978,12.978,0,0,0-3.391.549c-.579.4-8.71.185-8.71.185l-1.313-5.593Z" transform="translate(-388.048 -519.205)" fill="#ffa2a2"/><path id="Path_248" data-name="Path 248" d="M458.445,611.85l6.043.488,11.247.092-8.861,10.911a12.978,12.978,0,0,0-3.391.549c-.579.4-8.71.185-8.71.185l-1.313-5.593Z" transform="translate(-388.048 -519.205)" opacity=".05"/><path id="Path_249" data-name="Path 249" d="M416.452,435.917l1.405,2.384.305,4.156a23.846,23.846,0,0,0,1.712,4.583,11.368,11.368,0,0,1,1.039,3.79,13.739,13.739,0,0,0,.671,3.115,27.3,27.3,0,0,1,.856,4.532s3.24,6.478,6.172,7.272c0,0-14.545,4.767-6.906,13.323,0,0-5.439,1.343-6.723-.183s-4.645-24.14-4.645-24.14l1.039-19.069Z" transform="translate(-352.166 -372.607)" fill="#ced7e7"/><path id="Path_250" data-name="Path 250" d="M416.452,435.917l1.405,2.384.305,4.156a23.846,23.846,0,0,0,1.712,4.583,11.368,11.368,0,0,1,1.039,3.79,13.739,13.739,0,0,0,.671,3.115,27.3,27.3,0,0,1,.856,4.532s3.24,6.478,6.172,7.272c0,0-14.545,4.767-6.906,13.323,0,0-5.439,1.343-6.723-.183s-4.645-24.14-4.645-24.14l1.039-19.069Z" transform="translate(-352.166 -372.607)" opacity=".05"/><path id="Path_251" data-name="Path 251" d="M253.548,246.916a13.093,13.093,0,0,0,.353,6.362l-2.263,6.478s-17.234-9.595-15.767-11.918c.831-1.318.937-4.8.87-7.574-.049-2.1-.2-3.794-.2-3.794s21.15,2.08,18.335,6.907A11.4,11.4,0,0,0,253.548,246.916Z" transform="translate(-206.91 -206.836)" fill="#ffa2a2"/><path id="Path_252" data-name="Path 252" d="M258.645,243.377a11.4,11.4,0,0,0-1.329,3.538,14.26,14.26,0,0,1-16.808-6.652c-.049-2.1-.2-3.794-.2-3.794S261.455,238.55,258.645,243.377Z" transform="translate(-210.678 -206.836)" opacity=".1"/><path id="Path_253" data-name="Path 253" d="M259.313,145.146a14.241,14.241,0,1,1-25.861-8.225q.3-.425.636-.829a14.245,14.245,0,0,1,4.635-3.693h0a13.99,13.99,0,0,1,3.047-1.1,14.268,14.268,0,0,1,17.369,11.571A14.415,14.415,0,0,1,259.313,145.146Z" transform="translate(-202.789 -118.996)" fill="#ffa2a2"/><path id="Path_254" data-name="Path 254" d="M132.49,326.652a17.7,17.7,0,0,0,.458,5.335c.017.092.035.185.054.277s.045.235.069.351c.186.91.389,1.811.588,2.63s.376,1.521.527,2.1c.228.865.384,1.408.384,1.408s.02.534.047,1.383c.015.49.032,1.088.049,1.747,0,.191.012.386.017.588.008.351.017.715.025,1.088,0,.121,0,.242.008.364,0,.4.015.811.022,1.219.008.561.015,1.121.018,1.665V348.9a12.349,12.349,0,0,1-.181,2.567c-.039.1-.074.2-.107.314a10.616,10.616,0,0,0-.316,1.59l-.285-.233c-.546-.45-1.086-.91-1.635-1.356a23.766,23.766,0,0,0-2.9-2.078c-.069-.04-.138-.081-.208-.119-.188-.109-.379-.212-.574-.309a13.159,13.159,0,0,0-1.232-.544,16.138,16.138,0,0,0-6.12-.962c-.839.321-1.385.551-1.385.551l-1.068.322-.178.054c-1.157.353-2.783.853-3.369,1.061-.947.336-9.167,2.046-9.167,2.046a13.653,13.653,0,0,1-2.293.42,32.368,32.368,0,0,1-4.3.9,23.953,23.953,0,0,1-9.838-.792,1.61,1.61,0,0,1-.285-.008.88.88,0,0,0,.168-.023l-.2-.06-.28-.087q-.705-.222-1.4-.485l-.28-.107q-.671-.259-1.314-.556l-.28-.128q-.671-.312-1.314-.66c-.154-.081-.307-.168-.458-.25q-.685-.383-1.343-.8c-.074-.633-.112-1.056-.112-1.056l-.655-3.26-.034-.168-.47-2.35-.034-.168-1.022-5.113-.034-.168-.47-2.35-.034-.168-1.036-5.11-.034-.168-.47-2.35-.034-.168-1.027-5.12-.034-.168-.47-2.342-.034-.168-.186-.923-.28-1.4s-.895-1.279-1.9-2.792l-.112-.168c-.287-.425-.582-.866-.87-1.3-.1-.143-.188-.284-.28-.423q-.21-.317-.406-.619L72.484,311l-.018-.029c-1.447-2.239-.478-3.213-.478-3.213s.608-.823,1.392-1.91c.039-.055.079-.111.121-.168.336-.47.705-.984,1.068-1.5l.28-.4c.106-.149.21-.3.311-.447.04-.055.079-.112.116-.168a19.859,19.859,0,0,0,1.543-2.439,20.279,20.279,0,0,1,2.812-3.574,14.817,14.817,0,0,1,2.5-2.35,4.094,4.094,0,0,0,1.467-2.323s2.261-.792,2.567-1.4,4.584-3.357,4.584-3.357a22.616,22.616,0,0,0,2.431-1.786,1.432,1.432,0,0,0,.257-.3c.243-.436,1.833-.8,2.479-.925.168-.034.272-.052.272-.052a5.471,5.471,0,0,1,.979-1.284,5.885,5.885,0,0,0,.87-1.816c.3-.849.534-1.667.534-1.667.49-1.65,1.467-1.162,1.467-1.162a3.357,3.357,0,0,0,.064.671h0c.408,2.014,2.624,2.854,3.787,3.8,1.284,1.037,3.3,3.728,4.89,4.277a10,10,0,0,1,3.325,2.743l.037.044c.081.094.121.148.121.148s.9-.047,1.45-.057h.2a.584.584,0,0,0,.306-.124c.546-.371,1.358-1.459,1.712-1.709.426-.307.856-5.257.856-5.257l.022-.01c1.522-.713,3.156,6.427,3.156,6.427s2.872.856,3.117,1.467a2.2,2.2,0,0,0,.589.6,32.293,32.293,0,0,0,4.717,3c.037.018.072.037.109.052a1.12,1.12,0,0,0,.1.049c.062.03.123.057.18.082q.136.06.252.1l.1.035a2.427,2.427,0,0,1,.671.347c.06.044.121.089.18.138a4.744,4.744,0,0,1,.628.631c.029.034.055.069.082.1h0a5.663,5.663,0,0,1,.336.463,6.86,6.86,0,0,1,.421.7s2.5,4.279,3.3,4.766,1.284,5.44,1.284,5.44h0l-2.686,9.956s-.126,2.518-.361,5.086C132.855,324.133,132.688,325.6,132.49,326.652Z" transform="translate(-70.345 -241.95)" fill="#ced7e7"/><path id="Path_255" data-name="Path 255" d="M276.834,334.679a9.773,9.773,0,0,1-3.208,1.069,2.65,2.65,0,0,1-.551-.032,14.159,14.159,0,0,1-3.636-1.435l2.536-2.781,3.085,1.529,1.135,1.056Z" transform="translate(-234.918 -285.914)" fill="#3a4a61"/><path id="Path_256" data-name="Path 256" d="M259.139,142.882a1.691,1.691,0,0,1-.217.25c-.883.839-2.451.492-3.654.3a13.31,13.31,0,0,1-3.043-.88c-.849-.363-1.868-.806-2.632-.285-.294.2-.5.515-.8.69a2.2,2.2,0,0,1-1.056.191,15.415,15.415,0,0,1-3.5-.252c-1.71-.4-3.48-1.4-5.106-.742a4.508,4.508,0,0,0-2.306,3.233,5.85,5.85,0,0,1-.671,1.9,1.531,1.531,0,0,1-1.737.687c-.922-.384-1.058-1.949-2.169-2.028-1.22-.086-1.205,1.175-.849,2.087a12.455,12.455,0,0,1,1.247,4.086,14.25,14.25,0,0,1,.812-15.181,1.534,1.534,0,0,0,.606-.708,1.058,1.058,0,0,0,.03-.121c.092-.468-.168-.96-.183-1.45-.059-1.2,1.237-2.031,2.426-2.182.791-.1,1.6-.023,2.392-.049h0a5.411,5.411,0,0,0,1.183-.158,5.693,5.693,0,0,0,1.846-.948,14.268,14.268,0,0,1,17.368,11.571Z" transform="translate(-202.797 -119.012)" opacity=".1"/><path id="Path_257" data-name="Path 257" d="M252.944,129.772a1.846,1.846,0,0,1-.5.873c-.883.839-2.451.49-3.654.3a13.142,13.142,0,0,1-3.043-.873c-.849-.361-1.868-.8-2.632-.284-.294.2-.5.515-.8.69a2.184,2.184,0,0,1-1.056.19,14.949,14.949,0,0,1-3.5-.25c-1.71-.4-3.48-1.4-5.106-.744a4.511,4.511,0,0,0-2.306,3.235,5.825,5.825,0,0,1-.671,1.9,1.534,1.534,0,0,1-1.737.688c-.922-.384-1.058-1.949-2.169-2.028-1.22-.086-1.205,1.175-.849,2.087.624,1.59,1.474,3.171,1.2,4.856-.277,0-.735-.01-1.007-.017.212-.361-.191-.791-.593-.913s-.87-.121-1.175-.413a1.377,1.377,0,0,1-.275-1.148,7.9,7.9,0,0,1,.626-2.508,2.324,2.324,0,0,0,.336-1.576,4.478,4.478,0,0,0-.363-.687,2.622,2.622,0,0,1,.032-2.2c.128-.3.22-.574.326-.839a3.733,3.733,0,0,1,.572-1.046c.384-.478.76-1.2.336-1.643-.107-.112.107-.19.039-.336a.286.286,0,0,1-.025-.079.762.762,0,0,1,.121-.5,1.23,1.23,0,0,1,.065-.112.96.96,0,0,1,.065-.111,5.337,5.337,0,0,1,1.452-1.583c.364-.264.791-.517.935-.943.168-.5-.128-1.039-.153-1.571-.059-1.2,1.237-2.031,2.426-2.182a27.209,27.209,0,0,0,3.579-.208c1.643-.433,2.8-1.883,4.291-2.7a6.075,6.075,0,0,1,5.338-.191c1.742.8,3.057,2.4,4.876,3.008a8.968,8.968,0,0,1,1.924.656,4.232,4.232,0,0,1,1.428,1.846,22.674,22.674,0,0,1,1.007,3.307,12.258,12.258,0,0,1,.73,3.136A3.143,3.143,0,0,1,252.944,129.772Z" transform="translate(-196.315 -106.891)" fill="#896363"/><g id="Group_241" data-name="Group 241" transform="translate(26.785 14.975)" opacity=".1"><path id="Path_258" data-name="Path 258" d="M234.551,180.6a.747.747,0,0,0-.126-.628c.044.131-.146.206-.042.316A.671.671,0,0,1,234.551,180.6Z" transform="translate(-232.504 -174.795)"/><path id="Path_259" data-name="Path 259" d="M234.585,177.68h0a.693.693,0,0,0-.035.181C234.582,177.808,234.626,177.752,234.585,177.68Z" transform="translate(-232.669 -172.889)"/><path id="Path_260" data-name="Path 260" d="M260.934,191.661c-.885.839-2.451.492-3.658.3a13.052,13.052,0,0,1-3.04-.878c-.851-.363-1.868-.806-2.634-.285-.292.2-.494.515-.8.69a2.187,2.187,0,0,1-1.056.19,15.341,15.341,0,0,1-3.5-.252c-1.709-.4-3.478-1.4-5.1-.742a4.514,4.514,0,0,0-2.306,3.235,5.811,5.811,0,0,1-.671,1.9,1.536,1.536,0,0,1-1.737.688c-.922-.386-1.058-1.949-2.169-2.028-.868-.062-1.11.559-1.051,1.249a.882.882,0,0,1,1.051-.883c1.111.079,1.247,1.643,2.169,2.028a1.528,1.528,0,0,0,1.737-.688,5.882,5.882,0,0,0,.671-1.9,4.511,4.511,0,0,1,2.306-3.235c1.627-.661,3.4.336,5.1.742a14.868,14.868,0,0,0,3.5.25,2.125,2.125,0,0,0,1.056-.188c.314-.178.5-.492.8-.692.765-.519,1.783-.076,2.634.285a13.139,13.139,0,0,0,3.04.88c1.207.195,2.773.546,3.658-.3a2.307,2.307,0,0,0,.592-1.846A2.114,2.114,0,0,1,260.934,191.661Z" transform="translate(-231.546 -183.291)"/><path id="Path_261" data-name="Path 261" d="M249.426,149.14a1.786,1.786,0,0,0-.01.252c.017.349.149.7.191,1.039A5.224,5.224,0,0,0,249.426,149.14Z" transform="translate(-245.039 -149.14)"/><path id="Path_262" data-name="Path 262" d="M226.233,210.911a1.235,1.235,0,0,1,.032.153,1.205,1.205,0,0,0-.032-.519,4.347,4.347,0,0,0-.363-.688,2.074,2.074,0,0,1-.22-.8,2.211,2.211,0,0,0,.22,1.165A4.265,4.265,0,0,1,226.233,210.911Z" transform="translate(-225.257 -199.002)"/><path id="Path_263" data-name="Path 263" d="M236.552,254.582l-.982-.015a.421.421,0,0,1-.03.366c.277,0,.737.01,1.007.017a4.111,4.111,0,0,0,.049-.87A3.936,3.936,0,0,1,236.552,254.582Z" transform="translate(-233.493 -236.465)"/><path id="Path_264" data-name="Path 264" d="M224.8,245.99c-.4-.121-.868-.123-1.167-.416a1.064,1.064,0,0,1-.279-.7,1.321,1.321,0,0,0,.279,1.071c.3.294.765.3,1.167.416a1,1,0,0,1,.609.5C225.577,246.513,225.187,246.105,224.8,245.99Z" transform="translate(-223.345 -228.801)"/></g><path id="Path_265" data-name="Path 265" d="M331.392,428.311c-.188-.109-.379-.212-.574-.309a13.152,13.152,0,0,0-1.232-.544,16.139,16.139,0,0,0-6.12-.962c-.839.321-1.385.551-1.385.551l-1.068.322-.178.054c-.012-.117-.025-.235-.037-.354s-.025-.233-.039-.351c-.376-3.56-.671-7.218-.671-7.218v-3.527l-.02-9.308L319.9,403.6l-.079-1.358-.015-.259-.03-.53-.017-.316a2.849,2.849,0,0,1-.094-.306h0c-.012-.042-.023-.089-.034-.138-.042-.168-.087-.384-.134-.619-.307-1.544-.692-4.148-.715-4.677-.03-.705-.641-4.922-.641-4.922-.062-2.322-2.014-6.693-2.506-7.517a20.966,20.966,0,0,1-.856-6.043,7.731,7.731,0,0,0,.2-1.766c0-.089.008-.176.012-.262.025-.609.037-1.118.037-1.118l1.92-.379.515-.1.04-.008.017.034c.055.1.228.43.431.859.023.045.045.094.069.143.01.023.022.047.034.07a7.392,7.392,0,0,1,.792,2.528,13.633,13.633,0,0,0,1.224,3.76c.121.611,2.78,6.691,2.78,6.691s2.17,5.959,2.048,6.938a73.054,73.054,0,0,0,1.039,7.456l1.192,6.662a39.376,39.376,0,0,1,1.343,4.337l.29,1.716.055.327.774,4.578.379,2.243s.159,1.192.4,2.518c.02.119.044.24.067.361a18.474,18.474,0,0,0,.633,2.577,9.655,9.655,0,0,1,.324,1.234Z" transform="translate(-272.615 -320.681)" opacity=".1"/><path id="Path_266" data-name="Path 266" d="M332.518,428.414c-.069-.04-.138-.081-.208-.119-.188-.109-.379-.211-.574-.309a13.148,13.148,0,0,0-1.232-.544,16.138,16.138,0,0,0-6.12-.962c-.839.321-1.385.551-1.385.551l-1.068.322c-.013-.117-.025-.235-.039-.354s-.023-.215-.034-.322c-.376-3.552-.671-7.193-.671-7.193v-3.557l-.02-9.284L321,403.712l-.034-.608-.024-.411-.03-.544-.03-.552-.022-.4v-.087a.032.032,0,0,0-.012-.029c-.032-.091-.07-.228-.112-.4l-.02-.084c-.008-.039-.018-.081-.027-.123-.316-1.432-.779-4.519-.8-5.1-.03-.705-.641-4.922-.641-4.922-.062-2.322-2.014-6.693-2.506-7.517a21.028,21.028,0,0,1-.856-6.043,9.757,9.757,0,0,0,.208-2.028v-.195c.022-.519.03-.923.03-.923l1.786-.353.453-.089.07-.013.168-.034s.22.406.483.965l.034.07a7.7,7.7,0,0,1,.826,2.6,13.635,13.635,0,0,0,1.224,3.76c.121.611,2.78,6.691,2.78,6.691s2.17,5.959,2.048,6.938a73.07,73.07,0,0,0,1.039,7.456l1.192,6.662a39.369,39.369,0,0,1,1.343,4.337l.27,1.6.055.324.609,3.612.562,3.329s.168,1.187.4,2.518c.022.121.044.242.067.364a18.578,18.578,0,0,0,.633,2.588,10.236,10.236,0,0,1,.356,1.341Z" transform="translate(-273.533 -320.665)" fill="#3a4a61"/><path id="Path_267" data-name="Path 267" d="M252.687,93.359s-.641.826-1.22.826a18.141,18.141,0,0,1-4.008-.458,62.185,62.185,0,0,0-6.936-.643s-8.158.03-8.433-.245a27.228,27.228,0,0,0-5.561-1.65c-.1.02-.353.064-.687.119l-.383.062c-.579.092-1.3.2-1.964.279a6.136,6.136,0,0,1-1.764.06v-.7a9.555,9.555,0,0,0,1.007-1.771c.06-.394.856-6.113,2.934-8.16a8.192,8.192,0,0,1,3.941-3.693c2.812-1.224,5.623-2.261,5.623-2.261l.492-.07,1.586-.235a1.2,1.2,0,0,1,.156-.131c.44-.336,1.773-1.066,3.51.5l.307.49s5.346,1.252,7.821,5.622a24.308,24.308,0,0,1,2.781,10.6s-.123.551.123.764a3.417,3.417,0,0,1,.253.248c.022.022.044.044.064.067.07.07.136.144.19.2a.079.079,0,0,1,.017.017.534.534,0,0,0,.042.045Z" transform="translate(-195.217 -71.821)" fill="#fed253"/><path id="Path_268" data-name="Path 268" d="M272.525,168.57s-.641.826-1.22.826a18.141,18.141,0,0,1-4.009-.458,62.184,62.184,0,0,0-6.936-.643s-8.158.03-8.433-.245a27.227,27.227,0,0,0-5.561-1.65c-.1.02-.353.064-.687.119l-.087-.537-.022-.133s9.259-1.986,15.431-.945,10.726,2.2,10.726,2.2-.123.551.123.764a3.416,3.416,0,0,1,.253.248c.022.022.044.044.064.067.07.07.136.144.19.2a.078.078,0,0,1,.017.017.566.566,0,0,0,.042.045Z" transform="translate(-215.055 -147.032)" opacity=".05"/><path id="Path_269" data-name="Path 269" d="M250.378,178.536a24.177,24.177,0,0,1-4.171-.326c-.262-.039-.519-.086-.777-.143a20.255,20.255,0,0,0-5.875-.539c-2.231.336-8.526-.275-8.526-.275a45.17,45.17,0,0,1-5.44-1.435,5.409,5.409,0,0,0-2.481-.193,6.908,6.908,0,0,0-.722.129c-1.3.307-2.4,1.007-2.206,2.2a2.8,2.8,0,0,1-.2-.274,2.321,2.321,0,0,1,.727-2.123h0l.111-.045a13.555,13.555,0,0,1,1.749-.374c.092-.015.188-.029.285-.04a10.787,10.787,0,0,1,6.124.75,9.745,9.745,0,0,0,3.178.888c1.284,0,11.733.092,14.179.794a10.411,10.411,0,0,0,1.486.314,6.043,6.043,0,0,0,2.652-.25,3.142,3.142,0,0,1-.091.942Z" transform="translate(-193.749 -155.655)" opacity=".1"/><path id="Path_270" data-name="Path 270" d="M252.687,175.33s-.641.826-1.22.826a18.141,18.141,0,0,1-4.008-.458,62.185,62.185,0,0,0-6.936-.643s-8.158.03-8.433-.245a27.225,27.225,0,0,0-5.561-1.65c-.1.02-.353.064-.687.119l-.383.062a6.815,6.815,0,0,0-1.964.279,6.136,6.136,0,0,1-1.764.06v-.139a4.028,4.028,0,0,1,.549-.265,14.847,14.847,0,0,1,3.475-.54,9.711,9.711,0,0,1,4.685.876,9.745,9.745,0,0,0,3.178.888c1.284,0,11.733.091,14.179.794a10.63,10.63,0,0,0,1.486.312,6.177,6.177,0,0,0,3.238-.465.079.079,0,0,1,.017.017.561.561,0,0,0,.042.045Z" transform="translate(-195.217 -153.792)" opacity=".1"/><path id="Path_271" data-name="Path 271" d="M217.647,177.007s-2.048-1.559.611-2.6c0,0,4.645-1.435,8.16.336a9.773,9.773,0,0,0,3.178.885c1.284,0,11.733.092,14.179.8a10.575,10.575,0,0,0,1.486.312,6.323,6.323,0,0,0,3.772-.717c.168-.092.319-.139.364-.086.153.185.032,1.254-1.313,1.467a20.876,20.876,0,0,1-4.435-.3c-.26-.039-.519-.087-.776-.143a20.287,20.287,0,0,0-5.883-.539c-2.229.336-8.526-.275-8.526-.275a44.944,44.944,0,0,1-5.439-1.437C221.466,174.07,217.067,174.624,217.647,177.007Z" transform="translate(-191.193 -154.736)" fill="#fed253"/><path id="Path_272" data-name="Path 272" d="M308.344,79.963c-.168-.242-2.325-1.969-3.2-2.667l1.586-.235a1.2,1.2,0,0,1,.156-.131A6.562,6.562,0,0,1,308.344,79.963Z" transform="translate(-264.625 -74.077)" opacity=".1"/><path id="Path_273" data-name="Path 273" d="M215.233,89.2l-.7,1.039,2.689-.091.06-1.162Z" transform="translate(-178.511 -74.052)" opacity=".1"/><path id="Path_274" data-name="Path 274" d="M316.47,97.73l.306.947,1.712.275-.734-1.131Z" transform="translate(-263.339 -81.325)" opacity=".1"/><path id="Path_275" data-name="Path 275" d="M205.18,347c.183.306,6.2,8.225,7.792,8.005S205.18,347,205.18,347Z" transform="translate(-181.445 -298.813)" opacity=".1"/><path id="Path_276" data-name="Path 276" d="M325.33,390.12s1.467,1.407,1.252,1.956S325.33,390.12,325.33,390.12Z" transform="translate(-281.426 -334.694)" opacity=".1"/><path id="Path_277" data-name="Path 277" d="M225.944,447.65s-1.284,6.019-.611,6.211S225.944,447.65,225.944,447.65Z" transform="translate(-198.052 -382.567)" opacity=".1"/><path id="Path_278" data-name="Path 278" d="M328.24,586.91c.213.611,1.986,4.584,2.384,4.8S328.24,586.91,328.24,586.91Z" transform="translate(-283.848 -498.451)" opacity=".1"/><path id="Path_279" data-name="Path 279" d="M444.485,489.7c-.062.213-1.59,1.467-1.254,1.925S444.485,489.7,444.485,489.7Z" transform="translate(-379.496 -417.559)" opacity=".1"/><path id="Path_280" data-name="Path 280" d="M379.769,556.14c-.03.154-.336,3.357.245,3.973S379.769,556.14,379.769,556.14Z" transform="translate(-326.638 -472.846)" opacity=".1"/><path id="Path_281" data-name="Path 281" d="M228.573,607.4c-.443.247-.9.485-1.368.714-.5.245-1.007.478-1.521.7-.2.089-.41.176-.613.26q-.463.191-.917.368c-.918.359-1.8.671-2.59.935-.306.1-.6.2-.87.284-1.37.435-2.28.671-2.28.671a2.476,2.476,0,0,0-.633-.052H217.6a7.949,7.949,0,0,0-.848.107,39.109,39.109,0,0,0-6.12,1.893c-.839.321-1.385.551-1.385.551l-1.068.322L208,614.2c-1.157.353-2.783.853-3.369,1.061-.947.336-9.167,2.046-9.167,2.046a13.666,13.666,0,0,1-2.293.42,41.85,41.85,0,0,1-5.744.131,37.757,37.757,0,0,1-6.847-.584l-.289-.045c-.7-.114-1.145-.2-1.145-.2l.235-.324,4.819-6.649.029-.04,4.49-6.192.168-.225.408-.562s.245-.336,1.188-.358h.364a9.833,9.833,0,0,1,2.328.475l.218.065a32.108,32.108,0,0,0,8.277.7s3.127-.5,5.585-.806l.183-.024a22.571,22.571,0,0,1,2.422-.21,27.153,27.153,0,0,0,4.737-.764,3.156,3.156,0,0,0,1.383-.556l.168-.121c.168-.126.361-.28.609-.472.453-.348,1.089-.819,2.09-1.48.087-.057.18-.114.279-.168s.225-.126.346-.186a13.106,13.106,0,0,1,3.042-1.007,17.828,17.828,0,0,1,2.647-.364h.133c2.518-.134,5.09.3,6.594,1.712a4.129,4.129,0,0,1,.682.839,3.834,3.834,0,0,1,.245.457,4.284,4.284,0,0,1,.3.94q.018.091.03.181v.054c0,.049.01.1.013.146C233.3,604.1,231.215,605.919,228.573,607.4Z" transform="translate(-159.784 -507.465)" opacity=".1"/><path id="Path_282" data-name="Path 282" d="M179.15,614.818a46.707,46.707,0,0,0,8.281.824s5.225.275,8.037-.549c0,0,8.225-1.712,9.167-2.048s4.614-1.437,4.614-1.437,7.151-2.995,9.167-2.506c0,0,15.829-4.094,14.7-9.625s-11.122-4.277-14.268-2.2-2.686,2.293-4.247,2.629a27.15,27.15,0,0,1-4.737.764c-1.5-.03-8.19,1.039-8.19,1.039s-5.256.245-8.494-.764-3.881-.123-3.881-.123Z" transform="translate(-159.784 -505.61)" fill="#ffa2a2"/><path id="Path_283" data-name="Path 283" d="M117.8,438.8a.082.082,0,0,1,0,.02,1.134,1.134,0,0,1-.1.361c-.645,1.581-4.3,5.847-4.3,5.847a11.682,11.682,0,0,1-.6,1.48,22.7,22.7,0,0,1-1.737,2.946,39.89,39.89,0,0,1-3.161,4.007h-.008a4.792,4.792,0,0,1-.452.3,3.736,3.736,0,0,1-1.546.561,1.612,1.612,0,0,1-.285-.008.88.88,0,0,0,.168-.024l-.2-.06-.28-.087q-.705-.222-1.4-.485l-.28-.107q-.671-.258-1.314-.556l-.28-.128q-.671-.312-1.314-.66c-.154-.081-.307-.168-.458-.25q-.685-.383-1.343-.8-.7-.445-1.366-.928c-.336-.623-.613-1.175-.764-1.472a4.1,4.1,0,0,1-.265-1.915.911.911,0,0,1,.01-.168c.029-.359.072-.606.072-.606a8.628,8.628,0,0,1-.671-1.047,1.232,1.232,0,0,1-.188-.6.716.716,0,0,0-.023-.255,5.955,5.955,0,0,0-1.2-2.014c-.383-.421-.406-2-.369-3.112.022-.671.064-1.165.064-1.165a.391.391,0,0,1-.159-.206,4.99,4.99,0,0,1-.272-1.138,1.188,1.188,0,0,0-.023-.168c-.107-.77-.156-1.544-.156-1.544a5.855,5.855,0,0,1-2.108-3.575l-.035-.168a10.576,10.576,0,0,1-.191-2.35v-.21a29.279,29.279,0,0,1,.624-5.058c.018-.06.039-.116.059-.168a1.257,1.257,0,0,1,.131-.254,3.125,3.125,0,0,0,.386-1.143c.069-.346.126-.73.168-1.113.039-.319.069-.636.092-.93.065-.786.086-1.4.086-1.4l-.311-1.531c-.086-.418-.151-.839-.2-1.261a1.473,1.473,0,0,0-.02-.168,14.186,14.186,0,0,1-.042-2.342.93.93,0,0,1,.01-.168,14.192,14.192,0,0,1,1.37-5.12l.084-.168q.168-.336.353-.66c.089-.159.183-.317.28-.473a13.846,13.846,0,0,1,.839-1.21c.044-.057.089-.112.134-.168a13.674,13.674,0,0,1,1.739-1.793,7.66,7.66,0,0,1,4.665-2.139c6.181-.218,9.647,10.713,10.208,12.628.054.185.081.285.081.285s2.5,2.506,1.771,3.606a1.892,1.892,0,0,0-.253.792,13.994,13.994,0,0,0,.376,3.914s.2.671.8,2.28l.176.47a9.653,9.653,0,0,1,.247,4.212c-.206,1.45-.692,2.733-1.469,3.062-1.59.671-1.162,1.343-.8,1.9a7.547,7.547,0,0,1,.542,1.239c.23.619.443,1.271.524,1.524.023.07.035.109.035.109a3.318,3.318,0,0,1,.69-.185c.3-.042.6-.012.655.245.03.138.2.3.447.463A12.893,12.893,0,0,0,117.8,438.8Z" transform="translate(-86.64 -343.948)" opacity=".1"/><path id="Path_284" data-name="Path 284" d="M115.628,438.8h0a1.106,1.106,0,0,1-.1.369c-.641,1.583-4.3,5.858-4.3,5.858a11.937,11.937,0,0,1-.6,1.481,21.389,21.389,0,0,1-1.371,2.4,39.471,39.471,0,0,1-3.488,4.515l-.039.042s-.148.112-.383.257a4.363,4.363,0,0,1-1.368.574l-.2-.06-.28-.087q-.7-.222-1.4-.485l-.28-.107q-.671-.258-1.314-.556l-.28-.128q-.671-.312-1.314-.66c-.154-.081-.307-.168-.458-.25q-.685-.383-1.343-.8-.7-.445-1.366-.928-.309-.222-.611-.455c-.227-.43-.408-.792-.52-1.017a4.1,4.1,0,0,1-.265-1.915.912.912,0,0,1,.01-.168c.029-.359.072-.606.072-.606s-.136-.183-.3-.431c-.092-.138-.191-.3-.28-.455a1.557,1.557,0,0,1-.274-.764.375.375,0,0,0,0-.087.814.814,0,0,0-.025-.168,5.961,5.961,0,0,0-1.2-2.014c-.383-.421-.406-2-.371-3.112v-.168c.023-.579.059-1,.059-1-.19-.082-.336-.692-.43-1.343l-.025-.168c-.107-.77-.156-1.544-.156-1.544a5.844,5.844,0,0,1-2.107-3.575,10.25,10.25,0,0,1-.218-2.686v-.042a28.855,28.855,0,0,1,.6-5.078c.018-.06.039-.116.059-.168a1.258,1.258,0,0,1,.149-.245,5.657,5.657,0,0,0,.535-2.088l.02-.168c.139-1.175.178-2.328.178-2.328l-.312-1.531q-.128-.63-.2-1.261c-.008-.055-.013-.112-.02-.168a14.188,14.188,0,0,1-.042-2.342.8.8,0,0,1,.012-.168,14.158,14.158,0,0,1,1.37-5.12c.027-.057.054-.112.084-.168a13.163,13.163,0,0,1,.718-1.269c.091-.143.183-.284.28-.423.153-.222.312-.44.478-.651l.134-.168a13.7,13.7,0,0,1,1.724-1.788,7.392,7.392,0,0,1,5.036-2.139c5.951.213,9.291,10.751,9.84,12.628.054.185.081.285.081.285s2.506,2.506,1.773,3.606a1.891,1.891,0,0,0-.253.792,13.927,13.927,0,0,0,.376,3.914s.2.671.8,2.28c.054.149.112.306.168.47a9.652,9.652,0,0,1,.247,4.212c-.206,1.452-.69,2.733-1.469,3.062-1.588.671-1.162,1.343-.794,1.9a7.543,7.543,0,0,1,.542,1.239c.29.791.557,1.633.557,1.633a3.263,3.263,0,0,1,.336-.109,1.717,1.717,0,0,1,.725-.076.32.32,0,0,1,.287.245c.045.2.393.452.814.688A15.548,15.548,0,0,0,115.628,438.8Z" transform="translate(-84.834 -343.947)" fill="#ced7e7"/><path id="Path_285" data-name="Path 285" d="M115.61,510.137c.581-.03,6.815-2.444,8.1-1.62s9.232,6.172,9.232,6.172-4.98-6.508-9.32-8.035S115.61,510.137,115.61,510.137Z" transform="translate(-106.91 -431.426)" opacity=".1"/><path id="Path_286" data-name="Path 286" d="M169,587.46s6.234,1.252,7.181,2.108Z" transform="translate(-151.338 -498.909)" opacity=".1"/><path id="Path_287" data-name="Path 287" d="M151.047,643a48.65,48.65,0,0,0-2.169,5.163,30.449,30.449,0,0,0,2.108-3.022Z" transform="translate(-134.585 -545.126)" opacity=".1"/><path id="Path_288" data-name="Path 288" d="M179.044,606.75s-1.833.643-1.62.7S178.982,607.025,179.044,606.75Z" transform="translate(-158.334 -514.961)" opacity=".1"/><path id="Path_289" data-name="Path 289" d="M176.24,652.45c.306.641,1.282,2.567,1.5,2.261S176.24,652.45,176.24,652.45Z" transform="translate(-157.362 -552.99)" opacity=".1"/><path id="Path_290" data-name="Path 290" d="M232.337,292.425l-.262.373s-2.08-1.465-2.934-2.2-2.872,2.627-4.462,3.544A12.839,12.839,0,0,1,220.4,295.3s-2.078-2.078-2.014-2.686-.977-.794-1.039-1.222a6.08,6.08,0,0,0-.917-2.261,4.673,4.673,0,0,1-.272-2.209c.168-.034.272-.052.272-.052a5.472,5.472,0,0,1,.979-1.284c.551-.488,1.4-3.483,1.4-3.483.488-1.65,1.465-1.162,1.465-1.162,0,2.506,2.568,3.423,3.851,4.462s3.3,3.728,4.89,4.279A9.948,9.948,0,0,1,232.337,292.425Z" transform="translate(-190.577 -243.789)" opacity=".1"/><path id="Path_291" data-name="Path 291" d="M232.3,290.238l-.262.374s-2.088-1.462-2.943-2.2-2.872,2.627-4.462,3.544a12.859,12.859,0,0,1-4.277,1.163s-2.078-2.08-2.014-2.686-.977-.794-1.039-1.224a6.068,6.068,0,0,0-.917-2.261,4.673,4.673,0,0,1-.272-2.209l.272-.05a5.472,5.472,0,0,1,.979-1.284c.551-.49,1.4-3.483,1.4-3.483.488-1.65,1.465-1.163,1.465-1.163,0,2.506,2.568,3.424,3.851,4.463s3.3,3.727,4.89,4.277A9.983,9.983,0,0,1,232.3,290.238Z" transform="translate(-190.535 -241.97)" fill="#ced7e7"/><path id="Path_292" data-name="Path 292" d="M294.858,348.659a9.773,9.773,0,0,1-3.208,1.069,2.643,2.643,0,0,1-.551-.032h0a8.366,8.366,0,0,1,2.995-1.4Z" transform="translate(-252.942 -299.894)" opacity=".1"/><path id="Path_293" data-name="Path 293" d="M320.361,374.352s-2.271-.885-3.022.447c.025-.611.035-1.118.035-1.118l2.476-.49s.238.441.517,1.036C320.361,374.3,320.361,374.352,320.361,374.352Z" transform="translate(-274.777 -320.606)" opacity=".1"/><path id="Path_294" data-name="Path 294" d="M291.1,349.165s2.721-1.633,4.029-1.5c1.372.143,4.029.243,4.029.243a9.3,9.3,0,0,0-.794,2.506,21.489,21.489,0,0,1,.153,2.506s-2.75-1.069-3.208.917a14.416,14.416,0,0,0-2.506-2.9,6.861,6.861,0,0,1-1.7-1.773Z" transform="translate(-252.942 -299.363)" fill="#3a4a61"/><path id="Path_295" data-name="Path 295" d="M332.833,317.922a8.479,8.479,0,0,1-4.217-2.934c-.611-1.16-1.467.121-2.261.551-.5.275-2.5-.3-3.575-.718.546-.371,1.754-1.415,2.108-1.665.426-.307.856-5.257.856-5.257,1.528-.794,3.178,6.417,3.178,6.417s2.874.856,3.117,1.467a2.193,2.193,0,0,0,.589.6C332.964,317.224,333.149,317.922,332.833,317.922Z" transform="translate(-279.304 -266.223)" opacity=".1"/><path id="Path_296" data-name="Path 296" d="M334.8,315.757a8.475,8.475,0,0,1-4.217-2.933c-.611-1.16-1.467.121-2.261.549-.5.275-2.1-.257-3.179-.671.546-.369,1.358-1.457,1.712-1.709.426-.306.856-5.256.856-5.256,1.528-.794,3.178,6.417,3.178,6.417s2.874.856,3.117,1.467a2.195,2.195,0,0,0,.589.6C334.928,315.059,335.113,315.757,334.8,315.757Z" transform="translate(-281.268 -264.425)" fill="#ced7e7"/><path id="Path_297" data-name="Path 297" d="M446.694,573.192l26.574-22.158a1.424,1.424,0,0,1,.95-.336l9.914.26s.687.5-.321,1.6l-25.068,20.571a1.6,1.6,0,0,1-.957.359l-10.84.359a.374.374,0,0,1-.252-.661Z" transform="translate(-382.306 -468.318)" fill="#eb1c24"/><path id="Path_298" data-name="Path 298" d="M523.94,611.788s5.8,8.313,12.254.581,4.584-11.794,2.629-12.009S525.864,608.61,523.94,611.788Z" transform="translate(-446.697 -509.64)" fill="#ffa2a2"/><path id="Path_299" data-name="Path 299" d="M757.17,69.107s7.482-14.52,16.324-7.032a2.788,2.788,0,0,1,1.784,2.745s-.744-.408-1.335,1.152a7.529,7.529,0,0,1-.839,1.566,3.693,3.693,0,0,1-1.863,1.407h0s-3.968,2.973-11.319.68a7.33,7.33,0,0,1-2.414.04l2.416-1.766a4.943,4.943,0,0,0,3.021,2.029s-3.021-1.9-2.676-2.308c.071-.084,1.323-.878,1.323-.878s2.147,3.157,4.93,3.391c0,0-3.9-1.778-4.458-3.693l1.959-1.093s2.1,3.45,5.266,3.836c0,0-4.012-2-4.821-4.045l2.073-.809s2.12,3.324,4.75,3.627c0,0-4.4-2.778-4.264-3.782a10.742,10.742,0,0,1,2.546-.546s1.576,2.35,3.121,2.392c0,0-2.745-2.169-2.563-2.5a11.562,11.562,0,0,1,4.2.524,8.354,8.354,0,0,0-4.2-.955,4.591,4.591,0,0,1,2.239-1.395s-1.519-.624-2.907,1.437a10.6,10.6,0,0,0-2.409.435,10.075,10.075,0,0,1,2.419-3.178s-1.989.351-2.975,3.372l-2.1.767s1.277-3.021,2.4-3.955c0,0-1.974.671-2.917,4.2l-1.934,1.051a17.109,17.109,0,0,1,1.93-4s-1.7,1.017-2.474,4.317l-1.209.851s.693-1.951.943-2.493.124-.655.124-.655a7.029,7.029,0,0,0-1.583,3.486A16.657,16.657,0,0,1,757.17,69.107Z" transform="translate(-640.777 -59.93)" fill="#0c9add" opacity=".1"/><path id="Path_300" data-name="Path 300" d="M941.5,140.3s3.381-6.562,7.376-3.178a1.256,1.256,0,0,1,.806,1.239s-.336-.183-.6.522a3.362,3.362,0,0,1-.376.707,1.678,1.678,0,0,1-.839.636h0s-1.794,1.343-5.116.307a3.331,3.331,0,0,1-1.089.018l1.091-.8a2.225,2.225,0,0,0,1.366.917s-1.363-.856-1.209-1.042c.03-.037.6-.4.6-.4a3.676,3.676,0,0,0,2.229,1.533s-1.763-.8-2.014-1.679l.886-.492a3.86,3.86,0,0,0,2.379,1.734s-1.813-.9-2.182-1.828l.937-.366s.957,1.5,2.145,1.64c0,0-1.989-1.256-1.925-1.709a4.852,4.852,0,0,1,1.15-.247s.712,1.063,1.41,1.079c0,0-1.241-.979-1.158-1.13a5.222,5.222,0,0,1,1.893.237,3.763,3.763,0,0,0-1.893-.431,2.08,2.08,0,0,1,1.007-.631s-.686-.282-1.314.65a4.791,4.791,0,0,0-1.088.2,4.552,4.552,0,0,1,1.093-1.435s-.9.158-1.343,1.524l-.94.353a6.442,6.442,0,0,1,1.086-1.788s-.893.3-1.319,1.9l-.873.473a7.68,7.68,0,0,1,.871-1.806,3.059,3.059,0,0,0-1.116,1.951l-.547.384s.314-.881.426-1.126.055-.3.055-.3a3.19,3.19,0,0,0-.715,1.58A7.818,7.818,0,0,1,941.5,140.3Z" transform="translate(-794.166 -123.359)" fill="#0c9add" opacity=".1"/><path id="Path_301" data-name="Path 301" d="M723.27,185.781s3.381-6.562,7.386-3.178a1.26,1.26,0,0,1,.806,1.24s-.336-.185-.6.52a3.429,3.429,0,0,1-.376.707,1.679,1.679,0,0,1-.848.636h0s-1.793,1.343-5.115.307c0,0-.938.136-1.089.018l1.091-.8a2.231,2.231,0,0,0,1.365.918s-1.363-.858-1.209-1.044c.032-.037.6-.4.6-.4a3.676,3.676,0,0,0,2.228,1.533s-1.761-.8-2.014-1.679l.886-.49a3.866,3.866,0,0,0,2.38,1.732s-1.813-.9-2.182-1.828l.937-.366s.958,1.5,2.147,1.64c0,0-1.989-1.256-1.927-1.709a4.869,4.869,0,0,1,1.151-.247s.712,1.063,1.41,1.081c0,0-1.24-.98-1.158-1.131a5.225,5.225,0,0,1,1.893.237,3.773,3.773,0,0,0-1.9-.431,2.08,2.08,0,0,1,1.007-.631s-.685-.282-1.313.65a4.792,4.792,0,0,0-1.088.2,4.523,4.523,0,0,1,1.093-1.435s-.9.158-1.343,1.524l-.952.353a6.459,6.459,0,0,1,1.086-1.786s-.891.3-1.318,1.893l-.875.473a7.714,7.714,0,0,1,.873-1.806,3.064,3.064,0,0,0-1.118,1.951l-.547.384s.314-.881.426-1.126.057-.3.057-.3a3.172,3.172,0,0,0-.715,1.58A7.773,7.773,0,0,1,723.27,185.781Z" transform="translate(-612.568 -161.205)" fill="#0c9add" opacity=".1"/></g></svg>