<svg id="undraw_candidate_ubwv" xmlns="http://www.w3.org/2000/svg" width="180" height="115.906" viewBox="0 0 180 115.906"><path id="Path_350" data-name="Path 350" d="M796.392,665.7l-.935-11.624-2.672,12.292s.035,3.1.124,6.5h3.424C796.448,668.988,796.392,665.7,796.392,665.7Z" transform="translate(-665.79 -556.965)" fill="#f2f2f2"/><path id="Path_351" data-name="Path 351" d="M523.279,666.373a23.662,23.662,0,0,1-.556-3.3l-.374-4.021c-.157-1.1-.319-2.072-.481-2.928-1.191-6.107-2.421-6.328-2.421-6.328-.053.04-.1.085-.157.132a3.959,3.959,0,0,0-.4.425c-1.959,2.489-3.287,8.946-3.985,13.229-.385,2.366-.578,4.068-.578,4.068s.175.725.413,1.76h8.938A15.89,15.89,0,0,0,523.279,666.373Z" transform="translate(-440.765 -553.499)" fill="#f2f2f2"/><path id="Path_352" data-name="Path 352" d="M283.793,148H158.207A27.287,27.287,0,0,0,131,175.207V236.7a27.287,27.287,0,0,0,27.207,27.207h39.8l-.514-2.418s-1.321-8.525,0-15.172a49.9,49.9,0,0,0,.876-6.319,38.067,38.067,0,0,1,1.17-7.095c.035-.134.074-.267.111-.4-.322-.088-.47-.158-.4-.2.206-.122.32-.5.377-.969a46.385,46.385,0,0,1,2-9.229c-1.335.838-2.221.927-2.8.6-2.039-.557-1.193-5.143-1.193-5.143s1.267-9.919,1.688-13.511c.242-2.064,3.343-3.234,6.088-3.869a3.048,3.048,0,0,0,.365-1.9c-.009-.044-.022-.087-.033-.13-.349-.775-1.058-1.413-1.325-2.216a2.337,2.337,0,0,1-.246-.691c-.236-1.376,1.051-2.565,1.422-3.889a3.2,3.2,0,0,1-.823-1.32c-.565-1.16-.29-2.552,1.526-3.626.362-.215.747-.4,1.137-.586a1.768,1.768,0,0,1,.462-.212,7.54,7.54,0,0,0,3.383-2.3,2.042,2.042,0,0,1,.7-.791,1.35,1.35,0,0,1,.482-.108c2.5-.192,4.77,1.955,7.262,1.647a5.4,5.4,0,0,1,2.25-.182,2.663,2.663,0,0,1,1.168.894,9.212,9.212,0,0,1,2,7.586c-.316,1.641-1.084,3.333-.531,4.912.407,1.16,1.5,2.1,1.5,3.329a4.167,4.167,0,0,1-1.4,2.6q.135.138.263.284c1.693,1.929,1.373,3.575,1.134,4.234h0l-.871,8.4-.734,5.635s-.182,2.313-1.891,2.82a2.756,2.756,0,0,1-2.008.03c-.556-.169-1.025-.339-1.423-.5a18.794,18.794,0,0,1,.918,6.034c-.147,3.323.294,3.612.294,3.612a.6.6,0,0,1-.093.092,13.621,13.621,0,0,1-.053,11.757c-2.055,4.479.147,14.883.147,14.883s.157,1.623.227,3.43h31.526A92.283,92.283,0,0,0,250.78,253.8c-.441-.882.119-15.418.328-20.467-.093-.024-.184-.047-.269-.072-.149-.043-.283-.087-.407-.133a2.965,2.965,0,0,0,.081.764c.186.433-.259.751-1.016.968.44,2.147.983,6.141-.855,6.915-1.891.8-1.929-4.04-1.825-6.56-.238.009-.478.013-.714.013-2.271,0,.668-26.322.534-28.059s1.069-8.818,1.069-8.818.4-1.47,1.6-1.737,6.948-3.608,6.948-3.608a4.291,4.291,0,0,1,1.2-1.138v-.2a4.407,4.407,0,0,1,.477-.386c-.07-1.167-.228-2.674-.343-3.691a4.664,4.664,0,0,1-1.254-2.4,7.359,7.359,0,0,1-.7-.622,3.645,3.645,0,0,1-.9-2.275,7.189,7.189,0,0,1,.356-2.456,2.94,2.94,0,0,1,.31-.75,2.714,2.714,0,0,1,.7-.693c.081-.06.165-.117.248-.173a2.34,2.34,0,0,1,.756-.858,4.084,4.084,0,0,1,2.375-.391h.037q.227-.037.455-.06a.467.467,0,0,0,.365-.358l.331.318q.248,0,.5.009a3.551,3.551,0,0,1,.258-.484l.182.518c.166.018.332.04.5.069l.39-.31c.029-.023.132.315.184.431.089.023.179.047.267.075.138-.006.291-.032.377-.031a2.52,2.52,0,0,1,1.343.335,2.884,2.884,0,0,1,.853.985,6.381,6.381,0,0,1,.953,2.748,3.185,3.185,0,0,1,.529,1.181c.221,1.341-1.054,2.462-1.307,3.8a6.538,6.538,0,0,1-.344,2.129,2.223,2.223,0,0,1-.612.642,4.614,4.614,0,0,1-.452.3,11.614,11.614,0,0,0,.277,2.4l.172.659c.267.193.556.415.872.677,0,0,3.741,1.6,5.077,2.405,1.175.7,2.452.791,2.834,1.709l.105.028s1.336,14.831,1.47,17.37,1.737,18.171,1.47,18.839c-.1.247-.729.531-1.49.757.444,2.029,1.161,6.442-.782,7.26-1.969.829-1.929-4.451-1.811-6.862-.263-.024-.435-.092-.46-.22-.022-.109-.091-.6-.192-1.347l-.523.081-.113.017c1.694,5.329-2.058,19.461-2.779,22.227a82.331,82.331,0,0,0-1.15,8.636h16.526A27.287,27.287,0,0,0,311,236.7V175.207A27.287,27.287,0,0,0,283.793,148Z" transform="translate(-131 -148)" fill="#0c9add" opacity=".1"/><ellipse id="Ellipse_9" data-name="Ellipse 9" cx="18.23" cy="16.59" rx="18.23" ry="16.59" transform="translate(22.068 15.841)" fill="#3f3d56"/><path id="Path_353" data-name="Path 353" d="M467.6,530.494h0s6.141-4.222,6.141-6.141,4.222-14.392,6.525-8.827S477,528.959,477,528.959s-6.141,11.13-9.787,13.049a8.752,8.752,0,0,1-6.716.768v-5.181l3.508-5.192A4.335,4.335,0,0,1,467.6,530.494Z" transform="translate(-397.27 -443.853)" fill="#ffb9b9"/><path id="Path_354" data-name="Path 354" d="M406.544,446.336s9.2,2.91,10.162,4.253,1.343-.959,4.03,7.868a92.261,92.261,0,0,1,3.358,17.367s-6.62,2.207-5.853,10.842A72.6,72.6,0,0,1,417.09,504.7h-2.4l-5.28-16.311,6.333-24.755S406.744,448.416,406.544,446.336Z" transform="translate(-353.668 -389.086)" fill="#575a89"/><circle id="Ellipse_10" data-name="Ellipse 10" cx="11.514" cy="11.514" r="11.514" transform="translate(38.284 26.194)" fill="#ffb9b9"/><path id="Path_355" data-name="Path 355" d="M337.538,370.649s-3.262,10.746-.384,12.281,6.141,8.444,6.141,8.444l-4.989,5.565H326.792l-5.181-5.757L319.5,381.4l2.878-2.3s3.07-7.676,3.07-11.706S337.538,370.649,337.538,370.649Z" transform="translate(-283.327 -324.306)" fill="#ffb9b9"/><path id="Path_356" data-name="Path 356" d="M319.1,435.753s-2.3-.576-.96,1.727,2.687,6.525-2.111,6.716-9.595-2.3-11.13-7.484-2.111-4.8-2.687-4.606-6.716,6.525-6.716,6.525l2.111,11.9.768,42.6H326.4s1.151-12.281-.768-15.16,1.727-10.171,1.727-10.171,3.262-4.989.768-14.584S320.063,435.753,319.1,435.753Z" transform="translate(-263.933 -377.513)" fill="#eb1c24"/><path id="Path_357" data-name="Path 357" d="M259.114,430.86a5.05,5.05,0,0,0-5.373.96c-2.495,2.3-8.06,4.222-8.06,5.373s4.8,33.966,1.535,39.723a131.822,131.822,0,0,0-6.716,14.968h16.007s2.607-9.595,5.294-14.776,2.495-19.765,1.727-24.179S259.114,430.86,259.114,430.86Z" transform="translate(-219.487 -376.265)" fill="#575a89"/><path id="Path_358" data-name="Path 358" d="M118.5,538.995l.935,10.171h10.371l-.944-12.665Z" transform="translate(-95.76 -433.547)" fill="#ffb9b9"/><path id="Path_359" data-name="Path 359" d="M364.5,455.236l2.495,15.544h55.458l4.8-31.279Z" transform="translate(-294.553 -355.161)" fill="#3f3d56"/><path id="Path_360" data-name="Path 360" d="M402.694,428.5l.576,2.878L331.5,448.649v-2.495Z" transform="translate(-267.886 -346.272)" fill="#3f3d56"/><path id="Path_361" data-name="Path 361" d="M542.884,453.076l-.384,3.262,4.222-.576-1.727-3.262Z" transform="translate(-438.396 -365.666)" fill="#3f3d56"/><path id="Path_362" data-name="Path 362" d="M554.5,431.445s8.443-.576,10.746,5.949,7.676,18.23,9.787,19.957,4.414,6.333,4.03,7.868" transform="translate(-473.231 -377.042)" fill="none" stroke="#3f3d56" stroke-miterlimit="10" stroke-width="5"/><path id="Path_363" data-name="Path 363" d="M540.8,424.131c0,.9-.958,1.631-2.495,1.631s-2.3-.73-2.3-1.631.766-1.631,2.3-1.631S540.8,423.23,540.8,424.131Z" transform="translate(-458.281 -369.824)" fill="#eb1c24"/><path id="Path_364" data-name="Path 364" d="M421.983,473.329s1.439-6.045-1.247-14.872-3.07-6.525-4.03-7.868-10.162-4.253-10.162-4.253a26.462,26.462,0,0,0,2.417,5.3,10.207,10.207,0,0,0-1.082-2.583c-1.343-2.3.96-1.727.96-1.727.96,0,6.525,7.868,9.019,17.463s-.768,14.584-.768,14.584Z" transform="translate(-353.668 -389.086)" fill="#575a89"/><path id="Path_365" data-name="Path 365" d="M407,446s1.136,4.31,2.1,4.937,6.7,6.587,6.7,6.587l-.746-4.808-3.07-4.606-.817-.593Z" transform="translate(-354.036 -388.815)" fill="#575a89"/><path id="Path_366" data-name="Path 366" d="M245.607,473.383l.268-9.883s-6.312,2.687-6.888,14.2.959,33.2,3.07,33.39,12.09-2.111,12.09-2.111,1.535-27.825.959-31.471S245.607,473.383,245.607,473.383Z" transform="translate(-218.165 -402.956)" opacity=".1"/><path id="Path_367" data-name="Path 367" d="M240.43,463.5h-1.555s-6.312,2.687-6.888,14.2.959,33.2,3.07,33.39,12.09-2.111,12.09-2.111,1.535-27.825.959-31.471S240.43,463.5,240.43,463.5Z" transform="translate(-212.509 -402.956)" fill="#575a89"/><ellipse id="Ellipse_11" data-name="Ellipse 11" cx="11.898" cy="13.337" rx="11.898" ry="13.337" transform="translate(24.179 21.301)" fill="#3f3d56"/><ellipse id="Ellipse_12" data-name="Ellipse 12" cx="2.399" cy="3.55" rx="2.399" ry="3.55" transform="translate(42.217 38.38)" fill="#ffb9b9"/><circle id="Ellipse_13" data-name="Ellipse 13" cx="9.787" cy="9.787" r="9.787" transform="translate(14.392 11.514)" fill="#3f3d56"/><path id="Path_368" data-name="Path 368" d="M203.408,267.037a9.786,9.786,0,0,1-14.18-7.794,9.786,9.786,0,1,0,19.415.545A9.772,9.772,0,0,1,203.408,267.037Z" transform="translate(-177.964 -237.896)" fill="#3f3d56"/><path id="Path_369" data-name="Path 369" d="M210.285,202.53a9.786,9.786,0,0,1,4.928-15.412,9.786,9.786,0,1,0,3.19,19.159A9.772,9.772,0,0,1,210.285,202.53Z" transform="translate(-191.475 -179.612)" fill="#3f3d56"/><ellipse id="Ellipse_14" data-name="Ellipse 14" cx="6.908" cy="4.989" rx="6.908" ry="4.989" transform="translate(43.561 23.795)" fill="#3f3d56"/></svg>