<svg xmlns="http://www.w3.org/2000/svg" width="180.002" height="109.076" viewBox="0 0 180.002 109.076"><g id="undraw_multitasking_hqg3" transform="translate(-.012)"><path id="Path_402" data-name="Path 402" d="M936.856,517.383a3.865,3.865,0,1,0-1.708-7.232l.683,1.871-1.4-1.349a3.851,3.851,0,0,0-1.249,2.668,3.791,3.791,0,0,0,.1,1.064A3.865,3.865,0,0,0,936.856,517.383Z" transform="translate(-783.594 -444.203)" fill="#57b894"/><path id="Path_403" data-name="Path 403" d="M983.635,514.947c-.819-1.517.11-3.377,1.179-4.73s2.371-2.761,2.344-4.485c-.04-2.478-2.67-3.941-4.771-5.254a23.271,23.271,0,0,1-4.284-3.445,6.28,6.28,0,0,1-1.316-1.762,7.157,7.157,0,0,1-.395-3.132q.137-5.3.524-10.6" transform="translate(-819.077 -421.115)" fill="none" stroke="#3f3d56" stroke-miterlimit="10" stroke-width="1"/><path id="Path_404" data-name="Path 404" d="M936.856,514.383a3.865,3.865,0,1,0-1.708-7.232l.683,1.871-1.4-1.349a3.851,3.851,0,0,0-1.249,2.668,3.792,3.792,0,0,0,.1,1.064A3.865,3.865,0,0,0,936.856,514.383Z" transform="translate(-783.594 -441.739)" fill="none" stroke="#3f3d56" stroke-miterlimit="10" stroke-width="1"/><path id="Path_405" data-name="Path 405" d="M957.008,467.538a3.861,3.861,0,0,1,1.929-3.166l.865,1.712-.026-2.072a3.865,3.865,0,1,1-2.768,3.527Z" transform="translate(-803.165 -406.589)" fill="#57b894"/><path id="Path_406" data-name="Path 406" d="M957.008,463.538a3.861,3.861,0,0,1,1.929-3.166l.865,1.712-.026-2.072a3.865,3.865,0,1,1-2.768,3.527Z" transform="translate(-803.165 -403.304)" fill="none" stroke="#3f3d56" stroke-miterlimit="10" stroke-width="1"/><path id="Path_407" data-name="Path 407" d="M989.485,553.3a3.865,3.865,0,0,0,1.226-7.581l.02,1.592-.875-1.732h-.01a3.865,3.865,0,0,0-.361,7.721Z" transform="translate(-826.813 -473.699)" fill="#57b894"/><path id="Path_408" data-name="Path 408" d="M989.325,549.3a3.865,3.865,0,0,0,1.226-7.581l.02,1.592-.875-1.732h-.01a3.865,3.865,0,1,0-.361,7.722Z" transform="translate(-826.681 -470.414)" fill="none" stroke="#3f3d56" stroke-miterlimit="10" stroke-width="1"/><path id="Path_409" data-name="Path 409" d="M993.607,603.885a3.863,3.863,0,1,0-.187-3.111l2.414,1.964-2.655-.615A3.828,3.828,0,0,0,993.607,603.885Z" transform="translate(-832.871 -516.96)" fill="#57b894"/><path id="Path_410" data-name="Path 410" d="M993.607,600.885a3.863,3.863,0,1,0-.187-3.111l2.414,1.964-2.655-.615A3.828,3.828,0,0,0,993.607,600.885Z" transform="translate(-832.871 -514.496)" fill="none" stroke="#3f3d56" stroke-miterlimit="10" stroke-width="1"/><path id="Path_411" data-name="Path 411" d="M757.719,277.882a8.448,8.448,0,0,1-.677,5.528,18.711,18.711,0,0,1-3.254,4.626,4.881,4.881,0,0,0-1.463,2.4c-.18,1.257.667,2.394,1.236,3.529a8.671,8.671,0,0,1,.889,3.182,3.41,3.41,0,0,1-.709,2.683,3.964,3.964,0,0,1-2.546.9,32.537,32.537,0,0,1-7.576-.183c.7-.935.439-1.515.373-2.684-.13-2.292-1.8-4.367-2.121-6.639-.257-1.807.938-3.465,2.069-4.9l5.183-6.569a20.054,20.054,0,0,0,2.331-3.458c.441-.892.523-2.566,1.632-2.864C755.177,272.88,757.313,276.282,757.719,277.882Z" transform="translate(-626.466 -250.168)" fill="#47465a"/><path id="Path_412" data-name="Path 412" d="M662.96,328.855s-3.576,10.548-5.364,11.264,10.727,13.588,10.727,13.588l9.118-4.47.358-8.582-3.576-.179s-.536-3.576,1.251-5.364S662.96,328.855,662.96,328.855Z" transform="translate(-557.143 -295.726)" fill="#fbbebe"/><path id="Path_413" data-name="Path 413" d="M662.96,328.855s-3.576,10.548-5.364,11.264,10.727,13.588,10.727,13.588l9.118-4.47.358-8.582-3.576-.179s-.536-3.576,1.251-5.364S662.96,328.855,662.96,328.855Z" transform="translate(-557.143 -295.726)" opacity=".1"/><path id="Path_414" data-name="Path 414" d="M609.568,385.331s-7.688-5.185-8.045-9.476c0,0-5.721,3.755-7.509,3.576s-6.615.894-6.615,1.609,4.47,20.918,4.47,20.918-3.218,8.582-1.609,11.264,2.5,15.2,2.5,15.2H629.95s-5.006-8.761-2.324-15.018,3.755-32.539,3.755-32.539a5.918,5.918,0,0,0-3.933-1.073c-1.967.358-4.291-1.073-5.721-1.251a20.35,20.35,0,0,0-4.672.553Z" transform="translate(-499.64 -334.323)" fill="#eb1c24"/><path id="Path_415" data-name="Path 415" d="M305.18,647.341v7.867a5.262,5.262,0,0,1-5.2,5.262l-165.524,2.044a3.022,3.022,0,0,1-3.06-3.022v-8.7a3,3,0,0,1,2.9-2.994l166.065-5.125a4.668,4.668,0,0,1,4.812,4.666Z" transform="translate(-125.167 -553.438)" fill="#47465a"/><path id="Path_416" data-name="Path 416" d="M305.18,700.855v2.133a5.262,5.262,0,0,1-5.2,5.262l-165.524,2.044a3.022,3.022,0,0,1-3.06-3.022v-.28Z" transform="translate(-125.167 -601.218)" opacity=".1"/><path id="Path_417" data-name="Path 417" d="M557.546,511.518,536.6,508.8l-37.241,1.359,13.487,4.219Z" transform="translate(-410.072 -417.424)" fill="#f2f2f2"/><path id="Path_418" data-name="Path 418" d="M342.165,509.609v2.145L321.784,516.4l-1.992-.46-.333-.077L304.8,508Z" transform="translate(-250.294 -416.766)" fill="#9493b6"/><path id="Path_419" data-name="Path 419" d="M409.5,517v2.145l-20.382,4.648-1.992-.46-.333-2.222Z" transform="translate(-317.634 -424.157)" opacity=".1"/><path id="Path_420" data-name="Path 420" d="M453.12,668.716c.358-.179,7.867-1.609,7.867-1.609L447.4,665.855Z" transform="translate(-384.67 -572.475)" fill="#47465a"/><circle id="Ellipse_30" data-name="Ellipse 30" cx="11.621" cy="11.621" r="11.621" transform="translate(103.85 19.004)" fill="#fbbebe"/><path id="Path_421" data-name="Path 421" d="M436.625,608.231s-10.37,4.47-12.873,3.218-10.012-4.47-12.336,2.145c-1.874,5.335,9.067,5.67,13.373,5.6a3.6,3.6,0,0,0,2.717-1.309h0l14.929-5.1S439.128,607.158,436.625,608.231Z" transform="translate(-354.945 -525.042)" fill="#fbbebe"/><path id="Path_422" data-name="Path 422" d="M663.559,562.855l1.251,1.073-11.621,16.448s-1.788.179-1.252-.715Z" transform="translate(-552.558 -487.89)" fill="#47465a"/><path id="Path_423" data-name="Path 423" d="M622.335,413.967l1.252-1.609-.536-.358-1.252,1.43Z" transform="translate(-510.619 -337.929)" fill="#47465a"/><path id="Path_424" data-name="Path 424" d="M506.406,398.355s-6.079,1.073-5.9,5.721a26.626,26.626,0,0,1-2.771,12.426c-1.43,2.5-.358,4.47,0,7.867s-1.788,6.973-.715,8.761-11.621,3.039-11.621,4.827,8.045,5.185,6.615,7.509c-1.029,1.672,6.224-1.144,10.375-2.856a7.245,7.245,0,0,0,4.35-5.089,2.721,2.721,0,0,0,.025-1.441c-.536-1.43,5.811-3.308,5.989-6.883s-.894-7.151-1.788-10.727S506.406,398.355,506.406,398.355Z" transform="translate(-415.876 -352.801)" fill="#eb1c24"/><path id="Path_425" data-name="Path 425" d="M98.538,503.016l52.427.5a1.906,1.906,0,0,1,1.716,1.115l14.129,30.957a1.906,1.906,0,0,1-1.8,2.7L112.4,536.46a1.906,1.906,0,0,1-1.659-1.094L96.8,505.733a1.906,1.906,0,0,1,1.743-2.718Z" transform="translate(-96.601 -438.749)" fill="#7a799c"/><path id="Path_426" data-name="Path 426" d="M682.625,608.452s-10.37,4.47-12.873,3.218-10.012-4.47-12.336,2.145c-1.874,5.335,9.067,5.67,13.373,5.6a3.6,3.6,0,0,0,2.717-1.308h0l15.2-1.609S685.128,607.379,682.625,608.452Z" transform="translate(-556.964 -525.263)" fill="#fbbebe"/><path id="Path_427" data-name="Path 427" d="M788.322,411.858s2.592-3.486,3.844-.268,1.073,15.733,1.073,15.733,2.145,6.258,1.43,10.37.715,4.648.715,4.648a3.064,3.064,0,0,1-.715,2.682c-1.073.894-1.788,4.827-1.43,5.364s-.536,3.933-1.252,3.933a18.731,18.731,0,0,1-2.235-.268s-3.665-6.7-11.353-7.241c0,0,1.251-1.788.536-5.364S788.322,411.858,788.322,411.858Z" transform="translate(-656.492 -362.549)" opacity=".1"/><path id="Path_428" data-name="Path 428" d="M793.623,403.916a3.184,3.184,0,0,1,4.2,2.056c1.251,3.218,2.414,16,2.414,16s2.145,6.258,1.43,10.37.715,4.648.715,4.648a3.064,3.064,0,0,1-.715,2.682c-1.073.894-1.788,4.827-1.43,5.364s-.536,3.933-1.252,3.933-7.33,1.073-7.33,1.073,1.43-8.045-6.258-8.582c0,0,1.252-1.788.536-5.364S793.623,403.916,793.623,403.916Z" transform="translate(-662.24 -357.2)" fill="#eb1c24"/><path id="Path_429" data-name="Path 429" d="M642.9,213.637a13.575,13.575,0,0,0-12.061-1.165,21.313,21.313,0,0,0-5.7,3.622,14.189,14.189,0,0,0-3.612,4.025c-1.3,2.425-1.3,5.311-1.26,8.062a58.033,58.033,0,0,0,.388,7.17c.448,3.254,1.451,6.476,1.22,9.753s-2.156,6.773-5.375,7.427a43.146,43.146,0,0,0,8.982-.259,9.145,9.145,0,0,0,5.217-1.986,9.343,9.343,0,0,0,2.061-3.558,11.1,11.1,0,0,0,.931-4.037c-.036-2.891-2.044-5.316-3.354-7.893a5.038,5.038,0,0,1-.678-2.313,2.121,2.121,0,0,1,1.19-1.963c.931-.37,2.008.182,2.975-.077,1.554-.415,1.958-2.574,3.385-3.317a3.034,3.034,0,0,1,3.291.655,7.873,7.873,0,0,0,1.2,1.05,4.239,4.239,0,0,0,2.1.388c1.347.015,5.946-2.1,6.917-3.031.947,4.872,7.991.632,3.949-6.557a16.274,16.274,0,0,0-5.758-6.269,9.148,9.148,0,0,0-8.259-.685" transform="translate(-523.532 -199.411)" fill="#47465a"/><ellipse id="Ellipse_31" data-name="Ellipse 31" cx="1.609" cy="2.861" rx="1.609" ry="2.861" transform="translate(105.727 30.536)" fill="#fbbebe"/><path id="Path_430" data-name="Path 430" d="M772.851,392.374s9.923,1.427,10.459,2.142-.536,5.006-.536,5.006l-7.151,1.251-5.5-1.187Z" transform="translate(-649.693 -347.889)" fill="#eb1c24"/><path id="Path_431" data-name="Path 431" d="M593.163,431.386c-1.494-.258-2.952,1.095-3.726,2.878a16.876,16.876,0,0,0-1.06,6,22.949,22.949,0,0,0,.439,6.132c.965,4.028,3.555,6.876,5.054,10.579a20.746,20.746,0,0,1,1.361,9.247" transform="translate(-500.419 -379.9)" opacity=".1"/><path id="Path_432" data-name="Path 432" d="M599.163,431.386c-1.494-.258-2.952,1.095-3.726,2.878a16.876,16.876,0,0,0-1.06,6,22.951,22.951,0,0,0,.439,6.132c.965,4.028,3.555,6.876,5.054,10.579a20.744,20.744,0,0,1,1.361,9.247" transform="translate(-505.347 -379.9)" fill="#eb1c24"/><path id="Path_433" data-name="Path 433" d="M846.1,465.426l17.3,6.918L874.2,470.4l-.943-7.738-.138-1.126-18.16-5.621-1.3,1.3Z" transform="translate(-694.817 -373.991)" fill="#eb1c24"/><path id="Path_434" data-name="Path 434" d="M901.724,463.616V471.1l18.16,5.621-.943-7.738Z" transform="translate(-740.497 -380.317)" opacity=".1"/><path id="Path_435" data-name="Path 435" d="M904.1,614.217l1.224.453,14.6,5.406,1.134.42a.239.239,0,0,0,.218-.026l1.337-.9,13.906-9.329,1.314-.881a.241.241,0,0,0-.064-.431l-2.095-.642-14.725-4.511-1.286-.394a.24.24,0,0,0-.206.031l-1.013.682-13.119,8.835-1.271.857a.241.241,0,0,0,.05.426Z" transform="translate(-759.589 -521.166)" fill="#7a799c"/><path id="Path_436" data-name="Path 436" d="M946.442,617.023l-13.03,8.862a.479.479,0,0,1-.434.054l-13.833-5.05a.484.484,0,0,1-.1-.859l12.612-8.23a.48.48,0,0,1,.4-.057l14.251,4.418a.484.484,0,0,1,.128.861Z" transform="translate(-771.814 -528.02)" fill="#f2f2f2"/><path id="Path_437" data-name="Path 437" d="M1081.4,630.872v1.954h.845l1.314-.881a.241.241,0,0,0-.064-.432Z" transform="translate(-905.32 -543.747)" fill="#eb1c24"/><path id="Path_438" data-name="Path 438" d="M993.311,693.366v.612l1.134.42a.239.239,0,0,0,.218-.026l1.337-.9v-.11Z" transform="translate(-832.98 -595.068)" fill="#eb1c24"/><path id="Path_439" data-name="Path 439" d="M904.1,658.124l1.224.453v-1.736h0l-1.271.857a.241.241,0,0,0,.05.426Z" transform="translate(-759.589 -565.073)" fill="#eb1c24"/><path id="Path_440" data-name="Path 440" d="M985.032,604.1h2.5v-.319l-1.286-.394a.24.24,0,0,0-.206.031Z" transform="translate(-826.181 -521.166)" fill="#eb1c24"/><circle id="Ellipse_32" data-name="Ellipse 32" cx=".179" cy=".179" r=".179" transform="translate(153.195 86.943)" fill="#f2f2f2"/><path id="Rectangle_301" data-name="Rectangle 301" transform="translate(6.209 5.059)" fill="#f2f2f2" d="M0 0H71.157V36.115H0z"/><path id="Path_441" data-name="Path 441" d="M104.527,85.907,120.643,59,137.36,85.907" transform="translate(-85.828 -48.041)" fill="#eb1c24"/><path id="Path_442" data-name="Path 442" d="M240.758,93.9l3.218-8.4,18.236,22.17H240.669Z" transform="translate(-197.63 -69.803)" fill="#eb1c24"/><path id="Path_443" data-name="Path 443" d="M297.356,221.644a4.47,4.47,0,0,0-4.673-7.621" transform="translate(-257.616 -200.883)" fill="#eb1c24"/><path id="Rectangle_302" data-name="Rectangle 302" transform="translate(10.411 .5)" fill="none" stroke="#3f3d56" stroke-miterlimit="10" stroke-width="1" d="M0 0H71.157V36.115H0z"/><path id="Path_444" data-name="Path 444" d="M109.527,78.907,125.643,52,142.36,78.907" transform="translate(-89.934 -42.292)" fill="none" stroke="#3f3d56" stroke-miterlimit="10" stroke-width="1"/><path id="Path_445" data-name="Path 445" d="M244.169,84.9l3.218-8.4,18.236,22.527" transform="translate(-200.504 -62.412)" fill="none" stroke="#3f3d56" stroke-miterlimit="10" stroke-width="1"/><path id="Path_446" data-name="Path 446" d="M304.356,207.644a4.47,4.47,0,1,0-4.673-7.621" transform="translate(-263.364 -189.386)" fill="none" stroke="#3f3d56" stroke-miterlimit="10" stroke-width="1"/></g></svg>