<svg id="размещение_в_гостицах_-01" data-name="размещение в гостицах -01" xmlns="http://www.w3.org/2000/svg" width="160" height="121.093" viewBox="0 0 160 121.093"><path id="Rectangle_569" data-name="Rectangle 569" transform="translate(100.564 47.991)" fill="#eb1c24" d="M0 0H11.123V4.93H0z"/><path id="Path_1542" data-name="Path 1542" d="M154.533,49.741V31.147H144.2V19.07h-6.992V31.147H126.881V49.74h-5.722V7.946h-11.6V3.973H94.144V0H78.888V3.973H64.426V7.947H51.873V49.582H45.2V30.988H34.867V18.911H27.875V30.988H17.547V49.582H10.872v65.951H26.128V92.172H36.617v23.361h41V88.355h17.8V115.53h24.791v.159h15.256V92.33h10.489v23.361h15.256V49.741ZM16.355,57.689h6.039v4.767H16.355Zm.079,13.349h6.039V75.8H16.434Zm6.118,18.116H16.513V84.387h6.039ZM38.364,46.088H24.378v-2.86H38.363Zm0-4.132H24.378V39.093H38.363Zm0-4.132H24.378v-2.86H38.363Zm1.987,19.864H46.39v4.767H40.351Zm.079,13.349h6.039V75.8H40.43Zm6.118,18.116H40.509V84.387h6.039Zm24.711-7.946H60.136V76.282H71.26Zm0-14.144H60.136V62.133H71.26Zm0-14.144H60.136V47.994H71.26Zm0-14.144H60.136V33.85H71.26Zm0-14.144H60.136V19.706H71.26ZM92.077,81.207H80.954V76.28H92.079Zm0-14.144H80.954v-4.93H92.079Zm0-14.144H80.954V47.993H92.079Zm0-14.144H80.954V33.849H92.079Zm0-14.144H80.954V19.706H92.079ZM112.895,81.2H101.772V76.279H112.9Zm0-14.144H101.772V62.133H112.9Zm0-14.144H101.772V47.991H112.9Zm0-14.144H101.772V33.847H112.9Zm0-14.144H101.772V19.706H112.9Zm12.793,33.213h6.039v4.767h-6.039Zm.079,13.349h6.039v4.767h-6.039Zm6.118,18.116h-6.039V84.541h6.039ZM147.7,46.242H133.71v-2.86H147.7Zm0-4.132H133.71V39.25H147.7Zm0-4.132H133.71v-2.86H147.7Zm1.987,19.865h6.039V62.61h-6.039Zm.079,13.349H155.8V75.96h-6.039Zm6.118,18.116h-6.039V84.542h6.039Z" transform="translate(-1.208)" fill="#0c9add" opacity=".1"/><path id="Path_1543" data-name="Path 1543" d="M21.426,111.676c-.044.628-.114,1.333-.221,2.071l1.943-2.155.011.036a5.684,5.684,0,0,0-.568-1.483l.012.034Z" transform="translate(-2.356 -12.239)" fill="#0c9add"/><path id="Path_1544" data-name="Path 1544" d="M21.463,111.42l1.14-1.45a2.986,2.986,0,0,0-1.019-1.086l-.063-.036C21.527,109.02,21.556,110.025,21.463,111.42Z" transform="translate(-2.385 -12.095)" fill="#0c9add"/><path id="Path_1545" data-name="Path 1545" d="M20.287,117.89c-.05.152-.1.3-.155.449l2.861-1.677v.042c.06-.26.109-.522.149-.782l-2.857,1.988Z" transform="translate(-2.237 -12.881)" fill="#0c9add"/><path id="Path_1546" data-name="Path 1546" d="M20.754,116.03l2.578-2.125.007.04a8.928,8.928,0,0,0-.221-2.089l-1.98,2.2Q20.982,115.089,20.754,116.03Z" transform="translate(-2.306 -12.429)" fill="#0c9add"/><path id="Path_1547" data-name="Path 1547" d="M20.66,113.843,17.577,110.4l.017-.039a7.413,7.413,0,0,0-.74,1.3l3.519,3.747C20.492,114.866,20.586,114.336,20.66,113.843Z" transform="translate(-1.873 -12.263)" fill="#0c9add"/><path id="Path_1548" data-name="Path 1548" d="M16.816,111.911h0l.016-.039Z" transform="translate(-1.869 -12.431)" fill="#eb1c24"/><path id="Path_1549" data-name="Path 1549" d="M16.62,112.392l-.016.039Z" transform="translate(-1.845 -12.489)" fill="#eb1c24"/><path id="Path_1550" data-name="Path 1550" d="M20.326,115.677l-3.532-3.756q-.089.205-.172.422l3.61,3.733C20.266,115.942,20.3,115.809,20.326,115.677Z" transform="translate(-1.847 -12.436)" fill="#0c9add"/><path id="Path_1551" data-name="Path 1551" d="M23.177,115.689a10.671,10.671,0,0,0,.115-1.428l-2.612,2.154q-.156.627-.341,1.2l2.833-1.972Z" transform="translate(-2.26 -12.696)" fill="#0c9add"/><path id="Path_1552" data-name="Path 1552" d="M16.091,116l2.859,3.733a12.792,12.792,0,0,0,.622-1.4l-3.488-3.664a10.3,10.3,0,0,0-.012,1.376Z" transform="translate(-1.784 -12.741)" fill="#0c9add"/><path id="Path_1553" data-name="Path 1553" d="M21.228,108.815l.026-.012a2.016,2.016,0,0,0-1.956.041l1.872,2.543A25.722,25.722,0,0,0,21.228,108.815Z" transform="translate(-2.144 -12.064)" fill="#0c9add"/><path id="Path_1554" data-name="Path 1554" d="M19.957,118.69a12.819,12.819,0,0,1-.562,1.263l2.876-1.488v.042a5.025,5.025,0,0,0,.5-1.166q.068-.241.125-.484l-2.9,1.7C19.991,118.6,19.975,118.647,19.957,118.69Z" transform="translate(-2.155 -12.985)" fill="#0c9add"/><path id="Path_1555" data-name="Path 1555" d="M20.988,111.535l-1.916-2.6.018-.037a4.286,4.286,0,0,0-1.38,1.273l3.059,3.412C20.875,112.852,20.948,112.156,20.988,111.535Z" transform="translate(-1.968 -12.1)" fill="#0c9add"/><path id="Path_1556" data-name="Path 1556" d="M19.606,118a17.228,17.228,0,0,0,.544-1.778l-3.619-3.745q-.129.351-.237.73a6.251,6.251,0,0,0-.2,1.108L19.6,118Z" transform="translate(-1.788 -12.498)" fill="#0c9add"/><path id="Path_1557" data-name="Path 1557" d="M24.043,123.182c-.436.456-.937.953-1.492,1.453l2.871-.42-.015.035a5.674,5.674,0,0,0,.508-1.5l-.012.034Z" transform="translate(-2.506 -13.639)" fill="#0c9add"/><path id="Path_1558" data-name="Path 1558" d="M26.023,121.028c-.008-.023-.017-.045-.026-.068-.1.136-.723.929-1.684,1.944l1.8-.39A2.98,2.98,0,0,0,26.023,121.028Z" transform="translate(-2.702 -13.441)" fill="#0c9add"/><path id="Path_1559" data-name="Path 1559" d="M19.292,127.335q-.2.128-.406.247l3.274.533-.024.035q.319-.244.614-.508l-3.467-.291Z" transform="translate(-2.099 -14.149)" fill="#0c9add"/><path id="Path_1560" data-name="Path 1560" d="M20.7,126.187l3.34.007-.02.036a8.9,8.9,0,0,0,1.163-1.75l-2.925.428Q21.475,125.607,20.7,126.187Z" transform="translate(-2.3 -13.832)" fill="#0c9add"/><path id="Path_1561" data-name="Path 1561" d="M19.432,127.189l3.44.289-.022.036a10.578,10.578,0,0,0,1-1.027l-3.386-.007Q19.944,126.863,19.432,127.189Z" transform="translate(-2.159 -14.054)" fill="#0c9add"/><path id="Path_1562" data-name="Path 1562" d="M14.244,127.736l.076-.077a8.839,8.839,0,0,0,2.044-.583l.093-2.479c.028-.063.055-.126.081-.19l-.1,2.638a12.792,12.792,0,0,0,1.372-.683l-.319-4.608.075-.039.319,4.6h0a17.223,17.223,0,0,0,1.552-1.02l-.348-4.533.074-.054.348,4.533q.165-.123.326-.246l-.287-4.59.074-.06.287,4.594c.444-.344.852-.692,1.223-1.025l-.178-4.617.037-.02c-.128.034-.259.073-.39.116a6.491,6.491,0,0,0,.664-.906l-2.9,1.5a9.777,9.777,0,0,1-.676,1.1c-.052.049-.1.1-.155.149v.055l-.071.089-.005-.075c-.036.037-.072.077-.108.116a9.107,9.107,0,0,0,.964-1.473l-2.837-3.7c.02.331.052.664.089.995a5.583,5.583,0,0,0-.951-1.162l.022.028-.656,1.787c.152.612.3,1.3.429,2.038l1.165-2.613c.005.041.011.081.017.122l-1.163,2.607q.172,1.036.247,2l1.4-2.192.024.094-1.405,2.219q.047.644.047,1.252l1.706-2.251.027.089-1.724,2.275-.008-.018c0,.161,0,.319-.009.475l1.924-2.166.028.084-1.956,2.2a1.122,1.122,0,0,1-.006.145,12.722,12.722,0,0,1-.144,1.374l.186-.188-.1.216-.106.107c-.012.069-.026.138-.039.206l-.113.251c.035-.156.068-.314.1-.472l-3.844-2.644a23.687,23.687,0,0,0,3.012,5.16,6.173,6.173,0,0,0,.267-.564L14,127.7l-.03.07h-.036l.03.009c-.058.134-.117.267-.178.395.084-.076.212-.195.364-.346a10.144,10.144,0,0,0,5.422,0l-3.194-.7a8.911,8.911,0,0,1-2.133.6Zm2.244-4.042.076-.077v.116l-.076.077Z" transform="translate(-1.184 -12.899)" fill="#0c9add"/><path id="Path_1563" data-name="Path 1563" d="M25.955,120.769l.027.007a2.018,2.018,0,0,0-1.531-1.215l-.178,3.153C25.311,121.616,25.946,120.781,25.955,120.769Z" transform="translate(-2.697 -13.285)" fill="#0c9add"/><path id="Path_1564" data-name="Path 1564" d="M18.473,127.753a12.725,12.725,0,0,1-1.238.614l3.164.688-.024.034a5.074,5.074,0,0,0,1.132-.577c.138-.1.272-.192.4-.292l-3.313-.54Z" transform="translate(-1.915 -14.187)" fill="#0c9add"/><path id="Path_1565" data-name="Path 1565" d="M22.5,124.226c.548-.5,1.044-.987,1.474-1.437l.184-3.225.037-.017a4.292,4.292,0,0,0-1.874.1Z" transform="translate(-2.481 -13.277)" fill="#0c9add"/><path id="Path_1566" data-name="Path 1566" d="M14.911,115.968a2.982,2.982,0,0,0-1.3-.717l-.071-.014c.059.161.4,1.108.74,2.463Z" transform="translate(-1.504 -12.805)" fill="#eb1c24"/><path id="Path_1567" data-name="Path 1567" d="M14.3,120.229l-4-2.319v-.042a7.457,7.457,0,0,0-.3,1.468l4.5,2.476C14.461,121.253,14.386,120.725,14.3,120.229Z" transform="translate(-1.111 -13.097)" fill="#0c9add"/><path id="Path_1568" data-name="Path 1568" d="M14.521,122.1,10,119.614c-.014.148-.025.3-.033.454l4.587,2.436C14.544,122.369,14.533,122.233,14.521,122.1Z" transform="translate(-1.107 -13.291)" fill="#0c9add"/><path id="Path_1569" data-name="Path 1569" d="M14.609,124.859l-4.45-2.406a10.273,10.273,0,0,0,.414,1.313l.006-.046,3.871,2.667A12.756,12.756,0,0,0,14.609,124.859Z" transform="translate(-1.129 -13.607)" fill="#0c9add"/><path id="Path_1570" data-name="Path 1570" d="M13.251,115.248l.02-.019a2.017,2.017,0,0,0-1.845.643l2.566,1.84C13.622,116.245,13.256,115.262,13.251,115.248Z" transform="translate(-1.27 -12.801)" fill="#eb1c24"/><path id="Path_1571" data-name="Path 1571" d="M13.9,117.909l-2.626-1.882.005-.041a4.29,4.29,0,0,0-.918,1.636l3.964,2.3C14.2,119.195,14.053,118.517,13.9,117.909Z" transform="translate(-1.152 -12.888)" fill="#0c9add"/><path id="Path_1572" data-name="Path 1572" d="M14.59,124.52a17.256,17.256,0,0,0-.031-1.857l-4.6-2.444q-.015.373,0,.768a6.206,6.206,0,0,0,.153,1.115l4.476,2.42Z" transform="translate(-1.106 -13.358)" fill="#0c9add"/><path id="Path_1573" data-name="Path 1573" d="M174.463,111.14c-.044.628-.114,1.333-.221,2.071l1.943-2.155.011.036a5.684,5.684,0,0,0-.568-1.483l.012.034Z" transform="translate(-19.361 -12.179)" fill="#0c9add"/><path id="Path_1574" data-name="Path 1574" d="M174.5,110.884l1.14-1.45a2.986,2.986,0,0,0-1.019-1.086l-.063-.036C174.564,108.484,174.593,109.489,174.5,110.884Z" transform="translate(-19.39 -12.035)" fill="#0c9add"/><path id="Path_1575" data-name="Path 1575" d="M173.325,117.354c-.05.152-.1.3-.155.449l2.861-1.677v.042c.06-.26.109-.522.149-.782l-2.857,1.988Z" transform="translate(-19.242 -12.821)" fill="#0c9add"/><path id="Path_1576" data-name="Path 1576" d="M173.791,115.494l2.578-2.125.007.04a8.931,8.931,0,0,0-.22-2.09l-1.98,2.2Q174.019,114.553,173.791,115.494Z" transform="translate(-19.311 -12.369)" fill="#0c9add"/><path id="Path_1577" data-name="Path 1577" d="M173.7,113.307l-3.084-3.441.017-.039a7.413,7.413,0,0,0-.74,1.3l3.518,3.747C173.529,114.33,173.623,113.8,173.7,113.307Z" transform="translate(-18.878 -12.204)" fill="#0c9add"/><path id="Path_1578" data-name="Path 1578" d="M169.853,111.375h0l.016-.039Z" transform="translate(-18.873 -12.371)" fill="#eb1c24"/><path id="Path_1579" data-name="Path 1579" d="M173.363,115.141l-3.532-3.76q-.089.205-.172.422l3.61,3.733C173.3,115.4,173.334,115.273,173.363,115.141Z" transform="translate(-18.852 -12.376)" fill="#0c9add"/><path id="Path_1580" data-name="Path 1580" d="M169.658,111.855l-.016.039Z" transform="translate(-18.85 -12.429)" fill="#eb1c24"/><path id="Path_1581" data-name="Path 1581" d="M176.214,115.153a10.672,10.672,0,0,0,.115-1.428l-2.612,2.154q-.156.623-.341,1.2l2.833-1.972Z" transform="translate(-19.265 -12.637)" fill="#0c9add"/><path id="Path_1582" data-name="Path 1582" d="M169.128,115.464l2.859,3.733a12.793,12.793,0,0,0,.622-1.4l-3.488-3.664a10.3,10.3,0,0,0-.012,1.376Z" transform="translate(-18.789 -12.682)" fill="#0c9add"/><path id="Path_1583" data-name="Path 1583" d="M174.265,108.277l.026-.012a2.016,2.016,0,0,0-1.956.041l1.872,2.543C174.309,109.341,174.265,108.293,174.265,108.277Z" transform="translate(-19.149 -12.004)" fill="#0c9add"/><path id="Path_1584" data-name="Path 1584" d="M172.995,118.154a12.818,12.818,0,0,1-.562,1.263l2.876-1.488v.042a5.024,5.024,0,0,0,.5-1.166q.068-.241.125-.484l-2.9,1.7C173.029,118.065,173.012,118.111,172.995,118.154Z" transform="translate(-19.16 -12.925)" fill="#0c9add"/><path id="Path_1585" data-name="Path 1585" d="M174.025,111l-1.916-2.6.018-.037a4.286,4.286,0,0,0-1.38,1.273l3.059,3.412C173.912,112.316,173.985,111.62,174.025,111Z" transform="translate(-18.973 -12.041)" fill="#0c9add"/><path id="Path_1586" data-name="Path 1586" d="M172.644,117.465a17.23,17.23,0,0,0,.544-1.778l-3.619-3.745q-.129.351-.237.73a6.251,6.251,0,0,0-.2,1.108l3.508,3.684Z" transform="translate(-18.793 -12.439)" fill="#0c9add"/><path id="Path_1587" data-name="Path 1587" d="M177.081,122.646c-.436.456-.938.953-1.492,1.453l2.87-.42-.015.035a5.673,5.673,0,0,0,.508-1.5l-.012.034Z" transform="translate(-19.511 -13.579)" fill="#0c9add"/><path id="Path_1588" data-name="Path 1588" d="M179.06,120.492c-.008-.023-.017-.045-.026-.068-.1.136-.723.929-1.684,1.944l1.8-.39A2.99,2.99,0,0,0,179.06,120.492Z" transform="translate(-19.706 -13.381)" fill="#0c9add"/><path id="Path_1589" data-name="Path 1589" d="M172.33,126.8q-.2.128-.406.247l3.274.533-.024.035q.319-.244.614-.508l-3.467-.291Z" transform="translate(-19.104 -14.089)" fill="#0c9add"/><path id="Path_1590" data-name="Path 1590" d="M173.737,125.65l3.34.007-.02.036a8.9,8.9,0,0,0,1.163-1.75l-2.925.428Q174.513,125.07,173.737,125.65Z" transform="translate(-19.305 -13.772)" fill="#0c9add"/><path id="Path_1591" data-name="Path 1591" d="M172.469,126.653l3.44.288-.022.036a10.579,10.579,0,0,0,1-1.027l-3.386-.007Q172.981,126.327,172.469,126.653Z" transform="translate(-19.164 -13.994)" fill="#0c9add"/><path id="Path_1592" data-name="Path 1592" d="M167.281,127.2l.076-.077a8.839,8.839,0,0,0,2.044-.583l.093-2.479c.028-.063.055-.126.081-.19l-.1,2.638a12.792,12.792,0,0,0,1.372-.683l-.319-4.608.075-.039.319,4.6h0a17.222,17.222,0,0,0,1.552-1.02l-.348-4.533.074-.054.348,4.533q.165-.123.326-.246l-.287-4.59.074-.06.287,4.594c.444-.344.852-.692,1.223-1.025l-.178-4.616.037-.02c-.128.034-.259.073-.39.116a6.489,6.489,0,0,0,.664-.906l-2.9,1.5a9.778,9.778,0,0,1-.676,1.1c-.052.049-.1.1-.155.149v.055l-.071.089-.005-.075c-.036.037-.072.077-.108.116a9.107,9.107,0,0,0,.964-1.473l-2.838-3.7c.02.331.052.664.089.995a5.583,5.583,0,0,0-.951-1.162l.022.028-.656,1.787c.152.612.3,1.3.429,2.038l1.165-2.613c.005.041.011.082.017.122l-1.163,2.607q.172,1.036.247,2l1.4-2.192.024.094-1.411,2.215q.047.644.047,1.252l1.706-2.251.027.089L167.775,123l-.008-.018c0,.161,0,.319-.009.475l1.924-2.166.028.084-1.956,2.2a1.121,1.121,0,0,1-.006.145,12.722,12.722,0,0,1-.144,1.374l.186-.188-.1.216-.106.107c-.012.069-.026.138-.039.206-.039.085-.076.169-.113.251.035-.156.068-.314.1-.472l-3.844-2.644a23.688,23.688,0,0,0,3.012,5.16,6.171,6.171,0,0,0,.267-.564l.071-.007-.03.07h-.036l.03.009c-.058.134-.117.267-.178.395.084-.076.212-.195.364-.346a10.144,10.144,0,0,0,5.422,0l-3.194-.7A8.917,8.917,0,0,1,167.281,127.2Zm2.244-4.042.076-.077v.116l-.076.077Z" transform="translate(-18.188 -12.839)" fill="#0c9add"/><path id="Path_1593" data-name="Path 1593" d="M178.992,120.233l.027.007a2.018,2.018,0,0,0-1.531-1.215l-.178,3.153C178.348,121.08,178.983,120.245,178.992,120.233Z" transform="translate(-19.702 -13.226)" fill="#0c9add"/><path id="Path_1594" data-name="Path 1594" d="M171.51,127.217a12.726,12.726,0,0,1-1.238.614l3.164.688-.024.034a5.056,5.056,0,0,0,1.132-.577c.138-.1.273-.192.4-.292l-3.313-.54Z" transform="translate(-18.92 -14.128)" fill="#0c9add"/><path id="Path_1595" data-name="Path 1595" d="M175.54,123.689c.548-.5,1.044-.987,1.473-1.437l.184-3.225.037-.017a4.282,4.282,0,0,0-1.875.1Z" transform="translate(-19.485 -13.217)" fill="#0c9add"/><path id="Path_1596" data-name="Path 1596" d="M167.948,115.431a2.982,2.982,0,0,0-1.3-.717l-.071-.014c.059.161.4,1.108.74,2.463Z" transform="translate(-18.509 -12.745)" fill="#eb1c24"/><path id="Path_1597" data-name="Path 1597" d="M167.342,119.693l-4-2.319v-.042a7.456,7.456,0,0,0-.3,1.468l4.5,2.476C167.5,120.717,167.424,120.189,167.342,119.693Z" transform="translate(-18.116 -13.037)" fill="#eb1c24"/><path id="Path_1598" data-name="Path 1598" d="M167.558,121.561l-4.521-2.484c-.014.148-.025.3-.033.454l4.588,2.437C167.582,121.832,167.57,121.7,167.558,121.561Z" transform="translate(-18.112 -13.231)" fill="#eb1c24"/><path id="Path_1599" data-name="Path 1599" d="M167.647,124.322l-4.45-2.406a10.27,10.27,0,0,0,.414,1.313l.006-.046,3.871,2.667A12.761,12.761,0,0,0,167.647,124.322Z" transform="translate(-18.134 -13.547)" fill="#eb1c24"/><path id="Path_1600" data-name="Path 1600" d="M166.288,114.711l.02-.019a2.017,2.017,0,0,0-1.845.643l2.567,1.84C166.659,115.708,166.293,114.726,166.288,114.711Z" transform="translate(-18.274 -12.741)" fill="#eb1c24"/><path id="Path_1601" data-name="Path 1601" d="M166.94,117.372l-2.626-1.882.005-.041a4.29,4.29,0,0,0-.918,1.636l3.964,2.3C167.239,118.658,167.09,117.98,166.94,117.372Z" transform="translate(-18.156 -12.828)" fill="#eb1c24"/><path id="Path_1602" data-name="Path 1602" d="M167.627,123.984a17.252,17.252,0,0,0-.031-1.857l-4.6-2.444q-.015.373,0,.768a6.2,6.2,0,0,0,.153,1.115l4.476,2.42Z" transform="translate(-18.111 -13.299)" fill="#eb1c24"/><path id="Path_1603" data-name="Path 1603" d="M10.873,129.974H161.207v2.151a3.412,3.412,0,0,1-3.411,3.411H14.284a3.411,3.411,0,0,1-3.411-3.411Z" transform="translate(-1.208 -14.442)" fill="#2f2e41"/><path id="Rectangle_570" data-name="Rectangle 570" transform="translate(9.664 113.784)" fill="#3f3d56" d="M0 0H150.335V3.02H0z"/><path id="Path_1604" data-name="Path 1604" d="M141.889,11.32l1.726,1.1-1.048-1.906a1.7,1.7,0,0,1,1.044-.372h.028a1.983,1.983,0,0,0,.356-.027l.585.371-.251-.456a2.079,2.079,0,0,0,1.024-.777l1.047.664-.661-1.2a3.063,3.063,0,0,1,2.347-1.186,3.215,3.215,0,0,1,2.685,1.657,2.008,2.008,0,0,0,1.778.957h.059c1.2,0,2.177,1.364,2.177,3.044s-.978,3.044-2.177,3.044a1.636,1.636,0,0,1-.758-.19,3.141,3.141,0,0,0-2.635-.052,2.747,2.747,0,0,1-2.24.005,3.144,3.144,0,0,0-2.612.051,1.635,1.635,0,0,1-.75.186c-1.2,0-2.177-1.364-2.177-3.044a3.869,3.869,0,0,1,.454-1.861Z" transform="translate(-15.716 -.836)" fill="#0c9add" opacity=".1"/><path id="Path_1605" data-name="Path 1605" d="M43.09,21.553l1.1.7-.667-1.212a1.08,1.08,0,0,1,.664-.237H44.2a1.3,1.3,0,0,0,.228-.017l.372.236-.159-.29a1.324,1.324,0,0,0,.652-.494l.666.422-.421-.765a1.948,1.948,0,0,1,1.492-.755,2.045,2.045,0,0,1,1.708,1.054,1.277,1.277,0,0,0,1.129.609h.037c.764,0,1.385.868,1.385,1.937s-.622,1.937-1.385,1.937a1.039,1.039,0,0,1-.483-.121,2,2,0,0,0-1.676-.033,1.746,1.746,0,0,1-1.422,0,2,2,0,0,0-1.661.032,1.039,1.039,0,0,1-.477.118c-.764,0-1.385-.868-1.385-1.937A2.464,2.464,0,0,1,43.09,21.553Z" transform="translate(-4.756 -2.127)" fill="#0c9add" opacity=".1"/><path id="Path_1606" data-name="Path 1606" d="M9.836,25.753l1.1.7-.667-1.212A1.08,1.08,0,0,1,10.932,25h.018a1.3,1.3,0,0,0,.228-.017l.372.236-.16-.29a1.324,1.324,0,0,0,.652-.494l.666.422-.42-.765a1.948,1.948,0,0,1,1.492-.755,2.045,2.045,0,0,1,1.708,1.054A1.277,1.277,0,0,0,16.616,25h.037c.764,0,1.385.868,1.385,1.937s-.622,1.937-1.385,1.937a1.039,1.039,0,0,1-.483-.121,2,2,0,0,0-1.676-.033,1.746,1.746,0,0,1-1.422,0,2,2,0,0,0-1.661.032,1.039,1.039,0,0,1-.477.118c-.764,0-1.385-.868-1.385-1.937A2.464,2.464,0,0,1,9.836,25.753Z" transform="translate(-1.061 -2.593)" fill="#0c9add" opacity=".1"/><path id="Path_1607" data-name="Path 1607" d="M54.455,106.709l-.192.192s.064,2.11.128,2.557a4.106,4.106,0,0,1,.128,1.79,2.189,2.189,0,0,0-.192,1.087c.064.064-.064.32-.064.32l.512-.32.831-1.918-.384-2.044Z" transform="translate(-6.029 -11.857)" fill="#eb1c24"/><path id="Path_1608" data-name="Path 1608" d="M54.455,106.709l-.192.192s.064,2.11.128,2.557a4.106,4.106,0,0,1,.128,1.79,2.189,2.189,0,0,0-.192,1.087c.064.064-.064.32-.064.32l.512-.32.831-1.918-.384-2.044Z" transform="translate(-6.029 -11.857)" opacity=".1"/><path id="Path_1609" data-name="Path 1609" d="M57.99,128.9s0-.7-.128-.831-.32-.575-.575-.575a3.607,3.607,0,0,0-1.151.32,1.175,1.175,0,0,1-.128.575c-.128.192-.831.959-.128,1.087a1.786,1.786,0,0,0,1.343-.32c.064-.064.32-.128.384-.064S57.99,128.9,57.99,128.9Z" transform="translate(-6.175 -14.167)" fill="#eb1c24"/><path id="Path_1610" data-name="Path 1610" d="M60.305,127.778l.384.7s.128.639.32.7H61.2s.192.7.639.639.959-.32.959-.444,0-.511-.192-.639a8.974,8.974,0,0,1-.767-.7l-.32-.32Z" transform="translate(-6.701 -14.191)" fill="#eb1c24"/><path id="Path_1611" data-name="Path 1611" d="M54.707,101.388a.864.864,0,0,0-.462.646c-.036.457.416.889.267,1.321-.083.246-.34.406-.413.655a.9.9,0,0,0,.083.585,4.447,4.447,0,0,0,.367.711,3.591,3.591,0,0,1,.692,1.321.561.561,0,0,1-.124.5,1.191,1.191,0,0,1,.436-.207,5.553,5.553,0,0,0,1.79-1,1.115,1.115,0,0,0,.414-.55c.1-.393-.2-.786-.172-1.189a2.969,2.969,0,0,1,.252-.732,1.888,1.888,0,0,0-.164-1.472,1.753,1.753,0,0,0-1.045-.909,2.075,2.075,0,0,0-1.056.03A3.855,3.855,0,0,0,54.707,101.388Z" transform="translate(-6.009 -11.224)" fill="#2f2e41"/><path id="Path_1612" data-name="Path 1612" d="M55.189,105.307a1.658,1.658,0,0,1,1.446-.873c1.023,0,.831-.064.831-.064l-.32,1.279-.639.639Z" transform="translate(-6.132 -11.597)" fill="#eb1c24"/><path id="Path_1613" data-name="Path 1613" d="M55.481,103.883s.575.959.192,1.343a.622.622,0,0,0-.128.831c.064.064,1.854.192,1.854.192l.064-.9.192-.767s-1.023-.192-.9-.639S55.481,103.883,55.481,103.883Z" transform="translate(-6.16 -11.526)" fill="#fbbebe"/><path id="Path_1614" data-name="Path 1614" d="M55.481,103.883s.575.959.192,1.343a.622.622,0,0,0-.128.831c.064.064,1.854.192,1.854.192l.064-.9.192-.767s-1.023-.192-.9-.639S55.481,103.883,55.481,103.883Z" transform="translate(-6.16 -11.526)" opacity=".1"/><path id="Path_1615" data-name="Path 1615" d="M60.457,114.087a4.358,4.358,0,0,1-.256.639c-.064.064-.256-.444-.256-.444l.192-.444Z" transform="translate(-6.661 -12.649)" fill="#fbbebe"/><path id="Path_1616" data-name="Path 1616" d="M59.247,110.845l.256,1.471H55.667l.192-1.471Z" transform="translate(-6.186 -12.317)" fill="#fbbebe"/><circle id="Ellipse_267" data-name="Ellipse 267" cx="1.215" cy="1.215" r="1.215" transform="translate(48.809 90.439)" fill="#fbbebe"/><path id="Path_1617" data-name="Path 1617" d="M56.308,105.727s-.7.064-.7-.064-.064-.512-.192-.444-.959.128-.9.32.192.575.064.575a.416.416,0,0,0-.325.491l.005.021c.064.32.767,2.238.767,2.238a1.92,1.92,0,0,0,.256.831.575.575,0,0,1,0,.7c-.128.128.32.256.512.511s1.662.064,1.726,0,1.6-.064,1.726-.192-.064-.512-.064-.512a3,3,0,0,1,0-.767,16.562,16.562,0,0,0-.444-3.516c-.192-.192.575-.767.575-.767s-.128-.512-.959-.575c0,0-.256-.384-.512-.384a2.71,2.71,0,0,0-.812.3s-.148.853-.34.917A1.049,1.049,0,0,0,56.308,105.727Z" transform="translate(-6.028 -11.578)" fill="#eb1c24"/><path id="Path_1618" data-name="Path 1618" d="M59.366,105.054l.444.192s1.279,3.964,1.151,4.732a18.64,18.64,0,0,1-.639,3.389c-.195,0-.575-.384-.575-.384v-.639c0-.128-.192-.512-.064-.512s.32-.128.192-.256-.256-.32-.128-.512.192-.256.128-.444-.192-.384-.064-.511-.32-.767-.32-.767l-.7-2.813.128-1.151Z" transform="translate(-6.532 -11.673)" fill="#eb1c24"/><path id="Path_1619" data-name="Path 1619" d="M59.088,111.826s-2.43-.192-2.749-.192a4.182,4.182,0,0,1-1.037-.3,5.457,5.457,0,0,0-1.2,4.841c.639,3.005.767,6.714,1.151,7.8a20.34,20.34,0,0,1,.639,2.366s.639-1.151,1.854.128a3.338,3.338,0,0,0-.064-1.343,16.835,16.835,0,0,1-.444-2.43s-.444-3.261-.444-3.644-.256-3.644-.192-3.708.384,2.493.444,2.941.256,3.9.444,4.284,1.087,3.453,1.6,3.644a4.229,4.229,0,0,0,2.174-.192c-.064-.128-.512-.831-.639-1.023l-.512-.767L58.9,120.075l.575-5.052S59.791,111.762,59.088,111.826Z" transform="translate(-5.995 -12.371)" fill="#2f2e41"/><path id="Path_1620" data-name="Path 1620" d="M56.862,102.781H55.3a.278.278,0,0,1-.274-.234l-.155-.978h2.43l-.217,1.032A.23.23,0,0,1,56.862,102.781Z" transform="translate(-6.098 -11.286)" fill="#2f2e41"/><path id="Path_1621" data-name="Path 1621" d="M147.444,102.591H149.9V106.1h0a2.458,2.458,0,0,1-2.459-2.459Z" transform="translate(-16.383 -11.4)" fill="#2f2e41"/><path id="Path_1622" data-name="Path 1622" d="M145.81,125.736l-.178.878h1.229l.059-.878Z" transform="translate(-16.182 -13.971)" fill="#a0616a"/><path id="Path_1623" data-name="Path 1623" d="M145.531,126.511s-.234-.178-.356-.059-.527,2.4-.586,2.459-1.814.936-1.4.995a9.386,9.386,0,0,0,2.222,0,6.145,6.145,0,0,0,.878-1.229v.995h.117a3.3,3.3,0,0,1,.41-1.346c.292-.292-.234-1.288-.234-1.288s.117-.644.059-.644S145.531,126.511,145.531,126.511Z" transform="translate(-15.903 -14.044)" fill="#eb1c24"/><path id="Path_1624" data-name="Path 1624" d="M149.892,125.045l-.178.878h1.228l.059-.878Z" transform="translate(-16.636 -13.895)" fill="#a0616a"/><path id="Path_1625" data-name="Path 1625" d="M148.333,118.227s.586,1.756.7,1.932.527,3.453.527,3.453-.41.644.117.7.292-.117.644,0a.66.66,0,0,0,.585-.059s.178-.356.059-.468a27.59,27.59,0,0,1,.117-3.161l-.356-1.053-.292-3.336s.356-.878.178-1.112-.761.178-.761.178Z" transform="translate(-16.482 -12.784)" fill="#2f2e41"/><path id="Path_1626" data-name="Path 1626" d="M147.232,113.488a13.548,13.548,0,0,1-.292,1.99c-.117.117-1.4,3.395-1.4,3.395s-.356.41-.234,1.932.41,3.044.41,3.044-.234.878.178.878.585-.234.761-.059.292,0,.356-.117a3.112,3.112,0,0,0,.292-.644c0-.117.234-3.1.234-3.1s1.932-4.273,2.107-4.507a4.831,4.831,0,0,0,1.112-2.4Z" transform="translate(-16.143 -12.61)" fill="#2f2e41"/><circle id="Ellipse_268" data-name="Ellipse 268" cx="1.229" cy="1.229" r="1.229" transform="translate(131.325 90.519)" fill="#a0616a"/><path id="Path_1627" data-name="Path 1627" d="M148.86,104.314a13.231,13.231,0,0,1,.527,1.346c.059.292,1.171-.585,1.171-.585s-.585-.995-.41-1.463Z" transform="translate(-16.541 -11.513)" fill="#a0616a"/><path id="Path_1628" data-name="Path 1628" d="M150.553,105.041s-.878-.644-1.522.7-.82,1.288-.82,1.288-.761.234-.527,1.873-.761,3.8-.356,3.922,4.214.761,4.214.292a12.478,12.478,0,0,1-.059-3.395C151.782,108.611,151.079,104.748,150.553,105.041Z" transform="translate(-16.36 -11.655)" fill="#3f3d56"/><path id="Path_1629" data-name="Path 1629" d="M149.785,105.39a3.8,3.8,0,0,0-.644,1.873c.059.82.059,1.346.059,1.346s-1.171,5.619-.937,5.619.937.292.995.117,1.522-3.746,1.522-3.746.356-3.571-.059-4.389S149.785,105.39,149.785,105.39Z" transform="translate(-16.471 -11.711)" fill="#3f3d56"/><path id="Path_1630" data-name="Path 1630" d="M148.371,115.139s-.585,1.99.234,2.044.356-1.932.356-1.932Z" transform="translate(-16.464 -12.794)" fill="#a0616a"/><path id="Path_1631" data-name="Path 1631" d="M149.888,125.506s-.205-.154-.308-.052-.461,2.1-.513,2.153-1.589.82-1.23.871a8.2,8.2,0,0,0,1.948,0,5.372,5.372,0,0,0,.769-1.076v.871h.1a2.894,2.894,0,0,1,.356-1.179c.256-.256-.205-1.128-.205-1.128s.1-.564.052-.564S149.888,125.506,149.888,125.506Z" transform="translate(-16.421 -13.934)" fill="#eb1c24"/><path id="Path_1632" data-name="Path 1632" d="M148.25,102.11a.337.337,0,0,1,.148-.1.313.313,0,0,1,.162.014,1.648,1.648,0,0,1,.9.655.511.511,0,0,0,.178.2,1.083,1.083,0,0,1,.147.056c.137.089.055.3-.023.444a2.24,2.24,0,0,0-.267,1.21.346.346,0,0,0,.061.205.364.364,0,0,0,.244.1,6.007,6.007,0,0,0,.857.046,1.006,1.006,0,0,0,.772-.258.813.813,0,0,0,.037-.854c-.127-.273-.333-.5-.48-.764a4.485,4.485,0,0,1-.327-.87,3.656,3.656,0,0,0-.484-1.08,1.447,1.447,0,0,0-.972-.622,3.028,3.028,0,0,0-2.478,2,3.855,3.855,0,0,0,.412,1.388,5.01,5.01,0,0,1,.036,2.233c.434-.26.924-.622.9-1.124a2.416,2.416,0,0,0-.436-.913C147.192,103.229,147.7,102.674,148.25,102.11Z" transform="translate(-16.304 -11.165)" fill="#2f2e41"/><path id="Path_1633" data-name="Path 1633" d="M167.288,108.337a4.214,4.214,0,0,0,.556-2.133c0-1.929-1.195-3.492-2.667-3.492s-2.667,1.564-2.667,3.492a4.214,4.214,0,0,0,.556,2.133,4.371,4.371,0,0,0,0,4.267,4.371,4.371,0,0,0,0,4.267,4.371,4.371,0,0,0,0,4.267,4.214,4.214,0,0,0-.556,2.133c0,1.929,1.195,3.492,2.667,3.492s2.667-1.564,2.667-3.492a4.214,4.214,0,0,0-.556-2.133,4.366,4.366,0,0,0,0-4.267,4.366,4.366,0,0,0,0-4.267A4.366,4.366,0,0,0,167.288,108.337Z" transform="translate(-18.058 -11.413)" fill="#3f3d56"/><ellipse id="Ellipse_269" data-name="Ellipse 269" cx="2.668" cy="3.492" rx="2.668" ry="3.492" transform="translate(144.452 87.03)" fill="#3f3d56"/><ellipse id="Ellipse_270" data-name="Ellipse 270" cx="2.668" cy="3.492" rx="2.668" ry="3.492" transform="translate(144.452 82.762)" fill="#3f3d56"/><path id="Path_1634" data-name="Path 1634" d="M173.892,61.59a12.822,12.822,0,0,0,.994-1.462l-7.01-1.156,7.581.056A12.8,12.8,0,0,0,175.7,48.9L165.53,54.18l9.38-6.9a12.779,12.779,0,1,0-21.1,14.3,12.83,12.83,0,0,0-1.457,2.331l9.1,4.727-9.7-3.256a12.786,12.786,0,0,0,2.06,12,12.777,12.777,0,1,0,20.089,0,12.779,12.779,0,0,0,0-15.8Z" transform="translate(-16.786 -4.545)" fill="#f2f2f2"/><path id="Path_1635" data-name="Path 1635" d="M151.071,73.041a12.725,12.725,0,0,0,2.734,7.9,12.777,12.777,0,1,0,20.089,0C175.605,78.768,151.071,71.607,151.071,73.041Z" transform="translate(-16.786 -8.095)" fill="#f2f2f2"/><path id="Path_1636" data-name="Path 1636" d="M173.892,61.59a12.822,12.822,0,0,0,.994-1.462l-7.01-1.156,7.581.056A12.8,12.8,0,0,0,175.7,48.9L165.53,54.18l9.38-6.9a12.779,12.779,0,1,0-21.1,14.3,12.83,12.83,0,0,0-1.457,2.331l9.1,4.727-9.7-3.256a12.786,12.786,0,0,0,2.06,12,12.777,12.777,0,1,0,20.089,0,12.779,12.779,0,0,0,0-15.8Z" transform="translate(-16.786 -4.545)" fill="#0c9add"/><path id="Path_1637" data-name="Path 1637" d="M151.071,73.041a12.725,12.725,0,0,0,2.734,7.9,12.777,12.777,0,1,0,20.089,0C175.605,78.768,151.071,71.607,151.071,73.041Z" transform="translate(-16.786 -8.095)" opacity=".1"/><path id="Path_1638" data-name="Path 1638" d="M16.217,108.337a4.214,4.214,0,0,0,.556-2.133c0-1.929-1.195-3.492-2.667-3.492s-2.667,1.564-2.667,3.492A4.214,4.214,0,0,0,12,108.337a4.366,4.366,0,0,0,0,4.267,4.366,4.366,0,0,0,0,4.267,4.366,4.366,0,0,0,0,4.267,4.214,4.214,0,0,0-.556,2.133c0,1.929,1.195,3.492,2.667,3.492s2.667-1.564,2.667-3.492a4.214,4.214,0,0,0-.556-2.133,4.366,4.366,0,0,0,0-4.267C16.217,114.026,16.228,111.181,16.217,108.337Z" transform="translate(-1.271 -11.413)" fill="#3f3d56"/><ellipse id="Ellipse_271" data-name="Ellipse 271" cx="2.668" cy="3.492" rx="2.668" ry="3.492" transform="translate(10.168 87.03)" fill="#3f3d56"/><ellipse id="Ellipse_272" data-name="Ellipse 272" cx="2.668" cy="3.492" rx="2.668" ry="3.492" transform="translate(10.168 82.762)" fill="#3f3d56"/><path id="Path_1639" data-name="Path 1639" d="M22.821,61.592a12.822,12.822,0,0,0,.994-1.462l-7.01-1.156,7.58.056a12.8,12.8,0,0,0,.244-10.124L14.46,54.182l9.38-6.9a12.779,12.779,0,1,0-21.1,14.306,12.831,12.831,0,0,0-1.457,2.331l9.1,4.727-9.7-3.256a12.786,12.786,0,0,0,2.06,12,12.777,12.777,0,1,0,20.089,0,12.779,12.779,0,0,0,0-15.8Z" transform="translate(0 -4.547)" fill="#f2f2f2"/><path id="Path_1640" data-name="Path 1640" d="M0,73.041a12.725,12.725,0,0,0,2.735,7.9,12.777,12.777,0,1,0,20.089,0C24.534,78.768,0,71.607,0,73.041Z" transform="translate(0 -8.095)" fill="#f2f2f2"/><path id="Path_1641" data-name="Path 1641" d="M22.821,61.592a12.822,12.822,0,0,0,.994-1.462l-7.01-1.156,7.58.056a12.8,12.8,0,0,0,.244-10.124L14.46,54.182l9.38-6.9a12.779,12.779,0,1,0-21.1,14.306,12.831,12.831,0,0,0-1.457,2.331l9.1,4.727-9.7-3.256a12.786,12.786,0,0,0,2.06,12,12.777,12.777,0,1,0,20.089,0,12.779,12.779,0,0,0,0-15.8Z" transform="translate(0 -4.547)" fill="#0c9add"/><path id="Path_1642" data-name="Path 1642" d="M0,73.041a12.725,12.725,0,0,0,2.735,7.9,12.777,12.777,0,1,0,20.089,0C24.534,78.768,0,71.607,0,73.041Z" transform="translate(0 -8.095)" opacity=".1"/><path id="Path_1643" data-name="Path 1643" d="M124.689,50.413l-6.036,6.036-2.86-2.86L114.678,54.7l3.97,3.97,7.153-7.146Z" transform="translate(-12.743 -5.602)" fill="#fff"/><path id="Rectangle_571" data-name="Rectangle 571" transform="translate(58.928 62.213)" fill="#eb1c24" d="M0 0H11.123V4.93H0z"/><path id="Path_1644" data-name="Path 1644" d="M77.848,66.413l-6.036,6.036-2.86-2.86L67.837,70.7l3.97,3.97,7.153-7.146Z" transform="translate(-7.538 -7.38)" fill="#fff"/><path id="Rectangle_572" data-name="Rectangle 572" transform="translate(79.746 19.711)" fill="#eb1c24" d="M0 0H11.123V4.93H0z"/><path id="Path_1645" data-name="Path 1645" d="M101.269,18.6l-6.036,6.036-2.86-2.86-1.114,1.114,3.97,3.97,7.153-7.146Z" transform="translate(-10.14 -2.067)" fill="#fff"/></svg>