<svg id="undraw_candidate_ubwv" xmlns="http://www.w3.org/2000/svg" width="420" height="270.448" viewBox="0 0 420 270.448"><path id="Path_350" data-name="Path 350" d="M801.2,681.2,799.02,654.08l-6.235,28.682s.082,7.236.289,15.162h7.988C801.331,688.864,801.2,681.2,801.2,681.2Z" transform="translate(-496.463 -427.477)" fill="#f2f2f2"/><path id="Path_351" data-name="Path 351" d="M535.219,688.481a55.2,55.2,0,0,1-1.3-7.711l-.873-9.383c-.367-2.57-.744-4.834-1.123-6.832-2.78-14.249-5.649-14.764-5.649-14.764-.123.094-.243.2-.367.307a9.234,9.234,0,0,0-.939.991c-4.57,5.808-7.67,20.874-9.3,30.868-.9,5.521-1.348,9.493-1.348,9.493s.407,1.692.963,4.106h20.854A37.079,37.079,0,0,0,535.219,688.481Z" transform="translate(-342.686 -425.109)" fill="#f2f2f2"/><path id="Path_352" data-name="Path 352" d="M487.516,148H194.484A63.67,63.67,0,0,0,131,211.484V354.964a63.67,63.67,0,0,0,63.484,63.484h92.876l-1.2-5.642s-3.083-19.893,0-35.4a116.421,116.421,0,0,0,2.045-14.744,88.827,88.827,0,0,1,2.73-16.555c.081-.313.173-.623.258-.935-.752-.2-1.1-.368-.923-.471.482-.284.747-1.156.879-2.261a108.236,108.236,0,0,1,4.673-21.535c-3.115,1.956-5.183,2.163-6.537,1.405-4.758-1.3-2.783-12-2.783-12s2.957-23.145,3.939-31.525c.565-4.817,7.8-7.547,14.2-9.029a7.113,7.113,0,0,0,.852-4.436c-.021-.1-.051-.2-.078-.3-.814-1.809-2.47-3.3-3.091-5.17a5.455,5.455,0,0,1-.575-1.613c-.55-3.211,2.453-5.985,3.318-9.074a7.475,7.475,0,0,1-1.92-3.079c-1.319-2.706-.676-5.954,3.561-8.462.846-.5,1.742-.943,2.652-1.366a4.125,4.125,0,0,1,1.077-.494c3.031-1.371,6.078-2.7,7.893-5.368a4.766,4.766,0,0,1,1.633-1.847,3.149,3.149,0,0,1,1.124-.252c5.841-.448,11.13,4.561,16.944,3.843,1.761-.217,3.559-.958,5.249-.425a6.214,6.214,0,0,1,2.724,2.086,21.5,21.5,0,0,1,4.661,17.7c-.737,3.83-2.53,7.777-1.238,11.462.949,2.707,3.49,4.9,3.508,7.768.015,2.357-1.658,4.237-3.274,6.071q.315.322.614.662c3.95,4.5,3.2,8.341,2.646,9.879h0l-2.031,19.6-1.713,13.149s-.424,5.4-4.412,6.58a6.431,6.431,0,0,1-4.685.07c-1.3-.4-2.392-.79-3.321-1.174a43.854,43.854,0,0,1,2.143,14.079c-.343,7.755.685,8.429.685,8.429a1.39,1.39,0,0,1-.218.215,31.783,31.783,0,0,1-.125,27.432c-4.8,10.452.343,34.728.343,34.728s.366,3.787.53,8h73.562c-1.17-11.159-2.576-22.331-3.2-23.58-1.029-2.059.278-35.975.766-47.756-.217-.055-.429-.111-.628-.168-.348-.1-.66-.2-.949-.31a6.922,6.922,0,0,0,.188,1.782c.433,1.01-.605,1.753-2.37,2.26,1.026,5.009,2.294,14.329-1.995,16.135-4.412,1.858-4.5-9.426-4.258-15.308-.556.021-1.114.031-1.666.031-5.3,0,1.559-61.418,1.247-65.47s2.494-20.576,2.494-20.576.935-3.429,3.741-4.053,16.212-8.418,16.212-8.418a10.013,10.013,0,0,1,2.806-2.656V249.9a10.282,10.282,0,0,1,1.113-.9c-.164-2.724-.532-6.238-.8-8.613a10.882,10.882,0,0,1-2.925-5.6,17.175,17.175,0,0,1-1.632-1.45,8.506,8.506,0,0,1-2.091-5.309,16.776,16.776,0,0,1,.831-5.731,6.862,6.862,0,0,1,.722-1.75,6.334,6.334,0,0,1,1.632-1.618c.189-.14.385-.272.58-.4a5.46,5.46,0,0,1,1.764-2c1.591-1.045,3.639-.959,5.542-.912h.086q.529-.085,1.063-.141a1.09,1.09,0,0,0,.852-.835l.773.742q.58-.008,1.159.02a8.287,8.287,0,0,1,.6-1.129l.424,1.208c.388.041.774.093,1.159.16l.909-.722c.067-.053.309.736.43,1.006.209.054.417.111.623.174.322-.015.68-.075.879-.072a5.879,5.879,0,0,1,3.133.781,6.73,6.73,0,0,1,1.991,2.3,14.89,14.89,0,0,1,2.223,6.413,7.432,7.432,0,0,1,1.233,2.756c.515,3.13-2.459,5.745-3.049,8.861-.314,1.663.044,3.5-.8,4.969a5.186,5.186,0,0,1-1.428,1.5,10.766,10.766,0,0,1-1.055.7,27.1,27.1,0,0,0,.645,5.6l.4,1.538c.624.45,1.3.969,2.035,1.58,0,0,8.729,3.741,11.847,5.612,2.741,1.644,5.721,1.845,6.613,3.987l.246.065s3.118,34.606,3.43,40.529,4.053,42.4,3.429,43.959c-.231.577-1.7,1.239-3.476,1.765,1.036,4.735,2.709,15.032-1.824,16.94-4.595,1.935-4.5-10.385-4.226-16.01-.613-.055-1.014-.216-1.074-.513-.051-.253-.213-1.4-.448-3.143l-1.22.188-.264.04c3.953,12.434-4.8,45.408-6.485,51.863-.88,3.373-1.829,11.712-2.684,20.151h38.562A63.67,63.67,0,0,0,551,354.964V211.484A63.67,63.67,0,0,0,487.516,148Z" transform="translate(-131 -148)" fill="#0c9add" opacity=".1"/><ellipse id="Ellipse_9" data-name="Ellipse 9" cx="42.537" cy="38.709" rx="42.537" ry="38.709" transform="translate(51.493 36.963)" fill="#3f3d56"/><path id="Path_353" data-name="Path 353" d="M477.067,552.343h0s14.328-9.851,14.328-14.328,9.851-33.582,15.224-20.6-7.612,31.343-7.612,31.343-14.328,25.97-22.836,30.448S460.5,581,460.5,581V568.91l8.186-12.115A10.115,10.115,0,0,1,477.067,552.343Z" transform="translate(-312.963 -350.179)" fill="#ffb9b9"/><path id="Path_354" data-name="Path 354" d="M406.544,446.336s21.473,6.79,23.712,9.924,3.134-2.239,9.4,18.358a215.276,215.276,0,0,1,7.836,40.522s-15.448,5.149-13.657,25.3-2.687,42.09-2.687,42.09h-5.59l-12.321-38.06,14.776-57.761S407.011,451.188,406.544,446.336Z" transform="translate(-283.166 -312.753)" fill="#575a89"/><circle id="Ellipse_10" data-name="Ellipse 10" cx="26.866" cy="26.866" r="26.866" transform="translate(89.328 61.119)" fill="#ffb9b9"/><path id="Path_355" data-name="Path 355" d="M361.59,376.618s-7.612,25.075-.9,28.657,14.328,19.7,14.328,19.7l-11.642,12.985H336.515l-12.09-13.433L319.5,401.692l6.716-5.373s7.164-17.91,7.164-27.313S361.59,376.618,361.59,376.618Z" transform="translate(-235.097 -268.483)" fill="#ffb9b9"/><path id="Path_356" data-name="Path 356" d="M350.575,440.739s-5.373-1.343-2.239,4.03,6.269,15.224-4.925,15.672-22.388-5.373-25.97-17.463-4.925-11.194-6.269-10.746S295.5,447.456,295.5,447.456l4.925,27.761,1.791,99.4H367.59s2.687-28.657-1.791-35.373,4.03-23.731,4.03-23.731,7.612-11.642,1.791-34.03S352.813,440.739,350.575,440.739Z" transform="translate(-221.843 -304.844)" fill="#eb1c24"/><path id="Path_357" data-name="Path 357" d="M283.933,431.379a11.784,11.784,0,0,0-12.537,2.239c-5.821,5.373-18.806,9.851-18.806,12.537s11.194,79.254,3.582,92.687S240.5,573.767,240.5,573.767h37.349s6.084-22.388,12.352-34.478,5.821-46.119,4.03-56.418S283.933,431.379,283.933,431.379Z" transform="translate(-191.47 -303.991)" fill="#575a89"/><path id="Path_358" data-name="Path 358" d="M118.5,542.321l2.181,23.731h24.2l-2.2-29.552Z" transform="translate(-65.44 -296.276)" fill="#ffb9b9"/><path id="Path_359" data-name="Path 359" d="M364.5,476.216l5.821,36.269h129.4L510.918,439.5Z" transform="translate(-201.291 -242.709)" fill="#3f3d56"/><path id="Path_360" data-name="Path 360" d="M497.619,428.5l1.343,6.716L331.5,475.515v-5.821Z" transform="translate(-183.067 -236.634)" fill="#3f3d56"/><path id="Path_361" data-name="Path 361" d="M543.4,453.843l-.9,7.612,9.851-1.343-4.03-7.612Z" transform="translate(-299.589 -249.888)" fill="#3f3d56"/><path id="Path_362" data-name="Path 362" d="M554.5,431.463s19.7-1.343,25.075,13.881,17.91,42.537,22.836,46.567,10.3,14.776,9.4,18.358" transform="translate(-364.873 -304.522)" fill="none" stroke="#3f3d56" stroke-miterlimit="10" stroke-width="5"/><path id="Path_363" data-name="Path 363" d="M547.194,426.306c0,2.1-2.235,3.806-5.821,3.806s-5.373-1.7-5.373-3.806,1.787-3.806,5.373-3.806S547.194,424.2,547.194,426.306Z" transform="translate(-354.657 -299.59)" fill="#eb1c24"/><path id="Path_364" data-name="Path 364" d="M442.569,509.32s3.358-14.1-2.91-34.7-7.164-15.224-9.4-18.358-23.712-9.924-23.712-9.924c.154,1.594,2.525,6.5,5.64,12.369a23.818,23.818,0,0,0-2.525-6.027c-3.134-5.373,2.239-4.03,2.239-4.03,2.239,0,15.224,18.358,21.045,40.746s-1.791,34.03-1.791,34.03Z" transform="translate(-283.166 -312.753)" fill="#575a89"/><path id="Path_365" data-name="Path 365" d="M407,446s2.651,10.056,4.907,11.52,15.64,15.369,15.64,15.369l-1.742-11.218-7.164-10.746-1.905-1.383Z" transform="translate(-283.418 -312.567)" fill="#575a89"/><path id="Path_366" data-name="Path 366" d="M254.6,486.56l.624-23.06s-14.729,6.269-16.072,33.134,2.239,77.463,7.164,77.911,28.209-4.925,28.209-4.925,3.582-64.925,2.239-73.433S254.6,486.56,254.6,486.56Z" transform="translate(-190.567 -322.231)" opacity=".1"/><path id="Path_367" data-name="Path 367" d="M251.85,463.5h-3.629s-14.729,6.269-16.072,33.134,2.239,77.463,7.164,77.911,28.209-4.925,28.209-4.925,3.582-64.925,2.239-73.433S251.85,463.5,251.85,463.5Z" transform="translate(-186.701 -322.231)" fill="#575a89"/><ellipse id="Ellipse_11" data-name="Ellipse 11" cx="27.761" cy="31.119" rx="27.761" ry="31.119" transform="translate(56.418 49.701)" fill="#3f3d56"/><ellipse id="Ellipse_12" data-name="Ellipse 12" cx="5.597" cy="8.284" rx="5.597" ry="8.284" transform="translate(98.507 89.552)" fill="#ffb9b9"/><circle id="Ellipse_13" data-name="Ellipse 13" cx="22.836" cy="22.836" r="22.836" transform="translate(33.582 26.866)" fill="#3f3d56"/><path id="Path_368" data-name="Path 368" d="M222.463,277.429a22.834,22.834,0,0,1-33.086-18.185,22.833,22.833,0,1,0,45.3,1.271A22.8,22.8,0,0,1,222.463,277.429Z" transform="translate(-163.094 -209.433)" fill="#3f3d56"/><path id="Path_369" data-name="Path 369" d="M216.217,223.079a22.834,22.834,0,0,1,11.5-35.96,22.833,22.833,0,1,0,7.444,44.7A22.8,22.8,0,0,1,216.217,223.079Z" transform="translate(-172.327 -169.603)" fill="#3f3d56"/><ellipse id="Ellipse_14" data-name="Ellipse 14" cx="16.119" cy="11.642" rx="16.119" ry="11.642" transform="translate(101.642 55.522)" fill="#3f3d56"/></svg>