<svg xmlns="http://www.w3.org/2000/svg" xmlns:xlink="http://www.w3.org/1999/xlink" width="200" height="128.891" viewBox="0 0 200 128.891"><defs><linearGradient id="a" x1="-15.443" y1="5.755" x2="-15.443" y2="5.767" gradientUnits="objectBoundingBox"><stop offset="0" stop-color="gray" stop-opacity=".251"/><stop offset=".54" stop-color="gray" stop-opacity=".122"/><stop offset="1" stop-color="gray" stop-opacity=".102"/></linearGradient><linearGradient id="b" x1="-101.582" y1="45.679" x2="-101.375" y2="45.679" xlink:href="#a"/></defs><g data-name="на автомобиле -01" transform="translate(-13.533)"><path data-name="Path 1154" d="M23.431 101.4h77.642c.961-.4 1.919-.8 2.869-1.229q3.726-1.684 7.32-3.662a93.617 93.617 0 0011.437-7.479q1.368-1.044 2.7-2.145c.615-.507 1.224-1.025 1.843-1.528a23.241 23.241 0 014.147-2.824 14.808 14.808 0 011.388-.612V52.578h-35.11v6.532H82.259V11.331H64.124v19.1h-8.97V19.124h-7.411V7.04h-3.4V0c-.295.107-.59.215-.884.331V7.04h-3.322v12.092h-7.409v11.311H22.001v70.323c.45.2.9.41 1.353.606z" fill="#0c9add" opacity=".1"/><path data-name="Rectangle 464" fill="#0c9add" opacity=".1" d="M49.921 40.467h5.276v5.276h-5.276z"/><path data-name="Rectangle 465" fill="#0c9add" opacity=".1" d="M29.775 40.467h5.276v5.276h-5.276z"/><path data-name="Path 1155" d="M178.701 30.443h-10.726V19.132h-7.409V7.04h-3.317V.331c-.294-.117-.589-.224-.884-.331v7.04h-3.4v12.084h-7.411v11.311h-8.973v-19.1h-18.138V59.11h-15.408v-6.532H67.929v29.345a14.807 14.807 0 011.388.612 23.24 23.24 0 014.147 2.824c.619.5 1.228 1.021 1.843 1.528q1.331 1.1 2.7 2.145a93.534 93.534 0 0011.434 7.48q3.594 1.977 7.32 3.662a102.225 102.225 0 0027.1 7.9q4.038.6 8.105.864a98.1 98.1 0 0045.382-7.566c.453-.2.9-.4 1.353-.606z" fill="#0c9add" opacity=".1"/><ellipse data-name="Ellipse 182" cx="32.288" cy="3.572" rx="32.288" ry="3.572" transform="translate(80.233 121.747)" fill="#0c9add" opacity=".1"/><path data-name="Rectangle 466" fill="#0c9add" opacity=".1" d="M123.861 18.519h8.105v8.105h-8.105z"/><path data-name="Rectangle 467" fill="#0c9add" opacity=".1" d="M123.861 35.322h8.105v8.105h-8.105z"/><path data-name="Rectangle 468" fill="#0c9add" opacity=".1" d="M123.861 52.123h8.105v8.105h-8.105z"/><path data-name="Rectangle 469" fill="#0c9add" opacity=".1" d="M69.414 18.519h8.105v8.105h-8.105z"/><path data-name="Rectangle 470" fill="#0c9add" opacity=".1" d="M69.414 35.322h8.105v8.105h-8.105z"/><path data-name="Rectangle 471" fill="#0c9add" opacity=".1" d="M69.414 50.475h8.105v8.105h-8.105z"/><path data-name="Rectangle 472" fill="#eb1c24" opacity=".1" d="M123.861 68.926h8.105v8.105h-8.105z"/><path data-name="Rectangle 473" fill="#eb1c24" opacity=".1" d="M123.861 85.729h8.105v8.105h-8.105z"/><path data-name="Path 1156" d="M131.965 102.531v6.4q-4.067-.269-8.105-.864v-5.536z" fill="#eb1c24" opacity=".1"/><path data-name="Rectangle 474" fill="#eb1c24" opacity=".1" d="M70.602 63.052h28.372v3.671H70.602z"/><path data-name="Rectangle 475" fill="#eb1c24" opacity=".1" d="M70.602 74.202h28.372v3.671H70.602z"/><path data-name="Path 1157" d="M98.973 85.352v3.669H78.007q-1.368-1.044-2.7-2.145c-.615-.507-1.224-1.025-1.843-1.528z" fill="#eb1c24" opacity=".1"/><path data-name="Path 1158" d="M98.974 96.514v3.671h-2.213q-3.725-1.692-7.325-3.671z" fill="#eb1c24" opacity=".1"/><path data-name="Rectangle 476" fill="#0c9add" opacity=".1" d="M145.505 40.467h5.276v5.276h-5.276z"/><path data-name="Rectangle 477" fill="#eb1c24" opacity=".1" d="M31.253 52.651h5.276v5.276h-5.276z"/><path data-name="Rectangle 478" fill="#eb1c24" opacity=".1" d="M31.253 64.908h5.276v5.276h-5.276z"/><path data-name="Rectangle 479" fill="#eb1c24" opacity=".1" d="M31.253 77.166h5.276v5.276h-5.276z"/><path data-name="Rectangle 480" fill="#0c9add" opacity=".1" d="M165.651 40.467h5.276v5.276h-5.276z"/><path data-name="Rectangle 481" fill="#0c9add" opacity=".1" d="M145.505 53.483h5.276v5.276h-5.276z"/><path data-name="Rectangle 482" fill="#0c9add" opacity=".1" d="M165.651 53.483h5.276v5.276h-5.276z"/><path data-name="Rectangle 483" fill="#eb1c24" opacity=".1" d="M145.505 66.498h5.276v5.276h-5.276z"/><path data-name="Rectangle 484" fill="#0c9add" opacity=".1" d="M165.651 66.498h5.276v5.276h-5.276z"/><path data-name="Rectangle 485" fill="#eb1c24" opacity=".1" d="M145.505 79.513h5.276v5.276h-5.276z"/><path data-name="Rectangle 486" fill="#eb1c24" opacity=".1" d="M165.651 79.513h5.276v5.276h-5.276z"/><path data-name="Rectangle 487" fill="#eb1c24" opacity=".1" d="M145.505 92.53h5.276v5.276h-5.276z"/><path data-name="Rectangle 488" fill="#eb1c24" opacity=".1" d="M165.651 92.53h5.276v5.276h-5.276z"/><path data-name="Path 1159" d="M145.505 108.947v-3.405h5.276v2.918z" fill="#eb1c24" opacity=".1"/><path data-name="Path 1160" d="M19.075 83.308c.171.1.342.189.516.282v-.092h1.484v.839l.316.144v-.98h1.481v1.606l.316.121v-1.727h1.573v2.27l.316.1v-2.563z" fill="#eb1c24" opacity=".1"/><path data-name="Path 1161" d="M81.291 4.397s-4.5-.27-3.969 2.888a.77.77 0 00.4.812s.01-.235.463-.156a2.028 2.028 0 00.49.025 1.01 1.01 0 00.6-.248 3.581 3.581 0 001.761-2.6s.365-.453.35-.567l-.756.322a1.366 1.366 0 01.055 1s-.025-.986-.171-.965c-.03 0-.4.189-.4.189a2.252 2.252 0 01.107 1.652s.129-1.18-.25-1.581l-.536.312a2.366 2.366 0 01.168 1.793 3.359 3.359 0 00-.282-1.716l-.484.379a2.313 2.313 0 01.189 1.642s-.04-1.437-.3-1.548a3.01 3.01 0 00-.49.528s.337.708.129 1.08c0 0-.129-.959-.233-.965a3.173 3.173 0 00-.468 1.073 2.313 2.313 0 01.365-1.135 1.278 1.278 0 00-.644.335s.066-.448.756-.488a2.958 2.958 0 01.443-.511 2.8 2.8 0 00-1.1.127 1.236 1.236 0 011.229-.23l.481-.389a4.111 4.111 0 00-1.287.01 1.542 1.542 0 011.406-.108l.522-.312a4.786 4.786 0 00-1.222-.108 1.874 1.874 0 011.375.023l.379-.168s-.567-.107-.726-.127-.174-.064-.174-.064a1.951 1.951 0 011.055.117 5.238 5.238 0 00.769-.321z" fill="#0c9add" opacity=".1"/><path data-name="Path 1162" d="M192.722 89.203s-8.574-.515-7.553 5.5a1.466 1.466 0 00.759 1.546s.018-.447.882-.3a3.829 3.829 0 00.933.047 1.926 1.926 0 001.137-.472 6.814 6.814 0 003.352-4.94s.694-.861.665-1.08l-1.439.612a2.6 2.6 0 01.1 1.911s-.047-1.876-.325-1.837c-.057 0-.753.359-.753.359a4.287 4.287 0 01.2 3.144s.245-2.246-.475-3.01l-1.021.594a4.509 4.509 0 01.321 3.413 6.389 6.389 0 00-.537-3.266l-.92.721a4.4 4.4 0 01.359 3.125s-.075-2.735-.565-2.946a5.79 5.79 0 00-.933 1s.641 1.347.245 2.056c0 0-.245-1.826-.443-1.837a6.067 6.067 0 00-.89 2.041 4.405 4.405 0 01.694-2.16 2.42 2.42 0 00-1.225.637s.127-.854 1.439-.929a5.6 5.6 0 01.843-.972 5.3 5.3 0 00-2.088.241 2.35 2.35 0 012.325-.443l.915-.741a7.788 7.788 0 00-2.45.018 2.939 2.939 0 012.683-.2l.994-.594a9.046 9.046 0 00-2.33-.2 3.569 3.569 0 012.617.043l.721-.321s-1.08-.2-1.383-.241-.33-.122-.33-.122a3.726 3.726 0 012.009.222 9.776 9.776 0 001.467-.619z" fill="#0c9add" opacity=".1"/><path data-name="Path 1163" d="M53.373 113.318s-8.574-.515-7.553 5.5a1.466 1.466 0 00.759 1.546s.018-.447.882-.3a3.829 3.829 0 00.933.047 1.926 1.926 0 001.137-.472 6.814 6.814 0 003.352-4.94s.694-.861.665-1.08l-1.439.612a2.6 2.6 0 01.1 1.911s-.047-1.876-.325-1.837c-.057 0-.753.359-.753.359a4.287 4.287 0 01.2 3.144s.245-2.246-.475-3.01l-1.021.594a4.508 4.508 0 01.321 3.413 6.389 6.389 0 00-.537-3.266l-.92.721a4.4 4.4 0 01.359 3.125s-.075-2.735-.565-2.946a5.791 5.791 0 00-.933 1s.641 1.347.245 2.056c0 0-.245-1.826-.443-1.837a6.046 6.046 0 00-.89 2.041 4.405 4.405 0 01.694-2.16 2.42 2.42 0 00-1.225.637s.127-.854 1.439-.929a5.6 5.6 0 01.843-.972 5.3 5.3 0 00-2.088.241 2.35 2.35 0 012.325-.443l.915-.741a7.788 7.788 0 00-2.45.018 2.939 2.939 0 012.683-.2l.994-.594a9.046 9.046 0 00-2.33-.2 3.569 3.569 0 012.617.043l.721-.321s-1.08-.2-1.383-.241-.33-.122-.33-.122a3.726 3.726 0 012.009.222 9.776 9.776 0 001.467-.619z" fill="#0c9add" opacity=".1"/><path data-name="Path 1164" d="M133.628 29.493s-1.54 4.246 1.64 4.635a.773.773 0 00.892-.153s-.223-.076-.017-.488a2.1 2.1 0 00.161-.463 1.022 1.022 0 00-.066-.644 3.577 3.577 0 00-1.984-2.429s-.329-.478-.444-.5l.1.821a1.359 1.359 0 01.978.233s-.946-.255-.965-.107c0 .03.07.429.07.429a2.255 2.255 0 011.615.365s-1.093-.458-1.588-.215l.148.6a2.362 2.362 0 011.769.349 3.357 3.357 0 00-1.727-.215l.225.567a2.342 2.342 0 011.628.284s-1.394-.379-1.568-.156a2.978 2.978 0 00.367.619s.773-.121 1.073.189c0 0-.956-.149-.989-.049a3.25 3.25 0 00.892.756 2.314 2.314 0 01-.981-.669 1.292 1.292 0 00.138.715s-.412-.189-.253-.858a3.007 3.007 0 01-.365-.567 2.759 2.759 0 00-.189 1.085 1.227 1.227 0 01.124-1.237l-.24-.567a3.782 3.782 0 00-.35 1.229 1.558 1.558 0 01.3-1.379l-.151-.588a4.7 4.7 0 00-.448 1.135 1.878 1.878 0 01.413-1.313l-.055-.407s-.267.507-.329.661-.107.149-.107.149a1.943 1.943 0 01.412-.978 4.642 4.642 0 00-.129-.839z" fill="#0c9add" opacity=".1"/><path data-name="Path 1165" d="M99.348 16.18s-1.541 4.245 1.64 4.632a.766.766 0 00.891-.153s-.221-.074-.017-.488a2.125 2.125 0 00.163-.461 1.029 1.029 0 00-.068-.644 3.576 3.576 0 00-1.989-2.425s-.329-.476-.444-.5l.094.823a1.4 1.4 0 01.981.233s-.946-.257-.965-.107c0 .03.07.429.07.429a2.249 2.249 0 011.609.364s-1.093-.458-1.587-.215l.148.6a2.372 2.372 0 011.767.348 3.372 3.372 0 00-1.725-.215l.225.567a2.347 2.347 0 011.628.282s-1.394-.379-1.568-.156a2.959 2.959 0 00.367.62s.773-.123 1.073.189c0 0-.956-.149-.989-.051a3.275 3.275 0 00.895.756 2.309 2.309 0 01-.981-.671 1.277 1.277 0 00.138.716s-.412-.189-.255-.858a2.916 2.916 0 01-.364-.567 2.735 2.735 0 00-.189 1.088 1.232 1.232 0 01.124-1.237l-.239-.564a3.833 3.833 0 00-.352 1.231 1.56 1.56 0 01.3-1.38l-.149-.588a4.7 4.7 0 00-.448 1.135 1.864 1.864 0 01.411-1.313l-.055-.4s-.265.507-.329.661-.107.148-.107.148a1.945 1.945 0 01.411-.978 4.786 4.786 0 00-.115-.851z" fill="#0c9add" opacity=".1"/><path data-name="Path 1166" d="M56.615 50.887s-1.54 4.246 1.64 4.632a.769.769 0 00.892-.153s-.223-.074-.017-.486a2.1 2.1 0 00.161-.463 1.022 1.022 0 00-.066-.644 3.576 3.576 0 00-1.989-2.425s-.331-.476-.446-.5l.1.823a1.366 1.366 0 01.98.233s-.946-.257-.972-.107c0 .03.07.429.07.429a2.255 2.255 0 011.615.364s-1.093-.458-1.588-.215l.149.6a2.367 2.367 0 011.767.349 3.38 3.38 0 00-1.727-.215l.225.567a2.347 2.347 0 011.628.282s-1.394-.379-1.568-.156a2.922 2.922 0 00.369.62s.772-.123 1.073.189c0 0-.956-.149-.989-.051a3.232 3.232 0 00.892.756 2.315 2.315 0 01-.98-.671 1.286 1.286 0 00.136.716s-.411-.189-.253-.858a2.973 2.973 0 01-.365-.567 2.793 2.793 0 00-.189 1.088 1.232 1.232 0 01.124-1.237l-.238-.567a3.832 3.832 0 00-.352 1.231 1.558 1.558 0 01.3-1.379l-.151-.59a4.7 4.7 0 00-.448 1.135 1.882 1.882 0 01.412-1.313l-.055-.4s-.267.507-.329.661-.107.148-.107.148a1.956 1.956 0 01.412-.978 4.59 4.59 0 00-.116-.848z" fill="#eb1c24" opacity=".1"/><path data-name="Path 1167" d="M50.501 10.862s-1.541 4.246 1.638 4.635a.773.773 0 00.892-.153s-.221-.076-.017-.488a2.01 2.01 0 00.161-.463 1.022 1.022 0 00-.066-.644 3.573 3.573 0 00-1.989-2.423s-.329-.478-.446-.5l.1.821a1.366 1.366 0 01.98.233s-.946-.255-.965-.107c0 .03.07.429.07.429a2.249 2.249 0 011.609.364s-1.093-.456-1.587-.215l.148.6a2.357 2.357 0 011.767.349 3.372 3.372 0 00-1.725-.215l.225.567a2.344 2.344 0 011.627.282s-1.394-.379-1.568-.153a2.888 2.888 0 00.369.619s.772-.121 1.073.189c0 0-.956-.149-.989-.049a3.282 3.282 0 00.892.756 2.31 2.31 0 01-.98-.669 1.273 1.273 0 00.138.715s-.412-.189-.255-.858a3.007 3.007 0 01-.365-.567 2.793 2.793 0 00-.189 1.088 1.232 1.232 0 01.124-1.237l-.238-.567a3.812 3.812 0 00-.359 1.232 1.557 1.557 0 01.3-1.379l-.151-.588a4.748 4.748 0 00-.448 1.135 1.877 1.877 0 01.412-1.313l-.055-.407s-.265.507-.329.66-.107.148-.107.148a1.956 1.956 0 01.412-.978 4.814 4.814 0 00-.109-.849z" fill="#0c9add" opacity=".1"/><path data-name="Path 1168" d="M144.566 5.708s1.189 4.35 4.01 2.837a.772.772 0 00.644-.644s-.225.069-.295-.388a2.2 2.2 0 00-.134-.473 1.033 1.033 0 00-.429-.488 3.587 3.587 0 00-3.027-.834s-.545-.2-.644-.149l.55.617a1.385 1.385 0 01.934-.379s-.925.339-.858.469c.013.028.307.314.307.314a2.238 2.238 0 011.528-.634s-1.157.257-1.419.743l.469.409a2.361 2.361 0 011.64-.732s-1.2.31-1.536.817l.515.339a2.294 2.294 0 011.493-.709s-1.35.5-1.37.778a2.889 2.889 0 00.656.295s.567-.545.981-.468c0 0-.867.429-.838.53a3.353 3.353 0 001.164.1 2.3 2.3 0 01-1.188.017 1.28 1.28 0 00.526.507s-.446.082-.7-.556a3 3 0 01-.626-.255 2.776 2.776 0 00.471 1 1.226 1.226 0 01-.611-1.082l-.524-.329a3.941 3.941 0 00.429 1.209 1.558 1.558 0 01-.548-1.3l-.463-.394a4.7 4.7 0 00.293 1.192 1.893 1.893 0 01-.422-1.311l-.278-.3s.076.567.107.728 0 .189 0 .189a1.936 1.936 0 01-.227-1.036 4.806 4.806 0 00-.58-.629z" fill="#0c9add" opacity=".1"/><path data-name="Path 1169" d="M168.173 113.103s2.241 8.194 7.554 5.344a1.455 1.455 0 001.212-1.212s-.425.13-.556-.731a4.289 4.289 0 00-.252-.891 1.947 1.947 0 00-.808-.919 6.759 6.759 0 00-5.7-1.572s-1.026-.378-1.212-.281l1.036 1.162a2.606 2.606 0 011.76-.713s-1.742.638-1.616.883c.025.053.578.592.578.592a4.208 4.208 0 012.879-1.194s-2.181.485-2.673 1.4l.883.77a4.444 4.444 0 013.1-1.386s-2.259.583-2.894 1.539l.97.638a4.325 4.325 0 012.812-1.335s-2.544.942-2.581 1.465a5.452 5.452 0 001.237.556s1.068-1.026 1.849-.881c0 0-1.632.808-1.578 1a6.347 6.347 0 002.192.186 4.329 4.329 0 01-2.238.032 2.427 2.427 0 00.99.956s-.841.153-1.326-1.047a5.562 5.562 0 01-1.18-.481 5.224 5.224 0 00.887 1.877 2.312 2.312 0 01-1.152-2.039l-.988-.62a7.45 7.45 0 00.808 2.277 2.931 2.931 0 01-1.033-2.451l-.873-.741a8.849 8.849 0 00.551 2.245 3.565 3.565 0 01-.794-2.469l-.523-.564s.144 1.068.2 1.372 0 .356 0 .356a3.647 3.647 0 01-.428-1.952 8.782 8.782 0 00-1.093-1.171z" fill="#0c9add" opacity=".1"/><path data-name="Path 1170" d="M94.209 37.874s1.189 4.35 4.013 2.837a.772.772 0 00.644-.644s-.223.068-.295-.388a2.056 2.056 0 00-.134-.473 1.028 1.028 0 00-.429-.488 3.587 3.587 0 00-3.027-.834s-.545-.2-.651-.149l.552.617a1.383 1.383 0 01.934-.379s-.925.339-.858.471c.013.027.307.312.307.312a2.238 2.238 0 011.528-.634s-1.156.257-1.417.743l.468.409a2.361 2.361 0 011.644-.736s-1.2.31-1.536.817l.515.339a2.3 2.3 0 011.494-.709s-1.35.5-1.372.78a2.966 2.966 0 00.659.293s.567-.545.98-.468c0 0-.867.429-.836.53a3.353 3.353 0 001.164.1 2.3 2.3 0 01-1.188.017 1.274 1.274 0 00.526.507s-.446.082-.706-.556a3 3 0 01-.626-.255 2.817 2.817 0 00.473 1 1.233 1.233 0 01-.611-1.084l-.524-.329a3.935 3.935 0 00.422 1.209 1.558 1.558 0 01-.548-1.3l-.461-.394a4.747 4.747 0 00.292 1.192 1.891 1.891 0 01-.419-1.311l-.278-.3s.076.567.107.728 0 .189 0 .189a1.936 1.936 0 01-.227-1.036s-.535-.663-.579-.623z" fill="#0c9add" opacity=".1"/><path data-name="Path 1171" d="M173.607 102.353l1.9 2.011 3.02-5.323-.272-.6z" fill="#eb1c24"/><path data-name="Path 1172" d="M173.607 102.353l1.9 2.011 3.02-5.323-.272-.6z" opacity=".2"/><path data-name="Path 1173" d="M39.7 97.796c0 10.1-6.917 12.245-13.85 12.245s-10.833-8.513-10.833-18.617 5.62-18.292 12.549-18.292S39.7 87.694 39.7 97.796z" fill="#636780"/><path data-name="Path 1174" d="M39.7 97.796c0 10.1-6.917 12.245-13.85 12.245s-10.833-8.513-10.833-18.617 5.62-18.292 12.549-18.292S39.7 87.694 39.7 97.796z" fill="#3f3d56"/><path data-name="Path 1175" d="M34.907 91.748c0 10.1-4.453 18.292-9.946 18.292s-10.164-8.19-10.164-18.292a34.641 34.641 0 01-.055-4.06c1-8.152 5.485-14.231 10.214-14.231 5.499.001 9.951 8.19 9.951 18.291z" fill="#636780"/><path data-name="Path 1176" d="M33.915 47.223s-8.713 9.776-11.487 17.923l75.286 8.308 40.329-8.311s-15.973-19.139-20.289-19.879-83.839 1.959-83.839 1.959z" fill="#eb1c24"/><path data-name="Path 1177" d="M33.915 47.223s-8.713 9.776-11.487 17.923l75.286 8.308 40.329-8.311s-15.973-19.139-20.289-19.879-83.839 1.959-83.839 1.959z" opacity=".4"/><path data-name="Path 1178" d="M89.158 72.092l12.088 33.9v-8.579l3.364-9.606 9.319-4.125 11.815 5.363 4.226 1.32.369-7.82-14.051-6.926-6.543-3.138-14.967-1.3-4.129-.738z" fill="#eb1c24"/><path data-name="Path 1179" d="M94.548 75.618l10.994 1.258c-.5-4.39 2.76-4.39 2.76-4.39l-11-1.9H92.17" fill="#eb1c24"/><path data-name="Path 1180" d="M101.239 111.208h7.8l22.569-.756s.488 4.3 6.435 3.292c0 0 3.272.215 3.624-1.568s-7.453-18.21-7.453-18.21l-10.64-7.945-9.647-2.341-6.926 2.038-4.4 7-2.776 9.581z" fill="#636780"/><path data-name="Path 1181" d="M101.239 111.208h7.8l22.569-.756s.488 4.3 6.435 3.292c0 0 3.272.215 3.624-1.568s-7.453-18.21-7.453-18.21l-10.64-7.945-9.647-2.341-6.926 2.038-4.4 7-2.776 9.581z" fill="#3f3d56"/><path data-name="Path 1182" d="M35.435 49.564c-1.117.912-4.642 4.183-7.58 11.1a1.672 1.672 0 00.88 2.2 1.651 1.651 0 00.445.121l17.7 2.294a2.675 2.675 0 002.943-2.016l3.11-12.695a1.268 1.268 0 00-.929-1.534 1.25 1.25 0 00-.327-.036l-15.468.287a1.255 1.255 0 00-.778.284z" fill="#f0f0f4"/><path data-name="Path 1183" d="M35.439 49.463c-1.117.912-4.642 4.183-7.58 11.1a1.672 1.672 0 00.88 2.2 1.651 1.651 0 00.445.121l17.7 2.294a2.675 2.675 0 002.943-2.016l3.11-12.7a1.268 1.268 0 00-.929-1.534 1.25 1.25 0 00-.327-.036l-15.468.287a1.255 1.255 0 00-.778.284z" fill="#0c9add" opacity=".1"/><path data-name="Path 1184" d="M61.156 48.964l19.934-.189a3.387 3.387 0 013.206 2.41L90.517 65.3a2.424 2.424 0 01-2.273 3.283l-29.1-1.92a4.133 4.133 0 01-3.67-4.55 4.193 4.193 0 01.106-.588l2.109-9.585a3.662 3.662 0 013.467-2.976z" fill="#f0f0f4"/><path data-name="Path 1185" d="M61.156 48.964l19.934-.189a3.387 3.387 0 013.206 2.41L90.517 65.3a2.424 2.424 0 01-2.273 3.283l-29.1-1.92a4.133 4.133 0 01-3.67-4.55 4.193 4.193 0 01.106-.588l2.109-9.585a3.662 3.662 0 013.467-2.976z" fill="#0c9add" opacity=".1"/><path data-name="Path 1186" d="M49.531 70.24l19.934-.189a3.387 3.387 0 013.206 2.41l6.221 14.117a2.424 2.424 0 01-2.273 3.283l-29.1-1.92a4.133 4.133 0 01-3.67-4.55 4.194 4.194 0 01.106-.588l2.109-9.585a3.662 3.662 0 013.467-2.978z" fill="#0c9add" opacity=".1"/><path data-name="Path 1187" d="M92.143 48.738c5.45-.1 19.892-.511 27.076-2.166 0 0 12.335 9.287 16.024 16.295 0 0-19.218 4.678-32.492 5.311a5.029 5.029 0 01-4.761-2.837l-7.056-14.626a1.373 1.373 0 011.21-1.978z" fill="#f0f0f4"/><path data-name="Path 1188" d="M92.143 48.738c5.45-.1 19.892-.511 27.076-2.166 0 0 12.335 9.287 16.024 16.295 0 0-19.218 4.678-32.492 5.311a5.029 5.029 0 01-4.761-2.837l-7.056-14.626a1.373 1.373 0 011.21-1.978z" fill="#0c9add" opacity=".1"/><path data-name="Path 1189" d="M99.053 50.853c2.27-.04 6.7-.157 11.023-.481a20.721 20.721 0 0117.068 6.9l.141.159a2.693 2.693 0 01-1.472 4.4 133.672 133.672 0 01-19.169 2.888 3.593 3.593 0 01-3.422-2.028L98.19 52.254a.981.981 0 01.458-1.309.967.967 0 01.407-.1z" fill="#fff" opacity=".1"/><path data-name="Path 1190" d="M101.242 105.994v5.214l-57.629-8.8a7.33 7.33 0 00-4.5-.379c-2.081-1.016-3.594-4.979-3.637-5.108l1.088-3.149-8.845-14.607-11.754.488c1.848-14.776 7.169-15.48 7.169-15.48l69.044 6.412z" fill="#eb1c24"/><path data-name="Path 1191" d="M88.821 74.876a3.448 3.448 0 01-2.8.9c-2.336-.057-2.779-2.051-2.837-3.24a5.535 5.535 0 01.025-.874l3.061-.936.626.585 1.848 1.731a1.307 1.307 0 01.077 1.834z" opacity=".1"/><path data-name="Path 1192" d="M88.821 74.717a3.448 3.448 0 01-2.8.9c-2.336-.057-2.779-2.051-2.837-3.24a5.534 5.534 0 01.025-.874l3.061-.936.626.585 1.848 1.731a1.307 1.307 0 01.077 1.834z" fill="#636780"/><path data-name="Path 1193" d="M86.894 71.151a2.358 2.358 0 01-1.549 1.268l-2.163-.044a5.534 5.534 0 01.025-.874l3.061-.936z" opacity=".1"/><path data-name="Path 1194" d="M79.093 63.518s-4.888.654-3.585 5.073c.988 3.349 3.191 3.573 4.2 3.488a16.783 16.783 0 011.769-.064l3.861.077a2.1 2.1 0 001.631-2.487 2.255 2.255 0 00-.059-.222c-.606-2.199-3.417-6.232-7.817-5.865z" fill="#636780"/><ellipse data-name="Ellipse 183" cx="2.255" cy="2.933" rx="2.255" ry="2.933" transform="translate(50.373 71.012)" opacity=".2"/><path data-name="Path 1195" d="M50.092 72.73l6.415.684a.993.993 0 01.883 1.094.993.993 0 01-1.094.883l-6.415-.684a.993.993 0 01-.883-1.094 1 1 0 011.094-.883z" opacity=".1"/><path data-name="Path 1196" d="M50.092 72.567l6.415.684a.993.993 0 01.883 1.094.993.993 0 01-1.094.883l-6.415-.684a.993.993 0 01-.882-1.094 1 1 0 011.093-.883z" fill="#636780"/><path data-name="Path 1197" d="M15.259 93.093s-4.046-3.993.868-13.6c0 0 6.3-9.534 16.079.9a34.687 34.687 0 017.251 16.295l-3.829.082s-3.669-17.771-14.423-16.874c.006-.003-7.82 1.382-5.946 13.197z" opacity=".1"/><path data-name="Path 1198" d="M15.1 93.581s-4.048-3.991.868-13.607c0 0 6.3-9.532 16.079.9A34.705 34.705 0 0139.3 97.166l-3.83.082S31.8 79.489 21.044 80.383c-.001.001-7.822 1.385-5.944 13.198z" opacity=".1"/><path data-name="Path 1199" d="M15.1 93.255s-4.048-3.993.868-13.607c0 0 6.3-9.532 16.079.9A34.7 34.7 0 0139.3 96.84l-3.83.082s-3.67-17.76-14.426-16.866c-.001 0-7.822 1.387-5.944 13.199z" fill="#eb1c24"/><path data-name="Path 1200" d="M15.1 93.255s-4.048-3.993.868-13.607c0 0 6.3-9.532 16.079.9A34.7 34.7 0 0139.3 96.84l-3.83.082s-3.67-17.76-14.426-16.866c-.001 0-7.822 1.387-5.944 13.199z" opacity=".2"/><path data-name="Path 1201" d="M101.241 105.994v5.213l-57.629-8.8a7.33 7.33 0 00-4.5-.379c-2.081-1.016-3.594-4.979-3.637-5.108l3.83-.082 11.079 1.554 40.274 5.784s7.142.815 7.55 1.135a14.438 14.438 0 003.033.683z" fill="none"/><path data-name="Path 1202" d="M101.241 105.827v5.215l-57.629-8.8a7.354 7.354 0 00-4.5-.379c-2.081-1.016-3.594-4.979-3.637-5.108l3.83-.082 11.079 1.553 40.274 5.784s7.142.815 7.55 1.135a14.436 14.436 0 003.033.682z" opacity=".1"/><path data-name="Path 1203" d="M101.241 105.994v5.213l-57.629-8.8a7.33 7.33 0 00-4.5-.379c-2.081-1.016-3.594-4.979-3.637-5.108l3.83-.082 11.079 1.554 40.274 5.784s7.142.815 7.55 1.135a14.438 14.438 0 003.033.683z" fill="#eb1c24"/><path data-name="Path 1204" d="M101.241 105.994v5.213l-57.629-8.8a7.33 7.33 0 00-4.5-.379c-2.081-1.016-3.594-4.979-3.637-5.108l3.83-.082 11.079 1.554 40.274 5.784s7.142.815 7.55 1.135a14.438 14.438 0 003.033.683z" opacity=".2"/><path data-name="Path 1205" d="M179.021 86.819a96.065 96.065 0 01-42.939 8.8s-5.331.263-5.7-.225 1.375 2.054 1.375 2.054a2.263 2.263 0 011.311-.689c.652 0 3.636.221 3.636.221s34.086-1.444 42.805-9.183z" fill="none"/><path data-name="Path 1206" d="M50.295 98.404c-3.581-11.5-3.389-19.521-2.6-24.212a19.09 19.09 0 012.613-7.538l.131.1a19.032 19.032 0 00-2.584 7.483c-.787 4.687-.976 12.664 2.6 24.133z" opacity=".2"/><path data-name="Path 1207" d="M179.568 93.366c.144.536.478 2.014-.053 2.413a2.041 2.041 0 00-.515.965 15.02 15.02 0 00-.461 2.293l-5.542 6.191-9.369 3.668-22.406 1.548-13.528-22-30.391-17.868 8.3-.46c8.3-.461 31.855-5.675 31.855-5.675l26.647 5.886a17.857 17.857 0 0110.687 7.038 36.469 36.469 0 014.729 9.458 3.55 3.55 0 01.579 2.13 16.787 16.787 0 01-.468 3.77l-.107.456s.008.066.043.187z" fill="#eb1c24"/><path data-name="Path 1208" d="M98.198 104.986S96.57 87.559 108.791 82.83c0 0 17.191-7.256 27.294 12.462l5.132 11.246a5.931 5.931 0 005.459 2.688s18.819-.567 28.753-6.926l3.1-3.594s-1.548 5.051-3.1 6.191c0 0-6.114 7.169-28.354 8.473 0 0-9.1.976-11.839-7.659 0 0-3.721-19.553-22.624-19.391 0 0-11.105.215-11.378 19.336z" opacity=".1"/><path data-name="Path 1209" d="M98.198 105.313s-1.628-17.425 10.593-22.156c0 0 17.191-7.254 27.294 12.462l5.132 11.244a5.931 5.931 0 005.459 2.688s18.819-.567 28.753-6.926l3.11-3.585s-1.548 5.051-3.1 6.191c0 0-6.114 7.171-28.354 8.473 0 0-9.1.978-11.839-7.659 0 0-3.721-19.553-22.624-19.391 0 0-11.105.215-11.378 19.337z" fill="#eb1c24"/><path data-name="Path 1210" d="M98.198 105.313s-1.628-17.425 10.593-22.156c0 0 17.191-7.254 27.294 12.462l5.132 11.244a5.931 5.931 0 005.459 2.688s18.819-.567 28.753-6.926l3.11-3.585s-1.548 5.051-3.1 6.191c0 0-6.114 7.171-28.354 8.473 0 0-9.1.978-11.839-7.659 0 0-3.721-19.553-22.624-19.391 0 0-11.105.215-11.378 19.337z" opacity=".2"/><path data-name="Path 1211" d="M95.374 104.789l-.736-24.24a24.886 24.886 0 00-.189-4.918 19.618 19.618 0 00-1.388-4.023 2.829 2.829 0 00-.946-.959l-.429-.117.485-.036c.335.064.652.412.946.9a9.472 9.472 0 011.492 4.211 24.886 24.886 0 01.189 4.934l.736 24.24z" opacity=".2"/><path data-name="Path 1212" d="M110.336 86.806l-.159.027a10 10 0 00-1.454-3.629c-2.34-3.35-3.1-5.621-3.191-7.139a3.9 3.9 0 01.189-1.555 3.727 3.727 0 012.671-2.155l.284.047a4.167 4.167 0 00-2.809 2.162 3.817 3.817 0 00-.189 1.534c.094 1.484.858 3.713 3.163 7.014a10 10 0 011.495 3.694z" opacity=".2"/><path data-name="Path 1213" d="M162.522 78.905c-10.381-6.2-32.357-11.957-32.579-12.013l.042-.159c.221.059 22.221 5.826 32.62 12.032z" opacity=".2"/><path data-name="Path 1214" d="M177.615 87.49c-3.919-6.895-14.472-12.579-22.637-16.136a146.843 146.843 0 00-16.955-6.128l.044-.157a146.722 146.722 0 0116.976 6.134c8.187 3.565 18.77 9.269 22.714 16.2z" opacity=".2"/><ellipse data-name="Ellipse 184" cx="1.877" cy="7.975" rx="1.877" ry="7.975" transform="rotate(-37 193.77 -212.211)" opacity=".1"/><ellipse data-name="Ellipse 185" cx="1.877" cy="7.975" rx="1.877" ry="7.975" transform="rotate(-37 193.284 -212.377)" fill="#dce0ed"/><ellipse data-name="Ellipse 186" cx="1.218" cy="6.585" rx="1.218" ry="6.585" transform="rotate(-37 195.166 -214.367)" opacity=".1"/><ellipse data-name="Ellipse 187" cx="1.218" cy="6.585" rx="1.218" ry="6.585" transform="rotate(-37 194.925 -214.45)" fill="#f0f0f4"/><path data-name="Path 1215" d="M153.478 91.341s.53-3.993 3.668-4.89c0 0 10.672-3.087 13-3.133a4.041 4.041 0 013.991 1.055l1.628 2.2s1.135 1.793-1.385 2.118c0 0-12.9 4.729-18.492 5.22a8.055 8.055 0 00-.946.144c-.821.172-2.536.222-1.464-2.714z" opacity=".1"/><path data-name="Path 1216" d="M153.642 91.178s.53-3.993 3.666-4.89c0 0 10.672-3.087 13-3.133a4.037 4.037 0 013.991 1.055l1.63 2.2s1.135 1.791-1.387 2.118c0 0-12.9 4.729-18.49 5.221a7.838 7.838 0 00-.946.144c-.822.172-2.537.223-1.464-2.715z" fill="#f0f0f4"/><path data-name="Path 1217" d="M154.767 90.838s.493-3.414 3.405-4.183c0 0 9.923-2.648 12.081-2.681a4.007 4.007 0 013.711.9l1.513 1.882s1.06 1.534-1.287 1.813c0 0-11.991 4.048-17.191 4.466a7.971 7.971 0 00-.872.123c-.763.14-2.357.189-1.36-2.32z" opacity=".1"/><path data-name="Path 1218" d="M154.932 90.672s.492-3.4 3.405-4.183c0 0 9.923-2.648 12.081-2.681a4 4 0 013.711.9l1.513 1.892s1.06 1.533-1.287 1.813c0 0-11.992 4.048-17.192 4.466a7.913 7.913 0 00-.869.123c-.767.141-2.36.183-1.362-2.33z" fill="#3f3d56"/><path data-name="Path 1219" d="M155.768 88.569l-.02-.163c.146-.017 14.64-1.818 17.759-4.226l.1.129c-3.155 2.43-17.24 4.182-17.839 4.26z" fill="#f0f0f4"/><path data-name="Path 1220" d="M155.011 90.444l-.028-.161c.159-.028 16.1-2.981 19.542-5.108l.087.138c-3.47 2.15-19.441 5.1-19.601 5.131z" fill="#f0f0f4"/><path data-name="Path 1221" d="M154.632 91.991l-.03-.159c.189-.036 18.537-3.5 20.808-5.529l.107.121c-2.296 2.06-20.134 5.425-20.885 5.567z" fill="#f0f0f4"/><path data-name="Path 1222" d="M173.723 92.073a77.439 77.439 0 01-14.187 4.183q-.965.174-1.909.429a5.794 5.794 0 01-2.36.28c-.936-.246-1.454.895-.443 1.791l.064.057a3.617 3.617 0 002.692.889l1.556-.131s12.631-2.769 16.152-4.934c0 0 1.609-1.1 1.731-2.344s.268-2.219-1.006-1.484-2.29 1.264-2.29 1.264z" opacity=".1"/><path data-name="Path 1223" d="M173.881 91.918a77.439 77.439 0 01-14.187 4.174q-.965.172-1.908.429a5.794 5.794 0 01-2.36.28c-.946-.246-1.454.895-.443 1.791l.03.027a3.717 3.717 0 002.775.921l1.5-.124h.025c.429-.094 12.674-2.8 16.135-4.918h.013c.107-.077 1.609-1.144 1.724-2.34.123-1.241.27-2.219-1.006-1.484-1.212.7-2.195 1.211-2.285 1.258z" fill="#f0f0f4"/><path data-name="Path 1224" d="M172.959 92.828a79.4 79.4 0 01-11.767 3.7c-.6.132-1.2.287-1.8.46a6.059 6.059 0 01-1.92.322c-.81-.107-1.2.7-.287 1.243l.028.017a3.5 3.5 0 002.287.461l1.4-.189s10.629-2.675 13.523-4.362c0 0 1.324-.849 1.358-1.7s.117-1.513-.932-.946-1.89.994-1.89.994z" opacity=".1"/><path data-name="Path 1225" d="M173.118 92.66a79.361 79.361 0 01-11.764 3.7c-.6.132-1.207.287-1.8.46a6.055 6.055 0 01-1.92.322c-.81-.107-1.2.7-.285 1.243a3.6 3.6 0 002.346.475l1.365-.189c.215-.055 10.65-2.69 13.514-4.35.045-.03 1.325-.864 1.357-1.7s.117-1.523-.932-.946-1.845.976-1.892 1z" fill="#3f3d56"/><ellipse data-name="Ellipse 188" cx="2.142" cy="1.585" rx="2.142" ry="1.585" transform="rotate(-87.14 126.743 -26.295)" opacity=".1"/><ellipse data-name="Ellipse 189" cx="2.14" cy="1.583" rx="2.14" ry="1.583" transform="rotate(-87.151 126.734 -26.263)" fill="#f0f0f4"/><path data-name="Path 1226" d="M157.7 101.2s-8.294 1.263-10.5 1.387-2.531 1.343-2.531 1.343-.53 3.1 2.525 2.2l10.833-1.222s1.468.042 1.468-1.956v-.449a4.523 4.523 0 01.076-.751c.069-.309-.1-.816-1.871-.552z" opacity=".1"/><path data-name="Path 1227" d="M157.863 101.032s-8.294 1.263-10.5 1.385-2.525 1.345-2.525 1.345-.53 3.1 2.525 2.2l10.833-1.222s1.466.042 1.466-1.956v-.448a4.523 4.523 0 01.076-.751c.07-.305-.098-.812-1.875-.553z" fill="#636780"/><path data-name="Path 1228" d="M179.511 95.781a2.041 2.041 0 00-.515.965l-2.681 1.9a.214.214 0 01-.346-.178v-2a1.661 1.661 0 01.8-1.422l2.8-1.685c.138.542.479 2.018-.058 2.42z" fill="#636780"/><path data-name="Path 1229" d="M160.502 101.302l-.124 2.021a1.348 1.348 0 001.238 1.45 1.426 1.426 0 00.295-.009 37.108 37.108 0 0012.965-4.657l.354-4.127a.58.58 0 00-.518-.637.571.571 0 00-.29.045c-2.27 1.013-8.355 3.6-12.218 4.1a1.961 1.961 0 00-1.702 1.814z" fill="#3f3d56"/><path data-name="Path 1230" d="M161.748 100.264v3.284s10.1-2.388 12.343-4v-3.11a50.733 50.733 0 01-12.343 3.826z" fill="#eb1c24"/><path data-name="Path 1231" d="M179.465 92.883c-.513-.036-.923-.916-.923-1.992s.429-1.994.946-1.994a.6.6 0 01.429.215 16.307 16.307 0 01-.452 3.771z" fill="#eb1c24"/><path data-name="Path 1232" d="M179.622 92.719c-.513-.034-.921-.914-.921-1.99s.429-2 .946-2a.612.612 0 01.435.215 16.361 16.361 0 01-.46 3.775z" fill="#f0f0f4"/><path data-name="Path 1233" d="M133.152 106.637c0 17.9-7.566 18.292-17.435 18.292-7.884 0-11.111-8.189-11.111-18.292s2.533-18.269 10.415-18.269 18.131 8.168 18.131 18.269z" fill="#636780"/><path data-name="Path 1234" d="M133.152 106.637c0 17.9-7.566 18.292-17.435 18.292-7.884 0-11.111-8.189-11.111-18.292s2.533-18.269 10.415-18.269 18.131 8.168 18.131 18.269z" fill="#3f3d56"/><ellipse data-name="Ellipse 190" cx="9.946" cy="18.292" rx="9.946" ry="18.292" transform="translate(104.605 88.345)" fill="#636780"/><path data-name="Path 1235" d="M29.327 95.779c0 5.485-1.588 9.886-4.89 9.886s-7.224-4.451-7.224-9.941 1.372-10.315 4.672-10.315 7.442 4.883 7.442 10.37z" fill="#f0f0f4"/><path data-name="Path 1236" d="M29.326 95.567q0 .624-.034 1.226a15.542 15.542 0 01-.461 3.125c-.536 2.021-1.513 3.424-2.94 3.691a2.783 2.783 0 01-.508.045 4 4 0 01-2.111-.684 8.355 8.355 0 01-3.252-4.5 9.581 9.581 0 01-.437-2.291q-.023-.322-.023-.644a20.178 20.178 0 01.444-4.447 8.166 8.166 0 01.965-2.527 2.749 2.749 0 012.348-1.468 3.878 3.878 0 012.068.7 8.08 8.08 0 012.27 2.348 10.051 10.051 0 011.671 5.426z" fill="#3f3d56"/><path data-name="Path 1237" d="M29.289 96.801a15.454 15.454 0 01-.458 3.117c-.068-.077-1.937-2.237-3.341-.852-1.031 1.016-.163 3.325.4 4.54a2.692 2.692 0 01-.508.045 4 4 0 01-2.111-.684v-.156a3.862 3.862 0 00-1.385-4.183 3.337 3.337 0 00-1.876-.171 9.581 9.581 0 01-.437-2.291 3.173 3.173 0 00.956-3.352 15.142 15.142 0 00-.536-1.739 8.2 8.2 0 01.965-2.524s.429 2.309 2.054 2.448 2.34-3.125 2.36-3.218a8.08 8.08 0 012.27 2.348 3.3 3.3 0 00-1.843 3.961 3.879 3.879 0 003.49 2.711z" fill="#f0f0f4"/><ellipse data-name="Ellipse 191" cx="1.222" cy="2.118" rx="1.222" ry="2.118" transform="rotate(-8.048 673.42 -111.552)" fill="#3f3d56"/><path data-name="Path 1238" d="M116.286 107.401c0 6.577-1.4 11.846-4.313 11.846s-6.373-5.333-6.373-11.921 1.211-12.364 4.122-12.364 6.564 5.864 6.564 12.439z" fill="#f0f0f4"/><path data-name="Path 1239" d="M116.286 107.149q0 .756-.03 1.469a24.983 24.983 0 01-.409 3.738c-.471 2.421-1.325 4.1-2.593 4.422a1.912 1.912 0 01-.448.053 2.932 2.932 0 01-1.861-.822 10.417 10.417 0 01-2.877-5.4 15.283 15.283 0 01-.379-2.745c-.013-.253-.02-.511-.02-.772a32.316 32.316 0 01.394-5.326 12.033 12.033 0 01.858-3.027c.515-1.1 1.2-1.754 2.071-1.754a2.872 2.872 0 011.823.837 9 9 0 012.009 2.812 15.257 15.257 0 011.462 6.515z" fill="#3f3d56"/><path data-name="Path 1240" d="M116.255 108.619a24.983 24.983 0 01-.409 3.738c-.059-.094-1.7-2.681-2.947-1.021-.908 1.218-.144 3.989.354 5.444a1.912 1.912 0 01-.448.053 2.931 2.931 0 01-1.861-.821v-.193s.733-3.1-1.222-5.011a2.236 2.236 0 00-1.655-.2 15.284 15.284 0 01-.379-2.745 4.614 4.614 0 00.842-4.016 23.777 23.777 0 00-.469-2.081 12.033 12.033 0 01.858-3.027s.379 2.769 1.813 2.932 2.064-3.741 2.081-3.849a9 9 0 012.009 2.812s-2.294 1.3-1.625 4.746a3.681 3.681 0 003.058 3.239z" fill="#f0f0f4"/><ellipse data-name="Ellipse 192" cx="1.082" cy="2.529" rx="1.082" ry="2.529" transform="rotate(-4.68 1332.88 -1288.985)" fill="#3f3d56"/><path data-name="Path 1241" d="M138.367 78.762l-.066.149c-.064-.03-5.7-2.459-26.586-6.006q-1.464-.248-3.027-.505c-.1-.013-.189-.03-.29-.045a642.452 642.452 0 00-11.1-1.7l.023-.163a560.797 560.797 0 0114.527 2.27c20.828 3.54 26.448 5.971 26.519 6z" opacity=".2"/><path data-name="Path 1242" d="M32.482 47.807s1.892-3.218 8.366-3.5c0 0 47.309-6.18 77.177.242 0 0 2.55 1.135-.215 1.8s-66.377 2.968-85.328 1.458z" opacity=".1"/><path data-name="Path 1243" d="M32.482 47.481s1.892-3.218 8.366-3.5c0 0 47.309-6.178 77.177.245 0 0 2.55 1.135-.215 1.8s-66.377 2.969-85.328 1.455z" fill="#f4f4f4"/><path data-name="Path 1244" d="M28.048 60.989c2.938-6.916 6.463-10.189 7.58-11.1a1.264 1.264 0 01.775-.284l15.478-.29a1.253 1.253 0 011.065.548 1.267 1.267 0 00-1.228-.874l-15.477.287a1.249 1.249 0 00-.775.284c-1.117.912-4.642 4.183-7.58 11.1a1.666 1.666 0 00.134 1.566 1.666 1.666 0 01.028-1.239z" opacity=".1"/><path data-name="Path 1245" d="M55.909 61.762l2.109-9.585a3.66 3.66 0 013.465-2.98l19.934-.189a3.219 3.219 0 012.081.745 3.253 3.253 0 00-2.4-1.05l-19.933.193a3.663 3.663 0 00-3.465 2.981l-2.118 9.579a4.35 4.35 0 001.4 4.275 4.381 4.381 0 01-1.073-3.969z" opacity=".1"/><path data-name="Path 1246" d="M99.008 65.8l-7.056-14.626a1.373 1.373 0 011.211-1.969c5.374-.1 19.5-.5 26.778-2.1-.458-.357-.721-.557-.721-.557-7.186 1.655-21.626 2.068-27.076 2.166a1.373 1.373 0 00-1.211 1.969l7.058 14.62a5.04 5.04 0 002.886 2.574 5.032 5.032 0 01-1.869-2.077z" opacity=".1"/><path data-name="Rectangle 489" fill="#eb1c24" d="M98.2 105.313h3.042v.936H98.2z"/><path data-name="Rectangle 490" opacity=".2" d="M98.2 105.313h3.042v.936H98.2z"/><path data-name="Path 1247" d="M39.155 96.046l-3.74.644a1.93 1.93 0 00.107.379 30.123 30.123 0 004.162-.146l-.394-.082z" fill="#eb1c24"/><path data-name="Path 1248" d="M39.155 96.046l-3.74.644a1.93 1.93 0 00.107.379 30.123 30.123 0 004.162-.146l-.394-.082z" opacity=".2"/><path data-name="Path 1249" d="M25.044 105.215c-3.3 0-7.224-4.451-7.224-9.941 0-3.763.644-7.216 2.113-9.015-1.892 1.526-2.72 5.376-2.72 9.622 0 5.485 3.925 9.941 7.224 9.941a3.5 3.5 0 002.764-1.38 3.328 3.328 0 01-2.157.773z" opacity=".1"/><path data-name="Path 1250" d="M112.619 118.516c-2.955 0-6.469-5.344-6.469-11.936 0-4.519.567-8.665 1.892-10.826-1.7 1.833-2.435 6.456-2.435 11.556 0 6.592 3.515 11.936 6.47 11.936a2.958 2.958 0 002.474-1.657 2.574 2.574 0 01-1.932.927z" opacity=".1"/><ellipse data-name="Ellipse 193" cx="4.869" cy="9.505" rx="4.869" ry="9.505" transform="rotate(-45 165.515 -116.518)" opacity=".1"/><ellipse data-name="Ellipse 194" cx="4.869" cy="9.505" rx="4.869" ry="9.505" transform="rotate(-45 165.4 -116.796)" fill="#dce0ed"/><ellipse data-name="Ellipse 195" cx="3.57" cy="8.066" rx="3.57" ry="8.066" transform="rotate(-45 166.55 -119.718)" opacity=".1"/><ellipse data-name="Ellipse 196" cx="3.57" cy="8.066" rx="3.57" ry="8.066" transform="rotate(-45 166.353 -119.802)" fill="#f0f0f4"/><ellipse data-name="Ellipse 197" cx="5.66" cy=".957" rx="5.66" ry=".957" transform="translate(186.938 123.438)" fill="#0c9add" opacity=".1"/><ellipse data-name="Ellipse 198" cx="3.191" cy=".54" rx="3.191" ry=".54" transform="translate(207.151 106.014)" fill="#0c9add" opacity=".1"/><ellipse data-name="Ellipse 199" cx="3.853" cy=".651" rx="3.853" ry=".651" transform="translate(179.233 109.469)" fill="#0c9add" opacity=".1"/><path data-name="Path 1251" d="M118.073 61.218a3.794 3.794 0 00-.429-2.983l-.077-3.325c.429-.88-1.04-3.059-1.04-3.059s-.348-1.645-.656-1.8-.654-.842-.654-.842a.509.509 0 00-.295-.45 21.921 21.921 0 01-1.407-3.091 3.463 3.463 0 01-.284-1.836 3.411 3.411 0 01.138-.458c.013-.032.025-.062.036-.094s0-.027.015-.038l.013-.034a2.37 2.37 0 00.227-.981 2.036 2.036 0 00-1.341-1.527 6.4 6.4 0 01-1.892-1 4.386 4.386 0 01-.946-2.459 3.556 3.556 0 00-1.1-2.36 3.028 3.028 0 00-2.294-.346 7.652 7.652 0 00-2.958 1.18 10.456 10.456 0 01-2.624 1.645c-.365.107-.756.153-1.112.272a2.746 2.746 0 00-1.655 1.657c-.013.036-.023.072-.035.107l-.044.134a.977.977 0 00-.027.116c-.008.039-.023.089-.03.134s-.013.077-.017.116-.013.092-.017.138a1.006 1.006 0 000 .114v.152a6.045 6.045 0 00-1.06 1.325c-1.271 2.016-2.854 4.934-3.558 6.242l-.034.064v-.04s-3.1 3.11-1.287 2.7a3.729 3.729 0 01.379-.069l-.032.356v.01c-.29.364-1.543 1.62.788 2.55 1.931.772 5.891.965 7.186 1.014l-.114.547c-2 1.644-1.233 3.518-1.271 4.742s-.233 2.681-.233 2.681a4.577 4.577 0 00-.731 2.1 3.856 3.856 0 01-.617 1.912s-1.08 1.18-.965 1.95a4.816 4.816 0 01-.189 1.757s-.733 1.34-.429 2.1a1.8 1.8 0 01.156 1.186s-1.581.228-1.7 1.073-1.541 1.147-1.541 1.147a26.006 26.006 0 00-3.163 1.34c-.619.422-3.892 3.478-3.892 3.478s-3.29 3.384-3.463 3.725-2.116 1.81-1.219 3.183c.045.068.091.138.138.206a11.709 11.709 0 003.558 3.373 5.461 5.461 0 011.422 1.1c.4.632 7.173 4.962 7.173 4.962s2.973 2.614 4.888 4.436l.146.876a1.664 1.664 0 00-.074.123.537.537 0 00.189.518l.027.156s.772 6.5 1.466 9.546a7.915 7.915 0 01-.139 4.325 3.879 3.879 0 01-.8-1.084 8.211 8.211 0 00-.491 1.6 2.55 2.55 0 00-.023.228.056.056 0 00-.051.023l-.27.379c-.295.407-.555.84-.817 1.268a4.851 4.851 0 01-2.512 1.445 1.853 1.853 0 01-.511.189 5.854 5.854 0 01-1.62.049 2.618 2.618 0 00-.478.117 1.825 1.825 0 00-.364.166 1.389 1.389 0 00-.536 1.526l.02.013.02.013.034.02.051.032.044.025.045.028.047.027.059.032.049.028.124.066.059.032.082.042.066.032.089.044.087.04c.049.025.1.047.153.07l.089.04.107.042.1.04.107.04.189.07.094.032.134.045.107.032.156.045.085.023c.077.023.157.042.238.06l.079.017c.062.015.124.028.189.04l.047.012h.04c.068.013.136.023.206.034h.06l.272.032h.072c.072 0 .144.012.215.015h.382c.094 0 .189 0 .284-.012h.059l.233-.023.107-.015.2-.034.1-.019c.1-.02.189-.044.3-.07a18.456 18.456 0 016.621-.567c1.7.144 2.13-.439 2.13-.439a.992.992 0 00.085-.146.572.572 0 00.025-.059 1 1 0 00.04-.107.344.344 0 01.02-.074l.025-.107c.008-.033 0-.053.013-.079s0-.03 0-.045a.906.906 0 00.01-.107 4.172 4.172 0 00-.068-.98 11.264 11.264 0 00-.62-2.081l-.121.084a6.885 6.885 0 01-.04-.189 73.1 73.1 0 01-.567-8.189 1.016 1.016 0 00.644-.223c.032-.027.049-.044.049-.044 1.445-1.18.736-6.543.26-7.285s-.567-4.573-.738-5.792c-.082-.579-.379-.751-.781-.756a1.469 1.469 0 00-.168 0c-.057-1.135.107-3.8.238-5.626 0-.117.017-.233.025-.342l.365.019.536-3.218a24.518 24.518 0 012.2-4.538 18.012 18.012 0 002.081-7.035s.579-1.108.429-1.609a9 9 0 01-.176-.965 12.547 12.547 0 012.022-.988 12.432 12.432 0 004.243-3.11l.107-.121a8.531 8.531 0 01.476.819 16.151 16.151 0 002.507-2.145 1.323 1.323 0 00.215-.379 9.836 9.836 0 00-.011-3.989 2.13 2.13 0 00-.183-2.26z" transform="translate(4.849 2.5)" fill="url(#a)"/><g data-name="Group 333"><path data-name="Path 1252" d="M1.43-79.925a5.488 5.488 0 01-1.311.842 44.136 44.136 0 01-.117-.981 10.911 10.911 0 01.858-2.312 15 15 0 001.684-2.66c-.04-.349.666-1.347.666-1.347l1.564-2.532a1.136 1.136 0 00.161 1.186c.471.617.077 1.85.077 1.85l.1 1.555v.156c-.055.055-.307.295-.858.8-.513.461-.422.6-.364.644-.117.208.027.245.027.245a.824.824 0 00.136-.012l-.124.116a33.888 33.888 0 00-2.499 2.45z" transform="translate(113.144 151.38)" fill="url(#b)" opacity=".1"/></g><path data-name="Path 1253" d="M104.246 42.792c-.468.488.064 1.172-.3 1.7-.206.3-.66.484-.917.756-.5.545-.123 1.241.119 1.861.885 2.259-.443 4.833-3.218 6.242a5.811 5.811 0 003.812.312 3.319 3.319 0 002.445-1.982c.189-.622.027-1.287.346-1.88.5-.929 2.02-1.487 2.467-2.425a2.369 2.369 0 00-.481-2.242 17.814 17.814 0 00-1.916-2.5c-.435-.475-.435-.662-1.135-.536a3.363 3.363 0 00-1.222.694z" fill="#3f3d56"/><path data-name="Path 1254" d="M108.39 49.413a7.278 7.278 0 01-.444 1.96 10.149 10.149 0 01-.993 2.326 3.462 3.462 0 01-1.942 1.541 2.433 2.433 0 002.024.585 3.231 3.231 0 011.549-.189 4.932 4.932 0 01.668.357 1.9 1.9 0 002.24-.536 2.544 2.544 0 00.391-2.353c-.151-.478-.422-.916-.567-1.4a11.066 11.066 0 00-.471-2.172 5.52 5.52 0 00-2.849-1.892c-.051.514.414 1.168.394 1.773z" fill="#985c7e"/><path data-name="Path 1255" d="M107.076 47.647a7.272 7.272 0 01-.444 1.954 9.926 9.926 0 01-.993 2.326 3.474 3.474 0 01-1.94 1.541 2.419 2.419 0 002.022.585 3.258 3.258 0 011.549-.189 4.748 4.748 0 01.668.356 1.9 1.9 0 002.24-.536 2.538 2.538 0 00.391-2.353c-.151-.478-.422-.916-.567-1.4a11.066 11.066 0 00-.471-2.172 5.552 5.552 0 00-2.849-1.892c-.049.519.419 1.166.394 1.78z" fill="#3f3d56"/><path data-name="Path 1256" d="M108.014 91.765s-.567 6.938-.322 7.867.666 13.479.666 13.479.171 7.317.74 8.853-3.849 1.1-4 1.08a28.216 28.216 0 01-1.251-3.129 7.256 7.256 0 00.4-4.918c-.683-3.027-1.439-9.458-1.439-9.458l-1.259-7.574a5.212 5.212 0 00-.492-2.789c-.662-1-1.513-7.582-1.324-8.152s4.698-1.82 4.698-1.82l1.941 2.541z" fill="#ecb4b6"/><path data-name="Path 1257" d="M99.792 88.481v.134l.042.394c.236 2.2.78 5.485 1.231 6.173a4.517 4.517 0 01.511 2.332v.189a2.032 2.032 0 01-.015.268l.965 5.832.042.248.248 1.5s.757 6.446 1.442 9.458a7.98 7.98 0 01-.087 4.127 5.451 5.451 0 01-.057.178 3.874 3.874 0 01-.255.6s.156.439.357.989l.139.379c.027.068.051.134.076.2a7.994 7.994 0 00.679 1.556c.149.019 4.568.454 4-1.08a4.558 4.558 0 01-.171-.684 79.057 79.057 0 01-.567-8.168s-.416-12.549-.664-13.48a43.262 43.262 0 01.189-6.023c.074-1.065.138-1.838.138-1.838l-1.65-4.018-1.94-2.541a31.134 31.134 0 00-4.337 1.513l-.032.017a.744.744 0 00-.322.284 6.457 6.457 0 00.038 1.461z" opacity=".07"/><path data-name="Path 1258" d="M102.725 97.249s2.145.567 1.952 1.194z" opacity=".05"/><path data-name="Path 1259" d="M103.863 119.921s.233.656.5 1.37c.3.144.536.233.536.233s.825-.766-.265-1.892c-.176-.189-.322-.342-.454-.488a4.207 4.207 0 01-.312.778z" opacity=".1"/><path data-name="Path 1260" d="M102.818 120.29c.084.454 1.08.957 1.62 1.2.2.091.344.146.344.146a1.039 1.039 0 00.228-.364 1.422 1.422 0 00-.493-1.534 12.528 12.528 0 01-.4-.429 3.924 3.924 0 01-.808-1.092 8.219 8.219 0 00-.481 1.588 1.518 1.518 0 00-.01.485z" fill="#0c9adc"/><path data-name="Path 1261" d="M102.818 120.29c.084.454 1.08.957 1.62 1.2a7.994 7.994 0 00.679 1.556c.149.019 4.568.454 4-1.08a4.558 4.558 0 01-.171-.684l-1.226.864a1.943 1.943 0 01-1.563.114l-1.147-.988-.285-.245a1.734 1.734 0 01-.5-.121 2.43 2.43 0 01-.986-.79c-.215-.231-.34-.295-.4-.3a1.549 1.549 0 00-.021.474z" opacity=".1"/><path data-name="Path 1262" d="M95.777 125.152a7.827 7.827 0 002.71 1.085 5.494 5.494 0 002.474-.07 18.02 18.02 0 016.5-.567c1.668.142 2.094-.435 2.094-.435a2.4 2.4 0 00.157-1.7 11.231 11.231 0 00-.6-2.064s-.756.536-1.385.976a1.943 1.943 0 01-1.563.116l-1.432-1.233a2.232 2.232 0 01-1.489-.91c-.4-.429-.481-.285-.481-.285l-.272.367c-.292.4-.547.832-.806 1.258a4.74 4.74 0 01-2.458 1.432 1.993 1.993 0 01-.5.178 5.718 5.718 0 01-1.595.047 2.107 2.107 0 00-.8.272 1.371 1.371 0 00-.554 1.533z" fill="#0c9adc"/><circle data-name="Ellipse 200" cx=".148" cy=".148" r=".148" transform="translate(104.276 121.915)" fill="#4b4b5b"/><circle data-name="Ellipse 201" cx=".148" cy=".148" r=".148" transform="translate(102.46 122.689)" fill="#4b4b5b"/><circle data-name="Ellipse 202" cx=".148" cy=".148" r=".148" transform="translate(103.177 123.79)" fill="#4b4b5b"/><circle data-name="Ellipse 203" cx=".148" cy=".148" r=".148" transform="translate(100.678 123.417)" fill="#4b4b5b"/><circle data-name="Ellipse 204" cx=".148" cy=".148" r=".148" transform="translate(103.472 122.394)" fill="#4b4b5b"/><circle data-name="Ellipse 205" cx=".148" cy=".148" r=".148" transform="translate(104.182 123.713)" fill="#4b4b5b"/><circle data-name="Ellipse 206" cx=".148" cy=".148" r=".148" transform="translate(101.581 123.121)" fill="#4b4b5b"/><circle data-name="Ellipse 207" cx=".148" cy=".148" r=".148" transform="translate(99.702 123.642)" fill="#4b4b5b"/><path data-name="Path 1263" d="M95.777 125.155a6.968 6.968 0 005.185 1.016 18.02 18.02 0 016.5-.567c1.668.142 2.094-.435 2.094-.435a1.279 1.279 0 00.215-.615.488.488 0 01.012-.131 4.373 4.373 0 00-.068-.946 4.532 4.532 0 01-2.525.622 45.069 45.069 0 00-5.849.724l-3.218-.132s-1.8-.389-1.793-1.061a1.358 1.358 0 00-.553 1.525z" opacity=".1"/><path data-name="Path 1264" d="M100.286 125.776a.807.807 0 00.161.013 17.9 17.9 0 002.754-.49 3.8 3.8 0 01.7-.1c.756-.04 2.609-.129 3.653-.121h.025a5.511 5.511 0 002.189-.53.488.488 0 01.012-.131 5.425 5.425 0 01-2.225.545c-1.045 0-2.906.084-3.659.123a4.124 4.124 0 00-.724.107 14.278 14.278 0 01-2.868.476z" fill="#0c9adc"/><path data-name="Path 1265" d="M101.584 97.698a2.033 2.033 0 01-.015.268l.965 5.832.5.475a12.649 12.649 0 011.341 1.425c.567.882 2.574.429 2.54.342s-.858-4.242-.858-4.242l-.652-1.678a1.074 1.074 0 01-1.35-.284c-.422-.448-1.365-1.324-2.007-1.91l-.453-.413c-.007.07-.009.135-.011.185z" opacity=".03"/><path data-name="Path 1266" d="M99.795 88.495v.117l.042.394c.139-.051.278-.107.414-.166l.189-.087a9.991 9.991 0 001.761-1.09l-1.65-.709-.488-.215a.744.744 0 00-.322.284 7.586 7.586 0 00.054 1.472z" opacity=".05"/><path data-name="Path 1267" d="M85.635 89.939c.045.069.089.136.136.2a11.567 11.567 0 003.5 3.342 5.431 5.431 0 011.4 1.088c.4.624 7.052 4.918 7.052 4.918s3.1 2.743 4.967 4.553l.238.231.116.114c.138.134.263.261.379.379.166.168.3.315.411.439l.107.124a1.32 1.32 0 01.1.132c.567.882 2.574.429 2.541.34s-.867-4.233-.867-4.233l-.654-1.678a1.019 1.019 0 01-.858.057 1.317 1.317 0 01-.49-.342c-.422-.446-1.368-1.325-2.009-1.909-.379-.348-.651-.594-.651-.594l-2.133-2.415s-2.73-3.555-4.776-4.436a21.821 21.821 0 013.951-1.2 7.164 7.164 0 001.824-.433l.189-.089a10.075 10.075 0 001.755-1.09l-1.644-.708-8.671-3.728c-.053 0-.556.034-.925.059l-.391.027s-3.233 3.356-3.4 3.7-2.079 1.781-1.197 3.152z" fill="#ecb4b6"/><path data-name="Path 1268" d="M95.188 88.38s-3.725.456-4.464 1.224c0 0 3.27.227 3.4.654 0 0-1.868-1.266-2.389-.946z" opacity=".03"/><path data-name="Path 1269" d="M102.926 104.277l.116.114c.138.134.263.261.379.379.166.168.3.316.411.439l.483-.624a1.988 1.988 0 00-.548-.332.943.943 0 00-.834.027z" opacity=".05"/><path data-name="Path 1270" d="M103.161 105.672a2.565 2.565 0 00.389.161l.379-.5.49-.636a1.959 1.959 0 00-.548-.331.947.947 0 00-.834.025 1.208 1.208 0 00-.444.49s-.145.426.568.791z" fill="#0c9adc"/><path data-name="Path 1271" d="M103.084 105.593l.077.077a2.565 2.565 0 00.389.161l.379-.5a1.32 1.32 0 01.1.132c.567.882 2.574.429 2.541.34s-.858-4.233-.858-4.233l-.653-1.678a1.019 1.019 0 01-.858.057.419.419 0 00-.005.592l.005.005a4.008 4.008 0 01.644 1.892c.255.7-.52 1.566-.965 1.931a1.342 1.342 0 01-.24.161.559.559 0 00-.215.242 4.524 4.524 0 00-.341.821z" opacity=".05"/><path data-name="Path 1272" d="M103.311 105.594l.858.867a6.454 6.454 0 012.611 3.257 7.111 7.111 0 00.308.756 3.381 3.381 0 01.225 1.063c.02.221.03.439.038.629a1.023 1.023 0 00.257.656l.012.012a1.02 1.02 0 001.394.119c.03-.025.047-.042.047-.042 1.42-1.165.724-6.485.255-7.224s-.555-4.54-.726-5.743c-.079-.567-.379-.741-.768-.756a10.974 10.974 0 00-1.347.2h-.072c-.884.07-2.574.331-1.984 1.15a3.965 3.965 0 01.644 1.892c.314.867-.946 1.977-1.207 2.081s-.545 1.083-.545 1.083z" fill="#0c9adc"/><circle data-name="Ellipse 208" cx=".252" cy=".252" r=".252" transform="translate(104.306 104.806)" fill="#4b4b5b"/><circle data-name="Ellipse 209" cx=".252" cy=".252" r=".252" transform="translate(104.69 105.748)" fill="#4b4b5b"/><circle data-name="Ellipse 210" cx=".252" cy=".252" r=".252" transform="translate(105.871 107.265)" fill="#4b4b5b"/><circle data-name="Ellipse 211" cx=".252" cy=".252" r=".252" transform="translate(105.286 106.485)" fill="#4b4b5b"/><circle data-name="Ellipse 212" cx=".252" cy=".252" r=".252" transform="translate(106.36 108.164)" fill="#4b4b5b"/><path data-name="Path 1273" d="M107.614 109.186a19.645 19.645 0 010 3.622 1.024 1.024 0 001.405.131c.03-.025.047-.042.047-.042 1.42-1.165.724-6.485.255-7.224s-.555-4.54-.726-5.743c-.079-.567-.379-.741-.768-.756a10.972 10.972 0 00-1.347.2 24.2 24.2 0 00.379 4.892 34.741 34.741 0 01.755 4.92z" opacity=".1"/><path data-name="Path 1274" d="M108.24 104.165a22.584 22.584 0 01.626 4.856c-.028 1 .087 2.957.151 3.923.03-.025.047-.042.047-.042 1.42-1.165.724-6.485.255-7.224s-.555-4.54-.726-5.743c-.079-.567-.379-.741-.768-.756a42.148 42.148 0 00.415 4.986z" opacity=".1"/><path data-name="Path 1275" d="M107.272 99.244a26.913 26.913 0 00.473 4.3 47.547 47.547 0 01.684 5.549h-.114a48 48 0 00-.679-5.522 26.249 26.249 0 01-.476-4.313z" fill="#0c9adc"/><path data-name="Path 1276" d="M106.441 51.466a21.815 21.815 0 00-2.881.713c-1.043.386-1.2.6-1.2.6l-1.08.171v-1.16a35.746 35.746 0 01-4.26.129.085.085 0 01-.025-.015c-.189-.189.114 1.5-.171 1.858s-1.513 1.609.778 2.527 7.495 1.017 7.495 1.017l1.479-2.918z" fill="#636780"/><path data-name="Path 1277" d="M112.259 57.041l-4.092-.872a9.89 9.89 0 001.18-3.133 4.3 4.3 0 00-.275-2.631c-1.18-2.388 3.181-3.641 3.181-3.641a21.832 21.832 0 003.027 3.706 2.34 2.34 0 001.323.694c1.533 0-4.344 5.877-4.344 5.877z" fill="#ecb4b6"/><path data-name="Path 1278" d="M90.233 83.429s1.78 4.209 3.4 4.285c.981.045 4.008.461 6.265.785l.2.028a10.055 10.055 0 001.761-1.09l-1.644-.708-8.671-3.728c-.053 0-.556.034-.925.059z" opacity=".1"/><path data-name="Path 1279" d="M102.97 87.106c1.548.223-.418 1.782-.418 1.782a6.726 6.726 0 011.63 2.648c.874 2.081 1.287 1.931 1.287 1.931l2.423.132c.074-1.065.138-1.838.138-1.838l-1.65-4.018-1.94-2.541a31.132 31.132 0 00-4.337 1.513l-.032.017a.744.744 0 00-.322.284c-.048.162 3.152-.662 3.221.09z" opacity=".1"/><path data-name="Path 1280" d="M112.259 57.041l-4.092-.872a9.89 9.89 0 001.18-3.133l1.281 1.236a3.16 3.16 0 001.754-.513 2.663 2.663 0 00.6-.548c.91-1.135 2.007-2.616 2.007-2.616s.129-.059.3-.123a2.348 2.348 0 001.325.693c1.522-.001-4.355 5.876-4.355 5.876z" opacity=".1"/><path data-name="Path 1281" d="M90.233 83.083s1.78 4.209 3.4 4.29 8.91 1.18 8.91 1.18a6.726 6.726 0 011.63 2.648c.874 2.081 1.287 1.931 1.287 1.931l2.8.151.536-3.183a24.026 24.026 0 012.16-4.513 18.015 18.015 0 002.046-6.972s.567-1.1.418-1.593-.644-4.4-.683-4.816a10.771 10.771 0 01.834-2.27 14.679 14.679 0 001.63-2.616c-.038-.346.644-1.324.644-1.324l1.513-2.495a1.134 1.134 0 00.157 1.167c.454.607.074 1.823.074 1.823l.092 1.531.02.367s-.227.227-.847.8-.327.644-.327.644c1.931-.265 3.45 2.883 3.45 2.883a15.635 15.635 0 002.459-2.125 1.316 1.316 0 00.215-.365 9.812 9.812 0 00-.012-3.957 2.129 2.129 0 00-.161-2.237 3.786 3.786 0 00-.416-2.956l-.076-3.3c.416-.87-1.025-3.027-1.025-3.027s-.34-1.63-.644-1.782-.644-.834-.644-.834c.038-.756-1.972-.834-2.16-.872a3.694 3.694 0 01-.686-.4 5.99 5.99 0 00-.6-.357c-.342-.151-1.252.267-1.252.267s-1.1 1.477-2.009 2.616a2.635 2.635 0 01-.6.548 3.166 3.166 0 01-1.748.507l-1.305-1.258-3.841.231-.9 4.436c-1.972 1.628-1.214 3.488-1.253 4.7s-.227 2.648-.227 2.648a4.584 4.584 0 00-.721 2.081 3.872 3.872 0 01-.607 1.892s-1.061 1.18-.946 1.931a4.747 4.747 0 01-.189 1.744s-.719 1.325-.416 2.081a1.789 1.789 0 01.151 1.18s-1.555.227-1.668 1.061-1.506 1.136-1.506 1.136a26.014 26.014 0 00-3.11 1.325c-.619.398-3.847 3.453-3.847 3.453z" fill="#636780"/><path data-name="Path 1282" d="M122.079 64.545s-2.837.342-3.186.756 2.837.456 2.837.456z" opacity=".1"/><path data-name="Path 1283" d="M117.871 66.804s2.081-.74 2.145-.513-2.145 1.479-2.145 1.479z" opacity=".1"/><path data-name="Path 1284" d="M116.999 62.765c-.361.57-3.346 4.239-3.346 4.239l3.218-4.694z" opacity=".1"/><path data-name="Path 1285" d="M116.562 61.76c-.227.3-2.635 4.246-2.635 4.246l2.427-4.436z" opacity=".1"/><path data-name="Path 1286" d="M121.597 57.041s-.929-1.309-1.838-.475 1.838.475 1.838.475z" opacity=".1"/><path data-name="Path 1287" d="M115.104 55.924a11.267 11.267 0 00-3.526.536c-1.156.525 1.025-1.596 3.526-.536z" opacity=".1"/><path data-name="Path 1288" d="M112.384 54.141h.35a1.851 1.851 0 001.023-.931c.208-.629 1.848-.055 1.848-.055s.236.178.028-.114.721-1.212 1.135-1.823a.514.514 0 00.072-.153 5.815 5.815 0 00-.6-.359c-.342-.151-1.252.267-1.252.267s-1.1 1.479-2.009 2.616a2.629 2.629 0 01-.595.552z" opacity=".1"/><path data-name="Path 1289" d="M112.384 53.913h.35a1.851 1.851 0 001.023-.931c.208-.629 1.848-.055 1.848-.055s.236.178.028-.114.721-1.212 1.135-1.823a.514.514 0 00.072-.156 5.991 5.991 0 00-.6-.357c-.342-.151-1.252.267-1.252.267s-1.1 1.477-2.009 2.616a2.629 2.629 0 01-.595.553z" fill="#636780"/><circle data-name="Ellipse 213" cx=".252" cy=".252" r=".252" transform="translate(109.334 56.037)" fill="#e7c7ca"/><circle data-name="Ellipse 214" cx=".252" cy=".252" r=".252" transform="translate(105.01 61.92)" fill="#e7c7ca"/><circle data-name="Ellipse 215" cx=".252" cy=".252" r=".252" transform="translate(106.57 58.207)" fill="#e7c7ca"/><circle data-name="Ellipse 216" cx=".252" cy=".252" r=".252" transform="translate(104.312 65.745)" fill="#e7c7ca"/><circle data-name="Ellipse 217" cx=".252" cy=".252" r=".252" transform="translate(101.108 72.342)" fill="#e7c7ca"/><circle data-name="Ellipse 218" cx=".252" cy=".252" r=".252" transform="translate(100.856 75.723)" fill="#e7c7ca"/><path data-name="Path 1290" d="M97.436 51.466l.511 1.65 1.609-.114 1.439-1.536s.094-.276.242-.686a24.484 24.484 0 011.429-3.432 16.2 16.2 0 00.872-4.093s-.582-1.325-2.245 1.324c-1.251 2-2.807 4.888-3.5 6.193-.216.432-.357.694-.357.694z" fill="#ecb4b6"/><path data-name="Path 1291" d="M104.573 74.555c0 .4 1.7.594 2.507.662l.413.028c-.189.429.815 3.689.815 3.689a2.017 2.017 0 00.253-.032 16.454 16.454 0 003.936-2.093s.057-.626 2.758-1.724a12.262 12.262 0 004.171-3.082 4.814 4.814 0 01.429-.446l-2.4-2.472s-.388.359-.9.842a31.667 31.667 0 00-2.42 2.425 29.944 29.944 0 01-3.961 2.213 5.716 5.716 0 00-2.635-.872s-2.966.333-2.966.862z" fill="#ecb4b6"/><path data-name="Path 1292" d="M109.018 66.007c-.114.227-5.256 3.639-6.123 3.7s.815-1.63.872-1.65 5.251-2.05 5.251-2.05z" opacity=".1"/><path data-name="Path 1293" d="M81.306 120.185l-.189-.044z" opacity=".1"/><path data-name="Path 1294" d="M96.295 123.63a2.071 2.071 0 01.8-.272 5.678 5.678 0 001.595-.049 3.815 3.815 0 00-.117 1.4l-.483-.019s-1.802-.391-1.795-1.06z" fill="#fff" opacity=".3"/><path data-name="Path 1295" d="M81.432 120.209l-.107-.02z" opacity=".1"/><path data-name="Path 1296" d="M107.318 111.529c.02.221.03.439.038.627a1.023 1.023 0 00.257.656l.012.012a9.156 9.156 0 00.084-1.349c-.041.06-.211.068-.391.054z" fill="#fff" opacity=".3"/><path data-name="Path 1297" d="M116.554 69.919c1.236-.077 2.289 1.2 2.862 2.081a4.814 4.814 0 01.429-.446l-2.389-2.467s-.399.35-.902.832z" opacity=".1"/><path data-name="Path 1298" d="M116.543 69.589c1.931-.265 3.45 2.883 3.45 2.883a15.574 15.574 0 002.459-2.124 1.313 1.313 0 00.215-.367c-.45-1.082-1.693-2.885-4.971-2.2l.02.367s-.227.227-.847.795-.326.646-.326.646z" opacity=".1"/><path data-name="Path 1299" d="M116.543 69.817c1.931-.265 3.45 2.883 3.45 2.883a15.636 15.636 0 002.459-2.125 1.317 1.317 0 00.215-.365c-.45-1.082-1.693-2.886-4.971-2.2l.02.367s-.227.227-.847.8-.326.64-.326.64z" fill="#ff718d"/><path data-name="Path 1300" d="M116.543 69.817c1.931-.265 3.45 2.883 3.45 2.883a15.636 15.636 0 002.459-2.125 1.317 1.317 0 00.215-.365c-.45-1.082-1.693-2.886-4.971-2.2l.02.367s-.227.227-.847.8-.326.64-.326.64z" fill="#636780"/><path data-name="Path 1301" d="M97.436 51.466l.511 1.65 1.609-.114 1.439-1.536s.094-.276.242-.686a7.527 7.527 0 01-2.44.929c-.671.034-.919-.594-1-.929-.22.429-.361.686-.361.686z" opacity=".1"/><path data-name="Path 1302" d="M96.936 52.046l.107-.123c.379-.439.719-.778.719-.778a1.768 1.768 0 00.327.815.828.828 0 00.715.322 4.531 4.531 0 001.415-.418c.567-.253 1.05-.526 1.05-.526v.456l.01.454v1.043s.4 2.767-3.28 1.287c0 0 .228-1.016-1.169-.823z" opacity=".1"/><path data-name="Path 1303" d="M101.265 50.993l.019.91v1.043s.4 2.767-3.28 1.287c0 0 .267-1.18-1.513-.756s1.273-2.675 1.273-2.675.129 1.18 1.043 1.135a7.62 7.62 0 002.458-.944z" fill="#ff718d"/><path data-name="Path 1304" d="M101.265 50.993l.019.91v1.043s.4 2.767-3.28 1.287c0 0 .267-1.18-1.513-.756s1.273-2.675 1.273-2.675.129 1.18 1.043 1.135a7.62 7.62 0 002.458-.944z" fill="#636780"/><path data-name="Path 1305" d="M108.279 79.96c-.038-.057-.189-4.587-.778-4.7a5.794 5.794 0 00-2.046.492l.265 3.62z" opacity=".1"/><path data-name="Path 1306" d="M107.482 75.247c-.189.429.815 3.689.815 3.689a2.014 2.014 0 00.253-.032c-.092-1.348-.29-3.679-.709-3.754a2.021 2.021 0 00-.772.074z" opacity=".1"/><path data-name="Path 1307" d="M108.505 79.847c-.038-.057-.189-4.587-.778-4.7a5.722 5.722 0 00-2.046.493l.265 3.621z" fill="#ff718d"/><path data-name="Path 1308" d="M108.505 79.847c-.038-.057-.189-4.587-.778-4.7a5.722 5.722 0 00-2.046.493l.265 3.621z" fill="#636780"/><path data-name="Path 1309" d="M103.25 52.932a9.946 9.946 0 00.993-2.326 11.048 11.048 0 00.34-1.18 4.692 4.692 0 003.218 2 9.52 9.52 0 01.379.9 2.534 2.534 0 01-.388 2.351 1.9 1.9 0 01-2.24.536 4.536 4.536 0 00-.668-.356 3.428 3.428 0 00-1.549.189 2.424 2.424 0 01-2.022-.587 3.377 3.377 0 001.937-1.527z" fill="#3f3d56"/><circle data-name="Ellipse 219" cx="4.701" cy="4.701" r="4.701" transform="translate(103.805 42.372)" opacity=".1"/><circle data-name="Ellipse 220" cx="4.701" cy="4.701" r="4.701" transform="translate(103.805 42.065)" fill="#ecb4b6"/><path data-name="Path 1310" d="M103.078 44.886a1.454 1.454 0 01-.587-.77 2.781 2.781 0 011.656-3.48c.356-.119.734-.161 1.093-.27a10.33 10.33 0 002.581-1.63 7.454 7.454 0 012.908-1.169 2.952 2.952 0 012.252.342 3.5 3.5 0 011.082 2.344 4.306 4.306 0 00.919 2.437 6.224 6.224 0 001.856.989 2.023 2.023 0 011.325 1.513 6.584 6.584 0 01-.422 1.591 3.456 3.456 0 00.278 1.823 21.826 21.826 0 002.341 4.65 12.693 12.693 0 01-3.723 1.373 3.224 3.224 0 01-1.627.007 2.68 2.68 0 01-1.468-1.394 4.634 4.634 0 01-.5-1.756c-.092-1.221.29-2.529-.251-3.626a1.251 1.251 0 00-.475-.547 3.716 3.716 0 00-.79-.24 3.2 3.2 0 01-1.167-.8l-1.249-1.169a3.537 3.537 0 00-.974-.716 2.418 2.418 0 00-2.081.233c-.555.31-1.194.775-1.754.476" fill="#3f3d56"/><g data-name="Group 334" opacity=".1"><path data-name="Path 1311" d="M104.648 45.191l-.332-.094a.786.786 0 00.332.094z"/><path data-name="Path 1312" d="M104.649 45.192s.24.027.164 0a1.045 1.045 0 01-.164 0z"/><path data-name="Path 1313" d="M116.789 54.012a3.273 3.273 0 01-1.623.01 2.68 2.68 0 01-1.468-1.394 4.634 4.634 0 01-.5-1.756c-.092-1.221.29-2.527-.25-3.626a1.27 1.27 0 00-.463-.547 3.574 3.574 0 00-.79-.238 3.249 3.249 0 01-1.167-.8l-1.248-1.167a3.537 3.537 0 00-.974-.716 2.418 2.418 0 00-2.081.233 3.759 3.759 0 01-1.256.567c.075.027-.164 0-.164 0a.84.84 0 00.164 0c-.536-.2-1.222 0-1.734-.3a1.453 1.453 0 01-.59-.773 2.484 2.484 0 01-.127-1.226 2.624 2.624 0 00-.025 1.831 1.455 1.455 0 00.59.772c.511.295 1.2.094 1.734.3a3.7 3.7 0 001.256-.567 2.418 2.418 0 012.081-.233 3.537 3.537 0 01.974.716l1.252 1.165a3.2 3.2 0 001.167.8 3.715 3.715 0 01.79.24 1.258 1.258 0 01.461.547c.536 1.1.159 2.406.252 3.626a4.634 4.634 0 00.5 1.756 2.68 2.68 0 001.468 1.394 3.216 3.216 0 001.621-.01 12.694 12.694 0 003.725-1.373 10.081 10.081 0 01-.255-.4 12.724 12.724 0 01-3.32 1.169z"/><path data-name="Path 1314" d="M118.157 45.369a5.479 5.479 0 00-.265.8 1.691 1.691 0 00-.025.178 3.746 3.746 0 00.29-.978z"/></g><path data-name="Path 1315" d="M107.818 54.319a1.906 1.906 0 01-2.24.536 4.748 4.748 0 00-.668-.356 3.428 3.428 0 00-1.549.189 2.432 2.432 0 01-1.742-.379 2.847 2.847 0 01-.28.092 2.427 2.427 0 002.022.585 3.231 3.231 0 011.549-.189 4.931 4.931 0 01.668.357 1.9 1.9 0 002.24-.536 2.41 2.41 0 00.513-1.678 2.341 2.341 0 01-.513 1.379z" opacity=".1"/><path data-name="Path 1316" d="M16.294 106.258s2.241 8.194 7.554 5.344a1.455 1.455 0 001.212-1.212s-.425.13-.556-.731a4.288 4.288 0 00-.252-.891 1.947 1.947 0 00-.808-.919 6.759 6.759 0 00-5.7-1.572s-1.026-.378-1.212-.281l1.036 1.162a2.606 2.606 0 011.76-.713s-1.742.638-1.616.883c.025.053.578.592.578.592a4.21 4.21 0 012.879-1.194s-2.181.485-2.673 1.4l.883.77a4.444 4.444 0 013.1-1.386s-2.259.583-2.894 1.539l.97.638a4.325 4.325 0 012.812-1.335s-2.544.942-2.581 1.465a5.451 5.451 0 001.237.556s1.068-1.026 1.849-.881c0 0-1.632.808-1.578 1a6.347 6.347 0 002.192.186 4.329 4.329 0 01-2.238.032 2.427 2.427 0 00.99.956s-.841.153-1.326-1.047a5.561 5.561 0 01-1.18-.481 5.224 5.224 0 00.887 1.877 2.312 2.312 0 01-1.152-2.039l-.988-.62a7.45 7.45 0 00.808 2.277 2.931 2.931 0 01-1.033-2.451l-.873-.741a8.85 8.85 0 00.551 2.245 3.565 3.565 0 01-.794-2.469l-.523-.564s.144 1.068.2 1.372 0 .356 0 .356a3.647 3.647 0 01-.428-1.952 8.78 8.78 0 00-1.093-1.171z" fill="#0c9add" opacity=".1"/></g></svg>