<svg xmlns="http://www.w3.org/2000/svg" xmlns:xlink="http://www.w3.org/1999/xlink" width="180" height="123.178" viewBox="0 0 180 123.178"><defs><linearGradient id="a" x1=".386" y1=".622" x2=".386" y2="-.378" gradientUnits="objectBoundingBox"><stop offset="0" stop-color="gray" stop-opacity=".251"/><stop offset=".54" stop-color="gray" stop-opacity=".122"/><stop offset="1" stop-color="gray" stop-opacity=".102"/></linearGradient><linearGradient id="b" x1=".5" y1="1" x2=".5" y2="0" xlink:href="#a"/></defs><g transform="translate(-.002 .014)"><path data-name="Path 578" d="M17.568 93.446c-.769 1.651.332 3.433-.05 5.138-.482 2.152-3.247 3.826-6.225 4.895s-6.3 1.718-9.206 2.869c-1.255.5-2.564 1.413-1.911 2.255a2.89 2.89 0 001.063.688 70.5 70.5 0 0029.348 5.952c11.044-.073 21.859-2.51 32.894-2.23 14.232.359 28 5.21 42.072 3.812 5.974-.6 11.521-2.289 17.339-3.347 8.556-1.554 17.554-1.71 26.414-2.221 6.653-.384 14.257-1.379 17.436-5.119 2.3-2.7 1.334-6.275-1.9-8.565s-8.41-3.268-13.188-2.824c-2.569.238-5.122.857-7.691.611a21.1 21.1 0 01-4.229-.99c-10.526-3.263-21.43-6.519-33.114-6.992-19-.776-36.619 5.836-55.135 8.7-2.883.445-6.013.787-8.737.041-2.869-.787-4.751-2.646-7.625-3.43-1.364-.373-2.885-.48-4.226-.886-3.686-1.115-1.972-2.648-7.089-1.614-2.679.543-5.379 1.416-6.24 3.257z" fill="#0c9add" opacity=".1"/><path data-name="Path 579" d="M19.665 37.113a23.876 23.876 0 014.357 24.831c-5.64 14.834 9.682 39.5 9.682 39.5s-.165-.023-.468-.077a29.1 29.1 0 01-19.327-44.546c4.243-6.489 7.729-14.096 5.756-19.708z" fill="#eb1c24"/><path data-name="Path 580" d="M19.665 37.113a23.876 23.876 0 014.357 24.831c-5.64 14.834 9.682 39.5 9.682 39.5s-.165-.023-.468-.077a29.1 29.1 0 01-19.327-44.546c4.243-6.489 7.729-14.096 5.756-19.708z" opacity=".1"/><path data-name="Path 581" d="M19.663 37.113s5.644 12.254 0 22.251-.968 38.052 14.027 42.082" fill="none" stroke="#535461" stroke-miterlimit="10"/><path data-name="Path 582" d="M1.861 77.546s11.408-1.816 12.448 8.407 21.934 11.641 21.934 11.641-.136.093-.393.26c-17.251 11.322-33.744 7.215-31.259-7.824.926-5.593.849-11.208-2.73-12.484z" fill="#eb1c24"/><path data-name="Path 583" d="M1.861 77.546s11.408-1.816 12.448 8.407 21.934 11.641 21.934 11.641-.136.093-.393.26c-17.251 11.322-33.744 7.215-31.259-7.824.926-5.593.849-11.208-2.73-12.484z" fill="#f5f5f5" opacity=".2"/><path data-name="Path 584" d="M1.861 77.546s8.855 1.943 8.127 10 13.149 17.7 26.255 10.053" fill="none" stroke="#3a4a61" stroke-miterlimit="10"/><path data-name="Path 585" d="M121.332 101.221H27.488V42.599h12l4.938 6.1h76.905z" fill="#eb1c24"/><path data-name="Path 586" d="M121.332 101.221H27.488V42.599h12l4.938 6.1h76.905z" opacity=".1"/><path data-name="Rectangle 306" fill="#f1f1f4" d="M44.952 33.538l42.235-15.277 23.782 65.75-42.235 15.277z"/><path data-name="Rectangle 307" fill="#fff" d="M52.929 37.966l11.933-4.316 1.016 2.807-11.933 4.317z"/><path data-name="Rectangle 308" fill="#fff" d="M57.867 44.99l26.255-9.375.921 2.579-26.255 9.375z"/><path data-name="Rectangle 309" fill="#fff" d="M59.835 50.5l26.255-9.375.921 2.579-26.255 9.375z"/><path data-name="Rectangle 310" fill="#fff" d="M61.801 56.01l26.255-9.375.921 2.579-26.255 9.375z"/><path data-name="Rectangle 311" fill="#fff" d="M63.768 61.517l26.255-9.375.921 2.579-26.255 9.375z"/><path data-name="Rectangle 312" fill="#fff" d="M65.735 67.026l26.255-9.375.921 2.579-26.255 9.375z"/><path data-name="Rectangle 313" fill="#fff" d="M67.703 72.535l26.255-9.375.921 2.579-26.255 9.375z"/><path data-name="Rectangle 314" fill="#fff" d="M92.274 74.73l6.798-2.427 2.427 6.797-6.798 2.428z"/><path data-name="Rectangle 315" transform="rotate(-59.28 60.616 19.738)" fill="url(#a)" d="M0 0h46.369v72.187H0z"/><path data-name="Rectangle 316" fill="#f1f1f4" d="M14.013 61.72l22.953-38.626 60.131 35.732-22.952 38.626z"/><path data-name="Rectangle 317" fill="#fff" d="M22.949 60.082l6.485-10.914 2.568 1.526-6.485 10.914z"/><path data-name="Rectangle 318" fill="#fff" d="M31.068 62.01L45.31 38.043l2.354 1.399-14.242 23.967z"/><path data-name="Rectangle 319" fill="#fff" d="M36.097 64.999l14.242-23.967 2.354 1.399L38.45 66.398z"/><path data-name="Rectangle 320" fill="#fff" d="M41.106 67.907l14.22-23.98 2.355 1.397-14.22 23.98z"/><path data-name="Rectangle 321" fill="#fff" d="M46.154 70.974l14.242-23.967 2.354 1.399-14.242 23.967z"/><path data-name="Rectangle 322" fill="#fff" d="M51.183 73.963l14.242-23.967 2.354 1.399-14.242 23.967z"/><path data-name="Rectangle 323" fill="#fff" d="M56.213 76.952l14.242-23.967 2.354 1.399L58.567 78.35z"/><path data-name="Rectangle 324" fill="#fff" d="M76.482 62.873l3.682-6.208 6.208 3.681-3.682 6.209z"/><path data-name="Path 587" d="M802.841 131.775a1.157 1.157 0 00-.027-.253q-.027-.12-.047-.278-.05-.273-.115-.527-.032-.127-.066-.249a6.71 6.71 0 00-1.346-2.562l-.108-.122q-.108-.118-.213-.224t-.208-.2a4.784 4.784 0 00-.2-.17 4.025 4.025 0 00-.359-.264c-.111-.072-.151-.1-.213-.136a1.207 1.207 0 00-.5-.163l-1.106-.108-1.5-.147-5.4-2.085-.213.075a12.383 12.383 0 01-.4-1.321 1.2 1.2 0 00.427-.31.971.971 0 00.294-.375c.136-.312-.124-.979-.072-1.359a6.466 6.466 0 01.665-1.757 8.123 8.123 0 00.9-3.787 4.264 4.264 0 00-1.775-3.363c-.574-.378-1.255-.581-1.845-.925-.464-.269-.873-.619-1.316-.922a7.6 7.6 0 00-7.446-.529c-1.122.55-2.08 1.372-3.139 2.03a5.341 5.341 0 01-3.546.972.789.789 0 00-.038.152l-.1-.013c-.213.579.31 1.149.792 1.545a5.409 5.409 0 003.146 1.524 3.517 3.517 0 011.368.1 1.225 1.225 0 01.255.158 5.881 5.881 0 001.866 5.888l-2.758-.986s-.115.059-.294.17l-3.831-2.533s-7.679-2.781-9.812 1.529 9.244 2.085 9.244 2.085l2.435 1.33a2.2 2.2 0 00.267 1.45l6.634 4.077a36.263 36.263 0 01-3.944 1.076c-.568 0-2.134.556-3.129 2.781s-4.55 13.072-7.679 14.881-11.378 13.906-11.378 13.906l.038.1q-.221.057-.432.127a8.733 8.733 0 00-4.288 3.213 1.363 1.363 0 00.961 2.151 5.992 5.992 0 005.89-2.209q.083-.11.156-.215a1.151 1.151 0 00.8.036l3.982-3.2s-3.116 3.048-1.289 5.825l-.138.192a44.159 44.159 0 00-6.678 14.425s-1.707 1.255-1.849 6.257a95.565 95.565 0 01-1.848 13.072s-1.138 9.6-.427 12.516c0 0 .082.117.233.294-.054.063-.111.131-.179.2a3.435 3.435 0 01-3.048 1.312c-1.992-.418-1.992 3.059.853 3.338a76.8 76.8 0 017.763 1.549 1.632 1.632 0 002.028-1.734 14.68 14.68 0 00-.853-3.828l-.088-.2a6.33 6.33 0 00.251-.244s0-6.119 1-7.788c0 0 2.7-12.654 2.56-15.853-.111-2.51 7.008-12.249 10.108-16.365l-.025-.156c.792-1.051 1.294-1.7 1.294-1.7l2.417 15.157a21.97 21.97 0 002.582 5.142s6.116 11.543 6.826 15.157a11.477 11.477 0 002.151 4.986c-.059.059-.12.118-.179.179a3.133 3.133 0 01-2.689.956c-1.985-.42-1.985 3.057.861 3.335a76.8 76.8 0 017.763 1.549 1.631 1.631 0 002.028-1.734 12.375 12.375 0 00-1.092-4.3q-.077-.134-.161-.253a1.5 1.5 0 00.565-.4s-3.7-8.769-3.7-11.134c0 0-1.565-9.04-6.826-12.371 0 0 .5-11.3 2-17.6q.055-.233.113-.457a42.657 42.657 0 004.149-.859l.142-4.172.717 3.338 7.957-4.871s-.07-.877-.2-2.221c-.068-.672-.151-1.461-.251-2.316-.079-.685-.17-1.411-.269-2.151l-.077-.559c-.1-.749-.219-1.508-.342-2.25q-.07-.418-.143-.826a97.949 97.949 0 00-.2-1.065q-.052-.26-.108-.513t-.111-.495q-.056-.242-.113-.475l-.057-.229q-.059-.226-.118-.441a7.92 7.92 0 01-.289-1.823q-.015-.359 0-.735a6.042 6.042 0 01.072-.732q.025-.179.061-.359a8.235 8.235 0 01.4-1.42q.133-.346.3-.683c.258-.525.538-1.1.818-1.7q.213-.45.43-.92t.437-.954a41.725 41.725 0 003.116-8.726c.038-.237.066-.459.081-.669a4.448 4.448 0 00-.006-.562z" transform="translate(-631.049 -109)" fill="url(#b)"/><path data-name="Path 588" d="M148.037 13.644l-4.69-3.173s-7.449-2.759-9.518 1.517 8.964 2.069 8.964 2.069l4.69 2.621z" fill="#f7bbc3"/><path data-name="Rectangle 325" fill="#f1f1f4" d="M96.868 38.69L120.951.768l59.035 37.492-24.083 37.922z"/><path data-name="Rectangle 326" fill="#fff" d="M105.848 37.319l6.805-10.715 2.52 1.601-6.804 10.715z"/><path data-name="Rectangle 327" fill="#fff" d="M113.908 39.489l14.943-23.53 2.311 1.468-14.943 23.53z"/><path data-name="Rectangle 328" fill="#fff" d="M118.846 42.626l14.943-23.53 2.311 1.468-14.943 23.53z"/><path data-name="Rectangle 329" fill="#fff" d="M123.783 45.763l14.943-23.53 2.311 1.468-14.943 23.53z"/><path data-name="Rectangle 330" fill="#fff" d="M129.019 49.681l15.061-23.413 2.3 1.479-15.062 23.413z"/><path data-name="Rectangle 331" fill="#fff" d="M133.658 52.037l14.943-23.53 2.311 1.468-14.943 23.53z"/><path data-name="Rectangle 332" fill="#fff" d="M138.906 56.018l15.061-23.413 2.3 1.479-15.062 23.413z"/><path data-name="Rectangle 333" fill="#fff" d="M159.329 41.802l3.869-6.092 6.092 3.869-3.869 6.092z"/><path data-name="Path 589" d="M161.913 110.357a72.783 72.783 0 00-7.53-1.537c-2.759-.276-2.759-3.724-.828-3.31a2.983 2.983 0 002.6-.948 6.1 6.1 0 00.54-.586 1.594 1.594 0 01.9-.538c1.034-.226 3.188-.566 4.513.147a1.949 1.949 0 01.717.782 12.738 12.738 0 011.06 4.276 1.6 1.6 0 01-1.969 1.714z" fill="#b77983"/><path data-name="Path 590" d="M127.014 111.737a72.746 72.746 0 00-7.53-1.536c-2.759-.276-2.759-3.724-.828-3.31a3.307 3.307 0 002.951-1.3c.073-.081.14-.158.2-.229a1.6 1.6 0 01.9-.538c1.035-.226 3.188-.567 4.513.147a2.471 2.471 0 01.945 1.255 14.883 14.883 0 01.828 3.8 1.6 1.6 0 01-1.972 1.718z" fill="#b77983"/><path data-name="Path 591" d="M128.153 106.221c-3.293 3.394-6.117-.063-6.546-.633.073-.081.14-.158.2-.229a1.593 1.593 0 01.9-.538c1.034-.226 3.188-.566 4.513.147a2.42 2.42 0 01.933 1.253z" opacity=".1"/><path data-name="Path 592" d="M162.82 104.361c-1.434.975-6.23.735-6.23.735a4.74 4.74 0 01-.434-.538 6.107 6.107 0 00.54-.583 1.594 1.594 0 01.9-.538c1.034-.226 3.188-.566 4.513.147a1.949 1.949 0 01.711.777z" opacity=".1"/><path data-name="Path 593" d="M163.072 103.718c-.966 1.241-6.483.966-6.483.966a10.569 10.569 0 01-2.345-5.242c-.69-3.588-6.621-15.035-6.621-15.035a21.662 21.662 0 01-2.483-5.1l-2.345-15.035s-11.311 14.9-11.173 18.07-2.483 15.722-2.483 15.722c-.966 1.655-.966 7.724-.966 7.724-3.586 3.724-6.621-.69-6.621-.69-.69-2.9.414-12.414.414-12.414a96.8 96.8 0 001.793-12.966c.138-4.966 1.793-6.207 1.793-6.207a44.246 44.246 0 016.478-14.309c.834-1.194 1.384-1.83 1.384-1.83l22.346 2.621a14.091 14.091 0 00-.961 2.96c-1.452 6.241-1.934 17.455-1.934 17.455 5.1 3.313 6.621 12.278 6.621 12.278-.001 2.34 3.586 11.032 3.586 11.032z" fill="#8499f0"/><g data-name="Group 250" opacity=".05"><path data-name="Path 594" d="M141.563 66.103l-.287-1.838s-11.311 14.9-11.173 18.07-2.481 15.723-2.481 15.723c-.966 1.655-.966 7.724-.966 7.724a4.759 4.759 0 01-2.151 1.384 3.787 3.787 0 003.815-1.384s0-6.069.966-7.724c0 0 2.621-12.55 2.483-15.725-.115-2.478 6.785-12.146 9.794-16.23z"/><path data-name="Path 595" d="M159.623 92.681s-1.517-8.964-6.621-12.276c0 0 .482-11.213 1.935-17.455a14.111 14.111 0 01.961-2.96l-22.345-2.629s-.052.061-.147.179l20.839 2.444a14.084 14.084 0 00-.961 2.96c-1.452 6.241-1.934 17.455-1.934 17.455 5.1 3.317 6.619 12.281 6.619 12.281 0 2.345 3.586 11.035 3.586 11.035-.568.732-2.72.936-4.391.981 1.325.034 5.246.047 6.045-.981-.003.003-3.586-8.689-3.586-11.034z"/></g><path data-name="Path 596" d="M129.273 55.439a5 5 0 01-.654 1.142 5.77 5.77 0 01-5.714 2.191 1.357 1.357 0 01-.932-2.132 8.456 8.456 0 014.159-3.188 7.488 7.488 0 011.761-.359z" fill="#f7bbc3"/><path data-name="Path 597" d="M158.407 16.863l-11.062-4.047s-3.173 1.655-1.931 4l10.757 6.759z" fill="#d39999"/><path data-name="Path 598" d="M158.407 16.863l-11.062-4.047s-3.173 1.655-1.931 4l10.757 6.759z" opacity=".1"/><path data-name="Path 599" d="M158.796 10.195s-.138 6.483 2.759 8.69-8.414 3.448-8.414 3.448 1.793-6.621 0-10.069 5.655-2.069 5.655-2.069z" fill="#f7bbc3"/><path data-name="Path 600" d="M155.761 59.989a14.084 14.084 0 00-.961 2.96 36.485 36.485 0 01-22.626-3.512c-.05-.081-.1-.16-.143-.238.834-1.194 1.384-1.831 1.384-1.831z" opacity=".1"/><path data-name="Path 601" d="M129.277 55.439a5 5 0 01-.654 1.142c-1.277-.211-2.3-2.653-2.487-3.13a7.5 7.5 0 011.761-.359z" opacity=".1"/><path data-name="Path 602" d="M159.9 15.987l-4.966 1.793-2.069 2.759s-4.276 1.379-4.828 1.379-2.069.552-3.035 2.759-4.412 12.963-7.448 14.755-11.035 13.805-11.035 13.805 1.379 3.724 3.035 3.173l3.862-3.173s-3.035 3.035-1.241 5.793c0 0 11.311 6.759 26.893 2.621l.138-4.138.69 3.31 7.736-4.834s-.692-8.9-1.938-13.436a8.186 8.186 0 01.538-5.709c2-4.174 5.094-11.145 4.717-13.687a6.354 6.354 0 00-2.783-4.69 1.153 1.153 0 00-.486-.161l-2.524-.253z" fill="#d39999"/><path data-name="Path 603" d="M151.415 29.851s-2.759 12.828-5.793 14.9-11.173 8.69-11.449 9.794" opacity=".05"/><path data-name="Path 604" d="M150.173 29.437s-2.759 12.828-5.793 14.9-11.173 8.69-11.449 9.8" fill="#d39999"/><path data-name="Path 605" d="M152.796 20.471s9.518-3.173 12.276-2.345" opacity=".1"/><g data-name="Group 251" opacity=".05"><path data-name="Path 606" d="M166.217 36.847c2-4.174 5.094-11.145 4.717-13.687a6.354 6.354 0 00-2.783-4.69 1.152 1.152 0 00-.486-.161l-1.076-.108a1.136 1.136 0 01.319.131 6.392 6.392 0 012.783 4.69c.377 2.54-2.714 9.513-4.717 13.687a8.186 8.186 0 00-.538 5.709c1.255 4.532 1.938 13.436 1.938 13.436l-6.651 4.158.168.809 7.74-4.83s-.692-8.9-1.938-13.436a8.186 8.186 0 01.524-5.708z"/><path data-name="Path 607" d="M163.899 17.92l1.2.118-5.2-2.051-.466.169z"/></g><path data-name="Path 608" d="M150.175 42.818s4.276-2.345 5.655-1.793 6.483-.138 6.483-.138" opacity=".05"/><path data-name="Path 609" d="M158.309 11.919c-.158-1.382.482-1.173.482-1.173s-7.449-1.379-5.655 2.069a7.973 7.973 0 01.757 3.034h.07c2.084.002 3.29-2.313 4.346-3.93z" opacity=".05"/><circle data-name="Ellipse 80" cx="5.931" cy="5.931" r="5.931" transform="translate(148.038 3.435)" fill="#f7bbc3"/><path data-name="Path 610" d="M160.44 11.121a8.181 8.181 0 00.866-3.765 4.256 4.256 0 00-1.721-3.337c-.556-.375-1.212-.576-1.793-.916-.45-.267-.848-.613-1.276-.914a7.231 7.231 0 00-7.222-.525 34.932 34.932 0 00-3.048 2.013 5.1 5.1 0 01-3.441.963c-.206.574.3 1.14.769 1.533a5.2 5.2 0 003.048 1.511 3.309 3.309 0 011.327.1 1.9 1.9 0 01.678.629 12.328 12.328 0 011.407 2.386 2.008 2.008 0 00.631.927c.538.341 1.224.057 1.856.032A3.849 3.849 0 01155.113 13a7.952 7.952 0 002.331 1.766c.685.26 2.055.251 2.4-.568.131-.308-.12-.97-.068-1.348a7.151 7.151 0 01.664-1.729z" opacity=".1"/><path data-name="Path 611" d="M160.578 10.983a8.179 8.179 0 00.866-3.765 4.256 4.256 0 00-1.721-3.337c-.556-.375-1.212-.576-1.793-.916-.45-.267-.848-.613-1.276-.914a7.231 7.231 0 00-7.222-.525 34.912 34.912 0 00-3.048 2.013 5.1 5.1 0 01-3.441.963c-.206.574.3 1.14.769 1.533a5.2 5.2 0 003.048 1.511 3.309 3.309 0 011.327.1 1.9 1.9 0 01.678.629 12.329 12.329 0 011.407 2.386 2.008 2.008 0 00.631.927c.538.341 1.225.057 1.856.032a3.85 3.85 0 012.593 1.242 7.949 7.949 0 002.331 1.766c.685.26 2.055.251 2.4-.568.131-.308-.12-.97-.068-1.348a7.187 7.187 0 01.663-1.729z" fill="#9b6c7a"/><path data-name="Path 612" d="M121.332 103.709H27.488V45.087h12l4.938 6.1h76.905z" fill="#eb1c24"/><path data-name="Path 613" d="M32.808 109.557s-4.047-.809-5.126-1.888-5.934-2.967-6.474-1.614-7.283 5.934-2.689 6.745 10.79 1.076 12.14.538 2.149-3.781 2.149-3.781z" fill="#a2a6af"/><path data-name="Path 614" d="M18.511 112.293c4.586.809 10.79 1.076 12.14.538 1.027-.411 1.741-2.385 2.022-3.3l.134.029s-.809 3.238-2.151 3.776-7.553.269-12.14-.538c-1.323-.233-1.7-.782-1.56-1.477.109.446.569.798 1.555.972z" opacity=".2"/><path data-name="Path 615" d="M116.423 116.973s-6.173-1.235-7.821-2.881-9.054-4.527-9.877-2.469-11.116 9.054-4.124 10.289 16.462 1.646 18.52.823 3.302-5.762 3.302-5.762z" fill="#a2a6af"/><path data-name="Path 616" d="M94.612 121.147c6.992 1.235 16.462 1.646 18.52.823 1.567-.628 2.657-3.64 3.087-5.04l.206.043s-1.235 4.932-3.3 5.761-11.525.412-18.52-.823c-2.021-.359-2.6-1.194-2.379-2.252.178.69.881 1.221 2.386 1.488z" opacity=".2"/><path data-name="Rectangle 334" opacity=".1" d="M63.107 72.604h20.797v3.586H63.107z"/></g></svg>