<svg xmlns="http://www.w3.org/2000/svg" width="200" height="113.749" viewBox="0 0 200 113.749"><defs><linearGradient id="a" x1="-5.376" y1=".5" x2="-4.376" y2=".5" gradientUnits="objectBoundingBox"><stop offset="0" stop-color="#fff" stop-opacity="0"/><stop offset="1" stop-color="#fff"/></linearGradient></defs><g data-name="услуги специалистов_поезд" transform="translate(-.554 .246)"><circle cx="32.354" cy="32.354" r="32.354" transform="rotate(-80.5 69.035 -5.383)" fill="#eb1c24" opacity=".1"/><path data-name="Rectangle 558" fill="#7a799c" d="M1.798 92.385h198.756v2.256H1.798z"/><path data-name="Path 1466" d="M6.879 92.951H5.136l-1.311 5.288H5.57z" fill="#7a799c"/><path data-name="Path 1467" d="M12.114 92.951h-1.746L9.06 98.239h1.744z" fill="#7a799c"/><path data-name="Path 1468" d="M17.348 92.951h-1.744l-1.31 5.288h1.745z" fill="#7a799c"/><path data-name="Path 1469" d="M22.583 92.951h-1.746l-1.308 5.288h1.745z" fill="#7a799c"/><path data-name="Path 1470" d="M27.817 92.951h-1.745l-1.308 5.288h1.744z" fill="#7a799c"/><path data-name="Path 1471" d="M33.052 92.951h-1.746l-1.308 5.288h1.745z" fill="#7a799c"/><path data-name="Path 1472" d="M38.286 92.951h-1.745l-1.308 5.288h1.744z" fill="#7a799c"/><path data-name="Path 1473" d="M43.52 92.951h-1.746l-1.308 5.288h1.745z" fill="#7a799c"/><path data-name="Path 1474" d="M48.755 92.951h-1.746l-1.308 5.288h1.744z" fill="#7a799c"/><path data-name="Path 1475" d="M53.989 92.951h-1.744l-1.31 5.288h1.742z" fill="#7a799c"/><path data-name="Path 1476" d="M59.224 92.951h-1.746l-1.308 5.288h1.745z" fill="#7a799c"/><path data-name="Path 1477" d="M64.453 92.951h-1.74l-1.308 5.288h1.748z" fill="#7a799c"/><path data-name="Path 1478" d="M69.691 92.951h-1.744l-1.308 5.288h1.745z" fill="#7a799c"/><path data-name="Path 1479" d="M74.929 92.951h-1.747l-1.308 5.288h1.744z" fill="#7a799c"/><path data-name="Path 1480" d="M80.162 92.951h-1.746l-1.308 5.288h1.745z" fill="#7a799c"/><path data-name="Path 1481" d="M85.397 92.951h-1.746l-1.308 5.288h1.744z" fill="#7a799c"/><path data-name="Path 1482" d="M90.63 92.951h-1.744l-1.31 5.288h1.745z" fill="#7a799c"/><path data-name="Path 1483" d="M95.865 92.951h-1.746l-1.308 5.288h1.744z" fill="#7a799c"/><path data-name="Path 1484" d="M101.099 92.951h-1.745l-1.308 5.288h1.744z" fill="#7a799c"/><path data-name="Path 1485" d="M106.334 92.951h-1.746l-1.308 5.288h1.745z" fill="#7a799c"/><path data-name="Path 1486" d="M111.568 92.951h-1.745l-1.308 5.288h1.744z" fill="#7a799c"/><path data-name="Path 1487" d="M116.803 92.951h-1.745l-1.308 5.288h1.745z" fill="#7a799c"/><path data-name="Path 1488" d="M122.037 92.951h-1.744l-1.308 5.288h1.744z" fill="#7a799c"/><path data-name="Path 1489" d="M127.272 92.951h-1.744l-1.31 5.288h1.745z" fill="#7a799c"/><path data-name="Path 1490" d="M132.507 92.951h-1.745l-1.308 5.288h1.744z" fill="#7a799c"/><path data-name="Path 1491" d="M137.741 92.951h-1.744l-1.313 5.288h1.744z" fill="#7a799c"/><path data-name="Path 1492" d="M142.975 92.951h-1.745l-1.309 5.288h1.745z" fill="#7a799c"/><path data-name="Path 1493" d="M148.209 92.951h-1.744l-1.306 5.288h1.744z" fill="#7a799c"/><path data-name="Path 1494" d="M153.444 92.951h-1.747l-1.308 5.288h1.745z" fill="#7a799c"/><path data-name="Path 1495" d="M158.678 92.951h-1.743l-1.308 5.288h1.744z" fill="#7a799c"/><path data-name="Path 1496" d="M163.913 92.951h-1.74l-1.31 5.288h1.745z" fill="#7a799c"/><path data-name="Path 1497" d="M169.148 92.951h-1.745l-1.308 5.288h1.744z" fill="#7a799c"/><path data-name="Path 1498" d="M174.382 92.951h-1.744l-1.31 5.288h1.745z" fill="#7a799c"/><path data-name="Path 1499" d="M179.617 92.951h-1.745l-1.308 5.288h1.745z" fill="#7a799c"/><path data-name="Path 1500" d="M184.851 92.951h-1.744l-1.308 5.288h1.744z" fill="#7a799c"/><path data-name="Path 1501" d="M190.085 92.951h-1.745l-1.308 5.288h1.745z" fill="#7a799c"/><path data-name="Path 1502" d="M195.319 92.951h-1.744l-1.308 5.288h1.744z" fill="#7a799c"/><path data-name="Path 1503" d="M200.554 92.951h-1.746l-1.308 5.288h1.745z" fill="#7a799c"/><g opacity=".1" fill="#0c9add"><g data-name="Group 347"><path d="M155.091 56.989a17.962 17.962 0 008.41-1.9c-6.239 0-8.41-17.358-8.41-17.363 0 .006-2.171 17.363-8.41 17.363a17.962 17.962 0 008.41 1.9z"/><path d="M155.091 67.57a20.985 20.985 0 0012.019-3.755c-8.166 0-12.019-13.518-12.019-13.518s-3.853 13.518-12.019 13.518a20.985 20.985 0 0012.019 3.755z"/><path d="M155.091 76.614a25.16 25.16 0 0014.41-4.5c-9.791 0-14.41-16.207-14.41-16.207s-4.619 16.207-14.41 16.207a25.169 25.169 0 0014.41 4.5z"/><path d="M155.091 92.113a34.465 34.465 0 0019.743-6.169c-13.414 0-19.743-22.206-19.743-22.206s-6.329 22.206-19.74 22.206a34.46 34.46 0 0019.743 6.169z"/></g><g data-name="Group 348"><path d="M20.371 68.647a12.007 12.007 0 005.619-1.268c-4.168 0-5.618-11.6-5.619-11.6s-1.451 11.6-5.619 11.6a12.024 12.024 0 005.619 1.268z"/><path d="M20.371 75.72a14.017 14.017 0 008.029-2.509c-5.456 0-8.029-9.031-8.029-9.031s-2.573 9.031-8.029 9.031a14.018 14.018 0 008.029 2.509z"/><path d="M20.371 81.758a16.809 16.809 0 009.627-3.008c-6.541 0-9.627-10.828-9.627-10.828S17.285 78.75 10.747 78.75a16.809 16.809 0 009.627 3.008z"/><path d="M20.371 92.113a23.028 23.028 0 0013.19-4.122c-8.962 0-13.19-14.835-13.19-14.835s-4.228 14.835-13.19 14.835a23.028 23.028 0 0013.19 4.122z"/></g><g data-name="Group 349"><path d="M55.348 75.78a8.354 8.354 0 003.911-.883c-2.9 0-3.911-8.071-3.911-8.074s-1.01 8.074-3.911 8.074a8.359 8.359 0 003.911.883z"/><path d="M55.348 80.701a9.755 9.755 0 005.588-1.746c-3.8 0-5.588-6.286-5.588-6.286s-1.792 6.286-5.592 6.286a9.755 9.755 0 005.588 1.746z"/><path d="M55.349 84.907a11.7 11.7 0 006.7-2.093c-4.553 0-6.7-7.536-6.7-7.536s-2.148 7.536-6.7 7.536a11.711 11.711 0 006.7 2.093z"/><path d="M55.348 92.113a16.032 16.032 0 009.18-2.868c-6.238 0-9.18-10.326-9.18-10.326s-2.942 10.326-9.18 10.326a16.041 16.041 0 009.18 2.868z"/></g><g data-name="Group 350"><path d="M59.871 48.778a20.737 20.737 0 009.71-2.192c-7.2 0-9.71-20.04-9.71-20.047 0 .007-2.507 20.047-9.71 20.047a20.737 20.737 0 009.71 2.192z"/><path d="M59.869 60.994a24.227 24.227 0 0013.876-4.336c-9.428 0-13.876-15.607-13.876-15.607s-4.447 15.608-13.875 15.608a24.227 24.227 0 0013.875 4.335z"/><path d="M59.871 71.436a29.044 29.044 0 0016.637-5.2c-11.3 0-16.637-18.712-16.637-18.712s-5.333 18.715-16.637 18.715a29.048 29.048 0 0016.637 5.2z"/><path d="M59.87 89.329a39.8 39.8 0 0022.794-7.122c-15.487 0-22.794-25.639-22.794-25.639s-7.306 25.64-22.794 25.64a39.785 39.785 0 0022.794 7.121z"/></g><g data-name="Group 351"><path d="M178.854 75.78a8.354 8.354 0 003.911-.883c-2.9 0-3.911-8.071-3.911-8.074s-1.01 8.074-3.911 8.074a8.354 8.354 0 003.911.883z"/><path d="M178.854 80.701a9.755 9.755 0 005.588-1.746c-3.8 0-5.588-6.286-5.588-6.286s-1.791 6.286-5.588 6.286a9.751 9.751 0 005.588 1.746z"/><path d="M178.855 84.907a11.7 11.7 0 006.7-2.093c-4.553 0-6.7-7.536-6.7-7.536s-2.148 7.536-6.7 7.536a11.711 11.711 0 006.7 2.093z"/><path d="M178.854 92.113a16.032 16.032 0 009.18-2.868c-6.238 0-9.18-10.326-9.18-10.326s-2.942 10.326-9.18 10.326a16.037 16.037 0 009.18 2.868z"/></g><g data-name="Group 352"><path d="M109.531 38.824a18.176 18.176 0 008.507-1.92c-6.31 0-8.506-17.556-8.507-17.563 0 .006-2.2 17.563-8.507 17.563a18.181 18.181 0 008.507 1.92z"/><path d="M109.531 49.527a21.221 21.221 0 0012.156-3.8c-8.26 0-12.156-13.673-12.156-13.673s-3.9 13.673-12.156 13.673a21.226 21.226 0 0012.156 3.8z"/><path d="M109.532 58.674a25.444 25.444 0 0014.575-4.554c-9.9 0-14.575-16.394-14.575-16.394S104.86 54.12 94.957 54.12a25.444 25.444 0 0014.575 4.554z"/><path d="M109.531 74.349A34.865 34.865 0 00129.5 68.11c-13.568 0-19.969-22.461-19.969-22.461s-6.4 22.461-19.969 22.461a34.865 34.865 0 0019.969 6.239z"/><path d="M109.531 92.113a45.181 45.181 0 0025.879-8.086c-17.584 0-25.879-29.108-25.879-29.108s-8.292 29.108-25.879 29.108a45.19 45.19 0 0025.879 8.086z"/></g></g><path d="M2.341 92.994s1.037 1.22 5.791 1.246a1.943 1.943 0 103.437-1.718h.444a3.9 3.9 0 007.61 0h1.343a3.9 3.9 0 007.61 0h2.062a3.9 3.9 0 007.61 0h1.336a3.9 3.9 0 007.614 0h3.246a3.637 3.637 0 007.022.632h6.776a2.43 2.43 0 004.859 0h1.917a2.432 2.432 0 004.863 0h39.617a2.43 2.43 0 004.859 0h1.917a2.43 2.43 0 004.859 0h1.185v-2.432h3.087v2.43h1.535a2.43 2.43 0 004.859 0h1.917a2.43 2.43 0 004.859 0h39.617a2.43 2.43 0 104.859 0h1.92a2.43 2.43 0 104.859 0h1.185v-2.43h1.8v-1.28h-1.8V78.549a3.112 3.112 0 00-3.112-3.112h-59.387a3.109 3.109 0 00-3.108 3.112v10.893h-3.087V78.549a3.111 3.111 0 00-3.108-3.112H65.82a3.109 3.109 0 00-3.108 3.112v13.16h-5.037a4.2 4.2 0 00-.036-.321 4.429 4.429 0 001.491-3.315v-3.967a1.313 1.313 0 00-1.311-1.311h-7.935a.608.608 0 01-.606-.606v-3.867a2.366 2.366 0 012.368-2.365h5.893a1.556 1.556 0 001.585-1.422 1.5 1.5 0 00-1.5-1.582H41.352a2.428 2.428 0 00-2.43 2.43v2.621h-6.076v-2.465h-2.109v2.462h-1.841v-.7h-1.437v-1.2a1.4 1.4 0 00-1.1-1.4 1.341 1.341 0 00-1.586 1.321V77.3h-1.441v.7h-7.513v-3.068h.865V72.95h-4.09v1.982h.863v3.069h-3.379a4.8 4.8 0 00-.921 9.5H7.521zm151.548-2.272h20.656v.99h-20.656zm-68.7 0h20.656v.99H85.19z" fill="#3f3d56"/><path d="M44.893 82.54h-2.034a1.668 1.668 0 01-1.668-1.668v-2.035a1.668 1.668 0 011.668-1.668h2.034a1.668 1.668 0 011.668 1.668v2.034a1.668 1.668 0 01-1.668 1.669z" fill="#fff"/><path d="M71.785 85.378h-1.427a1.668 1.668 0 01-1.668-1.668v-1.174a1.668 1.668 0 011.668-1.668h1.427a1.668 1.668 0 011.668 1.668v1.17a1.667 1.667 0 01-1.668 1.672zM78.979 85.378h-1.427a1.668 1.668 0 01-1.668-1.668v-1.174a1.668 1.668 0 011.668-1.668h1.427a1.668 1.668 0 011.668 1.668v1.17a1.667 1.667 0 01-1.668 1.672zM85.902 85.378h-1.427a1.668 1.668 0 01-1.668-1.668v-1.174a1.668 1.668 0 011.668-1.668h1.427a1.668 1.668 0 011.668 1.668v1.17a1.667 1.667 0 01-1.668 1.672zM92.825 85.378h-1.427a1.668 1.668 0 01-1.668-1.668v-1.174a1.668 1.668 0 011.668-1.668h1.427a1.668 1.668 0 011.669 1.668v1.17a1.668 1.668 0 01-1.669 1.672zM99.747 85.378H98.32a1.668 1.668 0 01-1.668-1.668v-1.174a1.668 1.668 0 011.668-1.668h1.427a1.668 1.668 0 011.668 1.668v1.17a1.668 1.668 0 01-1.668 1.672zM106.67 85.378h-1.427a1.668 1.668 0 01-1.668-1.668v-1.174a1.668 1.668 0 011.668-1.668h1.427a1.668 1.668 0 011.668 1.668v1.17a1.667 1.667 0 01-1.668 1.672zM113.592 85.378h-1.427a1.668 1.668 0 01-1.667-1.668v-1.174a1.668 1.668 0 011.668-1.668h1.427a1.668 1.668 0 011.668 1.668v1.17a1.667 1.667 0 01-1.669 1.672zM120.516 85.378h-1.427a1.668 1.668 0 01-1.668-1.668v-1.174a1.668 1.668 0 011.668-1.668h1.427a1.668 1.668 0 011.668 1.668v1.17a1.668 1.668 0 01-1.668 1.672z" fill="#fff"/><path d="M140.483 85.378h-1.422a1.668 1.668 0 01-1.668-1.668v-1.174a1.668 1.668 0 011.668-1.665h1.427a1.668 1.668 0 011.663 1.665v1.17a1.667 1.667 0 01-1.668 1.672zM147.677 85.378h-1.427a1.668 1.668 0 01-1.668-1.668v-1.174a1.668 1.668 0 011.668-1.668h1.427a1.668 1.668 0 011.668 1.668v1.17a1.667 1.667 0 01-1.668 1.672zM154.601 85.378h-1.427a1.668 1.668 0 01-1.668-1.668v-1.174a1.668 1.668 0 011.668-1.668h1.427a1.668 1.668 0 011.668 1.668v1.17a1.668 1.668 0 01-1.668 1.672zM161.523 85.378h-1.427a1.668 1.668 0 01-1.668-1.668v-1.174a1.668 1.668 0 011.668-1.668h1.427a1.668 1.668 0 011.668 1.668v1.17a1.668 1.668 0 01-1.668 1.672zM168.445 85.378h-1.427a1.668 1.668 0 01-1.668-1.668v-1.174a1.668 1.668 0 011.668-1.668h1.427a1.668 1.668 0 011.668 1.668v1.17a1.667 1.667 0 01-1.668 1.672zM175.368 85.378h-1.422a1.668 1.668 0 01-1.668-1.668v-1.174a1.668 1.668 0 011.668-1.668h1.427a1.668 1.668 0 011.668 1.668v1.17a1.667 1.667 0 01-1.673 1.672zM182.291 85.378h-1.427a1.668 1.668 0 01-1.668-1.668v-1.174a1.668 1.668 0 011.668-1.668h1.427a1.668 1.668 0 011.666 1.668v1.17a1.668 1.668 0 01-1.666 1.672zM189.214 85.378h-1.427a1.668 1.668 0 01-1.668-1.668v-1.174a1.668 1.668 0 011.668-1.668h1.427a1.668 1.668 0 011.668 1.668v1.17a1.668 1.668 0 01-1.668 1.672z" fill="#fff"/><path d="M12.636 68.5c-.544-5.2-.145-10.677 2.333-15.286s7.349-8.163 12.579-7.988c3.54.118 6.792 1.843 10.131 3.026A34.083 34.083 0 0048.5 50.2a11.779 11.779 0 005.614-1c2.824-1.456 4.32-4.565 6.54-6.837 5.58-5.712 14.951-5.4 22.509-2.821 3.463 1.181 7.03 2.774 10.634 2.137 2.472-.438 4.631-1.882 6.707-3.292 6-4.07 12.905-8.324 19.992-6.81 3.457.739 6.463 2.785 9.605 4.408a30.618 30.618 0 0014.7 3.723 19.924 19.924 0 0013.8-5.719c-.4 2.618-2.332 4.418-4.732 5.535a25.5 25.5 0 01-16.057 1.776c-4.606-1.008-8.83-3.276-13.316-4.728s-9.626-2.012-13.735.3c-2.939 1.653-4.954 4.548-7.616 6.618-6.994 5.44-17.1 4.288-25.39 1.171a37.847 37.847 0 00-8.013-2.536c-2.783-.381-5.859.152-7.837 2.144-2.082 2.1-2.56 5.35-4.454 7.618-1.878 2.25-4.9 3.221-7.808 3.551-7.964.9-13.446-4.087-21.037-4.4a12.053 12.053 0 00-8.1 2.328 16.013 16.013 0 00-3.706 4.95 33.648 33.648 0 00-3.891 10.16" transform="translate(1.36 3.609)" fill="url(#a)"/><g data-name="Group 353" transform="translate(12.073 88.779)"><circle data-name="Ellipse 238" cx="3.766" cy="3.766" r="3.766" fill="#3f3d56"/><circle data-name="Ellipse 239" cx="2.385" cy="2.385" r="2.385" transform="translate(1.381 1.381)" fill="#eb1c24"/></g><circle data-name="Ellipse 240" cx="3.766" cy="3.766" r="3.766" transform="translate(21.083 88.779)" fill="#3f3d56"/><circle data-name="Ellipse 241" cx="2.385" cy="2.385" r="2.385" transform="translate(22.463 90.16)" fill="#eb1c24"/><circle data-name="Ellipse 242" cx="3.766" cy="3.766" r="3.766" transform="translate(30.611 88.779)" fill="#3f3d56"/><circle data-name="Ellipse 243" cx="2.385" cy="2.385" r="2.385" transform="translate(31.992 90.16)" fill="#eb1c24"/><circle data-name="Ellipse 244" cx="3.766" cy="3.766" r="3.766" transform="translate(39.576 88.779)" fill="#3f3d56"/><circle data-name="Ellipse 245" cx="2.385" cy="2.385" r="2.385" transform="translate(40.957 90.16)" fill="#eb1c24"/><circle data-name="Ellipse 246" cx="3.075" cy="3.075" r="3.075" transform="translate(63.612 90.16)" fill="#3f3d56"/><circle data-name="Ellipse 247" cx="1.947" cy="1.947" r="1.947" transform="translate(64.74 91.288)" fill="#eb1c24"/><circle data-name="Ellipse 248" cx="3.075" cy="3.075" r="3.075" transform="translate(70.579 90.16)" fill="#3f3d56"/><circle data-name="Ellipse 249" cx="1.947" cy="1.947" r="1.947" transform="translate(71.707 91.288)" fill="#eb1c24"/><circle data-name="Ellipse 250" cx="3.075" cy="3.075" r="3.075" transform="translate(114.828 90.16)" fill="#3f3d56"/><circle data-name="Ellipse 251" cx="1.947" cy="1.947" r="1.947" transform="translate(115.956 91.288)" fill="#eb1c24"/><circle data-name="Ellipse 252" cx="3.075" cy="3.075" r="3.075" transform="translate(121.794 90.16)" fill="#3f3d56"/><circle data-name="Ellipse 253" cx="1.947" cy="1.947" r="1.947" transform="translate(122.921 91.288)" fill="#eb1c24"/><circle data-name="Ellipse 254" cx="3.075" cy="3.075" r="3.075" transform="translate(132.167 90.16)" fill="#3f3d56"/><circle data-name="Ellipse 255" cx="1.947" cy="1.947" r="1.947" transform="translate(133.294 91.288)" fill="#eb1c24"/><circle data-name="Ellipse 256" cx="3.075" cy="3.075" r="3.075" transform="translate(139.133 90.16)" fill="#3f3d56"/><circle data-name="Ellipse 257" cx="1.947" cy="1.947" r="1.947" transform="translate(140.261 91.288)" fill="#eb1c24"/><circle data-name="Ellipse 258" cx="3.075" cy="3.075" r="3.075" transform="translate(183.367 90.16)" fill="#3f3d56"/><circle data-name="Ellipse 259" cx="1.947" cy="1.947" r="1.947" transform="translate(184.495 91.288)" fill="#eb1c24"/><circle data-name="Ellipse 260" cx="3.075" cy="3.075" r="3.075" transform="translate(190.333 90.16)" fill="#3f3d56"/><circle data-name="Ellipse 261" cx="1.947" cy="1.947" r="1.947" transform="translate(191.461 91.288)" fill="#eb1c24"/><path data-name="Rectangle 559" fill="#3f3d56" d="M.554 96.311h199.237v2.256H.554z"/><ellipse data-name="Ellipse 262" cx="9.481" cy="1.603" rx="9.481" ry="1.603" transform="translate(22.043 110.297)" fill="#039de6"/><path data-name="Path 1504" d="M35.446 109.279a2.745 2.745 0 00.9-1.365 1.218 1.218 0 00-.632-1.389 1.779 1.779 0 00-1.67.587 2.219 2.219 0 01-1.623.785 2.477 2.477 0 00.765-2.314.981.981 0 00-.212-.471c-.323-.344-.906-.2-1.292.074a4.818 4.818 0 00-1.57 4.027 7.638 7.638 0 01-.021-1.651 1.7 1.7 0 00-.624-1.468 1.868 1.868 0 00-.944-.221 1.966 1.966 0 00-1.54.438 1.52 1.52 0 00.059 1.886 6 6 0 001.6 1.278 3.515 3.515 0 011.138 1.088.984.984 0 01.085.2h3.456a9.554 9.554 0 002.125-1.484z" fill="#039de6"/><ellipse data-name="Ellipse 263" cx="7.392" cy="1.249" rx="7.392" ry="1.249" transform="translate(156.613 109.633)" fill="#039de6"/><path data-name="Path 1505" d="M167.062 108.839a2.145 2.145 0 00.7-1.064.949.949 0 00-.493-1.082c-.451-.173-.935.142-1.3.458a1.735 1.735 0 01-1.265.612 1.931 1.931 0 00.6-1.8.767.767 0 00-.165-.368c-.252-.269-.705-.154-1.006.057a3.751 3.751 0 00-1.224 3.139 5.908 5.908 0 01-.017-1.286 1.326 1.326 0 00-.487-1.145 1.459 1.459 0 00-.736-.173 1.527 1.527 0 00-1.2.342 1.185 1.185 0 00.046 1.47 4.663 4.663 0 001.245 1 2.745 2.745 0 01.887.848.711.711 0 01.066.153h2.696a7.441 7.441 0 001.653-1.161z" fill="#039de6"/></g></svg>