<svg xmlns="http://www.w3.org/2000/svg" width="200.001" height="100.618" viewBox="0 0 200.001 100.618"><g data-name="услуги специалистов_автобус" transform="translate(-3.674 -5.578)"><g data-name="Group 336" opacity=".1" fill="#0c9add"><path data-name="Path 1367" d="M76.131 90.137h4.6c2.4-4.186 3.729-15.4.359-27.587a55.267 55.267 0 00-2.088-6.133c-1.278 17.117-6.772 28.64-2.871 33.72z"/><path data-name="Path 1368" d="M84.617 90.137h-4.6c-2.128-3.094-2.757-11.384 1.377-20.394a37.838 37.838 0 012.478-4.53c.2 12.651 4.966 21.17.745 24.924z"/></g><g data-name="Group 337" opacity=".1" fill="#0c9add"><path data-name="Path 1369" d="M17.083 90.191h-3.846c-2-3.189-3.119-11.732-.3-21.017a39.585 39.585 0 011.747-4.672c1.066 13.04 5.662 21.82 2.399 25.689z"/><path data-name="Path 1370" d="M9.983 90.191h3.846c1.785-2.357 2.309-8.672-1.148-15.534a28.135 28.135 0 00-2.069-3.454c-.169 9.639-4.157 16.128-.629 18.988z"/><path data-name="Path 1371" d="M19.852 90.194h-3.181c-1.476-1.95-1.911-7.174.95-12.849a23.171 23.171 0 011.712-2.856c.139 7.969 3.44 13.337.519 15.705z"/></g><g data-name="Group 340" opacity=".1" fill="#0c9add"><path data-name="Path 1372" d="M71.85 90.138s.216-1.56 2.573-2.363a3.1 3.1 0 00-.755 2.363z"/><path data-name="Path 1373" d="M60.618 90.138s-.216-1.56-2.573-2.363a3.1 3.1 0 01.755 2.363z"/><path data-name="Path 1374" d="M30.529 90.137s-.15-3.03-1.782-4.589a14.9 14.9 0 01.524 4.589z"/><path data-name="Path 1375" d="M7.96 90.137s-.76-2.177-4.286-3.301a5.235 5.235 0 011.747 3.3z"/><path data-name="Path 1376" d="M87.338 90.138s.6-3.2-3.7-4.854a5.817 5.817 0 01-.028 4.854z"/><path data-name="Path 1377" d="M84.947 90.137s1.215-2.617 5.606-3.967a7.206 7.206 0 00-2.557 3.965z"/><path data-name="Path 1378" d="M70.497 90.138a4.252 4.252 0 013.026-3.571 5.549 5.549 0 00-1.21 3.571z"/><g data-name="Group 338"><path data-name="Path 1379" d="M45.705 90.137s.362-2.609 4.3-3.952a5.191 5.191 0 00-1.263 3.952z"/><path data-name="Path 1380" d="M45.593 90.137s-.362-2.609-4.3-3.952a5.191 5.191 0 011.263 3.952z"/><path data-name="Path 1381" d="M43.442 90.137a7.112 7.112 0 015.059-5.97c-2.143 2.247-2.021 5.97-2.021 5.97z"/></g><g data-name="Group 339"><path data-name="Path 1382" d="M16.036 90.137s.185-1.133-2.172-1.936c.966 1.13.354 1.936.354 1.936z"/><path data-name="Path 1383" d="M16.103 90.138s.216-1.56 2.573-2.363a3.1 3.1 0 00-.755 2.363z"/><path data-name="Path 1384" d="M17.389 90.138a4.252 4.252 0 00-3.026-3.571 5.549 5.549 0 011.208 3.571z"/></g></g><g data-name="Group 341" opacity=".1" fill="#0c9add"><path data-name="Path 1385" d="M49.372 13.719a4.021 4.021 0 013.145-2.1 1.012 1.012 0 01.836.437A9.317 9.317 0 0159.24 9.7a3.083 3.083 0 012.123.875c2.038-2.293 4.635-3.919 6.519-3.919a1.852 1.852 0 011.973 1.4 10.99 10.99 0 015.973-2.485c2.763 0 3.66 2.4 2.529 5.776.453.636 2.631 1.525 2.542 2.588H49.247a2.76 2.76 0 00.125-.216z"/><path data-name="Path 1386" d="M80.196 26.303a1.2 1.2 0 011.067.711c2.585-2.475 5.5-3.994 7.847-3.825a3.518 3.518 0 012.718 1.428c2.81-3.729 6.314-6.372 8.779-6.372a2.416 2.416 0 012.488 2.283c2.835-2.508 5.706-4.047 7.973-4.047 2.81 0 4.051 2.364 3.664 6a6.7 6.7 0 013.767-1.682c1.5 0 2.2 1.2 2.083 3.071a2.569 2.569 0 01.391.029c2.291.312 3.168 2.735 2.067 5.5H76.115c1.029-1.822 2.797-3.187 4.081-3.096z"/><path data-name="Path 1387" d="M125.778 14.654a.585.585 0 01.52.347 5.588 5.588 0 013.826-1.864 1.71 1.71 0 011.325.7c1.37-1.818 3.078-3.107 4.28-3.107a1.178 1.178 0 011.213 1.113 6.628 6.628 0 013.887-1.973c1.37 0 1.975 1.152 1.787 2.927a3.264 3.264 0 011.837-.82c.732 0 1.075.584 1.015 1.5a1.3 1.3 0 01.191.014c1.117.153 1.544 1.333 1.008 2.683h-22.88a2.645 2.645 0 011.991-1.52z"/></g><g data-name="Group 342" opacity=".1" fill="#0c9add"><path data-name="Path 1388" d="M141.379 28.293a2.178 2.178 0 011.706-1.141.549.549 0 01.453.237 5.049 5.049 0 013.193-1.274 1.68 1.68 0 011.151.474 5.649 5.649 0 013.536-2.121 1 1 0 011.07.762 5.964 5.964 0 013.239-1.348c1.5 0 1.985 1.3 1.372 3.134.245.344 1.426.826 1.379 1.4h-17.165c.021-.042.042-.081.066-.123z"/><path data-name="Path 1389" d="M158.098 35.119a.654.654 0 01.579.386 6.22 6.22 0 014.257-2.075 1.9 1.9 0 011.474.774c1.523-2.023 3.424-3.456 4.761-3.456a1.309 1.309 0 011.349 1.238 7.37 7.37 0 014.324-2.2c1.525 0 2.2 1.282 1.987 3.255a3.635 3.635 0 012.044-.912c.814 0 1.2.65 1.129 1.666a1.452 1.452 0 01.213.016c1.243.17 1.719 1.483 1.121 2.985h-25.452a2.944 2.944 0 012.214-1.677z"/><path data-name="Path 1390" d="M178.027 17.053a.317.317 0 01.282.188 3.029 3.029 0 012.075-1.011.93.93 0 01.719.378 3.725 3.725 0 012.321-1.685.639.639 0 01.658.6 3.594 3.594 0 012.108-1.07c.743 0 1.072.625.969 1.587a1.772 1.772 0 011-.445c.4 0 .583.317.55.813a.631.631 0 01.1.008c.606.082.838.724.547 1.455h-12.41a1.439 1.439 0 011.081-.818z"/></g><g data-name="Group 343" opacity=".1" fill="#0c9add"><path data-name="Path 1391" d="M13.165 27.571a2.178 2.178 0 011.706-1.137.549.549 0 01.453.237 5.049 5.049 0 013.193-1.274 1.68 1.68 0 011.154.474 5.649 5.649 0 013.536-2.125 1 1 0 011.07.762 5.961 5.961 0 013.239-1.348c1.5 0 1.985 1.3 1.372 3.134.245.344 1.426.826 1.379 1.4H13.099c.022-.038.043-.078.066-.123z"/><path data-name="Path 1392" d="M29.884 34.4a.654.654 0 01.579.386 6.22 6.22 0 014.257-2.075 1.9 1.9 0 011.474.774c1.523-2.023 3.424-3.456 4.761-3.456a1.309 1.309 0 011.351 1.239 7.37 7.37 0 014.324-2.2c1.525 0 2.2 1.282 1.987 3.255a3.635 3.635 0 012.044-.912c.814 0 1.2.65 1.129 1.666a1.452 1.452 0 01.213.016c1.243.17 1.719 1.483 1.121 2.985H27.67a2.946 2.946 0 012.214-1.678z"/><path data-name="Path 1393" d="M54.608 28.085a.317.317 0 01.282.188 3.029 3.029 0 012.075-1.011.93.93 0 01.719.378 3.725 3.725 0 012.321-1.685.639.639 0 01.658.6 3.594 3.594 0 012.108-1.07c.743 0 1.072.625.969 1.587a1.772 1.772 0 011-.445c.4 0 .583.317.55.813a.631.631 0 01.1.008c.606.082.838.724.547 1.455H53.524a1.434 1.434 0 011.084-.818z"/></g><ellipse data-name="Ellipse 236" cx="32.787" cy="1.915" rx="32.787" ry="1.915" transform="translate(6.136 90.7)" fill="#0c9add" opacity=".1"/><ellipse data-name="Ellipse 237" cx="61.942" cy="3.019" rx="61.942" ry="3.019" transform="translate(76.646 100.157)" fill="#0c9add" opacity=".1"/><path data-name="Path 1394" d="M17.05 72.129l1.393 9.829.14.984h.892l-.139-.984-1.394-9.829z" fill="#3b4b60"/><path data-name="Path 1395" d="M55.335 72.129l1.393 9.829.14.984h.892l-.139-.984-1.394-9.829z" fill="#3b4b60"/><path data-name="Path 1396" d="M22.776 81.958l.14.984.752 9.674h.892l-.75-9.674-.139-.984z" fill="#3b4b60"/><path data-name="Path 1397" d="M61.059 81.958l.14.984.75 9.674h.891l-.75-9.674-.139-.984z" fill="#3b4b60"/><path data-name="Path 1398" d="M56.548 81.958l-.14.984-.752 9.674h-.892l.75-9.674.139-.984z" fill="#3b4b60"/><path data-name="Path 1399" d="M18.26 81.958l-.14.984-.75 9.674h-.892l.75-9.674.139-.984z" fill="#3b4b60"/><path data-name="Path 1400" d="M15.764 73.496h40.919l-.761-2.737H15.005z" fill="#3b4b60"/><path data-name="Path 1401" d="M16.7 73.496h40.917l-.763-2.737H15.939z" fill="#a2a6af"/><path data-name="Path 1402" d="M16.334 76.91h40.919l-.761-2.736H15.575z" fill="#3b4b60"/><path data-name="Path 1403" d="M17.27 76.91h40.917l-.756-2.736H16.509z" fill="#a2a6af"/><path data-name="Path 1404" d="M16.904 80.328h40.919l-.761-2.736H16.145z" fill="#3b4b60"/><path data-name="Path 1405" d="M17.84 80.328h40.917l-.759-2.736H17.079z" fill="#a2a6af"/><path data-name="Rectangle 554" fill="#a2a6af" d="M21.743 81.958H62.48v.984H21.743z"/><path data-name="Rectangle 555" fill="#3b4b60" d="M16.144 81.958h5.599v.984h-5.599z"/><path data-name="Path 1406" d="M46.973 93.022h-1.219l-.153-2.831h1.222z" fill="#ff8b7b"/><path data-name="Path 1407" d="M47.046 92.296h-1.373a.1.1 0 00-.1.083l-.185 1.087a.191.191 0 00.191.217c.479-.008.711-.036 1.314-.036.371 0 1.6.038 2.112.038s.554-.507.341-.554a5.8 5.8 0 01-2.1-.761.316.316 0 00-.2-.074z" fill="#a2a6af"/><path data-name="Path 1408" d="M35.223 68.834c.428.907.874 1.8 1.337 2.686s.941 1.767 1.448 2.642l.193.328.054.083.074.117c.053.084.1.14.154.21a5.3 5.3 0 00.61.622 13.4 13.4 0 001.245.961 23.842 23.842 0 002.617 1.561l.5-.769c-.754-.631-1.517-1.268-2.239-1.913a17.187 17.187 0 01-1.023-.981 4.549 4.549 0 01-.4-.48 1 1 0 01-.058-.1l-.065-.125-.165-.327c-.874-1.759-1.725-3.561-2.617-5.328z" fill="#ff8b7b"/><path data-name="Path 1409" d="M34.712 67.947c-.355 1.093 1.9 4.314 1.9 4.314l2.369-1.328a15.849 15.849 0 00-1.56-2.861c-.928-1.289-2.319-1.325-2.709-.125z" fill="#0c9add"/><path data-name="Path 1410" d="M34.681 68.086c.468-.227 1.015-.037 1.6.866a10.1 10.1 0 011.161 2.844l-.835.466s-2.078-2.974-1.926-4.176z" opacity=".1"/><path data-name="Path 1411" d="M43.413 77.249l1.139.657-.823 1.211a1.887 1.887 0 01-.976-1.348z" fill="#ff8b7b"/><path data-name="Path 1412" d="M45.277 79.393l-.933-.092-.616-.184.823-1.211z" fill="#ff8b7b"/><g data-name="Group 344"><path data-name="Path 1413" d="M46.819 90.192h-1.223l.08 1.459h1.223z" fill="#ea7063"/></g><path data-name="Path 1414" d="M29.269 67.048c.04.157.08.314.116.472a.08.08 0 000 .014 28.593 28.593 0 01.565 3.382c.357 3.267.179 6.035.249 6.761h6.538c1.015-6.874-.618-10.564-.618-10.564a12.586 12.586 0 00-1.239-.257 9.84 9.84 0 00-.658-.083 23.692 23.692 0 00-2.779 0c-.2.01-.4.025-.6.044-.84.082-1.574.231-1.574.231z" fill="#0c9add"/><path data-name="Path 1415" d="M29.385 67.509v.01a.081.081 0 000 .014 28.593 28.593 0 01.565 3.382 3.809 3.809 0 00.8-2.7c-.141-.73-.937-.75-1.365-.706z" opacity=".1"/><path data-name="Path 1416" d="M30.849 66.816l.184.253a4.359 4.359 0 002.671 1.513l.16.029.147-.069a1.483 1.483 0 00.954-1.059 1.123 1.123 0 00-.084-.629 9.84 9.84 0 00-.658-.083 23.692 23.692 0 00-2.779 0c-.2.011-.401.026-.595.045z" fill="#d1e3ff"/><path data-name="Path 1417" d="M31.558 63.642c.222.895.481 2.533-.113 3.129a3.854 3.854 0 002.35 1.312c1.211-.571.429-1.312.429-1.312-1.009-.238-1.022-.978-.884-1.673z" fill="#ff8b7b"/><path data-name="Path 1418" d="M32.284 64.237l1.054.861a2.781 2.781 0 00-.06.494 1.129 1.129 0 01-.994-1.355z" fill="#ea7063"/><path data-name="Path 1419" d="M34.257 60.892c.615.254 1.029 1.941.28 2.328s-1.444-2.81-.28-2.328z" fill="#0f264c"/><path data-name="Path 1420" d="M31.381 62.297c.136 1.21.156 1.923.8 2.544a1.567 1.567 0 002.661-.829c.2-1.088-.054-2.885-1.265-3.367a1.575 1.575 0 00-2.196 1.652z" fill="#ff8b7b"/><path data-name="Path 1421" d="M30.857 60.216c.327.921-.516.038-.506 1.129.006.712.8 2.4 1.311 2.355s.7-.941.4-1.94c-.231-.75.4-.454 1.326-.363 1.87.184 3.157-2.267 1-2.135-2.084.127-3.735.378-3.531.954z" fill="#47465a"/><path data-name="Path 1422" d="M31.108 63.356a1.051 1.051 0 00.561.421c.292.083.391-.183.268-.465-.11-.253-.4-.6-.669-.562s-.328.354-.16.606z" fill="#ff8b7b"/><path data-name="Path 1423" d="M36.739 77.675s8.453-.29 9.585 3.071c1.239 3.682.981 10.5.981 10.5h-2.119s-.817-4.868-1.378-7.338c-.581-2.564-8.837-1.4-9.886-2.335-.837-.748-1.26-2.012-1.371-3.9z" fill="#3f3d56"/><path data-name="Path 1424" d="M45.044 91.302h2.4l.066-.762-2.625.067z" fill="#3a4a61"/><path data-name="Path 1425" d="M35.713 93.022h1.223l.894-2.831h-1.223z" fill="#ff8b7b"/><path data-name="Path 1426" d="M37.165 92.296h-1.372a.1.1 0 00-.1.083l-.185 1.087a.191.191 0 00.191.217c.479-.008.711-.036 1.314-.036.371 0 1.6.038 2.112.038s.554-.507.341-.554a5.8 5.8 0 01-2.1-.761.321.321 0 00-.201-.074z" fill="#a2a6af"/><g data-name="Group 345"><path data-name="Path 1427" d="M36.607 90.192h1.223l-.461 1.459h-1.223z" fill="#ea7063"/></g><path data-name="Path 1428" d="M37.256 92.47a.033.033 0 01-.023-.025.03.03 0 01.014-.031c.043-.028.423-.269.564-.2a.1.1 0 01.057.083.169.169 0 01-.053.155.36.36 0 01-.236.064 1.38 1.38 0 01-.323-.046zm.089-.044a.581.581 0 00.427-.022.112.112 0 00.032-.1.036.036 0 00-.021-.034.084.084 0 00-.037-.007 1.074 1.074 0 00-.401.163z" fill="#a2a6af"/><path data-name="Path 1429" d="M37.247 92.466a.033.033 0 01-.015-.028c0-.015.012-.368.148-.485a.151.151 0 01.125-.038.1.1 0 01.1.081c.028.138-.2.4-.324.472a.036.036 0 01-.015 0 .026.026 0 01-.019-.002zM37.42 92a.661.661 0 00-.123.378c.117-.095.259-.291.243-.371 0-.008-.006-.027-.044-.031h-.013a.093.093 0 00-.063.024z" fill="#a2a6af"/><path data-name="Path 1430" d="M34.42 77.675s8.3.425 7.718 3.924c-.636 3.832-4.214 9.649-4.214 9.649h-2.137s1.458-5.592 2.131-8.032c.466-1.686-5.3-.7-6.346-1.64-.837-.748-1.26-2.012-1.371-3.9z" fill="#3f3d56"/><path data-name="Path 1431" d="M35.66 91.302h2.4l.466-.762h-2.851z" fill="#3a4a61"/><path data-name="Path 1432" d="M29.606 67.508c-.229.047-.421.094-.625.149s-.4.112-.6.172q-.595.186-1.177.422a12.6 12.6 0 00-1.147.525c-.188.094-.375.2-.559.307-.092.053-.183.113-.274.169l-.136.086a1.02 1.02 0 00-.129.088 1.438 1.438 0 00-.148.132 1.371 1.371 0 00-.346.635 1.753 1.753 0 00-.04.531 3.136 3.136 0 00.166.773 6.772 6.772 0 00.569 1.192 13.007 13.007 0 001.462 2l.751-.528a27.89 27.89 0 01-.973-2.084 6.519 6.519 0 01-.328-1.007 1.5 1.5 0 01-.043-.394c0-.044.015-.071.017-.059a.222.222 0 01-.062.12.2.2 0 01-.036.035c-.006.008-.039.027 0 .008l.121-.061c.082-.04.161-.083.244-.121.168-.076.332-.155.5-.227.339-.147.688-.279 1.041-.4a26.883 26.883 0 011.615-.506l.527-.139z" fill="#ff8b7b"/><path data-name="Path 1433" d="M30.47 67.154c-.894-.74-4.147 1.007-4.147 1.007l1.918 2.4a12.824 12.824 0 001.686-.687c1.421-.636 1.5-1.927.543-2.72z" fill="#0c9add"/><path data-name="Path 1434" d="M47.137 92.47a.029.029 0 01-.023-.025.03.03 0 01.014-.031c.043-.028.423-.269.564-.2a.1.1 0 01.055.083.171.171 0 01-.052.155.36.36 0 01-.236.064 1.4 1.4 0 01-.322-.046zm.09-.044a.581.581 0 00.427-.022.112.112 0 00.032-.1.036.036 0 00-.021-.034.084.084 0 00-.037-.007 1.067 1.067 0 00-.401.163z" fill="#a2a6af"/><path data-name="Path 1435" d="M47.129 92.466a.033.033 0 01-.015-.028c0-.015.012-.368.148-.485a.15.15 0 01.125-.038.1.1 0 01.1.081c.027.138-.2.4-.324.472a.036.036 0 01-.015 0 .026.026 0 01-.019-.002zm.173-.466a.661.661 0 00-.123.378c.117-.095.259-.291.243-.371 0-.008 0-.027-.044-.031h-.013a.093.093 0 00-.063.024z" fill="#a2a6af"/><path data-name="Path 1436" d="M27.499 74.192l.741.985-1.528.105s-.5-.993.029-1.216z" fill="#ff8b7b"/><path data-name="Path 1437" d="M28.153 76.555l-1.265.025-.181-1.293 1.528-.105z" fill="#ff8b7b"/><path data-name="Path 1438" d="M202.548 91.792a4.978 4.978 0 01-4.977 4.977H84.281c-2.749 0-5.583-.067-5.583-2.816V73.492l5.019-18.3c1.362-3.992 3.023-4.977 5.773-4.977h108.08a4.977 4.977 0 014.977 4.977v36.6z" fill="#eb1c24"/><path data-name="Path 1439" d="M201.056 96.77H81.319a2.618 2.618 0 01-2.618-2.618v-4.12h122.355a2.618 2.618 0 012.618 2.618v1.5a2.618 2.618 0 01-2.618 2.62z" fill="#3a4a61"/><path data-name="Path 1440" d="M108.326 94.416a8.81 8.81 0 11-8.81-8.81 8.809 8.809 0 018.81 8.81z" fill="#3f3d56"/><path data-name="Path 1441" d="M104.931 94.416a5.415 5.415 0 11-5.415-5.414 5.414 5.414 0 015.415 5.414z" fill="#434041"/><path data-name="Path 1442" d="M103.675 94.416a4.159 4.159 0 11-4.159-4.159 4.158 4.158 0 014.159 4.159z" fill="#9b999e"/><path data-name="Path 1443" d="M173.431 94.416a8.81 8.81 0 11-8.81-8.81 8.809 8.809 0 018.81 8.81z" fill="#3f3d56"/><path data-name="Path 1444" d="M170.036 94.416a5.415 5.415 0 11-5.415-5.414 5.414 5.414 0 015.415 5.414z" fill="#434041"/><path data-name="Path 1445" d="M168.78 94.416a4.159 4.159 0 11-4.159-4.159 4.158 4.158 0 014.159 4.159z" fill="#9b999e"/><path data-name="Path 1446" d="M192.46 94.416a8.81 8.81 0 11-8.81-8.81 8.809 8.809 0 018.81 8.81z" fill="#3f3d56"/><path data-name="Path 1447" d="M189.066 94.416a5.415 5.415 0 11-5.415-5.414 5.414 5.414 0 015.415 5.414z" fill="#434041"/><path data-name="Path 1448" d="M187.813 94.416a4.159 4.159 0 11-4.159-4.159 4.158 4.158 0 014.159 4.159z" fill="#9b999e"/><path data-name="Path 1449" d="M80.114 87.362h-1.416v-7.18h1.416a2.618 2.618 0 012.618 2.618v1.944a2.619 2.619 0 01-2.618 2.618z" fill="#fff"/><path data-name="Path 1450" d="M200.259 81.03h2.289v7.18h-2.289a1.745 1.745 0 01-1.745-1.745v-3.688a1.745 1.745 0 011.745-1.747z" fill="#fff"/><path data-name="Rectangle 556" opacity=".1" d="M78.697 74.992h123.85v2.253H78.697z"/><path data-name="Rectangle 557" opacity=".1" d="M78.697 77.926h123.85v2.253H78.697z"/><path data-name="Path 1451" d="M102.312 71.238a1.447 1.447 0 01-1.484 1.408H83.512a1.447 1.447 0 01-1.484-1.408l5.046-15.393a1.447 1.447 0 011.484-1.408h12.27a1.447 1.447 0 011.484 1.408v15.393z" fill="#fff"/><path data-name="Path 1452" d="M121.261 70.628a1.447 1.447 0 01-1.484 1.408h-13.444a1.447 1.447 0 01-1.487-1.408V55.844a1.447 1.447 0 011.484-1.408h13.446a1.447 1.447 0 011.484 1.408z" fill="#fff"/><path data-name="Path 1453" d="M140.574 70.628a1.447 1.447 0 01-1.484 1.408h-13.439a1.447 1.447 0 01-1.484-1.408V55.844a1.447 1.447 0 011.484-1.408h13.443a1.447 1.447 0 011.484 1.408z" fill="#fff"/><path data-name="Path 1454" d="M159.887 70.628a1.447 1.447 0 01-1.484 1.408h-13.447a1.447 1.447 0 01-1.484-1.408V55.844a1.447 1.447 0 011.484-1.408h13.443a1.447 1.447 0 011.484 1.408z" fill="#fff"/><path data-name="Path 1455" d="M179.2 70.628a1.447 1.447 0 01-1.484 1.408h-13.445a1.447 1.447 0 01-1.484-1.408V55.844a1.447 1.447 0 011.484-1.408h13.444a1.447 1.447 0 011.484 1.408z" fill="#fff"/><path data-name="Path 1456" d="M198.515 70.628a1.447 1.447 0 01-1.484 1.408h-13.444a1.447 1.447 0 01-1.484-1.408V55.844a1.447 1.447 0 011.484-1.408h13.443a1.447 1.447 0 011.484 1.408z" fill="#fff"/><path data-name="Path 1457" d="M100.827 54.436H99.39a16.3 16.3 0 01-1.09 3.624 29.635 29.635 0 01-5.636 8.988 26.807 26.807 0 01-7.85 5.6h16.012a1.447 1.447 0 001.484-1.408V55.844a1.446 1.446 0 00-1.483-1.408z" fill="#0c9add" opacity=".1"/><path data-name="Path 1458" d="M120.557 54.651a24.64 24.64 0 01-4.162 6.754 34.841 34.841 0 01-8.16 6.42q-1.651.971-3.386 1.782v1.02a1.447 1.447 0 001.484 1.408h13.443a1.447 1.447 0 001.484-1.408V55.843a1.39 1.39 0 00-.703-1.192z" fill="#0c9add" opacity=".1"/><path data-name="Path 1459" d="M139.09 54.436h-.08c.481 6.793-5.544 13.5-11.691 15.554-1.02.34-2.066.637-3.129.9a1.466 1.466 0 001.456 1.144h13.443a1.447 1.447 0 001.484-1.408V55.844a1.448 1.448 0 00-1.483-1.408z" fill="#0c9add" opacity=".1"/><path data-name="Path 1460" d="M158.509 54.446c-.35 3.208-2.9 6.355-4.861 8.591a25.253 25.253 0 01-10.172 6.737v.854a1.447 1.447 0 001.484 1.408h13.443a1.447 1.447 0 001.484-1.408V55.843a1.438 1.438 0 00-1.378-1.397z" fill="#0c9add" opacity=".1"/><path data-name="Path 1461" d="M177.715 54.436h-.973c-.6 4.3-3.315 8.25-6.638 11.022a29.668 29.668 0 01-7.317 4.451v.718a1.447 1.447 0 001.484 1.408h13.444a1.447 1.447 0 001.484-1.408V55.843a1.448 1.448 0 00-1.484-1.407z" fill="#0c9add" opacity=".1"/><path data-name="Path 1462" d="M197.029 54.436h-.5c-.921 3.615-1.874 7.221-4.144 10.271-2.293 3.08-5.81 5.166-9.283 6.649-.194.083-.394.158-.592.238a1.514 1.514 0 001.074.44h13.443a1.447 1.447 0 001.484-1.408V55.843a1.445 1.445 0 00-1.482-1.407z" fill="#0c9add" opacity=".1"/><g data-name="Group 346"><path data-name="Path 1463" d="M81.612 72.61l3.062-9.621v9.621z" fill="#434041"/><path data-name="Path 1464" d="M89.325 74.175a1.638 1.638 0 01-1.638 1.639h-1.371a1.639 1.639 0 01-1.639-1.639V62.812a1.639 1.639 0 011.639-1.639h1.365a1.638 1.638 0 011.638 1.639v11.363z" fill="#434041"/><path data-name="Path 1465" d="M88.288 75.198c-2.026-2.4-2.444-6.216-2.572-9.262a10.03 10.03 0 01.665-4.759h-.065a1.639 1.639 0 00-1.639 1.639v11.358a1.639 1.639 0 001.639 1.639h1.365a1.625 1.625 0 00.92-.283c-.104-.112-.211-.219-.313-.332z" fill="#2b2422"/></g></g></svg>