<svg xmlns="http://www.w3.org/2000/svg" xmlns:xlink="http://www.w3.org/1999/xlink" width="420" height="287.412" viewBox="0 0 420 287.412"><defs><linearGradient id="linear-gradient" x1=".386" y1=".622" x2=".386" y2="-.378" gradientUnits="objectBoundingBox"><stop offset="0" stop-color="gray" stop-opacity=".251"/><stop offset=".54" stop-color="gray" stop-opacity=".122"/><stop offset="1" stop-color="gray" stop-opacity=".102"/></linearGradient><linearGradient id="linear-gradient-2" x1=".5" y1="1" x2=".5" y2="0" xlink:href="#linear-gradient"/></defs><g id="undraw_filing_system_b5d2" transform="translate(-.002 .013)"><path id="Path_578" data-name="Path 578" d="M139.01,610.383c-1.795,3.853.774,8.011-.117,11.989-1.125,5.02-7.576,8.927-14.525,11.421s-14.709,4.008-21.482,6.693c-2.928,1.159-5.982,3.3-4.459,5.263a6.742,6.742,0,0,0,2.481,1.606c19.729,9.1,44.114,14.048,68.478,13.889,25.77-.171,51-5.857,76.752-5.2,33.208.837,65.328,12.157,98.167,8.894,13.939-1.393,26.882-5.342,40.457-7.81,19.963-3.627,40.959-3.991,61.634-5.183,15.525-.9,33.266-3.217,40.683-11.944,5.363-6.308,3.112-14.642-4.443-19.984s-19.624-7.626-30.773-6.589c-5.995.556-11.952,2-17.947,1.426a49.232,49.232,0,0,1-9.869-2.309c-24.561-7.614-50-15.211-77.267-16.315-44.344-1.811-85.445,13.617-128.647,20.29-6.727,1.037-14.031,1.836-20.386.1-6.693-1.836-11.086-6.175-17.792-8-3.184-.87-6.731-1.121-9.86-2.067-8.6-2.6-4.6-6.179-16.541-3.765C147.318,604.049,141.018,606.086,139.01,610.383Z" transform="translate(-98.02 -392.323)" fill="#0c9add" opacity=".1"/><path id="Path_579" data-name="Path 579" d="M173.6,316.06s23.327,23.327,10.166,57.94,22.59,92.172,22.59,92.172-.385-.054-1.092-.18c-47.933-8.459-71.737-63.248-45.1-103.94C170.066,346.9,178.2,329.154,173.6,316.06Z" transform="translate(-127.713 -229.447)" fill="#eb1c24"/><path id="Path_580" data-name="Path 580" d="M173.6,316.06s23.327,23.327,10.166,57.94,22.59,92.172,22.59,92.172-.385-.054-1.092-.18c-47.933-8.459-71.737-63.248-45.1-103.94C170.066,346.9,178.2,329.154,173.6,316.06Z" transform="translate(-127.713 -229.447)" opacity=".1"/><path id="Path_581" data-name="Path 581" d="M200.189,316.06s13.169,28.594,0,51.92-2.259,88.788,32.731,98.192" transform="translate(-154.305 -229.447)" fill="none" stroke="#535461" stroke-miterlimit="10" stroke-width="1"/><path id="Path_582" data-name="Path 582" d="M108.39,541.175s26.619-4.238,29.045,19.616,51.179,27.163,51.179,27.163-.318.218-.916.607c-40.252,26.418-78.735,16.834-72.937-18.256C116.92,557.248,116.74,544.154,108.39,541.175Z" transform="translate(-104.051 -360.218)" fill="#eb1c24"/><path id="Path_583" data-name="Path 583" d="M108.39,541.175s26.619-4.238,29.045,19.616,51.179,27.163,51.179,27.163-.318.218-.916.607c-40.252,26.418-78.735,16.834-72.937-18.256C116.92,557.248,116.74,544.154,108.39,541.175Z" transform="translate(-104.051 -360.218)" fill="#f5f5f5" opacity=".2"/><path id="Path_584" data-name="Path 584" d="M108.39,541.58s20.662,4.535,18.963,23.322,30.681,41.307,61.261,23.457" transform="translate(-104.051 -360.623)" fill="none" stroke="#3a4a61" stroke-miterlimit="10" stroke-width="1"/><path id="Path_585" data-name="Path 585" d="M372.28,374.444H153.31V237.66h28l11.521,14.232H372.28Z" transform="translate(-89.174 -138.246)" fill="#eb1c24"/><path id="Path_586" data-name="Path 586" d="M372.28,374.444H153.31V237.66h28l11.521,14.232H372.28Z" transform="translate(-89.174 -138.246)" opacity=".1"/><path id="Rectangle_306" data-name="Rectangle 306" transform="rotate(-20 276.054 -259.773)" fill="#f1f1f4" d="M0 0H104.84V163.21H0z"/><path id="Rectangle_307" data-name="Rectangle 307" transform="rotate(-20 314.896 -307.66)" fill="#fff" d="M0 0H29.622V6.97H0z"/><path id="Rectangle_308" data-name="Rectangle 308" transform="rotate(-19.65 370.647 -337.333)" fill="#fff" d="M0 0H65.052V6.388H0z"/><path id="Rectangle_309" data-name="Rectangle 309" transform="rotate(-19.65 410.06 -344.163)" fill="#fff" d="M0 0H65.052V6.388H0z"/><path id="Rectangle_310" data-name="Rectangle 310" transform="rotate(-19.65 449.471 -350.975)" fill="#fff" d="M0 0H65.052V6.388H0z"/><path id="Rectangle_311" data-name="Rectangle 311" transform="rotate(-19.65 488.873 -357.807)" fill="#fff" d="M0 0H65.052V6.388H0z"/><path id="Rectangle_312" data-name="Rectangle 312" transform="rotate(-19.65 528.274 -364.63)" fill="#fff" d="M0 0H65.052V6.388H0z"/><path id="Rectangle_313" data-name="Rectangle 313" transform="rotate(-19.65 567.687 -371.458)" fill="#fff" d="M0 0H65.052V6.388H0z"/><path id="Rectangle_314" data-name="Rectangle 314" transform="rotate(-19.65 611.142 -534.427)" fill="#fff" d="M0 0H16.842V16.842H0z"/><path id="Rectangle_315" data-name="Rectangle 315" transform="rotate(-59.28 141.453 46.067)" fill="url(#linear-gradient)" d="M0 0H108.195V168.435H0z"/><path id="Rectangle_316" data-name="Rectangle 316" transform="rotate(-59.28 142.911 43.285)" fill="#f1f1f4" d="M0 0H104.84V163.21H0z"/><path id="Rectangle_317" data-name="Rectangle 317" transform="rotate(-59.28 149.978 23.052)" fill="#fff" d="M0 0H29.622V6.97H0z"/><path id="Rectangle_318" data-name="Rectangle 318" transform="rotate(-59.28 163.403 8.654)" fill="#fff" d="M0 0H65.052V6.388H0z"/><path id="Rectangle_319" data-name="Rectangle 319" transform="rotate(-59.28 175.399 1.83)" fill="#fff" d="M0 0H65.052V6.388H0z"/><path id="Rectangle_320" data-name="Rectangle 320" transform="rotate(-59.331 187.063 -4.96)" fill="#fff" d="M0 0H65.052V6.388H0z"/><path id="Rectangle_321" data-name="Rectangle 321" transform="rotate(-59.28 199.383 -11.818)" fill="#fff" d="M0 0H65.052V6.388H0z"/><path id="Rectangle_322" data-name="Rectangle 322" transform="rotate(-59.28 211.38 -18.642)" fill="#fff" d="M0 0H65.052V6.388H0z"/><path id="Rectangle_323" data-name="Rectangle 323" transform="rotate(-59.28 223.377 -25.47)" fill="#fff" d="M0 0H65.052V6.388H0z"/><path id="Rectangle_324" data-name="Rectangle 324" transform="rotate(-59.331 218.023 -83.292)" fill="#fff" d="M0 0H16.842V16.842H0z"/><path id="Path_587" data-name="Path 587" d="M876.637,162.159a2.7,2.7,0,0,0-.063-.59q-.063-.28-.109-.648-.117-.636-.268-1.23-.076-.3-.155-.581a15.658,15.658,0,0,0-3.142-5.978l-.251-.284q-.251-.276-.5-.523t-.485-.456c-.159-.142-.314-.272-.464-.4a9.408,9.408,0,0,0-.837-.615c-.259-.167-.351-.23-.5-.318a2.815,2.815,0,0,0-1.171-.381l-2.581-.251h0l-3.489-.343-12.6-4.865-.5.176a28.915,28.915,0,0,1-.933-3.083,2.8,2.8,0,0,0,1-.724,2.267,2.267,0,0,0,.686-.874c.318-.728-.289-2.284-.167-3.171a15.08,15.08,0,0,1,1.552-4.1,18.954,18.954,0,0,0,2.091-8.835,9.95,9.95,0,0,0-4.142-7.848c-1.339-.883-2.928-1.355-4.3-2.159-1.083-.628-2.037-1.443-3.071-2.15a17.729,17.729,0,0,0-17.374-1.234c-2.619,1.284-4.853,3.2-7.325,4.736s-5.384,2.723-8.275,2.267a1.847,1.847,0,0,0-.088.356l-.243-.029c-.5,1.351.724,2.682,1.849,3.606,2.133,1.749,4.556,3.5,7.342,3.556a8.206,8.206,0,0,1,3.192.239,2.858,2.858,0,0,1,.594.368,13.721,13.721,0,0,0,4.355,13.738l-6.434-2.3s-.268.138-.686.4l-8.94-5.911s-17.918-6.488-22.9,3.568,21.57,4.865,21.57,4.865l5.681,3.1a5.129,5.129,0,0,0,.623,3.384l15.478,9.513c-3.129.958-8.271,2.51-9.2,2.51-1.326,0-4.978,1.3-7.3,6.488s-10.617,30.5-17.917,34.722S769.7,232.318,769.7,232.318l.088.222q-.515.134-1.008.3a20.376,20.376,0,0,0-10.006,7.5,3.179,3.179,0,0,0,2.242,5.02c7.6.954,11.747-2.51,13.742-5.154q.195-.257.364-.5a2.686,2.686,0,0,0,1.874.084l9.291-7.463s-7.271,7.112-3.008,13.592l-.322.448a103.037,103.037,0,0,0-15.583,33.659s-3.983,2.928-4.313,14.6-4.313,30.5-4.313,30.5-2.656,22.389-1,29.2c0,0,.192.272.544.686-.125.146-.259.305-.418.469-1.448,1.556-4.062,3.7-7.112,3.062-4.648-.975-4.648,7.137,1.991,7.789,4.275.418,12.672,2.318,18.114,3.614A3.807,3.807,0,0,0,775.6,365.9a34.254,34.254,0,0,0-1.991-8.931c-.067-.155-.134-.305-.205-.456.2-.18.389-.368.586-.569,0,0,0-14.278,2.322-18.173,0,0,6.3-29.526,5.974-36.99-.259-5.857,16.353-28.581,23.586-38.186l-.058-.364c1.849-2.451,3.02-3.957,3.02-3.957l5.639,35.366s2.707,7.789,6.024,12c0,0,14.27,26.933,15.926,35.366a26.78,26.78,0,0,0,5.02,11.634c-.138.138-.28.276-.418.418-1.51,1.376-3.74,2.757-6.275,2.23-4.631-.979-4.631,7.133,2.008,7.781,4.275.418,12.671,2.318,18.114,3.614a3.807,3.807,0,0,0,4.731-4.045c-.376-3.376-1.117-7.576-2.548-10.04q-.18-.314-.376-.59A3.506,3.506,0,0,0,858,351.08s-8.635-20.461-8.635-25.979c0,0-3.652-21.092-15.926-28.865,0,0,1.163-26.376,4.656-41.06q.13-.544.263-1.067c3.142-.49,6.372-1.146,9.681-2l.33-9.735,1.673,7.789,18.566-11.366s-.163-2.046-.477-5.183c-.159-1.569-.351-3.409-.586-5.4-.184-1.6-.4-3.292-.628-5.02q-.088-.648-.18-1.305c-.242-1.749-.51-3.518-.8-5.25q-.163-.975-.335-1.928c-.151-.837-.31-1.673-.473-2.485q-.121-.606-.251-1.2t-.259-1.155q-.13-.565-.263-1.109l-.134-.535q-.138-.527-.276-1.029a18.485,18.485,0,0,1-.674-4.255q-.034-.837,0-1.715a14.084,14.084,0,0,1,.167-1.707q.059-.418.142-.837a19.227,19.227,0,0,1,.941-3.313q.309-.807.694-1.594c.6-1.226,1.255-2.556,1.908-3.957q.5-1.05,1-2.146t1.021-2.226c3.23-7.154,6.417-15.127,7.271-20.36.088-.552.155-1.071.188-1.56A10.378,10.378,0,0,0,876.637,162.159Z" transform="translate(-475.793 -109)" fill="url(#linear-gradient-2)"/><path id="Path_588" data-name="Path 588" d="M876.775,172.023l-10.944-7.4s-17.382-6.438-22.209,3.539,20.917,4.828,20.917,4.828l10.944,6.116Z" transform="translate(-531.357 -140.17)" fill="#f7bbc3"/><path id="Rectangle_325" data-name="Rectangle 325" transform="rotate(-57.59 195.208 -160.48)" fill="#f1f1f4" d="M0 0H104.84V163.21H0z"/><path id="Rectangle_326" data-name="Rectangle 326" transform="rotate(-57.59 202.78 -181.146)" fill="#fff" d="M0 0H29.622V6.97H0z"/><path id="Rectangle_327" data-name="Rectangle 327" transform="rotate(-57.59 216.794 -195.722)" fill="#fff" d="M0 0H65.052V6.388H0z"/><path id="Rectangle_328" data-name="Rectangle 328" transform="rotate(-57.59 229.216 -202.545)" fill="#fff" d="M0 0H65.052V6.388H0z"/><path id="Rectangle_329" data-name="Rectangle 329" transform="rotate(-57.59 241.64 -209.365)" fill="#fff" d="M0 0H65.052V6.388H0z"/><path id="Rectangle_330" data-name="Rectangle 330" transform="rotate(-57.25 256.746 -217.832)" fill="#fff" d="M0 0H64.96V6.379H0z"/><path id="Rectangle_331" data-name="Rectangle 331" transform="rotate(-57.59 266.484 -223.008)" fill="#fff" d="M0 0H65.052V6.388H0z"/><path id="Rectangle_332" data-name="Rectangle 332" transform="rotate(-57.25 281.829 -231.573)" fill="#fff" d="M0 0H64.96V6.379H0z"/><path id="Rectangle_333" data-name="Rectangle 333" transform="rotate(-57.59 274.717 -289.45)" fill="#fff" d="M0 0H16.842V16.842H0z"/><path id="Path_589" data-name="Path 589" d="M969.576,701.228c-5.279-1.288-13.425-3.171-17.57-3.585-6.438-.644-6.438-8.689-1.933-7.722,2.443.523,4.6-.837,6.07-2.213a14.242,14.242,0,0,0,1.259-1.368,3.72,3.72,0,0,1,2.092-1.255c2.414-.527,7.438-1.322,10.529.343a4.546,4.546,0,0,1,1.673,1.824c1.389,2.464,2.092,6.626,2.473,9.977a3.723,3.723,0,0,1-4.594,4Z" transform="translate(-591.782 -443.711)" fill="#b77983"/><path id="Path_590" data-name="Path 590" d="M774.926,708.939c-5.279-1.289-13.424-3.171-17.57-3.585-6.438-.644-6.438-8.689-1.933-7.722,2.928.636,5.484-1.5,6.886-3.037.171-.188.326-.368.46-.535a3.721,3.721,0,0,1,2.092-1.255c2.414-.527,7.438-1.322,10.53.343a5.766,5.766,0,0,1,2.2,2.928,34.726,34.726,0,0,1,1.933,8.857,3.723,3.723,0,0,1-4.6,4.008Z" transform="translate(-478.562 -448.201)" fill="#b77983"/><path id="Path_591" data-name="Path 591" d="M791.564,696.061c-7.685,7.919-14.274-.147-15.274-1.477.172-.189.326-.368.46-.535a3.717,3.717,0,0,1,2.092-1.255c2.414-.527,7.438-1.322,10.529.343A5.646,5.646,0,0,1,791.564,696.061Z" transform="translate(-492.543 -448.195)" opacity=".1"/><path id="Path_592" data-name="Path 592" d="M984.54,687.238c-3.347,2.276-14.537,1.716-14.537,1.716a11.042,11.042,0,0,1-1.012-1.255,14.232,14.232,0,0,0,1.259-1.36,3.72,3.72,0,0,1,2.092-1.255c2.414-.527,7.438-1.322,10.529.343A4.548,4.548,0,0,1,984.54,687.238Z" transform="translate(-604.63 -443.711)" opacity=".1"/><path id="Path_593" data-name="Path 593" d="M872.127,537.183c-2.255,2.895-15.127,2.255-15.127,2.255s-3.861-3.861-5.472-12.232-15.449-35.082-15.449-35.082c-3.217-4.183-5.794-11.91-5.794-11.91l-5.472-35.082s-26.393,34.76-26.071,42.164-5.794,36.684-5.794,36.684c-2.255,3.861-2.255,18.022-2.255,18.022-8.367,8.689-15.449-1.611-15.449-1.611-1.611-6.76.966-28.966.966-28.966s3.861-18.666,4.183-30.254,4.183-14.483,4.183-14.483A103.24,103.24,0,0,1,799.691,433.3c1.945-2.786,3.229-4.271,3.229-4.271l52.142,6.116a32.876,32.876,0,0,0-2.242,6.907c-3.388,14.562-4.514,40.729-4.514,40.729,11.91,7.731,15.449,28.648,15.449,28.648C863.756,516.9,872.127,537.183,872.127,537.183Z" transform="translate(-491.626 -295.157)" fill="#8499f0"/><g id="Group_250" data-name="Group 250" transform="translate(290.507 133.86)" opacity=".05"><path id="Path_594" data-name="Path 594" d="M832.255,471.8l-.669-4.288s-26.393,34.76-26.071,42.164-5.79,36.688-5.79,36.688c-2.255,3.861-2.255,18.022-2.255,18.022a11.105,11.105,0,0,1-5.02,3.23c2.535.665,5.618.18,8.9-3.23,0,0,0-14.161,2.255-18.022,0,0,6.116-29.284,5.794-36.692C809.129,503.88,825.244,481.328,832.255,471.8Z" transform="translate(-792.45 -451.4)"/><path id="Path_595" data-name="Path 595" d="M903.274,511.413s-3.539-20.917-15.449-28.644c0,0,1.125-26.163,4.514-40.729a32.928,32.928,0,0,1,2.242-6.907L842.443,429s-.121.142-.343.418l48.623,5.7a32.863,32.863,0,0,0-2.242,6.907c-3.389,14.562-4.514,40.729-4.514,40.729,11.906,7.739,15.445,28.656,15.445,28.656,0,5.472,8.367,25.749,8.367,25.749-1.326,1.707-6.346,2.184-10.245,2.288,3.092.079,12.241.109,14.106-2.288C911.644,537.165,903.274,516.885,903.274,511.413Z" transform="translate(-821.33 -429)"/></g><path id="Path_596" data-name="Path 596" d="M794.572,410.672a11.659,11.659,0,0,1-1.527,2.665c-1.937,2.606-5.961,6.058-13.332,5.112a3.167,3.167,0,0,1-2.175-4.974,19.731,19.731,0,0,1,9.705-7.438,17.475,17.475,0,0,1,4.108-.837Z" transform="translate(-492.928 -281.296)" fill="#f7bbc3"/><path id="Path_597" data-name="Path 597" d="M938.461,189.982,912.65,180.54s-7.4,3.861-4.506,9.333l25.1,15.771Z" transform="translate(-568.846 -150.62)" fill="#d39999"/><path id="Path_598" data-name="Path 598" d="M938.461,189.982,912.65,180.54s-7.4,3.861-4.506,9.333l25.1,15.771Z" transform="translate(-568.846 -150.62)" opacity=".1"/><path id="Path_599" data-name="Path 599" d="M964.471,165.037s-.322,15.127,6.438,20.277-19.633,8.045-19.633,8.045,4.183-15.449,0-23.494S964.471,165.037,964.471,165.037Z" transform="translate(-593.948 -141.233)" fill="#f7bbc3"/><path id="Path_600" data-name="Path 600" d="M889.8,435.156a32.86,32.86,0,0,0-2.242,6.907c-31.128,4.752-52.794-8.2-52.794-8.2-.117-.188-.23-.372-.335-.556,1.945-2.786,3.23-4.271,3.23-4.271Z" transform="translate(-526.361 -295.163)" opacity=".1"/><path id="Path_601" data-name="Path 601" d="M808.88,410.666a11.672,11.672,0,0,1-1.527,2.665c-2.979-.493-5.363-6.191-5.8-7.3a17.487,17.487,0,0,1,4.108-.837Z" transform="translate(-507.236 -281.29)" opacity=".1"/><path id="Path_602" data-name="Path 602" d="M881.57,198.23l-11.588,4.183-4.828,6.438s-9.977,3.217-11.266,3.217-4.828,1.288-7.083,6.438-10.3,30.246-17.378,34.429-25.749,32.212-25.749,32.212,3.217,8.689,7.083,7.4l9.011-7.4s-7.082,7.082-2.895,13.516c0,0,26.393,15.771,62.751,6.116l.322-9.655,1.611,7.722,18.051-11.278s-1.615-20.775-4.522-31.35a19.1,19.1,0,0,1,1.255-13.32c4.673-9.739,11.885-26,11.007-31.936-1.038-6.99-4.987-10.04-6.493-10.944a2.689,2.689,0,0,0-1.134-.377l-5.89-.59Z" transform="translate(-508.475 -160.909)" fill="#d39999"/><path id="Path_603" data-name="Path 603" d="M886.612,275.56s-6.438,29.932-13.516,34.76S847.024,330.6,846.38,333.174" transform="translate(-533.312 -205.889)" opacity=".05"/><path id="Path_604" data-name="Path 604" d="M879.692,273.25s-6.438,29.932-13.516,34.76S840.1,328.287,839.46,330.876" transform="translate(-529.287 -204.546)" fill="#d39999"/><path id="Path_605" data-name="Path 605" d="M950.25,215.184s22.209-7.4,28.644-5.472" transform="translate(-593.729 -167.401)" opacity=".1"/><g id="Group_251" data-name="Group 251" transform="translate(372.008 37.321)" opacity=".05"><path id="Path_606" data-name="Path 606" d="M1004.042,254.087c4.673-9.739,11.885-26,11.007-31.936-1.037-6.991-4.987-10.04-6.493-10.944a2.69,2.69,0,0,0-1.134-.376l-2.51-.251a2.649,2.649,0,0,1,.744.305c1.506.92,5.438,3.953,6.493,10.944.878,5.928-6.334,22.2-11.007,31.936a19.1,19.1,0,0,0-1.255,13.32c2.928,10.576,4.522,31.35,4.522,31.35l-15.52,9.7.393,1.887,18.06-11.27s-1.615-20.775-4.522-31.35A19.1,19.1,0,0,1,1004.042,254.087Z" transform="translate(-988.212 -205.414)"/><path id="Path_607" data-name="Path 607" d="M899.671,93.74l2.79.276L890.338,89.23l-1.088.393Z" transform="translate(-889.25 -89.23)"/></g><path id="Path_608" data-name="Path 608" d="M935.63,341.616s9.977-5.472,13.195-4.183,15.127-.322,15.127-.322" transform="translate(-585.225 -241.691)" opacity=".05"/><path id="Path_609" data-name="Path 609" d="M963.314,170.853c-.368-3.225,1.125-2.736,1.125-2.736s-17.382-3.217-13.194,4.828a18.6,18.6,0,0,1,1.765,7.078h.163C958.035,180.027,960.85,174.626,963.314,170.853Z" transform="translate(-593.929 -143.024)" opacity=".05"/><circle id="Ellipse_80" data-name="Ellipse 80" cx="13.839" cy="13.839" r="13.839" transform="translate(345.418 8.033)" fill="#f7bbc3"/><path id="Path_610" data-name="Path 610" d="M935.524,138.054a19.091,19.091,0,0,0,2.021-8.785,9.93,9.93,0,0,0-4.016-7.785c-1.3-.874-2.828-1.343-4.183-2.138-1.05-.623-1.979-1.431-2.978-2.134a16.872,16.872,0,0,0-16.851-1.226c-2.539,1.255-4.706,3.175-7.112,4.7s-5.221,2.7-8.028,2.246c-.481,1.339.7,2.661,1.795,3.577,2.071,1.736,4.418,3.468,7.112,3.527a7.721,7.721,0,0,1,3.1.238,4.442,4.442,0,0,1,1.581,1.468,28.766,28.766,0,0,1,3.284,5.568,4.685,4.685,0,0,0,1.473,2.163c1.255.795,2.857.134,4.33.075,2.292-.088,4.35,1.351,6.049,2.9s3.309,3.3,5.439,4.121c1.6.607,4.794.586,5.61-1.326.305-.72-.28-2.263-.159-3.146A16.685,16.685,0,0,1,935.524,138.054Z" transform="translate(-561.165 -112.087)" opacity=".1"/><path id="Path_611" data-name="Path 611" d="M936.294,137.284a19.085,19.085,0,0,0,2.021-8.785,9.931,9.931,0,0,0-4.016-7.785c-1.3-.874-2.828-1.343-4.184-2.138-1.05-.623-1.979-1.431-2.978-2.134a16.871,16.871,0,0,0-16.851-1.226c-2.539,1.255-4.706,3.175-7.111,4.7s-5.221,2.7-8.028,2.246c-.481,1.339.7,2.661,1.795,3.577,2.071,1.736,4.417,3.468,7.112,3.527a7.72,7.72,0,0,1,3.1.238,4.442,4.442,0,0,1,1.582,1.468,28.765,28.765,0,0,1,3.284,5.568,4.685,4.685,0,0,0,1.472,2.163c1.255.795,2.857.134,4.33.075,2.293-.088,4.351,1.351,6.049,2.9s3.309,3.3,5.438,4.121c1.6.607,4.794.586,5.61-1.326.305-.72-.28-2.263-.159-3.146A16.772,16.772,0,0,1,936.294,137.284Z" transform="translate(-561.613 -111.639)" fill="#9b6c7a"/><path id="Path_612" data-name="Path 612" d="M372.28,388.324H153.31V251.54h28l11.521,14.232H372.28Z" transform="translate(-89.174 -146.319)" fill="#eb1c24"/><path id="Path_613" data-name="Path 613" d="M229.472,707.243s-9.442-1.887-11.96-4.405-13.847-6.923-15.106-3.765-16.993,13.847-6.275,15.738,25.176,2.51,28.326,1.255S229.472,707.243,229.472,707.243Z" transform="translate(-152.923 -451.592)" fill="#a2a6af"/><path id="Path_614" data-name="Path 614" d="M196.126,726.415c10.7,1.887,25.176,2.51,28.326,1.255,2.4-.958,4.062-5.564,4.719-7.71l.314.067s-1.887,7.555-5.02,8.81-17.625.628-28.326-1.255c-3.087-.544-3.97-1.824-3.639-3.447C192.75,725.2,193.825,726.009,196.126,726.415Z" transform="translate(-152.936 -464.38)" opacity=".2"/><path id="Path_615" data-name="Path 615" d="M668.731,741.816s-14.4-2.882-18.248-6.723-21.126-10.563-23.046-5.76-25.937,21.126-9.622,24.008,38.412,3.84,43.214,1.92S668.731,741.816,668.731,741.816Z" transform="translate(-397.078 -468.863)" fill="#a2a6af"/><path id="Path_616" data-name="Path 616" d="M617.849,771.089c16.315,2.882,38.412,3.84,43.214,1.92,3.656-1.464,6.2-8.492,7.2-11.759l.481.1s-2.882,11.508-7.693,13.441-26.891.962-43.214-1.92c-4.715-.837-6.062-2.786-5.551-5.254C612.7,769.228,614.339,770.47,617.849,771.089Z" transform="translate(-397.091 -488.397)" opacity=".2"/><path id="Rectangle_334" data-name="Rectangle 334" transform="translate(147.248 169.428)" opacity=".1" d="M0 0H48.527V8.367H0z"/></g></svg>