<svg xmlns="http://www.w3.org/2000/svg" width="180" height="139.338" viewBox="0 0 180 139.338"><path data-name="Path 447" d="M79.956 31.684a66.358 66.358 0 01-21.767-3.654c-9.386-3.245-17.074-7.721-22.853-13.3C24.405 4.17 15.444 2.579 9.852 3.103a17.92 17.92 0 00-9.611 3.7L0 6.535a18.281 18.281 0 019.8-3.787 24.193 24.193 0 0111.234 1.776 45.8 45.8 0 0114.557 9.949c5.74 5.546 13.385 9.994 22.72 13.222a68.25 68.25 0 0052.988-3.947 59.745 59.745 0 0116.087-5.661 38.187 38.187 0 0118.478.84c12.54 3.9 21.106 3.694 26.083 2.834 5.37-.928 7.807-2.786 7.831-2.8l.222.285c-.1.078-2.533 1.932-7.991 2.875-5.017.867-13.643 1.077-26.252-2.845-12.766-3.971-25.7.417-34.294 4.8a69.217 69.217 0 01-26.26 7.408q-2.633.2-5.247.2z" fill="#3f3d56"/><circle data-name="Ellipse 33" cx="3.654" cy="3.654" r="3.654" transform="translate(75.574 28.85)" fill="#eb1c24"/><circle data-name="Ellipse 34" cx="3.654" cy="3.654" r="3.654" transform="translate(132.191 14.244)" fill="#eb1c24"/><circle data-name="Ellipse 35" cx="3.654" cy="3.654" r="3.654" transform="translate(14.449)" fill="#eb1c24"/><path data-name="Path 448" d="M105.432 87.358v35.31h5.552v-32.2h22.207v32.2h5.552v-70.62h-5.552c-1.84 0-4.664 9.581-4.664 19.209 0 7.257.848 13.476 2.053 16.1zm27.759 0h-.054l.054-.122z" fill="#3f3d56"/><path data-name="Path 449" d="M126.009 34.571c-4.557 0-8.251 4.1-8.251 9.157v6.425h1.976l1.144-2.381-.286 2.381h12.7l1.04-2.164-.26 2.164h1.43v-5.045c.002-5.819-4.249-10.537-9.493-10.537z" fill="#2f2e41"/><path data-name="Path 450" d="M116.554 76.551l-5.066 2.153-17.605 14.312a5.182 5.182 0 00-1.14 2.786c-.127 1.647-5.446 10.259-3.546 11.4s8.739 4.56 9.119 2.28 2.406-12.032 2.406-12.032l16.972-15.2z" fill="#2f2e41"/><path data-name="Path 451" d="M96.669 107.583l-2.153 6.333s2.28 2.406 1.14 4.433v6.966h-1.773l-.507-3.673s-2.02 3.627-3.04 3.673c-2.138.1-6.373.858-6.5-.282s3.207-2.251 3.207-2.251l3.546-9.753 1.52-5.953z" fill="#2f2e41"/><path data-name="Path 452" d="M129.727 74.907s1.14 11.146-2.153 13.172-17.859 8.486-17.859 8.486 6.206 5.826 4.94 7.219-6.966 5.193-7.726 4.433-9.246-9.879-8.233-12.792 15.072-12.418 15.072-12.418l1.647-5.953.507-4.813 5.32-3.42z" fill="#2f2e41"/><circle data-name="Ellipse 36" cx="5.28" cy="5.28" r="5.28" transform="translate(118.644 38.394)" fill="#ffb9b9"/><path data-name="Path 453" d="M128.014 45.837s-.253 4.813 3.673 6.333-9.753 11.4-9.753 11.4V52.55s1.773-1.9 0-4.813z" fill="#ffb9b9"/><path data-name="Path 454" d="M136.439 68.445l-1.013 4.94-3.04 16.972s2.533 7.219-.887 7.093-1.773-7.853-1.773-7.853l1.773-14.059v-5.446z" fill="#ffb9b9"/><path data-name="Path 455" d="M114.655 66.039l-1.142 4.435-5.193 12.539s-3.546 5.953-.633 5.826 2.913-5.826 2.913-5.826l5.953-10.133v-5.706z" fill="#ffb9b9"/><path data-name="Path 456" d="M113.767 103.023l4.18 3.926s2.913-.633 4.053 2.786 1.9 5.573 1.9 5.573l-1.52.887-1.9-2.66s-1.14 4.813-2.28 5.193-6.839 2.913-6.333 0l2.786-4.053s.38-4.56-.76-4.94-4.18-4.18-4.18-4.18z" fill="#2f2e41"/><path data-name="Path 457" d="M129.927 78.832s-11.906-4.306-12.666-3.926a5.713 5.713 0 01-1.784.463l.011-1.73s3.926-1.393 6.08-.507 8.739 4.813 8.739 4.813z" fill="#3f3d56"/><path data-name="Path 458" d="M122.697 61.035s3.42-3.926 4.433-6.333a6.218 6.218 0 013.287-3.232s7.605 1.713 7.479 4.752-4.813 7.726-4.813 7.726.633 16.845-2.787 16.592a7.336 7.336 0 01-1.52-3.04c-.38-1.773-12.159-3.673-12.159-3.673s-1.013 1.773-1.14 1.013 1.013-19.379 1.013-19.379l6.04-3.992z" fill="#d0cde1"/><path data-name="Path 459" d="M136.92 54.999l.085.048a1.747 1.747 0 01.892 1.524v9.4a1.761 1.761 0 00.627 1.34c.488.415.94 1.013.007 1.324-1.52.507-7.473 3.04-7.6 2.153s-.38-1.9 0-1.9c.3 0 2.07-9.082 3.494-12.966a1.748 1.748 0 012.5-.924z" fill="#d0cde1"/><path data-name="Path 460" d="M118.201 55.019l-1.773.507-2.027 8.741s-2.406.507-1.646 1.393a38.681 38.681 0 003.926 3.167z" fill="#d0cde1"/><path data-name="Path 461" d="M128.355 37.093a4.327 4.327 0 00-3.414-1.742h-.162c-3.123 0-5.656 2.826-5.656 6.313h1.047l.169-1.287.248 1.287h6.207l.52-1.088-.13 1.088h1.221q.855 4.245-2.456 8.49h2.08l1.04-2.177-.26 2.177h3.965l.78-5.007a8.462 8.462 0 00-5.199-8.054z" fill="#2f2e41"/><path data-name="Path 462" d="M22.274 95.515c1.332-2.9 2.27-9.778 2.27-17.8 0-10.645-3.122-21.239-5.156-21.239h-6.139v78.076h6.138v-35.6h24.554v35.6h6.138v-39.04zm-2.887-.135l.06.135h-.06z" fill="#3f3d56"/><path data-name="Path 463" d="M47.864 81.271s7.393 3.065 5.049 4.868-7.212-2.164-7.032-2.7-.721-1.8-.721-1.8z" fill="#9f616a"/><path data-name="Path 464" d="M41.37 57.109l2.344 2.164.541 6.311 1.8 6.671s3.065 6.311 2.524 7.573a1.094 1.094 0 00.541 1.623l-4.147 1.623s-4.508-5.049-4.508-6.131.905-19.834.905-19.834z" fill="#575a88"/><path data-name="Path 465" d="M41.37 57.109l2.344 2.164.541 6.311 1.8 6.671s3.065 6.311 2.524 7.573a1.094 1.094 0 00.541 1.623l-4.147 1.623s-4.508-5.049-4.508-6.131.905-19.834.905-19.834z" opacity=".1"/><path data-name="Path 466" d="M63.547 122.021s-.9 4.147-1.082 4.508 3.426 1.623 3.426 1.623l4.327-3.065a32.2 32.2 0 01-1.8-4.688z" fill="#575a88"/><path data-name="Path 467" d="M39.926 81.631l1.262 1.442s26.145 3.246 26.686 8.294 4.327 28.849 2.164 29.571-7.753 3.426-7.753 1.983-3.606-21.277-2.885-24.883c0 0-31.194-3.967-31.915-8.475s.721-6.491.721-6.491z" fill="#2f2e41"/><path data-name="Path 468" d="M39.926 81.631l1.262 1.442s26.145 3.246 26.686 8.294 4.327 28.849 2.164 29.571-7.753 3.426-7.753 1.983-3.606-21.277-2.885-24.883c0 0-31.194-3.967-31.915-8.475s.721-6.491.721-6.491z" opacity=".1"/><path data-name="Path 469" d="M63.187 126.168s-.721-1.623-1.082-1.082-1.623 6.852-.361 6.852 12.8 2.885 14.425 2.524 4.688.18 4.327-1.623a2.531 2.531 0 00-2.164-1.983s-6.672-3.967-7.032-5.95-2.344-.9-2.344-.9v1.262s-3.785 2.883-5.769.9z" fill="#2f2e41"/><path data-name="Path 470" d="M28.926 43.406s1.262 6.13-1.443 6.671 3.426 4.147 3.426 4.147l3.967 2.164 2.885-2.885s-2.615-5.319-.631-9.286-8.204-.811-8.204-.811z" fill="#9f616a"/><path data-name="Path 471" d="M37.763 53.503l-2.885 2.885-3.967-2.164s-6.131-3.606-3.426-4.147c1.74-.348 1.837-3.009 1.688-4.863a16.757 16.757 0 00-.245-1.808s10.187-3.155 8.2.811a6.919 6.919 0 00-.62 1.94 13.916 13.916 0 001.255 7.346z" fill="#9f616a"/><path data-name="Path 472" d="M47.86 127.25v4.147h6.852l.541-1.623-.721-4.328z" fill="#575a88"/><path data-name="Path 473" d="M19.552 85.238s0 10.638 4.327 11 19.834 2.344 19.834 2.344.9 17.67 2.524 23.44.18 6.13 1.623 6.491 7.573-.9 7.393-2.164-.9-33.177-.9-33.177 1.623-6.852-20.014-10.1z" fill="#2f2e41"/><path data-name="Path 474" d="M48.402 130.135s-1.082-2.344-1.262-1.623-2.344 7.032-.18 7.573 9.016 3.426 13.523 3.246a33.554 33.554 0 005.049-.361s1.262-1.8-.361-2.885a77.862 77.862 0 01-8.655-8.114c-.361-.721-3.065-1.262-3.065 0s-3.787 3.786-5.049 2.164z" fill="#2f2e41"/><path data-name="Path 475" d="M37.136 44.217a6.921 6.921 0 00-.62 1.94 4.218 4.218 0 01-2.625.4c-1.671 0-2.346-2.137-3.426-3.246-.085-1.03-1.533.09-1.533.09s10.183-3.151 8.204.816z" opacity=".1"/><circle data-name="Ellipse 37" cx="5.95" cy="5.95" r="5.95" transform="translate(27.485 34.57)" fill="#9f616a"/><path data-name="Path 476" d="M43.713 59.273s-.9 6.491-1.442 8.835-1.262 13.163-1.623 14.605-2.524 1.8-6.852 1.262a8.142 8.142 0 00-.819-.061c-2.665-.085-5.714.912-8.536 1.695a21.457 21.457 0 01-4.529.891c-2.056.094-2.658-2.185-2.587-4.652a12.863 12.863 0 011.325-5.626c1.094-1.565.018-15.617.422-20.251a3.357 3.357 0 01.3-1.385c1.082-1.443 8.114-5.049 8.9-4.9s7.506 4.362 7.506 4.362c1.623 0 1.57-1.76 1.57-1.76a5.79 5.79 0 003.3 2.661c2.159.538 3.065 4.324 3.065 4.324z" fill="#575a88"/><path data-name="Path 477" d="M31.66 82.649s11.615.37 9.58 1.75-11.05 2.642-11.231.839a2.726 2.726 0 011.651-2.589z" fill="#9f616a"/><path data-name="Path 478" d="M32.978 83.914c.038.692-1.825 2.252-2.427 3.307-.334.584-2.916-.186-6.109-1.612a62.628 62.628 0 01-7.117-3.761 12.863 12.863 0 011.325-5.626c1.095-1.565.018-15.617.422-20.251a2 2 0 01.3-.123h2.164c7.393 3.426-1.082 18.211-1.082 18.211s11.179 9.2 12.261 9.556a.324.324 0 01.263.299z" opacity=".1"/><path data-name="Path 479" d="M21.535 54.765h-2.164s-1.983.541-3.606 4.147-7.573 14.785-2.344 19.113 16.408 9.376 17.129 8.114 3.246-3.246 2.164-3.606-12.261-9.556-12.261-9.556 8.474-14.786 1.082-18.212z" fill="#575a88"/><path data-name="Path 480" d="M32.52 37.751s.261-3.615 3.482-2.141 3.011-2.589 2.038-3.307-.943-.9-4.5-.415-10.473 1.294-8.238 8.453 4.259 5.317 4.259 5.317-1.777-6.442.024-5.215l1.8 1.227.95-.2z" fill="#2f2e41"/><path data-name="Path 481" d="M165.44 89.803c0-3.255-24.185-5.893-54.018-5.893s-54.018 2.638-54.018 5.893c0 1.261 3.635 2.43 9.822 3.389v40.317h2.946v-39.9c9.909 1.277 24.71 2.089 41.25 2.089 16.677 0 31.587-.825 41.5-2.12v39.933h2.946V93.152c6.033-.951 9.572-2.105 9.572-3.349z" fill="#3f3d56"/><ellipse data-name="Ellipse 38" cx="10.999" cy="2.705" rx="10.999" ry="2.705" transform="translate(107.191 84.516)" fill="#f2f2f2"/><ellipse data-name="Ellipse 39" cx="9.015" cy="2.217" rx="9.015" ry="2.217" transform="translate(109.174 85.004)" fill="#d0cde1"/><ellipse data-name="Ellipse 40" cx="10.999" cy="2.705" rx="10.999" ry="2.705" transform="translate(66.261 86.68)" fill="#f2f2f2"/><ellipse data-name="Ellipse 41" cx="9.015" cy="2.217" rx="9.015" ry="2.217" transform="translate(68.244 87.168)" fill="#d0cde1"/><ellipse data-name="Ellipse 42" cx="5.243" cy=".828" rx="5.243" ry=".828" transform="translate(112.69 85.374)" fill="#9f616a"/><ellipse data-name="Ellipse 43" cx="1.656" cy=".897" rx="1.656" ry=".897" transform="translate(113.484 84.098)" fill="#eb1c24"/><ellipse data-name="Ellipse 44" cx="1.656" cy=".897" rx="1.656" ry=".897" transform="translate(112.863 84.098)" fill="#eb1c24"/><ellipse data-name="Ellipse 45" cx="1.656" cy=".897" rx="1.656" ry=".897" transform="translate(120.107 84.305)" fill="#eb1c24"/><ellipse data-name="Ellipse 46" cx="1.656" cy=".897" rx="1.656" ry=".897" transform="translate(116.313 84.098)" fill="#eb1c24"/><ellipse data-name="Ellipse 47" cx="1.656" cy=".897" rx="1.656" ry=".897" transform="translate(119.141 84.098)" fill="#eb1c24"/><path data-name="Path 482" d="M122.936 84.443a16.985 16.985 0 01-10.073 0v-.14a4.115 4.115 0 013.907-4.112 25.838 25.838 0 012.664 0 3.718 3.718 0 013.5 3.721z" fill="#3f3d56"/><path data-name="Path 483" d="M121.467 88.245a33.094 33.094 0 01-6.652 0 2.125 2.125 0 01-1.918-2.112h10.487a2.125 2.125 0 01-1.917 2.112z" fill="#3f3d56"/><path data-name="Path 484" d="M116.52 81.476a1.973 1.973 0 01-1.518 0 1.973 1.973 0 011.518 0z" fill="#d0cde1"/><path data-name="Path 485" d="M118.037 82.097a1.974 1.974 0 01-1.518 0 1.974 1.974 0 011.518 0z" fill="#d0cde1"/><path data-name="Path 486" d="M118.175 80.993a1.973 1.973 0 01-1.518 0 1.973 1.973 0 011.518 0z" fill="#d0cde1"/><path data-name="Path 487" d="M121.004 80.993a1.974 1.974 0 01-1.518 0 1.974 1.974 0 011.518 0z" fill="#d0cde1"/><path data-name="Path 488" d="M120.245 81.614a1.973 1.973 0 01-1.518 0 1.973 1.973 0 011.518 0z" fill="#d0cde1"/><ellipse data-name="Ellipse 48" cx="5.243" cy=".828" rx="5.243" ry=".828" transform="translate(71.94 87.538)" fill="#9f616a"/><ellipse data-name="Ellipse 49" cx="1.656" cy=".897" rx="1.656" ry=".897" transform="translate(72.734 86.261)" fill="#eb1c24"/><ellipse data-name="Ellipse 50" cx="1.656" cy=".897" rx="1.656" ry=".897" transform="translate(72.113 86.261)" fill="#eb1c24"/><ellipse data-name="Ellipse 51" cx="1.656" cy=".897" rx="1.656" ry=".897" transform="translate(79.357 86.468)" fill="#eb1c24"/><ellipse data-name="Ellipse 52" cx="1.656" cy=".897" rx="1.656" ry=".897" transform="translate(75.563 86.261)" fill="#eb1c24"/><ellipse data-name="Ellipse 53" cx="1.656" cy=".897" rx="1.656" ry=".897" transform="translate(78.391 86.261)" fill="#eb1c24"/><path data-name="Path 489" d="M82.186 86.606a16.984 16.984 0 01-10.073 0v-.14a4.115 4.115 0 013.907-4.112 25.872 25.872 0 012.664 0 3.718 3.718 0 013.5 3.721z" fill="#3f3d56"/><path data-name="Path 490" d="M80.717 90.408a33.093 33.093 0 01-6.652 0 2.125 2.125 0 01-1.918-2.112h10.487a2.125 2.125 0 01-1.917 2.112z" fill="#3f3d56"/><path data-name="Path 491" d="M75.77 83.64a1.973 1.973 0 01-1.518 0 1.973 1.973 0 011.518 0z" fill="#d0cde1"/><path data-name="Path 492" d="M77.287 84.261a1.974 1.974 0 01-1.518 0 1.974 1.974 0 011.518 0z" fill="#d0cde1"/><path data-name="Path 493" d="M77.425 83.157a1.973 1.973 0 01-1.518 0 1.973 1.973 0 011.518 0z" fill="#d0cde1"/><path data-name="Path 494" d="M80.254 83.157a1.973 1.973 0 01-1.518 0 1.973 1.973 0 011.518 0z" fill="#d0cde1"/><path data-name="Path 495" d="M79.495 83.778a1.973 1.973 0 01-1.518 0 1.973 1.973 0 011.518 0z" fill="#d0cde1"/><path data-name="Path 496" d="M127.652 86.488l.025.559.032.724s-3.327.188-4 .9a.405.405 0 00-.043.049l-1.333-.292v-.656l.054-.029.029-.015a12.13 12.13 0 015.236-1.24z" fill="#eb1c24"/><path data-name="Path 497" d="M127.652 86.488l.025.558a22.3 22.3 0 00-4.267.925l-1.022-.233a12.1 12.1 0 015.264-1.251z" opacity=".1"/><path data-name="Path 498" d="M122.412 87.724l.993.248.3.7a.4.4 0 00-.043.049l-1.333-.292v-.656l.054-.029z" fill="#fff" opacity=".1"/><path data-name="Path 499" d="M87.443 88.832l.025.558.032.724s-3.327.188-4 .9a.4.4 0 00-.043.049l-1.333-.292v-.656l.054-.03.029-.015a12.129 12.129 0 015.236-1.238z" fill="#eb1c24"/><path data-name="Path 500" d="M87.443 88.832l.025.558a22.3 22.3 0 00-4.268.925l-1.022-.233a12.1 12.1 0 015.265-1.25z" opacity=".1"/><path data-name="Path 501" d="M82.203 90.068l.993.248.3.7a.4.4 0 00-.043.049l-1.333-.292v-.657l.054-.029z" fill="#fff" opacity=".1"/><path data-name="Path 502" d="M147.69 69.759a3.327 3.327 0 00-.982-.679v-7.006a.31.31 0 00-.31-.31h-1.734a.31.31 0 00-.31.31v6.872a3.145 3.145 0 00-2.154 2.983v15.029a1.377 1.377 0 001.377 1.377h3.715a1.371 1.371 0 001.371-1.371V72.105a3.309 3.309 0 00-.973-2.346z" fill="#3f3d56"/><path data-name="Rectangle 303" fill="#eb1c24" d="M142.199 74.132h6.463v8.538h-6.463z"/><path data-name="Path 503" d="M146.845 62.244h-.14v-.169a.31.31 0 00-.31-.31h-1.734a.31.31 0 00-.31.31v.169h-.14v.718h.14v3.671h2.354v-3.671h.14z" fill="#eb1c24"/><path data-name="Path 504" d="M95.938 75.841a16.816 16.816 0 00-.353-.712 9.4 9.4 0 01-5.142 0 17.053 17.053 0 00-1.458 3.811c-.34 1.558-.143 2.6.587 3.105l.022.015c.806.531 1.574 1 2.284 1.4l.271.148h.009l.006.008a4.334 4.334 0 01.272.383 1.508 1.508 0 01.276.745v7.74h-.049c-1.851.038-3 .352-3 .62 0 .3 1.373.624 3.344.624s3.344-.329 3.344-.624c0-.265-1.126-.577-2.945-.619h-.049l.046-7.159a3.158 3.158 0 01.329-1.4c.037-.073.076-.144.117-.211s.068-.106.1-.156l.007-.009.01-.005q.137-.075.29-.162l.012-.007c.672-.379 1.4-.824 2.152-1.323.675-.445.91-1.344.7-2.673a14.273 14.273 0 00-1.182-3.539z" fill="#d0cde1"/><path data-name="Path 505" d="M96.112 81.904c-.793.522-1.447.914-1.947 1.2a11.394 11.394 0 00-2.189.061c-.513-.286-1.2-.7-2.056-1.258l-.024-.017c-.781-.537-.8-1.675-.546-2.838a6.882 6.882 0 013.061.454 7.146 7.146 0 004.35-.047 2.332 2.332 0 01-.649 2.445z" fill="#eb1c24"/><circle data-name="Ellipse 54" cx=".224" cy=".224" r=".224" transform="translate(91.175 78.18)" fill="#eb1c24"/><circle data-name="Ellipse 55" cx=".224" cy=".224" r=".224" transform="translate(90.547 80.244)" fill="#fff"/><circle data-name="Ellipse 56" cx=".135" cy=".135" r=".135" transform="translate(91.803 78.808)" fill="#eb1c24"/><circle data-name="Ellipse 57" cx=".135" cy=".135" r=".135" transform="translate(92.342 81.366)" fill="#fff"/><circle data-name="Ellipse 58" cx=".135" cy=".135" r=".135" transform="translate(91.399 81.501)" fill="#fff"/><circle data-name="Ellipse 59" cx=".135" cy=".135" r=".135" transform="translate(94.137 77.013)" fill="#eb1c24"/><path data-name="Path 506" d="M106.465 68.543a16.816 16.816 0 00-.353-.712 9.4 9.4 0 01-5.142 0 17.05 17.05 0 00-1.458 3.811c-.34 1.558-.143 2.6.587 3.105l.022.015c.806.531 1.574 1 2.284 1.4l.271.148h.009l.006.008a4.34 4.34 0 01.272.383 1.508 1.508 0 01.276.745v7.74h-.042c-1.851.038-3 .351-3 .62 0 .3 1.374.624 3.344.624s3.344-.329 3.344-.624c0-.265-1.126-.577-2.945-.619h-.043l.046-7.159a3.156 3.156 0 01.329-1.4c.037-.073.076-.144.117-.211s.068-.106.1-.156l.007-.009.01-.005q.137-.075.29-.162l.012-.007c.672-.379 1.4-.824 2.151-1.323.675-.445.91-1.344.7-2.673a14.286 14.286 0 00-1.194-3.539z" fill="#d0cde1"/><path data-name="Path 507" d="M106.639 74.608c-.793.522-1.447.914-1.947 1.2a11.4 11.4 0 00-2.189.061c-.513-.286-1.2-.7-2.056-1.258l-.024-.017c-.781-.537-.8-1.675-.546-2.838a6.883 6.883 0 013.061.454 7.146 7.146 0 004.35-.047 2.332 2.332 0 01-.649 2.445z" fill="#eb1c24"/><circle data-name="Ellipse 60" cx=".224" cy=".224" r=".224" transform="translate(101.701 70.883)" fill="#eb1c24"/><circle data-name="Ellipse 61" cx=".224" cy=".224" r=".224" transform="translate(101.073 72.948)" fill="#fff"/><circle data-name="Ellipse 62" cx=".135" cy=".135" r=".135" transform="translate(102.33 71.511)" fill="#eb1c24"/><circle data-name="Ellipse 63" cx=".135" cy=".135" r=".135" transform="translate(102.868 74.07)" fill="#fff"/><circle data-name="Ellipse 64" cx=".135" cy=".135" r=".135" transform="translate(101.926 74.204)" fill="#fff"/><circle data-name="Ellipse 65" cx=".135" cy=".135" r=".135" transform="translate(104.663 69.716)" fill="#eb1c24"/></svg>