<svg xmlns="http://www.w3.org/2000/svg" xmlns:xlink="http://www.w3.org/1999/xlink" width="420" height="287.412" viewBox="0 0 420 287.412"><defs><linearGradient id="a" x1=".386" y1=".622" x2=".386" y2="-.378" gradientUnits="objectBoundingBox"><stop offset="0" stop-color="gray" stop-opacity=".251"/><stop offset=".54" stop-color="gray" stop-opacity=".122"/><stop offset="1" stop-color="gray" stop-opacity=".102"/></linearGradient><linearGradient id="b" x1=".5" y1="1" x2=".5" y2="0" xlink:href="#a"/></defs><g transform="translate(-.002 .013)"><path data-name="Path 578" d="M40.99 218.06c-1.795 3.853.774 8.011-.117 11.989-1.125 5.02-7.576 8.927-14.525 11.421s-14.709 4.008-21.482 6.693c-2.928 1.159-5.982 3.3-4.459 5.263a6.742 6.742 0 002.481 1.606c19.729 9.1 44.114 14.048 68.478 13.889 25.77-.171 51-5.857 76.752-5.2 33.208.837 65.328 12.157 98.167 8.894 13.939-1.393 26.882-5.342 40.457-7.81 19.963-3.627 40.959-3.991 61.634-5.183 15.525-.9 33.266-3.217 40.683-11.944 5.363-6.308 3.112-14.642-4.443-19.984s-19.624-7.626-30.773-6.589c-5.995.556-11.952 2-17.947 1.426a49.232 49.232 0 01-9.869-2.309c-24.561-7.614-50-15.211-77.267-16.315-44.344-1.811-85.445 13.617-128.647 20.29-6.727 1.037-14.031 1.836-20.386.1-6.693-1.836-11.086-6.175-17.792-8-3.184-.87-6.731-1.121-9.86-2.067-8.6-2.6-4.6-6.179-16.541-3.765-6.236 1.261-12.536 3.298-14.544 7.595z" fill="#0c9add" opacity=".1"/><path data-name="Path 579" d="M45.887 86.613s23.327 23.327 10.166 57.94 22.59 92.172 22.59 92.172-.385-.054-1.092-.18c-47.933-8.459-71.737-63.248-45.1-103.94 9.902-15.152 18.036-32.898 13.436-45.992z" fill="#eb1c24"/><path data-name="Path 580" d="M45.887 86.613s23.327 23.327 10.166 57.94 22.59 92.172 22.59 92.172-.385-.054-1.092-.18c-47.933-8.459-71.737-63.248-45.1-103.94 9.902-15.152 18.036-32.898 13.436-45.992z" opacity=".1"/><path data-name="Path 581" d="M45.884 86.613s13.169 28.594 0 51.92-2.259 88.788 32.731 98.192" fill="none" stroke="#535461" stroke-miterlimit="10"/><path data-name="Path 582" d="M4.339 180.957s26.619-4.238 29.045 19.616 51.179 27.163 51.179 27.163-.318.218-.916.607c-40.252 26.418-78.735 16.834-72.937-18.256 2.159-13.057 1.979-26.151-6.371-29.13z" fill="#eb1c24"/><path data-name="Path 583" d="M4.339 180.957s26.619-4.238 29.045 19.616 51.179 27.163 51.179 27.163-.318.218-.916.607c-40.252 26.418-78.735 16.834-72.937-18.256 2.159-13.057 1.979-26.151-6.371-29.13z" fill="#f5f5f5" opacity=".2"/><path data-name="Path 584" d="M4.339 180.957s20.662 4.535 18.963 23.322 30.681 41.307 61.261 23.457" fill="none" stroke="#3a4a61" stroke-miterlimit="10"/><path data-name="Path 585" d="M283.106 236.198H64.136V99.414h28l11.521 14.232h179.449z" fill="#eb1c24"/><path data-name="Path 586" d="M283.106 236.198H64.136V99.414h28l11.521 14.232h179.449z" opacity=".1"/><path data-name="Rectangle 306" fill="#f1f1f4" d="M104.886 78.272l98.55-35.646 55.491 153.418-98.55 35.645z"/><path data-name="Rectangle 307" fill="#fff" d="M123.498 88.605l27.845-10.071 2.37 6.551-27.845 10.072z"/><path data-name="Rectangle 308" fill="#fff" d="M135.021 104.994l61.264-21.875 2.148 6.016-61.264 21.875z"/><path data-name="Rectangle 309" fill="#fff" d="M139.613 117.85l61.264-21.875 2.148 6.016-61.264 21.875z"/><path data-name="Rectangle 310" fill="#fff" d="M144.199 130.706l61.264-21.875 2.148 6.016-61.264 21.875z"/><path data-name="Rectangle 311" fill="#fff" d="M148.791 143.558l61.264-21.875 2.148 6.016-61.264 21.875z"/><path data-name="Rectangle 312" fill="#fff" d="M153.38 156.41l61.264-21.875 2.148 6.016-61.264 21.875z"/><path data-name="Rectangle 313" fill="#fff" d="M157.971 169.266l61.264-21.875 2.148 6.016-61.264 21.875z"/><path data-name="Rectangle 314" fill="#fff" d="M215.304 174.388l15.861-5.664 5.664 15.862-15.861 5.663z"/><path data-name="Rectangle 315" transform="rotate(-59.28 141.453 46.067)" fill="url(#a)" d="M0 0h108.195v168.435H0z"/><path data-name="Rectangle 316" fill="#f1f1f4" d="M32.695 144.03l53.557-90.128 140.307 83.374-53.557 90.129z"/><path data-name="Rectangle 317" fill="#fff" d="M53.545 140.208l15.132-25.465 5.992 3.56-15.132 25.466z"/><path data-name="Rectangle 318" fill="#fff" d="M72.49 144.707l33.231-55.924 5.492 3.264-33.231 55.923z"/><path data-name="Rectangle 319" fill="#fff" d="M84.224 151.681l33.231-55.924 5.492 3.264-33.231 55.923z"/><path data-name="Rectangle 320" fill="#fff" d="M95.912 158.468l33.182-55.953 5.494 3.258-33.181 55.953z"/><path data-name="Rectangle 321" fill="#fff" d="M107.689 165.624L140.92 109.7l5.492 3.264-33.231 55.923z"/><path data-name="Rectangle 322" fill="#fff" d="M119.424 172.598l33.231-55.924 5.492 3.264-33.231 55.923z"/><path data-name="Rectangle 323" fill="#fff" d="M131.162 179.573l33.231-55.924 5.492 3.264-33.231 55.923z"/><path data-name="Rectangle 324" fill="#fff" d="M178.456 146.721l8.59-14.486 14.487 8.59-8.59 14.487z"/><path data-name="Path 587" d="M876.637 162.159a2.7 2.7 0 00-.063-.59q-.063-.28-.109-.648-.117-.636-.268-1.23-.076-.3-.155-.581a15.658 15.658 0 00-3.142-5.978l-.251-.284q-.251-.276-.5-.523t-.485-.456c-.159-.142-.314-.272-.464-.4a9.408 9.408 0 00-.837-.615c-.259-.167-.351-.23-.5-.318a2.815 2.815 0 00-1.171-.381l-2.581-.251-3.489-.343-12.6-4.865-.5.176a28.915 28.915 0 01-.933-3.083 2.8 2.8 0 001-.724 2.267 2.267 0 00.686-.874c.318-.728-.289-2.284-.167-3.171a15.08 15.08 0 011.552-4.1 18.954 18.954 0 002.091-8.835 9.95 9.95 0 00-4.142-7.848c-1.339-.883-2.928-1.355-4.3-2.159-1.083-.628-2.037-1.443-3.071-2.15a17.729 17.729 0 00-17.374-1.234c-2.619 1.284-4.853 3.2-7.325 4.736s-5.384 2.723-8.275 2.267a1.847 1.847 0 00-.088.356l-.243-.029c-.5 1.351.724 2.682 1.849 3.606 2.133 1.749 4.556 3.5 7.342 3.556a8.206 8.206 0 013.192.239 2.858 2.858 0 01.594.368 13.721 13.721 0 004.355 13.738l-6.434-2.3s-.268.138-.686.4l-8.94-5.911s-17.918-6.488-22.9 3.568 21.57 4.865 21.57 4.865l5.681 3.1a5.129 5.129 0 00.623 3.384l15.478 9.513c-3.129.958-8.271 2.51-9.2 2.51-1.326 0-4.978 1.3-7.3 6.488s-10.617 30.5-17.917 34.722-26.54 32.448-26.54 32.448l.088.222q-.515.134-1.008.3a20.376 20.376 0 00-10.006 7.5 3.179 3.179 0 002.242 5.02c7.6.954 11.747-2.51 13.742-5.154q.195-.257.364-.5a2.686 2.686 0 001.874.084l9.291-7.463s-7.271 7.112-3.008 13.592l-.322.448a103.037 103.037 0 00-15.583 33.659s-3.983 2.928-4.313 14.6-4.313 30.5-4.313 30.5-2.656 22.389-1 29.2c0 0 .192.272.544.686-.125.146-.259.305-.418.469-1.448 1.556-4.062 3.7-7.112 3.062-4.648-.975-4.648 7.137 1.991 7.789 4.275.418 12.672 2.318 18.114 3.614a3.807 3.807 0 004.733-4.046 34.254 34.254 0 00-1.991-8.931 15.756 15.756 0 00-.205-.456c.2-.18.389-.368.586-.569 0 0 0-14.278 2.322-18.173 0 0 6.3-29.526 5.974-36.99-.259-5.857 16.353-28.581 23.586-38.186l-.058-.364c1.849-2.451 3.02-3.957 3.02-3.957l5.639 35.366s2.707 7.789 6.024 12c0 0 14.27 26.933 15.926 35.366a26.78 26.78 0 005.02 11.634c-.138.138-.28.276-.418.418-1.51 1.376-3.74 2.757-6.275 2.23-4.631-.979-4.631 7.133 2.008 7.781 4.275.418 12.671 2.318 18.114 3.614a3.807 3.807 0 004.731-4.045c-.376-3.376-1.117-7.576-2.548-10.04q-.18-.314-.376-.59a3.506 3.506 0 001.321-.928s-8.635-20.461-8.635-25.979c0 0-3.652-21.092-15.926-28.865 0 0 1.163-26.376 4.656-41.06q.13-.544.263-1.067c3.142-.49 6.372-1.146 9.681-2l.33-9.735 1.673 7.789 18.566-11.366s-.163-2.046-.477-5.183a326.363 326.363 0 00-1.214-10.42q-.088-.648-.18-1.305c-.242-1.749-.51-3.518-.8-5.25q-.163-.975-.335-1.928a129.56 129.56 0 00-.473-2.485q-.121-.606-.251-1.2t-.259-1.155q-.13-.565-.263-1.109l-.134-.535q-.138-.527-.276-1.029a18.485 18.485 0 01-.674-4.255q-.034-.837 0-1.715a14.084 14.084 0 01.167-1.707q.059-.418.142-.837a19.227 19.227 0 01.941-3.313q.309-.807.694-1.594c.6-1.226 1.255-2.556 1.908-3.957q.5-1.05 1-2.146t1.021-2.226c3.23-7.154 6.417-15.127 7.271-20.36.088-.552.155-1.071.188-1.56a10.378 10.378 0 00.033-1.369z" transform="translate(-475.793 -109)" fill="url(#b)"/><path data-name="Path 588" d="M345.418 31.853l-10.944-7.4s-17.382-6.438-22.209 3.539 20.917 4.828 20.917 4.828l10.944 6.116z" fill="#f7bbc3"/><path data-name="Rectangle 325" fill="#f1f1f4" d="M226.022 90.293l56.194-88.485 137.75 87.48-56.195 88.486z"/><path data-name="Rectangle 326" fill="#fff" d="M246.977 87.095l15.877-25.001 5.883 3.736-15.877 25z"/><path data-name="Rectangle 327" fill="#fff" d="M265.782 92.159l34.868-54.904 5.391 3.424-34.868 54.904z"/><path data-name="Rectangle 328" fill="#fff" d="M277.304 99.477l34.868-54.904 5.391 3.424-34.868 54.904z"/><path data-name="Rectangle 329" fill="#fff" d="M288.825 106.798l34.868-54.904 5.391 3.424-34.868 54.904z"/><path data-name="Rectangle 330" fill="#fff" d="M301.043 115.939l35.143-54.631 5.365 3.45-35.143 54.632z"/><path data-name="Rectangle 331" fill="#fff" d="M311.867 121.437l34.868-54.904 5.391 3.424-34.868 54.904z"/><path data-name="Rectangle 332" fill="#fff" d="M324.112 130.726l35.143-54.631 5.365 3.45-35.143 54.632z"/><path data-name="Rectangle 333" fill="#fff" d="M371.765 97.556l9.027-14.215 14.215 9.028-9.027 14.214z"/><path data-name="Path 589" d="M377.794 257.517c-5.279-1.288-13.425-3.171-17.57-3.585-6.438-.644-6.438-8.689-1.933-7.722 2.443.523 4.6-.837 6.07-2.213a14.242 14.242 0 001.259-1.368 3.72 3.72 0 012.092-1.255c2.414-.527 7.438-1.322 10.529.343a4.546 4.546 0 011.673 1.824c1.389 2.464 2.092 6.626 2.473 9.977a3.723 3.723 0 01-4.594 4z" fill="#b77983"/><path data-name="Path 590" d="M296.364 260.738c-5.279-1.289-13.424-3.171-17.57-3.585-6.438-.644-6.438-8.689-1.933-7.722 2.928.636 5.484-1.5 6.886-3.037.171-.188.326-.368.46-.535a3.721 3.721 0 012.092-1.255c2.414-.527 7.438-1.322 10.53.343a5.766 5.766 0 012.2 2.928 34.726 34.726 0 011.933 8.857 3.723 3.723 0 01-4.6 4.008z" fill="#b77983"/><path data-name="Path 591" d="M299.021 247.866c-7.685 7.919-14.274-.147-15.274-1.477.172-.189.326-.368.46-.535a3.717 3.717 0 012.092-1.255c2.414-.527 7.438-1.322 10.529.343a5.646 5.646 0 012.193 2.924z" opacity=".1"/><path data-name="Path 592" d="M379.91 243.527c-3.347 2.276-14.537 1.716-14.537 1.716a11.042 11.042 0 01-1.012-1.255 14.232 14.232 0 001.259-1.36 3.72 3.72 0 012.092-1.255c2.414-.527 7.438-1.322 10.529.343a4.548 4.548 0 011.669 1.811z" opacity=".1"/><path data-name="Path 593" d="M380.501 242.026c-2.255 2.895-15.127 2.255-15.127 2.255s-3.861-3.861-5.472-12.232-15.449-35.082-15.449-35.082c-3.217-4.183-5.794-11.91-5.794-11.91l-5.472-35.082s-26.393 34.76-26.071 42.164-5.794 36.684-5.794 36.684c-2.255 3.861-2.255 18.022-2.255 18.022-8.367 8.689-15.449-1.611-15.449-1.611-1.611-6.76.966-28.966.966-28.966s3.861-18.666 4.183-30.254 4.183-14.483 4.183-14.483a103.24 103.24 0 0115.115-33.388c1.945-2.786 3.229-4.271 3.229-4.271l52.142 6.116a32.876 32.876 0 00-2.242 6.907c-3.388 14.562-4.514 40.729-4.514 40.729 11.91 7.731 15.449 28.648 15.449 28.648.001 5.471 8.372 25.754 8.372 25.754z" fill="#8499f0"/><g data-name="Group 250" opacity=".05"><path data-name="Path 594" d="M330.312 154.26l-.669-4.288s-26.393 34.76-26.071 42.164-5.79 36.688-5.79 36.688c-2.255 3.861-2.255 18.022-2.255 18.022a11.105 11.105 0 01-5.02 3.23c2.535.665 5.618.18 8.9-3.23 0 0 0-14.161 2.255-18.022 0 0 6.116-29.284 5.794-36.692-.27-5.792 15.845-28.344 22.856-37.872z"/><path data-name="Path 595" d="M372.451 216.273s-3.539-20.917-15.449-28.644c0 0 1.125-26.163 4.514-40.729a32.928 32.928 0 012.242-6.907l-52.138-6.133s-.121.142-.343.418l48.623 5.7a32.863 32.863 0 00-2.242 6.907c-3.389 14.562-4.514 40.729-4.514 40.729 11.906 7.739 15.445 28.656 15.445 28.656 0 5.472 8.367 25.749 8.367 25.749-1.326 1.707-6.346 2.184-10.245 2.288 3.092.079 12.241.109 14.106-2.288.004.006-8.366-20.274-8.366-25.746z"/></g><path data-name="Path 596" d="M301.644 129.376a11.659 11.659 0 01-1.527 2.665c-1.937 2.606-5.961 6.058-13.332 5.112a3.167 3.167 0 01-2.175-4.974 19.731 19.731 0 019.705-7.438 17.475 17.475 0 014.108-.837z" fill="#f7bbc3"/><path data-name="Path 597" d="M369.615 39.362l-25.811-9.442s-7.4 3.861-4.506 9.333l25.1 15.771z" fill="#d39999"/><path data-name="Path 598" d="M369.615 39.362l-25.811-9.442s-7.4 3.861-4.506 9.333l25.1 15.771z" opacity=".1"/><path data-name="Path 599" d="M370.523 23.804s-.322 15.127 6.438 20.277-19.633 8.045-19.633 8.045 4.183-15.449 0-23.494 13.195-4.828 13.195-4.828z" fill="#f7bbc3"/><path data-name="Path 600" d="M363.439 139.993a32.86 32.86 0 00-2.242 6.907c-31.128 4.752-52.794-8.2-52.794-8.2-.117-.188-.23-.372-.335-.556 1.945-2.786 3.23-4.271 3.23-4.271z" opacity=".1"/><path data-name="Path 601" d="M301.644 129.376a11.672 11.672 0 01-1.527 2.665c-2.979-.493-5.363-6.191-5.8-7.3a17.487 17.487 0 014.108-.837z" opacity=".1"/><path data-name="Path 602" d="M373.095 37.321l-11.588 4.183-4.828 6.438s-9.977 3.217-11.266 3.217-4.828 1.288-7.083 6.438-10.3 30.246-17.378 34.429-25.749 32.212-25.749 32.212 3.217 8.689 7.083 7.4l9.011-7.4s-7.082 7.082-2.895 13.516c0 0 26.393 15.771 62.751 6.116l.322-9.655 1.611 7.722 18.051-11.278s-1.615-20.775-4.522-31.35a19.1 19.1 0 011.255-13.32c4.673-9.739 11.885-26 11.007-31.936-1.038-6.99-4.987-10.04-6.493-10.944a2.689 2.689 0 00-1.134-.377l-5.89-.59z" fill="#d39999"/><path data-name="Path 603" d="M353.3 69.671s-6.438 29.932-13.516 34.76-26.072 20.28-26.716 22.854" opacity=".05"/><path data-name="Path 604" d="M350.405 68.704s-6.438 29.932-13.516 34.76-26.076 20.277-26.716 22.866" fill="#d39999"/><path data-name="Path 605" d="M356.521 47.783s22.209-7.4 28.644-5.472" opacity=".1"/><g data-name="Group 251" opacity=".05"><path data-name="Path 606" d="M387.838 85.994c4.673-9.739 11.885-26 11.007-31.936-1.037-6.991-4.987-10.04-6.493-10.944a2.69 2.69 0 00-1.134-.376l-2.51-.251a2.649 2.649 0 01.744.305c1.506.92 5.438 3.953 6.493 10.944.878 5.928-6.334 22.2-11.007 31.936a19.1 19.1 0 00-1.255 13.32c2.928 10.576 4.522 31.35 4.522 31.35l-15.52 9.7.393 1.887 18.06-11.27s-1.615-20.775-4.522-31.35a19.1 19.1 0 011.222-13.315z"/><path data-name="Path 607" d="M382.429 41.831l2.79.276-12.123-4.786-1.088.393z"/></g><path data-name="Path 608" d="M350.405 99.925s9.977-5.472 13.195-4.183 15.127-.322 15.127-.322" opacity=".05"/><path data-name="Path 609" d="M369.385 27.829c-.368-3.225 1.125-2.736 1.125-2.736s-17.382-3.217-13.194 4.828a18.6 18.6 0 011.765 7.078h.163c4.862.004 7.677-5.397 10.141-9.17z" opacity=".05"/><circle data-name="Ellipse 80" cx="13.839" cy="13.839" r="13.839" transform="translate(345.418 8.033)" fill="#f7bbc3"/><path data-name="Path 610" d="M374.359 25.967a19.091 19.091 0 002.021-8.785 9.93 9.93 0 00-4.016-7.785c-1.3-.874-2.828-1.343-4.183-2.138-1.05-.623-1.979-1.431-2.978-2.134a16.872 16.872 0 00-16.851-1.226c-2.539 1.255-4.706 3.175-7.112 4.7s-5.221 2.7-8.028 2.246c-.481 1.339.7 2.661 1.795 3.577 2.071 1.736 4.418 3.468 7.112 3.527a7.721 7.721 0 013.1.238 4.442 4.442 0 011.581 1.468 28.766 28.766 0 013.284 5.568 4.685 4.685 0 001.473 2.163c1.255.795 2.857.134 4.33.075 2.292-.088 4.35 1.351 6.049 2.9s3.309 3.3 5.439 4.121c1.6.607 4.794.586 5.61-1.326.305-.72-.28-2.263-.159-3.146a16.685 16.685 0 011.533-4.043z" opacity=".1"/><path data-name="Path 611" d="M374.681 25.645a19.085 19.085 0 002.021-8.785 9.931 9.931 0 00-4.016-7.785c-1.3-.874-2.828-1.343-4.184-2.138-1.05-.623-1.979-1.431-2.978-2.134a16.871 16.871 0 00-16.851-1.226c-2.539 1.255-4.706 3.175-7.111 4.7s-5.221 2.7-8.028 2.246c-.481 1.339.7 2.661 1.795 3.577 2.071 1.736 4.417 3.468 7.112 3.527a7.72 7.72 0 013.1.238 4.442 4.442 0 011.582 1.468 28.765 28.765 0 013.284 5.568 4.685 4.685 0 001.472 2.163c1.255.795 2.857.134 4.33.075 2.293-.088 4.351 1.351 6.049 2.9s3.309 3.3 5.438 4.121c1.6.607 4.794.586 5.61-1.326.305-.72-.28-2.263-.159-3.146a16.772 16.772 0 011.534-4.043z" fill="#9b6c7a"/><path data-name="Path 612" d="M283.106 242.005H64.136V105.221h28l11.521 14.232h179.449z" fill="#eb1c24"/><path data-name="Path 613" d="M76.549 255.651s-9.442-1.887-11.96-4.405-13.847-6.923-15.106-3.765-16.993 13.847-6.275 15.738 25.176 2.51 28.326 1.255 5.015-8.823 5.015-8.823z" fill="#a2a6af"/><path data-name="Path 614" d="M43.19 262.035c10.7 1.887 25.176 2.51 28.326 1.255 2.4-.958 4.062-5.564 4.719-7.71l.314.067s-1.887 7.555-5.02 8.81-17.625.628-28.326-1.255c-3.087-.544-3.97-1.824-3.639-3.447.25 1.065 1.325 1.874 3.626 2.28z" opacity=".2"/><path data-name="Path 615" d="M271.653 272.953s-14.4-2.882-18.248-6.723-21.126-10.563-23.046-5.76-25.937 21.126-9.622 24.008 38.412 3.84 43.214 1.92 7.702-13.445 7.702-13.445z" fill="#a2a6af"/><path data-name="Path 616" d="M220.758 282.692c16.315 2.882 38.412 3.84 43.214 1.92 3.656-1.464 6.2-8.492 7.2-11.759l.481.1s-2.882 11.508-7.693 13.441-26.891.962-43.214-1.92c-4.715-.837-6.062-2.786-5.551-5.254.414 1.611 2.053 2.853 5.563 3.472z" opacity=".2"/><path data-name="Rectangle 334" opacity=".1" d="M147.248 169.428h48.527v8.367h-48.527z"/></g></svg>