<svg xmlns="http://www.w3.org/2000/svg" xmlns:xlink="http://www.w3.org/1999/xlink" width="180" height="123.178" viewBox="0 0 180 123.178"><defs><linearGradient id="linear-gradient" x1=".386" y1=".622" x2=".386" y2="-.378" gradientUnits="objectBoundingBox"><stop offset="0" stop-color="gray" stop-opacity=".251"/><stop offset=".54" stop-color="gray" stop-opacity=".122"/><stop offset="1" stop-color="gray" stop-opacity=".102"/></linearGradient><linearGradient id="linear-gradient-2" x1=".5" y1="1" x2=".5" y2="0" xlink:href="#linear-gradient"/></defs><g id="undraw_filing_system_b5d2" transform="translate(-.002 .014)"><path id="Path_578" data-name="Path 578" d="M115.588,602.209c-.769,1.651.332,3.433-.05,5.138-.482,2.152-3.247,3.826-6.225,4.895s-6.3,1.718-9.206,2.869c-1.255.5-2.564,1.413-1.911,2.255a2.89,2.89,0,0,0,1.063.688,70.5,70.5,0,0,0,29.348,5.952c11.044-.073,21.859-2.51,32.894-2.23,14.232.359,28,5.21,42.072,3.812,5.974-.6,11.521-2.289,17.339-3.347,8.556-1.554,17.554-1.71,26.414-2.221,6.653-.384,14.257-1.379,17.436-5.119,2.3-2.7,1.334-6.275-1.9-8.565s-8.41-3.268-13.188-2.824c-2.569.238-5.122.857-7.691.611a21.1,21.1,0,0,1-4.229-.99c-10.526-3.263-21.43-6.519-33.114-6.992-19-.776-36.619,5.836-55.135,8.7-2.883.445-6.013.787-8.737.041-2.869-.787-4.751-2.646-7.625-3.43-1.364-.373-2.885-.48-4.226-.886-3.686-1.115-1.972-2.648-7.089-1.614C119.149,599.495,116.449,600.368,115.588,602.209Z" transform="translate(-98.02 -508.763)" fill="#0c9add" opacity=".1"/><path id="Path_579" data-name="Path 579" d="M159.581,316.06a23.876,23.876,0,0,1,4.357,24.831c-5.64,14.834,9.682,39.5,9.682,39.5s-.165-.023-.468-.077a29.1,29.1,0,0,1-19.327-44.546C158.068,329.279,161.554,321.672,159.581,316.06Z" transform="translate(-139.916 -278.947)" fill="#eb1c24"/><path id="Path_580" data-name="Path 580" d="M159.581,316.06a23.876,23.876,0,0,1,4.357,24.831c-5.64,14.834,9.682,39.5,9.682,39.5s-.165-.023-.468-.077a29.1,29.1,0,0,1-19.327-44.546C158.068,329.279,161.554,321.672,159.581,316.06Z" transform="translate(-139.916 -278.947)" opacity=".1"/><path id="Path_581" data-name="Path 581" d="M197.1,316.06s5.644,12.254,0,22.251-.968,38.052,14.027,42.082" transform="translate(-177.437 -278.947)" fill="none" stroke="#535461" stroke-miterlimit="10" stroke-width="1"/><path id="Path_582" data-name="Path 582" d="M108.39,541.009s11.408-1.816,12.448,8.407,21.934,11.641,21.934,11.641-.136.093-.393.26c-17.251,11.322-33.744,7.215-31.259-7.824C112.046,547.9,111.969,542.285,108.39,541.009Z" transform="translate(-106.529 -463.463)" fill="#eb1c24"/><path id="Path_583" data-name="Path 583" d="M108.39,541.009s11.408-1.816,12.448,8.407,21.934,11.641,21.934,11.641-.136.093-.393.26c-17.251,11.322-33.744,7.215-31.259-7.824C112.046,547.9,111.969,542.285,108.39,541.009Z" transform="translate(-106.529 -463.463)" fill="#f5f5f5" opacity=".2"/><path id="Path_584" data-name="Path 584" d="M108.39,541.58s8.855,1.943,8.127,10,13.149,17.7,26.255,10.053" transform="translate(-106.529 -464.034)" fill="none" stroke="#3a4a61" stroke-miterlimit="10" stroke-width="1"/><path id="Path_585" data-name="Path 585" d="M247.154,296.282H153.31V237.66h12l4.938,6.1h76.905Z" transform="translate(-125.822 -195.061)" fill="#eb1c24"/><path id="Path_586" data-name="Path 586" d="M247.154,296.282H153.31V237.66h12l4.938,6.1h76.905Z" transform="translate(-125.822 -195.061)" opacity=".1"/><path id="Rectangle_306" data-name="Rectangle 306" transform="rotate(-20 118.289 -111.337)" fill="#f1f1f4" d="M0 0H44.931V69.947H0z"/><path id="Rectangle_307" data-name="Rectangle 307" transform="rotate(-20 134.934 -131.862)" fill="#fff" d="M0 0H12.695V2.987H0z"/><path id="Rectangle_308" data-name="Rectangle 308" transform="rotate(-19.65 158.828 -144.577)" fill="#fff" d="M0 0H27.879V2.738H0z"/><path id="Rectangle_309" data-name="Rectangle 309" transform="rotate(-19.65 175.72 -147.504)" fill="#fff" d="M0 0H27.879V2.738H0z"/><path id="Rectangle_310" data-name="Rectangle 310" transform="rotate(-19.65 192.611 -150.426)" fill="#fff" d="M0 0H27.879V2.738H0z"/><path id="Rectangle_311" data-name="Rectangle 311" transform="rotate(-19.65 209.495 -153.351)" fill="#fff" d="M0 0H27.879V2.738H0z"/><path id="Rectangle_312" data-name="Rectangle 312" transform="rotate(-19.65 226.384 -156.276)" fill="#fff" d="M0 0H27.879V2.738H0z"/><path id="Rectangle_313" data-name="Rectangle 313" transform="rotate(-19.65 243.273 -159.203)" fill="#fff" d="M0 0H27.879V2.738H0z"/><path id="Rectangle_314" data-name="Rectangle 314" transform="rotate(-19.65 261.896 -229.047)" fill="#fff" d="M0 0H7.218V7.218H0z"/><path id="Rectangle_315" data-name="Rectangle 315" transform="rotate(-59.28 60.616 19.738)" fill="url(#linear-gradient)" d="M0 0H46.369V72.187H0z"/><path id="Rectangle_316" data-name="Rectangle 316" transform="rotate(-59.28 61.242 18.546)" fill="#f1f1f4" d="M0 0H44.931V69.947H0z"/><path id="Rectangle_317" data-name="Rectangle 317" transform="rotate(-59.28 64.27 9.875)" fill="#fff" d="M0 0H12.695V2.987H0z"/><path id="Rectangle_318" data-name="Rectangle 318" transform="rotate(-59.28 70.024 3.705)" fill="#fff" d="M0 0H27.879V2.738H0z"/><path id="Rectangle_319" data-name="Rectangle 319" transform="rotate(-59.28 75.165 .78)" fill="#fff" d="M0 0H27.879V2.738H0z"/><path id="Rectangle_320" data-name="Rectangle 320" transform="rotate(-59.331 80.163 -2.13)" fill="#fff" d="M0 0H27.879V2.738H0z"/><path id="Rectangle_321" data-name="Rectangle 321" transform="rotate(-59.28 85.444 -5.07)" fill="#fff" d="M0 0H27.879V2.738H0z"/><path id="Rectangle_322" data-name="Rectangle 322" transform="rotate(-59.28 90.585 -7.995)" fill="#fff" d="M0 0H27.879V2.738H0z"/><path id="Rectangle_323" data-name="Rectangle 323" transform="rotate(-59.28 95.727 -10.92)" fill="#fff" d="M0 0H27.879V2.738H0z"/><path id="Rectangle_324" data-name="Rectangle 324" transform="rotate(-59.331 93.432 -35.701)" fill="#fff" d="M0 0H7.218V7.218H0z"/><path id="Path_587" data-name="Path 587" d="M802.841,131.775a1.157,1.157,0,0,0-.027-.253q-.027-.12-.047-.278-.05-.273-.115-.527-.032-.127-.066-.249a6.71,6.71,0,0,0-1.346-2.562l-.108-.122q-.108-.118-.213-.224t-.208-.2c-.068-.061-.134-.117-.2-.17a4.025,4.025,0,0,0-.359-.264c-.111-.072-.151-.1-.213-.136a1.207,1.207,0,0,0-.5-.163l-1.106-.108h0l-1.5-.147-5.4-2.085-.213.075a12.383,12.383,0,0,1-.4-1.321,1.2,1.2,0,0,0,.427-.31.971.971,0,0,0,.294-.375c.136-.312-.124-.979-.072-1.359a6.466,6.466,0,0,1,.665-1.757,8.123,8.123,0,0,0,.9-3.787,4.264,4.264,0,0,0-1.775-3.363c-.574-.378-1.255-.581-1.845-.925-.464-.269-.873-.619-1.316-.922a7.6,7.6,0,0,0-7.446-.529c-1.122.55-2.08,1.372-3.139,2.03a5.341,5.341,0,0,1-3.546.972.789.789,0,0,0-.038.152l-.1-.013c-.213.579.31,1.149.792,1.545a5.409,5.409,0,0,0,3.146,1.524,3.517,3.517,0,0,1,1.368.1,1.225,1.225,0,0,1,.255.158,5.881,5.881,0,0,0,1.866,5.888l-2.758-.986s-.115.059-.294.17l-3.831-2.533s-7.679-2.781-9.812,1.529,9.244,2.085,9.244,2.085l2.435,1.33a2.2,2.2,0,0,0,.267,1.45l6.634,4.077a36.263,36.263,0,0,1-3.944,1.076c-.568,0-2.134.556-3.129,2.781s-4.55,13.072-7.679,14.881-11.378,13.906-11.378,13.906l.038.1q-.221.057-.432.127a8.733,8.733,0,0,0-4.288,3.213,1.363,1.363,0,0,0,.961,2.151,5.992,5.992,0,0,0,5.89-2.209q.083-.11.156-.215a1.151,1.151,0,0,0,.8.036l3.982-3.2s-3.116,3.048-1.289,5.825l-.138.192a44.159,44.159,0,0,0-6.678,14.425s-1.707,1.255-1.849,6.257a95.565,95.565,0,0,1-1.848,13.072s-1.138,9.6-.427,12.516c0,0,.082.117.233.294-.054.063-.111.131-.179.2a3.435,3.435,0,0,1-3.048,1.312c-1.992-.418-1.992,3.059.853,3.338a76.8,76.8,0,0,1,7.763,1.549,1.632,1.632,0,0,0,2.028-1.734,14.68,14.68,0,0,0-.853-3.828c-.029-.066-.057-.131-.088-.2.084-.077.167-.158.251-.244,0,0,0-6.119,1-7.788,0,0,2.7-12.654,2.56-15.853-.111-2.51,7.008-12.249,10.108-16.365l-.025-.156c.792-1.051,1.294-1.7,1.294-1.7l2.417,15.157a21.97,21.97,0,0,0,2.582,5.142s6.116,11.543,6.826,15.157a11.477,11.477,0,0,0,2.151,4.986c-.059.059-.12.118-.179.179a3.133,3.133,0,0,1-2.689.956c-1.985-.42-1.985,3.057.861,3.335a76.8,76.8,0,0,1,7.763,1.549,1.631,1.631,0,0,0,2.028-1.734,12.375,12.375,0,0,0-1.092-4.3q-.077-.134-.161-.253a1.5,1.5,0,0,0,.565-.4s-3.7-8.769-3.7-11.134c0,0-1.565-9.04-6.826-12.371,0,0,.5-11.3,2-17.6q.055-.233.113-.457c1.347-.21,2.731-.491,4.149-.859l.142-4.172.717,3.338,7.957-4.871s-.07-.877-.2-2.221c-.068-.672-.151-1.461-.251-2.316-.079-.685-.17-1.411-.269-2.151q-.038-.278-.077-.559c-.1-.749-.219-1.508-.342-2.25q-.07-.418-.143-.826c-.065-.359-.133-.717-.2-1.065q-.052-.26-.108-.513t-.111-.495q-.056-.242-.113-.475l-.057-.229q-.059-.226-.118-.441a7.92,7.92,0,0,1-.289-1.823q-.015-.359,0-.735a6.042,6.042,0,0,1,.072-.732q.025-.179.061-.359a8.235,8.235,0,0,1,.4-1.42q.133-.346.3-.683c.258-.525.538-1.1.818-1.7q.213-.45.43-.92t.437-.954a41.725,41.725,0,0,0,3.116-8.726c.038-.237.066-.459.081-.669A4.448,4.448,0,0,0,802.841,131.775Z" transform="translate(-631.049 -109)" fill="url(#linear-gradient-2)"/><path id="Path_588" data-name="Path 588" d="M857.485,166.624l-4.69-3.173s-7.449-2.759-9.518,1.517,8.964,2.069,8.964,2.069l4.69,2.621Z" transform="translate(-709.448 -152.98)" fill="#f7bbc3"/><path id="Rectangle_325" data-name="Rectangle 325" transform="rotate(-57.59 83.655 -68.782)" fill="#f1f1f4" d="M0 0H44.931V69.947H0z"/><path id="Rectangle_326" data-name="Rectangle 326" transform="rotate(-57.59 86.9 -77.638)" fill="#fff" d="M0 0H12.695V2.987H0z"/><path id="Rectangle_327" data-name="Rectangle 327" transform="rotate(-57.59 92.905 -83.886)" fill="#fff" d="M0 0H27.879V2.738H0z"/><path id="Rectangle_328" data-name="Rectangle 328" transform="rotate(-57.59 98.23 -86.81)" fill="#fff" d="M0 0H27.879V2.738H0z"/><path id="Rectangle_329" data-name="Rectangle 329" transform="rotate(-57.59 103.553 -89.733)" fill="#fff" d="M0 0H27.879V2.738H0z"/><path id="Rectangle_330" data-name="Rectangle 330" transform="rotate(-57.25 110.028 -93.36)" fill="#fff" d="M0 0H27.84V2.734H0z"/><path id="Rectangle_331" data-name="Rectangle 331" transform="rotate(-57.59 114.201 -95.579)" fill="#fff" d="M0 0H27.879V2.738H0z"/><path id="Rectangle_332" data-name="Rectangle 332" transform="rotate(-57.25 120.777 -99.25)" fill="#fff" d="M0 0H27.84V2.734H0z"/><path id="Rectangle_333" data-name="Rectangle 333" transform="rotate(-57.59 117.73 -124.055)" fill="#fff" d="M0 0H7.218V7.218H0z"/><path id="Path_589" data-name="Path 589" d="M956.62,691.626a72.783,72.783,0,0,0-7.53-1.537c-2.759-.276-2.759-3.724-.828-3.31a2.983,2.983,0,0,0,2.6-.948,6.1,6.1,0,0,0,.54-.586,1.594,1.594,0,0,1,.9-.538c1.034-.226,3.188-.566,4.513.147a1.949,1.949,0,0,1,.717.782,12.738,12.738,0,0,1,1.06,4.276,1.6,1.6,0,0,1-1.969,1.714Z" transform="translate(-794.707 -581.269)" fill="#b77983"/><path id="Path_590" data-name="Path 590" d="M761.97,699.342a72.746,72.746,0,0,0-7.53-1.536c-2.759-.276-2.759-3.724-.828-3.31a3.307,3.307,0,0,0,2.951-1.3c.073-.081.14-.158.2-.229a1.6,1.6,0,0,1,.9-.538c1.035-.226,3.188-.567,4.513.147a2.471,2.471,0,0,1,.945,1.255,14.883,14.883,0,0,1,.828,3.8,1.6,1.6,0,0,1-1.972,1.718Z" transform="translate(-634.956 -587.605)" fill="#b77983"/><path id="Path_591" data-name="Path 591" d="M782.836,693.818c-3.293,3.394-6.117-.063-6.546-.633.073-.081.14-.158.2-.229a1.593,1.593,0,0,1,.9-.538c1.034-.226,3.188-.566,4.513.147A2.42,2.42,0,0,1,782.836,693.818Z" transform="translate(-654.683 -587.597)" opacity=".1"/><path id="Path_592" data-name="Path 592" d="M975.654,685.63c-1.434.975-6.23.735-6.23.735a4.74,4.74,0,0,1-.434-.538,6.107,6.107,0,0,0,.54-.583,1.594,1.594,0,0,1,.9-.538c1.034-.226,3.188-.566,4.513.147A1.949,1.949,0,0,1,975.654,685.63Z" transform="translate(-812.834 -581.269)" opacity=".1"/><path id="Path_593" data-name="Path 593" d="M816.462,475.381c-.966,1.241-6.483.966-6.483.966a10.569,10.569,0,0,1-2.345-5.242c-.69-3.588-6.621-15.035-6.621-15.035a21.662,21.662,0,0,1-2.483-5.1l-2.345-15.035s-11.311,14.9-11.173,18.07-2.483,15.722-2.483,15.722c-.966,1.655-.966,7.724-.966,7.724-3.586,3.724-6.621-.69-6.621-.69-.69-2.9.414-12.414.414-12.414a96.8,96.8,0,0,0,1.793-12.966c.138-4.966,1.793-6.207,1.793-6.207a44.246,44.246,0,0,1,6.478-14.309c.834-1.194,1.384-1.83,1.384-1.83l22.346,2.621a14.091,14.091,0,0,0-.961,2.96c-1.452,6.241-1.934,17.455-1.934,17.455,5.1,3.313,6.621,12.278,6.621,12.278C812.875,466.689,816.462,475.381,816.462,475.381Z" transform="translate(-653.39 -371.663)" fill="#8499f0"/><g id="Group_250" data-name="Group 250" transform="translate(124.504 57.361)" opacity=".05"><path id="Path_594" data-name="Path 594" d="M809.509,469.348l-.287-1.838s-11.311,14.9-11.173,18.07-2.481,15.723-2.481,15.723c-.966,1.655-.966,7.724-.966,7.724a4.759,4.759,0,0,1-2.151,1.384,3.787,3.787,0,0,0,3.815-1.384s0-6.069.966-7.724c0,0,2.621-12.55,2.483-15.725C799.6,483.1,806.5,473.432,809.509,469.348Z" transform="translate(-792.45 -460.606)"/><path id="Path_595" data-name="Path 595" d="M868.317,464.32s-1.517-8.964-6.621-12.276c0,0,.482-11.213,1.935-17.455a14.111,14.111,0,0,1,.961-2.96L842.247,429s-.052.061-.147.179l20.839,2.444a14.084,14.084,0,0,0-.961,2.96c-1.452,6.241-1.934,17.455-1.934,17.455,5.1,3.317,6.619,12.281,6.619,12.281,0,2.345,3.586,11.035,3.586,11.035-.568.732-2.72.936-4.391.981,1.325.034,5.246.047,6.045-.981C871.9,475.357,868.317,466.665,868.317,464.32Z" transform="translate(-833.198 -429)"/></g><path id="Path_596" data-name="Path 596" d="M784.5,407.545a5,5,0,0,1-.654,1.142,5.77,5.77,0,0,1-5.714,2.191,1.357,1.357,0,0,1-.932-2.132,8.456,8.456,0,0,1,4.159-3.188,7.488,7.488,0,0,1,1.761-.359Z" transform="translate(-655.227 -352.106)" fill="#f7bbc3"/><path id="Path_597" data-name="Path 597" d="M920.752,184.587,909.69,180.54s-3.173,1.655-1.931,4l10.757,6.759Z" transform="translate(-762.345 -167.724)" fill="#d39999"/><path id="Path_598" data-name="Path 598" d="M920.752,184.587,909.69,180.54s-3.173,1.655-1.931,4l10.757,6.759Z" transform="translate(-762.345 -167.724)" opacity=".1"/><path id="Path_599" data-name="Path 599" d="M956.559,164.674s-.138,6.483,2.759,8.69-8.414,3.448-8.414,3.448,1.793-6.621,0-10.069S956.559,164.674,956.559,164.674Z" transform="translate(-797.763 -154.479)" fill="#f7bbc3"/><path id="Path_600" data-name="Path 600" d="M858.16,431.661a14.084,14.084,0,0,0-.961,2.96,36.485,36.485,0,0,1-22.626-3.512c-.05-.081-.1-.16-.143-.238.834-1.194,1.384-1.831,1.384-1.831Z" transform="translate(-702.399 -371.672)" opacity=".1"/><path id="Path_601" data-name="Path 601" d="M804.691,407.537a5,5,0,0,1-.654,1.142c-1.277-.211-2.3-2.653-2.487-3.13a7.5,7.5,0,0,1,1.761-.359Z" transform="translate(-675.414 -352.098)" opacity=".1"/><path id="Path_602" data-name="Path 602" d="M837.062,198.23l-4.966,1.793-2.069,2.759s-4.276,1.379-4.828,1.379-2.069.552-3.035,2.759-4.412,12.963-7.448,14.755-11.035,13.805-11.035,13.805,1.379,3.724,3.035,3.173l3.862-3.173s-3.035,3.035-1.241,5.793c0,0,11.311,6.759,26.893,2.621l.138-4.138.69,3.31,7.736-4.834s-.692-8.9-1.938-13.436a8.186,8.186,0,0,1,.538-5.709c2-4.174,5.094-11.145,4.717-13.687a6.354,6.354,0,0,0-2.783-4.69,1.153,1.153,0,0,0-.486-.161l-2.524-.253Z" transform="translate(-677.162 -182.243)" fill="#d39999"/><path id="Path_603" data-name="Path 603" d="M863.622,275.56s-2.759,12.828-5.793,14.9-11.173,8.69-11.449,9.794" transform="translate(-712.207 -245.709)" opacity=".05"/><path id="Path_604" data-name="Path 604" d="M856.7,273.25s-2.759,12.828-5.793,14.9-11.173,8.69-11.449,9.8" transform="translate(-706.527 -243.813)" fill="#d39999"/><path id="Path_605" data-name="Path 605" d="M950.25,211.874s9.518-3.173,12.276-2.345" transform="translate(-797.454 -191.403)" opacity=".1"/><g id="Group_251" data-name="Group 251" transform="translate(159.433 15.987)" opacity=".05"><path id="Path_606" data-name="Path 606" d="M995.384,229.226c2-4.174,5.094-11.145,4.717-13.687a6.354,6.354,0,0,0-2.783-4.69,1.152,1.152,0,0,0-.486-.161l-1.076-.108a1.136,1.136,0,0,1,.319.131,6.392,6.392,0,0,1,2.783,4.69c.377,2.54-2.714,9.513-4.717,13.687a8.186,8.186,0,0,0-.538,5.709c1.255,4.532,1.938,13.436,1.938,13.436l-6.651,4.158.168.809,7.74-4.83s-.692-8.9-1.938-13.436A8.186,8.186,0,0,1,995.384,229.226Z" transform="translate(-988.6 -208.366)"/><path id="Path_607" data-name="Path 607" d="M893.716,91.163l1.2.118-5.2-2.051-.466.169Z" transform="translate(-889.25 -89.23)"/></g><path id="Path_608" data-name="Path 608" d="M935.63,339.041s4.276-2.345,5.655-1.793,6.483-.138,6.483-.138" transform="translate(-785.455 -296.223)" opacity=".05"/><path id="Path_609" data-name="Path 609" d="M956.045,168.926c-.158-1.382.482-1.173.482-1.173s-7.449-1.379-5.655,2.069a7.973,7.973,0,0,1,.757,3.034h.07C953.783,172.858,954.989,170.543,956.045,168.926Z" transform="translate(-797.736 -157.007)" opacity=".05"/><circle id="Ellipse_80" data-name="Ellipse 80" cx="5.931" cy="5.931" r="5.931" transform="translate(148.038 3.435)" fill="#f7bbc3"/><path id="Path_610" data-name="Path 610" d="M911.948,124.476a8.181,8.181,0,0,0,.866-3.765,4.256,4.256,0,0,0-1.721-3.337c-.556-.375-1.212-.576-1.793-.916-.45-.267-.848-.613-1.276-.914a7.231,7.231,0,0,0-7.222-.525,34.932,34.932,0,0,0-3.048,2.013,5.1,5.1,0,0,1-3.441.963c-.206.574.3,1.14.769,1.533a5.2,5.2,0,0,0,3.048,1.511,3.309,3.309,0,0,1,1.327.1,1.9,1.9,0,0,1,.678.629,12.328,12.328,0,0,1,1.407,2.386,2.008,2.008,0,0,0,.631.927c.538.341,1.224.057,1.856.032a3.849,3.849,0,0,1,2.592,1.242,7.952,7.952,0,0,0,2.331,1.766c.685.26,2.055.251,2.4-.568.131-.308-.12-.97-.068-1.348A7.151,7.151,0,0,1,911.948,124.476Z" transform="translate(-751.508 -113.355)" opacity=".1"/><path id="Path_611" data-name="Path 611" d="M912.718,123.706a8.179,8.179,0,0,0,.866-3.765,4.256,4.256,0,0,0-1.721-3.337c-.556-.375-1.212-.576-1.793-.916-.45-.267-.848-.613-1.276-.914a7.231,7.231,0,0,0-7.222-.525,34.912,34.912,0,0,0-3.048,2.013,5.1,5.1,0,0,1-3.441.963c-.206.574.3,1.14.769,1.533a5.2,5.2,0,0,0,3.048,1.511,3.309,3.309,0,0,1,1.327.1,1.9,1.9,0,0,1,.678.629,12.329,12.329,0,0,1,1.407,2.386,2.008,2.008,0,0,0,.631.927c.538.341,1.225.057,1.856.032a3.85,3.85,0,0,1,2.593,1.242,7.949,7.949,0,0,0,2.331,1.766c.685.26,2.055.251,2.4-.568.131-.308-.12-.97-.068-1.348A7.187,7.187,0,0,1,912.718,123.706Z" transform="translate(-752.14 -112.723)" fill="#9b6c7a"/><path id="Path_612" data-name="Path 612" d="M247.154,310.162H153.31V251.54h12l4.938,6.1h76.905Z" transform="translate(-125.822 -206.453)" fill="#eb1c24"/><path id="Path_613" data-name="Path 613" d="M208.295,701.946s-4.047-.809-5.126-1.888-5.934-2.967-6.474-1.614-7.283,5.934-2.689,6.745,10.79,1.076,12.14.538S208.295,701.946,208.295,701.946Z" transform="translate(-175.487 -592.389)" fill="#a2a6af"/><path id="Path_614" data-name="Path 614" d="M194.016,722.726c4.586.809,10.79,1.076,12.14.538,1.027-.411,1.741-2.385,2.022-3.3l.134.029s-.809,3.238-2.151,3.776-7.553.269-12.14-.538c-1.323-.233-1.7-.782-1.56-1.477C192.57,722.2,193.03,722.552,194.016,722.726Z" transform="translate(-175.505 -610.433)" opacity=".2"/><path id="Path_615" data-name="Path 615" d="M636.407,733.731s-6.173-1.235-7.821-2.881-9.054-4.527-9.877-2.469-11.116,9.054-4.124,10.289,16.462,1.646,18.52.823S636.407,733.731,636.407,733.731Z" transform="translate(-519.984 -616.758)" fill="#a2a6af"/><path id="Path_616" data-name="Path 616" d="M614.614,765.467c6.992,1.235,16.462,1.646,18.52.823,1.567-.628,2.657-3.64,3.087-5.04l.206.043s-1.235,4.932-3.3,5.761-11.525.412-18.52-.823c-2.021-.359-2.6-1.194-2.379-2.252C612.406,764.669,613.109,765.2,614.614,765.467Z" transform="translate(-520.002 -644.32)" opacity=".2"/><path id="Rectangle_334" data-name="Rectangle 334" transform="translate(63.107 72.604)" opacity=".1" d="M0 0H20.797V3.586H0z"/></g></svg>