<svg xmlns="http://www.w3.org/2000/svg" width="72" height="93.857" viewBox="0 0 72 93.857"><path id="Path_2011" data-name="Path 2011" d="M81.4,93.259l5.367-8.2H91.1l-6.206,9.1,6.32,11.53h-4.3l-4.3-8.227L81.4,99.282v6.4h-3.75V85.061H81.4v8.2Zm22.2,12.427V95.459c0-3.824-2.977-5.183-5.712-5.183a5.476,5.476,0,0,0-5.775,5.009h3.694a1.928,1.928,0,0,1,2.1-1.679,1.835,1.835,0,0,1,2.053,1.942v.9H97.537c-3.288,0-5.742,1.535-5.742,4.549a4.818,4.818,0,0,0,4.907,4.95,3.931,3.931,0,0,0,3.291-1.332v1.074Zm-3.637-5.447a2.424,2.424,0,0,1-2.657,2.523,1.717,1.717,0,0,1-1.877-1.768c0-.957.841-1.6,2.106-1.6h2.428v.842Zm16.722,5.447v-3.417h-6.613l6.066-8.981V90.479H105.69V93.9h5.828l-6.06,8.977v2.811Zm13.328,0V95.459c0-3.824-2.97-5.183-5.716-5.183a5.481,5.481,0,0,0-5.774,5.009h3.694a1.935,1.935,0,0,1,2.109-1.679,1.832,1.832,0,0,1,2.047,1.942v.9H123.95c-3.285,0-5.74,1.535-5.74,4.549a4.814,4.814,0,0,0,4.905,4.95,3.922,3.922,0,0,0,3.291-1.332v1.074Zm-3.64-5.447a2.423,2.423,0,0,1-2.655,2.523,1.717,1.717,0,0,1-1.875-1.768c0-.957.84-1.6,2.106-1.6h2.424v.842ZM136.4,90.474H132.71v15.211H136.4v-9.5a2.326,2.326,0,0,1,2.251-2.379,1.931,1.931,0,0,1,2.021,2.175v9.7h3.695v-9.7c0-3.537-2.075-5.678-4.994-5.678a4.359,4.359,0,0,0-2.972,1.012v-.843Zm-46.86,43.21v-3.739H81.4V124.7H88.94v-3.735H81.4V116.8h8.139v-3.738H77.654v20.625Zm1.238-15.208,4.849,7.648-4.878,7.56H95l2.743-4.434,2.714,4.434h4.358l-5.052-7.617,4.935-7.592h-4.241l-2.714,4.489-2.713-4.489Zm19.363,14.511a4.489,4.489,0,0,0,2.711.955c3.064,0,5.223-2.258,5.223-5.733v-4.26c0-3.5-2.16-5.675-5.223-5.675a4.454,4.454,0,0,0-2.711.927v-.727h-3.7V139.8h3.7v-6.809Zm4.241-4.778a2.125,2.125,0,1,1-4.241,0v-4.46a1.913,1.913,0,0,1,2.131-1.969,1.95,1.95,0,0,1,2.109,2.17v4.26Zm17.759-4.26c0-3.5-2.393-5.675-5.941-5.675-3.524,0-5.922,2.229-5.922,5.675v4.26c0,3.562,2.338,5.733,5.922,5.733,3.52,0,5.941-2.258,5.941-5.733v-4.26Zm-3.693,4.26a2.094,2.094,0,0,1-2.248,2.259,2.068,2.068,0,0,1-2.222-2.259v-4.26a1.994,1.994,0,0,1,2.222-2.17c1.755.087,2.274,1.157,2.248,2.17v4.26ZM90.665,66.355c-1.657-3.8-2.853-6.54-7.684-8.753l-1.826-.836,1.093-1.686c.145-.218,3.529-5.364,8.61-5.364a7.848,7.848,0,0,1,3.341.758,13.342,13.342,0,0,1,1.084-1.731,14.444,14.444,0,1,0-.909,23.9,15.639,15.639,0,0,1-2.766-4.163c-.341-.732-.647-1.438-.943-2.12ZM112.453,53c6.275-4.776,11.321,3.027,11.321,3.027-6.36,2.913-7.2,6.833-9.472,11.713-2.262,4.849-5.912,6.935-10.565,6.935s-8.3-2.087-10.56-6.935c-2.278-4.88-3.115-8.8-9.478-11.713,0,0,5.047-7.8,11.32-3.027,0,0,1.874-6.834,8.7-6.718h.043C110.581,46.163,112.453,53,112.453,53Z" transform="translate(-72.37 -45.939)" fill="#ed1c24" fill-rule="evenodd"/></svg>