<svg xmlns="http://www.w3.org/2000/svg" width="72" height="94" viewBox="0 0 72 94"><path fill="#fff" d="M40.082 7.058c6.275-4.776 11.32 3.027 11.32 3.027C45.044 13 44.207 16.92 41.932 21.8c-2.262 4.848-5.912 6.935-10.565 6.935s-8.303-2.087-10.56-6.935c-2.279-4.88-3.116-8.8-9.478-11.714 0 0 5.047-7.803 11.32-3.027 0 0 1.874-6.834 8.699-6.718h.043c6.82-.116 8.692 6.718 8.692 6.718zM18.294 20.416c.296.681.602 1.388.943 2.12.766 1.637 1.691 3.027 2.766 4.163a14.263 14.263 0 0 1-7.614 2.189C6.437 28.888 0 22.42 0 14.443S6.437 0 14.389 0c3.192 0 6.14 1.044 8.523 2.804a13.342 13.342 0 0 0-1.084 1.731 7.848 7.848 0 0 0-3.34-.758c-5.082 0-8.467 5.145-8.611 5.363l-1.094 1.687 1.826.836c4.832 2.213 6.028 4.957 7.685 8.753zM56.079 78.01c.026-1.013-.493-2.084-2.248-2.17-1.415 0-2.222.78-2.222 2.17v4.26c-.03 1.069.488 2.17 2.222 2.259 1.385 0 2.248-.87 2.248-2.26zm3.693 4.26c0 3.475-2.421 5.733-5.94 5.733-3.584 0-5.923-2.171-5.923-5.734v-4.26c0-3.445 2.398-5.674 5.922-5.674 3.548 0 5.941 2.173 5.941 5.675zm-17.759-4.26c.03-1.013-.404-2.084-2.109-2.17-1.354 0-2.044.722-2.131 1.969v4.46c-.03 1.07.402 2.171 2.131 2.26 1.362 0 2.11-.87 2.11-2.26zm-4.24 15.847h-3.697V72.534h3.697v.727c.896-.665 1.816-.926 2.71-.926 3.064 0 5.224 2.173 5.224 5.675v4.26c0 3.475-2.16 5.733-5.223 5.733-.895 0-1.815-.289-2.711-.955zm-15.118-21.32l2.713 4.488 2.714-4.488h4.24l-4.935 7.591 5.053 7.617h-4.358l-2.714-4.435-2.743 4.435H18.38l4.878-7.56-4.85-7.648zm-5.483 15.208H5.283V67.119h11.89v3.738h-8.14v4.172h7.536v3.735H9.033v5.241h8.14zm46.86-42.368c.782-.666 1.734-1.012 2.973-1.012 2.919 0 4.994 2.142 4.994 5.679v9.702h-3.695v-9.702c.03-1.014-.403-2.086-2.02-2.175-1.268.029-2.136.957-2.252 2.379v9.498H60.34V44.535h3.693zm-10.028 8.08h-2.425c-1.266 0-2.106.64-2.106 1.597.03 1.159.81 1.768 1.876 1.768 1.53 0 2.627-.873 2.655-2.523zm.031 6.289v-1.074c-.72.897-1.788 1.332-3.29 1.332-2.369 0-4.906-1.708-4.906-4.95 0-3.014 2.455-4.549 5.74-4.549h2.425v-.896c-.028-1.393-.922-1.942-2.047-1.942-1.066 0-1.962.55-2.109 1.679h-3.694c.38-3.561 3.206-5.01 5.774-5.01 2.746 0 5.716 1.36 5.716 5.184v10.226zm-20.948 0v-2.811l6.06-8.977H33.32V44.54h10.45v2.808l-6.066 8.982h6.612v3.417zm-5.493-6.288h-2.428c-1.266 0-2.106.64-2.106 1.596.03 1.159.808 1.768 1.877 1.768 1.531 0 2.628-.873 2.657-2.523zm.029 6.288v-1.074c-.726.897-1.789 1.332-3.292 1.332-2.363 0-4.907-1.708-4.907-4.95 0-3.014 2.454-4.549 5.742-4.549h2.428v-.896c-.029-1.393-.924-1.942-2.053-1.942-1.07 0-1.96.55-2.104 1.679h-3.694c.372-3.561 3.204-5.01 5.775-5.01 2.736 0 5.713 1.36 5.713 5.184v10.226zM9.033 47.319l5.367-8.198h4.333l-6.206 9.095 6.32 11.53h-4.3l-4.304-8.227-1.21 1.824v6.403h-3.75V39.121h3.75z"/></svg>